<svg xmlns="http://www.w3.org/2000/svg" xmlns:xlink="http://www.w3.org/1999/xlink" width="350" height="350" viewBox="0 0 350 350">
  <defs>
    <linearGradient id="linear-gradient" x1="0.694" y1="0.042" x2="0.324" y2="0.986" gradientUnits="objectBoundingBox">
      <stop offset="0" stop-color="#7937ff"/>
      <stop offset="1" stop-color="#fff"/>
    </linearGradient>
  </defs>
  <path id="Subtraction_3" data-name="Subtraction 3" d="M175,0a176.322,176.322,0,0,0-35.268,3.555A174.037,174.037,0,0,0,77.156,29.887a175.514,175.514,0,0,0-63.4,76.995,174.121,174.121,0,0,0-10.2,32.849,176.72,176.72,0,0,0,0,70.537,174.043,174.043,0,0,0,26.332,62.576,175.514,175.514,0,0,0,76.995,63.4,174.116,174.116,0,0,0,32.85,10.2,176.695,176.695,0,0,0,70.537,0,174.026,174.026,0,0,0,62.576-26.332,175.518,175.518,0,0,0,63.4-77,174.136,174.136,0,0,0,10.2-32.85,176.7,176.7,0,0,0,0-70.537,174.021,174.021,0,0,0-26.332-62.575,175.513,175.513,0,0,0-76.995-63.4,174.134,174.134,0,0,0-32.85-10.2A176.323,176.323,0,0,0,175,0Zm0,267.4A92.4,92.4,0,1,1,267.4,175,92.5,92.5,0,0,1,175,267.4Z" transform="translate(350 350) rotate(180)" opacity="0.07" fill="url(#linear-gradient)"/>
</svg>
