<svg xmlns="http://www.w3.org/2000/svg" width="211" height="148" viewBox="0 0 211 148">
  <g id="Group_3804" data-name="Group 3804" transform="translate(-496 -210)" opacity="0.2">
    <circle id="Ellipse_335" data-name="Ellipse 335" cx="2" cy="2" r="2" transform="translate(496 210)" fill="#4353ff"/>
    <circle id="Ellipse_335-2" data-name="Ellipse 335" cx="2" cy="2" r="2" transform="translate(519 210)" fill="#4353ff"/>
    <circle id="Ellipse_335-3" data-name="Ellipse 335" cx="2" cy="2" r="2" transform="translate(542 210)" fill="#4353ff"/>
    <circle id="Ellipse_335-4" data-name="Ellipse 335" cx="2" cy="2" r="2" transform="translate(565 210)" fill="#4353ff"/>
    <circle id="Ellipse_335-5" data-name="Ellipse 335" cx="2" cy="2" r="2" transform="translate(588 210)" fill="#4353ff"/>
    <circle id="Ellipse_335-6" data-name="Ellipse 335" cx="2" cy="2" r="2" transform="translate(611 210)" fill="#4353ff"/>
    <circle id="Ellipse_335-7" data-name="Ellipse 335" cx="2" cy="2" r="2" transform="translate(634 210)" fill="#4353ff"/>
    <circle id="Ellipse_335-8" data-name="Ellipse 335" cx="2" cy="2" r="2" transform="translate(657 210)" fill="#4353ff"/>
    <circle id="Ellipse_335-9" data-name="Ellipse 335" cx="2" cy="2" r="2" transform="translate(680 210)" fill="#4353ff"/>
    <circle id="Ellipse_335-10" data-name="Ellipse 335" cx="2" cy="2" r="2" transform="translate(703 210)" fill="#4353ff"/>
    <circle id="Ellipse_335-11" data-name="Ellipse 335" cx="2" cy="2" r="2" transform="translate(496 234)" fill="#4353ff"/>
    <circle id="Ellipse_335-12" data-name="Ellipse 335" cx="2" cy="2" r="2" transform="translate(519 234)" fill="#4353ff"/>
    <circle id="Ellipse_335-13" data-name="Ellipse 335" cx="2" cy="2" r="2" transform="translate(542 234)" fill="#4353ff"/>
    <circle id="Ellipse_335-14" data-name="Ellipse 335" cx="2" cy="2" r="2" transform="translate(565 234)" fill="#4353ff"/>
    <circle id="Ellipse_335-15" data-name="Ellipse 335" cx="2" cy="2" r="2" transform="translate(588 234)" fill="#4353ff"/>
    <circle id="Ellipse_335-16" data-name="Ellipse 335" cx="2" cy="2" r="2" transform="translate(611 234)" fill="#4353ff"/>
    <circle id="Ellipse_335-17" data-name="Ellipse 335" cx="2" cy="2" r="2" transform="translate(634 234)" fill="#4353ff"/>
    <circle id="Ellipse_335-18" data-name="Ellipse 335" cx="2" cy="2" r="2" transform="translate(657 234)" fill="#4353ff"/>
    <circle id="Ellipse_335-19" data-name="Ellipse 335" cx="2" cy="2" r="2" transform="translate(680 234)" fill="#4353ff"/>
    <circle id="Ellipse_335-20" data-name="Ellipse 335" cx="2" cy="2" r="2" transform="translate(703 234)" fill="#4353ff"/>
    <circle id="Ellipse_335-21" data-name="Ellipse 335" cx="2" cy="2" r="2" transform="translate(496 258)" fill="#4353ff"/>
    <circle id="Ellipse_335-22" data-name="Ellipse 335" cx="2" cy="2" r="2" transform="translate(519 258)" fill="#4353ff"/>
    <circle id="Ellipse_335-23" data-name="Ellipse 335" cx="2" cy="2" r="2" transform="translate(542 258)" fill="#4353ff"/>
    <circle id="Ellipse_335-24" data-name="Ellipse 335" cx="2" cy="2" r="2" transform="translate(565 258)" fill="#4353ff"/>
    <circle id="Ellipse_335-25" data-name="Ellipse 335" cx="2" cy="2" r="2" transform="translate(588 258)" fill="#4353ff"/>
    <circle id="Ellipse_335-26" data-name="Ellipse 335" cx="2" cy="2" r="2" transform="translate(611 258)" fill="#4353ff"/>
    <circle id="Ellipse_335-27" data-name="Ellipse 335" cx="2" cy="2" r="2" transform="translate(634 258)" fill="#4353ff"/>
    <circle id="Ellipse_335-28" data-name="Ellipse 335" cx="2" cy="2" r="2" transform="translate(657 258)" fill="#4353ff"/>
    <circle id="Ellipse_335-29" data-name="Ellipse 335" cx="2" cy="2" r="2" transform="translate(680 258)" fill="#4353ff"/>
    <circle id="Ellipse_335-30" data-name="Ellipse 335" cx="2" cy="2" r="2" transform="translate(703 258)" fill="#4353ff"/>
    <circle id="Ellipse_335-31" data-name="Ellipse 335" cx="2" cy="2" r="2" transform="translate(496 282)" fill="#4353ff"/>
    <circle id="Ellipse_335-32" data-name="Ellipse 335" cx="2" cy="2" r="2" transform="translate(519 282)" fill="#4353ff"/>
    <circle id="Ellipse_335-33" data-name="Ellipse 335" cx="2" cy="2" r="2" transform="translate(542 282)" fill="#4353ff"/>
    <circle id="Ellipse_335-34" data-name="Ellipse 335" cx="2" cy="2" r="2" transform="translate(565 282)" fill="#4353ff"/>
    <circle id="Ellipse_335-35" data-name="Ellipse 335" cx="2" cy="2" r="2" transform="translate(588 282)" fill="#4353ff"/>
    <circle id="Ellipse_335-36" data-name="Ellipse 335" cx="2" cy="2" r="2" transform="translate(611 282)" fill="#4353ff"/>
    <circle id="Ellipse_335-37" data-name="Ellipse 335" cx="2" cy="2" r="2" transform="translate(634 282)" fill="#4353ff"/>
    <circle id="Ellipse_335-38" data-name="Ellipse 335" cx="2" cy="2" r="2" transform="translate(657 282)" fill="#4353ff"/>
    <circle id="Ellipse_335-39" data-name="Ellipse 335" cx="2" cy="2" r="2" transform="translate(680 282)" fill="#4353ff"/>
    <circle id="Ellipse_335-40" data-name="Ellipse 335" cx="2" cy="2" r="2" transform="translate(703 282)" fill="#4353ff"/>
    <circle id="Ellipse_335-41" data-name="Ellipse 335" cx="2" cy="2" r="2" transform="translate(496 306)" fill="#4353ff"/>
    <circle id="Ellipse_335-42" data-name="Ellipse 335" cx="2" cy="2" r="2" transform="translate(519 306)" fill="#4353ff"/>
    <circle id="Ellipse_335-43" data-name="Ellipse 335" cx="2" cy="2" r="2" transform="translate(542 306)" fill="#4353ff"/>
    <circle id="Ellipse_335-44" data-name="Ellipse 335" cx="2" cy="2" r="2" transform="translate(565 306)" fill="#4353ff"/>
    <circle id="Ellipse_335-45" data-name="Ellipse 335" cx="2" cy="2" r="2" transform="translate(588 306)" fill="#4353ff"/>
    <circle id="Ellipse_335-46" data-name="Ellipse 335" cx="2" cy="2" r="2" transform="translate(611 306)" fill="#4353ff"/>
    <circle id="Ellipse_335-47" data-name="Ellipse 335" cx="2" cy="2" r="2" transform="translate(634 306)" fill="#4353ff"/>
    <circle id="Ellipse_335-48" data-name="Ellipse 335" cx="2" cy="2" r="2" transform="translate(657 306)" fill="#4353ff"/>
    <circle id="Ellipse_335-49" data-name="Ellipse 335" cx="2" cy="2" r="2" transform="translate(680 306)" fill="#4353ff"/>
    <circle id="Ellipse_335-50" data-name="Ellipse 335" cx="2" cy="2" r="2" transform="translate(703 306)" fill="#4353ff"/>
    <circle id="Ellipse_335-51" data-name="Ellipse 335" cx="2" cy="2" r="2" transform="translate(496 330)" fill="#4353ff"/>
    <circle id="Ellipse_335-52" data-name="Ellipse 335" cx="2" cy="2" r="2" transform="translate(519 330)" fill="#4353ff"/>
    <circle id="Ellipse_335-53" data-name="Ellipse 335" cx="2" cy="2" r="2" transform="translate(542 330)" fill="#4353ff"/>
    <circle id="Ellipse_335-54" data-name="Ellipse 335" cx="2" cy="2" r="2" transform="translate(565 330)" fill="#4353ff"/>
    <circle id="Ellipse_335-55" data-name="Ellipse 335" cx="2" cy="2" r="2" transform="translate(588 330)" fill="#4353ff"/>
    <circle id="Ellipse_335-56" data-name="Ellipse 335" cx="2" cy="2" r="2" transform="translate(611 330)" fill="#4353ff"/>
    <circle id="Ellipse_335-57" data-name="Ellipse 335" cx="2" cy="2" r="2" transform="translate(634 330)" fill="#4353ff"/>
    <circle id="Ellipse_335-58" data-name="Ellipse 335" cx="2" cy="2" r="2" transform="translate(657 330)" fill="#4353ff"/>
    <circle id="Ellipse_335-59" data-name="Ellipse 335" cx="2" cy="2" r="2" transform="translate(680 330)" fill="#4353ff"/>
    <circle id="Ellipse_335-60" data-name="Ellipse 335" cx="2" cy="2" r="2" transform="translate(703 330)" fill="#4353ff"/>
    <circle id="Ellipse_335-61" data-name="Ellipse 335" cx="2" cy="2" r="2" transform="translate(496 354)" fill="#4353ff"/>
    <circle id="Ellipse_335-62" data-name="Ellipse 335" cx="2" cy="2" r="2" transform="translate(519 354)" fill="#4353ff"/>
    <circle id="Ellipse_335-63" data-name="Ellipse 335" cx="2" cy="2" r="2" transform="translate(542 354)" fill="#4353ff"/>
    <circle id="Ellipse_335-64" data-name="Ellipse 335" cx="2" cy="2" r="2" transform="translate(565 354)" fill="#4353ff"/>
    <circle id="Ellipse_335-65" data-name="Ellipse 335" cx="2" cy="2" r="2" transform="translate(588 354)" fill="#4353ff"/>
    <circle id="Ellipse_335-66" data-name="Ellipse 335" cx="2" cy="2" r="2" transform="translate(611 354)" fill="#4353ff"/>
    <circle id="Ellipse_335-67" data-name="Ellipse 335" cx="2" cy="2" r="2" transform="translate(634 354)" fill="#4353ff"/>
    <circle id="Ellipse_335-68" data-name="Ellipse 335" cx="2" cy="2" r="2" transform="translate(657 354)" fill="#4353ff"/>
    <circle id="Ellipse_335-69" data-name="Ellipse 335" cx="2" cy="2" r="2" transform="translate(680 354)" fill="#4353ff"/>
    <circle id="Ellipse_335-70" data-name="Ellipse 335" cx="2" cy="2" r="2" transform="translate(703 354)" fill="#4353ff"/>
  </g>
</svg>
