<svg xmlns="http://www.w3.org/2000/svg" xmlns:xlink="http://www.w3.org/1999/xlink" width="100%" viewBox="0 0 369.999 129.001" style="height: auto" preserveAspectRatio="xMidYMid slice">
  <defs>
    <linearGradient id="leaf-shape-gradient" x1="0.5" y1="-0.17" x2="0.603" y2="1" gradientUnits="objectBoundingBox">
      <stop offset="0" stop-color="#fff" stop-opacity="0"/>
      <stop offset="1" stop-color="#ffe5ee"/>
    </linearGradient>
    <linearGradient id="leaf-shape-gradient-2" x1="0.678" y1="-0.02" x2="0.471" y2="1" gradientUnits="objectBoundingBox">
      <stop offset="0" stop-color="#ffafef"/>
      <stop offset="1" stop-color="#bd4bec"/>
    </linearGradient>
    <linearGradient id="leaf-shape-gradient-3" x1="0.614" y1="0.788" x2="0.09" y2="-0.043" gradientUnits="objectBoundingBox">
      <stop offset="0" stop-color="#0db159"/>
      <stop offset="1" stop-color="#acde04"/>
    </linearGradient>
    <linearGradient id="leaf-shape-gradient-4" x1="0.5" x2="0.5" y2="1" gradientUnits="objectBoundingBox">
      <stop offset="0" stop-color="#30cdff"/>
      <stop offset="1" stop-color="#4353ff"/>
    </linearGradient>
  </defs>
  <g id="Group_3698" data-name="Group 3698" transform="translate(-375 -751.001)">
    <path id="Intersection_12" data-name="Intersection 12" d="M8,129a8,8,0,0,1-8-8V77.282c3.655.63,7.655,1.458,12.058,2.286,17.2,3.236,40.588,6.47,73.9-2.126C160.514,58.2,139.46,4.207,233.79.129q2.894-.125,5.8-.13h.5C291.2.089,342.671,27.68,370,59.793V121a8,8,0,0,1-8,8Z" transform="translate(375 751.002)" fill="url(#leaf-shape-gradient)"/>
    <g id="Group_3695" data-name="Group 3695" transform="translate(375 779.002)" opacity="0.7">
      <path id="Path_3623" data-name="Path 3623" d="M933.756,313.62c-9.127,2.6-8.086,3.268-6.7,8.5s-.919,11.1-10.04,12.752c-8.252,1.494-1.072,4.87-8.591,16.033H885.416c-.032.089-.064.166-.089.236l-.038-.115a.935.935,0,0,0-.045-.121h-1.06c-.045-.345-.077-.689-.1-1.034-.07-.823-.1-1.647-.1-2.464a22.553,22.553,0,0,1,.338-4.008c.932-5.183,2.24-8.655,4.257-10.818,1.813-1.953,4.206-2.847,7.4-2.968,6.74-.243,5.642-6.319,5.572-10.78a19.039,19.039,0,0,1,.574-4.863c.945-3.721,3.2-7.25,7.755-6.574,6.638.989,12.886,3.115,13.1-1.251s1.391-9.669,10.289-6.006S942.883,311.016,933.756,313.62Z" transform="translate(-830.823 -250.579)" opacity="0.8" fill="url(#leaf-shape-gradient-2)"/>
      <path id="Path_3624" data-name="Path 3624" d="M855.287,344.134c-.032.089-.064.166-.089.236l-.038-.115a.954.954,0,0,0-.045-.121h-6.727a.685.685,0,0,0-.006.115c-.07-.038-.147-.077-.223-.115-.255-.128-.517-.268-.785-.428a42.131,42.131,0,0,1-9.159-7.627c-.3-.319-.613-.651-.925-.989-12.688-13.773-3.1-18.1-12.273-19.4s-11.724-7.072-10.537-12.35,2.2-5.993-7.021-8.233-8.795-9.484-.045-13.492,10.129,1.257,10.518,5.61,6.548,1.979,13.141.734,8.661,6.638,8.77,11.1c.019.7.013,1.43.013,2.176.013,4.04.274,8.4,5.974,8.38a10.2,10.2,0,0,1,7,2.2,6.89,6.89,0,0,1,.562.511c2.074,2.087,3.51,5.5,4.64,10.614a21.481,21.481,0,0,1,.421,2.872C859.084,333.347,856.3,341.491,855.287,344.134Z" transform="translate(-800.694 -243.806)" opacity="0.3" fill="url(#leaf-shape-gradient-3)"/>
      <path id="Path_3625" data-name="Path 3625" d="M862.7,350.468h-.8c-.115-.345-.23-.689-.357-1.034q-.488-1.446-1.034-2.885-1.541-4.1-3.376-8.074c-.045-.1-.089-.211-.14-.313-.179-.389-.364-.779-.555-1.162a108.658,108.658,0,0,0-8.4-14.66,91.152,91.152,0,0,0-5.559-7.34,80.848,80.848,0,0,0-6.159-6.561A68.62,68.62,0,0,0,821.65,297.7a68.938,68.938,0,0,1,14.807,10.588,81.923,81.923,0,0,1,6.108,6.351,92.241,92.241,0,0,1,5.8,7.461,110.9,110.9,0,0,1,8.227,13.856c.23.46.46.919.683,1.385.089.179.179.364.268.549q1.972,4.126,3.632,8.393c.089.23.172.453.255.683Q862.1,348.7,862.7,350.468Z" transform="translate(-808.275 -250.141)" fill="#fff"/>
      <path id="Path_3626" data-name="Path 3626" d="M910.9,242.018c-11.744,6.944-10.052,7.493-6.216,14.258s2.763,15.765-9.318,21.387c-6.038,2.808-5.31,4.7-4.525,8.91s1.608,10.767-4.238,22.894a72.259,72.259,0,0,1-8.495,14.041h-3.976c-.032.089-.064.166-.089.236l-.038-.115a.918.918,0,0,0-.045-.121h-6.727a.7.7,0,0,0-.006.115c-.07-.038-.147-.077-.223-.115h-5.5a71.805,71.805,0,0,1-4.442-8.055,41.934,41.934,0,0,1-4.046-14.022c-.44-5.6-.243-9.976.721-13.39a3.267,3.267,0,0,1,.1-.357,12.86,12.86,0,0,1,4.87-7.072,18.291,18.291,0,0,1,5.508-2.591c9.28-2.8,5.534-10.85,3.817-17.022s-2.176-17.89,7.41-18.93,19.058-.364,17.769-6.51-1.6-13.952,12.107-12.1S922.639,235.074,910.9,242.018Z" transform="translate(-819.54 -223.181)" opacity="0.8" fill="url(#leaf-shape-gradient-4)"/>
      <path id="Path_3627" data-name="Path 3627" d="M907.837,248.965a98.567,98.567,0,0,0-15.669,20.9,124.316,124.316,0,0,0-10.3,24.011q-1.111,3.552-2.042,7.148a163.1,163.1,0,0,0-3.644,18.349c-.013.115-.032.223-.045.338q-.086.565-.153,1.13-.766,5.744-1.13,11.533c-.013.153-.019.306-.026.46a.691.691,0,0,0-.006.115c-.07-.038-.147-.077-.223-.115h-.817c.013-.14.019-.287.032-.428,0-.032.006-.07.006-.1.325-4.334.823-8.642,1.468-12.937.006-.038.013-.083.019-.121.045-.306.1-.613.147-.919a161.675,161.675,0,0,1,3.81-17.813q.938-3.437,2.042-6.823a124.83,124.83,0,0,1,10.6-23.972A98.809,98.809,0,0,1,907.837,248.965Z" transform="translate(-827.133 -232.509)" fill="#fff" opacity="0.5"/>
      <path id="Path_3628" data-name="Path 3628" d="M932.152,316.495a69,69,0,0,0-14.233,11.3,86.36,86.36,0,0,0-11.163,14.348,109.344,109.344,0,0,0-7.882,15.12h-.664a111.606,111.606,0,0,1,8.2-15.343,87.162,87.162,0,0,1,11.367-14.265A68.868,68.868,0,0,1,932.152,316.495Z" transform="translate(-835.971 -256.938)" fill="#fff" opacity="0.7"/>
      <path id="Path_3629" data-name="Path 3629" d="M875.29,380.375a.7.7,0,0,0-.006.115c-.07-.038-.147-.077-.223-.115Z" transform="translate(-827.596 -280.047)" fill="#fff"/>
      <path id="Path_3630" data-name="Path 3630" d="M886.132,380.375c-.032.089-.064.166-.089.236L886,380.5a.948.948,0,0,0-.045-.121Z" transform="translate(-831.54 -280.047)" fill="#fff"/>
    </g>
  </g>
</svg>
