<svg xmlns="http://www.w3.org/2000/svg" xmlns:xlink="http://www.w3.org/1999/xlink" width="574" height="270.779" viewBox="0 0 574 270.779">
  <defs>
    <filter id="Rectangle_1851" x="388" y="35.492" width="186" height="186" filterUnits="userSpaceOnUse">
      <feOffset dy="2" input="SourceAlpha"/>
      <feGaussianBlur stdDeviation="10" result="blur"/>
      <feFlood flood-color="#641313" flood-opacity="0.259"/>
      <feComposite operator="in" in2="blur"/>
      <feComposite in="SourceGraphic"/>
    </filter>
  </defs>
  <g id="Group_6093" data-name="Group 6093" transform="translate(-711 -312.784)">
    <g id="Group_6090" data-name="Group 6090" transform="translate(800.802 362.206)">
      <g id="Group_6086" data-name="Group 6086" transform="translate(31.648 0)">
        <path id="Path_11228" data-name="Path 11228" d="M1235.586,650.465h-20.672v-8.521h-7.692v49.163h8.413v17.918h-50.474V691.106h8.412V641.943h-7.691v8.521h-20.671v-26.44h90.375Z" transform="translate(-1057.483 -624.025)" fill="#fff"/>
        <path id="Path_11229" data-name="Path 11229" d="M1507.155,641.943h-6.009v49.163h6.009v17.918h-45.428V691.106h5.769V673.079h-16.824v18.027h5.768v17.918h-45.426V691.106h6.008V641.943h-6.008V624.025h45.426v17.918h-5.768v16.606H1467.5V641.943h-5.769V624.025h45.428Z" transform="translate(-1224.017 -624.025)" fill="#fff"/>
        <path id="Path_11230" data-name="Path 11230" d="M981.091,678.76V624.025H951.768L910.306,677.45v17.918h39.058v13.656h31.727V695.368h8.292V678.76Zm-21.067,2.508-10.18-6.033-10.18,6.033,2.593-11.546-8.884-7.817,11.782-1.1,4.689-10.864,4.69,10.864,11.782,1.1-8.884,7.817Z" transform="translate(-910.306 -624.025)" fill="#fff"/>
      </g>
      <g id="Group_6087" data-name="Group 6087" transform="translate(0 98.747)">
        <path id="Path_11231" data-name="Path 11231" d="M833.022,936.812q-7.459-6.541-7.457-20.919t7.457-20.92q7.457-6.54,21.175-6.541t21.174,6.541q7.458,6.543,7.458,20.92t-7.458,20.919q-7.458,6.542-21.174,6.542T833.022,936.812Zm25-6.814a5.085,5.085,0,0,0,1.274-3.815V905.6a5.087,5.087,0,0,0-1.274-3.816,6.572,6.572,0,0,0-7.645,0A5.084,5.084,0,0,0,849.1,905.6v20.579a5.063,5.063,0,0,0,1.274,3.849,5.414,5.414,0,0,0,3.823,1.192A5.315,5.315,0,0,0,858.02,930Z" transform="translate(-825.565 -888.433)" fill="#fff"/>
        <path id="Path_11232" data-name="Path 11232" d="M993.75,944V932.822H997.5V902.16H993.75V890.984h44.822v17.649h-13.267V902.16h-6.821v11.311H1029.8v7.768h-11.318v11.583h9.819V944Z" transform="translate(-930.939 -890.031)" fill="#fff"/>
        <path id="Path_11233" data-name="Path 11233" d="M1203.865,943.76a28.894,28.894,0,0,1-8.62-3.305V928.462h14.991v.681q0,3.68,3.9,3.679a3.561,3.561,0,0,0,4.048-4.089V902.16h-6.746V890.984h31.481V902.16h-3.748v22.895q0,10.017-6.445,14.957t-17.915,4.941A48.663,48.663,0,0,1,1203.865,943.76Z" transform="translate(-1057.182 -890.031)" fill="#fff"/>
        <path id="Path_11234" data-name="Path 11234" d="M1347.9,940.25q-6.408-4.7-6.408-15.264V902.16h-3.747V890.984h27.733V902.16h-3v26.3a4.429,4.429,0,0,0,1.087,3.3,5.561,5.561,0,0,0,6.521,0,4.43,4.43,0,0,0,1.087-3.3v-26.3h-3V890.984h25.709V902.16h-3.747v22.827q0,10.562-6.222,15.264t-17.839,4.7Q1354.3,944.952,1347.9,940.25Z" transform="translate(-1146.461 -890.031)" fill="#fff"/>
        <path id="Path_11235" data-name="Path 11235" d="M1503.313,944V932.822h3.747V902.16h-3.747V890.984h31.63V902.16h-6.9v30.663h6.746v-6.269h14.915V944Z" transform="translate(-1250.198 -890.031)" fill="#fff"/>
        <path id="Path_11236" data-name="Path 11236" d="M1642.038,890.984h23.011V902.16h-3l-14.466,23.577v7.086h3.747V944h-28.483V932.822h3.749v-7.086l-14.916-23.577h-3V890.984h29.007V902.16h-2.623l4.422,10.561h.749l4.423-10.561h-2.623Z" transform="translate(-1316.216 -890.031)" fill="#fff"/>
      </g>
    </g>
    <path id="Path_6755" data-name="Path 6755" d="M-313.522-5.735h8.563l6.851-25.275,6.747,25.275h8.719l10.224-36.329h-8.46l-6.176,26.417-6.384-26.417h-9.5L-309.266-15.6l-6.176-26.469h-8.408Zm44.01-36.745v7.318h8.044V-42.48Zm.156,36.745h7.629V-31.893h-7.629Zm29.842-.259-.519-6.591a6.6,6.6,0,0,1-2.958.623c-1.868,0-3.114-1.349-3.114-3.685v-9.913h6.332v-6.332h-6.332V-39.47h-7.629v7.577h-4.152v6.332h4.152v10.9c0,6.332,4.308,9.342,9.965,9.342A13.551,13.551,0,0,0-239.514-5.995Zm5.917.259h7.629V-17.153c0-5.4,1.868-8.408,5.5-8.408a4.4,4.4,0,0,1,4.619,4.775V-5.735h7.577V-22.758c0-5.813-3.841-9.549-9.757-9.549a9.235,9.235,0,0,0-7.941,3.944V-42.48H-233.6Zm43.958,0h12.4c9.965,0,18.839-5.709,18.839-18.165s-8.875-18.165-18.839-18.165h-12.4Zm8.044-7.058V-35.058h3.477c5.865,0,11.47,2.751,11.47,11.158s-5.605,11.106-11.47,11.106Zm44.893-19.1-5.865,15.155-5.605-15.155h-8.252l10.068,24.86L-150.507,3.71h7.785l13.805-35.6Zm11.055,26.157h7.629v-11.47c0-5.4,1.868-8.356,5.5-8.356,2.751,0,4.515,1.92,4.515,4.775V-5.735h7.577V-22.81c0-5.761-3.841-9.5-9.6-9.5a9.476,9.476,0,0,0-7.992,3.892v-3.477h-7.629Zm41.364-26.572c-5.605,0-10.38,3.322-11.21,8.46l6.643,1.246a4.3,4.3,0,0,1,4.567-4.048c2.8,0,4.567,1.557,4.567,4.152v.156l-4.723.467c-7.525.778-11.314,3.581-11.314,8.771,0,4.36,3.581,7.785,8.667,7.785a9.02,9.02,0,0,0,7.37-3.737v3.322h7.37V-21.253C-72.347-28.623-77.174-32.308-84.284-32.308Zm-.934,21.538c-2.128,0-3.27-1.142-3.27-2.595,0-1.505,1.3-2.8,3.892-3.062L-79.717-17v.415C-79.769-13.52-81.793-10.77-85.218-10.77Zm18.787,5.034H-58.8v-13.39c0-4.152,1.816-6.8,4.93-6.8,2.647,0,4.2,1.765,4.2,4.619v15.57h7.525v-13.39c0-4.2,1.816-6.8,4.982-6.8,2.7,0,4.256,1.765,4.256,4.619v15.57h7.577v-17.8c0-4.982-3.737-8.771-9.394-8.771a9.97,9.97,0,0,0-8.823,4.671c-1.3-3.01-3.841-4.671-7.889-4.671a8.329,8.329,0,0,0-7.37,3.944v-3.529h-7.629ZM-19.566-42.48v7.318h8.044V-42.48Zm.156,36.745h7.629V-31.893H-19.41Zm29.842-.259-.519-6.591a6.6,6.6,0,0,1-2.958.623c-1.868,0-3.114-1.349-3.114-3.685v-9.913h6.332v-6.332H3.841V-39.47H-3.789v7.577H-7.941v6.332h4.152v10.9C-3.789-8.33.519-5.32,6.176-5.32A13.551,13.551,0,0,0,10.432-5.995ZM39.34-19.489c0-5.813-4-12.819-13.442-12.819-9.03,0-12.975,7.006-12.975,13.494S17.334-5.32,26.365-5.32c6.228,0,10.9-2.854,12.456-7.785l-7.162-1.92c-.571,2.18-2.491,3.373-5.086,3.373a5.869,5.869,0,0,1-6.124-4.982H39.236C39.288-17.205,39.34-18.451,39.34-19.489ZM20.552-22.032c.727-3.062,2.595-4.619,5.346-4.619,3.373,0,5.034,1.972,5.294,4.619ZM68.766-5.32c8.356,0,13.961-4.411,13.961-11,0-14.843-18.684-10.224-18.684-15.985,0-2.024,1.765-3.218,4.619-3.218a6.5,6.5,0,0,1,6.591,5.4l7.318-3.062c-1.246-5.553-6.9-9.29-13.909-9.29-7.11,0-12.819,4.256-12.819,10.224,0,13.338,18.632,9.29,18.632,16.141,0,2.284-2.128,3.841-5.4,3.841a7.344,7.344,0,0,1-7.214-6.747L54.7-16.894C55.376-10.251,61.5-5.32,68.766-5.32ZM97.415-32.308c-5.605,0-10.38,3.322-11.21,8.46L92.847-22.6a4.3,4.3,0,0,1,4.567-4.048c2.8,0,4.567,1.557,4.567,4.152v.156l-4.723.467c-7.525.778-11.314,3.581-11.314,8.771,0,4.36,3.581,7.785,8.667,7.785a9.02,9.02,0,0,0,7.37-3.737v3.322h7.37V-21.253C109.351-28.623,104.525-32.308,97.415-32.308ZM96.48-10.77c-2.128,0-3.27-1.142-3.27-2.595,0-1.505,1.3-2.8,3.892-3.062L101.982-17v.415C101.93-13.52,99.906-10.77,96.48-10.77Zm24.444,5.034h6.9l9.5-26.157h-7.681L124.35-14.558l-5.294-17.334h-7.629ZM140.439-42.48v7.318h8.044V-42.48Zm.156,36.745h7.629V-31.893h-7.629Zm13.546,0h7.629v-11.47c0-5.4,1.868-8.356,5.5-8.356,2.751,0,4.515,1.92,4.515,4.775V-5.735h7.577V-22.81c0-5.761-3.841-9.5-9.6-9.5a9.476,9.476,0,0,0-7.992,3.892v-3.477H154.14Zm48.526-26.157v2.232a8.882,8.882,0,0,0-6.851-2.647c-7.266,0-11.833,4.982-11.833,12.871s4.567,12.871,11.989,12.871c2.854,0,5.4-.986,6.747-2.7v2.491c0,2.906-2.335,4.93-5.916,4.93-2.543,0-4.775-1.246-5.138-3.373l-6.954,1.09c.934,4.93,5.968,8.252,12.092,8.252,8.044,0,13.39-4.723,13.39-11.729V-31.893Zm-5.449,18.839c-3.529,0-5.813-2.491-5.813-6.384s2.284-6.384,5.813-6.384c3.581,0,5.865,2.491,5.865,6.384S200.8-13.053,197.216-13.053ZM225.5-5.32c6.124,0,10.276-3.841,10.276-8.356,0-10.587-14.065-7.162-14.065-11.314,0-1.142,1.194-1.868,2.906-1.868a4.751,4.751,0,0,1,4.567,3.477l6.124-2.543c-1.194-3.789-5.605-6.384-10.951-6.384-5.761,0-9.342,3.425-9.342,7.525,0,9.913,13.857,7.162,13.857,11.262,0,1.453-1.349,2.439-3.373,2.439a5.7,5.7,0,0,1-5.553-4.463l-6.124,2.387C215.173-9.213,219.118-5.32,225.5-5.32Z" transform="translate(1034.85 579.437)" fill="#fff"/>
    <path id="Path_6754" data-name="Path 6754" d="M-147.42-.3h11.438c5.858,0,9.934-3.008,9.934-8.272a7.039,7.039,0,0,0-4.631-6.847,6.286,6.286,0,0,0,3.245-5.462c0-4.631-3.839-7.124-8.866-7.124H-147.42Zm6.135-17.217V-23.1h4.393c2.573,0,3.681,1.069,3.681,2.81,0,1.7-1.108,2.771-3.562,2.771Zm0,11.834v-6.61h4.749c3.245,0,4.631,1.187,4.631,3.364,0,2.137-1.385,3.245-4.631,3.245Zm38.035,5.7c6.57,0,11.122-3.523,11.122-10.607V-28h-5.818v17.375c0,3.6-2.216,5.224-5.3,5.224s-5.3-1.623-5.3-5.224V-28h-5.818v17.415C-114.372-3.5-109.82.018-103.25.018ZM-56.072-.3l-7.085-12.151a8.059,8.059,0,0,0,4-7.124c0-5.106-3.562-8.43-9.024-8.43H-79.226L-79.146-.3h6.253V-11.143h3.483L-63.394-.3ZM-72.893-22.66h3.641c2.454,0,3.839,1.148,3.839,3.087s-1.385,3.087-3.839,3.087h-3.641ZM-37.034.018c6.372,0,10.647-3.364,10.647-8.391,0-11.32-14.248-7.8-14.248-12.19,0-1.544,1.346-2.454,3.523-2.454A4.958,4.958,0,0,1-32.087-18.9l5.581-2.335c-.95-4.235-5.264-7.085-10.607-7.085-5.422,0-9.776,3.245-9.776,7.8,0,10.172,14.209,7.085,14.209,12.309,0,1.741-1.623,2.929-4.116,2.929a5.6,5.6,0,0,1-5.5-5.145L-47.76-8.808C-47.246-3.742-42.576.018-37.034.018ZM-9.29-.3h6.253V-22.66H5.077V-28h-22.52v5.343H-9.29Zm42.706,0h6.253V-28H33.416Zm19.156,0H58.39V-18.109L69.156-.3H75.37V-28H69.551v17.811L58.786-28H52.572Zm41.914,0h6.253V-22.66h8.114V-28H86.333v5.343h8.153Zm36.888.317a13.77,13.77,0,0,0,14.169-14.169A13.77,13.77,0,0,0,131.374-28.32a13.789,13.789,0,0,0-14.248,14.169A13.789,13.789,0,0,0,131.374.018Zm-.04-5.383c-4.67,0-7.955-3.72-7.955-8.787s3.285-8.826,7.955-8.826c4.631,0,7.955,3.76,7.955,8.826S135.965-5.364,131.334-5.364Z" transform="translate(976.361 341.104)" fill="#fff"/>
    <g id="Group_6095" data-name="Group 6095" transform="translate(36 50.276)">
      <g transform="matrix(1, 0, 0, 1, 675, 262.51)" filter="url(#Rectangle_1851)">
        <g id="Rectangle_1851-2" data-name="Rectangle 1851" transform="translate(421 66.49)" fill="red" stroke="#ffd62b" stroke-width="3">
          <rect width="120" height="120" rx="60" stroke="none"/>
          <rect x="-1.5" y="-1.5" width="123" height="123" rx="61.5" fill="none"/>
        </g>
      </g>
      <path id="Path_8113" data-name="Path 8113" d="M-16.525-26.98a3.543,3.543,0,0,0-3.767,3.9v8.062a3.543,3.543,0,0,0,3.767,3.9,3.543,3.543,0,0,0,3.767-3.9v-8.062A3.543,3.543,0,0,0-16.525-26.98Zm0,2.159c.925,0,1.432.617,1.432,1.762v8.018c0,1.145-.507,1.762-1.432,1.762s-1.432-.617-1.432-1.762v-8.018C-17.957-24.2-17.45-24.821-16.525-24.821Zm12.49.22V-26.76h-6.454v15.42h2.335v-6.741h3.3v-2.159h-3.3V-24.6Zm8,0V-26.76H-2.493v15.42H-.158v-6.741h3.3v-2.159h-3.3V-24.6Z" transform="translate(1164.292 442.003)" fill="#fff"/>
      <path id="Path_8114" data-name="Path 8114" d="M-24.467-26.76H-26.8v11.9c0,1.123-.507,1.542-1.322,1.542s-1.322-.419-1.322-1.542v-11.9h-2.247V-14.8c0,2.423,1.388,3.679,3.591,3.679A3.319,3.319,0,0,0-24.467-14.8Zm2.379,0v15.42h2.335v-6.388h1.035c2.511,0,3.877-1.366,3.877-3.9v-1.234c0-2.533-1.366-3.9-3.877-3.9Zm2.335,2.159h.947c1.123,0,1.63.595,1.63,1.894v.925c0,1.3-.507,1.894-1.63,1.894h-.947Zm16.213.044v-2.2h-7.313v2.2h2.489V-11.34h2.335V-24.557ZM1.395-26.98a3.543,3.543,0,0,0-3.767,3.9v8.062a3.543,3.543,0,0,0,3.767,3.9,3.543,3.543,0,0,0,3.767-3.9v-8.062A3.543,3.543,0,0,0,1.395-26.98Zm0,2.159c.925,0,1.432.617,1.432,1.762v8.018c0,1.145-.507,1.762-1.432,1.762S-.037-13.9-.037-15.041v-8.018C-.037-24.2.469-24.821,1.395-24.821Z" transform="translate(1169.692 373.98)" fill="#fff"/>
      <path id="Path_11285" data-name="Path 11285" d="M1.985-14.079l10.2-24.249h5.772v24.249h3.7v5.8h-3.7V-.031H12.185V-8.276H1.985Zm10.2,0V-26.02L7.421-14.079ZM32.616-32.525v8.215A5.532,5.532,0,0,1,35.029-26.2a5.076,5.076,0,0,1,1.924-.336,6.28,6.28,0,0,1,5.589,2.657A11.44,11.44,0,0,1,44.1-17.408v8.246A9.485,9.485,0,0,1,41.412-2.2,8.67,8.67,0,0,1,34.938.428a8.151,8.151,0,0,1-6.291-2.749,9.134,9.134,0,0,1-2.413-6.413v-.916l5.528-.428.122,1.313a3.4,3.4,0,0,0,1.863,3.054,2.291,2.291,0,0,0,1.038.244q3.543,0,3.543-3.7v-9.376a3.578,3.578,0,0,0-1.222-2.779,2.343,2.343,0,0,0-1.619-.519,2.468,2.468,0,0,0-2.26,1.191,4.269,4.269,0,0,0-.611,2.2v1.038h-5.8v-20.92H43.7v5.8Zm20.2,18.445a2.651,2.651,0,0,1-.826,1.953,2.7,2.7,0,0,1-1.962.817,2.686,2.686,0,0,1-1.971-.817,2.665,2.665,0,0,1-.817-1.953v-6.357a2.686,2.686,0,0,1,.817-1.971,2.686,2.686,0,0,1,1.971-.817A2.671,2.671,0,0,1,52-22.4a2.7,2.7,0,0,1,.817,1.962Zm-3.853-.036a.978.978,0,0,0,.293.719.978.978,0,0,0,.719.293.978.978,0,0,0,.719-.293.978.978,0,0,0,.293-.719v-6.357a.978.978,0,0,0-.293-.719.978.978,0,0,0-.719-.293.978.978,0,0,0-.719.293.978.978,0,0,0-.293.719ZM59.916-11.79a2.642,2.642,0,0,1,1.962.826A2.709,2.709,0,0,1,62.686-9v6.357a2.628,2.628,0,0,1-.817,1.953,2.7,2.7,0,0,1-1.953.8A2.7,2.7,0,0,1,57.945-.7a2.636,2.636,0,0,1-.817-1.944V-9a2.686,2.686,0,0,1,.817-1.971A2.686,2.686,0,0,1,59.916-11.79Zm.959,2.752a.978.978,0,0,0-.293-.719.978.978,0,0,0-.719-.293.978.978,0,0,0-.719.293.978.978,0,0,0-.293.719v6.357a.978.978,0,0,0,.293.719.978.978,0,0,0,.719.293.978.978,0,0,0,.719-.293.978.978,0,0,0,.293-.719ZM50.275.373H48.3L59.668-23.171h1.953Z" transform="translate(1124.015 408.327)" fill="#fff"/>
    </g>
  </g>
</svg>
