<svg xmlns="http://www.w3.org/2000/svg" xmlns:xlink="http://www.w3.org/1999/xlink" width="195.016" height="51.836" viewBox="0 0 195.016 51.836">
  <defs>
    <filter id="Path_8103" x="25.975" y="5.944" width="29.109" height="32.181" filterUnits="userSpaceOnUse">
      <feOffset dy="6" input="SourceAlpha"/>
      <feGaussianBlur stdDeviation="2.5" result="blur"/>
      <feFlood flood-opacity="0.2"/>
      <feComposite operator="in" in2="blur"/>
      <feComposite in="SourceGraphic"/>
    </filter>
    <filter id="Path_8104" x="42.427" y="5.238" width="19.233" height="33.068" filterUnits="userSpaceOnUse">
      <feOffset dy="6" input="SourceAlpha"/>
      <feGaussianBlur stdDeviation="2.5" result="blur-2"/>
      <feFlood flood-opacity="0.2"/>
      <feComposite operator="in" in2="blur-2"/>
      <feComposite in="SourceGraphic"/>
    </filter>
    <filter id="Path_8105" x="48.935" y="10.404" width="27.038" height="28.016" filterUnits="userSpaceOnUse">
      <feOffset dy="6" input="SourceAlpha"/>
      <feGaussianBlur stdDeviation="2.5" result="blur-3"/>
      <feFlood flood-opacity="0.2"/>
      <feComposite operator="in" in2="blur-3"/>
      <feComposite in="SourceGraphic"/>
    </filter>
    <filter id="Path_8106" x="63.181" y="10.404" width="26.628" height="28.062" filterUnits="userSpaceOnUse">
      <feOffset dy="6" input="SourceAlpha"/>
      <feGaussianBlur stdDeviation="2.5" result="blur-4"/>
      <feFlood flood-opacity="0.2"/>
      <feComposite operator="in" in2="blur-4"/>
      <feComposite in="SourceGraphic"/>
    </filter>
    <filter id="Path_8107" x="77.267" y="5.762" width="28.904" height="32.545" filterUnits="userSpaceOnUse">
      <feOffset dy="6" input="SourceAlpha"/>
      <feGaussianBlur stdDeviation="2.5" result="blur-5"/>
      <feFlood flood-opacity="0.2"/>
      <feComposite operator="in" in2="blur-5"/>
      <feComposite in="SourceGraphic"/>
    </filter>
  </defs>
  <g id="Group_5891" data-name="Group 5891" transform="translate(-358.001 -6.777)">
    <g id="Group_5887" data-name="Group 5887" transform="translate(11656 2024.136)">
      <g id="Group_5873" data-name="Group 5873" transform="translate(-11281 -1997.207)" style="mix-blend-mode: screen;isolation: isolate">
        <g id="Group_5872" data-name="Group 5872" transform="translate(0 0)">
          <path id="Path_8087" data-name="Path 8087" d="M159.223,251.516h10.559a3.765,3.765,0,0,1,0,7.53h-5.9V261.5h4.5a3.7,3.7,0,0,1,0,7.409h-4.5v4.26a4.327,4.327,0,0,1-8.653,0V255.509a3.717,3.717,0,0,1,3.993-3.993Zm10.559,7.13a3.365,3.365,0,0,0,0-6.73H159.223a3.321,3.321,0,0,0-3.593,3.593v17.659a3.927,3.927,0,0,0,7.853,0v-4.46a.2.2,0,0,1,.2-.2h4.7a3.3,3.3,0,0,0,0-6.609h-4.7a.2.2,0,0,1-.2-.2v-2.852a.2.2,0,0,1,.2-.2Z" transform="translate(-155.23 -250.575)" fill="#ff5a5a" opacity="0.7"/>
          <path id="Path_8088" data-name="Path 8088" d="M270.251,291.916a4.029,4.029,0,0,1,1.812.425,4.1,4.1,0,0,1,1.236.949,4.269,4.269,0,0,1,1.124-.921,3.687,3.687,0,0,1,1.805-.453,3.918,3.918,0,0,1,3.174,1.38,3.978,3.978,0,0,1,.88,2.491,3.8,3.8,0,0,1-3.78,3.811,1.477,1.477,0,0,0-1.072.342,3.541,3.541,0,0,0-.731,2.613v4.976a4.235,4.235,0,0,1-8.471,0V295.939A4.028,4.028,0,0,1,270.251,291.916ZM273.3,293.8h0a.2.2,0,0,1-.156-.077,3.694,3.694,0,0,0-1.255-1.025,3.633,3.633,0,0,0-5.257,3.24V307.53a3.835,3.835,0,0,0,7.671,0v-4.976a6.193,6.193,0,0,1,.246-1.886,2.341,2.341,0,0,1,.615-1.022,1.655,1.655,0,0,1,.753-.392,2.531,2.531,0,0,1,.589-.054,3.4,3.4,0,0,0,3.38-3.411,3.572,3.572,0,0,0-.789-2.237,3.531,3.531,0,0,0-2.865-1.234,3.292,3.292,0,0,0-1.612.4,4,4,0,0,0-1.163,1.007A.2.2,0,0,1,273.3,293.8Z" transform="translate(-249.386 -284.846)" fill="#ff5a5a" opacity="0.7"/>
          <path id="Path_8089" data-name="Path 8089" d="M359.006,246.916h1.4a3.781,3.781,0,0,1,1.3,7.329,4.243,4.243,0,0,1,2.235,3.733v11.378a4.235,4.235,0,0,1-8.471,0V257.978a4.243,4.243,0,0,1,2.235-3.733,3.8,3.8,0,0,1-2.249-2.252,3.781,3.781,0,0,1,3.551-5.078Zm.7,26.276a3.84,3.84,0,0,0,3.836-3.835V257.978a3.842,3.842,0,0,0-2.482-3.589.2.2,0,0,1,.03-.383,3.395,3.395,0,0,0,2.489-2.151,3.381,3.381,0,0,0-3.176-4.54h-1.4a3.381,3.381,0,0,0-.686,6.691.2.2,0,0,1,.03.383,3.842,3.842,0,0,0-2.482,3.589v11.378A3.84,3.84,0,0,0,359.7,273.192Z" transform="translate(-324.88 -246.673)" fill="#ff5a5a" opacity="0.7"/>
          <path id="Path_8090" data-name="Path 8090" d="M430.481,245.316a4.24,4.24,0,0,1,4.235,4.235v18.114a5.765,5.765,0,0,1-.291,1.857,4.388,4.388,0,0,1-.824,1.467,3.715,3.715,0,0,1-1.277.963,3.9,3.9,0,0,1-1.63.343,4.019,4.019,0,0,1-2.962-1.309,8.123,8.123,0,0,1-4.623,1.34,8.655,8.655,0,0,1-3.5-.7,7.5,7.5,0,0,1-2.683-1.983,8.941,8.941,0,0,1-1.707-3.091,12.922,12.922,0,0,1-.6-4.017,11.394,11.394,0,0,1,2.234-7.222,8.09,8.09,0,0,1,6.553-3.021,7.793,7.793,0,0,1,2.834.488v-3.231A4.24,4.24,0,0,1,430.481,245.316Zm.213,26.579a3.5,3.5,0,0,0,1.464-.307,3.317,3.317,0,0,0,1.14-.86,3.988,3.988,0,0,0,.749-1.334,5.367,5.367,0,0,0,.27-1.728V249.551a3.835,3.835,0,1,0-7.671,0v3.532a.2.2,0,0,1-.282.183,7.192,7.192,0,0,0-2.952-.571,7.7,7.7,0,0,0-6.241,2.872,11,11,0,0,0-2.146,6.972,12.523,12.523,0,0,0,.577,3.893,8.541,8.541,0,0,0,1.629,2.954,7.5,7.5,0,0,0,5.877,2.541,7.674,7.674,0,0,0,4.538-1.369.2.2,0,0,1,.27.033A3.625,3.625,0,0,0,430.694,271.9Zm-5.886-13.229a1.5,1.5,0,0,1,1.413.819,5.947,5.947,0,0,1,.578,2.9,6.931,6.931,0,0,1-.36,2.455,2.273,2.273,0,0,1-.611.92,1.568,1.568,0,0,1-1.049.375,1.586,1.586,0,0,1-1.1-.417,2.437,2.437,0,0,1-.614-.981,6.81,6.81,0,0,1-.334-2.321,7.18,7.18,0,0,1,.339-2.341,2.455,2.455,0,0,1,.623-.989A1.614,1.614,0,0,1,424.807,258.666Zm-.03,7.07a1.357,1.357,0,0,0,1.288-1.04,6.551,6.551,0,0,0,.332-2.31,5.574,5.574,0,0,0-.523-2.7,1.106,1.106,0,0,0-1.068-.621,1.21,1.21,0,0,0-.85.316,2.066,2.066,0,0,0-.517.831,7.868,7.868,0,0,0-.005,4.387,2.046,2.046,0,0,0,.508.823A1.182,1.182,0,0,0,424.777,265.736Z" transform="translate(-375.266 -245.316)" fill="#ff5a5a" opacity="0.7"/>
          <path id="Path_8091" data-name="Path 8091" d="M558.212,290.715a13.551,13.551,0,0,1,3.936.519A7.4,7.4,0,0,1,565,292.8a6.541,6.541,0,0,1,1.726,2.612,10.448,10.448,0,0,1,.572,3.6v7.616a4.045,4.045,0,0,1-6.992,2.839,6.565,6.565,0,0,1-2.066,1.049,9.288,9.288,0,0,1-2.763.377,8.4,8.4,0,0,1-2.842-.471A6.6,6.6,0,0,1,550.4,309.1a5.927,5.927,0,0,1-1.46-2.045,6.538,6.538,0,0,1-.52-2.609,5.9,5.9,0,0,1,3.019-5.426,3.6,3.6,0,0,1-1.311-1.125,3.549,3.549,0,0,1-.646-2.066,3.916,3.916,0,0,1,1.266-2.91,6.706,6.706,0,0,1,2.21-1.349A15.775,15.775,0,0,1,558.212,290.715Zm5.067,19.631a3.674,3.674,0,0,0,3.623-3.714v-7.616a10.053,10.053,0,0,0-.547-3.465,6.149,6.149,0,0,0-1.62-2.454,7.007,7.007,0,0,0-2.7-1.482,13.158,13.158,0,0,0-3.819-.5,15.363,15.363,0,0,0-5.107.829,6.3,6.3,0,0,0-2.076,1.264,3.53,3.53,0,0,0-1.144,2.622,3.152,3.152,0,0,0,.572,1.835,3.249,3.249,0,0,0,1.51,1.152.2.2,0,0,1,.019.366,5.615,5.615,0,0,0-2.359,2.114,6.022,6.022,0,0,0-.8,3.151,6.143,6.143,0,0,0,.487,2.45,5.531,5.531,0,0,0,1.362,1.908,6.2,6.2,0,0,0,2.1,1.246,8,8,0,0,0,2.707.447,8.9,8.9,0,0,0,2.645-.36,6.16,6.16,0,0,0,2.083-1.1.2.2,0,0,1,.278.027A3.645,3.645,0,0,0,563.279,310.346Zm-5.128-13.2a2.2,2.2,0,0,1,.779.079.757.757,0,0,1,.437.595.2.2,0,0,1-.2.243h-.778c-.753,0-1.388.021-2,.066a.2.2,0,0,1-.13-.363,3.521,3.521,0,0,1,.811-.443A3.072,3.072,0,0,1,558.151,297.147Zm.725.516a.222.222,0,0,0-.094-.066,2.045,2.045,0,0,0-.631-.05,2.671,2.671,0,0,0-.891.135c.354-.013.727-.019,1.134-.019Zm-.179,5.431h.457a.2.2,0,0,1,.192.256,2.189,2.189,0,0,1-.424.815,1.876,1.876,0,0,1-.583.459,2.273,2.273,0,0,1-1.007.235,1,1,0,0,1-.82-.292.7.7,0,0,1-.139-.454.718.718,0,0,1,.533-.757A4.744,4.744,0,0,1,558.7,303.094Zm.173.4H558.7a4.382,4.382,0,0,0-1.633.23c-.277.12-.291.193-.291.389a.312.312,0,0,0,.051.2.675.675,0,0,0,.508.142,1.866,1.866,0,0,0,.826-.191A1.52,1.52,0,0,0,558.87,303.494Z" transform="translate(-488.763 -283.827)" fill="#ff5a5a" opacity="0.7"/>
          <path id="Path_8092" data-name="Path 8092" d="M679.1,249.916a3.98,3.98,0,0,1,3.552,2.141l2.812,5.124,2.662-5.158a3.908,3.908,0,0,1,7.376,1.795,3.83,3.83,0,0,1-.526,1.925l-5.3,9.341v6.727a4.327,4.327,0,0,1-8.653,0v-6.444l-5.461-9.337,0-.007-.01-.019a4.26,4.26,0,0,1-.533-2.035A4.073,4.073,0,0,1,679.1,249.916Zm6.369,7.891a.2.2,0,0,1-.175-.1l-2.993-5.455v0a3.586,3.586,0,0,0-3.2-1.931,3.673,3.673,0,0,0-3.684,3.654,3.865,3.865,0,0,0,.486,1.846h0l.008.015,5.486,9.38a.2.2,0,0,1,.027.1v6.5a3.927,3.927,0,0,0,7.853,0v-6.78a.2.2,0,0,1,.026-.1l5.326-9.388v0a3.429,3.429,0,0,0,.472-1.724,3.508,3.508,0,0,0-6.62-1.614v0l-2.835,5.493a.2.2,0,0,1-.175.108Z" transform="translate(-596.15 -249.218)" fill="#ff5a5a" opacity="0.7"/>
        </g>
      </g>
      <g id="Group_5876" data-name="Group 5876" transform="translate(-11279.587 -1995.793)">
        <path id="Path_8095" data-name="Path 8095" d="M164.23,263.1a2.322,2.322,0,0,1,2.579-2.579h10.559a2.352,2.352,0,0,1,0,4.7h-7.312V270.5h5.917a2.291,2.291,0,0,1,0,4.582h-5.917v5.674a2.913,2.913,0,0,1-5.826,0Z" transform="translate(-164.23 -259.575)" fill="#ff5a5a"/>
        <path id="Path_8096" data-name="Path 8096" d="M275.228,303.525a2.625,2.625,0,0,1,5.249,0v.728h.121c.607-1.456,1.422-3.337,3.216-3.337a2.421,2.421,0,0,1,2.64,2.458,2.371,2.371,0,0,1-2.367,2.4c-2.518,0-3.216,2.18-3.216,4.369v4.976a2.822,2.822,0,0,1-5.643,0Z" transform="translate(-258.386 -293.846)" fill="#ff5a5a"/>
        <path id="Path_8097" data-name="Path 8097" d="M366.593,255.916h1.4a2.367,2.367,0,1,1,0,4.733h-1.4a2.367,2.367,0,0,1,0-4.733Zm-2.124,9.649a2.822,2.822,0,0,1,5.643,0v11.378a2.822,2.822,0,0,1-5.643,0Z" transform="translate(-333.88 -255.673)" fill="#ff5a5a"/>
        <path id="Path_8098" data-name="Path 8098" d="M431,261.295a5.112,5.112,0,0,1,4.248,1.79v-5.947a2.822,2.822,0,1,1,5.643,0v18.114c0,1.851-1,3.216-2.609,3.216a2.632,2.632,0,0,1-2.579-2.154,6.157,6.157,0,0,1-5.006,2.185c-4.46,0-7.07-3.307-7.07-8.374C423.625,265,426.295,261.295,431,261.295Zm1.365,13.441c2.094,0,3.034-1.942,3.034-4.764,0-2.791-.91-4.734-3-4.734S429.3,267.181,429.3,270C429.3,272.764,430.27,274.736,432.363,274.736Z" transform="translate(-384.265 -254.316)" fill="#ff5a5a"/>
        <path id="Path_8099" data-name="Path 8099" d="M565.98,306.663h2.063c0-1.76-.182-2.943-2.306-2.943-2.579,0-2.959,1.912-4.824,1.912a2.243,2.243,0,0,1-2.427-2.215c0-2.9,4.413-3.7,7.312-3.7,4.764,0,7.677,1.821,7.677,6.888v7.616a2.648,2.648,0,0,1-2.609,2.7,2.621,2.621,0,0,1-2.609-2.245,5.834,5.834,0,0,1-5.188,2.4c-3.065,0-5.644-1.79-5.644-5.037C557.424,307.24,562.218,306.663,565.98,306.663Zm-1.062,6.8c2.063,0,3.156-1.578,3.156-3.52v-.273h-1.79c-1.4,0-3.338.243-3.338,2.033A1.764,1.764,0,0,0,564.918,313.46Z" transform="translate(-497.762 -292.827)" fill="#ff5a5a"/>
        <path id="Path_8100" data-name="Path 8100" d="M686.691,258.916a2.588,2.588,0,0,1,2.306,1.4l4.1,7.464,3.884-7.525a2.472,2.472,0,0,1,2.215-1.335,2.5,2.5,0,0,1,2.488,2.488,2.431,2.431,0,0,1-.334,1.214l-5.492,9.679v7.1a2.913,2.913,0,0,1-5.826,0V272.57l-5.643-9.649a2.852,2.852,0,0,1-.364-1.365A2.648,2.648,0,0,1,686.691,258.916Z" transform="translate(-605.15 -258.218)" fill="#ff5a5a"/>
      </g>
      <g id="Group_5878" data-name="Group 5878" transform="translate(-11266.039 -2012.136)" opacity="0.8" style="mix-blend-mode: screen;isolation: isolate">
        <path id="Path_8101" data-name="Path 8101" d="M298.844,168.127a10.128,10.128,0,0,1-2.563-.31,7.415,7.415,0,0,1-2.115-.909,6.452,6.452,0,0,1-1.621-1.472,6.859,6.859,0,0,1-.788-1.284v.276a3.491,3.491,0,0,1-5.741,2.719,6.386,6.386,0,0,1-3.58.936,7.05,7.05,0,0,1-1.777-.22,5.805,5.805,0,0,1-1.517-.629,4.973,4.973,0,0,1-1.837-1.9,3.632,3.632,0,0,1-7.125-.993v-.173a5.864,5.864,0,0,1-.744,1.127,6.249,6.249,0,0,1-1.61,1.354,7.825,7.825,0,0,1-2.114.848,10.659,10.659,0,0,1-2.55.293h-5.985a3.241,3.241,0,0,1-3.45-3.45V151.024a3.241,3.241,0,0,1,3.45-3.45h6.1a7.945,7.945,0,0,1,5.113,1.576,5.169,5.169,0,0,1,1.43,1.84,5.334,5.334,0,0,1,.362,1.078V150.5a3.632,3.632,0,0,1,7.263,0v9.458a4.68,4.68,0,0,1,1.139-1.239,3.1,3.1,0,0,1-1.1-2.393,3.434,3.434,0,0,1,.509-1.8,4.651,4.651,0,0,1,2.39-1.815,12.06,12.06,0,0,1,4.1-.672,8.869,8.869,0,0,1,4.454,1.007,5.416,5.416,0,0,1,2.615,3.684,7.454,7.454,0,0,1,.91-1.643,7.088,7.088,0,0,1,1.7-1.644,7.7,7.7,0,0,1,2.215-1.041,9.462,9.462,0,0,1,2.65-.363,8.928,8.928,0,0,1,4.027.877,4.771,4.771,0,0,1,1.473,1.145,3.671,3.671,0,0,1,.494.758v-3.767a3.666,3.666,0,0,1,7.332,0v1.165l2.751-3.53a3.4,3.4,0,0,1,2.629-1.29,3.34,3.34,0,0,1,3.336,3.336,3.279,3.279,0,0,1-.754,2.1l-2.789,3.463,3.861,6.039,0,0,.01.017a3.736,3.736,0,0,1,.557,1.94,3.67,3.67,0,0,1-3.655,3.677,3.708,3.708,0,0,1-3.112-1.687l0,0-2.623-4.19-.212.261v1.964a3.667,3.667,0,0,1-7.188,1.016A4.632,4.632,0,0,1,303,167.281,10.051,10.051,0,0,1,298.844,168.127Zm-7.237-4.882a.15.15,0,0,1,.141.1c1.029,2.89,3.549,4.482,7.1,4.482a9.747,9.747,0,0,0,4.028-.817,4.147,4.147,0,0,0,2.2-2.205.15.15,0,0,1,.288.03,3.367,3.367,0,0,0,6.691-.522V162.3a.15.15,0,0,1,.034-.095l.378-.465a.15.15,0,0,1,.243.015l2.733,4.366a3.409,3.409,0,0,0,2.86,1.55,3.37,3.37,0,0,0,3.355-3.377,3.44,3.44,0,0,0-.514-1.786l-.009-.015-3.918-6.128a.15.15,0,0,1,.01-.175l2.857-3.548,0,0a2.978,2.978,0,0,0,.686-1.909,3.039,3.039,0,0,0-3.036-3.036,3.094,3.094,0,0,0-2.392,1.174l-3.019,3.874a.15.15,0,0,1-.268-.092v-1.6a3.366,3.366,0,0,0-6.732,0v4.695a.15.15,0,0,1-.3.028,3.3,3.3,0,0,0-.727-1.521,4.473,4.473,0,0,0-1.382-1.071,8.625,8.625,0,0,0-3.889-.843c-3.607,0-6.365,1.872-7.376,5.007a.15.15,0,0,1-.291-.024,6,6,0,0,0-.924-2.5,4.954,4.954,0,0,0-1.646-1.515,8.578,8.578,0,0,0-4.3-.967,11.754,11.754,0,0,0-3.993.652,4.362,4.362,0,0,0-2.242,1.693,3.134,3.134,0,0,0-.464,1.646,2.844,2.844,0,0,0,.3,1.3,2.757,2.757,0,0,0,.829.976.15.15,0,0,1,0,.243,4.362,4.362,0,0,0-1.486,1.768.15.15,0,0,1-.286-.062V150.5a3.332,3.332,0,0,0-6.663,0v8.635a.15.15,0,0,1-.289.057,4.768,4.768,0,0,0-.644-1.106,5,5,0,0,0-.927-.911.15.15,0,0,1-.014-.227,4.553,4.553,0,0,0,1.053-1.573,5.324,5.324,0,0,0,.361-1.985,5.006,5.006,0,0,0-1.822-4.008,7.653,7.653,0,0,0-4.923-1.508h-6.1a2.943,2.943,0,0,0-3.15,3.15v13.312a2.943,2.943,0,0,0,3.15,3.15h5.985a10.357,10.357,0,0,0,2.478-.285,7.527,7.527,0,0,0,2.033-.815,5.95,5.95,0,0,0,1.533-1.289,5.611,5.611,0,0,0,.982-1.712.15.15,0,0,1,.291.051v.9a3.332,3.332,0,0,0,6.624.515.15.15,0,0,1,.286-.036,4.652,4.652,0,0,0,1.907,2.16,5.5,5.5,0,0,0,1.439.6,6.752,6.752,0,0,0,1.7.21,6.038,6.038,0,0,0,3.508-.948.15.15,0,0,1,.185.013,3.191,3.191,0,0,0,5.328-2.419V163.4a.15.15,0,0,1,.124-.148Zm-22.671-6.2a5.275,5.275,0,0,1,.848.861,5.073,5.073,0,0,1,.4.589V154.7a5.129,5.129,0,0,1-.242.784A4.838,4.838,0,0,1,268.937,157.042Zm14.9,5.6a.15.15,0,0,1-.046-.293,2.423,2.423,0,0,1,.451-.09.15.15,0,0,1,.078.286,1.217,1.217,0,0,1-.482.1Zm21.333-.26a.15.15,0,0,1-.137-.09,2.676,2.676,0,0,0-1.031-1.2,3.1,3.1,0,0,0-1.653-.448,2.929,2.929,0,0,0-1.526.405,4.778,4.778,0,0,0-.937.766c-.43.424-.587.558-1.019.558a.607.607,0,0,1-.553-.284,3.5,3.5,0,0,1-.416-2c0-.688.094-2.289.969-2.289a1.227,1.227,0,0,1,1,.482,4.456,4.456,0,0,0,.9.682,3,3,0,0,0,1.475.361,2.944,2.944,0,0,0,1.853-.593,2.631,2.631,0,0,0,.935-1.589.15.15,0,0,1,.3.029v5.069a.15.15,0,0,1-.15.15Zm-6.3-4.291c-.494,0-.669,1.071-.669,1.989a3.245,3.245,0,0,0,.361,1.831.311.311,0,0,0,.308.158c.307,0,.4-.065.808-.472a5.025,5.025,0,0,1,1-.811,3.221,3.221,0,0,1,1.678-.446,3.157,3.157,0,0,1,2.672,1.315v-3.6a2.8,2.8,0,0,1-.746.907,3.24,3.24,0,0,1-2.04.658,3.3,3.3,0,0,1-1.618-.4,4.708,4.708,0,0,1-.955-.724C299.307,158.169,299.223,158.092,298.867,158.092Zm-36.3,3.846h-1.684a.15.15,0,0,1-.15-.15v-1.343a.15.15,0,0,1,.15-.15h1.684a1.811,1.811,0,0,1,1.152.259.629.629,0,0,1,.2.528.721.721,0,0,1-.2.615A1.837,1.837,0,0,1,262.571,161.937Zm-1.534-.3h1.534a1.715,1.715,0,0,0,.959-.17c.093-.078.1-.186.1-.386,0-.135-.007-.222-.1-.3a1.554,1.554,0,0,0-.958-.188h-1.534Zm1.329-6.891h-1.479a.15.15,0,0,1-.15-.15v-1.024a.15.15,0,0,1,.15-.15h1.479a1.693,1.693,0,0,1,1.041.2.663.663,0,0,1,.11.447.547.547,0,0,1-.187.506A1.742,1.742,0,0,1,262.366,154.747Zm-1.329-.3h1.329a1.678,1.678,0,0,0,.788-.111c.058-.042.063-.1.063-.262a.874.874,0,0,0-.023-.228,1.923,1.923,0,0,0-.828-.123h-1.329Z" transform="translate(-253.728 -146.869)" fill="#fff"/>
      </g>
      <g id="Group_5880" data-name="Group 5880" transform="translate(-11264.524 -2010.62)">
        <g transform="matrix(1, 0, 0, 1, -33.47, -6.74)" filter="url(#Path_8103)">
          <path id="Path_8103-2" data-name="Path 8103" d="M263.478,163.2a1.741,1.741,0,0,1,1.934-1.934h6.1c3.641,0,5.53,1.821,5.53,4.3a3.793,3.793,0,0,1-3.026,3.8v.068a3.923,3.923,0,0,1,3.573,3.868c0,3.118-2.3,5.143-6.19,5.143h-5.985a1.741,1.741,0,0,1-1.934-1.934Zm7.123,4.938c1.707,0,2.367-.705,2.367-1.889s-.66-1.866-2.367-1.866h-2.845v3.755Zm.2,7.191c1.639,0,2.572-.614,2.572-2.071,0-1.365-1-2-2.572-2h-3.049v4.073Z" transform="translate(-230 -153.82)" fill="#fff"/>
        </g>
        <g transform="matrix(1, 0, 0, 1, -33.47, -6.74)" filter="url(#Path_8104)">
          <path id="Path_8104-2" data-name="Path 8104" d="M371.925,158.735a2.116,2.116,0,0,1,4.233,0v13.836a2.116,2.116,0,0,1-4.233,0Z" transform="translate(-322 -149.88)" fill="#fff"/>
        </g>
        <g transform="matrix(1, 0, 0, 1, -33.47, -6.74)" filter="url(#Path_8105)">
          <path id="Path_8105-2" data-name="Path 8105" d="M421.242,195.878h1.547c0-1.32-.137-2.207-1.73-2.207-1.934,0-2.22,1.434-3.618,1.434a1.683,1.683,0,0,1-1.82-1.661c0-2.178,3.31-2.776,5.484-2.776,3.573,0,5.757,1.365,5.757,5.166v5.712a1.986,1.986,0,0,1-1.957,2.025,1.966,1.966,0,0,1-1.957-1.684,4.376,4.376,0,0,1-3.891,1.8c-2.3,0-4.233-1.343-4.233-3.778C414.825,196.31,418.42,195.878,421.242,195.878Zm-.8,5.1a2.37,2.37,0,0,0,2.366-2.64v-.2H421.47c-1.047,0-2.5.182-2.5,1.525A1.323,1.323,0,0,0,420.446,200.975Z" transform="translate(-358.39 -178.76)" fill="#fff"/>
        </g>
        <g transform="matrix(1, 0, 0, 1, -33.47, -6.74)" filter="url(#Path_8106)">
          <path id="Path_8106-2" data-name="Path 8106" d="M515.3,190.667c2.167,0,4.847.784,4.847,2.913a1.5,1.5,0,0,1-1.638,1.639c-1.584,0-1.54-1.525-3.368-1.525-1.252,0-2.185,1.047-2.185,3.5,0,2.549.979,3.5,2.185,3.5,1.84,0,1.874-1.729,3.482-1.729a1.591,1.591,0,0,1,1.729,1.729c0,2.175-2.869,3.027-5.234,3.027-4.346,0-6.394-2.549-6.394-6.508A6.165,6.165,0,0,1,515.3,190.667Z" transform="translate(-438.04 -178.76)" fill="#fff"/>
        </g>
        <g transform="matrix(1, 0, 0, 1, -33.47, -6.74)" filter="url(#Path_8107)">
          <path id="Path_8107-2" data-name="Path 8107" d="M601.572,162.207a2.151,2.151,0,0,1,4.3,0v5.575l5.461-7.009a1.87,1.87,0,0,1,1.434-.705,1.826,1.826,0,0,1,1.821,1.821,1.78,1.78,0,0,1-.41,1.138L610.7,167.35l4.437,6.94a2.238,2.238,0,0,1,.341,1.161,2.142,2.142,0,0,1-2.139,2.162,2.213,2.213,0,0,1-1.843-1l-3.732-5.962-1.889,2.321v2.5a2.151,2.151,0,0,1-4.3,0Z" transform="translate(-516.8 -152.81)" fill="#fff"/>
        </g>
      </g>
    </g>
    <path id="Path_8112" data-name="Path 8112" d="M-15.3-8.234a.16.16,0,0,1,.133-.008.179.179,0,0,1,.1.091A.141.141,0,0,1-15.091-8a.712.712,0,0,1-.274.183V-7.8q-4.366,2.158-7.471,3.968t-5.03,3.171a.937.937,0,0,0-.224.2.219.219,0,0,0-.05.149.2.2,0,0,0,.058.116l.017.017v.017h.017a1.873,1.873,0,0,1,.415,1.511,4.232,4.232,0,0,1-1.013,2.092,1.084,1.084,0,0,0-.1.116l-.166.166A4.649,4.649,0,0,1-30.6,4.881,2.855,2.855,0,0,1-32,5.063a.488.488,0,0,0-.116-.017,1.137,1.137,0,0,1-.531-.257,1.086,1.086,0,0,1-.257-.349A1.3,1.3,0,0,1-33,4.167V4.15l-.017-.017V4.117a1.881,1.881,0,0,1,.183-1,3.056,3.056,0,0,1,.232-.415,4.864,4.864,0,0,1,.647-.813q.349-.349.564-.548a.015.015,0,0,0,.017-.017h.017l.05-.05q.481-.448.78-.681l.066-.066a4.671,4.671,0,0,0,.4-.3,1.178,1.178,0,0,0,.291-.291.306.306,0,0,0,.058-.208.365.365,0,0,0-.066-.149q-.1-.133-.216-.282-.332-.432-.747-1.013-.266-.4-.581-.863a4.09,4.09,0,0,1-.465-4.35q1.295-2.623,6.275-4.449a.955.955,0,0,1,.714.008.61.61,0,0,1,.349.506,2.038,2.038,0,0,1-.1.863,1.016,1.016,0,0,1-.548.664,32.973,32.973,0,0,0-3.378,1.378,4.852,4.852,0,0,0-1.934,1.461,2.724,2.724,0,0,0-.432,1.785,4.192,4.192,0,0,0,.481,1.519,6.024,6.024,0,0,0,.581.9,1,1,0,0,0,.066.083,12.137,12.137,0,0,0,.8,1.029.472.472,0,0,0,.647.149A126.379,126.379,0,0,1-15.3-8.234ZM-31.6,4.1a1.593,1.593,0,0,0,1.162-.457,4.835,4.835,0,0,0,1-1.17,2.283,2.283,0,0,0,.407-1.129,1.87,1.87,0,0,0-.133-.73q-.083-.183-.183-.158a.64.64,0,0,0-.2.091q-.681.548-1.1.93l-.033.033-.017.017a.193.193,0,0,1-.05.033.193.193,0,0,0-.033.05.544.544,0,0,0-.083.066v.017a.109.109,0,0,0-.05.05h-.017V1.76a.015.015,0,0,0-.017.017,4.384,4.384,0,0,0-.847,1.162,1.655,1.655,0,0,0-.232.764Q-32.016,4.034-31.6,4.1ZM.789-8.2a.243.243,0,0,1,.149-.05.2.2,0,0,1,.125.033q.042.033-.017.133a1.129,1.129,0,0,1-.274.266Q-3.146-5-6.151-3.146a10.99,10.99,0,0,1-4.532,1.917,2.29,2.29,0,0,1-1.312-.349q-1.395-1.029-.448-3.868a1.491,1.491,0,0,0,.083-.374q0-.108-.058-.108a.263.263,0,0,0-.141.058,1.114,1.114,0,0,0-.149.125q-.78.714-1.37,1.2a13.612,13.612,0,0,1-1.2.88,8.6,8.6,0,0,1-1.9.955,1.989,1.989,0,0,1-1.453.058.6.6,0,0,1-.324-.722,3.184,3.184,0,0,1,.44-1.013q.332-.523.581-.855a.193.193,0,0,0,.05-.033A32.4,32.4,0,0,1-14.95-8.616a18.5,18.5,0,0,1,2.631-2.333,2.09,2.09,0,0,1,2.117-.473.99.99,0,0,1,.49.73A2.824,2.824,0,0,1-9.77-9.629a.378.378,0,0,0,0,.158.194.194,0,0,0,.116.125.357.357,0,0,1,.149.415,2.347,2.347,0,0,1-.232.564l-.017.017A21.015,21.015,0,0,0-11.5-4.092q-.307,1.386-.008,1.7.382.614,1.735.315A15.781,15.781,0,0,0-5.852-3.852Q-3.279-5.329.789-8.2Zm-12.966.481a6.06,6.06,0,0,0,.457-.855q.191-.44.075-.589h-.017a.048.048,0,0,0-.033-.017V-9.2a3.1,3.1,0,0,0-1.544.805,26.033,26.033,0,0,0-2.324,2,18.778,18.778,0,0,0-1.909,2.075.193.193,0,0,0-.033.05q-.116.149-.282.4a.754.754,0,0,0-.158.432q.008.183.39.133a6.278,6.278,0,0,0,2.258-1,15.808,15.808,0,0,0,2.54-2.05q.332-.382.315-.564h.017A2.493,2.493,0,0,1-12.177-7.72ZM16.593-8.2a.21.21,0,0,1,.174-.05.121.121,0,0,1,.108.1q.017.083-.133.2Q9.969-1.909,5.661,1.494a61.671,61.671,0,0,1-6.7,4.781,7.447,7.447,0,0,1-3.4,1.312,1.613,1.613,0,0,1-1.046-.3q-1.976-1.478,2.64-9.5T12.26-25.151l.133-.2q.183-.249.349-.5.73-1.079,1.411-2.075,2.424-3.619,4.217-6.159a52.157,52.157,0,0,0,3.636-5.827q-.066-.1.033-.365a1.605,1.605,0,0,1,.365-.54,1.364,1.364,0,0,1,.664-.374,1.2,1.2,0,0,1,.689.033.709.709,0,0,1,.423.382q.216.481-.332,1.419t-2.025,2.947q-.9,1.229-2.158,3.038-.4.564-1.909,2.689L14.3-25.849Q9.936-19.673,5.835-13.771T-.058-5.014Q-1.569-2.54-2.54-.747t-1.511,3A14.455,14.455,0,0,0-4.8,4.233,4.861,4.861,0,0,0-5.005,5.4a1.3,1.3,0,0,0,.1.589.779.779,0,0,0,.166.232.015.015,0,0,1,.017.017q.863.647,3.312-.639A45.53,45.53,0,0,0,4.3,1.9Q7.562-.515,10.833-3.246T16.593-8.2ZM30.92-8.218q.05.033.017.116a.406.406,0,0,1-.149.166h-.017v.017a55.586,55.586,0,0,1-8.1,4.267,13.959,13.959,0,0,1-5.894,1.428,2.277,2.277,0,0,1-1.893-.913,3.4,3.4,0,0,1,.3-3.071,8.226,8.226,0,0,1,.581-.963q.249-.365.5-.7a16.13,16.13,0,0,1,1.893-1.909l.116-.116a.015.015,0,0,0,.017-.017q.515-.415,1-.78,3.437-2.49,5.03-1.893a1.213,1.213,0,0,1,.581.506.956.956,0,0,1,.05.805,2.31,2.31,0,0,1-.921,1.063,7.963,7.963,0,0,1-1.668.847,27.174,27.174,0,0,1-3.835,1.146,2.131,2.131,0,0,0-.623.257,3.925,3.925,0,0,0-.855.672l-.017.017a.66.66,0,0,1-.083.1,5.377,5.377,0,0,0-1.278,2.391,1.5,1.5,0,0,0,.681,1.353,2.932,2.932,0,0,0,1.627.44,14.87,14.87,0,0,0,5.2-1.378,63.907,63.907,0,0,0,7.587-3.852Q30.871-8.284,30.92-8.218ZM18.668-8.749a.57.57,0,0,0-.166.166q-.033.066.149.033.913-.216,2.142-.631a8.167,8.167,0,0,0,1.486-.639q.589-.34.49-.623v-.017l-.017-.017v-.017a.561.561,0,0,0-.465-.133,3.613,3.613,0,0,0-.631.149H21.64v.017a.179.179,0,0,0-.1.033h-.033a6.491,6.491,0,0,0-1.013.5A13.633,13.633,0,0,0,18.668-8.749Z" transform="translate(509.5 48.5)" fill="#00c5bc"/>
    <path id="sale_-_Outline" data-name="sale - Outline" d="M-4.345,8.09c-.038,0-.075,0-.111,0a2.1,2.1,0,0,1-1.338-.4C-7.373,6.488-6.574,3.265-3.281-2.457c.575-1,1.225-2.09,1.942-3.257C-3-4.566-4.521-3.563-5.889-2.72A11.278,11.278,0,0,1-10.661-.729h-.022a2.787,2.787,0,0,1-1.592-.435l-.016-.012c-.943-.7-1.241-1.863-.89-3.476q-.31.269-.58.489a14.178,14.178,0,0,1-1.248.912,9.139,9.139,0,0,1-2.012,1.009,3.316,3.316,0,0,1-1.051.2,1.846,1.846,0,0,1-.769-.156l-.03-.015a1.094,1.094,0,0,1-.575-1.27,3.694,3.694,0,0,1,.506-1.173c.227-.358.43-.656.6-.887l.071-.094.039-.019q.079-.106.164-.216c-1.682.873-3.2,1.7-4.519,2.473C-24.6-2.228-26.258-1.184-27.517-.3a2.422,2.422,0,0,1,.381,1.7V1.4a4.731,4.731,0,0,1-1.12,2.347l-.017.021-.019.019a.594.594,0,0,0-.053.063l-.021.028-.191.191a5.153,5.153,0,0,1-1.883,1.281,3.835,3.835,0,0,1-1.239.236,2.4,2.4,0,0,1-.4-.033l-.037-.008-.007,0h-.047l-.057-.014a1.627,1.627,0,0,1-.761-.382,1.583,1.583,0,0,1-.372-.513,2.319,2.319,0,0,1-.089-.237l-.06-.06v-.2a2.387,2.387,0,0,1,.23-1.231,3.565,3.565,0,0,1,.267-.478,5.384,5.384,0,0,1,.712-.893c.166-.166.311-.309.435-.426V.828h.317c.28-.258.509-.457.7-.606l.08-.08.041-.027a4.189,4.189,0,0,0,.356-.267l.015-.012c.039-.03.069-.055.093-.076l-.116-.15c-.225-.293-.48-.639-.759-1.029l-.009-.013c-.176-.264-.371-.553-.579-.86a4.575,4.575,0,0,1-.5-4.851,7.21,7.21,0,0,1,2.376-2.611,17.982,17.982,0,0,1,4.176-2.087l.02-.007a1.449,1.449,0,0,1,1.08.032,1.113,1.113,0,0,1,.631.891,2.54,2.54,0,0,1-.118,1.079,1.519,1.519,0,0,1-.817.97l-.042.017A32.641,32.641,0,0,0-28.253-7.5a4.447,4.447,0,0,0-1.731,1.281,2.214,2.214,0,0,0-.357,1.449,3.717,3.717,0,0,0,.421,1.339,5.4,5.4,0,0,0,.523.815l.022.027.031.04.02.02.025.035a11.7,11.7,0,0,0,.763.986l0,0a.435.435,0,0,0,.03.032A127.3,127.3,0,0,1-15.644-8.62l.335-.344a19.069,19.069,0,0,1,2.7-2.393,3.188,3.188,0,0,1,1.816-.7,1.845,1.845,0,0,1,.806.182l.041.022a1.493,1.493,0,0,1,.727,1.083,3.237,3.237,0,0,1-.034,1.106.858.858,0,0,1,.233.852,2.854,2.854,0,0,1-.28.686l-.034.061-.009.009a20.41,20.41,0,0,0-1.674,4.07,2.775,2.775,0,0,0-.118,1.266l.019.02.027.043c.073.118.251.177.529.177a3.205,3.205,0,0,0,.674-.086A15.441,15.441,0,0,0-6.1-4.285C-4.417-5.252-2.213-6.7.452-8.576,3.365-13.15,7.2-18.822,11.848-25.434l.142-.212c.117-.159.23-.321.336-.48.488-.72.963-1.419,1.414-2.08,1.607-2.4,3.027-4.474,4.219-6.162a56.081,56.081,0,0,0,3.521-5.6,1.2,1.2,0,0,1,.09-.479,2.1,2.1,0,0,1,.474-.712,1.862,1.862,0,0,1,.9-.511l.015,0a1.7,1.7,0,0,1,.972.054,1.211,1.211,0,0,1,.7.649A2.077,2.077,0,0,1,24.28-39.1c-.378.646-1.05,1.625-2.054,2.991-.592.811-1.316,1.83-2.151,3.028-.267.378-.91,1.284-1.912,2.693l-3.454,4.832c-2.9,4.095-5.743,8.157-8.463,12.072S1.553-6.639.367-4.751C-.63-3.118-1.46-1.691-2.1-.509s-1.141,2.178-1.494,2.97a14.054,14.054,0,0,0-.721,1.9A4.29,4.29,0,0,0-4.505,5.4a.943.943,0,0,0,.039.351c.023.042.04.069.05.085l.033.029a.809.809,0,0,0,.416.09,5.459,5.459,0,0,0,2.324-.8A45.262,45.262,0,0,0,4,1.5c2.157-1.6,4.347-3.322,6.51-5.128,2.076-1.733,3.94-3.335,5.541-4.76a15.944,15.944,0,0,1,1.734-1.735v-.026l.165-.133.111-.111h.027c.3-.244.6-.478.891-.7l.009-.007c1.953-1.415,3.47-2.1,4.638-2.1a2.446,2.446,0,0,1,.862.148l.024.01a1.708,1.708,0,0,1,.813.712,1.444,1.444,0,0,1,.094,1.211l-.007.021A2.8,2.8,0,0,1,24.3-9.8a8.5,8.5,0,0,1-1.773.9,27.81,27.81,0,0,1-3.908,1.167l-.028.005a1.666,1.666,0,0,0-.457.2,3.427,3.427,0,0,0-.73.576,1.2,1.2,0,0,1-.1.117,4.922,4.922,0,0,0-1.142,2.1.989.989,0,0,0,.451.878,2.423,2.423,0,0,0,1.356.36,14.5,14.5,0,0,0,5.005-1.34A63.717,63.717,0,0,0,30.5-8.65a.7.7,0,0,1,.351-.1.577.577,0,0,1,.42.178.583.583,0,0,1,.128.657.769.769,0,0,1-.13.213v.061l-.235.147L31-7.47l-.048.034h-.007a56.175,56.175,0,0,1-8.08,4.245A15.758,15.758,0,0,1,17.18-1.709c-.151,0-.3-.006-.44-.017a2.753,2.753,0,0,1-2.274-1.136l-.017-.025-.013-.027a3.161,3.161,0,0,1-.2-2.152C10.985-2.217,8.212.116,5.971,1.886A62.42,62.42,0,0,1-.788,6.709,8.275,8.275,0,0,1-4.345,8.09Zm-1-3.723c-.251.924-.416,2.088.162,2.52l.017.013a1.155,1.155,0,0,0,.729.186h.033l.063,0a2.637,2.637,0,0,0,.8-.163,3.028,3.028,0,0,1-.424.032A1.785,1.785,0,0,1-4.9,6.726h-.007L-4.943,6.7q-.041-.027-.08-.056l-.2-.15V6.431a1.983,1.983,0,0,1-.122-.2A1.713,1.713,0,0,1-5.505,5.4,4.547,4.547,0,0,1-5.349,4.367ZM-31.9,4.573a1.384,1.384,0,0,0,.19.016.892.892,0,0,1-.8-.8,1.266,1.266,0,0,0-.009.129l.025.025V4.11a1.36,1.36,0,0,0,.051.134.6.6,0,0,0,.143.184.6.6,0,0,0,.262.122A1.026,1.026,0,0,1-31.9,4.573ZM-29.233-.04a.689.689,0,0,1,.527.447L-28.7.42a2.373,2.373,0,0,1,.172.924,2.725,2.725,0,0,1-.48,1.39,5.356,5.356,0,0,1-1.108,1.291,3.062,3.062,0,0,1-.323.24,4.855,4.855,0,0,0,1.173-.9l.143-.143c.033-.042.067-.082.1-.118a3.757,3.757,0,0,0,.891-1.817A1.49,1.49,0,0,0-28.3.334h-.267V-.023a.691.691,0,0,1-.071-.23.647.647,0,0,1,.009-.211,1.049,1.049,0,0,1-.662-.387A12.6,12.6,0,0,1-30.1-1.9c-.018-.021-.038-.047-.064-.081a6.556,6.556,0,0,1-.627-.964,4.706,4.706,0,0,1-.542-1.7,3.221,3.221,0,0,1,.5-2.108l.015-.024A5.269,5.269,0,0,1-28.69-8.4a33.533,33.533,0,0,1,3.406-1.391.518.518,0,0,0,.261-.349,1.561,1.561,0,0,0,.081-.65c-.013-.094-.039-.106-.066-.119a.483.483,0,0,0-.339.013c-3.174,1.165-5.189,2.577-5.989,4.2a3.6,3.6,0,0,0,.43,3.847c.208.307.4.6.579.86.27.378.516.712.732.992.078.1.151.2.219.287a.863.863,0,0,1,.157.351A.69.69,0,0,1-29.233-.04Zm-2.275,3.645a1.188,1.188,0,0,0,.745-.342,4.358,4.358,0,0,0,.9-1.05,1.786,1.786,0,0,0,.333-.868q0-.082-.007-.159c-.3.249-.556.467-.758.653l-.042.042-.02.019V2l-.066.033V2.26h-.294a4.271,4.271,0,0,0-.628.914A1.448,1.448,0,0,0-31.507,3.605Zm19.372-9.954a.588.588,0,0,1,.276.531,1.807,1.807,0,0,1-.106.523l0,.009a3.689,3.689,0,0,0-.122,2.863,3.708,3.708,0,0,1,.1-1.777A21.214,21.214,0,0,1-10.2-8.575l.036-.072.022-.022a1.91,1.91,0,0,0,.133-.313.66.66,0,0,1-.249-.381.876.876,0,0,1,0-.364l0-.013a2.344,2.344,0,0,0,.051-.874.486.486,0,0,0-.234-.366.843.843,0,0,0-.352-.073,2.3,2.3,0,0,0-1.238.513A18.069,18.069,0,0,0-14.58-8.279a.616.616,0,0,1,.011.313q.525-.446,1.029-.826A3.5,3.5,0,0,1-11.73-9.7l.072,0,.462.036v.272a1.176,1.176,0,0,1-.066,1.012,6.585,6.585,0,0,1-.481.905,2.025,2.025,0,0,0-.188.621l-.063.427h-.1Q-12.111-6.387-12.135-6.349ZM15.317-3.389a1.683,1.683,0,0,0,1.263.644,3.066,3.066,0,0,1-.507-.264,1.969,1.969,0,0,1-.9-1.611A2.094,2.094,0,0,0,15.317-3.389Zm-32.388-.63-.01.02-.03.039-.027.035a7.435,7.435,0,0,0,1.569-.8A15.37,15.37,0,0,0-13.123-6.7a1.457,1.457,0,0,0,.177-.24l-.044-.483h.161a2.786,2.786,0,0,1,.209-.529l.022-.038c.085-.133.165-.27.238-.408-.156.1-.347.23-.578.4a25.66,25.66,0,0,0-2.279,1.962A18.422,18.422,0,0,0-17.071-4.019Zm1.324-3.036q-.565.614-1.02,1.16.393-.413.857-.858.252-.241.5-.47ZM17.346-8.323a.653.653,0,0,1,.019.074q0,.014,0,.028a3.291,3.291,0,0,1,.284-.177c.125-.069.238-.126.342-.172a.541.541,0,0,1,.058-.236.989.989,0,0,1,.313-.342,14.21,14.21,0,0,1,1.883-1.216,7.614,7.614,0,0,1,.889-.453v-.158h.441a3.886,3.886,0,0,1,.645-.146l.037,0,.089,0a.986.986,0,0,1,.774.3l.143.159v.158a.735.735,0,0,1,.016.166q.242-.135.455-.281a1.858,1.858,0,0,0,.731-.813.45.45,0,0,0-.009-.389.715.715,0,0,0-.337-.3,1.465,1.465,0,0,0-.5-.079c-.935,0-2.3.643-4.046,1.91-.3.227-.611.471-.93.727a.521.521,0,0,1-.068.062l-.1.1-.022.017A11.531,11.531,0,0,0,17.346-8.323ZM1.53-8.407l.011.027q1.583-2.365,3.883-5.676C8.146-17.973,11-22.038,13.894-26.137l3.455-4.833c1-1.408,1.643-2.312,1.908-2.687.838-1.2,1.566-2.226,2.163-3.044.971-1.32,1.643-2.3,2-2.9.4-.681.326-.922.308-.963s-.034-.077-.144-.119a.7.7,0,0,0-.4-.014.863.863,0,0,0-.419.235,1.13,1.13,0,0,0-.256.367l-.009.026.08.121-.12.255a51.938,51.938,0,0,1-3.676,5.9l0,.006c-1.187,1.682-2.6,3.751-4.21,6.149-.453.664-.928,1.361-1.413,2.077-.11.165-.23.336-.353.5l-.134.2C8.152-18.438,4.407-12.9,1.53-8.407Z" transform="translate(509.5 48.5)" fill="#00bdb3"/>
    <path id="Path_8108" data-name="Path 8108" d="M149.162,136.5a1.885,1.885,0,1,1-1.2,2.378,1.887,1.887,0,0,1,1.2-2.378m-.814-2.484a4.5,4.5,0,1,0,5.676,2.875,4.5,4.5,0,0,0-5.676-2.875Z" transform="translate(212.752 -90.787)" fill="#1ad7ee" opacity="0.4"/>
    <path id="Path_8109" data-name="Path 8109" d="M185.986,273.575l7.98-4.381-7.784-4.72Z" transform="matrix(0.695, -0.719, 0.719, 0.695, 46.951, -37.175)" fill="#ff35fe" opacity="0.4"/>
    <g id="Group_5889" data-name="Group 5889" transform="translate(-27.564 -225.792)">
      <path id="Path_6963" data-name="Path 6963" d="M576.138,279.126a2.313,2.313,0,0,1,3.2-1.946l1.242-2.959a5.522,5.522,0,0,0-4.275,10.184l1.242-2.959A2.318,2.318,0,0,1,576.138,279.126Z" fill="#8665ff" opacity="0.4"/>
    </g>
    <g id="Group_5890" data-name="Group 5890" transform="matrix(-0.53, 0.848, -0.848, -0.53, 1028.576, -322.187)" opacity="0.4">
      <path id="Path_6963-2" data-name="Path 6963" d="M575.952,278.818a2.179,2.179,0,0,1,3.016-1.833l1.17-2.788a5.2,5.2,0,0,0-4.028,9.594l1.17-2.788A2.183,2.183,0,0,1,575.952,278.818Z" transform="translate(0 0)" fill="#0090fd"/>
    </g>
    <path id="Path_8111" data-name="Path 8111" d="M424.444,85.146l-6.477,2.681a6.852,6.852,0,0,1,3.711-8.952c.049-.02.1-.038.147-.057s.1-.044.144-.064Z" transform="translate(125.243 -62.115)" fill="#ffbd3a" opacity="0.4"/>
  </g>
</svg>
