<svg xmlns="http://www.w3.org/2000/svg" xmlns:xlink="http://www.w3.org/1999/xlink" width="696.11" height="342.968" viewBox="0 0 696.11 342.968">
  <defs>
    <linearGradient id="linear-gradient" x1="0.391" y1="0.064" x2="0.391" y2="0.772" gradientUnits="objectBoundingBox">
      <stop offset="0" stop-opacity="0.502"/>
      <stop offset="1" stop-opacity="0"/>
    </linearGradient>
  </defs>
  <g id="Group_5895" data-name="Group 5895" transform="translate(11101.998 1960.968)">
    <g id="Group_5885" data-name="Group 5885" transform="translate(-10987 -1842.426)" style="mix-blend-mode: screen;isolation: isolate">
      <g id="Group_5872" data-name="Group 5872">
        <path id="Path_8087" data-name="Path 8087" d="M175.2,251.516h52.8a18.827,18.827,0,0,1,0,37.654H198.5v12.26h22.516a18.524,18.524,0,0,1,0,37.048H198.5v21.3a21.634,21.634,0,0,1-43.268,0v-88.3c0-6.011,1.863-11.051,5.389-14.577S169.184,251.516,175.2,251.516Zm52.8,35.654a16.827,16.827,0,0,0,0-33.654H175.2c-5.469,0-10.02,1.661-13.162,4.8s-4.8,7.693-4.8,13.162v88.3a19.634,19.634,0,0,0,39.268,0v-22.3a1,1,0,0,1,1-1h23.516a16.524,16.524,0,0,0,0-33.048H197.5a1,1,0,0,1-1-1V288.17a1,1,0,0,1,1-1Z" transform="translate(-156.23 -247.813)" fill="#992e37"/>
        <path id="Path_8088" data-name="Path 8088" d="M286.345,291.916a20.147,20.147,0,0,1,9.062,2.125,20.491,20.491,0,0,1,6.179,4.745,21.343,21.343,0,0,1,5.619-4.6,18.435,18.435,0,0,1,9.027-2.267c8.421,0,13.278,3.752,15.87,6.9a19.894,19.894,0,0,1,4.4,12.458c0,9.164-7.227,19.055-18.9,19.055a7.383,7.383,0,0,0-5.36,1.711c-2.425,2.213-3.654,6.61-3.654,13.068v24.881a21.178,21.178,0,0,1-42.357,0V312.032A20.139,20.139,0,0,1,286.345,291.916Zm15.236,9.426h-.008a1,1,0,0,1-.78-.384,18.463,18.463,0,0,0-6.278-5.127,18.168,18.168,0,0,0-26.287,16.2v57.956a19.178,19.178,0,0,0,38.357,0V345.107a30.954,30.954,0,0,1,1.229-9.433,11.7,11.7,0,0,1,3.077-5.112,8.271,8.271,0,0,1,3.763-1.962,12.663,12.663,0,0,1,2.945-.272c10.441,0,16.9-8.853,16.9-17.055a17.861,17.861,0,0,0-3.943-11.187c-2.318-2.815-6.685-6.171-14.325-6.171a16.459,16.459,0,0,0-8.06,2.017,20.012,20.012,0,0,0-5.814,5.037A1,1,0,0,1,301.581,301.342Z" transform="translate(-183.025 -257.565)" fill="#992e37"/>
        <path id="Path_8089" data-name="Path 8089" d="M374.128,246.916h6.979a18.9,18.9,0,0,1,6.512,36.648A21.218,21.218,0,0,1,398.8,302.231v56.894a21.178,21.178,0,0,1-42.357,0V302.231a21.218,21.218,0,0,1,11.177-18.667A18.984,18.984,0,0,1,356.372,272.3a18.905,18.905,0,0,1,17.756-25.389Zm3.49,131.387A19.2,19.2,0,0,0,396.8,359.125V302.231a19.213,19.213,0,0,0-12.409-17.945,1,1,0,0,1,.151-1.914,16.974,16.974,0,0,0,12.447-10.755,16.906,16.906,0,0,0-15.879-22.7h-6.979a16.905,16.905,0,0,0-3.431,33.456,1,1,0,0,1,.151,1.914,19.213,19.213,0,0,0-12.409,17.945v56.894A19.2,19.2,0,0,0,377.618,378.3Z" transform="translate(-204.509 -246.702)" fill="#992e37"/>
        <path id="Path_8090" data-name="Path 8090" d="M493.91,245.316a21.2,21.2,0,0,1,21.179,21.179V357.07a28.832,28.832,0,0,1-1.457,9.285,21.938,21.938,0,0,1-4.123,7.335,18.573,18.573,0,0,1-6.386,4.814,19.5,19.5,0,0,1-8.15,1.717,20.1,20.1,0,0,1-14.812-6.547,40.62,40.62,0,0,1-23.117,6.7,43.283,43.283,0,0,1-17.488-3.48,37.5,37.5,0,0,1-13.414-9.917,44.7,44.7,0,0,1-8.534-15.458,64.61,64.61,0,0,1-2.983-20.088c0-14.508,3.862-27,11.168-36.111,7.921-9.884,19.252-15.108,32.768-15.108a38.967,38.967,0,0,1,14.171,2.441V266.495A21.2,21.2,0,0,1,493.91,245.316Zm1.063,132.905a17.514,17.514,0,0,0,7.32-1.537,16.586,16.586,0,0,0,5.7-4.3,19.948,19.948,0,0,0,3.743-6.671,26.84,26.84,0,0,0,1.351-8.642V266.495a19.178,19.178,0,1,0-38.357,0v17.659a1,1,0,0,1-1.409.913,35.965,35.965,0,0,0-14.762-2.855c-12.888,0-23.679,4.965-31.208,14.359-7.019,8.757-10.728,20.812-10.728,34.86a62.622,62.622,0,0,0,2.884,19.467,42.716,42.716,0,0,0,8.147,14.772c7.18,8.311,17.342,12.7,29.388,12.7,8.651,0,16.5-2.366,22.69-6.843a1,1,0,0,1,1.352.167A18.124,18.124,0,0,0,494.973,378.221Zm-29.434-66.15a7.476,7.476,0,0,1,7.064,4.1c1.889,3.222,2.888,8.237,2.888,14.5a34.666,34.666,0,0,1-1.8,12.275,11.367,11.367,0,0,1-3.058,4.6,7.839,7.839,0,0,1-5.246,1.875,7.93,7.93,0,0,1-5.517-2.087,12.188,12.188,0,0,1-3.069-4.9,34.062,34.062,0,0,1-1.668-11.607,35.892,35.892,0,0,1,1.7-11.707,12.275,12.275,0,0,1,3.117-4.944A8.074,8.074,0,0,1,465.539,312.071Zm-.151,35.351c2.969,0,5.076-1.7,6.441-5.2a32.763,32.763,0,0,0,1.662-11.549c0-5.911-.9-10.577-2.613-13.493a5.532,5.532,0,0,0-5.338-3.108,6.052,6.052,0,0,0-4.251,1.583,10.327,10.327,0,0,0-2.583,4.153,39.349,39.349,0,0,0-.025,21.938,10.24,10.24,0,0,0,2.539,4.114A5.91,5.91,0,0,0,465.388,347.422Z" transform="translate(-218.848 -246.316)" fill="#992e37"/>
        <path id="Path_8091" data-name="Path 8091" d="M597.367,290.715a67.765,67.765,0,0,1,19.682,2.593,37.006,37.006,0,0,1,14.279,7.842,32.718,32.718,0,0,1,8.632,13.058,52.243,52.243,0,0,1,2.859,18.015V370.3a20.226,20.226,0,0,1-34.963,14.2,32.822,32.822,0,0,1-10.331,5.247,46.438,46.438,0,0,1-13.815,1.886,41.99,41.99,0,0,1-14.212-2.354,32.994,32.994,0,0,1-11.176-6.633,29.647,29.647,0,0,1-7.3-10.224,32.7,32.7,0,0,1-2.6-13.043c0-12.117,5.209-21.455,15.1-27.133a18.015,18.015,0,0,1-6.555-5.626,17.746,17.746,0,0,1-3.23-10.329,19.581,19.581,0,0,1,6.332-14.552A33.519,33.519,0,0,1,571.115,295C581.181,291.132,592.827,290.715,597.367,290.715ZM622.7,388.876A18.369,18.369,0,0,0,640.82,370.3V332.224a50.268,50.268,0,0,0-2.736-17.324,30.739,30.739,0,0,0-8.1-12.271,35.029,35.029,0,0,0-13.517-7.408,65.789,65.789,0,0,0-19.1-2.506c-4.428,0-15.781.4-25.535,4.148a31.515,31.515,0,0,0-10.379,6.321,17.65,17.65,0,0,0-5.719,13.11,15.757,15.757,0,0,0,2.862,9.173,16.246,16.246,0,0,0,7.552,5.761,1,1,0,0,1,.093,1.829,28.079,28.079,0,0,0-11.8,10.57,30.11,30.11,0,0,0-4.022,15.755,30.717,30.717,0,0,0,2.437,12.25,27.659,27.659,0,0,0,6.811,9.538,31.006,31.006,0,0,0,10.5,6.228,40,40,0,0,0,13.537,2.237,44.481,44.481,0,0,0,13.226-1.8,30.8,30.8,0,0,0,10.417-5.48,1,1,0,0,1,1.389.133A18.229,18.229,0,0,0,622.7,388.876Zm-25.64-66a10.976,10.976,0,0,1,3.9.394,3.785,3.785,0,0,1,2.183,2.973,1,1,0,0,1-.977,1.214h-3.889c-3.766,0-6.941.1-9.991.33a1,1,0,0,1-.647-1.817,17.588,17.588,0,0,1,4.054-2.214A15.356,15.356,0,0,1,597.063,322.879Zm3.626,2.58a1.112,1.112,0,0,0-.471-.329,10.212,10.212,0,0,0-3.155-.251,13.359,13.359,0,0,0-4.457.673c1.769-.063,3.635-.093,5.67-.093Zm-.9,27.157h2.283a1,1,0,0,1,.961,1.278,10.938,10.938,0,0,1-2.121,4.076,9.378,9.378,0,0,1-2.914,2.3,11.368,11.368,0,0,1-5.036,1.176c-1.94,0-3.319-.491-4.1-1.459a3.488,3.488,0,0,1-.695-2.272c0-1.669.436-2.823,2.665-3.784C592.859,353.058,595.872,352.616,599.794,352.616Zm.864,2h-.864c-3.648,0-6.394.387-8.163,1.149-1.386.6-1.457.967-1.457,1.948a1.562,1.562,0,0,0,.253,1.019,3.374,3.374,0,0,0,2.539.712,9.329,9.329,0,0,0,4.129-.958A7.6,7.6,0,0,0,600.658,354.616Z" transform="translate(-251.147 -257.275)" fill="#992e37"/>
        <path id="Path_8092" data-name="Path 8092" d="M695.441,249.916a19.9,19.9,0,0,1,17.759,10.7l14.062,25.624,13.312-25.793a19.541,19.541,0,0,1,36.884,8.974,19.149,19.149,0,0,1-2.629,9.625l-26.5,46.707v33.636a21.634,21.634,0,0,1-43.268,0V327.174l-27.306-46.686-.02-.035-.05-.094a21.3,21.3,0,0,1-2.665-10.175A20.368,20.368,0,0,1,695.441,249.916Zm31.848,39.457a1,1,0,0,1-.877-.519l-14.968-27.275,0-.009a17.929,17.929,0,0,0-16-9.654,18.366,18.366,0,0,0-18.42,18.268,19.33,19.33,0,0,0,2.428,9.23l0,0,.041.077,27.433,46.9a1,1,0,0,1,.137.5v32.492a19.634,19.634,0,0,0,39.268,0v-33.9a1,1,0,0,1,.13-.493l26.634-46.942.006-.01a17.146,17.146,0,0,0,2.36-8.623,17.541,17.541,0,0,0-33.1-8.07l0,.009-14.176,27.466a1,1,0,0,1-.876.541Z" transform="translate(-281.707 -247.426)" fill="#992e37"/>
      </g>
    </g>
    <g id="Group_5886" data-name="Group 5886" transform="translate(-10980.932 -1836.357)">
      <path id="Path_8095" data-name="Path 8095" d="M164.23,273.412c0-8.345,4.552-12.9,12.9-12.9h52.8a11.759,11.759,0,0,1,0,23.517H193.36v26.4h29.585a11.456,11.456,0,0,1,0,22.911H193.36v28.371a14.565,14.565,0,0,1-29.13,0Z" transform="translate(-164.23 -255.813)" fill="#ff3838"/>
      <path id="Path_8096" data-name="Path 8096" d="M275.228,313.963a13.124,13.124,0,0,1,26.247,0V317.6h.607c3.034-7.283,7.113-16.688,16.082-16.688,10.165,0,13.2,7.434,13.2,12.289A11.858,11.858,0,0,1,319.53,325.19c-12.593,0-16.082,10.9-16.082,21.848V371.92a14.11,14.11,0,0,1-28.219,0Z" transform="translate(-191.025 -265.565)" fill="#ff3838"/>
      <path id="Path_8097" data-name="Path 8097" d="M376.059,255.916h6.979a11.834,11.834,0,1,1,0,23.668h-6.979a11.834,11.834,0,0,1,0-23.668Zm-10.62,48.246a14.11,14.11,0,0,1,28.219,0v56.894a14.11,14.11,0,0,1-28.219,0Z" transform="translate(-212.509 -254.702)" fill="#ff3838"/>
      <path id="Path_8098" data-name="Path 8098" d="M460.492,289.211c12.592,0,17.9,5.31,21.24,8.952V268.426a14.11,14.11,0,1,1,28.219,0V359c0,9.255-5.007,16.082-13.047,16.082a13.161,13.161,0,0,1-12.9-10.773c-5.007,6.221-13.2,10.925-25.033,10.925-22.3,0-35.35-16.537-35.35-41.874C423.625,307.721,436.976,289.211,460.492,289.211Zm6.827,67.211c10.468,0,15.171-9.71,15.171-23.819,0-13.958-4.552-23.669-15.02-23.669S452,318.645,452,332.755C452,346.56,456.851,356.422,467.32,356.422Z" transform="translate(-226.848 -254.316)" fill="#ff3838"/>
      <path id="Path_8099" data-name="Path 8099" d="M600.208,334.459h10.318c0-8.8-.91-14.718-11.531-14.718-12.9,0-14.8,9.559-24.124,9.559-6.676,0-12.137-4.248-12.137-11.076,0-14.517,22.067-18.51,36.564-18.51,23.819,0,38.384,9.1,38.384,34.44v38.081a13.243,13.243,0,0,1-13.048,13.5,13.107,13.107,0,0,1-13.048-11.227c-6.523,8.952-15.02,11.986-25.943,11.986-15.324,0-28.219-8.952-28.219-25.185C557.424,337.341,581.4,334.459,600.208,334.459Zm-5.31,33.985c10.318,0,15.779-7.889,15.779-17.6v-1.366h-8.951c-6.978,0-16.688,1.214-16.688,10.165C585.036,365.409,589.436,368.443,594.9,368.443Z" transform="translate(-259.147 -265.275)" fill="#ff3838"/>
      <path id="Path_8100" data-name="Path 8100" d="M697.372,258.916A12.941,12.941,0,0,1,708.9,265.9l20.481,37.322,19.42-37.626a12.362,12.362,0,0,1,11.076-6.676,12.5,12.5,0,0,1,12.441,12.441,12.158,12.158,0,0,1-1.669,6.068l-27.461,48.4v35.5a14.565,14.565,0,0,1-29.13,0V327.189l-28.219-48.247a14.267,14.267,0,0,1-1.821-6.827A13.242,13.242,0,0,1,697.372,258.916Z" transform="translate(-289.707 -255.426)" fill="#ff3838"/>
    </g>
    <g id="Group_5878" data-name="Group 5878" transform="translate(-10912.47 -1917.297)" style="mix-blend-mode: screen;isolation: isolate">
      <path id="Path_8101" data-name="Path 8101" d="M479.323,253.166a50.646,50.646,0,0,1-12.816-1.552,37.081,37.081,0,0,1-10.578-4.548,32.265,32.265,0,0,1-8.1-7.362,34.274,34.274,0,0,1-3.938-6.42v1.38a17.455,17.455,0,0,1-28.706,13.593c-4.847,3.148-10.71,4.68-17.9,4.68a35.253,35.253,0,0,1-8.886-1.1,29.02,29.02,0,0,1-7.587-3.146,24.866,24.866,0,0,1-9.185-9.521A18.16,18.16,0,0,1,336,234.21v-.867a29.325,29.325,0,0,1-3.718,5.637,31.25,31.25,0,0,1-8.052,6.769,39.135,39.135,0,0,1-10.572,4.242,53.294,53.294,0,0,1-12.752,1.468H270.977c-5.121,0-9.457-1.629-12.538-4.711s-4.711-7.417-4.711-12.538V167.645c0-5.121,1.629-9.457,4.711-12.539s7.417-4.711,12.538-4.711h30.494c10.452,0,19.294,2.726,25.569,7.883a25.841,25.841,0,0,1,7.148,9.2A26.643,26.643,0,0,1,336,172.868v-7.84a18.16,18.16,0,0,1,36.319,0V212.32a23.4,23.4,0,0,1,5.694-6.2,15.488,15.488,0,0,1-5.487-11.966,17.17,17.17,0,0,1,2.547-9.021c2.414-3.906,6.434-6.96,11.949-9.077,7.621-2.924,16.117-3.361,20.5-3.361,8.982,0,16.475,1.695,22.272,5.037,6.83,3.938,11.219,10.126,13.074,18.42a37.273,37.273,0,0,1,4.551-8.218,35.451,35.451,0,0,1,8.489-8.222,38.5,38.5,0,0,1,11.076-5.2,47.317,47.317,0,0,1,13.25-1.813c7.533,0,14.684,1.557,20.135,4.384a23.853,23.853,0,0,1,7.366,5.723,18.354,18.354,0,0,1,2.472,3.792V167.759a18.33,18.33,0,0,1,36.66,0v5.825l13.754-17.651a17.005,17.005,0,0,1,13.146-6.448,16.7,16.7,0,0,1,16.681,16.681,16.4,16.4,0,0,1-3.772,10.5l-13.944,17.316,19.306,30.2.011.018.05.083a18.679,18.679,0,0,1,2.786,9.7,18.352,18.352,0,0,1-18.274,18.387,18.543,18.543,0,0,1-15.558-8.437l-.008-.012-13.116-20.952-1.062,1.3V234.1a18.336,18.336,0,0,1-35.94,5.078,23.161,23.161,0,0,1-10.814,9.762C492.421,252.616,483.786,253.166,479.323,253.166Zm-36.185-24.41a.75.75,0,0,1,.706.5c5.147,14.452,17.747,22.411,35.479,22.411,4.336,0,12.718-.53,20.143-4.083,5.457-2.612,9.262-6.425,11-11.026a.75.75,0,0,1,1.442.149,16.835,16.835,0,0,0,33.456-2.61V224.006a.75.75,0,0,1,.168-.473l1.891-2.324a.75.75,0,0,1,1.217.075l13.668,21.834a17.047,17.047,0,0,0,14.3,7.752,16.85,16.85,0,0,0,16.774-16.887,17.2,17.2,0,0,0-2.573-8.929l-.045-.074-19.591-30.641a.75.75,0,0,1,.048-.874l14.286-17.741.009-.011a14.894,14.894,0,0,0,3.428-9.545,15.2,15.2,0,0,0-15.181-15.181,15.475,15.475,0,0,0-11.962,5.87l-15.1,19.373a.75.75,0,0,1-1.342-.461v-8.008a16.83,16.83,0,0,0-33.66,0v23.476a.75.75,0,0,1-1.487.14,16.485,16.485,0,0,0-3.633-7.6,22.368,22.368,0,0,0-6.909-5.357c-5.242-2.718-12.147-4.216-19.444-4.216-18.038,0-31.826,9.36-36.884,25.038a.75.75,0,0,1-1.456-.119,29.989,29.989,0,0,0-4.62-12.506,24.776,24.776,0,0,0-8.229-7.576c-5.566-3.209-12.807-4.837-21.523-4.837-4.283,0-12.571.424-19.966,3.262-5.2,2-8.974,4.845-11.211,8.465a15.67,15.67,0,0,0-2.323,8.233,14.219,14.219,0,0,0,1.524,6.5,13.786,13.786,0,0,0,4.147,4.881.75.75,0,0,1-.014,1.217,21.812,21.812,0,0,0-7.432,8.842.75.75,0,0,1-1.432-.312V165.028a16.66,16.66,0,0,0-33.319,0v43.18a.75.75,0,0,1-1.443.287,23.83,23.83,0,0,0-3.219-5.532,24.992,24.992,0,0,0-4.636-4.557.75.75,0,0,1-.071-1.134,22.756,22.756,0,0,0,5.267-7.867,26.616,26.616,0,0,0,1.805-9.926c0-8.213-3.151-15.143-9.111-20.042-6-4.934-14.516-7.541-24.617-7.541H270.977c-4.714,0-8.683,1.477-11.478,4.271s-4.271,6.764-4.271,11.478V234.21c0,4.714,1.477,8.683,4.271,11.478s6.763,4.271,11.478,4.271H300.9a51.8,51.8,0,0,0,12.393-1.424,37.64,37.64,0,0,0,10.167-4.077,29.754,29.754,0,0,0,7.667-6.443,28.064,28.064,0,0,0,4.911-8.559.75.75,0,0,1,1.456.255v4.5a16.661,16.661,0,0,0,33.119,2.575.75.75,0,0,1,1.43-.181,23.259,23.259,0,0,0,9.533,10.8,27.521,27.521,0,0,0,7.2,2.982,33.753,33.753,0,0,0,8.507,1.05c7.12,0,12.857-1.551,17.54-4.742a.75.75,0,0,1,.926.064,15.954,15.954,0,0,0,26.64-12.1v-5.158a.75.75,0,0,1,.75-.75Zm-113.361-31.02a26.362,26.362,0,0,1,4.241,4.305A25.368,25.368,0,0,1,336,204.985V186.042a25.723,25.723,0,0,1-1.21,3.919A24.2,24.2,0,0,1,329.777,197.736Zm74.507,28.007a.75.75,0,0,1-.227-1.465,12.143,12.143,0,0,1,2.257-.448.75.75,0,0,1,.388,1.432,6.087,6.087,0,0,1-2.411.482Zm106.673-1.3a.75.75,0,0,1-.687-.45,13.381,13.381,0,0,0-5.156-6.022,15.509,15.509,0,0,0-8.267-2.239,14.645,14.645,0,0,0-7.628,2.025,23.885,23.885,0,0,0-4.687,3.83c-2.152,2.121-2.936,2.792-5.1,2.792a3.036,3.036,0,0,1-2.766-1.421c-.777-1.1-2.08-3.854-2.08-10.024,0-3.441.472-11.446,4.846-11.446,2.365,0,3.132.706,4.985,2.41A22.3,22.3,0,0,0,488.9,207.3a15.02,15.02,0,0,0,7.374,1.805,14.721,14.721,0,0,0,9.267-2.967,13.155,13.155,0,0,0,4.676-7.944.75.75,0,0,1,1.486.144v25.348a.75.75,0,0,1-.75.75Zm-31.52-21.455c-2.469,0-3.346,5.358-3.346,9.946,0,5.969,1.261,8.392,1.8,9.157a1.553,1.553,0,0,0,1.542.788c1.535,0,1.979-.327,4.042-2.36a25.135,25.135,0,0,1,4.98-4.055,16.105,16.105,0,0,1,8.388-2.232,15.789,15.789,0,0,1,13.361,6.575V202.786a13.988,13.988,0,0,1-3.731,4.533,16.2,16.2,0,0,1-10.2,3.291,16.483,16.483,0,0,1-8.092-1.988A23.543,23.543,0,0,1,483.408,205C481.636,203.373,481.216,202.986,479.436,202.986Zm-181.492,19.23h-8.42a.75.75,0,0,1-.75-.75v-6.714a.75.75,0,0,1,.75-.75h8.42c2.887,0,4.718.411,5.762,1.295a3.143,3.143,0,0,1,1.019,2.641,3.605,3.605,0,0,1-1.02,3.076C302.719,221.845,300.942,222.216,297.944,222.216Zm-7.67-1.5h7.67c2.513,0,4.126-.285,4.794-.848.466-.393.487-.932.487-1.929,0-.674-.033-1.111-.488-1.5-.507-.429-1.749-.94-4.793-.94h-7.67Zm6.646-34.457h-7.4a.75.75,0,0,1-.75-.75v-5.12a.75.75,0,0,1,.75-.75h7.4c3.811,0,5,.849,5.2,1.02a3.314,3.314,0,0,1,.552,2.234,2.735,2.735,0,0,1-.938,2.529C300.922,186.008,299.481,186.259,296.92,186.259Zm-6.646-1.5h6.646c2.1,0,3.43-.187,3.942-.555.289-.208.314-.491.314-1.311a4.368,4.368,0,0,0-.115-1.139,9.617,9.617,0,0,0-4.141-.614h-6.646Z" transform="translate(-254.478 -147.619)" fill="#bfbfbf"/>
    </g>
    <g id="Group_5879" data-name="Group 5879" transform="translate(-10905.643 -1910.47)" style="mix-blend-mode: multiply;isolation: isolate">
      <path id="Path_8102" data-name="Path 8102" d="M678.89,412.566a42166.488,42166.488,0,0,1-1.517-3.034,70274.088,70274.088,0,0,1-1.517-3.034,48652.9,48652.9,0,0,1-2.276-4.552,13.113,13.113,0,0,0-.759-1.517,70274.088,70274.088,0,0,1-1.517-3.034,70279.365,70279.365,0,0,1-1.517-3.034,52706.838,52706.838,0,0,1-1.517-3.034,79059.727,79059.727,0,0,1-2.276-4.552,13.108,13.108,0,0,0-.759-1.517,13.1,13.1,0,0,0-.759-1.517,13.113,13.113,0,0,0-.759-1.517,632488.845,632488.845,0,0,1-2.276-4.552,30118.54,30118.54,0,0,0-1.517-3.034q-.141-.336-.3-.66l14.4-17.885a8.9,8.9,0,0,0,2.048-5.689,30.579,30.579,0,0,0-2.894-7.814,42165.131,42165.131,0,0,1-1.517-3.034A158126.452,158126.452,0,0,1,669.387,335a316235.94,316235.94,0,0,0-2.276-4.552,9.023,9.023,0,0,0-.759-1.517,9.024,9.024,0,0,0-.759-1.517,632488.845,632488.845,0,0,1-2.276-4.552,210827.352,210827.352,0,0,1-1.517-3.034,45178.034,45178.034,0,0,0-2.276-4.552,210826.788,210826.788,0,0,0-2.276-4.552,632488.845,632488.845,0,0,1-2.276-4.552,52706.838,52706.838,0,0,1-1.517-3.034,52707.9,52707.9,0,0,1-1.517-3.034,52706.838,52706.838,0,0,0-1.517-3.034,52709.383,52709.383,0,0,0-1.517-3.034A52705.354,52705.354,0,0,0,647.388,291a9.023,9.023,0,0,0-.759-1.517,9.018,9.018,0,0,0-.759-1.517,9.019,9.019,0,0,0-.759-1.517,210827.352,210827.352,0,0,0-1.517-3.034,70274.088,70274.088,0,0,0-1.517-3.034,26354.055,26354.055,0,0,1-1.517-3.034,105411.132,105411.132,0,0,0-1.517-3.034,9.017,9.017,0,0,0-.759-1.517,9.023,9.023,0,0,0-.759-1.517,9.019,9.019,0,0,0-.759-1.517,70274.088,70274.088,0,0,1-1.517-3.034,70279.366,70279.366,0,0,1-1.517-3.034,52706.838,52706.838,0,0,0-1.517-3.034,42166.488,42166.488,0,0,0-1.517-3.034,42165.131,42165.131,0,0,0-1.517-3.034,210827.352,210827.352,0,0,0-1.517-3.034,421659.8,421659.8,0,0,0-1.517-3.034,52706.838,52706.838,0,0,0-1.517-3.034,46851.507,46851.507,0,0,1-1.517-3.034,38332.344,38332.344,0,0,0-1.517-3.034,9.023,9.023,0,0,0-.759-1.517,421659.8,421659.8,0,0,0-1.517-3.034,52706.1,52706.1,0,0,1-1.517-3.034,60239.26,60239.26,0,0,1-1.517-3.034,46850.376,46850.376,0,0,1-1.517-3.034,52708.641,52708.641,0,0,0-1.517-3.034,46850.376,46850.376,0,0,0-1.517-3.034,421659.8,421659.8,0,0,1-1.517-3.034,9.02,9.02,0,0,0-.759-1.517,421659.8,421659.8,0,0,1-1.517-3.034,52706.1,52706.1,0,0,0-1.517-3.034,28110.8,28110.8,0,0,1-1.517-3.034,9.024,9.024,0,0,0-.759-1.517,421659.8,421659.8,0,0,1-1.517-3.034,9.024,9.024,0,0,0-.759-1.517,421659.8,421659.8,0,0,1-1.517-3.034,23425.471,23425.471,0,0,0-1.517-3.034,52706.838,52706.838,0,0,1-1.517-3.034,210827.352,210827.352,0,0,1-1.517-3.034,24803.635,24803.635,0,0,1-1.517-3.034,9.024,9.024,0,0,0-.759-1.517,421659.8,421659.8,0,0,1-1.517-3.034,9.02,9.02,0,0,0-.759-1.517,421659.8,421659.8,0,0,1-1.517-3.034,26353.684,26353.684,0,0,0-1.517-3.034,60235.659,60235.659,0,0,1-1.517-3.034,421659.8,421659.8,0,0,1-1.517-3.034,9.02,9.02,0,0,0-.759-1.517,9.129,9.129,0,0,0-8.485-5.841,9.346,9.346,0,0,0-7.168,3.527l-18.06,23.177c-.049-.087-.1-.17-.156-.256a28110.8,28110.8,0,0,1-1.517-3.034,421659.8,421659.8,0,0,1-1.517-3.034A70274.088,70274.088,0,0,0,546,176.581a70279.365,70279.365,0,0,1-1.517-3.034,52706.838,52706.838,0,0,0-1.517-3.034,10.531,10.531,0,0,0-.759-1.517,421659.8,421659.8,0,0,1-1.517-3.034,10.761,10.761,0,0,0-20.736,3.971v51.037c-.141-.289-.294-.572-.46-.847a10.723,10.723,0,0,0-.759-1.517,421659.8,421659.8,0,0,1-1.517-3.034,52706.1,52706.1,0,0,1-1.517-3.034,52709.383,52709.383,0,0,0-1.517-3.034,42165.131,42165.131,0,0,1-1.517-3.034,210838.379,210838.379,0,0,1-1.517-3.034,84331.619,84331.619,0,0,0-1.517-3.034,38332.386,38332.386,0,0,1-1.517-3.034,84332.977,84332.977,0,0,1-1.517-3.034,10.721,10.721,0,0,0-.759-1.517c-3.029-7.491-14.165-10.365-23.436-10.365-21.506,0-32.884,14.564-32.884,32.77a48.556,48.556,0,0,0,.669,8.221c-.152-.309-.306-.615-.47-.912q-.355-.785-.759-1.517-.355-.785-.759-1.517-.355-.785-.759-1.517-.355-.785-.759-1.517-.355-.785-.759-1.517-.355-.785-.759-1.517-.355-.785-.759-1.517-.355-.785-.759-1.517-.355-.785-.759-1.517-.355-.785-.759-1.517-.355-.785-.759-1.517-.355-.785-.759-1.517-.355-.785-.759-1.517-.355-.785-.759-1.517-.355-.785-.759-1.517-.355-.785-.759-1.517-.355-.785-.759-1.517-.355-.785-.759-1.517c-4.146-9.187-13.437-12.77-26.371-12.77-10.605,0-26.6,2.853-27.385,13.1-.07-.128-.152-.248-.228-.373a10.563,10.563,0,0,0-.759-1.517,84331.62,84331.62,0,0,1-1.517-3.034,18650880108250.816,18650880108250.816,0,0,0-1.517-3.034,421659.8,421659.8,0,0,0-1.517-3.034,84331.62,84331.62,0,0,1-1.517-3.034A10.563,10.563,0,0,0,374.5,180a421659.8,421659.8,0,0,1-1.517-3.034,84331.62,84331.62,0,0,1-1.517-3.034,42165.81,42165.81,0,0,1-1.517-3.034,210827.351,210827.351,0,0,0-1.517-3.034,52708.111,52708.111,0,0,0-1.517-3.034,10.733,10.733,0,0,0-21.164,2.371v38.257c-.072-.138-.152-.272-.228-.407-.228-.519-.484-1.023-.759-1.517-.228-.519-.484-1.023-.759-1.517-.228-.519-.484-1.023-.759-1.517-.228-.519-.484-1.023-.759-1.517-.228-.519-.484-1.023-.759-1.517-.228-.519-.484-1.023-.759-1.517-.228-.519-.484-1.023-.759-1.517-.228-.519-.484-1.023-.759-1.517-.228-.519-.484-1.023-.759-1.517-.228-.519-.484-1.023-.759-1.517-.228-.519-.484-1.023-.759-1.517-.228-.519-.484-1.023-.759-1.517-.228-.519-.484-1.023-.759-1.517-.228-.519-.484-1.023-.759-1.517-.228-.519-.484-1.023-.759-1.517-.228-.519-.484-1.023-.759-1.517-.228-.519-.484-1.023-.759-1.517-.228-.519-.484-1.023-.759-1.517-.228-.519-.484-1.023-.759-1.517-.228-.519-.484-1.023-.759-1.517-.228-.519-.484-1.023-.759-1.517-3.471-7.865-12.215-13.043-25.944-13.043H273.149c-6.258,0-9.671,3.414-9.671,9.672v66.565a10.844,10.844,0,0,0,1.5,5.939,421649.62,421649.62,0,0,0,1.517,3.034,8.313,8.313,0,0,0,.759,1.517,140551.568,140551.568,0,0,1,1.517,3.034,70276.727,70276.727,0,0,1,1.517,3.034,421659.79,421659.79,0,0,1,1.517,3.034,42165.81,42165.81,0,0,0,1.517,3.034,210824.807,210824.807,0,0,0,1.517,3.034,105414.949,105414.949,0,0,1,1.517,3.034,70276.727,70276.727,0,0,1,1.517,3.034,42165.81,42165.81,0,0,1,1.517,3.034,18650955137415.332,18650955137415.332,0,0,0,1.517,3.034,70276.727,70276.727,0,0,0,1.517,3.034,70276.727,70276.727,0,0,0,1.517,3.034,105414.949,105414.949,0,0,0,1.517,3.034,70275.879,70275.879,0,0,1,1.517,3.034,210827.351,210827.351,0,0,1,1.517,3.034,210827.355,210827.355,0,0,0,1.517,3.034,105414.949,105414.949,0,0,0,1.517,3.034,210827.352,210827.352,0,0,1,1.517,3.034,210824.807,210824.807,0,0,1,1.517,3.034,8.311,8.311,0,0,0,.759,1.517,8.313,8.313,0,0,0,.759,1.517,210827.352,210827.352,0,0,0,1.517,3.034,632484.611,632484.611,0,0,0,2.276,4.552,8.311,8.311,0,0,0,.759,1.517,210825.656,210825.656,0,0,1,2.276,4.552,8.313,8.313,0,0,0,.759,1.517,8.311,8.311,0,0,0,.759,1.517,8.313,8.313,0,0,0,.759,1.517,632475.27,632475.27,0,0,0,2.276,4.552,316246.544,316246.544,0,0,0,2.276,4.552,210827.354,210827.354,0,0,1,1.517,3.034,632484.6,632484.6,0,0,0,2.276,4.552,126497.43,126497.43,0,0,1,2.276,4.552,70276.727,70276.727,0,0,1,1.517,3.034,126497.43,126497.43,0,0,1,2.276,4.552,52708.11,52708.11,0,0,1,1.517,3.034,70276.727,70276.727,0,0,1,1.517,3.034,210827.352,210827.352,0,0,1,1.517,3.034,158122.635,158122.635,0,0,1,2.276,4.552,52706.626,52706.626,0,0,1,1.517,3.034,158122.636,158122.636,0,0,1,2.276,4.552,70276.727,70276.727,0,0,1,1.517,3.034,210827.352,210827.352,0,0,1,1.517,3.034,316238.484,316238.484,0,0,1,2.276,4.552,8.311,8.311,0,0,0,.759,1.517,632488.845,632488.845,0,0,1,2.276,4.552,632484.6,632484.6,0,0,0,2.276,4.552,126497.429,126497.429,0,0,1,2.276,4.552,42165.81,42165.81,0,0,1,1.517,3.034,8.311,8.311,0,0,0,.759,1.517,8.313,8.313,0,0,0,.759,1.517,105413.676,105413.676,0,0,1,2.276,4.552,8.311,8.311,0,0,0,.759,1.517,8.313,8.313,0,0,0,.759,1.517,8.311,8.311,0,0,0,.759,1.517,210825.656,210825.656,0,0,1,2.276,4.552,8.313,8.313,0,0,0,.759,1.517,8.311,8.311,0,0,0,.759,1.517,8.314,8.314,0,0,0,.759,1.517c1.314,3.421,4.359,5.249,8.93,5.249h29.925c19.457,0,30.95-10.127,30.95-25.716a18.722,18.722,0,0,0-2.329-9.318q-.345-.783-.759-1.517-.345-.783-.759-1.517-.345-.783-.759-1.517-.345-.783-.759-1.517-.345-.783-.759-1.517-.345-.783-.759-1.517-.345-.783-.759-1.517-.345-.783-.759-1.517-.345-.783-.759-1.517-.2-.453-.422-.891c.036-.028.067-.058.1-.086a189.259,189.259,0,0,1,1.474,2.918,158121.469,158121.469,0,0,0,2.276,4.552,10.647,10.647,0,0,0,.759,1.517,126497.429,126497.429,0,0,1,2.276,4.552,210827.352,210827.352,0,0,1,1.517,3.034,10.646,10.646,0,0,0,.759,1.517,210824.808,210824.808,0,0,1,1.517,3.034,42165.81,42165.81,0,0,1,1.517,3.034,10.642,10.642,0,0,0,.759,1.517,105414.949,105414.949,0,0,1,1.517,3.034,105415.373,105415.373,0,0,1,1.517,3.034,10.644,10.644,0,0,0,.759,1.517,105414.949,105414.949,0,0,1,1.517,3.034,70276.727,70276.727,0,0,1,1.517,3.034,70276.727,70276.727,0,0,1,1.517,3.034,10.733,10.733,0,0,0,21.164-2.371V392.618l.034.059a16.731,16.731,0,0,0,.759,1.517,632488.845,632488.845,0,0,1,2.276,4.552,632484.618,632484.618,0,0,0,2.276,4.552,632488.845,632488.845,0,0,1,2.276,4.552,632484.6,632484.6,0,0,0,2.276,4.552,210827.352,210827.352,0,0,1,1.517,3.034,52708.11,52708.11,0,0,0,1.517,3.034c3.174,7.232,10.863,11.128,19.614,11.128,8.013,0,14.281-2.189,19.13-8.566.052.091.109.179.164.269a9.7,9.7,0,0,0,.759,1.517,9.837,9.837,0,0,0,18.976-3.916v-28.56a41.3,41.3,0,0,0-.359-5.544c.085.165.175.325.263.488q.358.775.759,1.517.358.775.759,1.517.358.775.759,1.517.358.775.759,1.517.359.775.759,1.517.358.775.759,1.517.358.775.759,1.517.358.775.759,1.517.359.775.759,1.517.358.775.759,1.517.358.775.759,1.517.358.775.759,1.517.358.775.759,1.517.359.775.759,1.517.358.775.759,1.517.358.775.759,1.517.358.775.759,1.517.358.775.759,1.517.358.775.759,1.517c4.576,9.885,14.008,15.713,28.7,15.713,11.823,0,26.17-4.256,26.17-15.134a9.421,9.421,0,0,0-1.366-5.193,70274.088,70274.088,0,0,1-1.517-3.034,48652.9,48652.9,0,0,1-2.276-4.552,7.789,7.789,0,0,0-.759-1.517,632475.27,632475.27,0,0,0-2.276-4.552,7.784,7.784,0,0,0-.759-1.517,52706.838,52706.838,0,0,1-1.517-3.034,48652.9,48652.9,0,0,1-2.276-4.552c-.016-.043-.037-.083-.054-.125a9.37,9.37,0,0,0,3.583.654,9.535,9.535,0,0,0,4.274-.9,64.267,64.267,0,0,1,1.316,2.572,210826.788,210826.788,0,0,0,2.276,4.552,210827.353,210827.353,0,0,1,1.517,3.034,42165.131,42165.131,0,0,1,1.517,3.034,52709.383,52709.383,0,0,1,1.517,3.034,52705.354,52705.354,0,0,1,1.517,3.034,52707.686,52707.686,0,0,1,2.276,4.552,10.642,10.642,0,0,0,.759,1.517,105408.588,105408.588,0,0,1,1.517,3.034,52709.383,52709.383,0,0,1,1.517,3.034A52706.838,52706.838,0,0,1,611,420.8a10.915,10.915,0,0,0,21.492-2.467V405.816l9.444-11.607L660.6,424.022a11.066,11.066,0,0,0,9.216,5.007,10.709,10.709,0,0,0,10.7-10.81A11.118,11.118,0,0,0,678.89,412.566Z" transform="translate(-263.478 -156.619)" fill="url(#linear-gradient)"/>
    </g>
    <g id="Group_5880" data-name="Group 5880" transform="translate(-10905.643 -1910.47)">
      <path id="Path_8103" data-name="Path 8103" d="M263.478,170.94c0-6.258,3.414-9.672,9.671-9.672h30.494c18.206,0,27.65,9.1,27.65,21.506,0,8.762-4.552,15.7-15.133,19v.341c10.013,1.821,17.864,8.421,17.864,19.344,0,15.588-11.493,25.716-30.95,25.716H273.149c-6.258,0-9.671-3.414-9.671-9.671Zm35.615,24.691c8.533,0,11.833-3.527,11.833-9.444s-3.3-9.331-11.833-9.331H284.869v18.775Zm1.023,35.957c8.193,0,12.858-3.072,12.858-10.355,0-6.827-5.007-10.014-12.858-10.014H284.869v20.368Z" transform="translate(-263.478 -157.741)" fill="#fff"/>
      <path id="Path_8104" data-name="Path 8104" d="M371.925,167.2a10.582,10.582,0,0,1,21.164,0v69.182a10.582,10.582,0,0,1-21.164,0Z" transform="translate(-289.657 -156.619)" fill="#fff"/>
      <path id="Path_8105" data-name="Path 8105" d="M446.912,216.724h7.738c0-6.6-.683-11.038-8.648-11.038-9.671,0-11.1,7.169-18.092,7.169-5.006,0-9.1-3.186-9.1-8.306,0-10.888,16.55-13.882,27.422-13.882,17.864,0,28.788,6.827,28.788,25.83v28.56a9.933,9.933,0,0,1-9.786,10.127,9.83,9.83,0,0,1-9.785-8.42c-4.893,6.714-11.265,8.989-19.457,8.989-11.492,0-21.164-6.714-21.164-18.889C414.825,218.885,432.8,216.724,446.912,216.724Zm-3.982,25.487c7.737,0,11.833-5.917,11.833-13.2v-1.024H448.05c-5.234,0-12.516.91-12.516,7.624C435.534,239.936,438.834,242.212,442.93,242.212Z" transform="translate(-300.013 -164.838)" fill="#fff"/>
      <path id="Path_8106" data-name="Path 8106" d="M541.608,190.667c10.837,0,24.237,3.921,24.237,14.564,0,5.234-3.072,8.193-8.193,8.193-7.921,0-7.7-7.624-16.841-7.624-6.258,0-10.923,5.234-10.923,17.523,0,12.744,4.893,17.523,10.923,17.523,9.2,0,9.37-8.647,17.41-8.647,5.348,0,8.647,3.185,8.647,8.647,0,10.878-14.347,15.134-26.17,15.134-21.733,0-31.974-12.745-31.974-32.543C508.724,205.231,520.1,190.667,541.608,190.667Z" transform="translate(-322.68 -164.838)" fill="#fff"/>
      <path id="Path_8107" data-name="Path 8107" d="M601.572,170.764a10.753,10.753,0,0,1,21.506,0v27.877L650.386,163.6a9.346,9.346,0,0,1,7.168-3.528,9.13,9.13,0,0,1,9.1,9.1,8.906,8.906,0,0,1-2.048,5.689L647.2,196.479l22.188,34.7a11.191,11.191,0,0,1,1.707,5.8,10.709,10.709,0,0,1-10.7,10.81,11.066,11.066,0,0,1-9.216-5.007l-18.661-29.812-9.445,11.607V237.1a10.753,10.753,0,0,1-21.506,0Z" transform="translate(-345.094 -157.452)" fill="#fff"/>
    </g>
    <g id="Group_5892" data-name="Group 5892" transform="translate(-11698 -2172.047)">
      <g id="Group_5254" data-name="Group 5254" transform="translate(666.107 254.956)" opacity="0.2">
        <path id="Path_6074" data-name="Path 6074" d="M32.142,70.572l44.97,16.591-24.251-19Z" transform="translate(-33.801 -66.014) rotate(8)" fill="#1dded5"/>
      </g>
      <g id="Group_5257" data-name="Group 5257" transform="translate(632.004 468.968)" opacity="0.2">
        <path id="Path_6077" data-name="Path 6077" d="M57.879,233.062l10.9-11.143L80.21,210.235l11.123-11.369-34.852,16.9Z" transform="translate(-92.483 -225.866)" fill="red"/>
      </g>
      <g id="Group_5268" data-name="Group 5268" transform="translate(795.33 521.047) rotate(-90)" opacity="0.2">
        <path id="Path_6077-2" data-name="Path 6077" d="M57.879,233.062l33.456-34.2-34.852,16.9Z" transform="translate(-89.483 -276.866)" fill="#ffda01"/>
      </g>
      <g id="Group_5256" data-name="Group 5256" transform="translate(948.358 251.078)" opacity="0.2">
        <path id="Path_6076" data-name="Path 6076" d="M139.01,18.6l26.433,42.318L160.358,27.1Z" transform="translate(-121.01 -58.599)" fill="#ffa800"/>
      </g>
      <g id="Group_5255" data-name="Group 5255" transform="translate(1246.271 297.452)" opacity="0.2">
        <path id="Path_6075" data-name="Path 6075" d="M341.847,53.15,314,73.544l44.837-15.5Z" transform="translate(-312.995 -77.15)" fill="red"/>
      </g>
      <g id="Group_5258" data-name="Group 5258" transform="translate(1171.711 477.164)" opacity="0.2">
        <path id="Path_6078" data-name="Path 6078" d="M332.954,217.107,309.39,196.169,329.672,239.2Z" transform="translate(-269.39 -197.169)" fill="#27d406"/>
      </g>
    </g>
    <path id="Path_8115" data-name="Path 8115" d="M-10.89-21.3c-3.18,0-5.13,2.01-5.13,5.31V-5.01c0,3.3,1.95,5.31,5.13,5.31s5.13-2.01,5.13-5.31V-15.99C-5.76-19.29-7.71-21.3-10.89-21.3Zm0,2.94c1.26,0,1.95.84,1.95,2.4V-5.04c0,1.56-.69,2.4-1.95,2.4s-1.95-.84-1.95-2.4V-15.96C-12.84-17.52-12.15-18.36-10.89-18.36Zm17.01.3V-21H-2.67V0H.51V-9.18h4.5v-2.94H.51v-5.94Zm10.89,0V-21H8.22V0H11.4V-9.18h4.5v-2.94H11.4v-5.94Z" transform="translate(-10665 -1658.747)" fill="#fff"/>
    <rect id="Rectangle_1851" data-name="Rectangle 1851" width="90" height="60" rx="5" transform="translate(-10782 -1701.047)" fill="#edc621"/>
    <path id="Path_8113" data-name="Path 8113" d="M-15.18-21h-3.18V-4.8c0,1.53-.69,2.1-1.8,2.1s-1.8-.57-1.8-2.1V-21h-3.06V-4.71c0,3.3,1.89,5.01,4.89,5.01,3.06,0,4.95-1.71,4.95-5.01Zm3.24,0V0h3.18V-8.7h1.41c3.42,0,5.28-1.86,5.28-5.31v-1.68c0-3.45-1.86-5.31-5.28-5.31Zm3.18,2.94h1.29c1.53,0,2.22.81,2.22,2.58v1.26c0,1.77-.69,2.58-2.22,2.58H-8.76ZM13.32-18v-3H3.36v3H6.75V0H9.93V-18Zm6.72-3.3c-3.18,0-5.13,2.01-5.13,5.31V-5.01c0,3.3,1.95,5.31,5.13,5.31s5.13-2.01,5.13-5.31V-15.99C25.17-19.29,23.22-21.3,20.04-21.3Zm0,2.94c1.26,0,1.95.84,1.95,2.4V-5.04c0,1.56-.69,2.4-1.95,2.4s-1.95-.84-1.95-2.4V-15.96C18.09-17.52,18.78-18.36,20.04-18.36Z" transform="translate(-10819 -1658.747)" fill="#fff"/>
    <path id="Path_8116" data-name="Path 8116" d="M-17.25-35h-14.3l-1.1,20.05,4.9.2.05-.7a2.967,2.967,0,0,1,3.15-2.95c2.15,0,3.3,1.45,3.3,4.05v5.9c0,2.6-1.1,4.05-3.3,4.05-2.1,0-3.2-1.3-3.2-4.15V-9.5l-5.1.25V-7.9c0,5.3,3.15,8.4,8.45,8.4s8.45-3.2,8.45-8.6v-6.6c0-5.5-2.75-8.6-7.15-8.6a5.269,5.269,0,0,0-4.15,1.55h-.1L-26.9-30h9.65Zm20,0h-14.3l-1.1,20.05,4.9.2.05-.7A2.967,2.967,0,0,1-4.55-18.4c2.15,0,3.3,1.45,3.3,4.05v5.9c0,2.6-1.1,4.05-3.3,4.05-2.1,0-3.2-1.3-3.2-4.15V-9.5l-5.1.25V-7.9C-12.85-2.6-9.7.5-4.4.5S4.05-2.7,4.05-8.1v-6.6c0-5.5-2.75-8.6-7.15-8.6a5.269,5.269,0,0,0-4.15,1.55h-.1L-6.9-30H2.75Zm9.55-.5C9-35.5,6.95-33.4,6.95-30v7.6c0,3.4,2.05,5.5,5.35,5.5s5.35-2.1,5.35-5.5V-30C17.65-33.4,15.6-35.5,12.3-35.5ZM13.35.5l16.6-36h-3.3L10.05.5ZM12.3-32.25c1.15,0,1.75.75,1.75,2.25v7.6c0,1.5-.6,2.25-1.75,2.25s-1.75-.75-1.75-2.25V-30C10.55-31.5,11.15-32.25,12.3-32.25ZM27.7-18.1c-3.3,0-5.35,2.1-5.35,5.5V-5C22.35-1.6,24.4.5,27.7.5S33.05-1.6,33.05-5v-7.6C33.05-16,31-18.1,27.7-18.1Zm0,3.25c1.15,0,1.75.75,1.75,2.25V-5c0,1.5-.6,2.25-1.75,2.25S25.95-3.5,25.95-5v-7.6C25.95-14.1,26.55-14.85,27.7-14.85Z" transform="translate(-10737.15 -1653.547)"/>
  </g>
</svg>
