<svg xmlns="http://www.w3.org/2000/svg" width="221.001" height="51.52" viewBox="0 0 221.001 51.52">
  <g id="BFCM" transform="translate(-375 -7.24)">
    <g id="Group_5839" data-name="Group 5839" transform="translate(-29.141 1.895)">
      <g id="Group_5837" data-name="Group 5837" transform="translate(563.998 16.366)">
        <path id="Path_7017" data-name="Path 7017" d="M617.006,121.81a.682.682,0,0,1,.636.352,1.578,1.578,0,0,1,.2.8,1.478,1.478,0,0,1-.045.389.716.716,0,0,1-.179.307,1.507,1.507,0,0,1-.358.269,5.53,5.53,0,0,1-.583.277,3.939,3.939,0,0,0-1.317.86,1.465,1.465,0,0,0-.478.995.993.993,0,0,0,.209.6,1.725,1.725,0,0,0,.658.5,4.517,4.517,0,0,0,1.159.344,9.909,9.909,0,0,0,1.713.127,7.569,7.569,0,0,0,1.959-.247,5.655,5.655,0,0,0,1.622-.7,3.752,3.752,0,0,0,1.107-1.062,2.342,2.342,0,0,0,.411-1.331,1.861,1.861,0,0,0-.449-1.122,5.675,5.675,0,0,0-1.421-1.211q-1.72-1.122-2.61-1.81t-1.1-.868a8.487,8.487,0,0,1-1.676-1.9,3.615,3.615,0,0,1-.553-1.9,3.887,3.887,0,0,1,.441-1.78,6.633,6.633,0,0,1,1.189-1.631,10.729,10.729,0,0,1,1.728-1.413,13.3,13.3,0,0,1,4.2-1.839,8.79,8.79,0,0,1,2.057-.262,5.286,5.286,0,0,1,1.354.165,3.094,3.094,0,0,1,1.084.516,2.418,2.418,0,0,1,.725.9,3.087,3.087,0,0,1,.262,1.331,3.934,3.934,0,0,1-.643,2.138,6.624,6.624,0,0,1-1.959,1.9,1.936,1.936,0,0,1-1.077.4.989.989,0,0,1-.808-.366,1.318,1.318,0,0,1-.3-.86,1.64,1.64,0,0,1,.247-.838,2,2,0,0,1,.8-.718,2.634,2.634,0,0,0,.77-.606,1.136,1.136,0,0,0,.337-.74.439.439,0,0,0-.232-.449,1.357,1.357,0,0,0-.56-.1,6.606,6.606,0,0,0-1.369.157,11.1,11.1,0,0,0-1.481.426,10.912,10.912,0,0,0-1.436.643,7.722,7.722,0,0,0-1.226.807,4.158,4.158,0,0,0-.852.92,1.735,1.735,0,0,0-.322.965,1.418,1.418,0,0,0,.135.613,2.3,2.3,0,0,0,.4.568,6.26,6.26,0,0,0,.636.591q.374.306.867.665l3.5,2.588q.673.494,1.2.965a6.688,6.688,0,0,1,.89.942,4.141,4.141,0,0,1,.554.95,2.682,2.682,0,0,1,.194,1.017,4.85,4.85,0,0,1-.621,2.341,6.6,6.6,0,0,1-1.765,2.041,9.354,9.354,0,0,1-2.752,1.451,10.914,10.914,0,0,1-3.568.554,14.209,14.209,0,0,1-3.1-.292,7.051,7.051,0,0,1-2.1-.793,3.33,3.33,0,0,1-1.2-1.151,2.71,2.71,0,0,1-.374-1.369,3.4,3.4,0,0,1,.382-1.518,5.48,5.48,0,0,1,1.076-1.458,7.592,7.592,0,0,1,1.668-1.227A8.607,8.607,0,0,1,617.006,121.81Z" transform="translate(-611.741 -108.559)" fill="#ffda01" stroke="#ffda01" stroke-width="0.8"/>
        <path id="Path_7018" data-name="Path 7018" d="M656.994,134q-.269.255-.718.7t-1.024.972q-.576.523-1.227,1.054a14.044,14.044,0,0,1-1.331.965,8.927,8.927,0,0,1-1.339.711,3.221,3.221,0,0,1-1.241.277,1.71,1.71,0,0,1-.9-.225,1.981,1.981,0,0,1-.621-.583,2.582,2.582,0,0,1-.367-.815,3.654,3.654,0,0,1-.12-.934,4.333,4.333,0,0,1,.045-.621,2.663,2.663,0,0,1,.15-.576q-.464.629-1.055,1.294a10.384,10.384,0,0,1-1.271,1.211,7.227,7.227,0,0,1-1.421.9,3.475,3.475,0,0,1-1.5.352,3.165,3.165,0,0,1-.9-.158,3.034,3.034,0,0,1-.979-.516,2.964,2.964,0,0,1-.778-.927,2.842,2.842,0,0,1-.314-1.391,6.987,6.987,0,0,1,.187-1.465,10.556,10.556,0,0,1,.568-1.773,10.922,10.922,0,0,1,.972-1.817,7.978,7.978,0,0,1,1.4-1.608,6.829,6.829,0,0,1,1.84-1.151,5.794,5.794,0,0,1,2.3-.441,3.651,3.651,0,0,1,1.152.165,4.893,4.893,0,0,1,.838.359,4.194,4.194,0,0,1,.688.524q.254-.134.523-.254a4.581,4.581,0,0,1,.471-.187,1.378,1.378,0,0,1,.426-.083,1.358,1.358,0,0,1,.927.314.909.909,0,0,1,.359.688.712.712,0,0,1-.015.165q-.075.284-.232.718t-.352.965q-.194.531-.4,1.107t-.367,1.129q-.164.554-.27,1.039a4.071,4.071,0,0,0-.1.83,1.613,1.613,0,0,0,.15.74.524.524,0,0,0,.508.292,1.3,1.3,0,0,0,.531-.142,5.009,5.009,0,0,0,.665-.382q.359-.238.74-.546t.74-.621q.838-.747,1.78-1.705a.747.747,0,0,1,.464-.194.593.593,0,0,1,.5.292,1.112,1.112,0,0,1,.2.65A.953.953,0,0,1,656.994,134ZM646.63,130.14a2.807,2.807,0,0,0-1.361.359,4.229,4.229,0,0,0-1.167.942,4.723,4.723,0,0,0-.808,1.309,3.8,3.8,0,0,0-.3,1.458,5.417,5.417,0,0,0,.037.621,1.77,1.77,0,0,0,.172.59,1.222,1.222,0,0,0,.381.449,1.108,1.108,0,0,0,.665.18,1.468,1.468,0,0,0,.771-.292,6.475,6.475,0,0,0,.912-.748,12.073,12.073,0,0,0,.92-1q.449-.546.808-1.07a10.359,10.359,0,0,0,.583-.942,1.54,1.54,0,0,0,.224-.613.785.785,0,0,0-.195-.516,1.784,1.784,0,0,0-.478-.4,2.4,2.4,0,0,0-.606-.247A2.33,2.33,0,0,0,646.63,130.14Z" transform="translate(-624 -116.724)" fill="#ffda01" stroke="#ffda01" stroke-width="0.8"/>
        <path id="Path_7019" data-name="Path 7019" d="M669.048,127.187a7.518,7.518,0,0,0-.322.8,2.549,2.549,0,0,0-.157.815.637.637,0,0,0,.09.359.384.384,0,0,0,.344.134,2.222,2.222,0,0,0,.785-.187,8.414,8.414,0,0,0,1.017-.493q.546-.307,1.137-.7t1.174-.822q.583-.426,1.114-.853t.95-.785a.7.7,0,0,1,.284-.149,1.1,1.1,0,0,1,.284-.045.646.646,0,0,1,.494.209.781.781,0,0,1,.194.553,1.512,1.512,0,0,1-.209.7,2.369,2.369,0,0,1-.733.763q-.957.883-1.93,1.675a19.457,19.457,0,0,1-1.936,1.4,10.74,10.74,0,0,1-1.915.965,5.207,5.207,0,0,1-1.847.36,2.789,2.789,0,0,1-1.025-.165,1.683,1.683,0,0,1-.658-.449,1.658,1.658,0,0,1-.351-.673,3.131,3.131,0,0,1-.1-.822,5.513,5.513,0,0,1,.217-1.5,9.377,9.377,0,0,1,.515-1.413q.524-1.167,1.063-2.318t.987-2.109l4.532-9.647a1.67,1.67,0,0,1,.725-.823,1.962,1.962,0,0,1,.92-.239,1.494,1.494,0,0,1,.845.254.917.917,0,0,1,.381.823,1.45,1.45,0,0,1-.127.568,6.432,6.432,0,0,1-.322.643q-.374.7-.89,1.72t-1.106,2.213q-.591,1.2-1.212,2.49t-1.212,2.52q-.59,1.226-1.106,2.326T669.048,127.187Z" transform="translate(-635.097 -109.927)" fill="#ffda01" stroke="#ffda01" stroke-width="0.8"/>
        <path id="Path_7020" data-name="Path 7020" d="M686.919,127.407a2.56,2.56,0,0,1,1.854.6,2.212,2.212,0,0,1,.614,1.66,3.056,3.056,0,0,1-.33,1.316,4.556,4.556,0,0,1-1.136,1.4,12.094,12.094,0,0,1-2.161,1.45,25.405,25.405,0,0,1-3.388,1.488.973.973,0,0,0,.464.681,1.9,1.9,0,0,0,1.032.247,5.942,5.942,0,0,0,1.474-.2,12.15,12.15,0,0,0,1.555-.516q.77-.315,1.5-.681t1.324-.7q.591-.328.987-.568t.531-.3a.606.606,0,0,1,.247-.1,1.6,1.6,0,0,1,.2-.015.52.52,0,0,1,.3.082.849.849,0,0,1,.2.195.656.656,0,0,1,.112.239.949.949,0,0,1,.03.217,2.022,2.022,0,0,1-.03.322.951.951,0,0,1-.224.426q-.075.075-.5.4t-1.1.778q-.674.449-1.563.95a18.309,18.309,0,0,1-1.885.92,14.917,14.917,0,0,1-2.071.7,8.538,8.538,0,0,1-2.124.277,3.547,3.547,0,0,1-1.593-.344,3.593,3.593,0,0,1-1.182-.927,4.115,4.115,0,0,1-.741-1.346,5.035,5.035,0,0,1-.254-1.6,4.549,4.549,0,0,1,.254-1.413,7.356,7.356,0,0,1,.734-1.548,9.445,9.445,0,0,1,1.173-1.518,8.63,8.63,0,0,1,1.563-1.309,8.126,8.126,0,0,1,1.907-.912A7.031,7.031,0,0,1,686.919,127.407Zm-.539,2.064a.709.709,0,0,0-.134-.015h-.135a2.529,2.529,0,0,0-1.062.225,3.57,3.57,0,0,0-.905.591,4.648,4.648,0,0,0-.733.83q-.322.464-.576.92a8.144,8.144,0,0,0-.426.875c-.115.279-.2.514-.262.7q.524-.269,1.085-.613t1.054-.659q.494-.314.86-.569t.516-.344a3.163,3.163,0,0,0,.927-.785,1.178,1.178,0,0,0,.254-.635.474.474,0,0,0-.142-.359A.611.611,0,0,0,686.379,129.471Z" transform="translate(-640.867 -116.713)" fill="#ffda01" stroke="#ffda01" stroke-width="0.8"/>
      </g>
      <g id="Group_5838" data-name="Group 5838" transform="translate(556.473 10)">
        <g id="Group_5257" data-name="Group 5257" transform="translate(0 28.249)" opacity="0.4">
          <path id="Path_6077" data-name="Path 6077" d="M.355,8.679,3.121,5.851l2.9-2.965L8.846,0,0,4.289Z" transform="matrix(-0.469, -0.883, 0.883, -0.469, 4.153, 11.885)" fill="#ff00e6"/>
        </g>
        <g id="Group_5254" data-name="Group 5254" transform="translate(32.944 1.907)" opacity="0.4">
          <path id="Path_6074" data-name="Path 6074" d="M0,4.211,11.414,0,5.259,4.822Z" transform="translate(11.974 4.775) rotate(172)" fill="#1dded5"/>
        </g>
        <g id="Group_5258" data-name="Group 5258" transform="translate(60.005 5.089)" opacity="0.4">
          <path id="Path_6078" data-name="Path 6078" d="M315.371,201.483l-5.981-5.314,5.148,10.921Z" transform="translate(-309.39 -196.169)" fill="#27d406"/>
        </g>
        <g id="Group_5258-2" data-name="Group 5258" transform="matrix(-0.966, -0.259, 0.259, -0.966, 7.261, 12.097)" opacity="0.4">
          <path id="Path_6078-2" data-name="Path 6078" d="M5.981,5.607,0,10.922,5.148,0Z" transform="translate(0 0)" fill="#ffba19"/>
        </g>
        <g id="Group_5255" data-name="Group 5255" transform="translate(31.513 29.881)" opacity="0.4">
          <path id="Path_6075" data-name="Path 6075" d="M4.312,0,11.38,5.176,0,1.242Z" transform="translate(0 9.434) rotate(-56)" fill="#fff"/>
        </g>
        <g id="Group_5255-2" data-name="Group 5255" transform="translate(68.669 27.839) rotate(120)" opacity="0.4">
          <path id="Path_6075-2" data-name="Path 6075" d="M4.312,0,11.38,5.176,0,1.242Z" transform="translate(0 0)" fill="red"/>
        </g>
      </g>
    </g>
    <g id="Group_5864" data-name="Group 5864" transform="translate(-3)">
      <g id="Group_5859" data-name="Group 5859" transform="translate(378 7.24)">
        <path id="Path_8062" data-name="Path 8062" d="M230.825,326.058l3.586-6.922a2.61,2.61,0,0,0-2.318-3.812h-3.163a2.61,2.61,0,0,0-2.123,1.09,2.608,2.608,0,0,0-2.123-1.09h-3.02a2.6,2.6,0,0,0-2.228,1.267,7.459,7.459,0,0,0-4.754-1.552c-3.433,0-5.913,1.767-6.845,4.67l-.383-2.218a2.612,2.612,0,0,0-2.574-2.166h-3.848a2.61,2.61,0,0,0-2.573,2.166l-2.581,14.931H194.3V317.935a2.611,2.611,0,0,0-2.611-2.611h-3.021a2.6,2.6,0,0,0-2.48,1.829A7.431,7.431,0,0,0,181,315.324h-4.217a2.611,2.611,0,0,0-2.612,2.611v19.946a2.611,2.611,0,0,0,2.612,2.612h4.446a7.924,7.924,0,0,0,5.039-1.577,2.611,2.611,0,0,0,2.4,1.577h8.065a2.045,2.045,0,0,1,.854,0h3.021a2.615,2.615,0,0,0,2.323-1.416,2.611,2.611,0,0,0,2.322,1.416h3.077a2.612,2.612,0,0,0,2-.929c.005-.007.009-.015.014-.022a7.584,7.584,0,0,0,4.342,1.235,7.455,7.455,0,0,0,4.753-1.552,2.6,2.6,0,0,0,2.229,1.267h3.02a2.609,2.609,0,0,0,2.137-1.11,2.613,2.613,0,0,0,2.138,1.11h3.219a2.611,2.611,0,0,0,2.466-3.47Z" transform="translate(-174.173 -315.038)" fill="#ffdb0a"/>
        <path id="Path_8063" data-name="Path 8063" d="M325.168,316.558a2.611,2.611,0,0,0-2.148-1.126h-3.135a2.611,2.611,0,0,0-2.47,1.764l-.037.107-.05-.141a2.612,2.612,0,0,0-2.458-1.729h-3.191a2.555,2.555,0,0,1-2.707,0h-3.847a2.612,2.612,0,0,0-2.574,2.166l-.435,2.514c-.993-2.945-3.55-4.68-7.164-4.68H290.62a2.587,2.587,0,0,0-1.624.58,2.587,2.587,0,0,0-1.624-.58h-3.021a2.6,2.6,0,0,0-2.486,1.852,7.74,7.74,0,0,0-5.349-1.852h-4.361a2.44,2.44,0,0,1-1.709,0H262.1a2.611,2.611,0,0,0-2.611,2.611v19.946A2.611,2.611,0,0,0,262.1,340.6h3.021a2.611,2.611,0,0,0,2.612-2.612v-6.108h1.663c.052,0,.1-.012.152-.015v6.123a2.611,2.611,0,0,0,2.611,2.612h3.021a2.607,2.607,0,0,0,1.9-.814,2.611,2.611,0,0,0,1.895.814h3.191a2.535,2.535,0,0,1,2.194,0h3.021A2.583,2.583,0,0,0,289,340.02a2.583,2.583,0,0,0,1.624.581h4.332a8.213,8.213,0,0,0,4.535-1.216,2.563,2.563,0,0,0,.192.287,2.613,2.613,0,0,0,2,.929h3.02a2.614,2.614,0,0,0,2.323-1.416,2.612,2.612,0,0,0,2.322,1.416h3.077a2.6,2.6,0,0,0,1.721-.665,2.592,2.592,0,0,0,1.727.665h3.021a2.611,2.611,0,0,0,2.612-2.612v-8.527l3.964-10.5A2.613,2.613,0,0,0,325.168,316.558Z" transform="translate(-197.598 -315.146)" fill="#ffdb0a"/>
      </g>
      <g id="Group_5863" data-name="Group 5863">
        <path id="Path_8064" data-name="Path 8064" d="M227,366.862a7.416,7.416,0,0,0,1.55-4.8v-1.285c0-4.416-2.733-7.159-7.133-7.159h-3.931a2.607,2.607,0,0,1-2.055,0h-7.655a2.6,2.6,0,0,0-2.334,1.462,7.108,7.108,0,0,0-4.578-1.462h-3.8a2.444,2.444,0,0,1-1.182,0h-2.826a2.614,2.614,0,0,0-2.262,1.3,2.61,2.61,0,0,0-2.26-1.3h-2.878a2.592,2.592,0,0,0-1.426.445,7.45,7.45,0,0,0-3.25-.7c-4.067,0-6.8,2.784-6.8,6.928v9.866c0,4.144,2.733,6.928,6.8,6.928a6.537,6.537,0,0,0,5.842-3.054v.185a2.611,2.611,0,0,0,2.611,2.612h2.723a2.6,2.6,0,0,0,2.454-1.748,2.6,2.6,0,0,0,2.453,1.748h4.008a7.53,7.53,0,0,0,4.462-1.3,2.6,2.6,0,0,0,2.244,1.3h7.655a2.606,2.606,0,0,1,2.055,0h2.724a2.6,2.6,0,0,0,1.709-.636,2.6,2.6,0,0,0,1.708.636H226.5a2.611,2.611,0,0,0,2.5-3.371Z" transform="translate(203.827 -318.32)" fill="#fff"/>
        <path id="Path_8065" data-name="Path 8065" d="M323.011,354.742a2.61,2.61,0,0,0-2.148-1.127h-2.826a2.612,2.612,0,0,0-2.261,1.3,2.611,2.611,0,0,0-2.26-1.3h-2.878a2.574,2.574,0,0,1-2.44,0h-3.469a2.611,2.611,0,0,0-2.573,2.166l-.237,1.371c-1.1-2.242-3.34-3.537-6.362-3.537H291.65a2.6,2.6,0,0,0-1.465.45,2.6,2.6,0,0,0-1.465-.45h-2.569a2.6,2.6,0,0,0-1.632.572,2.61,2.61,0,0,0-1.631-.572h-3.032a2.6,2.6,0,0,0-2.3,1.407,7.571,7.571,0,0,0-9.472,0,2.6,2.6,0,0,0-2.3-1.407H262.1a2.61,2.61,0,0,0-2.145,1.121,2.611,2.611,0,0,0-2.145-1.121h-3.571a2.611,2.611,0,0,0-2.612,2.611V374.21a2.611,2.611,0,0,0,2.612,2.612h2.569a2.611,2.611,0,0,0,2.611-2.569h1.021a2.611,2.611,0,0,0,2.611,2.569h2.723a2.6,2.6,0,0,0,2.3-1.407,7.571,7.571,0,0,0,9.472,0,2.6,2.6,0,0,0,2.3,1.407h2.569a2.6,2.6,0,0,0,1.811-.73,2.612,2.612,0,0,0,1.811.73h2.672a2.6,2.6,0,0,0,1.465-.45,2.6,2.6,0,0,0,1.465.45h3.906a7.8,7.8,0,0,0,4.017-1c.018.023.03.051.049.074a2.614,2.614,0,0,0,2,.929h2.723a2.611,2.611,0,0,0,2.094-1.05,2.609,2.609,0,0,0,2.094,1.05h2.775a2.582,2.582,0,0,1,3.108,0h2.723a2.611,2.611,0,0,0,2.611-2.612v-7.642l3.558-9.42A2.612,2.612,0,0,0,323.011,354.742Z" transform="translate(182.56 -318.32)" fill="#fff"/>
      </g>
      <g id="Group_5861" data-name="Group 5861" transform="translate(380.611 37.65)">
        <path id="Path_8066" data-name="Path 8066" d="M181.961,356.958c-2.646,0-4.188,1.593-4.188,4.316v9.866c0,2.723,1.542,4.316,4.188,4.316,2.672,0,4.239-1.593,4.239-4.316v-2.158l-2.62-.129v2c0,1.439-.54,2.081-1.542,2.081s-1.542-.642-1.542-1.824V361.3c0-1.182.54-1.824,1.542-1.824s1.542.642,1.542,2.081v1.464l2.62-.128v-1.619C186.2,358.551,184.633,356.958,181.961,356.958Z" transform="translate(-177.773 -356.958)" fill="red"/>
        <path id="Path_8067" data-name="Path 8067" d="M195.208,363.684h-.052l-2.286-6.372h-2.878l3.777,9.84V375.3h2.723v-8.119l3.726-9.866h-2.826Z" transform="translate(-181.128 -357.055)" fill="red"/>
        <path id="Path_8068" data-name="Path 8068" d="M211.832,365.919v-.052c1.439-.488,2.03-1.67,2.03-3.674v-.334c0-2.954-1.515-4.548-4.342-4.548h-3.8V375.3h4.008c2.929,0,4.522-1.592,4.522-4.547v-.617C214.247,367.769,213.528,366.433,211.832,365.919Zm-3.391-6.089h.976c1.182,0,1.721.668,1.721,2.133v.59c0,1.516-.54,2.184-1.85,2.184h-.848Zm3.083,10.739c0,1.516-.591,2.21-1.9,2.21H208.44v-5.523h1.053c1.439,0,2.03.719,2.03,2.312Z" transform="translate(-185.446 -357.055)" fill="red"/>
        <path id="Path_8069" data-name="Path 8069" d="M220.487,375.3h7.656v-2.518H223.21v-5.344h3.982v-2.518H223.21V359.83h4.933v-2.518h-7.656Z" transform="translate(-189.501 -357.055)" fill="red"/>
        <path id="Path_8070" data-name="Path 8070" d="M242.326,363.144V361.86c0-2.954-1.594-4.548-4.522-4.548h-3.931V375.3H236.6v-7.6h1.259l2.158,7.6h2.878l-2.493-8.2A4.2,4.2,0,0,0,242.326,363.144Zm-2.723-.18c0,1.515-.591,2.209-1.9,2.209h-1.1V359.83h1.1c1.31,0,1.9.694,1.9,2.21Z" transform="translate(-193.176 -357.055)" fill="red"/>
        <path id="Path_8071" data-name="Path 8071" d="M260.985,366.973h-.052l-2.132-9.66H255.23V375.3H257.8V362.811h.051l2.261,9.917h1.618l2.261-9.917h.051V375.3h2.723V357.312h-3.674Z" transform="translate(-199.04 -357.055)" fill="red"/>
        <path id="Path_8072" data-name="Path 8072" d="M279.173,356.958c-2.724,0-4.394,1.721-4.394,4.548v9.4c0,2.826,1.67,4.548,4.394,4.548s4.393-1.721,4.393-4.548v-9.4C283.566,358.679,281.9,356.958,279.173,356.958Zm1.67,13.925c0,1.336-.591,2.056-1.67,2.056s-1.671-.72-1.671-2.056v-9.351c0-1.336.591-2.056,1.671-2.056s1.67.72,1.67,2.056Z" transform="translate(-204.408 -356.958)" fill="red"/>
        <path id="Path_8073" data-name="Path 8073" d="M296.835,368.026h-.051l-3.212-10.714H290.54V375.3h2.569V363.376h.051l3.571,11.921H299.4V357.312h-2.569Z" transform="translate(-208.736 -357.055)" fill="red"/>
        <path id="Path_8074" data-name="Path 8074" d="M310.7,357.312H306.8V375.3H310.7c2.929,0,4.521-1.592,4.521-4.547V361.86C315.224,358.906,313.631,357.312,310.7,357.312Zm1.8,13.257c0,1.516-.591,2.21-1.9,2.21H309.52V359.83H310.6c1.311,0,1.9.694,1.9,2.21Z" transform="translate(-213.199 -357.055)" fill="red"/>
        <path id="Path_8075" data-name="Path 8075" d="M323.648,357.312,320.54,375.3h2.723l.591-4.084h3.005l.591,4.084h2.775l-3.108-17.984Zm.566,11.433,1.1-7.579h.078l1.1,7.579Z" transform="translate(-216.973 -357.055)" fill="red"/>
        <path id="Path_8076" data-name="Path 8076" d="M340.37,357.312l-2.184,6.372h-.052l-2.286-6.372h-2.878l3.777,9.84V375.3h2.723v-8.119l3.726-9.866Z" transform="translate(-220.386 -357.055)" fill="red"/>
      </g>
      <g id="Group_5862" data-name="Group 5862" transform="translate(380.611 9.852)">
        <path id="Path_8077" data-name="Path 8077" d="M184.555,328.577v-.057c1.6-.541,2.251-1.852,2.251-4.075v-.37c0-3.277-1.682-5.044-4.816-5.044h-4.217v19.946h4.445c3.248,0,5.016-1.766,5.016-5.043v-.684C187.234,330.628,186.435,329.147,184.555,328.577Zm-3.761-6.753h1.082c1.312,0,1.909.741,1.909,2.364v.656c0,1.681-.6,2.422-2.052,2.422h-.94Zm3.419,11.91c0,1.682-.655,2.451-2.108,2.451h-1.311v-6.126h1.168c1.6,0,2.251.8,2.251,2.564Z" transform="translate(-177.773 -318.746)"/>
        <path id="Path_8078" data-name="Path 8078" d="M197.173,319.031h-3.021v19.947h8.065v-2.85h-5.044Z" transform="translate(-182.27 -318.746)"/>
        <path id="Path_8079" data-name="Path 8079" d="M209.894,319.031l-3.448,19.946h3.021l.655-4.53h3.334l.655,4.53h3.078l-3.448-19.946Zm.627,12.68,1.225-8.406h.086l1.225,8.406Z" transform="translate(-185.646 -318.746)"/>
        <path id="Path_8080" data-name="Path 8080" d="M228.256,318.638c-2.935,0-4.645,1.767-4.645,4.787v10.942c0,3.021,1.71,4.787,4.645,4.787,2.963,0,4.7-1.766,4.7-4.787v-2.394l-2.907-.142v2.223c0,1.6-.6,2.308-1.71,2.308s-1.709-.712-1.709-2.022V323.454c0-1.311.6-2.024,1.709-2.024s1.71.713,1.71,2.308v1.625l2.907-.143v-1.8C232.958,320.405,231.219,318.638,228.256,318.638Z" transform="translate(-190.359 -318.638)"/>
        <path id="Path_8081" data-name="Path 8081" d="M250.067,319.031H246.9l-4.189,8.32h-.057v-8.32h-3.02v19.947h3.02v-6.155l1.312-2.564,2.963,8.72h3.22l-4.189-12.025Z" transform="translate(-194.759 -318.746)"/>
        <path id="Path_8082" data-name="Path 8082" d="M263.086,338.978h3.021v-8.72h4.274v-2.793h-4.274v-5.642h5.328v-2.793h-8.35Z" transform="translate(-201.197 -318.746)"/>
        <path id="Path_8083" data-name="Path 8083" d="M286.327,325.5v-1.425c0-3.277-1.767-5.044-5.015-5.044h-4.361v19.946h3.021v-8.434h1.4l2.394,8.434h3.191l-2.764-9.09C285.587,329.09,286.327,327.608,286.327,325.5Zm-3.021-.2c0,1.681-.655,2.451-2.109,2.451h-1.225v-5.927H281.2c1.454,0,2.109.769,2.109,2.45Z" transform="translate(-205.005 -318.746)"/>
        <rect id="Rectangle_1850" data-name="Rectangle 1850" width="3.021" height="19.947" transform="translate(84.143 0.285)"/>
        <path id="Path_8084" data-name="Path 8084" d="M306.736,319.031H302.4v19.946h4.332c3.248,0,5.016-1.766,5.016-5.043v-9.859C311.751,320.8,309.984,319.031,306.736,319.031Zm1.995,14.7c0,1.682-.656,2.451-2.109,2.451h-1.2V321.824h1.2c1.453,0,2.109.769,2.109,2.45Z" transform="translate(-211.993 -318.746)"/>
        <path id="Path_8085" data-name="Path 8085" d="M321.093,319.031l-3.448,19.946h3.021l.656-4.53h3.333l.656,4.53h3.077l-3.448-19.946Zm.627,12.68,1.225-8.406h.086l1.225,8.406Z" transform="translate(-216.178 -318.746)"/>
        <path id="Path_8086" data-name="Path 8086" d="M339.64,319.031l-2.422,7.067h-.057l-2.536-7.067h-3.191l4.188,10.914v9.033h3.021v-9l4.132-10.942Z" transform="translate(-219.964 -318.746)"/>
      </g>
    </g>
  </g>
</svg>
