<svg xmlns="http://www.w3.org/2000/svg" xmlns:xlink="http://www.w3.org/1999/xlink" width="116.02" height="43.996" viewBox="0 0 116.02 43.996">
  <defs>
    <linearGradient id="linear-gradient" x1="0.589" y1="1" x2="0.597" gradientUnits="objectBoundingBox">
      <stop offset="0" stop-color="#5107ff"/>
      <stop offset="1" stop-color="#ff3384"/>
    </linearGradient>
  </defs>
  <g id="Path_6990" data-name="Path 6990" transform="translate(2.868 48.398)" fill="url(#linear-gradient)">
    <path d="M 64.43223571777344 -7.402059555053711 C 60.61346817016602 -7.402059555053711 57.42236709594727 -8.477625846862793 54.94756698608398 -10.59887599945068 C 52.33673477172852 -12.83670997619629 51.01293563842773 -16.21764373779297 51.01293563842773 -20.64770889282227 L 51.01293563842773 -32.15235900878906 C 51.01293563842773 -32.99813842773438 51.06116104125977 -33.80545806884766 51.15740966796875 -34.57410049438477 C 50.32196426391602 -33.8759765625 49.28090286254883 -33.49372482299805 48.15206909179688 -33.49372482299805 L 39.90790176391602 -33.49372482299805 L 39.90790176391602 -32.15681076049805 L 43.46338653564453 -32.15681076049805 C 45.0911865234375 -32.15681076049805 46.49821853637695 -31.42156028747559 47.42530059814453 -30.08649253845215 C 48.14095306396484 -29.05595970153809 48.50383377075195 -27.85214233398438 48.50383377075195 -26.50856018066406 C 48.50383377075195 -25.24325942993164 48.15903472900391 -24.08449363708496 47.47900390625 -23.06447601318359 C 46.5687370300293 -21.69909286499023 45.14263534545898 -20.9471435546875 43.46338653564453 -20.9471435546875 L 39.90790176391602 -20.9471435546875 L 39.90790176391602 -12.74639320373535 C 39.90790176391602 -10.97807598114014 38.97263717651367 -9.455593109130859 37.3419189453125 -8.569326400756836 C 36.23481750488281 -7.967642784118652 34.94948577880859 -7.662542819976807 33.52163696289062 -7.662542819976807 C 32.09380340576172 -7.662542819976807 30.80846977233887 -7.967626094818115 29.70133590698242 -8.569326400756836 C 28.07061958312988 -9.455609321594238 27.13536834716797 -10.97809314727783 27.13536834716797 -12.74639320373535 L 27.13536834716797 -16.51363945007324 C 26.66446495056152 -14.0967264175415 25.66339492797852 -12.15498542785645 24.14256858825684 -10.71785926818848 C 21.99708557128906 -8.690492630004883 19.16400146484375 -7.662542819976807 15.72200202941895 -7.662542819976807 L 6.08413553237915 -7.662542819976807 C 4.522835254669189 -7.662542819976807 3.190752267837524 -8.07150936126709 2.124885559082031 -8.878059387207031 C 0.8397188186645508 -9.850625991821289 0.1320021599531174 -11.20899295806885 0.1320021599531174 -12.70299339294434 L 0.1320021599531174 -40.31414413452148 C 0.1320021599531174 -42.00540924072266 0.9624021649360657 -43.49439239501953 2.410268783569336 -44.39931106567383 C 3.470535516738892 -45.06199264526367 4.706602096557617 -45.39799118041992 6.08413553237915 -45.39799118041992 L 14.98395252227783 -45.39799118041992 C 18.62223625183105 -45.39799118041992 21.4842529296875 -44.49264144897461 23.49050140380859 -42.70707702636719 C 25.59806823730469 -40.83134460449219 26.66670227050781 -38.12739181518555 26.66670227050781 -34.67036056518555 C 26.66670227050781 -32.43762588500977 26.23458480834961 -30.50737571716309 25.3823356628418 -28.93322563171387 C 25.2453727722168 -28.68024635314941 25.09823799133301 -28.43672752380371 24.94109535217285 -28.20283126831055 C 25.23058891296387 -27.90649032592773 25.49691390991211 -27.59245681762695 25.73970222473145 -27.26095962524414 C 26.3947811126709 -26.36650657653809 26.8580322265625 -25.30701065063477 27.13536834716797 -24.06049346923828 L 27.13536834716797 -40.31414413452148 C 27.13536834716797 -42.00540924072266 27.96576881408691 -43.49439239501953 29.41363525390625 -44.39931106567383 C 30.47390174865723 -45.06199264526367 31.70996856689453 -45.39799118041992 33.08750152587891 -45.39799118041992 L 48.15206909179688 -45.39799118041992 C 49.86613464355469 -45.39799118041992 51.35760116577148 -44.55062484741211 52.24405288696289 -43.07317733764648 C 52.75804901123047 -42.21648788452148 53.06512069702148 -41.25512313842773 53.16041564941406 -40.20744323730469 C 53.66728591918945 -40.94949722290039 54.26316070556641 -41.61454772949219 54.94758605957031 -42.20119476318359 C 57.42233657836914 -44.32242584228516 60.61343383789062 -45.39799118041992 64.43223571777344 -45.39799118041992 C 68.26585388183594 -45.39799118041992 71.50885009765625 -44.42129135131836 74.07115173339844 -42.49501037597656 C 76.01426696777344 -41.03421401977539 77.31836700439453 -39.12245941162109 77.92945098876953 -36.87049102783203 L 77.92945098876953 -39.01172637939453 C 77.92945098876953 -41.5985107421875 79.03950500488281 -43.07887649536133 79.97071838378906 -43.86522674560547 C 81.15818786621094 -44.86797714233398 82.66066741943359 -45.39799118041992 84.31573486328125 -45.39799118041992 C 86.16885375976562 -45.39799118041992 87.63041687011719 -45.07587814331055 88.78392028808594 -44.41324234008789 C 89.9637451171875 -43.73546600341797 91.04183959960938 -42.49030685424805 92.17652893066406 -40.49488830566406 L 94.04042053222656 -37.23760223388672 L 95.90430450439453 -40.49488830566406 C 97.03901672363281 -42.49030685424805 98.11708831787109 -43.7354850769043 99.29690551757812 -44.41324234008789 C 100.4504013061523 -45.07587814331055 101.9119720458984 -45.39799118041992 103.7650833129883 -45.39799118041992 C 105.4201354980469 -45.39799118041992 106.9225997924805 -44.86797714233398 108.1100845336914 -43.86526107788086 C 109.0413360595703 -43.07884216308594 110.1513671875 -41.59847640991211 110.1513671875 -39.01172637939453 L 110.1513671875 -12.74639320373535 C 110.1513671875 -10.97807598114014 109.2161026000977 -9.455593109130859 107.5853881835938 -8.569326400756836 C 106.4782867431641 -7.967642784118652 105.1929550170898 -7.662542819976807 103.7650833129883 -7.662542819976807 C 102.3372497558594 -7.662542819976807 101.0519180297852 -7.967642784118652 99.94478607177734 -8.569342613220215 C 98.3140869140625 -9.455593109130859 97.37882232666016 -10.97807598114014 97.37882232666016 -12.74639320373535 L 97.37882232666016 -18.75876045227051 C 96.43479156494141 -18.03283882141113 95.26679229736328 -17.64770889282227 93.95358276367188 -17.64770889282227 C 92.71701049804688 -17.64770889282227 91.60258483886719 -18.01234817504883 90.70200347900391 -18.68651008605957 L 90.70200347900391 -12.74639320373535 C 90.70200347900391 -10.97807598114014 89.76673889160156 -9.455593109130859 88.13601684570312 -8.569326400756836 C 87.02891540527344 -7.967642784118652 85.74358367919922 -7.662542819976807 84.31573486328125 -7.662542819976807 C 82.88788604736328 -7.662542819976807 81.60255432128906 -7.967642784118652 80.49542236328125 -8.569342613220215 C 78.86471557617188 -9.455593109130859 77.92945098876953 -10.97807598114014 77.92945098876953 -12.74639320373535 L 77.92945098876953 -16.24903297424316 C 77.76569366455078 -15.62464141845703 77.55186462402344 -15.02532482147217 77.28856658935547 -14.45392608642578 C 76.58238220214844 -12.92134284973145 75.52114868164062 -11.58570957183838 74.13436889648438 -10.48414325714111 C 71.55971527099609 -8.43902587890625 68.29545593261719 -7.402059555053711 64.43223571777344 -7.402059555053711 Z M 63.98784637451172 -19.41709327697754 C 64.02825164794922 -19.39602470397949 64.23040008544922 -19.30632591247559 64.73613739013672 -19.30632591247559 C 64.97939300537109 -19.30632591247559 65.14945983886719 -19.32559204101562 65.26165771484375 -19.34613990783691 C 65.38861083984375 -19.66621589660645 65.42041015625 -19.80855751037598 65.42421722412109 -19.82686042785645 C 65.45196533203125 -19.96001815795898 65.50743865966797 -20.27819442749023 65.56881713867188 -20.91917610168457 C 65.71224975585938 -22.54608535766602 66.54535675048828 -23.90204811096191 67.91606903076172 -24.73871040344238 C 68.96273803710938 -25.37759208679199 70.26570129394531 -25.68815994262695 71.89939880371094 -25.68815994262695 C 73.90492248535156 -25.68815994262695 75.41146850585938 -25.23034286499023 76.50518798828125 -24.28857612609863 C 77.15035247802734 -23.73298072814941 77.62596130371094 -23.01343154907227 77.92945098876953 -22.13665580749512 L 77.92945098876953 -31.09751892089844 C 77.62596130371094 -30.22074508666992 77.15036010742188 -29.5012092590332 76.50521850585938 -28.94565963745117 C 75.41153717041016 -28.00386047363281 73.91915130615234 -27.54604339599609 71.94281768798828 -27.54604339599609 C 70.2861328125 -27.54604339599609 68.97022247314453 -27.85369300842285 67.91989898681641 -28.48659324645996 C 66.50631713867188 -29.33835983276367 65.66915130615234 -30.72652626037598 65.56263732910156 -32.39537811279297 L 65.55971527099609 -32.44094467163086 L 65.55820465087891 -32.4865608215332 C 65.53848266601562 -33.07808303833008 65.42970275878906 -33.33106994628906 65.39419555664062 -33.39855575561523 C 65.33359527587891 -33.42450332641602 65.13069152832031 -33.49372482299805 64.69271850585938 -33.49372482299805 C 64.22879791259766 -33.49372482299805 64.03252410888672 -33.41484451293945 63.98665237426758 -33.3927001953125 C 63.95100021362305 -33.33484649658203 63.78546905517578 -33.01870346069336 63.78546905517578 -32.15235900878906 L 63.78546905517578 -20.64770889282227 C 63.78546905517578 -19.77274513244629 63.9561767578125 -19.46623420715332 63.98784637451172 -19.41709327697754 Z M 12.86113548278809 -19.56681060791016 L 14.20251846313477 -19.56681060791016 C 14.37452793121338 -19.56681060791016 14.48980236053467 -19.58124923706055 14.56031036376953 -19.59488677978516 C 14.60511875152588 -19.72501564025879 14.67561912536621 -20.01632881164551 14.67561912536621 -20.56087684631348 L 14.67561912536621 -21.2554931640625 C 14.67561912536621 -21.80003929138184 14.60511875152588 -22.09135246276855 14.56031036376953 -22.22148323059082 C 14.48980236053467 -22.2351188659668 14.37452793121338 -22.24955940246582 14.20251846313477 -22.24955940246582 L 12.86113548278809 -22.24955940246582 L 12.86113548278809 -19.56681060791016 Z M 12.86113548278809 -33.45920944213867 L 13.89416217803955 -33.45920944213867 C 13.89412879943848 -33.47107696533203 13.89396381378174 -33.48259735107422 13.89367580413818 -33.49372482299805 L 12.86113548278809 -33.49372482299805 L 12.86113548278809 -33.45920944213867 Z" stroke="none"/>
    <path d="M 64.43222808837891 -10.40206623077393 C 67.61590576171875 -10.40206623077393 70.22796630859375 -11.21244621276855 72.26842498779297 -12.83322620391846 C 74.30884552001953 -14.45400619506836 75.32906341552734 -16.66810607910156 75.32906341552734 -19.47552680969238 C 75.32906341552734 -20.72006607055664 75.06858825683594 -21.56662559509277 74.54764556884766 -22.01524543762207 C 74.02666473388672 -22.46384620666504 73.14392852783203 -22.68814659118652 71.89940643310547 -22.68814659118652 C 69.78658294677734 -22.68814659118652 68.67230224609375 -22.00800704956055 68.55652618408203 -20.64770698547363 C 68.49864196777344 -20.0399055480957 68.43352508544922 -19.5623664855957 68.36118316650391 -19.21504592895508 C 68.28882598876953 -18.86774635314941 68.13686370849609 -18.42636680603027 67.90532684326172 -17.89092636108398 C 67.67378234863281 -17.3554859161377 67.29030609130859 -16.95754623413086 66.75486755371094 -16.69704627990723 C 66.21942901611328 -16.43656539916992 65.54652404785156 -16.30632591247559 64.73612213134766 -16.30632591247559 C 62.10236358642578 -16.30632591247559 60.78548431396484 -17.75344657897949 60.78548431396484 -20.64770698547363 L 60.78548431396484 -32.15234756469727 C 60.78548431396484 -35.04660797119141 62.08788681030273 -36.49372482299805 64.69272613525391 -36.49372482299805 C 67.1817626953125 -36.49372482299805 68.46970367431641 -35.19132614135742 68.55652618408203 -32.58648681640625 C 68.64336395263672 -31.22618675231934 69.77212524414062 -30.54604721069336 71.94280242919922 -30.54604721069336 C 73.15838623046875 -30.54604721069336 74.02666473388672 -30.77034568786621 74.54764556884766 -31.21894645690918 C 75.06858825683594 -31.66756629943848 75.32906341552734 -32.51412582397461 75.32906341552734 -33.7586669921875 C 75.32906341552734 -36.4503059387207 74.30884552001953 -38.56310653686523 72.26842498779297 -40.09706497192383 C 70.22796630859375 -41.63102722167969 67.61590576171875 -42.39798736572266 64.43222808837891 -42.39798736572266 C 61.33536529541016 -42.39798736572266 58.82462692260742 -41.57314682006836 56.89994430541992 -39.92340469360352 C 54.97526550292969 -38.27368545532227 54.01292419433594 -35.68334579467773 54.01292419433594 -32.15234756469727 L 54.01292419433594 -20.64770698547363 C 54.01292419433594 -17.11672592163086 54.97526550292969 -14.52636623382568 56.89994430541992 -12.87664604187012 C 58.82462692260742 -11.22692584991455 61.33536529541016 -10.40206623077393 64.43222808837891 -10.40206623077393 M 103.7650833129883 -10.66254615783691 C 104.6912689208984 -10.66254615783691 105.4871826171875 -10.84342670440674 106.1528472900391 -11.2052059173584 C 106.8185272216797 -11.56698608398438 107.1513671875 -12.08072662353516 107.1513671875 -12.74640655517578 L 107.1513671875 -39.01172637939453 C 107.1513671875 -40.16942596435547 106.8257675170898 -41.02322769165039 106.1745681762695 -41.57314682006836 C 105.5233688354492 -42.123046875 104.7202072143555 -42.39798736572266 103.7650833129883 -42.39798736572266 C 102.4626846313477 -42.39798736572266 101.4714050292969 -42.2026252746582 100.7912445068359 -41.81190490722656 C 100.1111068725586 -41.42118453979492 99.35136413574219 -40.48778533935547 98.51204681396484 -39.01172637939453 L 94.0404052734375 -31.19724655151367 L 89.56880187988281 -39.01172637939453 C 88.72946929931641 -40.48778533935547 87.9697265625 -41.42118453979492 87.28956604003906 -41.81190490722656 C 86.60942840576172 -42.2026252746582 85.61812591552734 -42.39798736572266 84.31572723388672 -42.39798736572266 C 83.36062622070312 -42.39798736572266 82.55746459960938 -42.123046875 81.90626525878906 -41.57314682006836 C 81.25506591796875 -41.02322769165039 80.92946624755859 -40.16942596435547 80.92946624755859 -39.01172637939453 L 80.92946624755859 -12.74640655517578 C 80.92946624755859 -12.08072662353516 81.26230621337891 -11.56698608398438 81.92798614501953 -11.2052059173584 C 82.59364318847656 -10.84342670440674 83.38956451416016 -10.66254615783691 84.31572723388672 -10.66254615783691 C 85.24188232421875 -10.66254615783691 86.03780364990234 -10.84342670440674 86.70348358154297 -11.2052059173584 C 87.36916351318359 -11.56698608398438 87.70200347900391 -12.08072662353516 87.70200347900391 -12.74640655517578 L 87.70200347900391 -29.46070671081543 L 91.82632446289062 -21.90670585632324 C 92.26044464111328 -21.0673656463623 92.96954345703125 -20.64770698547363 93.95358276367188 -20.64770698547363 C 94.96656799316406 -20.64770698547363 95.71908569335938 -21.0673656463623 96.21110534667969 -21.90670585632324 L 100.3788223266602 -29.02656555175781 L 100.3788223266602 -12.74640655517578 C 100.3788223266602 -12.08072662353516 100.7116622924805 -11.56698608398438 101.3773422241211 -11.2052059173584 C 102.0430221557617 -10.84342670440674 102.8389434814453 -10.66254615783691 103.7650833129883 -10.66254615783691 M 33.52164459228516 -10.66254615783691 C 34.44780731201172 -10.66254615783691 35.24370574951172 -10.84342670440674 35.90938568115234 -11.2052059173584 C 36.57506561279297 -11.56698608398438 36.90790557861328 -12.08072662353516 36.90790557861328 -12.74640655517578 L 36.90790557861328 -23.94714546203613 L 43.46338653564453 -23.94714546203613 C 44.12906646728516 -23.94714546203613 44.63556671142578 -24.20762634277344 44.98286437988281 -24.72858619689941 C 45.33018493652344 -25.24956703186035 45.50382614135742 -25.84288597106934 45.50382614135742 -26.50856590270996 C 45.50382614135742 -27.23212623596191 45.32294464111328 -27.85438537597656 44.96116638183594 -28.37534713745117 C 44.59938430786133 -28.89632606506348 44.10012435913086 -29.15680694580078 43.46338653564453 -29.15680694580078 L 36.90790557861328 -29.15680694580078 L 36.90790557861328 -36.49372482299805 L 48.15206527709961 -36.49372482299805 C 48.7888069152832 -36.49372482299805 49.28806686401367 -36.78314590454102 49.64984512329102 -37.36200714111328 C 50.01162719726562 -37.94084548950195 50.19252395629883 -38.64994812011719 50.19252395629883 -39.48926544189453 C 50.19252395629883 -40.27072525024414 50.01886367797852 -40.95086669921875 49.67154693603516 -41.52972793579102 C 49.32424545288086 -42.10856628417969 48.81774520874023 -42.39798736572266 48.15206527709961 -42.39798736572266 L 33.08748626708984 -42.39798736572266 C 32.27710723876953 -42.39798736572266 31.58248519897461 -42.21710586547852 31.0036449432373 -41.85532760620117 C 30.42478561401367 -41.49354553222656 30.1353645324707 -40.97980499267578 30.1353645324707 -40.31414794921875 L 30.1353645324707 -12.74640655517578 C 30.1353645324707 -12.08072662353516 30.46820640563965 -11.56698608398438 31.13388633728027 -11.2052059173584 C 31.7995662689209 -10.84342670440674 32.59546661376953 -10.66254615783691 33.52164459228516 -10.66254615783691 M 15.72198581695557 -10.66254615783691 C 18.38470458984375 -10.66254615783691 20.50474548339844 -11.40780639648438 22.08210563659668 -12.89834594726562 C 23.65946578979492 -14.38888645172119 24.44816589355469 -16.75494575500488 24.44816589355469 -19.99650573730469 L 24.44816589355469 -20.9081859588623 C 24.44816589355469 -22.93416595458984 24.0719051361084 -24.46088600158691 23.31940460205078 -25.48834609985352 C 22.5669059753418 -26.51580619812012 21.45260620117188 -27.30448722839355 19.9765453338623 -27.85438537597656 C 22.4366455078125 -28.92526626586914 23.66670608520508 -31.19724655151367 23.66670608520508 -34.67034530639648 C 23.66670608520508 -39.82210540771484 20.77246475219727 -42.39798736572266 14.98396587371826 -42.39798736572266 L 6.084145545959473 -42.39798736572266 C 5.273745536804199 -42.39798736572266 4.57912540435791 -42.21710586547852 4.000285625457764 -41.85532760620117 C 3.421425580978394 -41.49354553222656 3.132005453109741 -40.97980499267578 3.132005453109741 -40.31414794921875 L 3.132005453109741 -12.70298671722412 C 3.132005453109741 -12.15308666229248 3.399725437164307 -11.67552661895752 3.935165405273438 -11.27032661437988 C 4.470585346221924 -10.86514663696289 5.186925411224365 -10.66254615783691 6.084145545959473 -10.66254615783691 L 15.72198581695557 -10.66254615783691 M 9.86114501953125 -25.24956703186035 L 14.20250511169434 -25.24956703186035 C 16.51790618896484 -25.24956703186035 17.67560577392578 -23.9182071685791 17.67560577392578 -21.25550651550293 L 17.67560577392578 -20.56086540222168 C 17.67560577392578 -17.89816665649414 16.51790618896484 -16.56680679321289 14.20250511169434 -16.56680679321289 L 9.86114501953125 -16.56680679321289 L 9.86114501953125 -25.24956703186035 M 9.86114501953125 -36.49372482299805 L 14.41958522796631 -36.49372482299805 C 15.20102500915527 -36.49372482299805 15.80882549285889 -36.18982696533203 16.24296569824219 -35.58202743530273 C 16.67708587646484 -34.97424697875977 16.8941650390625 -34.26516723632812 16.8941650390625 -33.45476531982422 C 16.8941650390625 -32.64436721801758 16.67708587646484 -31.94252586364746 16.24296569824219 -31.34918594360352 C 15.80882549285889 -30.75586700439453 15.20102500915527 -30.45920562744141 14.41958522796631 -30.45922660827637 L 9.86114501953125 -30.45922660827637 L 9.86114501953125 -36.49372482299805 M 64.43222808837891 -4.402066230773926 C 59.8770866394043 -4.402066230773926 56.02910614013672 -5.720626354217529 52.99520492553711 -8.32110595703125 C 49.95293426513672 -10.92875385284424 48.29073715209961 -14.64883422851562 48.04489898681641 -19.39141845703125 C 46.74417877197266 -18.45623779296875 45.16484069824219 -17.94714546203613 43.46338653564453 -17.94714546203613 L 42.90790557861328 -17.94714546203613 L 42.90790557861328 -12.74640655517578 C 42.90790557861328 -9.88698673248291 41.36268615722656 -7.340086460113525 38.77444458007812 -5.933446407318115 C 37.22274398803711 -5.090146541595459 35.4554443359375 -4.662546157836914 33.52164459228516 -4.662546157836914 C 31.58782577514648 -4.662546157836914 29.82052612304688 -5.090146541595459 28.26882553100586 -5.933446407318115 C 27.24152374267578 -6.491757869720459 26.3785285949707 -7.22971773147583 25.71125984191895 -8.095541954040527 C 23.77018737792969 -6.437232494354248 20.56164360046387 -4.662546157836914 15.72198581695557 -4.662546157836914 L 6.084145545959473 -4.662546157836914 C 3.306905508041382 -4.662546157836914 1.413685441017151 -5.654086112976074 0.3145254850387573 -6.485886096954346 C -1.708014488220215 -8.01646614074707 -2.867994546890259 -10.28250598907471 -2.867994546890259 -12.70298671722412 L -2.867994546890259 -40.31414794921875 C -2.867994546890259 -43.06212615966797 -1.523654460906982 -45.47838592529297 0.8203454613685608 -46.9433479309082 C 2.364665508270264 -47.90856552124023 4.135685443878174 -48.39798736572266 6.084145545959473 -48.39798736572266 L 14.98396587371826 -48.39798736572266 C 19.42273712158203 -48.39798736572266 23.03769874572754 -47.13423538208008 25.56988525390625 -44.84883117675781 C 26.15781021118164 -45.66568756103516 26.91580581665039 -46.37592315673828 27.82370567321777 -46.9433479309082 C 29.3680248260498 -47.90856552124023 31.13904571533203 -48.39798736572266 33.08748626708984 -48.39798736572266 L 48.15206527709961 -48.39798736572266 C 50.60577392578125 -48.39798736572266 52.7782096862793 -47.33480453491211 54.24753570556641 -45.44763565063477 C 57.06424331665039 -47.40662002563477 60.48230743408203 -48.39798736572266 64.43222808837891 -48.39798736572266 C 68.93064880371094 -48.39798736572266 72.78016662597656 -47.21872711181641 75.87386322021484 -44.89298629760742 C 76.08079528808594 -44.7374153137207 76.28227996826172 -44.57775115966797 76.47785949707031 -44.41441345214844 C 76.91184997558594 -45.06337738037109 77.43285369873047 -45.648681640625 78.03510284423828 -46.15726470947266 C 79.77106475830078 -47.62318801879883 81.94284820556641 -48.39798736572266 84.31572723388672 -48.39798736572266 C 86.70744323730469 -48.39798736572266 88.65782928466797 -47.9454460144043 90.27832794189453 -47.0145263671875 C 91.65057373046875 -46.22623825073242 92.86508178710938 -44.99931716918945 94.04008483886719 -43.2015380859375 C 95.21212005615234 -44.99567794799805 96.42815399169922 -46.22502136230469 97.80248260498047 -47.0145263671875 C 99.42304229736328 -47.94546508789062 101.373405456543 -48.39798736572266 103.7650833129883 -48.39798736572266 C 106.1379852294922 -48.39798736572266 108.3097686767578 -47.62318801879883 110.0456466674805 -46.15732574462891 C 112.0484237670898 -44.46604537963867 113.1513671875 -41.92836761474609 113.1513671875 -39.01172637939453 L 113.1513671875 -12.74640655517578 C 113.1513671875 -9.88698673248291 111.6061477661133 -7.340086460113525 109.0179061889648 -5.933446407318115 C 107.4662857055664 -5.090146541595459 105.6989440917969 -4.662546157836914 103.7650833129883 -4.662546157836914 C 101.8312835693359 -4.662546157836914 100.0639877319336 -5.090146541595459 98.51228332519531 -5.933446407318115 C 95.92404174804688 -7.340086460113525 94.37882232666016 -9.88698673248291 94.37882232666016 -12.74640655517578 L 94.37882232666016 -14.65714550018311 C 94.15505981445312 -14.64716529846191 93.92716979980469 -14.6449670791626 93.70200347900391 -14.65116596221924 L 93.70200347900391 -12.74640655517578 C 93.70200347900391 -9.88698673248291 92.15678405761719 -7.340086460113525 89.56854248046875 -5.933446407318115 C 88.016845703125 -5.090146541595459 86.24954223632812 -4.662546157836914 84.31572723388672 -4.662546157836914 C 82.38188171386719 -4.662546157836914 80.61454772949219 -5.090146541595459 79.06284332275391 -5.933486461639404 C 77.92578887939453 -6.551449298858643 76.98989105224609 -7.389702320098877 76.29801940917969 -8.377655029296875 C 76.20011901855469 -8.295801162719727 76.10099029541016 -8.215009689331055 76.00034332275391 -8.135066032409668 C 72.88190460205078 -5.658006191253662 68.98984527587891 -4.402066230773926 64.43222808837891 -4.402066230773926 Z" stroke="none" fill="#fff"/>
  </g>
</svg>
