<svg xmlns="http://www.w3.org/2000/svg" width="699.111" height="281.921" viewBox="0 0 699.111 281.921">
  <g id="Group_5793" data-name="Group 5793" transform="translate(-611.002 -166)">
    <g id="Group_5792" data-name="Group 5792" transform="translate(-10)">
      <path id="Path_5107" data-name="Path 5107" d="M699.712,253.012H341.179v84.611H654.257Z" transform="translate(566.307 50.046)" fill="#5c00e8"/>
      <path id="Path_5108" data-name="Path 5108" d="M483.877,169.762l14.9,25.943h-14.9Z" transform="translate(556.932 48.664)" fill="#ff9811"/>
      <path id="Path_5109" data-name="Path 5109" d="M330.171,169.762,314.877,195.7h15.293Z" transform="translate(568.526 48.664)" fill="#ff9811"/>
      <path id="Path_5110" data-name="Path 5110" d="M340.048,197.582v73.894H653.73l45.906-73.894Z" transform="translate(566.383 46.787)" fill="#f41106"/>
      <path id="Path_5111" data-name="Path 5111" d="M90.048,253.012H448.581v84.611H135.5Z" transform="translate(583.952 50.046)" fill="#5c00e8"/>
      <path id="Path_5112" data-name="Path 5112" d="M315.353,197.582v73.894h-179.4L90.048,197.582Z" transform="translate(583.952 46.954)" fill="#f41106"/>
      <rect id="Rectangle_1626" data-name="Rectangle 1626" width="142.382" height="187.46" transform="translate(898.521 218)" fill="#ffda01"/>
      <path id="Path_5123" data-name="Path 5123" d="M13.636-49.038H2.8V-3.344H14.093c7.18,0,10.9-3.786,10.9-10.836V-17.9c0-4.83-1.5-8.29-5.353-9.791,3.2-1.5,4.635-4.5,4.635-9.2v-1.632C24.276-45.578,21.077-49.038,13.636-49.038Zm-.457,25.131c3.264,0,4.635,1.306,4.635,5.548v3.982c0,3.394-1.306,4.5-3.721,4.5H9.98V-23.906Zm.261-18.6c2.546,0,3.655,1.436,3.655,4.7v2.546c0,3.655-1.632,4.83-4.308,4.83H9.98V-42.51ZM30.608-3.344h19V-9.872H37.788V-49.038h-7.18ZM69.969-49.038H59.46L52.149-3.344h6.593l1.24-8.29h8.812l1.24,8.29H77.28Zm-5.614,8.094,3.46,23.108H60.9ZM95.884-20.382v6.528c0,3.264-1.436,4.439-3.721,4.439s-3.721-1.175-3.721-4.439V-38.528c0-3.264,1.436-4.5,3.721-4.5s3.721,1.24,3.721,4.5v4.9h6.789v-4.439c0-7.311-3.655-11.489-10.705-11.489S81.262-45.382,81.262-38.071v23.761C81.262-7,84.918-2.822,91.967-2.822S102.673-7,102.673-14.311v-6.071ZM124.736-3.344h7.376l-9.987-25.327,9.987-20.366h-7.18l-9.4,19.909V-49.038h-7.18V-3.344h7.18V-17.379l2.219-4.178Z" transform="translate(745.472 307.151)" fill="#fff"/>
      <path id="Path_5122" data-name="Path 5122" d="M11.264-43.433H2.418V-2.962h5.55V-31.581L12.709-2.962h6.013l4.394-29.024V-2.962h6.013V-43.433H20.283L15.947-14.7Zm31.221,9.308c0-2.891,1.272-3.989,3.3-3.989s3.3,1.1,3.3,3.989v21.854c0,2.891-1.272,3.989-3.3,3.989s-3.3-1.1-3.3-3.989Zm-6.36,21.45C36.125-6.2,39.536-2.5,45.78-2.5s9.655-3.7,9.655-10.176V-33.72c0-6.475-3.411-10.176-9.655-10.176s-9.655,3.7-9.655,10.176ZM76.018-2.962h6.533V-43.433H76.885v24.225L70.352-43.433H62.373V-2.962H68.1V-32.275Zm13.991,0h10.06c6.36,0,9.482-3.527,9.482-10V-33.431c0-6.475-3.122-10-9.482-10H90.009Zm9.944-34.69c2.024,0,3.238,1.041,3.238,3.931v21.045c0,2.891-1.214,3.931-3.238,3.931H96.369V-37.652Zm30.585-5.782H121.23L114.755-2.962h5.839l1.1-7.343H129.5l1.1,7.343h6.418Zm-4.972,7.169L128.631-15.8H122.5Zm20.409,33.3h6.36V-16.376l8.036-27.058H154.3L149.444-24.99l-4.857-18.443h-6.649l8.036,27.058Z" transform="translate(1055.856 377.328)" fill="#f2f2f2"/>
      <path id="Path_5124" data-name="Path 5124" d="M8.84-37.618H19.3V-43.4H2.48V-2.929H8.84V-19.638h8.21v-5.782H8.84ZM45.033-2.929a11.919,11.919,0,0,1-.694-4.914v-6.244c0-4.221-1.041-7.285-4.221-8.615,2.833-1.33,4.163-4.047,4.163-8.21v-3.18c0-6.244-2.833-9.308-9.424-9.308h-9.6V-2.929h6.36V-19.406h2.2c2.891,0,4.163,1.388,4.163,5.146V-7.9c0,3.3.231,3.931.578,4.972ZM34.684-37.618c2.255,0,3.238,1.272,3.238,4.163v3.989c0,3.238-1.445,4.278-3.816,4.278H31.619v-12.43ZM51.392-2.929h6.36V-43.4h-6.36Zm13.876,0h10.06c6.36,0,9.482-3.527,9.482-10V-33.4c0-6.475-3.122-10-9.482-10H65.268Zm9.944-34.69c2.024,0,3.238,1.041,3.238,3.931v21.045c0,2.891-1.214,3.931-3.238,3.931H71.628V-37.618ZM105.8-43.4H96.489L90.014-2.929h5.839l1.1-7.343h7.805l1.1,7.343h6.418Zm-4.972,7.169,3.064,20.467H97.761Zm20.409,33.3h6.36V-16.342L135.63-43.4H129.56L124.7-24.957,119.847-43.4H113.2l8.036,27.058Z" transform="translate(745.792 377.295)" fill="#f2f2f2"/>
      <path id="Path_5121" data-name="Path 5121" d="M16.792-20.382v6.528c0,3.264-1.436,4.439-3.721,4.439S9.35-10.59,9.35-13.854V-38.528c0-3.264,1.436-4.5,3.721-4.5s3.721,1.24,3.721,4.5v4.9h6.789v-4.439c0-7.311-3.655-11.489-10.705-11.489S2.17-45.382,2.17-38.071v23.761C2.17-7,5.825-2.822,12.875-2.822S23.581-7,23.581-14.311v-6.071ZM35.265-3.344h7.18V-18.489l9.073-30.549H44.665L39.182-28.215,33.7-49.038H26.192l9.073,30.549ZM66.532-49.038H55.7V-3.344H66.989c7.18,0,10.9-3.786,10.9-10.836V-17.9c0-4.83-1.5-8.29-5.353-9.791,3.2-1.5,4.635-4.5,4.635-9.2v-1.632C77.172-45.578,73.974-49.038,66.532-49.038Zm-.457,25.131c3.264,0,4.635,1.306,4.635,5.548v3.982c0,3.394-1.306,4.5-3.721,4.5H62.877V-23.906Zm.261-18.6c2.546,0,3.655,1.436,3.655,4.7v2.546c0,3.655-1.632,4.83-4.308,4.83H62.877V-42.51Zm24.348,0h12.4v-6.528H83.5V-3.344h19.583V-9.872h-12.4V-23.254h9.857v-6.528H90.685ZM131.156-3.344a13.457,13.457,0,0,1-.783-5.548v-7.05c0-4.765-1.175-8.225-4.765-9.726,3.2-1.5,4.7-4.569,4.7-9.269v-3.59c0-7.05-3.2-10.509-10.64-10.509H108.831V-3.344h7.18v-18.6h2.481c3.264,0,4.7,1.567,4.7,5.81v7.18c0,3.721.261,4.439.653,5.614ZM119.471-42.51c2.546,0,3.655,1.436,3.655,4.7v4.5c0,3.655-1.632,4.83-4.308,4.83h-2.807V-42.51Z" transform="translate(1056.104 307.152)" fill="#fff"/>
      <g id="Group_5790" data-name="Group 5790" transform="translate(0 -9.172)">
        <path id="Path_8087" data-name="Path 8087" d="M38.3-15.207a2.863,2.863,0,0,1-.892,2.109,2.91,2.91,0,0,1-2.119.882,2.9,2.9,0,0,1-2.129-.882,2.878,2.878,0,0,1-.882-2.109v-6.865a2.9,2.9,0,0,1,.882-2.129,2.9,2.9,0,0,1,2.129-.882,2.885,2.885,0,0,1,2.129.892,2.91,2.91,0,0,1,.882,2.119Zm-4.161-.038a1.056,1.056,0,0,0,.316.777,1.056,1.056,0,0,0,.777.316,1.056,1.056,0,0,0,.777-.316,1.056,1.056,0,0,0,.316-.777V-22.11a1.056,1.056,0,0,0-.316-.777,1.056,1.056,0,0,0-.777-.316,1.056,1.056,0,0,0-.777.316,1.056,1.056,0,0,0-.316.777Zm11.832,2.512a2.854,2.854,0,0,1,2.119.892,2.926,2.926,0,0,1,.873,2.119v6.865a2.838,2.838,0,0,1-.882,2.109,2.911,2.911,0,0,1-2.109.863,2.917,2.917,0,0,1-2.129-.873,2.847,2.847,0,0,1-.882-2.1V-9.722a2.9,2.9,0,0,1,.882-2.129A2.9,2.9,0,0,1,45.975-12.733Zm1.036,2.972a1.056,1.056,0,0,0-.316-.777,1.056,1.056,0,0,0-.777-.316,1.056,1.056,0,0,0-.777.316,1.056,1.056,0,0,0-.316.777V-2.9a1.056,1.056,0,0,0,.316.777,1.056,1.056,0,0,0,.777.316,1.056,1.056,0,0,0,.777-.316,1.056,1.056,0,0,0,.316-.777ZM35.562.4H33.434L45.709-25.025h2.107Z" transform="translate(968.52 356.393)"/>
        <path id="Path_6958" data-name="Path 6958" d="M5.688.219A4.508,4.508,0,0,1,2.375-1.141a4.489,4.489,0,0,1-1.359-3.3V-19.578H3.906V-4.469a1.615,1.615,0,0,0,.5,1.2,1.653,1.653,0,0,0,1.2.492,1.627,1.627,0,0,0,1.2-.492,1.627,1.627,0,0,0,.492-1.2V-19.578h3.078V-4.437A4.449,4.449,0,0,1,9-1.125,4.568,4.568,0,0,1,5.688.219Zm18.085-19.8a4.5,4.5,0,0,1,3.438,1.359A4.715,4.715,0,0,1,28.4-14.906v2.844A4.555,4.555,0,0,1,27.046-8.75a4.42,4.42,0,0,1-3.273,1.375h-1.7V0H19.116V-19.578Zm1.766,4.719a1.685,1.685,0,0,0-.461-1.234,1.643,1.643,0,0,0-1.227-.469H22.069V-10.3h1.781a1.615,1.615,0,0,0,1.2-.5,1.653,1.653,0,0,0,.492-1.2Zm23.482-1.75H45.88v-2.969H55.1v2.969H51.974V0H49.021Zm19.491-3.219a4.508,4.508,0,0,1,3.32,1.375A4.528,4.528,0,0,1,73.2-15.141V-4.453a4.508,4.508,0,0,1-1.375,3.32A4.528,4.528,0,0,1,68.512.234,4.482,4.482,0,0,1,65.2-1.141,4.541,4.541,0,0,1,63.84-4.453V-15.141a4.508,4.508,0,0,1,1.375-3.32A4.51,4.51,0,0,1,68.512-19.828ZM70.121-15.2a1.627,1.627,0,0,0-.492-1.2,1.627,1.627,0,0,0-1.2-.492,1.653,1.653,0,0,0-1.2.492,1.615,1.615,0,0,0-.5,1.2V-4.484a1.615,1.615,0,0,0,.5,1.2,1.653,1.653,0,0,0,1.2.492,1.627,1.627,0,0,0,1.2-.492,1.627,1.627,0,0,0,.492-1.2Z" transform="translate(921.984 273)"/>
        <path id="Path_6959" data-name="Path 6959" d="M-14.845-19.828a4.508,4.508,0,0,1,3.32,1.375,4.528,4.528,0,0,1,1.367,3.313V-4.453a4.507,4.507,0,0,1-1.375,3.32A4.528,4.528,0,0,1-14.845.234a4.482,4.482,0,0,1-3.312-1.375,4.541,4.541,0,0,1-1.359-3.312V-15.141a4.507,4.507,0,0,1,1.375-3.32A4.51,4.51,0,0,1-14.845-19.828Zm1.609,4.625a1.627,1.627,0,0,0-.492-1.2,1.627,1.627,0,0,0-1.2-.492,1.653,1.653,0,0,0-1.2.492,1.615,1.615,0,0,0-.5,1.2V-4.484a1.615,1.615,0,0,0,.5,1.2,1.653,1.653,0,0,0,1.2.492,1.627,1.627,0,0,0,1.2-.492,1.627,1.627,0,0,0,.492-1.2ZM-.773,0H-3.727V-19.594H4.68v2.969H-.773v5.344H3.211v2.969H-.773ZM14.064,0H11.111V-19.594h8.406v2.969H14.064v5.344h3.984v2.969H14.064Z" transform="translate(959.518 388)"/>
        <path id="Path_8088" data-name="Path 8088" d="M3.3-70v10H25.2L9.1,0h11L36.3-60.4V-70ZM53.7-53.9c0-5,2.2-6.9,5.7-6.9s5.7,1.9,5.7,6.9v37.8c0,5-2.2,6.9-5.7,6.9s-5.7-1.9-5.7-6.9Zm-11,37.1C42.7-5.6,48.6.8,59.4.8S76.1-5.6,76.1-16.8V-53.2c0-11.2-5.9-17.6-16.7-17.6S42.7-64.4,42.7-53.2Z" transform="translate(920 356.172)"/>
      </g>
    </g>
    <g id="Group_5791" data-name="Group 5791" transform="translate(15451 2091)">
      <g id="Group_5254" data-name="Group 5254" transform="translate(-14731.893 -1909.123)" opacity="0.3">
        <path id="Path_6074" data-name="Path 6074" d="M32.142,70.572l44.97,16.591-24.251-19Z" transform="translate(-33.801 -66.014) rotate(8)" fill="#1dded5"/>
      </g>
      <g id="Group_5257" data-name="Group 5257" transform="translate(-14803.996 -1682.603)" opacity="0.3">
        <path id="Path_6077" data-name="Path 6077" d="M57.879,233.062l10.9-11.143L80.21,210.235l11.123-11.369-34.852,16.9Z" transform="translate(-92.483 -225.866)" fill="red"/>
      </g>
      <g id="Group_5268" data-name="Group 5268" transform="translate(-14582.67 -1653.079) rotate(-90)" opacity="0.3">
        <path id="Path_6077-2" data-name="Path 6077" d="M57.879,233.062l33.456-34.2-34.852,16.9Z" transform="translate(-66.483 -225.866)" fill="#ffda01"/>
      </g>
      <g id="Group_5256" data-name="Group 5256" transform="translate(-14450.642 -1904.001)" opacity="0.3">
        <path id="Path_6076" data-name="Path 6076" d="M139.01,18.6l26.433,42.318L160.358,27.1Z" transform="translate(-106.01 -39.599)" fill="#ffa800"/>
      </g>
      <g id="Group_5255" data-name="Group 5255" transform="translate(-14186.729 -1834.566)" opacity="0.3">
        <path id="Path_6075" data-name="Path 6075" d="M341.847,53.15,314,73.544l44.837-15.5Z" transform="translate(-312.995 -77.15)" fill="red"/>
      </g>
      <g id="Group_5258" data-name="Group 5258" transform="translate(-14250.386 -1691.915)" opacity="0.3">
        <path id="Path_6078" data-name="Path 6078" d="M332.954,217.107,309.39,196.169,329.672,239.2Z" transform="translate(-269.39 -197.169)" fill="#27d406"/>
      </g>
    </g>
  </g>
</svg>
