<svg xmlns="http://www.w3.org/2000/svg" xmlns:xlink="http://www.w3.org/1999/xlink" width="638.508" height="255.47" viewBox="0 0 638.508 255.47">
  <defs>
    <filter id="Path_16409" x="48.271" y="55.8" width="232.098" height="114" filterUnits="userSpaceOnUse">
      <feOffset dy="6" input="SourceAlpha"/>
      <feGaussianBlur stdDeviation="5.5" result="blur"/>
      <feFlood flood-color="red" flood-opacity="0.161"/>
      <feComposite operator="in" in2="blur"/>
      <feComposite in="SourceGraphic"/>
    </filter>
  </defs>
  <g id="Group_11772" data-name="Group 11772" transform="translate(-378 -309.7)">
    <path id="Path_16836" data-name="Path 16836" d="M-306.111-55.38h-8.814c-2.5,0-3.354.858-3.354,3.276V-3.276c0,2.418.858,3.276,3.354,3.276h30.888c2.418,0,3.276-.858,3.276-3.276v-7.1c0-2.5-.858-3.276-3.276-3.276h-18.8V-52.1C-302.835-54.522-303.615-55.38-306.111-55.38ZM-224.835-3.2l-18.018-49.608c-.78-2.028-1.794-2.574-4.056-2.574H-255.8c-2.262,0-3.276.468-4.056,2.73L-277.8-3.2c-.78,2.106-.312,3.2,2.106,3.2h8.19c3.9,0,4.914-.858,5.694-3.276l1.794-5.616h16.848l1.794,5.616C-240.747-.858-239.577,0-235.521,0h8.424C-224.757,0-224.055-1.092-224.835-3.2Zm-24.726-27.066,2.886,9.126h-9.75l2.886-9.2a41.346,41.346,0,0,0,1.482-10.842h.78A49.077,49.077,0,0,0-249.561-30.264Zm27.69-8.814c0,15.132,12.792,16.77,21.918,18.018,5.148.7,9.126,1.56,9.126,4.6,0,3.354-3.12,4.446-8.346,4.446-4.368,0-7.41-1.4-8.814-4.134-1.17-2.262-2.262-2.5-4.6-1.716l-7.332,2.652c-2.262.858-2.964,1.95-2.106,4.29,2.964,8.112,11.076,12.09,22.7,12.09,13.806,0,24.18-6.318,24.18-17.784,0-14.742-11.7-16.926-20.748-18.174-5.616-.7-10.218-1.4-10.218-4.758,0-2.73,2.106-4.056,7.41-4.056,3.588,0,6.4,1.092,7.878,4.056,1.248,2.262,2.106,2.574,4.212,1.638l7.8-3.354c2.34-.936,2.964-2.106,1.872-4.368-3.666-7.488-10.218-10.92-21.762-10.92C-213.6-56.55-221.871-49.374-221.871-39.078Zm92.82-16.3h-38.61c-2.5,0-3.276.858-3.276,3.276v7.02c0,2.5.78,3.354,3.276,3.354h11.622V-3.276c0,2.418.78,3.276,3.276,3.276h8.814c2.5,0,3.354-.858,3.354-3.276V-41.73h11.544c2.5,0,3.354-.858,3.354-3.354V-52.1C-125.7-54.522-126.555-55.38-129.051-55.38Zm66.534-.078h-8.892c-2.418,0-3.276.858-3.276,3.354v17.238H-89.817V-52.1c0-2.5-.78-3.354-3.276-3.354h-8.814c-2.5,0-3.354.858-3.354,3.354V-3.276c0,2.418.858,3.276,3.354,3.276h8.814c2.5,0,3.276-.858,3.276-3.276v-17.94h15.132v17.94c0,2.418.858,3.276,3.276,3.276h8.892c2.418,0,3.276-.858,3.276-3.276V-52.1C-59.241-54.6-60.1-55.458-62.517-55.458ZM-51.051-34.71v14.04c0,13.494,8.58,21.84,24.024,21.84,15.366,0,23.946-8.346,23.946-21.84V-34.71c0-13.494-8.58-21.84-23.946-21.84C-42.471-56.55-51.051-48.2-51.051-34.71Zm32.526-.7v15.444c0,4.914-3.12,7.488-8.5,7.488-5.46,0-8.58-2.574-8.58-7.488V-35.412c0-4.914,3.12-7.488,8.58-7.488C-21.645-42.9-18.525-40.326-18.525-35.412ZM20.241-19.656V-52.1c0-2.418-.858-3.276-3.354-3.276H8.073c-2.5,0-3.276.858-3.276,3.276v31.746C4.8-7.254,12.909,1.17,28.275,1.17c15.444,0,23.556-8.424,23.556-21.528V-52.1c0-2.418-.858-3.276-3.354-3.276H39.663c-2.5,0-3.276.858-3.276,3.276v32.448c0,4.6-2.73,7.176-8.112,7.176S20.241-15.054,20.241-19.656ZM86.463-55.38H64.233c-2.5,0-3.354.858-3.354,3.276V-3.276C60.879-.858,61.737,0,64.233,0h8.814c2.5,0,3.276-.858,3.276-3.276V-18.408h1.794c3.2,0,4.524,1.326,5.85,3.978L88.959-3.744C90.207-1.014,92,0,96.135,0h8.424c2.574,0,3.12-1.716,2.028-3.822L99.567-17.16a20.416,20.416,0,0,0-2.106-3.354c5.3-2.964,8.424-8.424,8.424-16.068C105.885-48.672,98.241-55.38,86.463-55.38ZM89.9-36.66c0,3.2-1.872,5.226-5.148,5.226H76.323v-10.3h8.424C88.1-41.73,89.9-39.78,89.9-36.66Zm38.3-2.418c0,15.132,12.792,16.77,21.918,18.018,5.148.7,9.126,1.56,9.126,4.6,0,3.354-3.12,4.446-8.346,4.446-4.368,0-7.41-1.4-8.814-4.134-1.17-2.262-2.262-2.5-4.6-1.716l-7.332,2.652c-2.262.858-2.964,1.95-2.106,4.29C131-2.808,139.113,1.17,150.735,1.17c13.806,0,24.18-6.318,24.18-17.784,0-14.742-11.7-16.926-20.748-18.174-5.616-.7-10.218-1.4-10.218-4.758,0-2.73,2.106-4.056,7.41-4.056,3.588,0,6.4,1.092,7.878,4.056,1.248,2.262,2.106,2.574,4.212,1.638l7.8-3.354c2.34-.936,2.964-2.106,1.872-4.368-3.666-7.488-10.218-10.92-21.762-10.92C136.461-56.55,128.193-49.374,128.193-39.078ZM230.295-3.2,212.277-52.806c-.78-2.028-1.794-2.574-4.056-2.574h-8.892c-2.262,0-3.276.468-4.056,2.73L177.333-3.2c-.78,2.106-.312,3.2,2.106,3.2h8.19c3.9,0,4.914-.858,5.694-3.276l1.794-5.616h16.848l1.794,5.616C214.383-.858,215.553,0,219.609,0h8.424C230.373,0,231.075-1.092,230.295-3.2ZM205.569-30.264l2.886,9.126H198.7l2.886-9.2a41.346,41.346,0,0,0,1.482-10.842h.78A49.077,49.077,0,0,0,205.569-30.264ZM248.391-55.38h-8.814c-2.5,0-3.354.858-3.354,3.276V-3.276c0,2.418.858,3.276,3.354,3.276h30.888c2.418,0,3.276-.858,3.276-3.276v-7.1c0-2.5-.858-3.276-3.276-3.276h-18.8V-52.1C251.667-54.522,250.887-55.38,248.391-55.38Zm67.86,0H283.569c-2.5,0-3.354.858-3.354,3.276V-3.276c0,2.418.858,3.276,3.354,3.276h33.384c2.418,0,3.276-.858,3.276-3.276v-7.1c0-2.5-.858-3.276-3.276-3.276H295.659v-7.488h16.458c2.5,0,3.354-.858,3.354-3.354v-7.02c0-2.418-.858-3.276-3.354-3.276H295.659V-41.73h20.592c2.5,0,3.354-.858,3.354-3.354V-52.1C319.605-54.522,318.747-55.38,316.251-55.38Z" transform="translate(696.279 564)" fill="#fff"/>
    <g id="Group_11770" data-name="Group 11770" transform="translate(16.67 40)">
      <path id="Path_16834" data-name="Path 16834" d="M27.17-92.3c-13.39,0-21.19,8.06-21.19,21.84v49.92C5.98-6.76,13.78,1.3,27.17,1.3c13.52,0,21.45-8.06,21.45-21.84V-31.46l-13.26-.65v10.14c0,7.28-2.73,10.53-7.8,10.53s-7.8-3.25-7.8-9.23V-70.33c0-5.98,2.73-9.23,7.8-9.23s7.8,3.25,7.8,10.53v7.41l13.26-.65v-8.19C48.62-84.24,40.69-92.3,27.17-92.3ZM102.83-91H88.53L77.48-58.76h-.26L65.65-91H51.09L70.2-41.21V0H83.98V-41.08Zm25.48,0H109.07V0h20.28c14.82,0,22.88-8.06,22.88-23.01v-3.12c0-11.96-3.64-18.72-12.22-21.32v-.26c7.28-2.47,10.27-8.45,10.27-18.59v-1.69C150.28-82.94,142.61-91,128.31-91Zm-.52,12.74c5.98,0,8.71,3.38,8.71,10.79v2.99c0,7.67-2.73,11.05-9.36,11.05h-4.29V-78.26Zm.39,37.57c7.28,0,10.27,3.64,10.27,11.7v5.07c0,7.67-2.99,11.18-9.62,11.18h-5.98V-40.69ZM202.28-91H163.54V0h38.74V-12.74H177.32V-39.78h20.15V-52.52H177.32V-78.26h24.96ZM259.87,0,247.26-41.47c6.37-3.64,9.75-10.4,9.75-20.02v-6.5c0-14.95-8.06-23.01-22.88-23.01H214.24V0h13.78V-38.48h6.37L245.31,0ZM233.61-78.26c6.63,0,9.62,3.51,9.62,11.18v4.68c0,7.67-2.99,11.18-9.62,11.18h-5.59V-78.26Z" transform="translate(719 362)" fill="#fff"/>
      <path id="Path_16835" data-name="Path 16835" d="M5.33-91H26.91q11.05,0,16.12,5.135T48.1-70.07v3.64q0,7.02-2.275,11.44a13.337,13.337,0,0,1-6.955,6.37v.26q10.66,3.64,10.66,18.98v7.8q0,10.53-5.525,16.055T27.82,0H5.33ZM25.22-53.95q4.29,0,6.435-2.21T33.8-63.57v-5.07q0-4.94-1.755-7.15T26.52-78H19.63v24.05ZM27.82-13q3.77,0,5.59-2.015t1.82-6.955V-29.9q0-6.24-2.145-8.645T26-40.95H19.63V-13ZM58.11-91h14.3v78H95.94V0H58.11Zm56.55,0h19.37L148.85,0h-14.3l-2.6-18.07v.26H115.7L113.1,0H99.84Zm15.6,60.84-6.37-44.98h-.26l-6.24,44.98ZM175.89,1.3q-10.27,0-15.665-5.85t-5.4-16.51V-69.94q0-10.66,5.4-16.51T175.89-92.3q10.27,0,15.665,5.85t5.395,16.51v9.62H183.43V-70.85q0-8.45-7.15-8.45t-7.15,8.45v50.83q0,8.32,7.15,8.32t7.15-8.32V-33.93h13.52v12.87q0,10.66-5.395,16.51T175.89,1.3ZM205.79-91h14.3v38.35L238.29-91h14.3L235.56-57.59,252.85,0H237.9L225.81-40.56l-5.72,11.57V0h-14.3Z" transform="translate(375 362)" fill="#fff"/>
      <g transform="matrix(1, 0, 0, 1, 361.33, 269.7)" filter="url(#Path_16409)">
        <path id="Path_16409-2" data-name="Path 16409" d="M5.913-24.138c2.43-.405,8.1-.891,9.882-1.053C11.745-15.714,8.262-5.508,8.262.486c0,3.564,1.215,6.156,6.966,6.561,0-4.86.972-10.854,3.969-21.222.243-.81,1.944-6.48,3.321-11.421C34.83-25.839,36.693-26,39.2-29.484c-5.508-.162-9.558-.891-15.147-1.3,2.592-8.181,5.1-16.119,7.29-21.3,4.779.324,9.072,1.3,11.664,1.3,3.159,0,5.994-1.458,11.178-7.209a28.611,28.611,0,0,1-8.181,1.215c-4.941,0-10.854-1.134-16.605-1.134-13.284,0-23.49,5.994-23.49,14.418,0,3.645,1.944,6.237,7.047,7.047a17.685,17.685,0,0,1-1.62-7.29c0-5.589,2.43-8.829,12.393-8.829a20.72,20.72,0,0,1,2.916.162c-3,6.156-5.994,13.77-8.829,21.546C11.664-30.7,6.318-29.079,5.913-24.138ZM39.528,1.539c2.754-3.078,8.343-14.094,11.907-24.867,2.187,1.134,4.05,2.673,4.05,5.184,0,3.807-4.293,9.963-4.293,14.418,0,3.564,2.754,5.832,6.723,5.832,7.29,0,14.094-7.614,17.253-14.661L73.71-13.932C71.685-9.315,65.124-1.944,60.021-1.944,58.968-1.944,58-2.268,58-3.807c0-3.078,3.888-8.262,3.888-12.96,0-7.047-8.748-8.91-8.748-11.016,0-.729.891-1.863.891-3.321,0-.729-.243-2.025-1.458-2.025-1.863,0-4.212,2.916-4.212,5.751a2.866,2.866,0,0,0,.81,2.187C46.089-14.823,40.5-2.835,38.07,0ZM83.673-27.54C77.6-27.54,71.6-10.935,71.6-4.779c0,3.969,2.349,7.209,7.128,7.209,6.723,0,12.8-5.508,16.605-15.066l-1.215-1.3C89.424-4.7,85.05-1.539,81.4-1.539c-2.349,0-3.645-.81-3.645-4.293,0-7.128,8.343-16.605,8.343-19.359A2.272,2.272,0,0,0,83.673-27.54ZM88.29-34.1c2.916,0,5.913-2.592,5.913-4.86s-1.539-3-3.483-3c-3,0-6.48,2.106-6.48,4.7C84.24-35.073,86.265-34.1,88.29-34.1Zm29,8.829a2.07,2.07,0,0,0,.972-1.863c0-1.863-1.539-2.592-3.969-2.592-11.34,0-23,15.876-23,24.867a6.857,6.857,0,0,0,6.885,7.29c4.779,0,10.773-5.265,15.876-12.636a29.228,29.228,0,0,0-.648,5.265c0,3.807,1.458,7.047,5.913,7.047,6.075,0,13.122-6.156,16.686-15.066l-1.539-1.3c-3.726,7.7-9.072,11.988-12.555,11.988-1.215,0-1.62-.729-1.62-3.321,0-17.334,18.387-44.712,18.387-50.3a2.355,2.355,0,0,0-2.268-2.43c-4.941,0-12.312,18.873-18.306,34.263-5.265,13.446-12.879,21.465-17.253,21.465-1.7,0-2.592-1.3-2.592-3.4,0-6.075,7.29-20.169,16.2-20.169A3.623,3.623,0,0,1,117.288-25.272ZM162.081-21.3c0-3.888-3.726-6.48-8.343-6.48-11.178,0-22.923,14.985-22.923,24.462,0,4.779,3.078,7.128,6.642,7.128,4.131,0,7.452-3.24,11.745-8.424,0,3.321,2.106,7.047,6.723,7.047,6.075,0,12.474-6.075,16.443-14.9l-1.539-1.539c-4.86,9.234-10.044,12.636-12.636,12.636-1.782,0-2.43-1.539-2.43-2.916,0-3.564,4.617-8.586,4.617-10.692,0-1.377-1.863-2.106-2.916-2.43C160.3-17.5,162.081-18.549,162.081-21.3Zm-6.156,4.05C151.794-11.745,144.1-.324,139.158-.324c-1.3,0-1.863-.729-1.863-2.592,0-7.452,9.072-21.87,16.605-21.87,2.754,0,3.4,2.025,3.4,4.212a9.246,9.246,0,0,1-.4,3c-.081,0-.243-.081-.324-.081A.826.826,0,0,0,155.925-17.253Zm40.824-4.7a18.707,18.707,0,0,0-2.592-.324c-4.779,0-4.7,6.318-5.184,7.938-3,4.779-7.209,9.8-10.692,9.8-1.863,0-2.349-1.377-2.349-3,0-4.05,3.24-12.231,5.184-14.823-.486-1.377-3.483-2.673-4.374-2.673-2.673,0-7.452,11.988-7.452,17.658,0,5.1,3.969,6.723,6.885,6.723,4.617,0,8.343-4.131,11.664-8.829-1.134,4.131-2.673,9.558-3.888,12.636-6.885,3.24-16.119,7.452-16.119,14.256,0,3.726,2.754,5.265,5.508,5.265,6.48,0,11.745-8.829,16.2-19.44,6.237-2.754,13.041-7.533,15.471-15.633l-1.377-1.134A23.334,23.334,0,0,1,190.593.162C194-8.991,196.668-19.44,196.749-21.951ZM172.53,19.683c-1.134,0-1.539-1.215-1.539-2.268,0-3.969,6.237-8.1,11.421-10.692C178.605,15.39,174.555,19.683,172.53,19.683Z" transform="translate(58.86 124.62)" fill="#fa0"/>
      </g>
      <path id="Path_16410" data-name="Path 16410" d="M64.152-56.457a10.514,10.514,0,0,0-3.564-.891c-2.025,0-2.916,1.215-4.455,3.564C52.326-48.114,38.8-25.515,33.453-9.477c0-6.642,1.539-18.144,1.539-28.755,0-16.119-3.564-20.088-9.477-20.088-7.776,0-16.686,6.8-16.686,13.689,0,3.159,1.863,7.371,5.751,7.371a26.534,26.534,0,0,1-.324-3.888c0-5.751,3-13.041,9.72-13.041,1.782,0,2.349.729,2.349,1.782a6.979,6.979,0,0,1-.729,2.673C10.368-16.362.729,3.726-.405,7.047c7.371,0,11.907-14.985,28.431-53.3,0,1.539.081,3.159.081,4.779,0,9.153-.648,20.25-.648,28.755,0,8.019.567,12.879,4.374,12.879a2.587,2.587,0,0,0,1.134-.243l.567-.162C36.612-9.315,46.089-32,53.7-42.849c-3.645,14.094-6.885,27.378-6.885,39.366,0,7.614,1.3,10.53,8.343,10.53-1.053-2.835-1.62-3.564-1.62-7.857C53.541-16.281,60.993-49.653,64.152-56.457ZM86.67-4.779c3.807,0,8.1-2.43,10.53-7.938L95.742-13.77A10.194,10.194,0,0,1,86.913-7.7a4.932,4.932,0,0,1-2.268-.486c2.916-4.455,5.346-9.72,5.346-13.77,0-3.564-1.7-6.561-6.318-6.561-5.508,0-8.1,4.131-8.667,8.586a6.406,6.406,0,0,0-2.511-.648c-4.86,0-9.72,8.667-9.72,15.552,0,3.807,1.458,7.614,6.318,7.614s9.882-3.726,13.527-8.1A13.287,13.287,0,0,0,86.67-4.779ZM79.785-7.29c-2.592,3.078-5.751,5.751-7.776,5.751s-2.754-1.539-2.754-3.726c0-4.86,3.726-12.879,5.67-13.932C75.087-14.58,76.3-10.368,79.785-7.29Zm-.243-10.53c0-4.374,2.673-7.695,4.779-7.695,1.458,0,2.268,1.134,2.268,3.564,0,3.645-2.106,8.343-4.7,12.069C80.352-11.745,79.542-15.552,79.542-17.82ZM91.368-1.134a6.334,6.334,0,0,0,5.265,2.349c4.131-6.8,11.5-19.035,18.063-19.035,1.458,0,2.835.81,2.835,3.159,0,3.483-2.268,7.452-2.268,10.692s2.268,5.589,6.48,5.589c6.48,0,11.016-6.561,14.5-14.5l-1.377-1.134C131.949-8.181,127.332-1.62,123.444-1.62c-.972,0-1.944-.648-1.944-2.349,0-3.564,3.159-7.209,3.159-12.15,0-3.807-2.187-7.533-6.8-7.533-5.508,0-11.1,5.427-15.309,11.016a33.7,33.7,0,0,0,1.377-7.209c0-1.539-1.053-2.43-2.835-2.43a6.446,6.446,0,0,0-4.212,1.944C96.876-13.365,91.611-2.268,91.368-1.134Zm66.663-24.138A2.07,2.07,0,0,0,159-27.135c0-1.863-1.539-2.592-3.969-2.592-11.34,0-23,15.876-23,24.867a6.857,6.857,0,0,0,6.885,7.29c4.779,0,10.773-5.265,15.876-12.636a29.229,29.229,0,0,0-.648,5.265c0,3.807,1.458,7.047,5.913,7.047,6.075,0,13.122-6.156,16.686-15.066l-1.539-1.3c-3.726,7.7-9.072,11.988-12.555,11.988-1.215,0-1.62-.729-1.62-3.321,0-17.334,18.387-44.712,18.387-50.3a2.355,2.355,0,0,0-2.268-2.43c-4.941,0-12.312,18.873-18.306,34.263-5.265,13.446-12.879,21.465-17.253,21.465-1.7,0-2.592-1.3-2.592-3.4,0-6.075,7.29-20.169,16.2-20.169A3.623,3.623,0,0,1,158.031-25.272ZM202.824-21.3c0-3.888-3.726-6.48-8.343-6.48-11.178,0-22.923,14.985-22.923,24.462,0,4.779,3.078,7.128,6.642,7.128,4.131,0,7.452-3.24,11.745-8.424,0,3.321,2.106,7.047,6.723,7.047,6.075,0,12.474-6.075,16.443-14.9l-1.539-1.539c-4.86,9.234-10.044,12.636-12.636,12.636-1.782,0-2.43-1.539-2.43-2.916,0-3.564,4.617-8.586,4.617-10.692,0-1.377-1.863-2.106-2.916-2.43C201.042-17.5,202.824-18.549,202.824-21.3Zm-6.156,4.05C192.537-11.745,184.842-.324,179.9-.324c-1.3,0-1.863-.729-1.863-2.592,0-7.452,9.072-21.87,16.605-21.87,2.754,0,3.4,2.025,3.4,4.212a9.246,9.246,0,0,1-.4,3c-.081,0-.243-.081-.324-.081A.826.826,0,0,0,196.668-17.253Zm40.824-4.7a18.707,18.707,0,0,0-2.592-.324c-4.779,0-4.7,6.318-5.184,7.938-3,4.779-7.209,9.8-10.692,9.8-1.863,0-2.349-1.377-2.349-3,0-4.05,3.24-12.231,5.184-14.823-.486-1.377-3.483-2.673-4.374-2.673-2.673,0-7.452,11.988-7.452,17.658,0,5.1,3.969,6.723,6.885,6.723,4.617,0,8.343-4.131,11.664-8.829-1.134,4.131-2.673,9.558-3.888,12.636-6.885,3.24-16.119,7.452-16.119,14.256,0,3.726,2.754,5.265,5.508,5.265,6.48,0,11.745-8.829,16.2-19.44,6.237-2.754,13.041-7.533,15.471-15.633l-1.377-1.134A23.334,23.334,0,0,1,231.336.162C234.738-8.991,237.411-19.44,237.492-21.951ZM213.273,19.683c-1.134,0-1.539-1.215-1.539-2.268,0-3.969,6.237-8.1,11.421-10.692C219.348,15.39,215.3,19.683,213.273,19.683Z" transform="translate(734.405 391.32)" fill="#56e2ff"/>
    </g>
  </g>
</svg>