<svg width="429" height="30" viewBox="0 0 429 30" fill="none" xmlns="http://www.w3.org/2000/svg">
<path d="M10.748 14.5C11.8105 15 12.6142 15.7361 13.1591 16.7083C13.7313 17.6805 14.0173 18.8611 14.0173 20.25V22.625C14.0173 24.7361 13.4043 26.4305 12.1783 27.7083C10.9523 28.9583 9.30403 29.5833 7.23343 29.5833H0V0.416667H6.86563C8.93623 0.416667 10.5845 1.05556 11.8105 2.33333C13.0365 3.58333 13.6495 5.26389 13.6495 7.375V8.91667C13.6495 11.5278 12.6823 13.3889 10.748 14.5ZM4.33188 4.58333V12.5H6.25262C7.2879 12.5 8.05076 12.25 8.54116 11.75C9.05883 11.2222 9.31763 10.4305 9.31763 9.375V7.29167C9.31763 6.43054 9.08604 5.76389 8.6229 5.29167C8.15976 4.81945 7.50589 4.58333 6.66129 4.58333H4.33188ZM9.68544 19.7917C9.68544 18.7361 9.42663 17.9583 8.90897 17.4583C8.41856 16.9305 7.6557 16.6667 6.62042 16.6667H4.33188V25.4167H7.02909C7.87369 25.4167 8.52756 25.1805 8.9907 24.7083C9.45384 24.2361 9.68544 23.5695 9.68544 22.7083V19.7917ZM17.959 0.416667H22.2909V25.4167H30.0148V29.5833H17.959V0.416667ZM42.3042 23.125H37.6453L36.7054 29.5833H32.3735L37.1141 0.416667H42.9172L47.6577 29.5833H43.2441L42.3042 23.125ZM41.732 18.875L39.9748 6.66667L38.2175 18.875H41.732ZM57.3799 30C55.3638 30 53.7291 29.3611 52.4759 28.0833C51.2226 26.8055 50.596 25.1389 50.596 23.0833V6.91667C50.596 4.86111 51.2226 3.19444 52.4759 1.91667C53.7291 0.638888 55.3638 0 57.3799 0C59.3958 0 61.0305 0.638888 62.284 1.91667C63.5374 3.19444 64.1638 4.86111 64.1638 6.91667V10.3333H59.9137V6.91667C59.9137 6.08333 59.6819 5.41667 59.2189 4.91667C58.756 4.41667 58.1563 4.16667 57.4207 4.16667C56.6851 4.16667 56.0858 4.41667 55.6226 4.91667C55.1595 5.41667 54.9279 6.08333 54.9279 6.91667V23.0833C54.9279 23.9167 55.1595 24.5833 55.6226 25.0833C56.0858 25.5833 56.6851 25.8333 57.4207 25.8333C58.1563 25.8333 58.756 25.5833 59.2189 25.0833C59.6819 24.5833 59.9137 23.9167 59.9137 23.0833V18.9167H64.1638V23.0833C64.1638 25.1389 63.5374 26.8055 62.284 28.0833C61.0305 29.3611 59.3958 30 57.3799 30ZM74.091 17.5833L72.4563 20.7917V29.5833H68.1244V0.416667H72.4563V12.25L78.1776 0.416667H82.8365L76.7473 12.7917L83.286 29.5833H78.6272L74.091 17.5833ZM94.7042 0.416667H106.801V4.58333H99.0361V13.125H105.166V17.2917H99.0361V29.5833H94.7042V0.416667ZM119.875 29.5833L116.728 17.5417H114.481V29.5833H110.149V0.416667H116.933C119.004 0.416667 120.652 1.05556 121.878 2.33333C123.104 3.58333 123.717 5.26389 123.717 7.375V10.5833C123.717 11.9167 123.458 13.0972 122.94 14.125C122.422 15.1528 121.687 15.9583 120.733 16.5417L124.371 29.5833H119.875ZM114.481 13.375H116.728C117.573 13.375 118.227 13.1389 118.69 12.6667C119.153 12.1945 119.385 11.5278 119.385 10.6667V7.29167C119.385 6.43054 119.153 5.76389 118.69 5.29167C118.227 4.81945 117.573 4.58333 116.728 4.58333H114.481V13.375ZM127.908 0.416667H132.24V29.5833H127.908V0.416667ZM136.967 0.416667H143.751C145.822 0.416667 147.47 1.05556 148.696 2.33333C149.922 3.58333 150.535 5.26389 150.535 7.375V22.625C150.535 24.7361 149.922 26.4305 148.696 27.7083C147.47 28.9583 145.822 29.5833 143.751 29.5833H136.967V0.416667ZM143.547 25.4167C144.392 25.4167 145.046 25.1805 145.509 24.7083C145.972 24.2361 146.203 23.5695 146.203 22.7083V7.29167C146.203 6.43054 145.972 5.76389 145.509 5.29167C145.046 4.81945 144.392 4.58333 143.547 4.58333H141.299V25.4167H143.547ZM163.388 23.125H158.729L157.789 29.5833H153.457L158.198 0.416667H164.001L168.741 29.5833H164.328L163.388 23.125ZM162.816 18.875L161.058 6.66667L159.301 18.875H162.816ZM184.717 0.416667L178.914 17.375V29.5833H174.582V17.375L168.779 0.416667H173.397L176.748 11.5417L180.181 0.416667H184.717ZM208.415 29.5833L207.189 27.5417C205.663 29.1805 203.865 30 201.795 30C199.915 30 198.375 29.375 197.177 28.125C196.005 26.875 195.419 25.0555 195.419 22.6667C195.419 21.0278 195.719 19.6111 196.318 18.4167C196.945 17.1945 197.912 15.875 199.22 14.4583L198.607 13.4583C197.926 12.2917 197.367 11.1667 196.931 10.0833C196.523 8.9722 196.318 7.80554 196.318 6.58333C196.318 4.66667 196.89 3.09722 198.035 1.875C199.206 0.625002 200.745 0 202.653 0C204.478 0 205.949 0.569442 207.066 1.70833C208.183 2.84722 208.742 4.375 208.742 6.29167C208.742 7.3472 208.605 8.26387 208.333 9.04167C208.088 9.81946 207.665 10.6389 207.066 11.5C206.467 12.3333 205.54 13.4445 204.287 14.8333L207.025 19.1667C207.271 18.3055 207.584 16.9167 207.965 15H212.297C211.534 18.5833 210.676 21.4028 209.723 23.4583L213.605 29.5833H208.415ZM202.694 3.95833C202.012 3.95833 201.468 4.19445 201.059 4.66667C200.677 5.13889 200.487 5.7778 200.487 6.58333C200.487 8 201.045 9.625 202.162 11.4583C203.088 10.5139 203.756 9.68054 204.165 8.95833C204.573 8.23613 204.778 7.44446 204.778 6.58333C204.778 5.72222 204.6 5.06945 204.247 4.625C203.892 4.18055 203.374 3.95833 202.694 3.95833ZM202.612 25.8333C203.129 25.8333 203.593 25.7222 204.001 25.5C204.41 25.25 204.805 24.8333 205.186 24.25L201.427 18.125C200.827 18.875 200.391 19.5833 200.119 20.25C199.874 20.8889 199.751 21.625 199.751 22.4583C199.751 24.7083 200.705 25.8333 202.612 25.8333ZM231.822 30C229.806 30 228.171 29.3611 226.918 28.0833C225.665 26.8055 225.038 25.1389 225.038 23.0833V6.91667C225.038 4.86111 225.665 3.19444 226.918 1.91667C228.171 0.638888 229.806 0 231.822 0C233.838 0 235.473 0.638888 236.726 1.91667C237.979 3.19444 238.606 4.86111 238.606 6.91667V10.3333H234.356V6.91667C234.356 6.08333 234.124 5.41667 233.661 4.91667C233.198 4.41667 232.599 4.16667 231.863 4.16667C231.128 4.16667 230.528 4.41667 230.065 4.91667C229.601 5.41667 229.37 6.08333 229.37 6.91667V23.0833C229.37 23.9167 229.601 24.5833 230.065 25.0833C230.528 25.5833 231.128 25.8333 231.863 25.8333C232.599 25.8333 233.198 25.5833 233.661 25.0833C234.124 24.5833 234.356 23.9167 234.356 23.0833V18.9167H238.606V23.0833C238.606 25.1389 237.979 26.8055 236.726 28.0833C235.473 29.3611 233.838 30 231.822 30ZM256.633 0.416667L250.829 17.375V29.5833H246.498V17.375L240.694 0.416667H245.312L248.664 11.5417L252.096 0.416667H256.633ZM270.556 14.5C271.618 15 272.422 15.7361 272.967 16.7083C273.539 17.6805 273.825 18.8611 273.825 20.25V22.625C273.825 24.7361 273.212 26.4305 271.986 27.7083C270.76 28.9583 269.112 29.5833 267.041 29.5833H259.808V0.416667H266.674C268.744 0.416667 270.392 1.05556 271.618 2.33333C272.844 3.58333 273.457 5.26389 273.457 7.375V8.91667C273.457 11.5278 272.49 13.3889 270.556 14.5ZM264.14 4.58333V12.5H266.061C267.096 12.5 267.859 12.25 268.349 11.75C268.866 11.2222 269.126 10.4305 269.126 9.375V7.29167C269.126 6.43054 268.894 5.76389 268.431 5.29167C267.967 4.81945 267.313 4.58333 266.469 4.58333H264.14ZM269.493 19.7917C269.493 18.7361 269.234 17.9583 268.717 17.4583C268.226 16.9305 267.463 16.6667 266.428 16.6667H264.14V25.4167H266.837C267.681 25.4167 268.335 25.1805 268.799 24.7083C269.262 24.2361 269.493 23.5695 269.493 22.7083V19.7917ZM277.767 0.416667H290.067V4.58333H282.098V12.7083H288.433V16.875H282.098V25.4167H290.067V29.5833H277.767V0.416667ZM303.417 29.5833L300.27 17.5417H298.022V29.5833H293.691V0.416667H300.474C302.545 0.416667 304.193 1.05556 305.419 2.33333C306.645 3.58333 307.258 5.26389 307.258 7.375V10.5833C307.258 11.9167 306.999 13.0972 306.482 14.125C305.964 15.1528 305.228 15.9583 304.275 16.5417L307.912 29.5833H303.417ZM298.022 13.375H300.27C301.114 13.375 301.768 13.1389 302.232 12.6667C302.695 12.1945 302.926 11.5278 302.926 10.6667V7.29167C302.926 6.43054 302.695 5.76389 302.232 5.29167C301.768 4.81945 301.114 4.58333 300.27 4.58333H298.022V13.375ZM339.329 0.416667V29.5833H334.997V9.58333L330.951 29.5833H327.927L323.881 9.58333V29.5833H319.631V0.416667H325.761L329.521 19.0417L333.117 0.416667H339.329ZM350.635 30C348.565 30 346.889 29.3611 345.608 28.0833C344.328 26.7778 343.688 25.0695 343.688 22.9583V7.04167C343.688 4.93055 344.328 3.23611 345.608 1.95833C346.889 0.652775 348.565 0 350.635 0C352.706 0 354.381 0.652775 355.662 1.95833C356.942 3.23611 357.582 4.93055 357.582 7.04167V22.9583C357.582 25.0695 356.942 26.7778 355.662 28.0833C354.381 29.3611 352.706 30 350.635 30ZM350.635 25.8333C351.452 25.8333 352.093 25.5833 352.556 25.0833C353.019 24.5833 353.25 23.875 353.25 22.9583V7.04167C353.25 6.125 353.019 5.41667 352.556 4.91667C352.093 4.41667 351.452 4.16667 350.635 4.16667C349.818 4.16667 349.178 4.41667 348.714 4.91667C348.251 5.41667 348.02 6.125 348.02 7.04167V22.9583C348.02 23.875 348.251 24.5833 348.714 25.0833C349.178 25.5833 349.818 25.8333 350.635 25.8333ZM361.975 0.416667H366.756L372.273 20V0.416667H376.524V29.5833H371.946L366.225 10.9167V29.5833H361.975V0.416667ZM381.251 0.416667H388.035C390.105 0.416667 391.753 1.05556 392.979 2.33333C394.205 3.58333 394.818 5.26389 394.818 7.375V22.625C394.818 24.7361 394.205 26.4305 392.979 27.7083C391.753 28.9583 390.105 29.5833 388.035 29.5833H381.251V0.416667ZM387.83 25.4167C388.675 25.4167 389.329 25.1805 389.792 24.7083C390.255 24.2361 390.487 23.5695 390.487 22.7083V7.29167C390.487 6.43054 390.255 5.76389 389.792 5.29167C389.329 4.81945 388.675 4.58333 387.83 4.58333H385.583V25.4167H387.83ZM407.671 23.125H403.012L402.072 29.5833H397.74L402.481 0.416667H408.284L413.025 29.5833H408.611L407.671 23.125ZM407.099 18.875L405.342 6.66667L403.584 18.875H407.099ZM429 0.416667L423.197 17.375V29.5833H418.865V17.375L413.062 0.416667H417.68L421.031 11.5417L424.464 0.416667H429Z" fill="url(#paint0_linear_375_7)"/>
<defs>
<linearGradient id="paint0_linear_375_7" x1="-96.7878" y1="17.5558" x2="-83.7318" y2="96.2734" gradientUnits="userSpaceOnUse">
<stop stop-color="#FFFA8A"/>
<stop offset="1" stop-color="#85FAC9"/>
</linearGradient>
</defs>
</svg>
