<svg xmlns="http://www.w3.org/2000/svg" xmlns:xlink="http://www.w3.org/1999/xlink" width="607.302" height="419.805" viewBox="0 0 607.302 419.805">
  <defs>
    <filter id="Path_2185" x="35.026" y="0" width="521.031" height="419.805" filterUnits="userSpaceOnUse">
      <feOffset dy="15" input="SourceAlpha"/>
      <feGaussianBlur stdDeviation="20" result="blur"/>
      <feFlood flood-color="#040885" flood-opacity="0.2"/>
      <feComposite operator="in" in2="blur"/>
      <feComposite in="SourceGraphic"/>
    </filter>
    <filter id="Path_2186" x="91.818" y="43" width="407.031" height="33.576" filterUnits="userSpaceOnUse">
      <feOffset dy="1" input="SourceAlpha"/>
      <feGaussianBlur stdDeviation="1" result="blur-2"/>
      <feFlood flood-color="#8993b9" flood-opacity="0.102"/>
      <feComposite operator="in" in2="blur-2"/>
      <feComposite in="SourceGraphic"/>
    </filter>
    <filter id="Path_2197" x="245.632" y="67.727" width="258.166" height="286.294" filterUnits="userSpaceOnUse">
      <feOffset dy="3" input="SourceAlpha"/>
      <feGaussianBlur stdDeviation="7.5" result="blur-3"/>
      <feFlood flood-color="#9596c2" flood-opacity="0.102"/>
      <feComposite operator="in" in2="blur-3"/>
      <feComposite in="SourceGraphic"/>
    </filter>
    <clipPath id="clip-path">
      <path id="Path_2325" data-name="Path 2325" d="M433.263,418.9H618.026a2.966,2.966,0,0,0,2.964-3.012V203.712a2.966,2.966,0,0,0-2.964-3.012H433.263a2.966,2.966,0,0,0-2.964,3.012v212.1A2.983,2.983,0,0,0,433.263,418.9Z" transform="translate(-430.296 -200.7)"/>
    </clipPath>
    <filter id="Path_2328" x="382.549" y="105.273" width="224.753" height="162.227" filterUnits="userSpaceOnUse">
      <feOffset dx="-5" dy="15" input="SourceAlpha"/>
      <feGaussianBlur stdDeviation="20" result="blur-4"/>
      <feFlood flood-color="#9596c2" flood-opacity="0.2"/>
      <feComposite operator="in" in2="blur-4"/>
      <feComposite in="SourceGraphic"/>
    </filter>
    <filter id="Path_2411" x="103.075" y="275.568" width="157.34" height="64.88" filterUnits="userSpaceOnUse">
      <feOffset dy="3" input="SourceAlpha"/>
      <feGaussianBlur stdDeviation="3" result="blur-5"/>
      <feFlood flood-color="#b0b1d2" flood-opacity="0.149"/>
      <feComposite operator="in" in2="blur-5"/>
      <feComposite in="SourceGraphic"/>
    </filter>
    <filter id="Path_2411-2" x="103.075" y="220.432" width="157.34" height="64.88" filterUnits="userSpaceOnUse">
      <feOffset dy="3" input="SourceAlpha"/>
      <feGaussianBlur stdDeviation="3" result="blur-6"/>
      <feFlood flood-color="#b0b1d2" flood-opacity="0.149"/>
      <feComposite operator="in" in2="blur-6"/>
      <feComposite in="SourceGraphic"/>
    </filter>
    <filter id="Path_2411-3" x="103.054" y="102.58" width="157.34" height="64.88" filterUnits="userSpaceOnUse">
      <feOffset dy="3" input="SourceAlpha"/>
      <feGaussianBlur stdDeviation="3" result="blur-7"/>
      <feFlood flood-color="#b0b1d2" flood-opacity="0.149"/>
      <feComposite operator="in" in2="blur-7"/>
      <feComposite in="SourceGraphic"/>
    </filter>
    <filter id="Rectangle_918" x="104.554" y="81.727" width="154.261" height="28.788" filterUnits="userSpaceOnUse">
      <feOffset dy="2" input="SourceAlpha"/>
      <feGaussianBlur stdDeviation="2.5" result="blur-8"/>
      <feFlood flood-color="#b0b1d2" flood-opacity="0.122"/>
      <feComposite operator="in" in2="blur-8"/>
      <feComposite in="SourceGraphic"/>
    </filter>
    <filter id="Path_2187" x="0" y="107.434" width="336.849" height="208.889" filterUnits="userSpaceOnUse">
      <feOffset dx="5" dy="20" input="SourceAlpha"/>
      <feGaussianBlur stdDeviation="25" result="blur-9"/>
      <feFlood flood-color="#7a7aaa" flood-opacity="0.2"/>
      <feComposite operator="in" in2="blur-9"/>
      <feComposite in="SourceGraphic"/>
    </filter>
    <linearGradient id="linear-gradient" x1="0.5" x2="0.5" y2="1" gradientUnits="objectBoundingBox">
      <stop offset="0" stop-color="#7b43ff"/>
      <stop offset="1" stop-color="#fc5c9c"/>
    </linearGradient>
    <linearGradient id="linear-gradient-2" x1="0.855" y1="1" x2="0.5" y2="0.094" gradientUnits="objectBoundingBox">
      <stop offset="0" stop-color="#ff63a1"/>
      <stop offset="1" stop-color="#fa8b0c"/>
    </linearGradient>
    <linearGradient id="linear-gradient-3" x1="0.251" y1="0.979" x2="0.5" y2="0.05" xlink:href="#linear-gradient-2"/>
    <linearGradient id="linear-gradient-4" x1="0.5" x2="0.5" y2="1" gradientUnits="objectBoundingBox">
      <stop offset="0" stop-color="#30cdff"/>
      <stop offset="1" stop-color="#4353ff"/>
    </linearGradient>
    <linearGradient id="linear-gradient-5" x1="0.5" x2="0.5" y2="1" gradientUnits="objectBoundingBox">
      <stop offset="0" stop-color="#fd57fd"/>
      <stop offset="1" stop-color="#6c23fa"/>
    </linearGradient>
    <linearGradient id="linear-gradient-7" x1="0.5" x2="0.5" y2="1" gradientUnits="objectBoundingBox">
      <stop offset="0" stop-color="#ff3e37"/>
      <stop offset="1" stop-color="#ffc756"/>
    </linearGradient>
  </defs>
  <g id="Group_4741" data-name="Group 4741" transform="translate(11551.542 8100.625)">
    <g id="Group_2478" data-name="Group 2478" transform="translate(-11456.724 -8055.625)">
      <g transform="matrix(1, 0, 0, 1, -94.82, -45)" filter="url(#Path_2185)">
        <path id="Path_2185-2" data-name="Path 2185" d="M555.415,420.905h-390a5.553,5.553,0,0,1-5.515-5.557V126.657a5.553,5.553,0,0,1,5.515-5.557h390a5.552,5.552,0,0,1,5.515,5.557V415.348A5.508,5.508,0,0,1,555.415,420.905Z" transform="translate(-64.87 -76.1)" fill="#fcfcff"/>
      </g>
      <g id="Group_2477" data-name="Group 2477" transform="translate(0 0)">
        <g id="Group_2476" data-name="Group 2476">
          <g id="Group_2475" data-name="Group 2475">
            <g transform="matrix(1, 0, 0, 1, -94.82, -45)" filter="url(#Path_2186)">
              <path id="Path_2186-2" data-name="Path 2186" d="M560.931,148.676H159.9V126.615a5.531,5.531,0,0,1,5.515-5.515h390a5.531,5.531,0,0,1,5.515,5.515Z" transform="translate(-65.08 -76.1)" fill="#fff"/>
            </g>
          </g>
        </g>
        <circle id="Ellipse_177" data-name="Ellipse 177" cx="2.413" cy="2.413" r="2.413" transform="translate(14.478 11.375)" fill="#f60ba0"/>
        <circle id="Ellipse_178" data-name="Ellipse 178" cx="2.413" cy="2.413" r="2.413" transform="translate(25.026 11.375)" fill="#fea709"/>
        <circle id="Ellipse_179" data-name="Ellipse 179" cx="2.413" cy="2.413" r="2.413" transform="translate(35.574 11.375)" fill="#09d887"/>
      </g>
    </g>
    <g id="Group_2497" data-name="Group 2497" transform="translate(-11283.409 -8013.398)">
      <g id="Group_2487" data-name="Group 2487" transform="translate(0 0)">
        <g id="Group_2486" data-name="Group 2486">
          <g transform="matrix(1, 0, 0, 1, -268.13, -87.23)" filter="url(#Path_2197)">
            <path id="Path_2197-2" data-name="Path 2197" d="M623,425.194H418.037A4.179,4.179,0,0,1,413.9,421V188.1a4.179,4.179,0,0,1,4.137-4.2H622.93a4.179,4.179,0,0,1,4.136,4.2V421.068A4.061,4.061,0,0,1,623,425.194Z" transform="translate(-145.77 -96.67)" fill="#fff"/>
          </g>
        </g>
      </g>
      <g id="Group_2496" data-name="Group 2496" transform="translate(11.304 11.582)">
        <g id="Group_2495" data-name="Group 2495" clip-path="url(#clip-path)">
          <g id="Group_2492" data-name="Group 2492" transform="translate(-92.654 -25.637)">
            <g id="Group_2489" data-name="Group 2489" transform="translate(98.31)">
              <path id="Path_2198" data-name="Path 2198" d="M688.424,218.877V164.1H676.566s-3.378,4.693-11.858,10.3a40.763,40.763,0,0,1-16.408,6.444s4.757,6.164,5.446,8.336-1.861,3.012-1.861,3.012l21.854,44.34Z" transform="translate(-503.661 -164.1)" fill="#cdeab1"/>
              <g id="Group_2488" data-name="Group 2488" transform="translate(0 254.622)">
                <path id="Path_2199" data-name="Path 2199" d="M465.87,562.211c-.207.21-27.37,0-27.37,0l3.447-30.891,1.586-.42s6.756,11.768,6.48,11.768c-.276.07-.552,3.783-.689,4.693-.138.981.965,1.261,1.517.28a45.912,45.912,0,0,0,1.723-5.323l2.826-.49Z" transform="translate(-438.5 -528.587)" fill="#cdeab1"/>
                <path id="Path_2200" data-name="Path 2200" d="M457.359,538.877s-5.929-11.418-6.136-11.278a43.753,43.753,0,0,0-1.724,4.343l4.964,7.565Z" transform="translate(-441.917 -527.598)" fill="#cdeab1"/>
                <path id="Path_2201" data-name="Path 2201" d="M448.937,527.6l-1.172,2.942-.965-1.471Z" transform="translate(-441.078 -527.599)" fill="#cdeab1"/>
              </g>
            </g>
            <g id="Group_2490" data-name="Group 2490" transform="translate(0 0.07)">
              <path id="Path_2202" data-name="Path 2202" d="M511.855,164.2h-9.79l-32.127,48.4-54.877,62.973L296,393.746v10.507L406.1,295.329l44.95-48.053,29.369-38.036Z" transform="translate(-295.931 -164.2)" fill="#cdeab1"/>
              <path id="Path_2203" data-name="Path 2203" d="M546.422,185.391c-.207-.07-2.275-1.891-2.275-1.891l-17.235,24.587L482.1,265.946l46.122-54.777Z" transform="translate(-353.732 -169.981)" fill="#f8f9fa"/>
              <path id="Path_2204" data-name="Path 2204" d="M493,164.2h-8.755s-21.165,28.93-21.234,29.21-37.366,45.741-37.366,45.741l-15.1,17.932L295.9,372.8v9.807l78.11-76.7,50.327-53.166,34.54-42.729Z" transform="translate(-295.9 -164.2)" fill="#cdeab1"/>
              <path id="Path_2205" data-name="Path 2205" d="M415.958,314.231V312.2l-20.407,21.154s-49.638,48.123-49.776,48.823S296,431.141,296,431.141v2.452l50.81-50.154,41.709-40.277Z" transform="translate(-295.931 -208.529)" fill="#e0e0e2"/>
            </g>
            <g id="Group_2491" data-name="Group 2491">
              <path id="Path_2206" data-name="Path 2206" d="M637.795,197.363c.414-.841-4.757-8.266-5.24-8.756s-1.93,0-1.93,0L603.6,203.6l4.964,9.456S637.381,198.2,637.795,197.363Z" transform="translate(-391.468 -171.375)" fill="#f5f6f7"/>
              <path id="Path_2207" data-name="Path 2207" d="M666.639,166.832c0-.14-2-2.732-2-2.732H650.852l-9.652,5.324,3.24,8.126,9.169-2.522Z" transform="translate(-403.146 -164.1)" fill="#f5f6f7"/>
              <path id="Path_2208" data-name="Path 2208" d="M629.489,180.835s-3.378-7.635-3.516-7.635-14.064,6.444-14.064,6.444l-1.1,2.1a14.608,14.608,0,0,0-2.758-.63c-.207.14-10.548,4.483-10.548,4.483l3.654,11.7s26.818-14.36,27.577-14.78C629.489,182.166,629.489,180.835,629.489,180.835Z" transform="translate(-389.574 -166.826)" fill="#f5f6f7"/>
              <path id="Path_2209" data-name="Path 2209" d="M615.316,175.788l-3.516-7.5,9.859-3.993h17.235Z" transform="translate(-394.015 -164.16)" fill="#f5f6f7"/>
              <path id="Path_2210" data-name="Path 2210" d="M619.266,164.2h-5.722l-2.344,2.382Z" transform="translate(-393.829 -164.13)" fill="#f5f6f7"/>
              <path id="Path_2211" data-name="Path 2211" d="M607.61,179.944l-2.964-5.744-7.446,9.947Z" transform="translate(-389.48 -167.125)" fill="#f5f6f7"/>
              <path id="Path_2212" data-name="Path 2212" d="M637.408,206.3,611.9,220.1l4.55,9.526,25.922-13.239Z" transform="translate(-394.046 -176.74)" fill="#f5f6f7"/>
              <path id="Path_2213" data-name="Path 2213" d="M645.708,223,620.2,236.519l4.136,8.756,25.853-13.869Z" transform="translate(-396.624 -181.742)" fill="#f5f6f7"/>
              <path id="Path_2214" data-name="Path 2214" d="M658.39,248.146l-4.274-9.246L628.4,252.489l4.274,8.756Z" transform="translate(-399.171 -186.504)" fill="#f5f6f7"/>
              <path id="Path_2215" data-name="Path 2215" d="M666.641,264.137c-.138-.28-5.033-9.667-5.171-9.737s-25.37,13.169-25.37,13.169l4.826,10.157Z" transform="translate(-401.562 -191.147)" fill="#f5f6f7"/>
              <path id="Path_2216" data-name="Path 2216" d="M670.373,270.785c-.62-.841-26.473,13.449-26.473,13.449l7.1,14.92,15.167-7.635s-3.93-6.655-3.24-9.176C663.686,279.821,670.994,271.625,670.373,270.785Z" transform="translate(-403.985 -196.044)" fill="#f5f6f7"/>
              <path id="Path_2217" data-name="Path 2217" d="M675.041,312.777c0-.14-5.033-9.877-5.033-9.877L655.6,310.185l4.55,9.737Z" transform="translate(-407.619 -205.674)" fill="#f5f6f7"/>
              <path id="Path_2218" data-name="Path 2218" d="M682.628,328.166s-4.205-8.966-4.343-8.966-14.684,6.865-14.684,6.865l4.619,9.526Z" transform="translate(-410.103 -210.556)" fill="#f5f6f7"/>
              <path id="Path_2219" data-name="Path 2219" d="M690.635,344.087,685.671,334,671.4,341.705l4.55,9.386Z" transform="translate(-412.526 -214.989)" fill="#f5f6f7"/>
              <path id="Path_2220" data-name="Path 2220" d="M698.083,358.636,693.74,350.3l-14.34,7,4.343,9.737,14.34-6.935Z" transform="translate(-415.011 -219.871)" fill="#f5f6f7"/>
              <path id="Path_2221" data-name="Path 2221" d="M700.413,366.2,686.9,373.135l4.619,10.157,8.893-4.483Z" transform="translate(-417.34 -224.634)" fill="#f5f6f7"/>
              <path id="Path_2222" data-name="Path 2222" d="M702.928,386.3v11.768l-3.378,1.541L695,390.433Z" transform="translate(-419.856 -230.654)" fill="#f5f6f7"/>
              <path id="Path_2223" data-name="Path 2223" d="M705.2,405.3c-.207.14-2.9,1.541-2.9,1.541l2.9,9.667Z" transform="translate(-422.123 -236.345)" fill="#f5f6f7"/>
              <path id="Path_2224" data-name="Path 2224" d="M697.664,325.687c0-.21-17.373-36.425-18.752-39.367a7.753,7.753,0,0,1-.689-5.184l8.824-10.437,8.893,20.734a12.719,12.719,0,0,0-.069,4.273,36.872,36.872,0,0,0,1.793,4.693Z" transform="translate(-414.591 -196.029)" fill="#f5f6f7"/>
              <path id="Path_2225" data-name="Path 2225" d="M702.338,287.461c0-.21-9.238-22.345-9.238-22.345l7.17-8.616,2.137,5.464v25.5Z" transform="translate(-419.266 -191.776)" fill="#f5f6f7"/>
              <path id="Path_2226" data-name="Path 2226" d="M705.91,257.293l-1.31-3.152,1.31-1.541Z" transform="translate(-422.838 -190.608)" fill="#f5f6f7"/>
              <path id="Path_2227" data-name="Path 2227" d="M585.148,213.208l-19.717,11-1.93-3.5L576.668,202s4.343,3.853,5.791,5.464C583.976,209.075,585.148,213.208,585.148,213.208Z" transform="translate(-379.014 -175.452)" fill="#f5f6f7"/>
              <path id="Path_2228" data-name="Path 2228" d="M591.323,228.5c-.069-.21-4.412-8.9-4.412-8.9L567.4,231.088l3.033,7.845Z" transform="translate(-380.225 -180.724)" fill="#f5f6f7"/>
              <path id="Path_2229" data-name="Path 2229" d="M601.342,250.531c-.069-.28-7.652-15.831-7.652-15.831L572.8,245.417l6.274,15.9Z" transform="translate(-381.902 -185.246)" fill="#f5f6f7"/>
              <path id="Path_2230" data-name="Path 2230" d="M611.232,270.217c0-.21-5.446-10.717-5.446-10.717L584,272.109s3.792,9.176,4,9.176C588.205,281.215,611.232,270.217,611.232,270.217Z" transform="translate(-385.381 -192.674)" fill="#f5f6f7"/>
              <path id="Path_2231" data-name="Path 2231" d="M619.473,288.148,613.888,276.8,591,287.727l5.515,11.768Z" transform="translate(-387.555 -197.856)" fill="#f5f6f7"/>
              <path id="Path_2232" data-name="Path 2232" d="M626.5,301.835,623.2,294.9l-23.1,11.488,3.654,8.055Z" transform="translate(-390.381 -203.278)" fill="#f5f6f7"/>
              <path id="Path_2233" data-name="Path 2233" d="M634,318.187,629.175,307.4,606.7,319.728l4.619,9.877Z" transform="translate(-392.431 -207.022)" fill="#f5f6f7"/>
              <path id="Path_2234" data-name="Path 2234" d="M643.542,337.217,638.578,327.2,615,338.9l5.86,10.717Z" transform="translate(-395.009 -212.952)" fill="#f5f6f7"/>
              <path id="Path_2235" data-name="Path 2235" d="M669.217,379.624s-17.373-36.775-17.649-36.425c-.207.35-13.168,7.075-13.168,7.075l18.476,38.736L666.6,383.2v-1.611Z" transform="translate(-402.277 -217.743)" fill="#f5f6f7"/>
              <path id="Path_2236" data-name="Path 2236" d="M651.3,393.056,632.89,354.6l-7.79,4.483,11.1,22.7,2.551.56,4.757,6.795-.483,2.382,2,4.553Z" transform="translate(-398.146 -221.159)" fill="#f5f6f7"/>
              <path id="Path_2237" data-name="Path 2237" d="M681.7,417.372c0-.21-19.1,10.647-19.1,10.647h-2.275s-12,6.584-11.927,6.374,1.1-19.543,1.1-19.543l-.552-1.961,2.413-1.961,2.275.841,16.615-10.157h1.792L674.46,400Z" transform="translate(-405.382 -234.757)" fill="#f5f6f7"/>
              <path id="Path_2238" data-name="Path 2238" d="M645.772,409.038c-.483.14-1.517,1.751-2.068,2.031s-10.2-6.024-10.2-6.024l1.93-2.942-.689-2.592,3.309-1.611,5.1,6.584h.552Z" transform="translate(-400.755 -234.128)" fill="#f5f6f7"/>
              <path id="Path_2239" data-name="Path 2239" d="M628.686,401.1v2.242l-1.241,2.1h-2.137l-4.205,2.172-3.1-.49Z" transform="translate(-395.941 -235.087)" fill="#f5f6f7"/>
              <path id="Path_2240" data-name="Path 2240" d="M639.5,417.942c-.207.14-6.067-3.642-6.067-3.642l-8.342,4.833h-2.9l11.237,23.186L638.4,439.1Z" transform="translate(-397.245 -239.041)" fill="#f5f6f7"/>
              <path id="Path_2241" data-name="Path 2241" d="M630.482,411.542c-.069,0-3.585-2.242-3.585-2.242l-4.688,2.242H618.9l1.792,4.343h3.378Z" transform="translate(-396.22 -237.543)" fill="#f5f6f7"/>
              <path id="Path_2242" data-name="Path 2242" d="M686.188,437.3l-5.1-9.6-19.855,10.367-.414,1.681L641.1,449.065l4.964,9.386Z" transform="translate(-403.115 -243.054)" fill="#f5f6f7"/>
              <path id="Path_2243" data-name="Path 2243" d="M688.952,447.5,650,467.744l5.515,10.577L688.952,461.3Z" transform="translate(-405.879 -248.985)" fill="#f5f6f7"/>
              <path id="Path_2244" data-name="Path 2244" d="M704.419,473c-.621,0-4.619,2.452-4.619,2.452l4.619,9.246Z" transform="translate(-421.347 -256.623)" fill="#f5f6f7"/>
              <path id="Path_2245" data-name="Path 2245" d="M698.828,492.34l-6.756-13.94L681.8,483.654l17.029,34.183Z" transform="translate(-415.756 -258.24)" fill="#f5f6f7"/>
              <path id="Path_2246" data-name="Path 2246" d="M692.12,525.716l-12,6.514L660.2,493.354l13.374-5.954,18.545,36.425Z" transform="translate(-409.048 -260.936)" fill="#f5f6f7"/>
              <path id="Path_2247" data-name="Path 2247" d="M701.872,547.8,691.6,553.4l5.171,10.857,5.1-2.942Z" transform="translate(-418.8 -279.027)" fill="#f5f6f7"/>
              <path id="Path_2248" data-name="Path 2248" d="M704.792,572.7,701,574.871h3.792Z" transform="translate(-421.72 -286.485)" fill="#f5f6f7"/>
              <path id="Path_2249" data-name="Path 2249" d="M684.689,570.948c-.138-.42-6.274-11.348-6.274-11.348L663.8,567.1l2.206,3.853Z" transform="translate(-410.166 -282.561)" fill="#f5f6f7"/>
              <path id="Path_2250" data-name="Path 2250" d="M657.442,574.871l-.689-2.171-7.653,2.171Z" transform="translate(-405.6 -286.485)" fill="#f5f6f7"/>
              <path id="Path_2251" data-name="Path 2251" d="M667.281,549.847c-.069-.35-6.067-10.647-6.067-10.647l-24.888,13.029-2.827.63,5.515,10.787Z" transform="translate(-400.755 -276.451)" fill="#f5f6f7"/>
              <path id="Path_2252" data-name="Path 2252" d="M657.768,530.216l-4.412-9.316-24.819,12.819H626.4l4.274,11.838.552-1.681Z" transform="translate(-398.55 -270.97)" fill="#f5f6f7"/>
              <path id="Path_2253" data-name="Path 2253" d="M651.329,511.986c-.345-.07-4.481-9.386-4.481-9.386L625.2,512.827l.827,6.024v6.865Z" transform="translate(-398.177 -265.488)" fill="#f5f6f7"/>
              <path id="Path_2254" data-name="Path 2254" d="M642.242,494.117l-5.1-10.017L615.7,494.747l5.308,10.857,1.172-1.891Z" transform="translate(-395.226 -259.947)" fill="#f5f6f7"/>
              <path id="Path_2255" data-name="Path 2255" d="M634.592,478.255l-2.964,1.891-3.723-2.592h-3.723l-12.754,7.635-.827-4.483,2.344.07,17.787-9.176Z" transform="translate(-393.642 -256.203)" fill="#f5f6f7"/>
              <path id="Path_2256" data-name="Path 2256" d="M630.387,484.251l-16.132,8.756-1.655-3.432,12.823-6.584,2.62-.49Z" transform="translate(-394.263 -259.468)" fill="#f5f6f7"/>
              <path id="Path_2257" data-name="Path 2257" d="M626.6,462.527,621.773,452.3,602.4,461.546s4.895,12.469,4.964,11.978a18.189,18.189,0,0,1,.69-2.1Z" transform="translate(-391.095 -250.422)" fill="#f5f6f7"/>
              <path id="Path_2258" data-name="Path 2258" d="M617.9,445.057c-.276-.28-18.752,9.737-18.752,9.527s-5.446-9.947-5.446-9.947L612.521,434.2Z" transform="translate(-388.393 -245.001)" fill="#f5f6f7"/>
              <path id="Path_2259" data-name="Path 2259" d="M606.663,423.24c-.345-.07-18.89,10.647-19.1,10.577S579.5,419.6,579.5,419.6l17.235-10.3,4.619.56Z" transform="translate(-383.983 -237.543)" fill="#f5f6f7"/>
              <path id="Path_2260" data-name="Path 2260" d="M614.647,390.235c-.345-.14-13.719,7.565-13.719,7.565s-6.687.07-6.963,0c-.207-.07-17.856,10.087-17.856,10.087L572.8,401.3l37.918-18.7Z" transform="translate(-381.902 -229.546)" fill="#f5f6f7"/>
              <path id="Path_2261" data-name="Path 2261" d="M605.75,373.7s-4.688-10.507-4.895-10.3S562.8,383.082,562.8,383.082l6.274,9.947Z" transform="translate(-378.796 -223.794)" fill="#f5f6f7"/>
              <path id="Path_2262" data-name="Path 2262" d="M601.241,342.276c-.207.28-11.72,6.164-11.72,6.164L570.7,311.8l13.03-7Z" transform="translate(-381.25 -206.243)" fill="#f5f6f7"/>
              <path id="Path_2263" data-name="Path 2263" d="M580.2,353.755c-.758.14-9.169,5.113-9.169,5.113L552,321.673l10-4.973Z" transform="translate(-375.442 -209.807)" fill="#f5f6f7"/>
              <path id="Path_2264" data-name="Path 2264" d="M562.38,362.885c-.414.14-8.893,5.464-8.893,5.464l-2.413-4.553-1.448-.49-12.547-27.389.483-2.942-1.861-3.012,8.618-4.063Z" transform="translate(-370.379 -212.563)" fill="#f5f6f7"/>
              <path id="Path_2265" data-name="Path 2265" d="M566.522,294.567c-.138-.21-4.688-10.367-4.688-10.367l-36.056,18.843H522.4l5.791,10.717Z" transform="translate(-366.248 -200.073)" fill="#f5f6f7"/>
              <path id="Path_2266" data-name="Path 2266" d="M556.639,273.789,518.308,294.1l-3.378-6.935L511,283.316l6.343-6.935L550.3,260.2Z" transform="translate(-362.708 -192.884)" fill="#f5f6f7"/>
              <path id="Path_2267" data-name="Path 2267" d="M550.964,255.893c-.483,0-25.163,13.309-25.163,13.309l14.064-17.3Z" transform="translate(-367.304 -190.398)" fill="#f5f6f7"/>
              <path id="Path_2268" data-name="Path 2268" d="M561.558,247.309c-.207-.14-5.308-12.609-5.308-12.609l-6.549,7.985Z" transform="translate(-374.727 -185.246)" fill="#f5f6f7"/>
              <path id="Path_2269" data-name="Path 2269" d="M526.692,324.085l-3.378,1.891L522.9,316.8Z" transform="translate(-366.404 -209.837)" fill="#f5f6f7"/>
              <path id="Path_2270" data-name="Path 2270" d="M500.994,309.409l-4.895-9.456-4.274-3.152L455.7,335.116v4.9l11.237,14.01,19.855-20.944,7.377-7.985,6.825-4.833-.827-8.546Z" transform="translate(-345.532 -203.847)" fill="#f5f6f7"/>
              <path id="Path_2271" data-name="Path 2271" d="M542.889,372.346c-.207-.07-2.344-4.343-2.344-4.343l.345-1.681-12.823-27.6-1.792-.911-1.655-3.713-7.446,3.853-6.274,5.814,15.925,20.664L533.1,378.37Z" transform="translate(-362.677 -215.019)" fill="#f5f6f7"/>
              <path id="Path_2272" data-name="Path 2272" d="M522.776,370.074c-.483.07-6.687,3.923-6.687,3.923L504.3,352.632l3.93-3.432Z" transform="translate(-360.627 -219.542)" fill="#f5f6f7"/>
              <path id="Path_2273" data-name="Path 2273" d="M498.946,378.664,488.811,358.7S462.2,385.248,462.2,385.738s6.067,10.577,6.067,10.577Z" transform="translate(-347.551 -222.387)" fill="#f5f6f7"/>
              <path id="Path_2274" data-name="Path 2274" d="M515,383l-41.5,23.466,5.791,10.437,37.159-20.8,2.689.14,1.586-1.261Z" transform="translate(-351.061 -229.666)" fill="#f5f6f7"/>
              <path id="Path_2275" data-name="Path 2275" d="M524.234,402.5l-1.31.981-.551,1.751L484.8,425.826l5.308,10.857,34.54-20.734,3.1-.35Z" transform="translate(-354.57 -235.506)" fill="#f5f6f7"/>
              <path id="Path_2276" data-name="Path 2276" d="M531.439,423.3a6.434,6.434,0,0,0-1.241.911v1.541l-35.3,19.964,5.791,10.087,33.23-19.333h3.447Z" transform="translate(-357.707 -241.736)" fill="#f5f6f7"/>
              <path id="Path_2277" data-name="Path 2277" d="M558.63,423.941c-.483.14-4,2.662-4,2.662l-6.067-14.29L545.6,398.654l10.341-5.954,9.169,16.952s-6.067-.49-7.583.981-1.655,3.5-1.31,6.865A14.754,14.754,0,0,0,558.63,423.941Z" transform="translate(-373.454 -232.571)" fill="#f5f6f7"/>
              <path id="Path_2278" data-name="Path 2278" d="M574,426.606s-7.721,4.833-7.928,4.763-2.689-4.623-2.689-6.725-.345-3.642,1.31-4.693c1.724-.981,6.549.42,6.549.42Z" transform="translate(-378.969 -240.629)" fill="#f5f6f7"/>
              <path id="Path_2279" data-name="Path 2279" d="M593.63,469.435c-.276,0-19.1-37.335-19.1-37.335L560.4,439.735l19.579,40.277,25.991,52.746h8.824l-10.824-25.567-.9-14.85-9.1-17.582Z" transform="translate(-378.051 -244.372)" fill="#f5f6f7"/>
              <path id="Path_2280" data-name="Path 2280" d="M615.542,572.415H598.1l13.65-7.915Z" transform="translate(-389.76 -284.029)" fill="#f5f6f7"/>
              <path id="Path_2281" data-name="Path 2281" d="M598,554.957c-.345-.07-20.407,11.418-20.407,11.418H560.217l-1.517-3.432L592.757,544.1Z" transform="translate(-377.523 -277.919)" fill="#f5f6f7"/>
              <path id="Path_2282" data-name="Path 2282" d="M587.8,535.027c-.207.14-34.195,18.423-34.195,18.423l-6.2-9.947,34.953-19.4Z" transform="translate(-374.013 -271.928)" fill="#f5f6f7"/>
              <path id="Path_2283" data-name="Path 2283" d="M577.148,515.178,571.7,503.9l-34.4,20.174,5.446,10.577Z" transform="translate(-370.876 -265.878)" fill="#f5f6f7"/>
              <path id="Path_2284" data-name="Path 2284" d="M567.266,495.167l-5.309-9.667L527.9,504.9l4.895,10.3Z" transform="translate(-367.957 -260.367)" fill="#f5f6f7"/>
              <path id="Path_2285" data-name="Path 2285" d="M556.382,477,551,465.3l-35.5,19.263,6.274,11.208Z" transform="translate(-364.105 -254.316)" fill="#f5f6f7"/>
              <path id="Path_2286" data-name="Path 2286" d="M546.3,455.587,540.784,444.8,505.9,464.273,511,475.2Z" transform="translate(-361.124 -248.176)" fill="#f5f6f7"/>
              <path id="Path_2287" data-name="Path 2287" d="M551.885,575.171a5.74,5.74,0,0,0-.345-1.471l-3.24,1.471Z" transform="translate(-374.293 -286.785)" fill="#f5f6f7"/>
              <path id="Path_2288" data-name="Path 2288" d="M529.682,569.66H507l23.371-14.36,6.411,9.877Z" transform="translate(-361.465 -281.273)" fill="#f5f6f7"/>
              <path id="Path_2289" data-name="Path 2289" d="M518.664,546.667c-.414.07-28.955,17.372-28.955,17.372H478.4c-.207,0-3.1-7.845-3.1-7.845L513.838,536.3Z" transform="translate(-351.62 -275.582)" fill="#f5f6f7"/>
              <path id="Path_2290" data-name="Path 2290" d="M509.033,526.827,471.322,547.7,465.6,537.474,503.656,516.6Z" transform="translate(-348.607 -269.682)" fill="#f5f6f7"/>
              <path id="Path_2291" data-name="Path 2291" d="M498.4,507.377c-.207,0-37.5,21.014-37.5,21.014l-5.791-9.456s37.987-23.116,37.642-22.836S498.4,507.377,498.4,507.377Z" transform="translate(-345.346 -263.54)" fill="#f5f6f7"/>
              <path id="Path_2292" data-name="Path 2292" d="M487.506,487.217c-.414-.35-4.757-10.017-4.757-10.017L444.9,498.144l4.688,8.406-.207,3.222Z" transform="translate(-342.178 -257.881)" fill="#f5f6f7"/>
              <path id="Path_2293" data-name="Path 2293" d="M477.6,468.736,439.953,489.68,434.3,479.664,472.218,459.7Z" transform="translate(-338.885 -252.639)" fill="#f5f6f7"/>
              <path id="Path_2294" data-name="Path 2294" d="M466.933,450.157c-.552,0-37.435,20.174-37.435,20.174l-6-9.106s37.987-22.135,37.987-21.925C461.487,439.58,466.933,450.157,466.933,450.157Z" transform="translate(-335.531 -246.528)" fill="#f5f6f7"/>
              <path id="Path_2295" data-name="Path 2295" d="M465.675,424.845c-.483.07-11.1,6.234-11.1,6.234L443.2,410.626l9.652-8.126Z" transform="translate(-341.65 -235.506)" fill="#f5f6f7"/>
              <path id="Path_2296" data-name="Path 2296" d="M442.39,437.533l-23.026,13.939-4.964-8.616a124.877,124.877,0,0,1,7.515-13.1,103.881,103.881,0,0,1,9.652-11.558Z" transform="translate(-332.705 -240.209)" fill="#f5f6f7"/>
              <path id="Path_2297" data-name="Path 2297" d="M434.592,505.441l-4.826,3.362-8.824-1.471s-5.653-12.118-7.515-15.27-9.928-12.749-9.928-12.749l5.515-19.613Z" transform="translate(-329.319 -252.639)" fill="#f5f6f7"/>
              <path id="Path_2298" data-name="Path 2298" d="M402.888,495.9a30.119,30.119,0,0,0-2.206-2.8L398.2,510.122Z" transform="translate(-327.673 -262.643)" fill="#f5f6f7"/>
              <path id="Path_2299" data-name="Path 2299" d="M405.059,502.2s2.62,4.063,4.964,7.5A49.7,49.7,0,0,1,414.3,518.1s-17.1-1.751-17.1-1.611,4.412-1.821,4.412-1.821Z" transform="translate(-327.363 -265.369)" fill="#f5f6f7"/>
              <path id="Path_2300" data-name="Path 2300" d="M426.3,529.934c-.069-.07-1.792,14.78-1.792,14.78l-2.137-1.751L393,537.849l2.827-13.449,3.309.63,1.1,1.681,15.994,2.592,1.172-1.121Z" transform="translate(-326.058 -272.018)" fill="#f5f6f7"/>
              <path id="Path_2301" data-name="Path 2301" d="M423.057,553.674l-1.792,12.959L389,560.539,391.344,548Z" transform="translate(-324.816 -279.087)" fill="#f5f6f7"/>
              <path id="Path_2302" data-name="Path 2302" d="M409.379,574.183H387.8l.62-3.783Z" transform="translate(-324.443 -285.796)" fill="#f5f6f7"/>
              <path id="Path_2303" data-name="Path 2303" d="M414,377.386l-10.479-12.328s-5.929-.981-6.2-.771c-.207.21-51.016,49.734-51.016,49.734l-50.4,50.224v48.123h58.669l13.237-73.27-11.1-4.2s-1.172-2.031.965-1.611c2.137.35,11.168,3.853,11.168,3.853a173.413,173.413,0,0,1,8.824-21.014c4.55-8.756,22.13-25.778,23.578-27.108C402.552,387.613,414,377.386,414,377.386Z" transform="translate(-295.9 -224.052)" fill="#f5f6f7"/>
              <path id="Path_2304" data-name="Path 2304" d="M473.788,242.443c-.138.21-8.962-1.961-10.755-3.362A15.052,15.052,0,0,1,460,235.439s46.88-48.193,47.845-49.173,1.586-4.273.552-5.464-14.271-16.6-14.271-16.6h35.5l2.482,4.2L510.12,198.1Z" transform="translate(-346.868 -164.13)" fill="#f5f6f7"/>
              <path id="Path_2305" data-name="Path 2305" d="M476.9,181.292c-.276-.21-14.891-17.092-14.891-17.092H399.683l12.823,14.36s1.1,1.681,0,2.452c-1.034.771-2.551-.07-2.551-.07-.345-.21-3.1-3.362-3.309-3.642l-11.582-13.1H380.518l-8.618,8.546,57.7,60.031,14.891-14.29s-19.166-19.894-20.131-20.874,0-2.872,0-2.872.9-1.611,3.033.49S447.8,215.195,447.8,215.195s27.508-28.72,29.024-30.541A2.412,2.412,0,0,0,476.9,181.292Z" transform="translate(-319.505 -164.13)" fill="#f5f6f7"/>
              <path id="Path_2306" data-name="Path 2306" d="M371.8,164.2l-6.136,5.814L359.8,164.2Z" transform="translate(-315.747 -164.13)" fill="#f5f6f7"/>
              <path id="Path_2307" data-name="Path 2307" d="M376.661,218.907,322.887,164.2H296v86.159h47.776Z" transform="translate(-295.931 -164.13)" fill="#f5f6f7"/>
              <path id="Path_2308" data-name="Path 2308" d="M410.963,281.663,379.595,247.9l-34.677,33.273L295.9,279.842v77.613l10.617,9.947s1.655,3.222.758,6.024-7.308,8.686-11.375,13.519v10.717l37.849-38.176s-3.378-2.662-3.723-4.763-.552-3.5.069-4.553,11.375-7,11.375-7,1.861-.56,2.62.35c.758.841-.552,1.821-.069,2.242.552.49,4.205-2.872,4.205-2.872s-.62-2.031-1.1-3.292.414-1.681,1.1-.841a34.177,34.177,0,0,1,2.206,3.993Z" transform="translate(-295.9 -189.2)" fill="#f5f6f7"/>
              <path id="Path_2309" data-name="Path 2309" d="M369.011,385.6c-.069.07-8.411,4.9-8.411,4.9l1.034,2.522Z" transform="translate(-315.995 -230.444)" fill="#f5f6f7"/>
              <path id="Path_2310" data-name="Path 2310" d="M356.994,394.475l-4.964,4.973s-1.93-6.374-1.93-7.845,9.238-6.234,9.583-5.814c.345.49-4.757,4.2-4.757,4.2Z" transform="translate(-312.734 -230.493)" fill="#f5f6f7"/>
              <path id="Path_2311" data-name="Path 2311" d="M349.774,402.054s-1.793-6.725-1.793-6.655c.069.07-1.31,1.611-.827,3.362A9.671,9.671,0,0,0,349.774,402.054Z" transform="translate(-311.787 -233.379)" fill="#f5f6f7"/>
              <path id="Path_2312" data-name="Path 2312" d="M300.45,425.18l-4.55-4.413V410.4l7.239,7.845a5.137,5.137,0,0,1,.276,3.012C303,422.728,300.45,425.18,300.45,425.18Z" transform="translate(-295.9 -237.873)" fill="#f5f6f7"/>
              <path id="Path_2313" data-name="Path 2313" d="M298.244,434.522,295.9,437.6V432Z" transform="translate(-295.9 -244.342)" fill="#f5f6f7"/>
            </g>
            <path id="Path_2314" data-name="Path 2314" d="M348.5,432.4c-.207.981-17.166,100.518-17.166,100.518l-35.229-.07V484.656Z" transform="translate(-295.962 -244.462)" fill="#badafc"/>
          </g>
          <g id="Group_2493" data-name="Group 2493" transform="translate(-79.349 -25.497)">
            <path id="Path_2315" data-name="Path 2315" d="M399.86,306.529c-.552.42-42.468,44.69-42.468,44.69l-17.511,7.635H328.919l-3.1,5.814-3.24.14v-2.662l-7.377-.63,3.24-60.031,18.683.7.689-2.312,11.858,1.331,14.409,13.239L387.588,292.8Z" transform="translate(-315.2 -202.789)" fill="#f4d7b8"/>
            <path id="Path_2316" data-name="Path 2316" d="M433.384,175.157l-6.067,4.273L416.7,167.242l4.068-2.942h5.791Z" transform="translate(-346.725 -164.3)" fill="#f4d7b8"/>
          </g>
          <g id="Group_2494" data-name="Group 2494" transform="translate(8.275 -25.567)">
            <path id="Path_2317" data-name="Path 2317" d="M623.516,505.211,620,497.716l1.517-.841-.414-1.261,14.271-6.514,4.136,8.476Z" transform="translate(-497.492 -261.515)" fill="#f5f6f7"/>
            <path id="Path_2318" data-name="Path 2318" d="M454.5,240.513c-.138.21-5.584,8.2-5.584,8.2l-4.412-3.292.689-1.261-2.9-1.681,4.826-7.075Z" transform="translate(-442.3 -185.526)" fill="#f5f6f7"/>
            <path id="Path_2319" data-name="Path 2319" d="M475.029,213.6,468,220.53l-8-7.845,2.827-2.942-1.172-1.261,3.585-3.082,2.275,2.312,1.172-.981Z" transform="translate(-447.797 -176.54)" fill="#f5f6f7"/>
            <path id="Path_2320" data-name="Path 2320" d="M464.25,189.415c-.345.21-3.654,3.713-3.654,3.713l-1.448-1.471-5.308,4.973L448.6,191.1l2.068-1.891,1.379.981,2.62-2.592-1.241-1.121,4.826-4.273Z" transform="translate(-444.257 -169.591)" fill="#d1cfcc"/>
            <path id="Path_2321" data-name="Path 2321" d="M464.969,166.161c-.069.21-5.653,7.145-5.653,7.145l-3.516-3.012,4.826-6.094h2.413Z" transform="translate(-446.493 -164.2)" fill="#d1cfcc"/>
            <path id="Path_2322" data-name="Path 2322" d="M507.49,184.329l-6.963,6.444L488.6,177.534l7.17-6.234,6.411,6.935,2.137-1.961,4.412,4.483L506.387,183Z" transform="translate(-456.68 -166.327)" fill="#d1cfcc"/>
            <path id="Path_2323" data-name="Path 2323" d="M587.453,468.8l-6.411-11.768-4.826,2.241-1.93-3.572-2.9,1.4,1.792,3.853L570.7,462.7l6,11.418Z" transform="translate(-482.18 -251.511)" fill="#badafc"/>
            <path id="Path_2324" data-name="Path 2324" d="M658.774,234.922,657.6,232.4l-5.1,2.522,1.379,2.662Z" transform="translate(-507.586 -184.627)" fill="#f5f6f7"/>
          </g>
          <rect id="Rectangle_917" data-name="Rectangle 917" width="283.072" height="192.211" transform="translate(190.417 214.695) rotate(180)" fill="none"/>
        </g>
      </g>
    </g>
    <g id="Group_2500" data-name="Group 2500" transform="translate(-11145.732 -7840.878)">
      <g id="Group_2498" data-name="Group 2498" transform="translate(0 0)">
        <path id="Path_2326" data-name="Path 2326" d="M631.18,448.206a10.1,10.1,0,0,0,1.93-6.549,9.772,9.772,0,0,0-19.51.758,9.9,9.9,0,0,0,2,5.929,53.634,53.634,0,0,0,6.963,6.549h0c.069.069.138.069.138.138h0a1.044,1.044,0,0,0,1.31-.138,46.144,46.144,0,0,0,6.963-6.549h0c.138-.069.207-.069.207-.138Z" transform="translate(-613.6 -432.683)" fill="#9f51fc"/>
        <circle id="Ellipse_181" data-name="Ellipse 181" cx="7.515" cy="7.515" r="7.515" transform="translate(2.275 2.218)" fill="#fff"/>
      </g>
      <g id="Group_2499" data-name="Group 2499" transform="translate(5.791 5.803)">
        <path id="Path_2327" data-name="Path 2327" d="M630,444.823c0-.138-.069-.345-.069-.483V444.2l-.689-1.723h0c-.276-.758-.62-1.379-1.517-1.379h-3.378c-.9,0-1.241.689-1.448,1.379l-.758,1.723a.743.743,0,0,0-.138.552V447.3a.445.445,0,0,0,.414.414h.9a.445.445,0,0,0,.414-.414v-.827h4.619v.827a.445.445,0,0,0,.414.414h.827A.445.445,0,0,0,630,447.3v-2.482Zm-6.618-2.137c.276-.758.483-1.034.965-1.034h3.378c.483,0,.689.276.965,1.034l.483,1.034a1.344,1.344,0,0,0-.552-.069H623.31a1.022,1.022,0,0,0-.483.069Zm.414,2.9h-.965a.276.276,0,0,1,0-.552h.965a.3.3,0,0,1,.276.276C624.137,445.443,624,445.581,623.792,445.581Zm3.309-.069H624.9a.207.207,0,0,1,0-.414H627.1a.207.207,0,0,1,0,.414Zm2,.069h-.965a.276.276,0,0,1,0-.552h.965a.276.276,0,0,1,0,.552Z" transform="translate(-622 -441.1)" fill="#9f51fc"/>
      </g>
    </g>
    <g id="Group_2501" data-name="Group 2501" transform="translate(-11103.993 -7950.352)">
      <g transform="matrix(1, 0, 0, 1, -447.55, -150.27)" filter="url(#Path_2328)">
        <path id="Path_2328-2" data-name="Path 2328" d="M676.091,271.8h98.7a3.039,3.039,0,0,1,3.062,3.062v30.906a3.039,3.039,0,0,1-3.062,3.062H682.358l-5.911,4.629a1.967,1.967,0,0,1-3.347-1.353V274.933A3.042,3.042,0,0,1,676.091,271.8Z" transform="translate(-225.55 -121.53)" fill="#fff"/>
      </g>
      <path id="Path_2329" data-name="Path 2329" d="M777.773,306.342h19.8a4.285,4.285,0,0,0,4.273-4.273v-19.8A4.285,4.285,0,0,0,797.57,278h-19.8a4.285,4.285,0,0,0-4.273,4.273v19.8A4.285,4.285,0,0,0,777.773,306.342Z" transform="translate(-702.003 -273.585)" fill="#f7117a" opacity="0.8"/>
      <path id="Path_2330" data-name="Path 2330" d="M721.7,287.308h27.986a.974.974,0,0,0,1-1V286.1a.974.974,0,0,0-1-1H721.7a.974.974,0,0,0-1,1v.214A.974.974,0,0,0,721.7,287.308Z" transform="translate(-686.803 -275.629)" fill="#e1eaf9"/>
      <path id="Path_2331" data-name="Path 2331" d="M690.7,297.908h50.062a.974.974,0,0,0,1-1V296.7a.974.974,0,0,0-1-1H690.7a.973.973,0,0,0-1,1v.214A1.018,1.018,0,0,0,690.7,297.908Z" transform="translate(-677.879 -278.68)" fill="#e1eaf9"/>
      <path id="Path_2332" data-name="Path 2332" d="M690.7,308.508h50.062a.974.974,0,0,0,1-1V307.3a.974.974,0,0,0-1-1H690.7a.973.973,0,0,0-1,1v.214A1.018,1.018,0,0,0,690.7,308.508Z" transform="translate(-677.879 -281.732)" fill="#e1eaf9"/>
    </g>
    <g id="Group_2503" data-name="Group 2503" transform="translate(-11252.819 -7984.304)">
      <g id="Group_2502" data-name="Group 2502" transform="translate(0 0)">
        <path id="Path_2333" data-name="Path 2333" d="M475.88,240.106a10.1,10.1,0,0,0,1.93-6.549,9.772,9.772,0,0,0-19.51.758,9.9,9.9,0,0,0,2,5.929,53.642,53.642,0,0,0,6.963,6.549h0c.069.069.138.069.138.138h0a1.043,1.043,0,0,0,1.31-.138,46.146,46.146,0,0,0,6.963-6.549h0a.529.529,0,0,0,.207-.138Z" transform="translate(-458.3 -224.583)" fill="#1f62f8"/>
        <circle id="Ellipse_182" data-name="Ellipse 182" cx="7.515" cy="7.515" r="7.515" transform="translate(2.206 2.218)" fill="#fff"/>
      </g>
      <path id="Path_2334" data-name="Path 2334" d="M474.377,235.82a.9.9,0,0,0-.483-.827,4.637,4.637,0,0,1-.758-.483c-.62-.345-1.172-.758-1.792-1.1a1.14,1.14,0,0,0-1.31,0l-2.068,1.241c-.138.138-.345.207-.483.345a1.051,1.051,0,0,0-.483.827v3.654a.942.942,0,0,0,.965.965h5.446a.869.869,0,0,0,.9-.9v-3.309Zm-3.033,2.137v1.655h-1.172v-1.655Zm2.206.552v1.034c0,.138,0,.138-.138.138H472.1v-2.068a.366.366,0,0,0-.414-.414h-1.93a.366.366,0,0,0-.414.414v2.068h-1.31c-.069,0-.138,0-.138-.138V235.82c0-.069,0-.069.069-.138a10.209,10.209,0,0,1,.9-.552l1.655-1.034a.589.589,0,0,1,.483,0c.483.276.9.552,1.379.827.414.207.758.483,1.172.689.069.069.069.069.069.138C473.549,236.716,473.549,237.612,473.549,238.508Z" transform="translate(-461.002 -227.259)" fill="#1f62f8"/>
    </g>
    <g id="Group_2506" data-name="Group 2506" transform="translate(-11111.807 -7903.389)">
      <g id="Group_2504" data-name="Group 2504" transform="translate(0 0)">
        <path id="Path_2335" data-name="Path 2335" d="M680.38,349.506a10.1,10.1,0,0,0,1.93-6.549,9.772,9.772,0,0,0-19.51.758,9.9,9.9,0,0,0,2,5.929,53.639,53.639,0,0,0,6.963,6.549h0c.069.069.138.069.138.138h0a1.043,1.043,0,0,0,1.31-.138,46.154,46.154,0,0,0,6.963-6.549h0a.531.531,0,0,0,.207-.138Z" transform="translate(-662.8 -333.983)" fill="#f7117a" opacity="0.8"/>
        <circle id="Ellipse_183" data-name="Ellipse 183" cx="7.515" cy="7.515" r="7.515" transform="translate(2.206 2.218)" fill="#fff"/>
      </g>
      <g id="Group_2505" data-name="Group 2505" transform="translate(6.687 5.415)" opacity="0.8">
        <path id="Path_2336" data-name="Path 2336" d="M672.5,343.486v-1.31c0-.207.069-.276.276-.276a.315.315,0,0,1,.276.345v2.068c0,.138,0,.207.207.207h.276c.138,0,.138,0,.138-.138v-2.206c0-.138.138-.207.276-.207a.22.22,0,0,1,.207.207v2.068c0,.207,0,.207.207.207h.276c.138,0,.138,0,.138-.138v-2.206c.069-.138.138-.207.276-.207s.207.138.207.276v2.62A1.385,1.385,0,0,1,672.5,345v-.62C672.5,344.037,672.5,343.761,672.5,343.486Z" transform="translate(-672.5 -341.856)" fill="#f7117a"/>
        <path id="Path_2337" data-name="Path 2337" d="M680.733,344.431a2.7,2.7,0,0,1-.207.965,1.536,1.536,0,0,1-2.62-.069,2.23,2.23,0,0,1-.207-1.172,3.246,3.246,0,0,1,.276-1.172,2.622,2.622,0,0,1,.62-.9.9.9,0,0,1,1.31.069,3.184,3.184,0,0,1,.62,1.034A3.9,3.9,0,0,1,680.733,344.431Zm-.758-.207h0c0-.276-.069-.483-.069-.689a1.1,1.1,0,0,0-.345-.689.461.461,0,0,0-.689,0c-.069.138-.207.207-.207.345a3.906,3.906,0,0,0-.207,1.241,1.623,1.623,0,0,0,.138.552.713.713,0,0,0,1.241,0A.957.957,0,0,0,679.975,344.224Z" transform="translate(-674.115 -341.837)" fill="#f7117a"/>
        <path id="Path_2338" data-name="Path 2338" d="M673.407,348.3a1.459,1.459,0,0,0,1.31,0,1.909,1.909,0,0,0,.069.62c.069.552.069,1.172.138,1.724,0,.345.069.758.069,1.1a.909.909,0,0,1-1.792.207v-.414c.069-.965.138-1.93.207-2.965Z" transform="translate(-672.717 -343.844)" fill="#f7117a"/>
        <path id="Path_2339" data-name="Path 2339" d="M678.938,348.3a2.127,2.127,0,0,0,1.31,0,1.023,1.023,0,0,0,.069.483c.069.689.069,1.31.138,2,0,.345.069.62.069.965a.972.972,0,0,1-.758.965.858.858,0,0,1-.965-.758v-.62c0-.483.069-.965.069-1.448a12.772,12.772,0,0,1,.069-1.586Z" transform="translate(-674.457 -343.844)" fill="#f7117a"/>
      </g>
    </g>
    <g id="Group_2509" data-name="Group 2509" transform="translate(-11167.937 -7974.93)">
      <g id="Group_2507" data-name="Group 2507" transform="translate(0 0)">
        <path id="Path_2340" data-name="Path 2340" d="M598.98,253.706a10.1,10.1,0,0,0,1.93-6.549,9.772,9.772,0,0,0-19.51.758,9.9,9.9,0,0,0,2,5.929,53.638,53.638,0,0,0,6.963,6.549h0c.069.069.138.069.138.138h0a1.043,1.043,0,0,0,1.31-.138,46.15,46.15,0,0,0,6.963-6.549h0a.531.531,0,0,0,.207-.138Z" transform="translate(-581.4 -238.183)" fill="#05d3c3"/>
        <circle id="Ellipse_184" data-name="Ellipse 184" cx="7.515" cy="7.515" r="7.515" transform="translate(2.206 2.218)" fill="#fff"/>
      </g>
      <g id="Group_2508" data-name="Group 2508" transform="translate(5.791 5.734)">
        <g id="shopping-cart_4_">
          <path id="Path_2341" data-name="Path 2341" d="M592.144,252.843a.758.758,0,1,0,.758.758A.765.765,0,0,0,592.144,252.843Zm-2.344-6.274v.758h.758l1.448,3.033-.552.965a.874.874,0,0,0-.069.414.765.765,0,0,0,.758.758H596.9v-.827h-4.619a.068.068,0,0,1-.069-.069v-.069l.345-.689h2.9a.692.692,0,0,0,.689-.414l1.448-2.551a.253.253,0,0,0,.069-.207.4.4,0,0,0-.414-.414h-5.86l-.345-.758H589.8Zm6.274,6.274a.758.758,0,1,0,.758.758A.723.723,0,0,0,596.074,252.843Z" transform="translate(-589.8 -246.5)" fill="#05d3c3"/>
        </g>
      </g>
    </g>
    <g id="Group_2512" data-name="Group 2512" transform="translate(-11249.233 -7844.668)">
      <g id="Group_2510" data-name="Group 2510" transform="translate(0 0)">
        <path id="Path_2342" data-name="Path 2342" d="M481.08,442.706a10.1,10.1,0,0,0,1.93-6.549,9.772,9.772,0,0,0-19.51.758,9.9,9.9,0,0,0,2,5.929,53.637,53.637,0,0,0,6.963,6.549h0c.069.069.138.069.138.138h0a1.043,1.043,0,0,0,1.31-.138,46.147,46.147,0,0,0,6.963-6.549h0c.138,0,.138-.069.207-.138Z" transform="translate(-463.5 -427.183)" fill="#f9840f"/>
        <circle id="Ellipse_185" data-name="Ellipse 185" cx="7.515" cy="7.515" r="7.515" transform="translate(2.206 2.218)" fill="#fff"/>
      </g>
      <g id="Group_2511" data-name="Group 2511" transform="translate(6.274 5.527)">
        <path id="Path_2343" data-name="Path 2343" d="M477.977,435.958h.965a.671.671,0,0,1,.552.689v5.446a.709.709,0,0,1-.758.689h-5.377a.765.765,0,0,1-.758-.758v-5.308a.723.723,0,0,1,.758-.758h.758v-.345a.4.4,0,0,1,.414-.414.437.437,0,0,1,.414.345v.414h2.275v-.345a.414.414,0,0,1,.827,0A.622.622,0,0,0,477.977,435.958Zm-4.55,1.586v4.55h5.308v-4.55Z" transform="translate(-472.6 -435.2)" fill="#f9840f"/>
        <path id="Path_2344" data-name="Path 2344" d="M476.412,442.484c-.276-.207-.483-.483-.758-.689a.419.419,0,0,1,0-.552h0a.419.419,0,0,1,.551,0l.207.207a.419.419,0,0,0,.552,0l.9-.9a.419.419,0,0,1,.552,0h0a.417.417,0,0,1,0,.551c-.483.483-.965.965-1.448,1.379A.419.419,0,0,1,476.412,442.484Z" transform="translate(-473.516 -436.831)" fill="#f9840f"/>
      </g>
    </g>
    <g id="Group_2514" data-name="Group 2514" transform="translate(-11199.862 -7894.706)">
      <g id="Group_2513" data-name="Group 2513" transform="translate(0 0)">
        <path id="Path_2345" data-name="Path 2345" d="M552.68,370.106a10.1,10.1,0,0,0,1.93-6.549,9.772,9.772,0,0,0-19.51.758,9.9,9.9,0,0,0,2,5.929,53.638,53.638,0,0,0,6.963,6.549h0c.069.069.138.069.138.138h0a1.043,1.043,0,0,0,1.31-.138,46.141,46.141,0,0,0,6.963-6.549h0c.138-.069.207-.069.207-.138Z" transform="translate(-535.1 -354.582)" fill="#20b73c"/>
        <circle id="Ellipse_186" data-name="Ellipse 186" cx="7.515" cy="7.515" r="7.515" transform="translate(2.275 2.218)" fill="#fff"/>
      </g>
      <path id="Path_2346" data-name="Path 2346" d="M549.906,362.772a.068.068,0,0,0-.069.069l-1.241,1.241a.541.541,0,0,0,0,.758l.552.552a.629.629,0,0,0,.827,0l1.241-1.241.069-.069a2.461,2.461,0,0,1-.689,2.964,2.736,2.736,0,0,1-2.62.483c-.069,0-.069,0-.138.069-.62.758-1.241,1.517-1.861,2.344a1.429,1.429,0,0,1-1.448.483,1.4,1.4,0,0,1-1.034-1.172,1.381,1.381,0,0,1,.552-1.31c.483-.345.9-.758,1.379-1.1.276-.207.552-.483.827-.689.069-.069.069-.069.069-.207a2.991,2.991,0,0,1,.345-2.413,2.378,2.378,0,0,1,2.206-1.034,1.8,1.8,0,0,1,1.034.276Zm-5.033,6.825a.483.483,0,1,0-.483-.483A.518.518,0,0,0,544.873,369.6Z" transform="translate(-537.703 -357.038)" fill="#20b73c"/>
    </g>
    <g id="Group_2575" data-name="Group 2575" transform="translate(-11439.468 -7819.058)">
      <g id="Group_2563" data-name="Group 2563" transform="translate(0 0)">
        <g id="Group_2562" data-name="Group 2562">
          <g transform="matrix(1, 0, 0, 1, -112.07, -281.57)" filter="url(#Path_2411)">
            <path id="Path_2411-4" data-name="Path 2411" d="M318.275,501.48H184.266a2.605,2.605,0,0,1-2.666-2.524V457.124a2.605,2.605,0,0,1,2.666-2.524H318.275a2.605,2.605,0,0,1,2.666,2.524v41.832A2.605,2.605,0,0,1,318.275,501.48Z" transform="translate(-69.53 -173.03)" fill="#fff"/>
          </g>
        </g>
      </g>
      <g id="Group_2574" data-name="Group 2574" transform="translate(6.186 6.205)">
        <path id="Path_2413" data-name="Path 2413" d="M299.864,476.461H264.031a1.443,1.443,0,0,1-1.431-1.431h0a1.443,1.443,0,0,1,1.431-1.431h35.833a1.443,1.443,0,0,1,1.431,1.431h0A1.443,1.443,0,0,1,299.864,476.461Z" transform="translate(-215.962 -467.304)" fill="#e1eaf9"/>
        <path id="Path_2414" data-name="Path 2414" d="M328.249,491.361H263.931a1.443,1.443,0,0,1-1.431-1.431h0a1.443,1.443,0,0,1,1.431-1.431h64.318a1.443,1.443,0,0,1,1.431,1.431h0A1.443,1.443,0,0,1,328.249,491.361Z" transform="translate(-215.926 -472.514)" fill="#e1eaf9"/>
        <path id="Path_2415" data-name="Path 2415" d="M328.249,506.362H263.931a1.443,1.443,0,0,1-1.431-1.431h0a1.443,1.443,0,0,1,1.431-1.431h64.318a1.443,1.443,0,0,1,1.431,1.431h0A1.443,1.443,0,0,1,328.249,506.362Z" transform="translate(-215.926 -477.759)" fill="#e1eaf9"/>
        <g id="Group_2573" data-name="Group 2573" transform="translate(0 0)">
          <path id="Path_2412" data-name="Path 2412" d="M222.822,498.071H194.627a3.767,3.767,0,0,1-3.827-3.68V467.28a3.767,3.767,0,0,1,3.827-3.68h28.195a3.767,3.767,0,0,1,3.827,3.68v27.11A3.767,3.767,0,0,1,222.822,498.071Z" transform="translate(-190.8 -463.6)" fill="#f9840f"/>
          <g id="Group_2567" data-name="Group 2567" transform="translate(8.273 6.205)" opacity="0.5">
            <path id="Path_2416" data-name="Path 2416" d="M221.693,491.657a9.312,9.312,0,1,0-14.86.133,50.759,50.759,0,0,0,6.664,6.264h0c.067.067.133.067.133.133h0a1.009,1.009,0,0,0,1.266-.133,40.5,40.5,0,0,0,6.664-6.264h0c.067-.067.133-.067.133-.133Z" transform="translate(-204.9 -476.79)" fill="#fff"/>
            <ellipse id="Ellipse_189" data-name="Ellipse 189" cx="7.197" cy="7.197" rx="7.197" ry="7.197" transform="translate(2.132 2.139)" fill="#f9840f"/>
            <g id="Group_2566" data-name="Group 2566" transform="translate(5.997 5.138)">
              <path id="Path_2417" data-name="Path 2417" d="M219.1,485.233h.933a.649.649,0,0,1,.533.666v5.264a.685.685,0,0,1-.733.666h-5.2a.739.739,0,0,1-.733-.733v-5.131a.7.7,0,0,1,.733-.733h.733V484.9a.384.384,0,0,1,.4-.4.422.422,0,0,1,.4.333v.4h2.2V484.9a.4.4,0,0,1,.8,0A.5.5,0,0,0,219.1,485.233Zm-4.465,1.466v4.4h5.131v-4.4Z" transform="translate(-213.9 -484.5)" fill="#fff"/>
              <path id="Path_2418" data-name="Path 2418" d="M217.683,491.716c-.267-.2-.466-.467-.733-.666a.405.405,0,0,1,0-.533h0a.405.405,0,0,1,.533,0l.2.2a.405.405,0,0,0,.533,0l.866-.866a.405.405,0,0,1,.533,0h0a.4.4,0,0,1,0,.533c-.466.466-.933.933-1.4,1.333A.4.4,0,0,1,217.683,491.716Z" transform="translate(-214.884 -486.252)" fill="#fff"/>
            </g>
          </g>
        </g>
      </g>
    </g>
    <g id="Group_2578" data-name="Group 2578" transform="translate(-11439.468 -7874.193)">
      <g id="Group_2576" data-name="Group 2576" transform="translate(0 0)">
        <g id="Group_2563-2" data-name="Group 2563">
          <g id="Group_2562-2" data-name="Group 2562">
            <g transform="matrix(1, 0, 0, 1, -112.07, -226.43)" filter="url(#Path_2411-2)">
              <path id="Path_2411-5" data-name="Path 2411" d="M318.275,501.48H184.266a2.605,2.605,0,0,1-2.666-2.524V457.124a2.605,2.605,0,0,1,2.666-2.524H318.275a2.605,2.605,0,0,1,2.666,2.524v41.832A2.605,2.605,0,0,1,318.275,501.48Z" transform="translate(-69.53 -228.17)" fill="#fff"/>
            </g>
          </g>
        </g>
        <g id="Group_2574-2" data-name="Group 2574" transform="translate(6.186 6.205)">
          <path id="Path_2413-2" data-name="Path 2413" d="M299.864,476.461H264.031a1.443,1.443,0,0,1-1.431-1.431h0a1.443,1.443,0,0,1,1.431-1.431h35.833a1.443,1.443,0,0,1,1.431,1.431h0A1.443,1.443,0,0,1,299.864,476.461Z" transform="translate(-215.962 -467.304)" fill="#e1eaf9"/>
          <path id="Path_2414-2" data-name="Path 2414" d="M328.249,491.361H263.931a1.443,1.443,0,0,1-1.431-1.431h0a1.443,1.443,0,0,1,1.431-1.431h64.318a1.443,1.443,0,0,1,1.431,1.431h0A1.443,1.443,0,0,1,328.249,491.361Z" transform="translate(-215.926 -472.514)" fill="#e1eaf9"/>
          <path id="Path_2415-2" data-name="Path 2415" d="M328.249,506.362H263.931a1.443,1.443,0,0,1-1.431-1.431h0a1.443,1.443,0,0,1,1.431-1.431h64.318a1.443,1.443,0,0,1,1.431,1.431h0A1.443,1.443,0,0,1,328.249,506.362Z" transform="translate(-215.926 -477.759)" fill="#e1eaf9"/>
          <g id="Group_2573-2" data-name="Group 2573" transform="translate(0 0)">
            <path id="Path_2412-2" data-name="Path 2412" d="M222.822,498.071H194.627a3.767,3.767,0,0,1-3.827-3.68V467.28a3.767,3.767,0,0,1,3.827-3.68h28.195a3.767,3.767,0,0,1,3.827,3.68v27.11A3.767,3.767,0,0,1,222.822,498.071Z" transform="translate(-190.8 -463.6)" fill="#05d3c3"/>
          </g>
        </g>
      </g>
      <g id="Group_2560" data-name="Group 2560" transform="translate(14.637 12.409)" opacity="0.75">
        <path id="Path_2409" data-name="Path 2409" d="M221.393,400.457a9.312,9.312,0,1,0-14.86.133,50.762,50.762,0,0,0,6.664,6.264h0c.067.067.133.067.133.133h0a1.009,1.009,0,0,0,1.266-.133,40.5,40.5,0,0,0,6.664-6.264h0c.067-.067.133-.067.133-.133Z" transform="translate(-204.6 -385.59)" fill="#fff"/>
        <ellipse id="Ellipse_188" data-name="Ellipse 188" cx="7.197" cy="7.197" rx="7.197" ry="7.197" transform="translate(2.132 2.073)" fill="#05d3c3"/>
        <g id="Group_2559" data-name="Group 2559" transform="translate(5.531 5.938)">
          <g id="shopping-cart_1_">
            <path id="Path_2410" data-name="Path 2410" d="M215.166,400.564a.733.733,0,1,0,.733.733A.74.74,0,0,0,215.166,400.564ZM212.9,394.5v.733h.733l1.4,2.932-.533.933a.845.845,0,0,0-.067.4.74.74,0,0,0,.733.733h4.6V399.5H215.3a.065.065,0,0,1-.067-.067v-.067l.333-.666h2.8a.669.669,0,0,0,.666-.4l1.4-2.466a.245.245,0,0,0,.067-.2.384.384,0,0,0-.4-.4h-5.664l-.333-.733h-1.2Zm6.064,6.064a.733.733,0,1,0,.733.733A.7.7,0,0,0,218.964,400.564Z" transform="translate(-212.9 -394.5)" fill="#fff"/>
          </g>
        </g>
      </g>
    </g>
    <g id="Group_2579" data-name="Group 2579" transform="translate(-11439.488 -7992.045)">
      <g id="Group_2577" data-name="Group 2577" transform="translate(0 0)">
        <g id="Group_2563-3" data-name="Group 2563">
          <g id="Group_2562-3" data-name="Group 2562">
            <g transform="matrix(1, 0, 0, 1, -112.05, -108.58)" filter="url(#Path_2411-3)">
              <path id="Path_2411-6" data-name="Path 2411" d="M318.275,501.48H184.266a2.605,2.605,0,0,1-2.666-2.524V457.124a2.605,2.605,0,0,1,2.666-2.524H318.275a2.605,2.605,0,0,1,2.666,2.524v41.832A2.605,2.605,0,0,1,318.275,501.48Z" transform="translate(-69.55 -346.02)" fill="#fff"/>
            </g>
          </g>
        </g>
        <g id="Group_2574-3" data-name="Group 2574" transform="translate(6.186 6.205)">
          <path id="Path_2413-3" data-name="Path 2413" d="M299.864,476.461H264.031a1.443,1.443,0,0,1-1.431-1.431h0a1.443,1.443,0,0,1,1.431-1.431h35.833a1.443,1.443,0,0,1,1.431,1.431h0A1.443,1.443,0,0,1,299.864,476.461Z" transform="translate(-215.962 -467.304)" fill="#e1eaf9"/>
          <path id="Path_2414-3" data-name="Path 2414" d="M328.249,491.361H263.931a1.443,1.443,0,0,1-1.431-1.431h0a1.443,1.443,0,0,1,1.431-1.431h64.318a1.443,1.443,0,0,1,1.431,1.431h0A1.443,1.443,0,0,1,328.249,491.361Z" transform="translate(-215.926 -472.514)" fill="#e1eaf9"/>
          <path id="Path_2415-3" data-name="Path 2415" d="M328.249,506.362H263.931a1.443,1.443,0,0,1-1.431-1.431h0a1.443,1.443,0,0,1,1.431-1.431h64.318a1.443,1.443,0,0,1,1.431,1.431h0A1.443,1.443,0,0,1,328.249,506.362Z" transform="translate(-215.926 -477.759)" fill="#e1eaf9"/>
          <g id="Group_2573-3" data-name="Group 2573" transform="translate(0 0)">
            <path id="Path_2412-3" data-name="Path 2412" d="M222.822,498.071H194.627a3.767,3.767,0,0,1-3.827-3.68V467.28a3.767,3.767,0,0,1,3.827-3.68h28.195a3.767,3.767,0,0,1,3.827,3.68v27.11A3.767,3.767,0,0,1,222.822,498.071Z" transform="translate(-190.8 -463.6)" fill="#4353ff"/>
          </g>
        </g>
      </g>
      <g id="Group_2553" data-name="Group 2553" transform="translate(15.037 13.788)" opacity="0.4">
        <g id="Group_2552" data-name="Group 2552">
          <path id="Path_2402" data-name="Path 2402" d="M221.993,220.457a9.312,9.312,0,1,0-14.86.133,50.764,50.764,0,0,0,6.664,6.264h0c.067.067.133.067.133.133h0a1.008,1.008,0,0,0,1.266-.133,40.5,40.5,0,0,0,6.664-6.264h0c.067-.067.133-.067.133-.133Z" transform="translate(-205.2 -205.59)" fill="#fff"/>
          <ellipse id="Ellipse_187" data-name="Ellipse 187" cx="7.197" cy="7.197" rx="7.197" ry="7.197" transform="translate(2.132 2.139)" fill="#3e62f5"/>
        </g>
        <path id="Path_2403" data-name="Path 2403" d="M220.93,216.032a.87.87,0,0,0-.466-.8,4.482,4.482,0,0,1-.733-.466c-.6-.333-1.133-.733-1.733-1.066a1.1,1.1,0,0,0-1.266,0l-2,1.2c-.133.133-.333.2-.466.333a1.016,1.016,0,0,0-.466.8v3.532a.911.911,0,0,0,.933.933H220a.84.84,0,0,0,.866-.866v-3.2Zm-3,2.066v1.6H216.8v-1.6Zm2.2.533v1c0,.133,0,.133-.133.133h-1.266v-2a.353.353,0,0,0-.4-.4h-1.866a.353.353,0,0,0-.4.4v2H214.8c-.067,0-.133,0-.133-.133v-3.6c0-.067,0-.067.067-.133a9.866,9.866,0,0,1,.866-.533l1.6-1a.569.569,0,0,1,.466,0c.466.267.866.533,1.333.8.4.2.733.466,1.133.666.067.067.067.067.067.133C220.131,216.9,220.131,217.765,220.131,218.631Z" transform="translate(-208.069 -208.229)" fill="#fff"/>
      </g>
    </g>
    <g id="Group_2580" data-name="Group 2580" transform="translate(-11439.488 -8013.398)">
      <g transform="matrix(1, 0, 0, 1, -112.05, -87.23)" filter="url(#Rectangle_918)">
        <rect id="Rectangle_918-2" data-name="Rectangle 918" width="139.261" height="13.788" rx="4" transform="translate(112.05 87.23)" fill="#fff"/>
      </g>
      <path id="Rectangle_919" data-name="Rectangle 919" d="M1,0H12.546a4,4,0,0,1,4,4V9.788a4,4,0,0,1-4,4H1a1,1,0,0,1-1-1V1A1,1,0,0,1,1,0Z" transform="translate(122.715)" fill="#6d79ff"/>
      <path id="Path_2419" data-name="Path 2419" d="M299.864,476.461H264.031a1.443,1.443,0,0,1-1.431-1.431h0a1.443,1.443,0,0,1,1.431-1.431h35.833a1.443,1.443,0,0,1,1.431,1.431h0A1.443,1.443,0,0,1,299.864,476.461Z" transform="translate(-256.637 -467.395)" fill="#e6e1f9"/>
      <path id="Icon_ionic-ios-search" data-name="Icon ionic-ios-search" d="M11.314,10.888,9.4,8.953a2.733,2.733,0,1,0-.415.42L10.887,11.3a.3.3,0,0,0,.417.011A.3.3,0,0,0,11.314,10.888ZM7.249,9.4a2.158,2.158,0,1,1,1.526-.632A2.145,2.145,0,0,1,7.249,9.4Z" transform="translate(123.041 -1.046)" fill="#fff"/>
    </g>
    <g id="Group_2485" data-name="Group 2485" transform="translate(-11481.542 -7938.191)">
      <g id="Group_2480" data-name="Group 2480" transform="translate(0 0)">
        <g id="Group_2479" data-name="Group 2479">
          <g transform="matrix(1, 0, 0, 1, -70, -162.43)" filter="url(#Path_2187)">
            <path id="Path_2187-2" data-name="Path 2187" d="M329.959,328.289h-181A2.885,2.885,0,0,1,146,325.5V272.184a2.885,2.885,0,0,1,2.961-2.784H329.885a2.885,2.885,0,0,1,2.961,2.784V325.5A2.774,2.774,0,0,1,329.959,328.289Z" transform="translate(-76 -106.97)" fill="#fff"/>
          </g>
        </g>
      </g>
      <g id="Group_2481" data-name="Group 2481" transform="translate(11.038 8.423)">
        <path id="Path_2188" data-name="Path 2188" d="M197.567,323.544H163.877a4.189,4.189,0,0,1-4.177-4.177V285.677a4.189,4.189,0,0,1,4.177-4.177h33.691a4.189,4.189,0,0,1,4.177,4.177v33.691A4.189,4.189,0,0,1,197.567,323.544Z" transform="translate(-159.7 -281.5)" fill="#f7117a" opacity="0.8"/>
        <path id="Path_2189" data-name="Path 2189" d="M279.319,295.472H237.831a1.545,1.545,0,0,1-1.531-1.531v-.209a1.545,1.545,0,0,1,1.531-1.531h41.487a1.545,1.545,0,0,1,1.531,1.531v.209A1.545,1.545,0,0,1,279.319,295.472Z" transform="translate(-182.979 -284.752)" fill="#ff3f99" opacity="0.5"/>
        <path id="Path_2190" data-name="Path 2190" d="M317.39,311.572H237.94a1.6,1.6,0,0,1-1.64-1.531v-.209a1.6,1.6,0,0,1,1.64-1.531h79.45a1.6,1.6,0,0,1,1.64,1.531v.209A1.6,1.6,0,0,1,317.39,311.572Z" transform="translate(-182.979 -289.645)" fill="#ff3f99" opacity="0.15"/>
        <path id="Path_2191" data-name="Path 2191" d="M330.9,327.672H238.213a1.77,1.77,0,0,1-1.913-1.531v-.209a1.77,1.77,0,0,1,1.913-1.531H330.9a1.77,1.77,0,0,1,1.913,1.531v.209A1.77,1.77,0,0,1,330.9,327.672Z" transform="translate(-182.979 -294.538)" fill="#ff3f99" opacity="0.15"/>
      </g>
      <g id="Group_2484" data-name="Group 2484" transform="translate(22.941 19.205)" opacity="0.5">
        <g id="Group_2482" data-name="Group 2482">
          <path id="Path_2192" data-name="Path 2192" d="M194.342,312.52a9.727,9.727,0,1,0-15.523.139,53.032,53.032,0,0,0,6.961,6.543h0c.07.07.139.07.139.139h0a1.054,1.054,0,0,0,1.323-.139,42.308,42.308,0,0,0,6.961-6.543h0l.139-.139Z" transform="translate(-176.8 -296.99)" fill="#fff"/>
          <ellipse id="Ellipse_180" data-name="Ellipse 180" cx="7.518" cy="7.518" rx="7.518" ry="7.518" transform="translate(2.158 2.235)" fill="#f7117a" opacity="0.8"/>
        </g>
        <g id="Group_2483" data-name="Group 2483" transform="translate(6.126 5.158)">
          <path id="Path_2193" data-name="Path 2193" d="M185.6,306.279v-1.462a.285.285,0,1,1,.557,0v2.227c0,.139,0,.209.209.209h.278c.139,0,.139,0,.139-.139v-2.436c0-.139.139-.209.278-.209a.3.3,0,0,1,.278.278v2.3c0,.209,0,.209.209.209h.348a.185.185,0,0,0,.209-.209v-2.436c.07-.139.139-.209.278-.209s.209.139.278.278v2.854a1.568,1.568,0,0,1-1.183,1.531,1.49,1.49,0,0,1-1.81-1.253v-.7A3.39,3.39,0,0,1,185.6,306.279Z" transform="translate(-185.6 -304.4)" fill="#fff"/>
          <path id="Path_2194" data-name="Path 2194" d="M194.472,307.353a2.793,2.793,0,0,1-.209,1.044,1.513,1.513,0,0,1-1.183.766,1.588,1.588,0,0,1-1.671-.835,2.649,2.649,0,0,1-.209-1.253,7.394,7.394,0,0,1,.278-1.323,2.92,2.92,0,0,1,.627-.975.93.93,0,0,1,1.392.07,2.554,2.554,0,0,1,.7,1.183A2.825,2.825,0,0,1,194.472,307.353Zm-.766-.209h0c0-.278-.07-.557-.07-.766a1.545,1.545,0,0,0-.348-.766.546.546,0,0,0-.766,0,1.456,1.456,0,0,0-.278.418,2.223,2.223,0,0,0-.209,1.323,1.312,1.312,0,0,0,.139.557.789.789,0,0,0,1.392,0A1.264,1.264,0,0,0,193.706,307.144Z" transform="translate(-187.302 -304.429)" fill="#fff"/>
          <path id="Path_2195" data-name="Path 2195" d="M186.639,311.5a1.782,1.782,0,0,0,1.462,0,2.368,2.368,0,0,0,.07.7c.07.626.07,1.253.139,1.879,0,.418.07.835.07,1.183a.948.948,0,0,1-1.879.209v-.418c.07-1.044.139-2.158.209-3.2C186.639,311.848,186.639,311.709,186.639,311.5Z" transform="translate(-185.874 -306.558)" fill="#fff"/>
          <path id="Path_2196" data-name="Path 2196" d="M192.539,311.6a2.112,2.112,0,0,0,1.462,0,1.532,1.532,0,0,0,.07.557c.07.766.07,1.462.139,2.228,0,.348.07.7.07,1.044a1,1,0,0,1-.835,1.044.934.934,0,0,1-1.044-.835v-.7c0-.487.07-1.044.07-1.531a15.739,15.739,0,0,1,.07-1.81Z" transform="translate(-187.667 -306.588)" fill="#fff"/>
        </g>
      </g>
    </g>
    <g id="Group_3225" data-name="Group 3225" transform="translate(-11103.648 -7904.814)">
      <ellipse id="Ellipse_269" data-name="Ellipse 269" cx="35.286" cy="7.841" rx="35.286" ry="7.841" transform="translate(23.799 167.506)" opacity="0.1" fill="url(#linear-gradient)"/>
      <g id="Group_3224" data-name="Group 3224" transform="translate(0 0)">
        <path id="Path_3302" data-name="Path 3302" d="M412.107,324.661h0a.68.68,0,0,1-.03.078v0a.469.469,0,0,1-.038.067l0,0a.382.382,0,0,1-.045.055l-.007.007a.5.5,0,0,1-.051.043l-.015.009a.6.6,0,0,1-.055.032l-.026.01c-.019.007-.037.015-.057.022s-.032.007-.047.011l-.05.011a.968.968,0,0,1-.112.013.261.261,0,0,1-.059,0,.284.284,0,0,1-.046-.011l-.008,0a.3.3,0,0,1-.1-.058h0c-.436-.374-.408-2.082-.558-3.016-.009-.061-.019-.118-.029-.173l0-.01c-.009-.052-.018-.1-.027-.148l0-.017c-.009-.045-.018-.088-.027-.13l0-.016c-.009-.04-.017-.078-.026-.113l0-.016c-.009-.035-.017-.068-.025-.1l0-.014c-.008-.03-.017-.06-.025-.086l0-.012c-.008-.026-.017-.051-.025-.074l0-.008c-.008-.022-.016-.044-.025-.063l0,0c-.008-.019-.017-.037-.025-.053h0a.285.285,0,0,0-.074-.1h0a.063.063,0,0,0-.022-.011h0a.061.061,0,0,0-.021,0h0a.055.055,0,0,0-.02.007h0a.083.083,0,0,0-.019.015.11.11,0,0,0-.016.017,21.088,21.088,0,0,0-.081,3.4,6.974,6.974,0,0,1-.084,2.237h0c-.01.028-.021.055-.032.081l0,.009c-.011.024-.022.045-.035.067l0,.007a.586.586,0,0,1-.094.121l0,0a.385.385,0,0,1-.047.038l-.016.011a.4.4,0,0,1-.042.023l-.021.009a.407.407,0,0,1-.046.015l-.02,0a.513.513,0,0,1-.071.009.4.4,0,0,1-.079-.006l-.018,0a.4.4,0,0,1-.065-.019l-.007,0a.43.43,0,0,1-.137-.095l0,0c-.013-.013-.025-.026-.037-.04h0a5.5,5.5,0,0,1-.45-2.4v-.015l-.007-.1,0-.04-.006-.084,0-.04c0-.04-.006-.081-.01-.121-.112-1.367.1-2.674-.227-2.687s-.519,5.031-.557,5.405a3.728,3.728,0,0,1-.267,1.294h0c-.012.022-.025.043-.038.063l0,.006q-.017.025-.035.048l-.01.012-.034.037-.011.011a.538.538,0,0,1-.045.039l0,0a.428.428,0,0,1-.051.033l-.014.007-.041.018-.019.006a.343.343,0,0,1-.042.011l-.019,0a.417.417,0,0,1-.064.005.528.528,0,0,1-.064,0l-.019,0-.043-.01-.018-.006a.255.255,0,0,1-.043-.017l-.012-.005a.536.536,0,0,1-.052-.03l0,0a.408.408,0,0,1-.045-.035l-.01-.009-.035-.036-.009-.009a.805.805,0,0,1-.078-.109h0a3.252,3.252,0,0,1-.252-1.37c-.017-.565,0-2.138.1-3.45s.136-1.733-.074-1.788a.026.026,0,0,0-.016,0l-.009,0h0a21.792,21.792,0,0,0-1.042,4.01,3.577,3.577,0,0,1-.588,1.526h0a.91.91,0,0,1-.155.149l0,0-.034.023-.011.007-.032.019-.014.007-.03.014-.016.006-.03.011-.017,0a.416.416,0,0,1-.049.01l-.027,0h-.051l-.023,0-.029,0-.022,0-.032-.007-.021-.006-.035-.012-.018-.007c-.018-.007-.036-.016-.054-.025a.356.356,0,0,1-.048-.032l-.017-.014-.025-.024a.2.2,0,0,1-.019-.02.387.387,0,0,1-.03-.038h0c-.387-.559.114-2.353.344-3.436a27.473,27.473,0,0,0,.675-4.086c-.015-.846.143-1.615-.3-1.541-.1.011-.181.016-.231.018a2.994,2.994,0,0,0-1.349.983,2.459,2.459,0,0,1-1.767.657c-.256-.011-.462-.092-.493-.256h0a.156.156,0,0,1,0-.034v0a.321.321,0,0,1,0-.034v0c0-.011,0-.022.006-.034l0-.006c0-.011.006-.023.01-.035l0-.007a.329.329,0,0,1,.014-.037l0-.008a.422.422,0,0,1,.019-.038l.005-.009c.007-.013.015-.026.025-.04l.006-.01.03-.041.007-.01.035-.044.009-.011.041-.046.01-.01.048-.049.01-.01.055-.052.01-.009.063-.056.01-.008.072-.06.009-.007.083-.065.005,0c.035-.027.072-.054.111-.082a8.849,8.849,0,0,0,2.588-3.191c.388-.948.553-1.587,1.622-1.888.351-.1.247-8.072.185-9.237s4.8-.685,4.759.265-1.145,9.14-.666,9.534.7.848,1.01,2.481c.157.816.35,2.4.493,3.719,0,0,.282,2.489.292,3.453A4.132,4.132,0,0,1,412.107,324.661Z" transform="translate(-322.886 -221.541)" fill="#f4b799"/>
        <g id="Group_3223" data-name="Group 3223">
          <g id="Group_3221" data-name="Group 3221" transform="translate(35.122 170.958)">
            <path id="Path_3304" data-name="Path 3304" d="M352.334,454.051a3.238,3.238,0,0,1-2.644,2.23c-3.012.361-17.217-1.279-17.957-4.823a5.427,5.427,0,0,1-.114-.828c-.189-2.848,2.243-3.577,4.948-3.288a35.307,35.307,0,0,0,7.333-.362l8.821,1.551A11.121,11.121,0,0,1,352.334,454.051Z" transform="translate(-331.608 -446.979)" fill="#364381"/>
            <path id="Path_3305" data-name="Path 3305" d="M352.34,456.283a3.238,3.238,0,0,1-2.644,2.23c-3.012.361-17.217-1.279-17.957-4.823a5.438,5.438,0,0,1-.114-.828,19.186,19.186,0,0,1,2.637,1.371,25.15,25.15,0,0,0,9.969,2.477,33.432,33.432,0,0,0,5.693-.222A20.539,20.539,0,0,1,352.34,456.283Z" transform="translate(-331.615 -449.211)" fill="#364381" opacity="0.3" style="mix-blend-mode: soft-light;isolation: isolate"/>
          </g>
          <g id="Group_3222" data-name="Group 3222" transform="translate(62.269 168.461)">
            <path id="Path_3306" data-name="Path 3306" d="M396.082,450.028a3.238,3.238,0,0,1-2.644,2.229c-3.011.361-17.217-1.279-17.956-4.823a5.352,5.352,0,0,1-.114-.828c-.19-2.848,2.243-3.577,4.948-3.288a35.25,35.25,0,0,0,7.332-.362l8.821,1.551A11.111,11.111,0,0,1,396.082,450.028Z" transform="translate(-375.357 -442.956)" fill="#283368"/>
            <path id="Path_3307" data-name="Path 3307" d="M396.089,452.26a3.238,3.238,0,0,1-2.644,2.229c-3.011.36-17.217-1.279-17.956-4.823a5.351,5.351,0,0,1-.114-.828,19.276,19.276,0,0,1,2.637,1.371,25.154,25.154,0,0,0,9.969,2.477,33.512,33.512,0,0,0,5.694-.222A20.383,20.383,0,0,1,396.089,452.26Z" transform="translate(-375.364 -445.188)" opacity="0.3" style="mix-blend-mode: soft-light;isolation: isolate"/>
          </g>
          <path id="Path_3308" data-name="Path 3308" d="M394.481,395.512l-10.473-1.389c1.18-7.526-3.424-27.857-5.62-35.327-.94-3.207-2.878-11.974-4.786-20.93-1.16-5.439-2.306-10.95-3.206-15.333-.331-1.6-.628-3.051-.883-4.293-.578-2.816-.93-4.564-.93-4.564l17.85,3.481s.205,2.171.555,5.549c1.04,10.191,3.329,31.322,4.967,36.767C394.128,366.721,394.481,395.512,394.481,395.512Z" transform="translate(-310.517 -225.436)" fill="url(#linear-gradient-2)"/>
          <path id="Path_3309" data-name="Path 3309" d="M373.371,320.148a51.455,51.455,0,0,1-.776,5.543c-.915,4.777-2.833,11.374-6.692,14.435-.076.062-.152.124-.228.2-5.162,4.7-5.174,25.688-5.174,25.688s.649,29.3-1.59,34.887l-9.649-1.985s-1.045-37.172-1.4-41.424c-.295-3.565-.233-24.018.339-32.707a25.269,25.269,0,0,1,.382-3.484l13-.6Z" transform="translate(-302.59 -227.893)" fill="url(#linear-gradient-3)"/>
          <path id="Path_3310" data-name="Path 3310" d="M379.374,322.7c-.918.132-1.841.208-2.764.289-1.23.107-2.47.215-3.7.24a20.2,20.2,0,0,1-3.513-.177c-.951-.14-1.883-.362-2.833-.482a20.842,20.842,0,0,0-3.781-.043c-.207.012-.409.029-.616.041-2.05.133-4.1.3-6.156.341-2.174.048-5.229.249-7.492-.589a25.277,25.277,0,0,1,.382-3.484l13-.6c-.578-2.816-.93-4.564-.93-4.564l17.85,3.481S379.024,319.327,379.374,322.7Z" transform="translate(-302.903 -225.436)" opacity="0.3" style="mix-blend-mode: soft-light;isolation: isolate"/>
          <path id="Path_3311" data-name="Path 3311" d="M365.364,219.042l.485,14.525,11.033,2.3s-2.115-15.693.406-22.623Z" transform="translate(-309.296 -187.328)" fill="#fbc1a5"/>
          <path id="Path_3312" data-name="Path 3312" d="M365.536,224.328s6.851-2.091,8.71-5.577c0,0-1.934,6.549-8.673,6.656Z" transform="translate(-309.361 -189.415)" opacity="0.6" style="mix-blend-mode: soft-light;isolation: isolate"/>
          <path id="Path_3313" data-name="Path 3313" d="M359.341,180.789s-5,8.977-4.281,18.431,5.647,12.543,12.142,9.866,8.419-14.712,6.761-20.669S366.468,178.364,359.341,180.789Z" transform="translate(-305.359 -174.741)" fill="#fbc1a5"/>
          <path id="Path_3314" data-name="Path 3314" d="M275.042,200.288c.009-.03.019-.053.027-.078a.751.751,0,0,1,.342-.528.681.681,0,0,1,.786-.127c.022-.047.045-.093.069-.14a.829.829,0,0,1,.229-1.22.742.742,0,0,1,.843-.143c.047-.038.1-.075.146-.11a.8.8,0,0,1,.355-.977c.584-.459,1.011-.163,1.484.419.027,0,.053,0,.081,0,.227.007-.444-.75-1.5-2.517-1.072-1.794-2.522-3.765-1.566-4.385.748-.486,1.919,1.205,3.1,3.064.829,1.307,2.23,3.506,2.862,4.367.5.687.872,1.634,1.2,1.786a3.319,3.319,0,0,1,.388-.374c.307-.235.327-1.29.571-2.006a2.829,2.829,0,0,1,1.516-1.94c.643-.172,1.105-.133.679,1.214-.021.066-.043.135-.068.208v0c-.025.074-.05.151-.073.229-.019.062-.037.125-.055.188h0a11.29,11.29,0,0,0-.212,4.75c.291,1.26.586,2.037-.295,3.126-.29.358,5.623,8.493,6.535,9.647s-3.945,3.79-4.6,2.786-5.971-9.839-6.75-9.9-1.335-.367-2.848-1.82C277.544,205.1,274.666,201.6,275.042,200.288Z" transform="translate(-275.009 -178.656)" fill="#feccb4"/>
          <g id="Group_3226" data-name="Group 3226" transform="translate(7.986 29.066)">
            <path id="Union_6" data-name="Union 6" d="M38.524,66a1.84,1.84,0,0,1-1.615-1.842c.061-5.578.282-24.256.651-36.4-8.342-2.088-22.617-5.826-25.718-7.691C7.4,17.394,0,2.681,0,2.681L4.612,0,18.6,11.909l30.211-1.5c.192-.012.32-.017.37-.018H49.2c5.618-1.2,9.76-1.1,12.745-.357a13.114,13.114,0,0,1,2.714.979c3.8,1.164,8.408,4.224,11.1,11.941,4.376,12.553,6.423,14.334,6.033,20.885s-1.448,18.215-1.448,18.215l-5.926-1.031L73.152,37.293a1.121,1.121,0,0,0-.3-.706c-.637-.689-2.311-2.529-4.32-4.965A67.946,67.946,0,0,1,67.345,41.99c-1.248,5.115.581,16.865,1.259,20.83a1.835,1.835,0,0,1-1.075,1.993,32.514,32.514,0,0,1-10.653,2.023c-1.331.072-2.682.1-4.019.1A122.718,122.718,0,0,1,38.524,66Z" transform="translate(0 0)" stroke="rgba(0,0,0,0)" stroke-miterlimit="10" stroke-width="1" fill="url(#linear-gradient-4)"/>
          </g>
          <path id="Path_3317" data-name="Path 3317" d="M390.005,266.445c-1.248,5.115.581,16.865,1.259,20.831a1.835,1.835,0,0,1-1.075,1.993,32.529,32.529,0,0,1-10.653,2.022,10.746,10.746,0,0,1,1.849-2.442c2.835-3.428,3.057-8.225,3.52-12.645a81.044,81.044,0,0,1,1.708-10.118,74.567,74.567,0,0,0,1.779-8.337,51.613,51.613,0,0,0-.372-11.5,33.041,33.041,0,0,0-1.882-9.141c-.248-.6-1.083-1.683-1.531-2.616,3.893.963,5.809,3.013,6.439,4.682C391.879,241.37,391.519,260.242,390.005,266.445Z" transform="translate(-314.674 -195.388)" opacity="0.3" style="mix-blend-mode: soft-light;isolation: isolate"/>
          <path id="Union_7" data-name="Union 7" d="M12.3,19.236a15.28,15.28,0,0,1-.155-2.085q-.927-.186-1.933-.45C-3.008,13.21.392,2.54.392,2.54A33.049,33.049,0,0,0,7.6,6.38S4.073,3.83,4.1,0c0,0,3.5,2.76,10.57,4.241C19.72,5.3,23.493,6.095,25.126,8.7h0s8.513,7.324-.583,19.124a5.205,5.205,0,0,1-4.067,2.4C16.675,30.227,13.074,24.731,12.3,19.236Z" transform="translate(45.054)" stroke="rgba(0,0,0,0)" stroke-miterlimit="10" stroke-width="1" fill="url(#linear-gradient-5)"/>
          <path id="Path_3320" data-name="Path 3320" d="M372.481,208.725a2.522,2.522,0,1,1-2.218-2.794A2.522,2.522,0,0,1,372.481,208.725Z" transform="translate(-310.089 -184.545)" fill="#f4b799"/>
        </g>
      </g>
    </g>
    <g id="Group_3235" data-name="Group 3235" transform="translate(-11006.441 -7804.595)">
      <ellipse id="Ellipse_270" data-name="Ellipse 270" cx="13.588" cy="2.816" rx="13.588" ry="2.816" transform="translate(9.463 51.155)" opacity="0.15" fill="url(#linear-gradient)"/>
      <g id="Group_3234" data-name="Group 3234" transform="translate(0 0)">
        <g id="Group_3231" data-name="Group 3231" transform="translate(21.575 8.536)">
          <path id="Path_3321" data-name="Path 3321" d="M416.415,316.218l-.081-.093-1.3-1.481-.132-.148a75.7,75.7,0,0,0,5.906-27.28c.6-16.15,11.032-9.659,9.2.146C428.723,294.262,425.7,306.613,416.415,316.218Z" transform="translate(-414.898 -277.4)" fill="#00ce8a"/>
          <path id="Path_3322" data-name="Path 3322" d="M416.562,322.69l-1.3-1.481c10.311-15.284,9.988-32.639,9.967-33.461A60.648,60.648,0,0,1,416.562,322.69Z" transform="translate(-415.126 -283.966)" opacity="0.3" style="mix-blend-mode: soft-light;isolation: isolate"/>
        </g>
        <g id="Group_3232" data-name="Group 3232" transform="translate(0 12.006)">
          <path id="Path_3323" data-name="Path 3323" d="M377.987,321.493l-.124-.008-1.97-.111-.2-.011A75.717,75.717,0,0,0,360.415,298c-11.082-11.764.867-14.637,6.566-6.452C370.993,297.313,377.664,308.139,377.987,321.493Z" transform="translate(-355.869 -286.893)" fill="#00ce8a"/>
          <path id="Path_3324" data-name="Path 3324" d="M383.409,328.24l-1.97-.111c-3.645-18.073-16.231-30.028-16.831-30.59A60.645,60.645,0,0,1,383.409,328.24Z" transform="translate(-361.414 -293.649)" opacity="0.3" style="mix-blend-mode: soft-light;isolation: isolate"/>
        </g>
        <g id="Group_3233" data-name="Group 3233" transform="translate(12.715)">
          <path id="Path_3325" data-name="Path 3325" d="M400.4,304.9l-.14-.075-2.242-1.174-.226-.117s1.242-15.768-5.462-35.384,8.774-16.636,11.09-4.055C405.05,272.951,407.1,289.132,400.4,304.9Z" transform="translate(-390.657 -254.045)" fill="#00efa1"/>
          <path id="Path_3326" data-name="Path 3326" d="M407.065,313.425l-2.242-1.174c5.326-23.041-3.035-43.677-3.438-44.652A77.79,77.79,0,0,1,407.065,313.425Z" transform="translate(-397.464 -262.645)" opacity="0.3" style="mix-blend-mode: soft-light;isolation: isolate"/>
        </g>
        <path id="Path_3327" data-name="Path 3327" d="M411.778,372.688l-1.493,11.835H397.628l-1.266-10.034-.22-1.74-.007-.062Z" transform="translate(-381.418 -329.325)" fill="url(#linear-gradient-7)"/>
        <path id="Path_3328" data-name="Path 3328" d="M410.59,372.688,409.1,384.523h-2.72c0-.041,0-.08.009-.119a4.715,4.715,0,0,1,1.193-2.031c1.182-1.632,1.359-3.769,1.349-5.783a1.893,1.893,0,0,0-.215-1.049,1.567,1.567,0,0,0-1.008-.581,8.758,8.758,0,0,0-2.372-.056c-1,.06-2.005.091-3.008.091a51.755,51.755,0,0,1-5.346-.272,12.426,12.426,0,0,1-1.805-.234c-.784-.2-1.318-.6-.511-1.484a1.784,1.784,0,0,1,.291-.256,1.027,1.027,0,0,1,.094-.062Z" transform="translate(-380.229 -329.325)" opacity="0.3" style="mix-blend-mode: soft-light;isolation: isolate"/>
        <rect id="Rectangle_1157" data-name="Rectangle 1157" width="18.126" height="3.311" transform="translate(13.475 41.46)" fill="#ffaf18"/>
      </g>
    </g>
  </g>
</svg>
