<svg id="Group_4886" data-name="Group 4886" xmlns="http://www.w3.org/2000/svg" xmlns:xlink="http://www.w3.org/1999/xlink" width="466.771" height="518.895" viewBox="0 0 466.771 518.895">
  <defs>
    <linearGradient id="linear-gradient" x1="1" y1="0.5" x2="0" y2="0.5" gradientUnits="objectBoundingBox">
      <stop offset="0" stop-color="#fff" stop-opacity="0.2"/>
      <stop offset="1" stop-color="#fff" stop-opacity="0.702"/>
    </linearGradient>
    <clipPath id="clip-path">
      <ellipse id="Ellipse_412" data-name="Ellipse 412" cx="36.757" cy="24.607" rx="36.757" ry="24.607" transform="matrix(-0.774, -0.633, 0.633, -0.774, 56.897, 84.641)" fill="none"/>
    </clipPath>
    <linearGradient id="linear-gradient-2" x1="0.5" x2="0.5" y2="1" gradientUnits="objectBoundingBox">
      <stop offset="0" stop-color="#00a899"/>
      <stop offset="1" stop-color="#01dfd5"/>
    </linearGradient>
    <linearGradient id="linear-gradient-3" x1="0.5" x2="0.5" y2="1" gradientUnits="objectBoundingBox">
      <stop offset="0" stop-color="#ff4e95"/>
      <stop offset="1" stop-color="#fa8b0c"/>
    </linearGradient>
  </defs>
  <path id="Path_5464" data-name="Path 5464" d="M750.522,292.033c-16.269-71.517-90.63-114.438-160.453-91.983q-2.1.677-4.243,1.412c-91.273,31.374-61.325,124.075-106.961,152.6s-78.439,69.881-58.472,124.075S561.582,583.67,657.135,525.2C732.245,479.235,771.226,383.041,750.522,292.033Z" transform="translate(-349.696 -75.35)" fill="#00bb45" opacity="0"/>
  <g id="Group_4885" data-name="Group 4885" transform="translate(0 0)">
    <path id="Path_5465" data-name="Path 5465" d="M588.255,499.524h207a6.417,6.417,0,0,0,5.86-9.031L654.239,161.052a6.414,6.414,0,0,0-5.86-3.8h-207a6.417,6.417,0,0,0-5.862,9.031L582.392,495.721A6.419,6.419,0,0,0,588.255,499.524Z" transform="translate(-434.953 -109.575)" fill="url(#linear-gradient)"/>
    <path id="Path_5466" data-name="Path 5466" d="M536.5,290.113,469.7,140.275a5.5,5.5,0,0,1,5.019-7.732H662.155a17.618,17.618,0,0,1,16.093,10.445L746.066,295.1a5.5,5.5,0,0,1-5.019,7.732H556.1A21.456,21.456,0,0,1,536.5,290.113Z" transform="translate(-445.939 -132.543)" fill="#fff"/>
    <path id="Path_5467" data-name="Path 5467" d="M523.937,343.326l-66.8-149.838a5.5,5.5,0,0,1,5.019-7.732H649.593A17.62,17.62,0,0,1,665.684,196.2L733.5,348.314a5.5,5.5,0,0,1-5.019,7.732H543.537A21.459,21.459,0,0,1,523.937,343.326Z" transform="translate(-409.13 -83.073)" fill="none" stroke="#fff" stroke-miterlimit="10" stroke-width="1.109"/>
    <path id="Path_5468" data-name="Path 5468" d="M450.492,239.978h-8.557l23,44.924H603.981l-5.612-10.965" transform="translate(-250.728 -32.665)" fill="none" stroke="#00bb45" stroke-miterlimit="10" stroke-width="0.554" opacity="0.39"/>
    <g id="Group_4846" data-name="Group 4846" transform="translate(151.652 7.304)">
      <g id="Group_4841" data-name="Group 4841" transform="translate(0 0)">
        <g id="Group_4840" data-name="Group 4840" transform="translate(6.197 6.073)">
          <ellipse id="Ellipse_410" data-name="Ellipse 410" cx="37.246" cy="27.988" rx="37.246" ry="27.988" transform="translate(56.288 91.089) rotate(-139.08)" fill="#ffc8e0"/>
        </g>
      </g>
      <g id="Group_4845" data-name="Group 4845" transform="translate(27.912 26.498)">
        <g id="Group_4844" data-name="Group 4844" transform="translate(0)">
          <g id="Group_4843" data-name="Group 4843" transform="translate(0 3.9)">
            <g id="Group_4842" data-name="Group 4842">
              <path id="Path_5469" data-name="Path 5469" d="M527.472,166.427s16.964,2.8,24.207,5.66c4.919,2.962,5.7,5.316,6.875,8.851l.017.035c-3.944,6.895-11.45,11.277-21.251,11.277-12.661,0-25.686-7.306-34.018-17.917C507.84,167.672,527.472,166.427,527.472,166.427Z" transform="translate(-503.303 -138.745)" fill="#fc368c"/>
              <path id="Path_5470" data-name="Path 5470" d="M527.164,166.31l2.925,12.359a2.344,2.344,0,0,1-1.866,3.078,13.893,13.893,0,0,1-9.83-2.146,4.381,4.381,0,0,1-2.047-3.223c-.411-5.768-1.582-17.593-1.582-17.593Z" transform="translate(-497.027 -145.848)" fill="#ff8d68"/>
              <path id="Path_5471" data-name="Path 5471" d="M531.245,159.446s7.968,16.132,6.416,20.466c-1.793,2.958-17.813-3.686-20.437-8.01s-8.651-12.159-3.956-17.058S525.217,151.612,531.245,159.446Z" transform="translate(-498.472 -152.081)" fill="#ff8d68"/>
            </g>
          </g>
          <path id="Path_5472" data-name="Path 5472" d="M537.185,161.325s1.4-5.7-3.419-9.058-11.013-2.686-13.239.672a36.845,36.845,0,0,0-2.418,3.861,4.539,4.539,0,0,0-3.163,3.022c-.789,2.518,4.23,8.9,6.271,10.744s1.619,1.895,1.619,1.895l.683-.888a40.11,40.11,0,0,0-1.374-7.722c-.266-1.511,1.459-3.693,4.5-4.2S530.814,161.987,537.185,161.325Z" transform="translate(-504.412 -150.06)" fill="#7e3636"/>
          <path id="Path_5473" data-name="Path 5473" d="M525.776,160.463s-1.108-2.059-3.08-1.476c-1.959.654,1.953,6.819,4.027,6.391C528.707,164.871,525.776,160.463,525.776,160.463Z" transform="translate(-508.537 -141.858)" fill="#ff8d68"/>
          <path id="Path_5474" data-name="Path 5474" d="M515.1,166.69s4.259,4.7,8.448,6.044c.735.224,1.825,1.679,1.825,1.679l.764-2.015s2.877-1.679,2.042-4.589l.577.448,1.538,3.805a23.434,23.434,0,0,1,1.077,4.924l-3.855-2.126a7.514,7.514,0,0,1-4.22.112s-.8,2.686-1.517,2.91-6.543-5.26-7.425-7.163a7.148,7.148,0,0,1-.756-3.805Z" transform="translate(-495.928 -134.6)" fill="#fff"/>
        </g>
      </g>
    </g>
    <g id="Group_4847" data-name="Group 4847" transform="translate(57.862 32.393)">
      <path id="Path_5475" data-name="Path 5475" d="M559.941,189.928h81.2c2.491,0,3.774-2.018,2.868-4.512L632.513,153.84a7.134,7.134,0,0,0-6.152-4.51h-81.2c-2.491,0-3.776,2.018-2.869,4.51l11.493,31.577A7.135,7.135,0,0,0,559.941,189.928Z" transform="translate(-542.003 -149.33)" fill="#a1c2ff" opacity="0.39"/>
      <path id="Path_5476" data-name="Path 5476" d="M553.147,158.362h69.92l-1.232-3.383h-69.92Z" transform="translate(-539.901 -144.078)" fill="#4353ff"/>
      <path id="Path_5477" data-name="Path 5477" d="M551.658,162.453h42.1l-1.231-3.383h-42.1Z" transform="translate(-507.721 -140.275)" fill="#4353ff"/>
      <path id="Path_5478" data-name="Path 5478" d="M550.311,166.155h10.9l-1.232-3.383h-10.9Z" transform="translate(-472.573 -136.834)" fill="#4353ff"/>
    </g>
    <g id="Group_4850" data-name="Group 4850" transform="translate(82.241 82.437)">
      <path id="Path_5479" data-name="Path 5479" d="M540.517,180.343a8.454,8.454,0,0,0,7.132,5.081c2.808,0,4.162-2.273,3.03-5.081a8.46,8.46,0,0,0-7.134-5.079C540.739,175.264,539.382,177.537,540.517,180.343Z" transform="translate(-469.521 -175.264)" fill="#94c3ff"/>
      <path id="Path_5480" data-name="Path 5480" d="M549.663,180.343a8.454,8.454,0,0,0,7.132,5.081c2.808,0,4.162-2.273,3.029-5.081a8.46,8.46,0,0,0-7.134-5.079C549.885,175.264,548.528,177.537,549.663,180.343Z" transform="translate(-496.316 -175.264)" fill="#94c3ff"/>
      <path id="Path_5481" data-name="Path 5481" d="M558.809,180.343a8.454,8.454,0,0,0,7.132,5.081c2.808,0,4.162-2.273,3.03-5.081a8.461,8.461,0,0,0-7.134-5.079C559.031,175.264,557.674,177.537,558.809,180.343Z" transform="translate(-523.11 -175.264)" fill="#94c3ff"/>
      <path id="Path_5482" data-name="Path 5482" d="M567.955,180.343a8.454,8.454,0,0,0,7.132,5.081c2.808,0,4.162-2.273,3.03-5.081a8.461,8.461,0,0,0-7.134-5.079C568.177,175.264,566.82,177.537,567.955,180.343Z" transform="translate(-549.905 -175.264)" fill="#ff8d02"/>
      <path id="Path_5483" data-name="Path 5483" d="M577.1,180.343a8.454,8.454,0,0,0,7.134,5.081c2.806,0,4.16-2.273,3.028-5.081a8.461,8.461,0,0,0-7.134-5.079C577.323,175.264,575.966,177.537,577.1,180.343Z" transform="translate(-576.7 -175.264)" fill="#a1c2ff" opacity="0.39"/>
      <g id="Group_4849" data-name="Group 4849" transform="translate(27.618 13.637)">
        <g id="Group_4848" data-name="Group 4848" transform="translate(3.387 3.636)">
          <path id="Path_5484" data-name="Path 5484" d="M543.941,185.9l22.4,23.284,23.213,9.205L563.246,237.7,536.8,215.14Z" transform="translate(-532.613 -182.65)" fill="#a1c2ff" opacity="0.39"/>
          <path id="Path_5485" data-name="Path 5485" d="M547.936,192.909l17.1,9.758,14.458,9.138-19.61,14.083-18.54-16.935Z" transform="translate(-531.3 -176.134)" fill="#a1c2ff" opacity="0.7"/>
          <path id="Path_5486" data-name="Path 5486" d="M543.941,185.9l22.4,23.284,23.213,9.205-26.238,19.494L536.8,215.14Z" transform="translate(-532.613 -182.65)" fill="none" stroke="#4361c4" stroke-miterlimit="10" stroke-width="0.281"/>
          <path id="Path_5487" data-name="Path 5487" d="M553.367,202.958a2.705,2.705,0,0,0,2.281,1.625c.9,0,1.332-.727.969-1.625a2.705,2.705,0,0,0-2.281-1.625C553.438,201.333,553,202.061,553.367,202.958Z" transform="translate(-531.516 -168.302)" fill="#4361c4"/>
          <path id="Path_5488" data-name="Path 5488" d="M555.339,193.85l-19.828,15.7,35.385,1.805" transform="translate(-511.46 -175.259)" fill="none" stroke="#4361c4" stroke-miterlimit="10" stroke-width="0.281"/>
          <path id="Path_5489" data-name="Path 5489" d="M581.812,229.471l-8.842-26.353-23.33-2.346" transform="translate(-549.64 -168.824)" fill="none" stroke="#4361c4" stroke-miterlimit="10" stroke-width="0.281"/>
          <line id="Line_158" data-name="Line 158" x2="13.314" y2="34.294" transform="translate(10.015)" fill="none" stroke="#4361c4" stroke-miterlimit="10" stroke-width="0.281"/>
        </g>
        <path id="Path_5490" data-name="Path 5490" d="M541.785,195.008a4.542,4.542,0,0,0,3.828,2.727c1.505,0,2.233-1.221,1.625-2.727a4.54,4.54,0,0,0-3.828-2.727C541.905,192.281,541.177,193.5,541.785,195.008Z" transform="translate(-496.322 -173.081)" fill="#94c3ff"/>
        <path id="Path_5491" data-name="Path 5491" d="M533.471,204.245a4.536,4.536,0,0,0,3.826,2.727c1.507,0,2.235-1.22,1.627-2.727a4.542,4.542,0,0,0-3.828-2.725C533.589,201.52,532.862,202.74,533.471,204.245Z" transform="translate(-471.963 -164.492)" fill="#ff8d02"/>
        <path id="Path_5492" data-name="Path 5492" d="M548.252,217.18a4.544,4.544,0,0,0,3.828,2.727c1.505,0,2.233-1.222,1.625-2.727a4.539,4.539,0,0,0-3.828-2.727C548.372,214.453,547.645,215.674,548.252,217.18Z" transform="translate(-515.268 -152.469)" fill="#94c3ff"/>
        <path id="Path_5493" data-name="Path 5493" d="M565.234,202.1a4.544,4.544,0,0,0,3.828,2.727c1.505,0,2.233-1.221,1.625-2.727a4.536,4.536,0,0,0-3.828-2.727C565.354,199.376,564.627,200.6,565.234,202.1Z" transform="translate(-565.02 -166.485)" fill="#94c3ff"/>
        <path id="Path_5494" data-name="Path 5494" d="M559.968,185.058a4.542,4.542,0,0,0,3.828,2.727c1.505,0,2.233-1.221,1.625-2.727a4.536,4.536,0,0,0-3.828-2.727C560.088,182.331,559.361,183.551,559.968,185.058Z" transform="translate(-549.592 -182.331)" fill="#ff8d02"/>
      </g>
    </g>
    <g id="Group_4851" data-name="Group 4851" transform="translate(176.945 108.692)">
      <path id="Path_5495" data-name="Path 5495" d="M500.581,201.729h67.971l-5.2-12.859H495.386Z" transform="translate(-495.386 -188.87)" fill="#fc368c"/>
      <path id="Path_5496" data-name="Path 5496" d="M491.554,213.183h38.731l-2.227-5.511H489.328Z" transform="translate(-445.429 -171.39)" fill="#fc368c" opacity="0.3"/>
      <path id="Path_5497" data-name="Path 5497" d="M496.831,211.011h28.474l-5.2-12.859H491.635Z" transform="translate(-444.903 -180.241)" fill="#fc368c" opacity="0.3"/>
    </g>
    <g id="Group_4859" data-name="Group 4859" transform="translate(44.414 196.814)">
      <path id="Path_5498" data-name="Path 5498" d="M563.928,313.709l-33.262-74.6a2.737,2.737,0,0,1,2.5-3.85H626.49a8.774,8.774,0,0,1,8.012,5.2l33.765,75.735a2.736,2.736,0,0,1-2.5,3.85H573.685A10.684,10.684,0,0,1,563.928,313.709Z" transform="translate(-530.427 -233.868)" fill="#fff"/>
      <g id="Group_4858" data-name="Group 4858" transform="translate(23.967 0)">
        <ellipse id="Ellipse_411" data-name="Ellipse 411" cx="36.757" cy="24.607" rx="36.757" ry="24.607" transform="matrix(-0.774, -0.633, 0.633, -0.774, 56.897, 84.641)" fill="#97deb3" opacity="0.39"/>
        <g id="Group_4857" data-name="Group 4857" transform="translate(0)">
          <g id="Group_4856" data-name="Group 4856" transform="translate(0)" clip-path="url(#clip-path)">
            <g id="Group_4855" data-name="Group 4855" transform="translate(24.557 19.73)">
              <path id="Path_5499" data-name="Path 5499" d="M559.87,258.092s-15.132,7.52-16.734,14.411,5.113,25.062,5.113,25.062H608.4s-9.859-21.3-17.523-26.315-22.459-8.84-22.459-8.84Z" transform="translate(-542.889 -232.37)" fill="#02b143"/>
              <g id="Group_4854" data-name="Group 4854" transform="translate(4.852)">
                <g id="Group_4853" data-name="Group 4853" transform="translate(0)">
                  <g id="Group_4852" data-name="Group 4852" transform="translate(2.155 4.29)">
                    <path id="Path_5500" data-name="Path 5500" d="M573.432,258.089l4.72,10.2c.59,1.275.239,2.441-.861,2.773a10.9,10.9,0,0,1-8.132-.936,4.447,4.447,0,0,1-2.238-2.543c-1.455-4.845-4.693-14.748-4.693-14.748Z" transform="translate(-557.255 -241.549)" fill="#97deb3"/>
                    <path id="Path_5501" data-name="Path 5501" d="M576.062,252.2s9.415,12.94,9.05,16.747c-.826,2.663-14.7-1.522-17.6-4.948s-9.172-9.515-6.451-14.083S569.8,246.115,576.062,252.2Z" transform="translate(-560.388 -246.985)" fill="#97deb3"/>
                  </g>
                  <path id="Path_5502" data-name="Path 5502" d="M576.286,252.371a5.746,5.746,0,0,1,.336.509c.546.92,1.357,2.777-.905,2.9l-3.018.162s-4.845-2.757-6.748.162c-1.414,2.92,3.2,4.7,2.815,6.165s-.189,1.135.463,1.945a7.445,7.445,0,0,0,3.354,3.084c2.179.973,3.9.811,5.978,1.947s6.1-.164,6.516-1.137c.971-.811,1.528.973,2.15,2.109s2.537,1.461.695,2.92-3.205,2.109-6.424.162-3.317-1.783-6.565-2.6a11.006,11.006,0,0,1-6.9-4.469c-1.237-2.02-1.636-4.616-2.68-5.588s-1.621,0-1.164,1.135-3.962-.973-5.013-4.38.8-3.244.984-5.191-2.028-4.218.334-6,4.577.486,5.415-.65,4.506-1.3,7.435,1.137a8.869,8.869,0,0,1,3.1,5.88" transform="translate(-558.854 -244.762)" fill="#02b143"/>
                  <path id="Path_5503" data-name="Path 5503" d="M572.57,253.675s-1.272-1.642-2.705-.973c-1.409.729,2.87,5.6,4.413,5.05C575.735,257.142,572.57,253.675,572.57,253.675Z" transform="translate(-565.518 -237.529)" fill="#97deb3"/>
                  <path id="Path_5504" data-name="Path 5504" d="M571.272,259.9s-1.382-5.029-4.89-5.677-5.087,1.459-4.853,3.244a2.979,2.979,0,0,1-1.318,2.759S569.053,264.447,571.272,259.9Z" transform="translate(-544.042 -236.073)" fill="#02b143"/>
                </g>
              </g>
            </g>
          </g>
        </g>
      </g>
    </g>
    <g id="Group_4889" data-name="Group 4889" transform="translate(86.414 298.814)">
      <path id="Path_5498-2" data-name="Path 5498" d="M563.928,313.709l-33.262-74.6a2.737,2.737,0,0,1,2.5-3.85H626.49a8.774,8.774,0,0,1,8.012,5.2l33.765,75.735a2.736,2.736,0,0,1-2.5,3.85H573.685A10.684,10.684,0,0,1,563.928,313.709Z" transform="translate(-530.427 -233.868)" fill="#fff"/>
      <g id="Group_4858-2" data-name="Group 4858" transform="translate(23.967 0)">
        <ellipse id="Ellipse_411-2" data-name="Ellipse 411" cx="36.757" cy="24.607" rx="36.757" ry="24.607" transform="matrix(-0.774, -0.633, 0.633, -0.774, 56.897, 84.641)" fill="#4353ff" opacity="0.39"/>
        <g id="Group_4857-2" data-name="Group 4857" transform="translate(0)">
          <g id="Group_4856-2" data-name="Group 4856" transform="translate(0)" clip-path="url(#clip-path)">
            <g id="Group_4855-2" data-name="Group 4855" transform="translate(24.557 19.73)">
              <path id="Path_5499-2" data-name="Path 5499" d="M559.87,258.092s-15.132,7.52-16.734,14.411,5.113,25.062,5.113,25.062H608.4s-9.859-21.3-17.523-26.315-22.459-8.84-22.459-8.84Z" transform="translate(-542.889 -232.37)" fill="#4353ff"/>
              <g id="Group_4854-2" data-name="Group 4854" transform="translate(4.852)">
                <g id="Group_4853-2" data-name="Group 4853" transform="translate(0)">
                  <g id="Group_4852-2" data-name="Group 4852" transform="translate(2.155 4.29)">
                    <path id="Path_5500-2" data-name="Path 5500" d="M573.432,258.089l4.72,10.2c.59,1.275.239,2.441-.861,2.773a10.9,10.9,0,0,1-8.132-.936,4.447,4.447,0,0,1-2.238-2.543c-1.455-4.845-4.693-14.748-4.693-14.748Z" transform="translate(-557.255 -241.549)" fill="#949bfe"/>
                    <path id="Path_5501-2" data-name="Path 5501" d="M576.062,252.2s9.415,12.94,9.05,16.747c-.826,2.663-14.7-1.522-17.6-4.948s-9.172-9.515-6.451-14.083S569.8,246.115,576.062,252.2Z" transform="translate(-560.388 -246.985)" fill="#949bfe"/>
                  </g>
                  <path id="Path_5502-2" data-name="Path 5502" d="M576.286,252.371a5.746,5.746,0,0,1,.336.509c.546.92,1.357,2.777-.905,2.9l-3.018.162s-4.845-2.757-6.748.162c-1.414,2.92,3.2,4.7,2.815,6.165s-.189,1.135.463,1.945a7.445,7.445,0,0,0,3.354,3.084c2.179.973,3.9.811,5.978,1.947s6.1-.164,6.516-1.137c.971-.811,1.528.973,2.15,2.109s2.537,1.461.695,2.92-3.205,2.109-6.424.162-3.317-1.783-6.565-2.6a11.006,11.006,0,0,1-6.9-4.469c-1.237-2.02-1.636-4.616-2.68-5.588s-1.621,0-1.164,1.135-3.962-.973-5.013-4.38.8-3.244.984-5.191-2.028-4.218.334-6,4.577.486,5.415-.65,4.506-1.3,7.435,1.137a8.869,8.869,0,0,1,3.1,5.88" transform="translate(-558.854 -244.762)" fill="#4353ff"/>
                  <path id="Path_5503-2" data-name="Path 5503" d="M572.57,253.675s-1.272-1.642-2.705-.973c-1.409.729,2.87,5.6,4.413,5.05C575.735,257.142,572.57,253.675,572.57,253.675Z" transform="translate(-565.518 -237.529)" fill="#949bfe"/>
                  <path id="Path_5504-2" data-name="Path 5504" d="M571.272,259.9s-1.382-5.029-4.89-5.677-5.087,1.459-4.853,3.244a2.979,2.979,0,0,1-1.318,2.759S569.053,264.447,571.272,259.9Z" transform="translate(-544.042 -236.073)" fill="#4353ff"/>
                </g>
              </g>
            </g>
          </g>
        </g>
      </g>
    </g>
    <g id="Group_4868" data-name="Group 4868" transform="translate(205.39 286.037)">
      <path id="Path_5515" data-name="Path 5515" d="M470.9,310.281H573.686c3.153,0,4.677-2.559,3.4-5.712l-7.306-18.083c-1.274-3.155-4.865-5.712-8.018-5.712H458.974c-3.153,0-4.678,2.557-3.4,5.712l7.306,18.083C464.151,307.723,467.742,310.281,470.9,310.281Z" transform="translate(-455.121 -280.775)" fill="#4353ff"/>
      <path id="Path_5516" data-name="Path 5516" d="M465.831,291.224h88.514l-1.73-4.283H464.1Z" transform="translate(-449.255 -275.043)" fill="#fff" opacity="0.7"/>
    </g>
    <g id="Group_4873" data-name="Group 4873" transform="translate(257.95 12.02)" opacity="0.5">
      <g id="Group_4869" data-name="Group 4869" transform="translate(7.636)">
        <path id="Path_5517" data-name="Path 5517" d="M468.17,144.476h3.477c.616,0,.913-.5.664-1.113l-1.4-3.477a1.855,1.855,0,0,0-1.565-1.113h-3.475c-.616,0-.913.5-.664,1.113l1.4,3.477A1.85,1.85,0,0,0,468.17,144.476Z" transform="translate(-429.46 -138.772)" fill="#ff346b"/>
        <path id="Path_5518" data-name="Path 5518" d="M486.647,144.476h3.477c.616,0,.913-.5.664-1.113l-1.4-3.477a1.855,1.855,0,0,0-1.563-1.113h-3.477c-.615,0-.913.5-.664,1.113l1.4,3.477A1.855,1.855,0,0,0,486.647,144.476Z" transform="translate(-483.591 -138.772)" fill="#ff346b"/>
      </g>
      <g id="Group_4870" data-name="Group 4870" transform="translate(0 16.4)">
        <path id="Path_5519" data-name="Path 5519" d="M464.736,152.977h3.477c.616,0,.913-.5.664-1.115l-1.4-3.475a1.857,1.857,0,0,0-1.565-1.115h-3.475c-.616,0-.913.5-.664,1.115l1.4,3.475A1.857,1.857,0,0,0,464.736,152.977Z" transform="translate(-411.764 -147.271)" fill="#4353ff"/>
        <path id="Path_5520" data-name="Path 5520" d="M473.977,152.977h3.475c.616,0,.913-.5.664-1.115l-1.4-3.475a1.857,1.857,0,0,0-1.565-1.115h-3.477c-.615,0-.913.5-.664,1.115l1.4,3.475A1.857,1.857,0,0,0,473.977,152.977Z" transform="translate(-438.831 -147.271)" fill="#4353ff"/>
        <path id="Path_5521" data-name="Path 5521" d="M483.213,152.977h3.477c.616,0,.913-.5.664-1.115l-1.4-3.475a1.857,1.857,0,0,0-1.565-1.115h-3.475c-.616,0-.913.5-.664,1.115l1.4,3.475A1.857,1.857,0,0,0,483.213,152.977Z" transform="translate(-465.895 -147.271)" fill="#4353ff"/>
        <path id="Path_5522" data-name="Path 5522" d="M490.606,152.977h3.475c.616,0,.913-.5.664-1.115l-1.4-3.475a1.852,1.852,0,0,0-1.563-1.115H488.3c-.616,0-.913.5-.664,1.115l1.4,3.475A1.857,1.857,0,0,0,490.606,152.977Z" transform="translate(-487.548 -147.271)" fill="#4353ff"/>
      </g>
      <g id="Group_4871" data-name="Group 4871" transform="translate(20.888 32.802)">
        <path id="Path_5523" data-name="Path 5523" d="M461.3,161.475h3.477c.614,0,.913-.5.664-1.113l-1.4-3.477a1.855,1.855,0,0,0-1.565-1.113H459c-.616,0-.913.5-.664,1.113l1.4,3.477A1.859,1.859,0,0,0,461.3,161.475Z" transform="translate(-422.592 -155.771)" fill="#ff8f1e"/>
        <path id="Path_5524" data-name="Path 5524" d="M453.914,161.475h3.475c.616,0,.913-.5.664-1.113l-1.4-3.477a1.855,1.855,0,0,0-1.565-1.113h-3.477c-.615,0-.913.5-.664,1.113l1.4,3.477A1.859,1.859,0,0,0,453.914,161.475Z" transform="translate(-400.942 -155.771)" fill="#ff8f1e"/>
        <path id="Path_5525" data-name="Path 5525" d="M470.543,161.475h3.475c.616,0,.913-.5.664-1.113l-1.4-3.477a1.85,1.85,0,0,0-1.563-1.113h-3.477c-.616,0-.913.5-.664,1.113l1.4,3.477A1.859,1.859,0,0,0,470.543,161.475Z" transform="translate(-449.659 -155.771)" fill="#ff8f1e"/>
        <path id="Path_5526" data-name="Path 5526" d="M479.779,161.475h3.477c.616,0,.913-.5.664-1.113l-1.4-3.477a1.855,1.855,0,0,0-1.565-1.113h-3.475c-.616,0-.913.5-.664,1.113l1.4,3.477A1.856,1.856,0,0,0,479.779,161.475Z" transform="translate(-476.723 -155.771)" fill="#ff8f1e"/>
      </g>
      <g id="Group_4872" data-name="Group 4872" transform="translate(63.168 49.202)">
        <path id="Path_5527" data-name="Path 5527" d="M457.87,169.974h3.475c.616,0,.913-.5.666-1.113l-1.4-3.477a1.855,1.855,0,0,0-1.565-1.113h-3.475c-.616,0-.913.5-.666,1.113l1.4,3.477A1.855,1.855,0,0,0,457.87,169.974Z" transform="translate(-454.813 -164.27)" fill="#00bb45"/>
      </g>
    </g>
    <g id="Group_4878" data-name="Group 4878" transform="translate(237.557 331.644)">
      <g id="Group_4874" data-name="Group 4874" transform="translate(10.762)">
        <path id="Path_5528" data-name="Path 5528" d="M469.259,312.451h4.9c.866,0,1.285-.7.936-1.571l-1.98-4.9a2.618,2.618,0,0,0-2.206-1.571h-4.9c-.868,0-1.287.7-.936,1.571l1.98,4.9A2.611,2.611,0,0,0,469.259,312.451Z" transform="translate(-414.698 -304.41)" fill="#4385ff"/>
        <path id="Path_5529" data-name="Path 5529" d="M495.3,312.451h4.9c.866,0,1.287-.7.936-1.571l-1.98-4.9a2.615,2.615,0,0,0-2.206-1.571h-4.9c-.867,0-1.285.7-.936,1.571l1.98,4.9A2.614,2.614,0,0,0,495.3,312.451Z" transform="translate(-490.994 -304.41)" fill="#4385ff"/>
      </g>
      <g id="Group_4875" data-name="Group 4875" transform="translate(0 23.117)">
        <path id="Path_5530" data-name="Path 5530" d="M464.421,324.431h4.9c.866,0,1.285-.7.936-1.571l-1.98-4.9a2.614,2.614,0,0,0-2.206-1.571h-4.9c-.866,0-1.287.7-.936,1.571l1.98,4.9A2.615,2.615,0,0,0,464.421,324.431Z" transform="translate(-389.757 -316.39)" fill="#bfd9ff"/>
        <path id="Path_5531" data-name="Path 5531" d="M477.44,324.431h4.9c.868,0,1.287-.7.936-1.571l-1.98-4.9a2.611,2.611,0,0,0-2.2-1.571h-4.9c-.868,0-1.287.7-.936,1.571l1.98,4.9A2.615,2.615,0,0,0,477.44,324.431Z" transform="translate(-427.904 -316.39)" fill="#ff8d02"/>
        <path id="Path_5532" data-name="Path 5532" d="M490.462,324.431h4.9c.868,0,1.287-.7.936-1.571l-1.98-4.9a2.611,2.611,0,0,0-2.2-1.571h-4.9c-.866,0-1.285.7-.936,1.571l1.98,4.9A2.618,2.618,0,0,0,490.462,324.431Z" transform="translate(-466.052 -316.39)" fill="#bfd9ff"/>
        <path id="Path_5533" data-name="Path 5533" d="M500.879,324.431h4.9c.867,0,1.287-.7.936-1.571l-1.98-4.9a2.611,2.611,0,0,0-2.2-1.571h-4.9c-.867,0-1.285.7-.936,1.571l1.98,4.9A2.618,2.618,0,0,0,500.879,324.431Z" transform="translate(-496.571 -316.39)" fill="#bfd9ff"/>
      </g>
      <g id="Group_4876" data-name="Group 4876" transform="translate(29.441 46.235)">
        <path id="Path_5534" data-name="Path 5534" d="M459.581,336.409h4.9c.866,0,1.285-.7.936-1.571l-1.98-4.9a2.616,2.616,0,0,0-2.206-1.569h-4.9c-.866,0-1.287.7-.936,1.569l1.98,4.9A2.614,2.614,0,0,0,459.581,336.409Z" transform="translate(-405.018 -328.37)" fill="#bfd9ff"/>
        <path id="Path_5535" data-name="Path 5535" d="M449.164,336.409h4.9c.866,0,1.285-.7.936-1.571l-1.98-4.9a2.615,2.615,0,0,0-2.206-1.569h-4.9c-.866,0-1.287.7-.936,1.569l1.98,4.9A2.614,2.614,0,0,0,449.164,336.409Z" transform="translate(-374.5 -328.37)" fill="#bfd9ff"/>
        <path id="Path_5536" data-name="Path 5536" d="M472.6,336.409h4.9c.868,0,1.287-.7.936-1.571l-1.978-4.9a2.618,2.618,0,0,0-2.206-1.569h-4.9c-.868,0-1.287.7-.936,1.569l1.98,4.9A2.611,2.611,0,0,0,472.6,336.409Z" transform="translate(-443.166 -328.37)" fill="#bfd9ff"/>
        <path id="Path_5537" data-name="Path 5537" d="M485.622,336.409h4.9c.868,0,1.287-.7.936-1.571l-1.98-4.9a2.613,2.613,0,0,0-2.2-1.569h-4.9c-.866,0-1.285.7-.936,1.569l1.98,4.9A2.616,2.616,0,0,0,485.622,336.409Z" transform="translate(-481.314 -328.37)" fill="#ff8d02"/>
      </g>
      <g id="Group_4877" data-name="Group 4877" transform="translate(89.034 69.35)">
        <path id="Path_5538" data-name="Path 5538" d="M454.74,348.39h4.9c.866,0,1.285-.7.936-1.571l-1.98-4.9a2.614,2.614,0,0,0-2.206-1.571h-4.9c-.866,0-1.285.7-.936,1.571l1.98,4.9A2.614,2.614,0,0,0,454.74,348.39Z" transform="translate(-450.431 -340.349)" fill="#ff8d02"/>
      </g>
    </g>
    <g id="Group_4884" data-name="Group 4884" transform="translate(194.416 62.649)">
      <path id="Path_5539" data-name="Path 5539" d="M463.269,279.775H602.318l-23-44.924H440.272Z" transform="translate(-440.272 -100.08)" fill="#00bb45" opacity="0.39"/>
      <g id="Group_4879" data-name="Group 4879" transform="translate(19.156 131.263)">
        <ellipse id="Ellipse_415" data-name="Ellipse 415" cx="20.688" cy="16.133" rx="20.688" ry="16.133" transform="translate(31.014 51.573) rotate(-138.553)" fill="#00bb45"/>
        <path id="Path_5540" data-name="Path 5540" d="M512.421,259a1.73,1.73,0,0,0,1.424-.658l4.722-6.289a2.4,2.4,0,0,0-.791-3.176,2.232,2.232,0,0,0-3.178,0l-3.527,4.7-12.608-10.092a2.23,2.23,0,0,0-3.176,0,2.4,2.4,0,0,0,.791,3.176l14.592,11.68A2.855,2.855,0,0,0,512.421,259Z" transform="translate(-481.524 -223.928)" fill="#fff"/>
      </g>
      <g id="Group_4883" data-name="Group 4883" transform="translate(38.512)">
        <path id="Path_5541" data-name="Path 5541" d="M437.987,193.631c0,3.527,2.58,6.387,5.762,6.387s5.76-2.86,5.76-6.387-2.578-6.387-5.76-6.387S437.987,190.1,437.987,193.631Z" transform="translate(-321.565 -144.338)" fill="none" stroke="#505e83" stroke-miterlimit="10" stroke-width="0.519"/>
        <path id="Path_5542" data-name="Path 5542" d="M437.985,208.438s9.2.614,16.078,9.9-3.1,43.334-32.675,57.093c-19.26,7.566-20.636-9.631-15.821-21.668S424.315,211.265,437.985,208.438Z" transform="translate(-261.115 -124.635)" fill="#fff"/>
        <path id="Path_5543" data-name="Path 5543" d="M383.107,401.159c0,4.371,42.186,7.914,94.223,7.914s94.221-3.543,94.221-7.914-42.184-7.911-94.221-7.911S383.107,396.79,383.107,401.159Z" transform="translate(-337.708 47.174)" opacity="0.17" fill="url(#linear-gradient-2)"/>
        <g id="Group_4880" data-name="Group 4880" transform="translate(94.941 299.353)">
          <path id="Path_5544" data-name="Path 5544" d="M454.6,385.685s-2-4.282-9.422-3.141-8.282,2.57-9.139,6.283-3.425,7.711-5.139,8.568-8,5.139-13.137,6-5.71,4-4.568,5.426,20.56,2.57,24.842,2c0,0,14.563-.286,17.99-1.428S454.883,387.112,454.6,385.685Z" transform="translate(-375.493 -262.31)" fill="#16142a"/>
          <path id="Path_5545" data-name="Path 5545" d="M473.879,385.685s-2-4.282-9.424-3.141-8.28,2.57-9.137,6.283-3.427,7.711-5.141,8.568-7.995,5.139-13.135,6-5.712,4-4.569,5.426,20.561,2.57,24.844,2c0,0,14.563-.286,17.99-1.428S474.165,387.112,473.879,385.685Z" transform="translate(-431.978 -262.31)" fill="#16142a"/>
          <path id="Path_5546" data-name="Path 5546" d="M439.259,337.193s2.171-11.825-10.318-15.794-14.853,1.8-18.633,12.587S413.5,446.629,413.5,446.629s15.219.347,18.907-1.831c0,0,10.173-67.588,9.411-84.048S439.259,337.193,439.259,337.193Z" transform="translate(-353.279 -320.142)" fill="#010014"/>
        </g>
        <path id="Path_5547" data-name="Path 5547" d="M443.227,192.8s-2.923,3.956-2.923,6.019,3.956,2.065,3.956,2.065Z" transform="translate(-320.787 -139.17)" fill="#ff7759"/>
        <path id="Path_5548" data-name="Path 5548" d="M430,173.376s-8.448,2.161-13.236,15.134-1.594,40.54,1.6,43.784,12.882,2,26.322-2.433c14.2-4.687,19-19.451,21.537-29.188C471.084,182.025,454.867,162.835,430,173.376Z" transform="translate(-293.486 -160.02)" fill="#ff8d68"/>
        <path id="Path_5549" data-name="Path 5549" d="M449.823,221.289l-6.852-24.557s-13.706-4-22.274,5.139l-2.856,4v15.991A91.46,91.46,0,0,0,449.823,221.289Z" transform="translate(-283.004 -136.327)" fill="#ff8d68"/>
        <path id="Path_5550" data-name="Path 5550" d="M448.652,281.118a226.174,226.174,0,0,1,0,64.25c-5.139,34.267-15.42,37.694-24.842,37.694s-11.993-27.413-13.706-39.408-8.568-53.114,4.282-62.536S441.8,270.837,448.652,281.118Z" transform="translate(-262.7 -63.941)" fill="#010014"/>
        <path id="Path_5551" data-name="Path 5551" d="M472.173,321.043s10.281-27.415-7.709-39.407-31.7-10.281-35.98,9.423-5.141,87.381.857,101.089S456.753,384.436,472.173,321.043Z" transform="translate(-322.202 -63.602)" fill="#0f153a"/>
        <path id="Path_5552" data-name="Path 5552" d="M458.442,212.884s-1.914-6.723-3.628-7.294-22.843-2.856-34.267,4c-5.139,4-4.567,6.854-4.567,6.854S450.075,209.9,458.442,212.884Z" transform="translate(-287.996 -128.05)" fill="#fff"/>
        <path id="Path_5553" data-name="Path 5553" d="M407.729,277.555s-1.719,4.128-.687,5.5c1.376,1.376,40.239,15.132,81.167,5.16.689,0-1.03-6.879-1.03-6.879Z" transform="translate(-300.077 -60.38)" fill="#fff"/>
        <path id="Path_5554" data-name="Path 5554" d="M492.152,280.208c1.142-7.995,4.569-47.4,3.427-53.114-1.067-5.337-5.627-15.165-15.078-18.293a19.3,19.3,0,0,0-2.055-.554s-35.409-2.285-60.539,8.568c0,0-8.6,7.146-10.192,43.552,0,0,.473,6.14,1.849,19.21s-.687,22.7-2.752,35.77-6.19,26.139,8.942,28.891c14.445,2.752,54.343,9.629,77.73,2.752,4.814-3.441-2.065-19.262-2.065-31.643S492.152,280.208,492.152,280.208Z" transform="translate(-303.63 -124.999)" fill="url(#linear-gradient-3)"/>
        <path id="Path_5555" data-name="Path 5555" d="M461.309,337.243s.857-11.993-11.993-14.563-14.563,3.427-17.134,14.563S444.849,445.5,444.849,445.5s16.815.969,20.242-1.6c0,0,3.929-67.252,1.358-83.529S461.309,337.243,461.309,337.243Z" transform="translate(-327.615 -18.979)" fill="#0f153a"/>
        <path id="Path_5556" data-name="Path 5556" d="M445.785,295.092s-11.993,38.551-20.989,57.4" transform="translate(-292.387 -44.077)" fill="none" stroke="#2a2e59" stroke-miterlimit="10" stroke-width="0.666"/>
        <path id="Path_5557" data-name="Path 5557" d="M452.013,329.749s-7.283-4.284-14.565,0" transform="translate(-323.029 -13.627)" fill="none" stroke="#2a2e59" stroke-miterlimit="10" stroke-width="0.666"/>
        <path id="Path_5558" data-name="Path 5558" d="M453.059,331.662s-6-3.427-16.277,3.855" transform="translate(-322.79 -10.828)" fill="none" stroke="#2a2e59" stroke-miterlimit="10" stroke-width="0.666"/>
        <path id="Path_5559" data-name="Path 5559" d="M428.895,327.027s-4.712-4.282-15.42.428" transform="translate(-253.651 -16.045)" fill="none" stroke="#2a2e59" stroke-miterlimit="10" stroke-width="0.666"/>
        <path id="Path_5560" data-name="Path 5560" d="M428.529,328.927a12.88,12.88,0,0,0-13.278,1.714" transform="translate(-256.712 -13.662)" fill="none" stroke="#2a2e59" stroke-miterlimit="10" stroke-width="0.666"/>
        <line id="Line_159" data-name="Line 159" x2="2.57" y2="87.381" transform="translate(155.968 322.119)" fill="none" stroke="#2a2e59" stroke-miterlimit="10" stroke-width="0.666"/>
        <path id="Path_5561" data-name="Path 5561" d="M455.52,295.633s-9.708,5.712-13.706-3.427" transform="translate(-334.961 -46.76)" fill="none" stroke="#2a2e59" stroke-miterlimit="10" stroke-width="0.666"/>
        <path id="Path_5562" data-name="Path 5562" d="M450.455,294.574s-4.569,35.409-3.427,58.826" transform="translate(-339.604 -44.558)" fill="none" stroke="#2a2e59" stroke-miterlimit="10" stroke-width="0.666"/>
        <path id="Path_5563" data-name="Path 5563" d="M444.63,199.531s-3,7.711-13.064,6.426" transform="translate(-304.296 -132.916)" fill="none" stroke="#e66657" stroke-miterlimit="10" stroke-width="0.666"/>
        <path id="Path_5564" data-name="Path 5564" d="M418.956,179.479s-4.88,6.709-5.185,10.673,6.1,7.929,7.014,10.37-1.181,5.5-.266,7.03a14.279,14.279,0,0,1,1.2,4.643l-.315,3.454a2.48,2.48,0,0,0,1.986,2.657l.731.145a2.211,2.211,0,0,0,2.5-1.349c1.1-2.756,3.363-7.9,5.141-8.346,2.441-.61,4.88,3.659,5.795,5.793.515,1.2,1.812,4.456,2.844,7.063a6.375,6.375,0,0,0,5.482,4.008c2.638.189,5.8.32,6.964-.012,2.134-.61,13.07-20.817,13.376-30.575s-6.4-19.517-13.419-22.567S432.068,166.672,418.956,179.479Z" transform="translate(-291.543 -160.451)" fill="#05004b"/>
        <path id="Path_5566" data-name="Path 5566" d="M412.677,209.113" transform="translate(-235.894 -124.008)" fill="none" stroke="#a6d0f4" stroke-miterlimit="10" stroke-width="0.535"/>
        <path id="Path_5567" data-name="Path 5567" d="M442.528,170.752s-6.707.257-9.029-3.1-9.8-4.128-15.219,1.289-5.158,15.478-.515,19.088c0,0-5.417-1.032-6.19,2.839s5.932,9.8,13.928,11.607c0,0,12.9-3.61,16.767-1.289s29.923-.259,29.923-.259,5.675-5.16,4.128-9.8-3.1.259-3.1.259,1.291-6.449-7.223-15.734S445.623,171.525,442.528,170.752Z" transform="translate(-297.559 -165.009)" fill="#05004b"/>
        <path id="Path_5568" data-name="Path 5568" d="M513.114,239.636l-18.314.774s.517,1.8,3.354,2.321,13.413,1.806,13.413,1.806Z" transform="translate(-494.8 -95.632)" fill="#eb7754"/>
        <path id="Path_5569" data-name="Path 5569" d="M505.393,242.034s-6.19-1.032-7.479-.774-2.58,7.738-2.58,7.738l4.9,5.16s1.806-.774,0-3.612l-1.032-1.806,7.481-2.837Z" transform="translate(-489.4 -94.161)" fill="#ff8d68"/>
        <g id="Group_4882" data-name="Group 4882" transform="translate(9.803 91.817)">
          <path id="Path_5570" data-name="Path 5570" d="M510.769,247.91l-7.738-1.03s-6.449-6.449-7.74-7.223-7.738,9.285-8.512,10.575c0,1.032,3.869,4.386,7.738,4.9s5.16-.515,5.16-.515l8.512,3.354Z" transform="translate(-486.779 -187.469)" fill="#ff8d68"/>
          <g id="Group_4881" data-name="Group 4881" transform="translate(17.498)">
            <path id="Path_5571" data-name="Path 5571" d="M523.352,212.591s17.28-.178,16.763,20.975-36.629,55.717-46.431,59.844-51.589-7.223-55.2-9.287-2.58-10.833,3.1-12.9l42.819-2.065S511.234,214.314,523.352,212.591Z" transform="translate(-436.377 -212.591)" fill="#fff"/>
            <path id="Path_5572" data-name="Path 5572" d="M469.63,243.69s-5.16,5.5-3.784,12.726" transform="translate(-422.296 -183.68)" fill="none" stroke="#a6d0f4" stroke-miterlimit="10" stroke-width="0.535"/>
            <path id="Path_5573" data-name="Path 5573" d="M476.327,243.156s-8.6,2.752-9.287,12.037" transform="translate(-431.744 -184.176)" fill="none" stroke="#a6d0f4" stroke-miterlimit="10" stroke-width="0.535"/>
          </g>
        </g>
        <line id="Line_160" data-name="Line 160" x2="17.885" transform="translate(116.422 49.293)" fill="none" stroke="#505e83" stroke-miterlimit="10" stroke-width="0.519"/>
        <path id="Path_5574" data-name="Path 5574" d="M433.026,193.334s1.216-5.272,5.675-2.839-.81,15-4.459,14.189S432.216,195.36,433.026,193.334Z" transform="translate(-300.833 -141.912)" fill="#ff7759"/>
      </g>
    </g>
  </g>
</svg>
