<svg xmlns="http://www.w3.org/2000/svg" xmlns:xlink="http://www.w3.org/1999/xlink" width="203" height="268" viewBox="0 0 203 268">
  <defs>
    <linearGradient id="linear-gradient" x1="0.5" x2="0.5" y2="1" gradientUnits="objectBoundingBox">
      <stop offset="0" stop-color="#7b43ff"/>
      <stop offset="1" stop-color="#fc5c9c"/>
    </linearGradient>
    <linearGradient id="linear-gradient-2" x1="0.5" x2="0.5" y2="1" gradientUnits="objectBoundingBox">
      <stop offset="0" stop-color="#ff3e37"/>
      <stop offset="1" stop-color="#ffc756"/>
    </linearGradient>
  </defs>
  <g id="Group_4931" data-name="Group 4931" transform="translate(-588.138 -613.87)">
    <g id="Group_4927" data-name="Group 4927" transform="translate(642.392 613.87)">
      <g id="Group_4926" data-name="Group 4926" transform="translate(0)">
        <path id="Path_5582" data-name="Path 5582" d="M854.867,806.284c-6.545-13.691-8.343-34.124-1.21-50.33,12.025-27.355,45.114-38.519,42.677-69.52-.613-7.809-4.088-14.09-9.205-18.131-13.468-10.634-35.136-5.006-50.6,2.42a96.916,96.916,0,0,0-27.519,20.189l-4.3-54.755c18.565-13.174,41.028-20.062,63.449-21.823,45.944-3.61,81.423,13.622,85.034,59.578,3.293,41.913-25.031,60.481-44.031,81.434-10.547,11.63-12.929,20.59-12.114,30.967.422,5.365,2.434,11.99,5.668,16.212Zm32.989,74.876c-44.659,3.509-49.83-56.487-4.717-60.032C927.576,817.637,932.343,877.664,887.856,881.16Z" transform="translate(-804.707 -613.87)" opacity="0.5" fill="url(#linear-gradient)"/>
      </g>
    </g>
    <g id="Group_4930" data-name="Group 4930" transform="translate(588.138 688.736)">
      <path id="Path_5583" data-name="Path 5583" d="M614.243,1144.135a5.6,5.6,0,0,0,.531,1.374,51.976,51.976,0,0,0,5.079,7.212l2.746-6.6s-.448-2.073-1.224-5.036C618.723,1141.822,616.2,1142.25,614.243,1144.135Z" transform="translate(-607.701 -1083.835)" fill="#fb9390"/>
      <path id="Path_5584" data-name="Path 5584" d="M610.808,1061.376s-15.314,7.038-15.809,6.9c-.319-.087-6.282-10.739-6.345-20.755-.03-4.626,4.472-10.192,9.5-9.091,2.529.554,2.49,1.3,6.231,7.107S610.808,1061.376,610.808,1061.376Z" transform="translate(-588.524 -1006.802)" fill="url(#linear-gradient-2)"/>
      <path id="Path_5585" data-name="Path 5585" d="M726.167,1633.978s-.363,6.419-.365,6.432c-.134.815-.66,2.828-.66,3.57,0,2.783,12.384-2.363,9.608-3.6-.251-.112-1.567-.956-1.65-1.9-.127-1.459-.45-4.412-.45-4.412Z" transform="translate(-690.81 -1453.215)" fill="#fb9390"/>
      <path id="Path_5586" data-name="Path 5586" d="M733.408,1659.092a44.652,44.652,0,0,1-4.4,1.065c-1.489.213-3.452-1.579-4.505-1.1-1.159.533-1.114,5.329-1.114,5.329s15.591,1.365,19.976-.047C745.1,1663.784,739.352,1661.075,733.408,1659.092Z" transform="translate(-689.499 -1471.95)" fill="#0b0754"/>
      <path id="Path_5587" data-name="Path 5587" d="M625.076,1633.978s-.363,6.419-.366,6.432c-.134.815-.659,2.828-.659,3.57,0,2.783,12.383-2.363,9.608-3.6-.251-.112-1.957-1.587-2.04-2.534-.127-1.46-.06-3.782-.06-3.782Z" transform="translate(-615.052 -1453.215)" fill="#fb9390"/>
      <path id="Path_5588" data-name="Path 5588" d="M632.043,1659.092a44.667,44.667,0,0,1-4.4,1.065c-1.489.213-3.452-1.579-4.505-1.1-1.16.533-1.206,5.329-1.206,5.329s15.662,1.592,20.067-.047C643.713,1663.707,637.987,1661.075,632.043,1659.092Z" transform="translate(-613.466 -1471.95)" fill="#0b0754"/>
      <g id="Group_4928" data-name="Group 4928" transform="translate(13.809 13.459)">
        <path id="Path_5589" data-name="Path 5589" d="M643.245,1016.736l10.906-16.306c.046-.143.145-.435.3-.881.549-1.618,1.692-4.985,2.688-8.334l.011-.036c.313-1.171.976-3.213,1.617-5.189.713-2.2,1.6-4.921,1.629-5.386-.027-.079-.079-.222-.147-.411a39.722,39.722,0,0,1-1.132-4.894c-.122-.731-.243-2.506.57-2.506,1.279,0,.67,1.773,1.259,2.881a29.508,29.508,0,0,0,.887-3.7l.214-3.467c.041-.261-.219-2.174.678-2.174l.043,0c.806.063.788,2.1,1.123,5.535.106-.4.212-.873.292-1.312a13.35,13.35,0,0,1,.273-1.815c-.162-.958-.068-2.47.888-2.327.479.072.44,2.181.44,2.181,0,.29-.033,2.52-.018,2.96.1-.748.481-3.94,1.232-3.94.622,0,.672.859.659,1.539-.008.4-.4,3.86-.42,4.262.293-.525.64-3.572.93-3.572,1.213,0,.774,4.332.329,5.461a5.24,5.24,0,0,0-.138.6,11.131,11.131,0,0,1-1.04,3.224c-.762,1.391-1.812,3.6-1.972,3.94-.117.691-.482,3.174-.941,6.3-.2,1.337-.412,2.8-.636,4.321l-.012,0c-.041.329-.269,1.374-1.131,5.294a49.131,49.131,0,0,1-1.356,5.7c-.512.969-12.272,18.012-12.773,18.737l-.3.428Z" transform="translate(-643.245 -966.338)" fill="#fb9390"/>
        <path id="Path_5590" data-name="Path 5590" d="M716.837,1008.182s-.885-2.416-2.461-2.42a1.716,1.716,0,0,1,1.636.3A3.461,3.461,0,0,1,716.837,1008.182Z" transform="translate(-696.551 -995.815)" fill="#ef7f7f"/>
      </g>
      <g id="Group_4929" data-name="Group 4929" transform="translate(0 0)">
        <path id="Path_5591" data-name="Path 5591" d="M628.53,995.4l-1.4,9.477s5.35,4.584,8.468,3.617c2.617-.811.822-4.462.822-4.462s-1.394-5.059-.966-7.711S628.53,995.4,628.53,995.4Z" transform="translate(-617.356 -974.244)" fill="#fb9390"/>
        <path id="Path_5592" data-name="Path 5592" d="M632.929,998.27a20.808,20.808,0,0,0,6.055,1.821,13.4,13.4,0,0,1-.143-3.765c.2-1.224-1.262-1.513-2.89-1.471-2.131.195-4.03.55-4.03.55l-.27,1.821A4.446,4.446,0,0,0,632.929,998.27Z" transform="translate(-620.747 -974.247)" fill="#ef7f7f"/>
        <path id="Path_5593" data-name="Path 5593" d="M605.743,938.209c-.221,0,2.115,10.587,5.729,12.408s9,.872,10.016-1.979c1.119-3.154-2.962-13.954-8.045-15.326S605.743,938.209,605.743,938.209Z" transform="translate(-601.32 -927.982)" fill="#fb9390"/>
        <path id="Path_5594" data-name="Path 5594" d="M596.743,913.129a11.954,11.954,0,0,0-4.658,5.492c-1.355.686-2.995,2.171-3.782,6.17a8.673,8.673,0,0,0,6.12,9.849c3.648,1.14,4.264,3.716,4.264,3.716l.361-2.773a11.173,11.173,0,0,0-2.031-3.622c-1.22-1.208.578-2.969.736-4.4.121-1.106-.641-3.253-.476-5.067,0,0,2.027-3.278,4.025-4.088C604.708,917.021,600.447,910.849,596.743,913.129Z" transform="translate(-588.138 -912.629)" fill="#0b0754"/>
        <path id="Path_5595" data-name="Path 5595" d="M620.139,974.26c.472,1.223.279,2.437-.432,2.711s-1.669-.494-2.142-1.717-.279-2.437.431-2.711S619.666,973.037,620.139,974.26Z" transform="translate(-609.997 -957.487)" fill="#fb9390"/>
      </g>
      <path id="Path_5596" data-name="Path 5596" d="M682.334,1138.321l21.038-3.661s-2.394-6.431-3.249-6.431-15.908,7.013-15.908,7.013l-1.2,2.565Z" transform="translate(-658.729 -1074.202)" fill="#fb9390"/>
      <path id="Path_5597" data-name="Path 5597" d="M628.611,1226.866s-2.1,10.828-1.243,19.039.922,37.376.922,37.376l-3.263,46.666,7.744.18s9.183-46.643,9.011-45.446,3.079-32.841,3.079-32.841l-10.947-26Z" transform="translate(-615.783 -1147.352)" fill="#0b0754"/>
      <path id="Path_5598" data-name="Path 5598" d="M645.972,1217.145s-1.368,9.75.342,14.026,14.671,46.234,14.842,49.655,4.481,41.233,4.481,41.233l9-.27,1.948-42.04-4.079-52.837-3.96-13.359Z" transform="translate(-631.091 -1138.144)" fill="#050140"/>
      <path id="Path_5599" data-name="Path 5599" d="M627.126,1025.708a7.752,7.752,0,0,0,4.291,1.375c2.071-.18,5-2.22,5-2.22l-.407-1.472s-5.358-.833-5.493-.743S627.126,1025.708,627.126,1025.708Z" transform="translate(-617.356 -995.073)" fill="#fb9390"/>
      <path id="Path_5600" data-name="Path 5600" d="M721.567,1103.2s7.958,8.015,11.55,6.646,5.078-6.046-3.686-12.889C721.587,1090.833,721.567,1103.2,721.567,1103.2Z" transform="translate(-688.131 -1049.491)" fill="#fb9390"/>
      <path id="Path_5601" data-name="Path 5601" d="M633.972,1064.861c-1.182-6.864-9.75-28.223-10.434-32.157-.333-1.914-4.954-1.956-9.356-1.706-4.649.264-9.268.892-9.268.892s-4.116.721-5.927,2.532-2.292,6.82.311,16.327c2.055,7.505,4.6,11.626,5.863,17.093.255,1.833.474,3.643.764,5.756.463,8.174-.005,18.973-.005,18.973s22.408,4.96,30.789-2.565C636.708,1090.006,635.183,1071.894,633.972,1064.861Z" transform="translate(-595.144 -1001.255)" fill="url(#linear-gradient-2)"/>
      <path id="Path_5602" data-name="Path 5602" d="M690.909,1050.923s-8.792,7.746-9.306,7.746c-.33,0-12.547-9.591-15.367-17.47-1.559-4.356,1.711-9.23,5.446-9.214,2.589.011,3.74.723,8.871,5.342S690.909,1050.923,690.909,1050.923Z" transform="translate(-646.367 -1002.075)" fill="url(#linear-gradient-2)"/>
    </g>
  </g>
</svg>
