<svg xmlns="http://www.w3.org/2000/svg" xmlns:xlink="http://www.w3.org/1999/xlink" width="13.997" height="20.736" viewBox="0 0 13.997 20.736">
  <defs>
    <linearGradient id="linear-gradient" x1="0.294" y1="0.123" x2="1.042" y2="1.152" gradientUnits="objectBoundingBox">
      <stop offset="0" stop-color="#19f299"/>
      <stop offset="1" stop-color="#1442ff"/>
    </linearGradient>
  </defs>
  <g id="Group_10897" data-name="Group 10897" transform="translate(-1 -5)">
    <path id="Path_13937" data-name="Path 13937" d="M13.91,5h0a1.091,1.091,0,0,0-1.087,1.087v5.1a7,7,0,1,0,0,10.148v.431a1.091,1.091,0,0,0,1.087,1.087h0A1.091,1.091,0,0,0,15,21.769V6.087A1.091,1.091,0,0,0,13.91,5Z" transform="translate(0)" fill="url(#linear-gradient)"/>
    <g id="Group_10896" data-name="Group 10896" transform="translate(3.184 11.416)">
      <g id="Group_10894" data-name="Group 10894" transform="translate(0 1.411)" opacity="0.12">
        <path id="Path_13938" data-name="Path 13938" d="M32.938,89.866v.362a6.572,6.572,0,0,1-1.126,3.232,16.1,16.1,0,0,1-1.459,2.008,26.215,26.215,0,0,1-2.233,2.341A25.584,25.584,0,0,1,25.9,95.489c-.343-.4-.646-.793-.921-1.185-.029-.039-.059-.078-.078-.108a11.807,11.807,0,0,1-.862-1.4l-.029-.059a5.583,5.583,0,0,1-.705-2.488v-.362a5.065,5.065,0,0,1,1.528-3.634A4.745,4.745,0,0,1,28.119,84.9a4.668,4.668,0,0,1,3.291,1.352c.088.088.176.186.264.284a.8.8,0,0,1,.088.1c.02.02.039.049.059.069A5.154,5.154,0,0,1,32.938,89.866Z" transform="translate(-23.3 -84.9)"/>
      </g>
      <g id="Group_10895" data-name="Group 10895">
        <path id="Path_13939" data-name="Path 13939" d="M32.938,75.466v.362a6.572,6.572,0,0,1-1.126,3.232,16.1,16.1,0,0,1-1.459,2.008,26.212,26.212,0,0,1-2.233,2.341A25.583,25.583,0,0,1,25.9,81.089c-.343-.4-.646-.793-.921-1.185-.029-.039-.059-.078-.078-.108a11.806,11.806,0,0,1-.862-1.4l-.029-.059a5.583,5.583,0,0,1-.705-2.488v-.362a5.065,5.065,0,0,1,1.528-3.634A4.745,4.745,0,0,1,28.119,70.5a4.668,4.668,0,0,1,3.291,1.352c.088.088.176.186.264.284a.794.794,0,0,1,.088.1c.02.02.039.049.059.069A5.154,5.154,0,0,1,32.938,75.466Z" transform="translate(-23.3 -70.5)" fill="#fff"/>
      </g>
    </g>
    <path id="Path_13940" data-name="Path 13940" d="M34.785,91.8a2.759,2.759,0,0,0-2.762,2.762,2.789,2.789,0,0,0,.353,1.362L30.7,97.609a11.325,11.325,0,0,0,.862,1.4l1.969-1.969a2.7,2.7,0,0,0,1.254.3,2.772,2.772,0,0,0,0-5.544Z" transform="translate(-26.791 -78.298)" fill="#3e62f5"/>
    <path id="Path_13941" data-name="Path 13941" d="M56,98.962a1.815,1.815,0,0,0-.833.715.255.255,0,0,0,.157.382.036.036,0,0,1,.029.01.25.25,0,0,0,.264-.127,1.283,1.283,0,0,1,.588-.5,1.261,1.261,0,0,1,.823-.059.232.232,0,0,0,.264-.088c.01-.01.01-.02.02-.029a.248.248,0,0,0-.137-.382A1.745,1.745,0,0,0,56,98.962Z" transform="translate(-48.824 -84.627)" fill="#fff"/>
  </g>
</svg>
