<svg xmlns="http://www.w3.org/2000/svg" width="40" height="40" viewBox="0 0 40 40">
  <path id="Union_31" data-name="Union 31" d="M11645,5951a5,5,0,0,1,0-10h30a5,5,0,1,1,0,10Zm13.333-2.5H11675a2.5,2.5,0,1,0,0-5h-16.666Zm.764-11.218-8.751-9.167a1.251,1.251,0,0,1,.906-2.112h4.581v-2.083A12.932,12.932,0,0,1,11668.75,5911a1.25,1.25,0,1,1,0,2.5,4.586,4.586,0,0,0-4.582,4.583V5926h4.582a1.25,1.25,0,0,1,.9,2.112l-8.749,9.167a1.248,1.248,0,0,1-1.809,0Z" transform="translate(-11640.001 -5911)" fill="#ff346b"/>
</svg>
