<svg id="_2022f2fe758bd476a1e6fbec32050813" data-name="2022f2fe758bd476a1e6fbec32050813" xmlns="http://www.w3.org/2000/svg" width="10.612" height="12" viewBox="0 0 10.612 12">
  <path id="Path_6932" data-name="Path 6932" d="M11.2.5a.751.751,0,0,0-.751.749V6.823l-1-1A.75.75,0,0,0,8.392,6.885L10.67,9.158a.732.732,0,0,0,.523.22H11.2a.758.758,0,0,0,.534-.218l2.282-2.277a.75.75,0,0,0-1.064-1.057l-1,1V1.249A.751.751,0,0,0,11.2.5Z" transform="translate(-5.897 -0.5)" fill="currentColor"/>
  <path id="Path_6933" data-name="Path 6933" d="M3.042,19.6a.75.75,0,0,0-.75.749v.829A3.029,3.029,0,0,0,5.32,24.2H9.876A3.03,3.03,0,0,0,12.9,21.174v-.829a.75.75,0,0,0-1.5,0v.829A1.529,1.529,0,0,1,9.876,22.7H5.32a1.529,1.529,0,0,1-1.528-1.526v-.829a.75.75,0,0,0-.75-.749Z" transform="translate(-2.292 -12.198)" fill="currentColor"/>
</svg>
