<svg xmlns="http://www.w3.org/2000/svg" width="325" height="190" viewBox="0 0 325 190">
  <g id="Group_10901" data-name="Group 10901" transform="translate(-352 -1008)">
    <g id="Group_10900" data-name="Group 10900">
      <rect id="Rectangle_3128" data-name="Rectangle 3128" width="325" height="190" rx="20" transform="translate(352 1008)" fill="#30a753" opacity="0.1"/>
      <g id="new-logo-drive-google" transform="translate(447.998 1042.999)">
        <path id="Path_13931" data-name="Path 13931" d="M221.042,570.64H172.1L151.14,607.249a18.15,18.15,0,0,0,7.236,2.1c19.253,0,58.546-.285,78.052-.285a10.364,10.364,0,0,0,5.567-1.755Z" transform="translate(-129.609 -489.352)" fill="#4185f3"/>
        <path id="Path_13932" data-name="Path 13932" d="M21.639,607.259,42.6,570.65H.128c-.021,2.544.883,4.872,2.3,7.527,3.949,7.387,10.629,19.2,14.554,25.364C17.949,605.061,21.79,607.336,21.639,607.259Z" transform="translate(-0.108 -489.361)" fill="#1767d1"/>
        <path id="Path_13933" data-name="Path 13933" d="M641.86,570.623l20.96,36.668a20.39,20.39,0,0,0,6.367-6.98c3.245-5.679,8.732-15.137,12.517-21.54a15.294,15.294,0,0,0,2.4-8.151Z" transform="translate(-550.427 -489.335)" fill="#e94235"/>
        <path id="Path_13934" data-name="Path 13934" d="M42.494,95.508l24.447-42.5L45.092,16.58a17.659,17.659,0,0,0-5.3,5.271C30.253,38.577,11.041,72.857,1.38,89.8A10.476,10.476,0,0,0,.014,95.508Z" transform="translate(0 -14.217)" fill="#30a753"/>
        <path id="Path_13935" data-name="Path 13935" d="M494.411,95.756l-24.491-42.5L491.169,16.87c2.363,1.556,4.957,3.622,5.875,5.231,9.537,16.725,28.749,51.005,38.414,67.948a10.314,10.314,0,0,1,1.2,5.708Z" transform="translate(-402.979 -14.466)" fill="#f9bc00"/>
        <path id="Path_13936" data-name="Path 13936" d="M316.52,2.369,338.372,38.79,359.621,2.4A18.366,18.366,0,0,0,351.312.267c-8.37-.279-21.94-.392-29.243-.074C320.268.272,316.543,2.353,316.52,2.369Z" transform="translate(-271.431 0)" fill="#0f8038"/>
      </g>
    </g>
  </g>
</svg>
