<svg id="wpwax_eid-al-fitr" data-name="wpwax eid-al-fitr" xmlns="http://www.w3.org/2000/svg" xmlns:xlink="http://www.w3.org/1999/xlink" width="489.615" height="378.391" viewBox="0 0 489.615 378.391">
  <defs>
    <linearGradient id="linear-gradient" x1="0.506" y1="-0.046" x2="0.457" y2="0.924" gradientUnits="objectBoundingBox">
      <stop offset="0" stop-color="#f7dd30"/>
      <stop offset="1" stop-color="#d05700"/>
    </linearGradient>
    <linearGradient id="linear-gradient-2" x1="0.525" y1="-0.018" x2="0.479" y2="0.925" xlink:href="#linear-gradient"/>
    <linearGradient id="linear-gradient-3" x1="0.5" y1="1.043" x2="0.5" y2="-0.056" xlink:href="#linear-gradient"/>
    <linearGradient id="linear-gradient-4" x1="0.5" y1="1.045" x2="0.5" y2="-0.029" xlink:href="#linear-gradient"/>
    <linearGradient id="linear-gradient-5" x1="0.5" y1="1.007" x2="0.5" y2="-0.058" xlink:href="#linear-gradient"/>
    <linearGradient id="linear-gradient-6" x1="0.5" y1="1.02" x2="0.5" y2="-0.048" xlink:href="#linear-gradient"/>
    <linearGradient id="linear-gradient-7" x1="0.5" y1="-0.1" x2="0.5" y2="1.072" xlink:href="#linear-gradient"/>
    <linearGradient id="linear-gradient-8" x1="0.5" y1="1.114" x2="0.5" y2="-0.063" xlink:href="#linear-gradient"/>
    <linearGradient id="linear-gradient-9" x1="0.5" y1="1.114" x2="0.5" y2="-0.063" xlink:href="#linear-gradient"/>
    <linearGradient id="linear-gradient-10" x1="0.5" y1="1.114" x2="0.5" y2="-0.063" xlink:href="#linear-gradient"/>
    <linearGradient id="linear-gradient-11" x1="0.5" y1="1.114" x2="0.5" y2="-0.063" xlink:href="#linear-gradient"/>
    <linearGradient id="linear-gradient-13" x1="0.5" y1="1.068" x2="0.5" y2="-0.01" xlink:href="#linear-gradient"/>
    <linearGradient id="linear-gradient-14" x1="0.5" y1="1.026" x2="0.5" y2="-0.021" xlink:href="#linear-gradient"/>
    <linearGradient id="linear-gradient-16" x1="0.514" y1="-0.066" x2="0.454" y2="2.393" xlink:href="#linear-gradient"/>
    <linearGradient id="linear-gradient-17" x1="0.521" y1="-0.035" x2="0.424" y2="2.425" xlink:href="#linear-gradient"/>
    <linearGradient id="linear-gradient-18" x1="0.515" y1="0.007" x2="0.447" y2="2.391" xlink:href="#linear-gradient"/>
    <linearGradient id="linear-gradient-19" x1="0.526" y1="0.02" x2="0.461" y2="2.48" xlink:href="#linear-gradient"/>
    <linearGradient id="linear-gradient-20" x1="0.561" y1="-0.96" x2="0.491" y2="0.985" xlink:href="#linear-gradient"/>
    <linearGradient id="linear-gradient-21" x1="0.552" y1="-0.98" x2="0.499" y2="1.025" xlink:href="#linear-gradient"/>
    <linearGradient id="linear-gradient-22" x1="0.56" y1="-0.954" x2="0.477" y2="1.051" xlink:href="#linear-gradient"/>
    <linearGradient id="linear-gradient-23" x1="0.556" y1="-0.932" x2="0.478" y2="1.073" xlink:href="#linear-gradient"/>
  </defs>
  <g id="Group_10925" data-name="Group 10925" transform="translate(87.693 252.542)">
    <path id="Path_13981" data-name="Path 13981" d="M203.18,211.123H184.128l34.435-104.174H180.105V88.771h57.336V105.2Z" transform="translate(-180.105 -87.023)" fill="url(#linear-gradient)"/>
    <path id="Path_13982" data-name="Path 13982" d="M255.159,119.307V183.28c0,19.227-11.364,30.938-29.89,30.938s-29.89-11.712-29.89-30.938V119.307c0-19.227,11.364-30.938,29.89-30.938S255.159,100.081,255.159,119.307Zm-41.254.174v63.625c0,9.089,4.023,13.982,11.364,13.982s11.359-4.893,11.359-13.982V119.481c0-9.089-4.018-13.986-11.359-13.986S213.905,110.392,213.905,119.481Z" transform="translate(-128.954 -88.369)" fill="url(#linear-gradient-2)"/>
  </g>
  <g id="Group_10928" data-name="Group 10928" transform="translate(3.638 250.737)">
    <g id="Group_10926" data-name="Group 10926">
      <path id="Path_13983" data-name="Path 13983" d="M160.777,87.954h8.95v43.967A5.8,5.8,0,0,0,171,135.866a4.224,4.224,0,0,0,3.357,1.47,3.969,3.969,0,0,0,3.262-1.453,6.119,6.119,0,0,0,1.174-3.962V87.954h8.911v42.437q0,7.5-3.47,11.52t-9.955,4.027q-6.556,0-10.029-4.044t-3.475-11.738Z" transform="translate(-160.777 -87.954)" fill="url(#linear-gradient-3)"/>
      <path id="Path_13984" data-name="Path 13984" d="M168.9,144.72V87.954h12.834q7.189,0,10.424,3.884t3.24,12.525q0,8.05-3.14,12.664a9.864,9.864,0,0,1-8.6,4.61h-6.006V144.72Zm8.754-31.212h3.453q3.066,0,4.218-1.866t1.161-7.124q0-4.827-1.218-6.593c-.813-1.179-2.3-1.77-4.475-1.77h-3.14Z" transform="translate(-133.57 -87.954)" fill="url(#linear-gradient-4)"/>
    </g>
    <g id="Group_10927" data-name="Group 10927" transform="translate(2.492 63.89)">
      <path id="Path_13985" data-name="Path 13985" d="M161.35,111.127v-8.2h26.928v8.2h-9.107v48.56h-8.754v-48.56Z" transform="translate(-161.35 -101.707)" fill="url(#linear-gradient-5)"/>
      <path id="Path_13986" data-name="Path 13986" d="M168.228,116.975q0-6.713,3.653-10.52t10.089-3.81a12.383,12.383,0,0,1,9.637,3.905q3.549,3.908,3.553,10.659V146.3q0,7.463-3.518,11.507t-9.985,4.04q-6.556,0-9.994-4.023t-3.436-11.759Zm17.939,31.13V116.427a7.165,7.165,0,0,0-1.135-4.419,4.6,4.6,0,0,0-6.754,0,7.166,7.166,0,0,0-1.135,4.419V148.1a7.267,7.267,0,0,0,1.135,4.436,4.568,4.568,0,0,0,6.754,0A7.266,7.266,0,0,0,186.167,148.1Z" transform="translate(-138.316 -102.645)" fill="url(#linear-gradient-6)"/>
    </g>
  </g>
  <path id="Path_13987" data-name="Path 13987" d="M250.06,131.094q0,10.874-4.984,16.743T230.9,153.7c-6.306,0-11.064-1.94-14.308-5.823s-4.853-9.6-4.853-17.139v-22.68q0-9.87,5.114-15.408t14.391-5.541q8.669,0,13.747,5.714t5.071,15.586ZM219.191,215,275.81,89.614h15.26L234.451,215Zm17.348-80.677V105.357a7.238,7.238,0,0,0-1.487-4.753,4.961,4.961,0,0,0-4.018-1.787,5.261,5.261,0,0,0-4.11,1.879,6.773,6.773,0,0,0-1.661,4.662v28.968a8.765,8.765,0,0,0,1.661,5.536,5.029,5.029,0,0,0,4.11,2.14,4.748,4.748,0,0,0,4.1-1.922A9.733,9.733,0,0,0,236.539,134.325Zm63.029,60.646q0,10.927-4.936,16.822-4.951,5.891-14.225,5.9-9.361,0-14.26-5.9t-4.9-17.256V172q0-9.8,5.2-15.343t14.478-5.549q8.67,0,13.656,5.671,4.99,5.688,4.988,15.569ZM286.043,198.1V169.573a7.29,7.29,0,0,0-1.618-4.862,5.194,5.194,0,0,0-4.153-1.9,4.918,4.918,0,0,0-3.927,1.861,7.07,7.07,0,0,0-1.579,4.727v28.7a9.552,9.552,0,0,0,1.579,5.68,4.674,4.674,0,0,0,3.927,2.2,4.967,4.967,0,0,0,4.284-2.04A9.82,9.82,0,0,0,286.043,198.1Z" transform="translate(13.521 159.967)" fill="url(#linear-gradient-7)"/>
  <g id="Group_10929" data-name="Group 10929" transform="translate(225.258 247.08)" style="mix-blend-mode: screen;isolation: isolate">
    <path id="Path_13988" data-name="Path 13988" d="M234.623,145.551a9.845,9.845,0,0,0,1.487-5.849V111.177a7.251,7.251,0,0,0-1.622-4.858,5.3,5.3,0,0,0-1.857-1.435c.126.126.287.174.4.313a7.282,7.282,0,0,1,1.618,4.862v28.525a9.821,9.821,0,0,1-1.487,5.845,4.967,4.967,0,0,1-4.284,2.04,4.3,4.3,0,0,1-1.8-.461,4.469,4.469,0,0,0,3.257,1.579A4.964,4.964,0,0,0,234.623,145.551Z" transform="translate(-160.348 -27.599)" fill="url(#linear-gradient-8)"/>
    <path id="Path_13989" data-name="Path 13989" d="M221.76,90.216a7.226,7.226,0,0,1,1.487,4.749v28.968a9.734,9.734,0,0,1-1.4,5.754,5.054,5.054,0,0,1-6.136,1.435,4.855,4.855,0,0,0,3.492,1.6,4.755,4.755,0,0,0,4.1-1.918,9.739,9.739,0,0,0,1.4-5.758V96.087a7.246,7.246,0,0,0-1.487-4.753A4.8,4.8,0,0,0,221.76,90.216Z" transform="translate(-198.445 -76.721)" fill="url(#linear-gradient-9)"/>
    <path id="Path_13990" data-name="Path 13990" d="M229.479,163.638q-4.912-5.9-4.9-17.257V123.837q0-9.8,5.2-15.343t14.478-5.545a18.4,18.4,0,0,1,10.35,2.862,17.739,17.739,0,0,0-11.807-3.984q-9.27,0-14.473,5.549t-5.206,15.343v22.54q0,11.364,4.9,17.256a15.3,15.3,0,0,0,3.392,2.953A15.37,15.37,0,0,1,229.479,163.638Z" transform="translate(-173.613 -37.837)" fill="url(#linear-gradient-10)"/>
    <path id="Path_13991" data-name="Path 13991" d="M271.529,88.808h13.3l.506-1.12h-15.26l-56.622,125.39h1.961Z" transform="translate(-205.998 -85.188)" fill="url(#linear-gradient-11)"/>
    <path id="Path_13992" data-name="Path 13992" d="M218.047,149q-4.86-5.825-4.853-17.139V109.184q0-9.876,5.114-15.413T232.7,88.235a18.5,18.5,0,0,1,10.42,2.9,17.879,17.879,0,0,0-11.877-4.023q-9.27,0-14.391,5.541t-5.114,15.408v22.68q0,11.312,4.853,17.139a15.012,15.012,0,0,0,3.357,2.9A14.7,14.7,0,0,1,218.047,149Z" transform="translate(-211.737 -87.113)" fill="url(#linear-gradient-10)"/>
  </g>
  <g id="Group_10930" data-name="Group 10930" transform="translate(329.857 337.532)">
    <path id="Path_13993" data-name="Path 13993" d="M235.252,97.708a9.235,9.235,0,0,1,2.314-6.658,8.435,8.435,0,0,1,6.384-2.409,7.831,7.831,0,0,1,6.1,2.475,9.658,9.658,0,0,1,2.248,6.741V116.27q0,4.716-2.227,7.28a9.108,9.108,0,0,1-12.642.013q-2.179-2.551-2.179-7.441Zm11.355,19.7V97.365a4.536,4.536,0,0,0-.718-2.8,2.911,2.911,0,0,0-4.275,0,4.536,4.536,0,0,0-.717,2.8v20.048a4.591,4.591,0,0,0,.717,2.805,2.893,2.893,0,0,0,4.275,0A4.591,4.591,0,0,0,246.607,117.413Z" transform="translate(-235.252 -88.641)" fill="url(#linear-gradient-13)"/>
    <path id="Path_13994" data-name="Path 13994" d="M235.553,133.99V98.064h14.434v5.193h-8.894v9.415H247.5v5.193h-6.406V133.99Z" transform="translate(-211.981 -97.158)" fill="url(#linear-gradient-14)"/>
    <path id="Path_14028" data-name="Path 14028" d="M235.553,133.99V98.064h14.434v5.193h-8.894v9.415H247.5v5.193h-6.406V133.99Z" transform="translate(-193.057 -97.158)" fill="url(#linear-gradient-14)"/>
  </g>
  <g id="Group_10931" data-name="Group 10931" transform="translate(39.951 0)">
    <path id="Path_13996" data-name="Path 13996" d="M237.613,58.968,219.1,104.536H207.367L188.653,59.551h-.191v44.985H170.14V28.626h22.975l20.166,47.795,19.392-47.795h23.849v75.91H237.809V58.968Z" transform="translate(-165.735 -27.365)" fill="url(#linear-gradient-16)"/>
    <path id="Path_13997" data-name="Path 13997" d="M246.648,45.591H212.522V58h31.025V74.385H212.522V87.471h34.417v17.065H193.617V28.626h53.031Z" transform="translate(-87.112 -27.365)" fill="url(#linear-gradient-17)"/>
    <path id="Path_13998" data-name="Path 13998" d="M232.608,83.015a18.826,18.826,0,0,0,14.738,6.4A20.076,20.076,0,0,0,257.718,86.6q4.8-2.766,5.819-7.271H241.723V64.014h41.784v7.367a34.608,34.608,0,0,1-10.081,25.206c-6.689,6.689-15.317,10.085-26.08,10.085-11.346,0-20.844-3.688-28.407-11.151S207.6,78.749,207.6,67.5A37.672,37.672,0,0,1,219.13,39.969a38.378,38.378,0,0,1,28.12-11.633,39.376,39.376,0,0,1,20.84,5.719,31.852,31.852,0,0,1,13.382,15.608l-16.191,7.95c-3.392-8.045-9.5-12.02-18.131-12.02A19.183,19.183,0,0,0,232.708,51.7c-3.879,4.075-5.819,9.311-5.819,15.613A22.877,22.877,0,0,0,232.608,83.015Z" transform="translate(-40.294 -28.336)" fill="url(#linear-gradient-18)"/>
    <path id="Path_13999" data-name="Path 13999" d="M245.28,104.536H225.21L254.4,28.626h21.523l29.181,75.91H284.838L279.6,90.576H250.325Zm19.683-54.388-9.015,24.236H274.17Z" transform="translate(18.69 -27.365)" fill="url(#linear-gradient-19)"/>
    <path id="Path_14000" data-name="Path 14000" d="M233.356,136.393Q223.9,144.6,206.95,144.6q-28.722,0-37.822-21.41l19.387-9.989q5.173,11.416,18.557,11.42c7.493,0,12.012-2.975,12.012-7.732,0-4.162-3.449-6.541-14.512-9.515-20.931-5.71-31.638-14.156-31.638-29.734A25.815,25.815,0,0,1,182.8,56.821c6.663-5.471,14.63-8.206,24.028-8.206,17.126,0,29.142,8.089,34.374,20.457L222.058,79.54c-3.092-7.371-8.328-11.059-15.821-11.059-5.827,0-9.989,3.21-9.989,7.85,0,3.923,2.735,6.658,12.607,9.515,11.894,3.449,20.457,7.371,25.811,11.773,5.349,4.284,8.085,10.229,8.085,17.844A26.489,26.489,0,0,1,233.356,136.393Z" transform="translate(-169.127 31.04)" fill="url(#linear-gradient-20)"/>
    <path id="Path_14001" data-name="Path 14001" d="M211.167,142.1H186.544l35.8-93.132h26.407l35.8,93.132H259.693l-6.423-17.13H217.352Zm24.141-66.73-11.059,29.738h22.362Z" transform="translate(-110.799 32.233)" fill="url(#linear-gradient-21)"/>
    <path id="Path_14002" data-name="Path 14002" d="M234.5,48.971v71.722h39.132V142.1H211.072V48.971Z" transform="translate(-28.657 32.233)" fill="url(#linear-gradient-22)"/>
    <path id="Path_14003" data-name="Path 14003" d="M293.115,69.785H251.248V85.01H289.31v20.1H251.248v16.056h42.224V142.1H228.051V48.971h65.064Z" transform="translate(28.204 32.233)" fill="url(#linear-gradient-23)"/>
  </g>
  <g id="Group_10932" data-name="Group 10932" transform="translate(0 171.775)">
    <path id="Path_14004" data-name="Path 14004" d="M372.265,156.317H239.75l52.871-77.128h89.66l-22.728,39.792Z" transform="translate(107.334 -38.344)" fill="#fff"/>
    <path id="Path_14005" data-name="Path 14005" d="M239.75,125.918l52.657-37.651-52.657.069Z" transform="translate(107.334 -7.944)" fill="#c1c1c1"/>
    <path id="Path_14006" data-name="Path 14006" d="M500.86,154.523H159.94L196.921,116.7,163.407,72.012l378-2.215Z" transform="translate(-159.94 -69.797)" fill="#c1c1c1" style="mix-blend-mode: multiply;isolation: isolate"/>
    <path id="Path_14007" data-name="Path 14007" d="M551.3,147.3H162.421l30.047-35.371L162.421,70.661H551.3Z" transform="translate(-151.634 -66.905)" fill="#fff"/>
  </g>
  <g id="Group_10933" data-name="Group 10933" transform="translate(92.282 187.639)" opacity="0.3">
    <path id="Path_14008" data-name="Path 14008" d="M181.16,122.823V73.445h21.5v6.971H191.193V93.489H200.1v7.028h-8.907v15.456h11.586v6.85Z" transform="translate(-181.16 -73.445)" fill="#1f0329"/>
    <path id="Path_14009" data-name="Path 14009" d="M187.206,80.751v-7h9.263v7Zm.03,41.036V86.527h9.2v35.261Z" transform="translate(-160.913 -72.41)" fill="#1f0329"/>
    <path id="Path_14010" data-name="Path 14010" d="M199.069,123.414q-8.4,0-8.4-11.79V99.147a21.492,21.492,0,0,1,.8-6.2,8.956,8.956,0,0,1,2.722-4.3A7.125,7.125,0,0,1,199.008,87a9.812,9.812,0,0,1,6.584,2.74V73.445h9.2v49.378h-9.2v-2.562A9.354,9.354,0,0,1,199.069,123.414Zm3.662-6.193a6.193,6.193,0,0,0,2.862-.892V93.963a5.582,5.582,0,0,0-2.862-.892,2.263,2.263,0,0,0-2.157,1.266,6.935,6.935,0,0,0-.67,3.262V112.25Q199.9,117.221,202.731,117.221Z" transform="translate(-149.309 -73.445)" fill="#1f0329"/>
    <path id="Path_14011" data-name="Path 14011" d="M208.909,112.979a7.457,7.457,0,0,1-4.24-1.309,7.988,7.988,0,0,1-2.77-3.183,9.269,9.269,0,0,1-.909-4.023,12.455,12.455,0,0,1,.27-2.618,14.446,14.446,0,0,1,.652-2.235,7.512,7.512,0,0,1,1.1-1.892q.711-.907,1.34-1.579a9.435,9.435,0,0,1,1.653-1.353q1.024-.685,1.77-1.118c.5-.287,1.144-.609,1.935-.97s1.426-.626,1.892-.818,1.113-.444,1.935-.761,1.426-.544,1.8-.683V87.194a6.354,6.354,0,0,0-.491-2.844,1.939,1.939,0,0,0-1.892-.939q-2.355,0-2.475,3.305l-.178,2.414-8.724-.361a8.428,8.428,0,0,1,.091-1.218q.385-5.662,3.423-8.324t8.667-2.666q5.206,0,7.845,2.857a11.119,11.119,0,0,1,2.635,7.832v16.291a65.283,65.283,0,0,0,.657,8.846h-8.25q-.744-3.9-.865-5.067a8.784,8.784,0,0,1-2.457,4.036A6.228,6.228,0,0,1,208.909,112.979Zm3.427-6.667a2.9,2.9,0,0,0,1.653-.6,5.6,5.6,0,0,0,1.357-1.313V94.757a12.628,12.628,0,0,0-4.127,3.349,6.826,6.826,0,0,0-1.653,4.305,4.856,4.856,0,0,0,.744,2.844A2.353,2.353,0,0,0,212.336,106.312Z" transform="translate(-114.751 -63.01)" fill="#1f0329"/>
    <path id="Path_14012" data-name="Path 14012" d="M207.831,122.823V73.445h9.228v49.378Z" transform="translate(-91.841 -73.445)" fill="#1f0329"/>
    <path id="Path_14013" data-name="Path 14013" d="M211.556,85.528V79.4h15.3v6.132Z" transform="translate(-79.367 -53.516)" fill="#1f0329"/>
    <path id="Path_14014" data-name="Path 14014" d="M219.739,121.788V92.9h-3.575V86.527h3.575v-2.2a30.865,30.865,0,0,1,.178-3.588,11.685,11.685,0,0,1,.731-2.888A5.4,5.4,0,0,1,222.2,75.6a7.526,7.526,0,0,1,2.692-1.339,14.366,14.366,0,0,1,4.084-.5,42.791,42.791,0,0,1,4.645.326v6.85c-1.392-.2-2.114-.3-2.174-.3q-2.5,0-2.5,3.157v2.74h4.675V92.9h-4.675v28.885Z" transform="translate(-63.935 -72.41)" fill="#1f0329"/>
    <path id="Path_14015" data-name="Path 14015" d="M221.067,80.751v-7h9.259v7Zm.03,41.036V86.527h9.2v35.261Z" transform="translate(-47.515 -72.41)" fill="#1f0329"/>
    <path id="Path_14016" data-name="Path 14016" d="M236.275,120.513a10.669,10.669,0,0,1-3.723-.7,6.863,6.863,0,0,1-2.518-1.653,7.468,7.468,0,0,1-1.5-2.561,14.6,14.6,0,0,1-.774-3.14,28.367,28.367,0,0,1-.209-3.649V90.854h-3.4V84.809h3.4V74.267h9.289V84.809h5.21v6.045h-5.21v19.179c0,1.983,1.061,3.009,3.188,3.066h.209a14.8,14.8,0,0,0,2.383-.239v7.211a50.594,50.594,0,0,1-5.841.444Z" transform="translate(-37.174 -70.692)" fill="#1f0329"/>
    <path id="Path_14017" data-name="Path 14017" d="M229.51,112.3V77.036h9.2v5.658q3.275-6.106,7.206-6.106a4.794,4.794,0,0,1,1.34.209v8.55a6.462,6.462,0,0,0-2.174-.361,7.08,7.08,0,0,0-3.5,1.031,9.979,9.979,0,0,0-2.875,2.962V112.3Z" transform="translate(-19.24 -62.919)" fill="#1f0329"/>
  </g>
  <g id="Group_10934" data-name="Group 10934" transform="translate(91.216 187.343)">
    <path id="Path_14018" data-name="Path 14018" d="M180.915,122.75V73.377h21.5v6.967H190.952V93.417h8.9v7.028h-8.9V115.9h11.581v6.85Z" transform="translate(-180.915 -73.377)" fill="#1f0329"/>
    <path id="Path_14019" data-name="Path 14019" d="M186.961,80.682v-7h9.263v7Zm.03,41.036V86.462h9.2v35.257Z" transform="translate(-160.667 -72.346)" fill="#1f0329"/>
    <path id="Path_14020" data-name="Path 14020" d="M198.824,123.346q-8.4,0-8.4-11.794V99.075a21.441,21.441,0,0,1,.8-6.193,8.93,8.93,0,0,1,2.727-4.3,7.092,7.092,0,0,1,4.806-1.653,9.8,9.8,0,0,1,6.584,2.74V73.377h9.2V122.75h-9.2v-2.562A9.352,9.352,0,0,1,198.824,123.346Zm3.662-6.193a6.177,6.177,0,0,0,2.862-.9V93.9a5.59,5.59,0,0,0-2.862-.9,2.267,2.267,0,0,0-2.157,1.266,6.947,6.947,0,0,0-.67,3.262v14.652Q199.659,117.155,202.486,117.153Z" transform="translate(-149.064 -73.377)" fill="#1f0329"/>
    <path id="Path_14021" data-name="Path 14021" d="M208.669,112.911a7.493,7.493,0,0,1-4.244-1.309,8.033,8.033,0,0,1-2.77-3.188,9.237,9.237,0,0,1-.909-4.018,12.525,12.525,0,0,1,.27-2.622,13.777,13.777,0,0,1,.657-2.231,7.362,7.362,0,0,1,1.1-1.892c.478-.609.922-1.135,1.339-1.579a9.408,9.408,0,0,1,1.653-1.357c.687-.457,1.274-.826,1.774-1.118a21.513,21.513,0,0,1,1.935-.965q1.187-.535,1.887-.818c.47-.191,1.113-.444,1.94-.761s1.422-.548,1.8-.687V87.122a6.382,6.382,0,0,0-.491-2.844,1.935,1.935,0,0,0-1.892-.939q-2.355,0-2.47,3.305l-.178,2.414-8.728-.357a8.485,8.485,0,0,1,.091-1.222q.385-5.656,3.423-8.324t8.667-2.662q5.212,0,7.845,2.857A11.1,11.1,0,0,1,224,87.183v16.287a65.3,65.3,0,0,0,.657,8.846h-8.25q-.744-3.9-.861-5.062a8.843,8.843,0,0,1-2.457,4.036A6.235,6.235,0,0,1,208.669,112.911Zm3.423-6.671a2.865,2.865,0,0,0,1.652-.6,5.5,5.5,0,0,0,1.357-1.309v-9.65a12.687,12.687,0,0,0-4.127,3.353,6.824,6.824,0,0,0-1.653,4.3,4.824,4.824,0,0,0,.748,2.844A2.346,2.346,0,0,0,212.091,106.24Z" transform="translate(-114.506 -62.942)" fill="#1f0329"/>
    <path id="Path_14022" data-name="Path 14022" d="M207.586,122.75V73.377h9.233V122.75Z" transform="translate(-91.596 -73.377)" fill="#1f0329"/>
    <path id="Path_14023" data-name="Path 14023" d="M211.311,85.463V79.327h15.308v6.136Z" transform="translate(-79.121 -53.451)" fill="#1f0329"/>
    <path id="Path_14024" data-name="Path 14024" d="M219.494,121.719V92.833h-3.575V86.462h3.575v-2.2a30.858,30.858,0,0,1,.178-3.588,11.832,11.832,0,0,1,.731-2.888,5.375,5.375,0,0,1,1.548-2.248,7.515,7.515,0,0,1,2.7-1.344,14.471,14.471,0,0,1,4.079-.5,42.72,42.72,0,0,1,4.645.326v6.85c-1.392-.2-2.114-.3-2.174-.3q-2.5,0-2.5,3.157v2.74h4.675v6.371H228.7v28.885Z" transform="translate(-63.69 -72.346)" fill="#1f0329"/>
    <path id="Path_14025" data-name="Path 14025" d="M220.822,80.682v-7h9.263v7Zm.03,41.036V86.462h9.2v35.257Z" transform="translate(-47.27 -72.346)" fill="#1f0329"/>
    <path id="Path_14026" data-name="Path 14026" d="M236.031,120.445a10.689,10.689,0,0,1-3.723-.7,6.9,6.9,0,0,1-2.514-1.653,7.518,7.518,0,0,1-1.5-2.562,14.571,14.571,0,0,1-.774-3.144,28.282,28.282,0,0,1-.209-3.644V90.786h-3.4V84.741h3.4V74.2H236.6V84.741h5.214v6.045H236.6V109.96q0,2.981,3.188,3.07h.209a14.758,14.758,0,0,0,2.383-.239V120a49.79,49.79,0,0,1-5.836.448Z" transform="translate(-36.929 -70.624)" fill="#1f0329"/>
    <path id="Path_14027" data-name="Path 14027" d="M229.265,112.225V76.968h9.2v5.658q3.275-6.106,7.206-6.106a4.772,4.772,0,0,1,1.339.209v8.546a6.462,6.462,0,0,0-2.174-.357,7.076,7.076,0,0,0-3.5,1.026,10.032,10.032,0,0,0-2.875,2.962v23.319Z" transform="translate(-18.995 -62.851)" fill="#1f0329"/>
  </g>
</svg>
