<svg width="16" height="13" viewBox="0 0 16 13" fill="none" xmlns="http://www.w3.org/2000/svg">
<path d="M13.6774 0H2.32258C1.7068 0.000722091 1.11644 0.259637 0.681023 0.719938C0.245602 1.18024 0.000683059 1.80434 0 2.4553V9.86485C0 11.2185 1.04206 12.3202 2.32258 12.3202H13.6774C14.9579 12.3202 16 11.2185 16 9.86485V2.4553C16 1.10161 14.9579 0 13.6774 0ZM12.991 1.63687L8.48 5.40166C8.19613 5.63628 7.80387 5.63628 7.52 5.40166L3.85548 2.34072L3.01058 1.63687H12.991ZM13.6774 10.6833H2.32258C1.89574 10.6833 1.54839 10.3161 1.54839 9.86485V2.50713L6.56 6.68933C6.98323 7.04398 7.49419 7.21858 8 7.21858C8.50581 7.21858 9.01677 7.04398 9.44 6.68933L14.4516 2.50877V9.86485C14.4516 10.3161 14.1043 10.6833 13.6774 10.6833Z" fill="#8F8EB9"/>
</svg>
