<svg xmlns="http://www.w3.org/2000/svg" width="110.361" height="25.998" viewBox="0 0 110.361 25.998">
  <g id="Group_10892" data-name="Group 10892" transform="translate(-0.5 -0.332)">
    <g id="Group_10863" data-name="Group 10863" transform="translate(0.5 0.332)">
      <path id="Path_13930" data-name="Path 13930" d="M27.429,6.88a1.833,1.833,0,0,0-2,.323l-2.2,2.042V7.278c0-.1,0-.208-.007-.313A6.939,6.939,0,0,0,16.292.332H7.436A6.941,6.941,0,0,0,.5,7.278v8.846a6.941,6.941,0,0,0,5.277,6.743v2.155a1.308,1.308,0,0,0,1.893,1.17l6.166-3.09,1.918-.032h.539c.16,0,.319-.005.475-.017a6.763,6.763,0,0,0,.85-.11,6.946,6.946,0,0,0,5.614-6.506c.005-.1.007-.208.007-.313V14.978l2.206,2.042a1.878,1.878,0,0,0,1.252.486,1.817,1.817,0,0,0,.744-.162,1.726,1.726,0,0,0,1.079-1.6V8.477A1.725,1.725,0,0,0,27.429,6.88ZM12.521,19.6,9.6,21.056a.5.5,0,0,1-.72-.444V19.02a7.741,7.741,0,0,1-4.74-7.138h0a7.741,7.741,0,0,1,7.741-7.74h0A7.74,7.74,0,0,1,12.521,19.6Z" transform="translate(-0.5 -0.332)" fill="#fff"/>
      <g id="Group_10862" data-name="Group 10862" transform="translate(6.438 10.436)">
        <circle id="Ellipse_287" data-name="Ellipse 287" cx="1.111" cy="1.111" r="1.111" transform="translate(7.333 0.225)" fill="#fff"/>
        <circle id="Ellipse_288" data-name="Ellipse 288" cx="1.111" cy="1.111" r="1.111" transform="translate(3.779 0.225)" fill="#fff"/>
        <circle id="Ellipse_289" data-name="Ellipse 289" cx="1.111" cy="1.111" r="1.111" transform="translate(0 0.51) rotate(-13.282)" fill="#fff"/>
      </g>
    </g>
    <path id="Path_13889" data-name="Path 13889" d="M51.113,14.383h5.044v4.874h2.49V7.217h-2.49v4.752H51.113V7.217H48.62v12.04h2.493Zm17.882,1.43c.015-.184.031-.477.031-.861a3.9,3.9,0,0,0-4.09-4.105A4.237,4.237,0,0,0,61.86,12.1a4.124,4.124,0,0,0-1.277,3.029,4.085,4.085,0,0,0,1.292,3.106,4.581,4.581,0,0,0,3.215,1.2,3.7,3.7,0,0,0,3.534-1.859l-1.737-1.137a2.2,2.2,0,0,1-1.83.984,1.927,1.927,0,0,1-2.027-1.615Zm-5.907-1.583a1.843,1.843,0,0,1,1.789-1.43,1.622,1.622,0,0,1,1.753,1.43Zm10.059-7.5H70.733V19.257h2.414Zm4.6,4.321H75.361v12.27h2.4V18.348h.031a2.988,2.988,0,0,0,2.429,1.062,3.606,3.606,0,0,0,2.844-1.292,4.422,4.422,0,0,0,1.123-2.986,4.472,4.472,0,0,0-1.092-2.953,3.5,3.5,0,0,0-2.813-1.288,2.909,2.909,0,0,0-2.507,1.165h-.031ZM77.7,15.133a2.036,2.036,0,0,1,.587-1.488,1.948,1.948,0,0,1,1.43-.585,2.023,2.023,0,0,1,2.045,2.073,2.112,2.112,0,0,1-.584,1.522,2.08,2.08,0,0,1-2.891,0A2.113,2.113,0,0,1,77.7,15.133ZM88,13.226a3.745,3.745,0,0,1,1.076-2.736A3.539,3.539,0,0,1,91.7,9.383a3.179,3.179,0,0,1,2.091.646A3.492,3.492,0,0,1,94.932,11.5l2.2-1.076a5.2,5.2,0,0,0-1.892-2.353,5.751,5.751,0,0,0-3.505-1.048,6.126,6.126,0,0,0-4.444,1.8,5.973,5.973,0,0,0-1.827,4.42A6.139,6.139,0,0,0,87.2,17.657a6.07,6.07,0,0,0,4.506,1.783,5.458,5.458,0,0,0,4.874-2.585,5.829,5.829,0,0,0,.831-3.134v-.938H91.152v2.26h3.66a2.969,2.969,0,0,1-3.106,2.027,3.452,3.452,0,0,1-2.66-1.12A3.886,3.886,0,0,1,88,13.229Zm18.99,2.586c.015-.184.031-.477.031-.861a3.9,3.9,0,0,0-4.09-4.105A4.239,4.239,0,0,0,99.852,12.1a4.125,4.125,0,0,0-1.274,3.029,4.085,4.085,0,0,0,1.292,3.106,4.582,4.582,0,0,0,3.215,1.2,3.7,3.7,0,0,0,3.535-1.859l-1.737-1.137a2.2,2.2,0,0,1-1.83.984,1.927,1.927,0,0,1-2.027-1.615Zm-5.9-1.583a1.829,1.829,0,0,1,1.783-1.43,1.623,1.623,0,0,1,1.753,1.43Zm15.33,5.028v-5.1a3.572,3.572,0,0,0-.753-2.322,2.632,2.632,0,0,0-2.215-.938,2.671,2.671,0,0,0-1.507.431,2.145,2.145,0,0,0-.814.8h-.015V11.048h-2.383v8.209h2.4V14.706a1.439,1.439,0,0,1,1.268-1.591,1.516,1.516,0,0,1,.208-.008c.938,0,1.43.629,1.43,1.6v4.551Zm7.119-2.027a2.093,2.093,0,0,1-.553.061c-.938,0-1.43-.369-1.43-1.307V13.122h2.027V11.046H121.55V8.478h-2.368v2.568h-1.51v2.076h1.476v3.152c0,1.922,1.123,3.091,3.26,3.091a3.808,3.808,0,0,0,1.122-.154Z" transform="translate(-12.716 -1.689)" fill="#fff"/>
  </g>
</svg>
