<svg xmlns="http://www.w3.org/2000/svg" width="170" height="38.01" viewBox="0 0 170 38.01">
  <g id="HelpGent_Logo" data-name="HelpGent Logo" transform="translate(-67.2 -53)">
    <g id="Group_10925" data-name="Group 10925" transform="translate(67.2 53)">
      <path id="Path_13979" data-name="Path 13979" d="M106.562,62.589a2.713,2.713,0,0,0-2.907.462l-3.205,2.988V62.7A10.143,10.143,0,0,0,90.29,53H77.332A10.139,10.139,0,0,0,67.2,63.16V76.09a10.144,10.144,0,0,0,7.715,9.861V89.1a2.127,2.127,0,0,0,.19.842,1.934,1.934,0,0,0,2.581.869L86.7,86.3l2.8-.054h.788A6.139,6.139,0,0,0,91,86.223a9.836,9.836,0,0,0,1.25-.163,10.153,10.153,0,0,0,8.2-9.508V74.406l3.233,2.988a2.638,2.638,0,0,0,1.82.706,2.7,2.7,0,0,0,2.662-2.581V64.9A2.529,2.529,0,0,0,106.562,62.589ZM84.776,81.17l-4.265,2.146a.725.725,0,0,1-1.059-.652V80.328A11.286,11.286,0,0,1,72.524,69.9h0A11.338,11.338,0,0,1,83.852,58.569h0a11.32,11.32,0,0,1,.924,22.6Z" transform="translate(-67.2 -53)"/>
      <g id="Group_10924" data-name="Group 10924" transform="translate(9.396 15.259)">
        <circle id="Ellipse_333" data-name="Ellipse 333" cx="1.63" cy="1.63" r="1.63" transform="translate(10.734 0.334)"/>
        <circle id="Ellipse_334" data-name="Ellipse 334" cx="1.63" cy="1.63" r="1.63" transform="translate(5.518 0.334)"/>
        <circle id="Ellipse_335" data-name="Ellipse 335" cx="1.63" cy="1.63" r="1.63" transform="translate(0 0.749) rotate(-13.286)"/>
      </g>
    </g>
    <path id="Path_13889" d="M255.966,86.424h8.068v7.8h3.993V74.988h-3.993v7.606h-8.068V74.988H252V94.221h3.993v-7.8Zm28.6,2.282c.027-.3.054-.761.054-1.385a6.243,6.243,0,0,0-6.547-6.574,6.812,6.812,0,0,0-4.917,2.01,6.506,6.506,0,0,0-2.037,4.835,6.585,6.585,0,0,0,2.065,4.971,7.461,7.461,0,0,0,5.134,1.929,5.912,5.912,0,0,0,5.65-2.961l-2.771-1.82a3.514,3.514,0,0,1-2.934,1.576,3.059,3.059,0,0,1-3.233-2.581Zm-9.453-2.526a2.585,2.585,0,0,1,.9-1.521,2.619,2.619,0,0,1,1.956-.761,2.593,2.593,0,0,1,2.8,2.282ZM291.2,74.2h-3.857V94.221H291.2Zm7.335,6.9h-3.8v19.613h3.83V92.781h.054a4.821,4.821,0,0,0,3.885,1.711,5.819,5.819,0,0,0,4.537-2.065,7.023,7.023,0,0,0,1.793-4.781,7.206,7.206,0,0,0-1.739-4.727,5.562,5.562,0,0,0-4.509-2.065,4.588,4.588,0,0,0-3.993,1.874h-.054Zm-.054,6.52a3.3,3.3,0,0,1,.951-2.391,3.033,3.033,0,0,1,2.282-.924,3.2,3.2,0,0,1,3.26,3.314,3.4,3.4,0,0,1-.924,2.445,3.052,3.052,0,0,1-2.309.924,3.155,3.155,0,0,1-2.309-.924A3.273,3.273,0,0,1,298.48,87.62Zm16.462-3.043a5.978,5.978,0,0,1,1.711-4.374,5.682,5.682,0,0,1,4.211-1.766,5.1,5.1,0,0,1,3.341,1.032,5.4,5.4,0,0,1,1.82,2.363l3.5-1.711a8.332,8.332,0,0,0-3.015-3.749,9.368,9.368,0,0,0-5.6-1.684,9.76,9.76,0,0,0-7.09,2.88,9.574,9.574,0,0,0-2.907,7.063,9.91,9.91,0,0,0,2.771,7.063,9.766,9.766,0,0,0,7.2,2.852,8.717,8.717,0,0,0,7.8-4.129,9.581,9.581,0,0,0,1.331-5V83.925h-10v3.613h5.841c-.489,1.929-2.418,3.233-4.971,3.233a5.57,5.57,0,0,1-4.265-1.793,6.338,6.338,0,0,1-1.684-4.4Zm30.344,4.129c.027-.3.054-.761.054-1.385a6.243,6.243,0,0,0-6.547-6.574,6.812,6.812,0,0,0-4.917,2.01,6.506,6.506,0,0,0-2.037,4.835,6.585,6.585,0,0,0,2.065,4.971,7.461,7.461,0,0,0,5.134,1.929,5.912,5.912,0,0,0,5.65-2.961l-2.771-1.82a3.514,3.514,0,0,1-2.934,1.576,3.059,3.059,0,0,1-3.233-2.581Zm-9.426-2.526a2.585,2.585,0,0,1,.9-1.521,2.869,2.869,0,0,1,4.754,1.521Zm24.5,8.041v-8.15a5.763,5.763,0,0,0-1.2-3.722,4.181,4.181,0,0,0-3.531-1.494,4.3,4.3,0,0,0-2.418.679,3.276,3.276,0,0,0-1.3,1.277h-.027V81.1h-3.8V94.221h3.83V86.94a2.33,2.33,0,0,1,2.037-2.554,1.309,1.309,0,0,1,.326,0c1.494,0,2.282,1.005,2.282,2.554v7.28Zm11.382-3.233a3.375,3.375,0,0,1-.9.109c-1.494,0-2.282-.6-2.282-2.092V84.441H371.8V81.1h-3.233V77H364.79v4.1h-2.418v3.314h2.363V89.44c0,3.07,1.793,4.944,5.216,4.944a6.639,6.639,0,0,0,1.793-.244Z" transform="translate(-134.599 -15.441)"/>
  </g>
</svg>
