<svg xmlns="http://www.w3.org/2000/svg" width="38.082" height="35.336" viewBox="0 0 38.082 35.336">
  <g id="Group_10863" data-name="Group 10863" transform="translate(-0.5 -0.332)">
    <path id="Path_13930" data-name="Path 13930" d="M37.1,9.232a2.491,2.491,0,0,0-2.712.439l-2.984,2.776V9.773c0-.142,0-.283-.01-.425A9.432,9.432,0,0,0,21.964.332H9.927A9.434,9.434,0,0,0,.5,9.773V21.8a9.434,9.434,0,0,0,7.172,9.165V33.89a1.778,1.778,0,0,0,2.573,1.59l8.38-4.2,2.607-.043h.732c.218,0,.433-.007.646-.023a9.191,9.191,0,0,0,1.155-.149,9.44,9.44,0,0,0,7.63-8.843c.007-.142.01-.283.01-.425V20.239l3,2.776a2.553,2.553,0,0,0,1.7.66,2.47,2.47,0,0,0,1.011-.22,2.346,2.346,0,0,0,1.466-2.17V11.4A2.344,2.344,0,0,0,37.1,9.232ZM16.838,26.514,12.875,28.5a.675.675,0,0,1-.978-.6V25.732a10.522,10.522,0,0,1-6.443-9.7h0A10.521,10.521,0,0,1,15.976,5.51h0a10.52,10.52,0,0,1,.86,21Z"/>
    <g id="Group_10862" data-name="Group 10862">
      <circle id="Ellipse_287" data-name="Ellipse 287" cx="1.509" cy="1.509" r="1.509" transform="translate(19.218 14.823)"/>
      <circle id="Ellipse_288" data-name="Ellipse 288" cx="1.509" cy="1.509" r="1.509" transform="translate(14.387 14.823)"/>
      <circle id="Ellipse_289" data-name="Ellipse 289" cx="1.509" cy="1.509" r="1.509" transform="translate(9.25 15.21) rotate(-13.282)"/>
    </g>
  </g>
</svg>
