<svg id="Group_10926" data-name="Group 10926" xmlns="http://www.w3.org/2000/svg" width="70" height="64.95" viewBox="0 0 70 64.95">
  <path id="Path_13979" data-name="Path 13979" d="M134.461,69.386a4.636,4.636,0,0,0-4.967.789l-5.477,5.106v-5.71A17.333,17.333,0,0,0,106.656,53H84.514A17.324,17.324,0,0,0,67.2,70.361v22.1a17.333,17.333,0,0,0,13.183,16.85v5.385a3.635,3.635,0,0,0,.325,1.439,3.3,3.3,0,0,0,4.41,1.485l15.411-7.706,4.781-.093h1.346a10.49,10.49,0,0,0,1.207-.046,16.8,16.8,0,0,0,2.135-.279,17.349,17.349,0,0,0,14.019-16.247V89.578l5.524,5.106a4.508,4.508,0,0,0,3.11,1.207,4.617,4.617,0,0,0,4.549-4.41V73.332A4.321,4.321,0,0,0,134.461,69.386ZM97.233,101.136,89.945,104.8a1.239,1.239,0,0,1-1.81-1.114V99.7A19.286,19.286,0,0,1,76.3,81.873h0A19.375,19.375,0,0,1,95.655,62.516h0a19.343,19.343,0,0,1,1.578,38.621Z" transform="translate(-67.2 -53)" fill="#fff"/>
  <g id="Group_10924" data-name="Group 10924" transform="translate(16.067 26.078)">
    <circle id="Ellipse_333" data-name="Ellipse 333" cx="2.781" cy="2.781" r="2.781" transform="translate(18.315 0.57)" fill="#fff"/>
    <circle id="Ellipse_334" data-name="Ellipse 334" cx="2.781" cy="2.781" r="2.781" transform="translate(9.415 0.57)" fill="#fff"/>
    <circle id="Ellipse_335" data-name="Ellipse 335" cx="2.781" cy="2.781" r="2.781" transform="translate(0 1.278) rotate(-13.286)" fill="#fff"/>
  </g>
</svg>
