<svg xmlns="http://www.w3.org/2000/svg" width="150" height="35.336" viewBox="0 0 150 35.336">
  <g id="Group_10864" data-name="Group 10864" transform="translate(-0.5 -0.332)">
    <g id="Group_10863" data-name="Group 10863">
      <path id="Path_13930" data-name="Path 13930" d="M37.1,9.232a2.491,2.491,0,0,0-2.712.439l-2.984,2.776V9.773c0-.142,0-.283-.01-.425A9.432,9.432,0,0,0,21.964.332H9.927A9.434,9.434,0,0,0,.5,9.773V21.8a9.434,9.434,0,0,0,7.172,9.165V33.89a1.778,1.778,0,0,0,2.573,1.59l8.38-4.2,2.607-.043h.732c.218,0,.433-.007.646-.023a9.191,9.191,0,0,0,1.155-.149,9.44,9.44,0,0,0,7.63-8.843c.007-.142.01-.283.01-.425V20.239l3,2.776a2.553,2.553,0,0,0,1.7.66,2.47,2.47,0,0,0,1.011-.22,2.346,2.346,0,0,0,1.466-2.17V11.4A2.344,2.344,0,0,0,37.1,9.232ZM16.838,26.514,12.875,28.5a.675.675,0,0,1-.978-.6V25.732a10.522,10.522,0,0,1-6.443-9.7h0A10.521,10.521,0,0,1,15.976,5.51h0a10.52,10.52,0,0,1,.86,21Z"/>
      <g id="Group_10862" data-name="Group 10862">
        <circle id="Ellipse_287" data-name="Ellipse 287" cx="1.509" cy="1.509" r="1.509" transform="translate(19.218 14.823)"/>
        <circle id="Ellipse_288" data-name="Ellipse 288" cx="1.509" cy="1.509" r="1.509" transform="translate(14.387 14.823)"/>
        <circle id="Ellipse_289" data-name="Ellipse 289" cx="1.509" cy="1.509" r="1.509" transform="translate(9.25 15.21) rotate(-13.282)"/>
      </g>
    </g>
    <path id="Path_13889" data-name="Path 13889" d="M52.008,17.133h6.855v6.625h3.385V7.394H58.863v6.459H52.008V7.394H48.62V23.758h3.388Zm24.305,1.943c.021-.25.042-.648.042-1.17a5.3,5.3,0,0,0-5.559-5.58,5.759,5.759,0,0,0-4.18,1.71,5.605,5.605,0,0,0-1.735,4.117,5.552,5.552,0,0,0,1.756,4.222A6.227,6.227,0,0,0,71.007,24a5.022,5.022,0,0,0,4.8-2.527L73.45,19.933a2.991,2.991,0,0,1-2.487,1.338,2.62,2.62,0,0,1-2.755-2.195Zm-8.029-2.152a2.5,2.5,0,0,1,2.432-1.944A2.205,2.205,0,0,1,73.1,16.924Zm13.672-10.2H78.675V23.758h3.281ZM88.2,12.6H84.965V29.275h3.26V22.523h.042a4.061,4.061,0,0,0,3.3,1.444,4.9,4.9,0,0,0,3.866-1.756,6.01,6.01,0,0,0,1.526-4.058,6.078,6.078,0,0,0-1.484-4.013,4.758,4.758,0,0,0-3.824-1.751,3.954,3.954,0,0,0-3.407,1.584H88.2Zm-.066,5.555a2.768,2.768,0,0,1,.8-2.023,2.647,2.647,0,0,1,1.943-.795,2.75,2.75,0,0,1,2.78,2.818,2.871,2.871,0,0,1-.794,2.069,2.827,2.827,0,0,1-3.929,0A2.871,2.871,0,0,1,88.138,18.153Zm14-2.592a5.09,5.09,0,0,1,1.463-3.719,4.811,4.811,0,0,1,3.574-1.505,4.321,4.321,0,0,1,2.842.878,4.746,4.746,0,0,1,1.547,2.006l2.988-1.463a7.067,7.067,0,0,0-2.571-3.2,7.816,7.816,0,0,0-4.764-1.425,8.326,8.326,0,0,0-6.04,2.446A8.118,8.118,0,0,0,98.7,15.588a8.344,8.344,0,0,0,2.361,6,8.25,8.25,0,0,0,6.124,2.424,7.419,7.419,0,0,0,6.624-3.514,7.922,7.922,0,0,0,1.129-4.26V14.959h-8.506v3.072H111.4c-.418,1.651-2.048,2.755-4.221,2.755a4.692,4.692,0,0,1-3.616-1.522,5.282,5.282,0,0,1-1.421-3.7Zm25.81,3.515c.021-.25.042-.648.042-1.17a5.3,5.3,0,0,0-5.559-5.58,5.761,5.761,0,0,0-4.18,1.71,5.607,5.607,0,0,0-1.731,4.117,5.552,5.552,0,0,0,1.756,4.222,6.227,6.227,0,0,0,4.37,1.63,5.022,5.022,0,0,0,4.8-2.527l-2.361-1.545a2.991,2.991,0,0,1-2.487,1.338,2.62,2.62,0,0,1-2.755-2.195Zm-8.021-2.152a2.485,2.485,0,0,1,2.424-1.944,2.205,2.205,0,0,1,2.383,1.944Zm20.836,6.834V16.823a4.856,4.856,0,0,0-1.024-3.156,3.577,3.577,0,0,0-3.01-1.275,3.63,3.63,0,0,0-2.048.586,2.915,2.915,0,0,0-1.107,1.086h-.021V12.6h-3.239V23.758h3.26V17.572a1.956,1.956,0,0,1,1.723-2.163,2.061,2.061,0,0,1,.283-.011c1.275,0,1.944.855,1.944,2.174v6.186ZM150.441,21a2.845,2.845,0,0,1-.752.083c-1.275,0-1.944-.5-1.944-1.776V15.419H150.5V12.6h-2.755V9.108h-3.218V12.6h-2.052v2.821h2.006V19.7c0,2.613,1.526,4.2,4.431,4.2a5.176,5.176,0,0,0,1.525-.209Z"/>
  </g>
</svg>
