<svg xmlns="http://www.w3.org/2000/svg" xmlns:xlink="http://www.w3.org/1999/xlink" width="92.901" height="48.607" viewBox="0 0 92.901 48.607">
  <defs>
    <linearGradient id="linear-gradient" x1="0.604" y1="0.801" x2="0.61" gradientUnits="objectBoundingBox">
      <stop offset="0" stop-color="#ff3e37"/>
      <stop offset="1" stop-color="#ffc756"/>
    </linearGradient>
  </defs>
  <g id="Group_5889" data-name="Group 5889" transform="translate(-790.996 -278.791)">
    <g id="Group_5888" data-name="Group 5888" transform="translate(790.996 278.791)">
      <path id="Path_8091" data-name="Path 8091" d="M-150.936-67.832c-.8.048-2.213.072-3.72.072-1.423,0-2.942-.024-3.852-.072v.49c1.555.072,1.842.323,1.842,2.105v5.778h-6.5v-5.778c0-1.782.275-2.034,1.842-2.105v-.49c-.885.048-2.345.072-3.708.072-1.567,0-3.038-.024-3.864-.072v.49c1.543.072,1.83.323,1.83,2.105v12.153c0,1.782-.275,2.034-1.83,2.105v.49c.826-.048,2.3-.072,3.864-.072,1.364,0,2.823.024,3.708.072v-.49c-1.555-.072-1.842-.323-1.842-2.105v-5.885h6.5v5.885c0,1.782-.275,2.034-1.842,2.105v.49c.908-.048,2.428-.072,3.852-.072,1.507,0,2.918.024,3.72.072v-.49c-1.543-.072-1.842-.323-1.842-2.105V-65.236c0-1.782.275-2.034,1.842-2.105Zm6.661,4.33c-3.517,0-5.993,1.842-5.993,6.686s2.477,6.675,5.993,6.675,6-1.818,6-6.675-2.477-6.686-6.005-6.686Zm0,.49c1.34,0,2.309,1.818,2.309,6.2s-.969,6.184-2.309,6.184-2.3-1.794-2.3-6.184.968-6.2,2.3-6.2Zm11.648-6.651a15.878,15.878,0,0,1-3.577.335c-.491,0-1-.024-1.519-.072v.514c1.184,0,1.567.694,1.567,2.165V-52.76c0,1.364-.419,1.758-1.567,1.758v.514c.658-.024,2.117-.1,3.4-.1s2.642.072,3.266.1V-51c-1.136,0-1.567-.395-1.567-1.758Zm5.2.179c-1.376,0-2.237.718-2.237,1.89s.861,1.9,2.237,1.9c1.352,0,2.225-.718,2.225-1.9s-.875-1.89-2.227-1.89Zm1.927,6.052a15.9,15.9,0,0,1-3.577.347c-.491,0-1-.036-1.519-.083v.512c1.184,0,1.567.694,1.567,2.165v7.728c0,1.364-.43,1.758-1.567,1.758v.514c.646-.024,2.117-.1,3.386-.1s2.655.072,3.277.1V-51c-1.148,0-1.567-.395-1.567-1.758Zm14.049-6.232a15.808,15.808,0,0,1-3.577.335c-.49,0-1-.024-1.519-.072v.514c1.184,0,1.567.694,1.567,2.165v4.139a3.668,3.668,0,0,0-2.7-.921c-3.146,0-5.477,2.189-5.477,6.627,0,4.665,2.081,6.734,5,6.734a3.156,3.156,0,0,0,3.182-2.165v2.07a15.948,15.948,0,0,1,3.576-.334c.49,0,1,.024,1.519.072v-.516c-1.184,0-1.567-.694-1.567-2.153Zm-5.693,18.457c-1.411,0-2.321-1.435-2.309-5.622-.012-4.043,1-5.969,2.691-5.969a2.17,2.17,0,0,1,1.782.826v8.708A2.286,2.286,0,0,1-117.142-51.205Zm13.526-12.3a7.466,7.466,0,0,0-3.72.837,2.406,2.406,0,0,0-1.376,2.045,1.733,1.733,0,0,0,1.734,1.89,1.8,1.8,0,0,0,2-1.758,1.946,1.946,0,0,0-1.447-1.927,2.587,2.587,0,0,1,1.747-.6c1.447,0,2,.908,2,2.189v1.914c0,1.053-1.411,1.519-3.218,2.2-2.273.836-3.445,1.829-3.445,3.6s1.268,2.787,3.1,2.787a4.138,4.138,0,0,0,3.612-1.985c.012,1.053.562,1.985,2.356,1.985a4.1,4.1,0,0,0,2.8-.9l-.251-.419a1.491,1.491,0,0,1-.9.419c-.395,0-.526-.3-.526-1.089v-6.662c0-1.71-.156-2.691-.873-3.433A4.8,4.8,0,0,0-103.616-63.5Zm.933,10.622a1.953,1.953,0,0,1-1.652.993c-.873,0-1.531-.551-1.531-1.9A3.419,3.419,0,0,1-104.2-56.7a4.659,4.659,0,0,0,1.519-1.208Zm15.165-10.191c-.658,0-1.615-.024-2.367-.1v.513a1.764,1.764,0,0,1,1.818,1.95,6.3,6.3,0,0,1-.395,1.95l-1.686,4.725-3-7.236a1.906,1.906,0,0,1-.179-.694c0-.682.754-.694,1.555-.694v-.514c-.981.083-2.092.156-3.4.156-1.113,0-2.3-.048-3.361-.156v.514c.358,0,.933.12,1.519,1.376l5.192,11.807-.407,1.185c-.467,1.352-1.244,1.95-2.225,1.95a2.33,2.33,0,0,1-.562-.048,1.694,1.694,0,0,0,1.22-1.567c0-1.029-.742-1.555-1.83-1.555-1.184,0-1.95.646-1.95,1.652,0,1.411,1.483,1.974,2.655,1.974a3.242,3.242,0,0,0,2.141-.61,3.861,3.861,0,0,0,1.065-1.746l.945-2.632,3.445-9.677c.514-1.459,1.077-1.95,1.686-2.105v-.514a14.062,14.062,0,0,1-1.878.094Zm6.539-.431c-2.225,0-4.211,1.2-4.211,3.373,0,1.974,1.471,3.086,3.074,4.342,1.411,1.1,2.477,1.9,2.477,3.337A1.621,1.621,0,0,1-81.361-50.7c-2.057,0-3-1.854-3.3-4.509h-.526c0,2.477-.024,3.84-.1,4.892h.514c.12-.526.323-.873.6-.873a.349.349,0,0,1,.108.024,7.424,7.424,0,0,1,1.136.514,4.8,4.8,0,0,0,2.3.514c2.524,0,4.641-1.4,4.641-3.636,0-1.938-1.292-2.99-2.931-4.2-1.507-1.124-3.014-1.938-3.014-3.409a1.529,1.529,0,0,1,1.663-1.579c2.092,0,2.895,1.986,3.146,3.792h.514c0-2.177.024-3.373.108-4.306h-.526c-.083.61-.287.9-.574.9a.853.853,0,0,1-.443-.167A5.7,5.7,0,0,0-80.978-63.5Z" transform="translate(168.891 69.662)" fill="url(#linear-gradient)"/>
      <path id="Path_8092" data-name="Path 8092" d="M-105.1-100.44c-3.966,0-7.586,1.917-7.586,6.181,0,3.768,2.809,5.669,6.032,7.718,2.975,1.917,5.073,3.52,5.073,6.3,0,2.529-1.835,3.785-4.2,3.785-4.33,0-5.883-3.983-6.166-8.495h-.777c0,5.388-.033,7.553-.132,9.138h.777c.132-.975.3-1.486.743-1.486a2.356,2.356,0,0,1,1.156.479,10.454,10.454,0,0,0,5.437,1.256c4.545,0,8.4-2.132,8.4-6.594,0-3.669-2.512-5.5-5.718-7.635-3.785-2.545-5.85-3.652-5.85-6.379a3.388,3.388,0,0,1,3.719-3.454c3.619,0,5.52,3.685,5.751,7.206h.777c0-4.76.066-6.379.182-7.718h-.777c-.149.975-.314,1.486-.76,1.486a2.372,2.372,0,0,1-1.14-.479A8.443,8.443,0,0,0-105.1-100.44Zm18.209,6.413a10.328,10.328,0,0,0-5.14,1.156,3.322,3.322,0,0,0-1.9,2.826,2.4,2.4,0,0,0,2.4,2.611,2.487,2.487,0,0,0,2.76-2.429,2.686,2.686,0,0,0-2-2.661,3.574,3.574,0,0,1,2.413-.826c2,0,2.76,1.256,2.76,3.024v2.644c0,1.454-1.95,2.1-4.446,3.041-3.14,1.156-4.76,2.529-4.76,4.975,0,2.462,1.752,3.851,4.28,3.851a5.717,5.717,0,0,0,4.991-2.743c.017,1.454.777,2.743,3.256,2.743a5.665,5.665,0,0,0,3.867-1.239l-.347-.578A2.059,2.059,0,0,1-80-77.053c-.545,0-.727-.413-.727-1.5v-9.207c0-2.363-.215-3.719-1.206-4.743-1.093-1.124-2.779-1.52-4.96-1.52ZM-85.6-79.353a2.7,2.7,0,0,1-2.281,1.372c-1.206,0-2.115-.76-2.115-2.628a4.723,4.723,0,0,1,2.3-4.016,6.426,6.426,0,0,0,2.1-1.669Zm14.193-23.187a21.937,21.937,0,0,1-4.942.463c-.678,0-1.388-.033-2.1-.1v.711c1.636,0,2.164.96,2.164,2.993v19.285c0,1.884-.578,2.429-2.165,2.429v.711c.908-.033,2.925-.132,4.694-.132,1.752,0,3.652.1,4.512.132v-.709c-1.569,0-2.165-.545-2.165-2.429Zm12.425,24.179c-2.149,0-4.413-1.835-4.413-6.545,0-.545.017-1.107.066-1.6h9.469c0-5.305-2.413-7.52-6.363-7.52-4.809,0-8.28,3.124-8.28,9.4,0,6.181,3.239,9.056,7.8,9.056a7.132,7.132,0,0,0,6.776-5.272l-.612-.231a4.967,4.967,0,0,1-4.444,2.713ZM-60.422-93.3c1.652,0,2.363,2.843,2.3,6.148h-5.306C-63.149-91.532-61.942-93.3-60.422-93.3Z" transform="translate(129.918 124.174)" fill="#fff"/>
    </g>
  </g>
</svg>
