<svg xmlns="http://www.w3.org/2000/svg" xmlns:xlink="http://www.w3.org/1999/xlink" width="408" height="246.208" viewBox="0 0 408 246.208">
  <defs>
    <linearGradient id="linear-gradient" x1="0.604" y1="0.801" x2="0.61" gradientUnits="objectBoundingBox">
      <stop offset="0" stop-color="#ff3e37"/>
      <stop offset="1" stop-color="#ffc756"/>
    </linearGradient>
  </defs>
  <g id="Group_5889" data-name="Group 5889" transform="translate(-791 -278.792)">
    <g id="Group_5888" data-name="Group 5888" transform="translate(1)">
      <path id="Path_8091" data-name="Path 8091" d="M-103.658-63.013c-2.912.174-8.04.261-13.515.261-5.171,0-10.69-.087-13.993-.261v1.782c5.649.261,6.692,1.173,6.692,7.648v20.99h-23.6v-20.99c0-6.475,1-7.388,6.692-7.648v-1.782c-3.216.174-8.518.261-13.472.261-5.693,0-11.038-.087-14.037-.261v1.782c5.606.261,6.649,1.173,6.649,7.648V-9.43c0,6.475-1,7.388-6.649,7.648V0c3-.174,8.344-.261,14.037-.261,4.954,0,10.256.087,13.472.261V-1.782c-5.649-.261-6.692-1.173-6.692-7.648V-30.811h23.6V-9.43c0,6.475-1,7.388-6.692,7.648V0c3.3-.174,8.822-.261,13.993-.261,5.476,0,10.6.087,13.515.261V-1.782c-5.606-.261-6.692-1.173-6.692-7.648V-53.583c0-6.475,1-7.388,6.692-7.648Zm24.2,15.731c-12.776,0-21.772,6.692-21.772,24.292,0,17.644,9,24.249,21.772,24.249,12.82,0,21.815-6.605,21.815-24.249C-57.646-40.589-66.641-47.281-79.461-47.281Zm0,1.782c4.867,0,8.387,6.605,8.387,22.511,0,15.949-3.52,22.467-8.387,22.467-4.824,0-8.344-6.519-8.344-22.467C-87.8-38.894-84.285-45.5-79.461-45.5Zm42.318-24.162a57.685,57.685,0,0,1-12.994,1.217c-1.782,0-3.65-.087-5.519-.261v1.869c4.3,0,5.693,2.521,5.693,7.866V-8.257c0,4.954-1.521,6.388-5.693,6.388V0c2.39-.087,7.692-.348,12.342-.348,4.606,0,9.6.261,11.864.348V-1.869c-4.128,0-5.693-1.434-5.693-6.388Zm18.9.652c-5,0-8.126,2.607-8.126,6.866,0,4.3,3.129,6.91,8.126,6.91,4.911,0,8.083-2.607,8.083-6.91C-10.165-66.4-13.337-69.01-18.248-69.01Zm7,21.989a57.76,57.76,0,0,1-12.994,1.26c-1.782,0-3.65-.13-5.519-.3V-44.2c4.3,0,5.693,2.521,5.693,7.866V-8.257c0,4.954-1.564,6.388-5.693,6.388V0c2.347-.087,7.692-.348,12.3-.348,4.65,0,9.647.261,11.907.348V-1.869c-4.172,0-5.693-1.434-5.693-6.388ZM39.8-69.662a57.43,57.43,0,0,1-12.994,1.217c-1.782,0-3.65-.087-5.519-.261v1.869c4.3,0,5.693,2.521,5.693,7.866v15.036c-2.39-2.39-5.78-3.346-9.821-3.346-11.429,0-19.9,7.953-19.9,24.075C-2.742-6.258,4.819,1.26,15.423,1.26c5.78,0,9.517-2.738,11.56-7.866V.913A57.941,57.941,0,0,1,39.976-.3c1.782,0,3.65.087,5.519.261V-1.912c-4.3,0-5.693-2.521-5.693-7.822ZM19.117-2.607c-5.128,0-8.431-5.215-8.387-20.425-.043-14.688,3.65-21.685,9.778-21.685a7.883,7.883,0,0,1,6.475,3v31.637C26.157-5.389,22.767-2.607,19.117-2.607ZM68.258-47.281c-6,0-10.343,1.26-13.515,3.042-2.912,1.695-5,4.172-5,7.431,0,3.911,2.434,6.866,6.3,6.866,4.389,0,7.257-2.694,7.257-6.388,0-3.607-2.086-5.91-5.258-7A9.4,9.4,0,0,1,64.39-45.5c5.258,0,7.257,3.3,7.257,7.953v6.953c0,3.824-5.128,5.519-11.69,8C51.7-19.556,47.442-15.949,47.442-9.517,47.442-3.042,52.048.608,58.7.608A15.032,15.032,0,0,0,71.821-6.605C71.865-2.781,73.864.608,80.382.608c4.52,0,7.475-1.086,10.169-3.259l-.913-1.521A5.416,5.416,0,0,1,86.38-2.651c-1.434,0-1.912-1.086-1.912-3.955V-30.811c0-6.214-.565-9.778-3.172-12.472C78.427-46.238,73.994-47.281,68.258-47.281Zm3.39,38.59c-1.869,2.651-3.824,3.607-6,3.607-3.172,0-5.563-2-5.563-6.91,0-5.345,2.912-8.257,6.041-10.56,3-1.869,4.693-3.042,5.519-4.389Zm55.095-37.025c-2.39,0-5.867-.087-8.6-.348V-44.2c4,.261,6.605,2.477,6.605,7.083a22.885,22.885,0,0,1-1.434,7.083l-6.127,17.166L106.274-39.155a6.924,6.924,0,0,1-.652-2.521c0-2.477,2.738-2.521,5.649-2.521v-1.869c-3.563.3-7.6.565-12.342.565-4.042,0-8.344-.174-12.211-.565V-44.2c1.3,0,3.39.435,5.519,5L111.1,3.694,109.62,8c-1.695,4.911-4.52,7.083-8.083,7.083a8.466,8.466,0,0,1-2.042-.174,6.153,6.153,0,0,0,4.433-5.693c0-3.737-2.694-5.649-6.649-5.649-4.3,0-7.083,2.347-7.083,6,0,5.128,5.389,7.17,9.647,7.17,3.477,0,6-.739,7.779-2.216,1.564-1.3,2.781-3.3,3.868-6.345l3.433-9.561,12.516-35.157c1.869-5.3,3.911-7.083,6.127-7.648v-1.869A51.091,51.091,0,0,1,126.742-45.717ZM150.5-47.281c-8.083,0-15.3,4.346-15.3,12.255,0,7.17,5.345,11.212,11.168,15.775,5.128,4,9,6.91,9,12.125,0,4.563-3.172,6.345-6.258,6.345-7.475,0-10.908-6.736-11.994-16.383h-1.912c0,9-.087,13.95-.348,17.774h1.869c.435-1.912,1.173-3.172,2.173-3.172a1.269,1.269,0,0,1,.391.087,26.97,26.97,0,0,1,4.128,1.869,17.429,17.429,0,0,0,8.344,1.869c9.169,0,16.861-5.084,16.861-13.211,0-7.04-4.693-10.864-10.647-15.253-5.476-4.085-10.951-7.04-10.951-12.385,0-3.65,2.607-5.736,6.041-5.736,7.6,0,10.517,7.214,11.429,13.776h1.869c0-7.909.087-12.255.391-15.645h-1.912c-.3,2.216-1.043,3.259-2.086,3.259a3.1,3.1,0,0,1-1.608-.608A20.708,20.708,0,0,0,150.5-47.281Z" transform="translate(958.887 348.453)" fill="url(#linear-gradient)"/>
      <path id="Path_8092" data-name="Path 8092" d="M-84.687-94.91c-14.41,0-27.56,6.965-27.56,22.456,0,13.69,10.207,20.595,21.916,28.04C-79.523-37.45-71.9-31.625-71.9-21.538c0,9.187-6.665,13.75-15.251,13.75-15.731,0-21.375-14.47-22.4-30.862h-2.822c0,19.574-.12,27.439-.48,33.2h2.822c.48-3.543,1.081-5.4,2.7-5.4.961,0,2.222.48,4.2,1.741,4.143,2.222,9.547,4.563,19.754,4.563,16.512,0,30.5-7.745,30.5-23.957,0-13.329-9.126-19.994-20.775-27.74-13.75-9.247-21.255-13.269-21.255-23.176,0-7.806,5.644-12.549,13.51-12.549,13.149,0,20.054,13.389,20.895,26.179h2.822c0-17.292.24-23.176.66-28.04h-2.822c-.54,3.543-1.141,5.4-2.762,5.4-1.081,0-2.162-.54-4.143-1.741C-70.577-92.448-75.08-94.91-84.687-94.91Zm66.155,23.3c-8.286,0-14.29,1.741-18.673,4.2-4.023,2.342-6.9,5.764-6.9,10.267,0,5.4,3.362,9.487,8.706,9.487,6.064,0,10.027-3.723,10.027-8.826,0-4.984-2.882-8.166-7.265-9.667,2.222-2.162,5.824-3,8.766-3,7.265,0,10.027,4.563,10.027,10.988v9.607c0,5.284-7.085,7.625-16.151,11.048-11.408,4.2-17.292,9.187-17.292,18.073,0,8.946,6.365,13.99,15.551,13.99a20.769,20.769,0,0,0,18.133-9.967c.06,5.284,2.822,9.967,11.828,9.967,6.244,0,10.327-1.5,14.05-4.5l-1.261-2.1c-1.381,1.081-2.762,2.1-4.5,2.1-1.981,0-2.642-1.5-2.642-5.464V-48.858c0-8.586-.781-13.51-4.383-17.232C-4.482-70.173-10.606-71.614-18.532-71.614ZM-13.849-18.3c-2.582,3.663-5.284,4.984-8.286,4.984-4.383,0-7.685-2.762-7.685-9.547,0-7.385,4.023-11.408,8.346-14.59,4.143-2.582,6.485-4.2,7.625-6.064Zm51.565-84.24a79.7,79.7,0,0,1-17.953,1.681c-2.462,0-5.044-.12-7.625-.36v2.582C18.082-98.633,20-95.15,20-87.765V-17.7c0,6.845-2.1,8.826-7.866,8.826v2.582c3.3-.12,10.628-.48,17.052-.48,6.365,0,13.269.36,16.392.48V-8.869c-5.7,0-7.866-1.981-7.866-8.826Zm45.14,87.842c-7.806,0-16.031-6.665-16.031-23.777,0-1.981.06-4.023.24-5.824h34.4c0-19.274-8.766-27.319-23.116-27.319-17.472,0-30.081,11.348-30.081,34.164,0,22.456,11.768,32.9,28.34,32.9,13.63,0,21.675-9.907,24.617-19.154l-2.222-.841C94.024-16.375,87.779-14.693,82.856-14.693ZM77.632-68.972c6,0,8.586,10.327,8.346,22.336H66.7C67.725-62.547,72.108-68.972,77.632-68.972Z" transform="translate(964.847 459.927)" fill="#fff"/>
    </g>
    <g id="_50_Off" data-name="50% Off" transform="translate(-24 -21)">
      <rect id="Rectangle_1851" data-name="Rectangle 1851" width="140" height="140" rx="70" transform="translate(1083 406)" fill="#ffd500"/>
      <g id="Group_5877" data-name="Group 5877" transform="translate(-305.266 -192.084)">
        <path id="Path_6958" data-name="Path 6958" d="M4.238-6a3.109,3.109,0,0,1-2.285-.938,3.1,3.1,0,0,1-.938-2.274V-19.656H3.01V-9.233a1.114,1.114,0,0,0,.345.825,1.14,1.14,0,0,0,.83.34,1.123,1.123,0,0,0,.825-.34,1.123,1.123,0,0,0,.34-.825V-19.656H7.472V-9.212a3.069,3.069,0,0,1-.948,2.285A3.151,3.151,0,0,1,4.238-6ZM16.714-19.656a3.1,3.1,0,0,1,2.371.938,3.252,3.252,0,0,1,.819,2.285v1.962a3.142,3.142,0,0,1-.932,2.285,3.049,3.049,0,0,1-2.258.948H15.539V-6.15H13.5V-19.656ZM17.931-16.4a1.162,1.162,0,0,0-.318-.851,1.133,1.133,0,0,0-.846-.323H15.539v4.322h1.229a1.114,1.114,0,0,0,.825-.345,1.14,1.14,0,0,0,.34-.83Zm16.2-1.207H31.964v-2.048h6.359v2.048H36.167V-6.15H34.13Zm13.445-2.22a3.109,3.109,0,0,1,2.29.948,3.123,3.123,0,0,1,.943,2.285v7.372a3.109,3.109,0,0,1-.948,2.29,3.123,3.123,0,0,1-2.285.943,3.092,3.092,0,0,1-2.285-.948,3.133,3.133,0,0,1-.938-2.285v-7.372a3.109,3.109,0,0,1,.948-2.29A3.111,3.111,0,0,1,47.575-19.828Zm1.11,3.19a1.123,1.123,0,0,0-.34-.825,1.123,1.123,0,0,0-.825-.34,1.14,1.14,0,0,0-.83.34,1.114,1.114,0,0,0-.345.825v7.394a1.114,1.114,0,0,0,.345.825,1.14,1.14,0,0,0,.83.34,1.123,1.123,0,0,0,.825-.34,1.123,1.123,0,0,0,.34-.825Z" transform="translate(1424.079 640.828)"/>
        <path id="Path_6959" data-name="Path 6959" d="M-16.294-19.828A3.109,3.109,0,0,1-14-18.88a3.123,3.123,0,0,1,.943,2.285v7.372a3.109,3.109,0,0,1-.948,2.29,3.123,3.123,0,0,1-2.285.943,3.092,3.092,0,0,1-2.285-.948,3.133,3.133,0,0,1-.938-2.285v-7.372a3.109,3.109,0,0,1,.948-2.29A3.111,3.111,0,0,1-16.294-19.828Zm1.11,3.19a1.123,1.123,0,0,0-.34-.825,1.123,1.123,0,0,0-.825-.34,1.14,1.14,0,0,0-.83.34,1.114,1.114,0,0,0-.345.825v7.394a1.114,1.114,0,0,0,.345.825,1.14,1.14,0,0,0,.83.34,1.123,1.123,0,0,0,.825-.34,1.123,1.123,0,0,0,.34-.825Zm8.6,10.487H-8.625V-19.666h5.8v2.048H-6.588v3.686h2.748v2.048H-6.588Zm10.235,0H1.61V-19.666h5.8v2.048H3.648v3.686H6.4v2.048H3.648Z" transform="translate(1455.563 721.115)"/>
        <path id="Path_8090" data-name="Path 8090" d="M-29.177-64.124v10.543a7.117,7.117,0,0,1,3.1-2.43,6.548,6.548,0,0,1,2.476-.431q4.873,0,7.191,3.41,2,2.94,2,8.309v10.582A12.173,12.173,0,0,1-17.85-25.2a11.127,11.127,0,0,1-8.309,3.371,10.461,10.461,0,0,1-8.074-3.527,11.722,11.722,0,0,1-3.1-8.231v-1.176l7.094-.549.157,1.685a4.367,4.367,0,0,0,2.391,3.919,2.94,2.94,0,0,0,1.333.314q4.546,0,4.546-4.742V-46.174a4.58,4.58,0,0,0-1.576-3.567,3.032,3.032,0,0,0-2.088-.666,3.188,3.188,0,0,0-2.916,1.529,5.456,5.456,0,0,0-.788,2.822v1.333h-7.408V-71.571h21.674v7.447ZM14.171-33.592a11.242,11.242,0,0,1-3.449,8.309,11.345,11.345,0,0,1-8.27,3.41A11.339,11.339,0,0,1-5.877-25.3a11.293,11.293,0,0,1-3.429-8.289V-60.4A11.307,11.307,0,0,1-5.857-68.73a11.358,11.358,0,0,1,8.309-3.429,11.242,11.242,0,0,1,8.309,3.449,11.391,11.391,0,0,1,3.41,8.309ZM6.489-60.558a4.114,4.114,0,0,0-1.254-3.018A4.114,4.114,0,0,0,2.217-64.83a4.05,4.05,0,0,0-3,1.254,4.147,4.147,0,0,0-1.235,3.018V-33.71A4.147,4.147,0,0,0-.781-30.692a4.05,4.05,0,0,0,3,1.254,4.114,4.114,0,0,0,3.018-1.254A4.114,4.114,0,0,0,6.489-33.71Z" transform="translate(1461.329 715.06)"/>
        <path id="Path_8089" data-name="Path 8089" d="M-3.88-19.454a2.709,2.709,0,0,1-.844,2,2.754,2.754,0,0,1-2,.835,2.745,2.745,0,0,1-2.014-.835,2.724,2.724,0,0,1-.835-2v-6.5a2.745,2.745,0,0,1,.835-2.014A2.745,2.745,0,0,1-6.729-28.8a2.73,2.73,0,0,1,2.014.844,2.754,2.754,0,0,1,.835,2Zm-3.937-.036a1,1,0,0,0,.3.735,1,1,0,0,0,.735.3,1,1,0,0,0,.735-.3,1,1,0,0,0,.3-.735v-6.5a1,1,0,0,0-.3-.735,1,1,0,0,0-.735-.3,1,1,0,0,0-.735.3,1,1,0,0,0-.3.735Zm11.2,2.377a2.7,2.7,0,0,1,2,.844,2.769,2.769,0,0,1,.826,2v6.5a2.685,2.685,0,0,1-.835,2,2.754,2.754,0,0,1-2,.817,2.76,2.76,0,0,1-2.014-.826A2.694,2.694,0,0,1,.529-7.769v-6.5a2.745,2.745,0,0,1,.835-2.014A2.745,2.745,0,0,1,3.378-17.113Zm.98,2.812a1,1,0,0,0-.3-.735,1,1,0,0,0-.735-.3,1,1,0,0,0-.735.3,1,1,0,0,0-.3.735v6.5a1,1,0,0,0,.3.735,1,1,0,0,0,.735.3,1,1,0,0,0,.735-.3,1,1,0,0,0,.3-.735ZM-6.475-4.684H-8.489L3.126-28.744H5.12Z" transform="translate(1493.058 697.98)"/>
      </g>
    </g>
  </g>
</svg>
