<svg xmlns="http://www.w3.org/2000/svg" width="16" height="10.671" viewBox="0 0 16 10.671">
  <path id="Icon_ionic-ios-arrow-round-forward" data-name="Icon ionic-ios-arrow-round-forward" d="M18.079,11.456a.726.726,0,0,0-.006,1.023l3.379,3.385H8.592a.722.722,0,0,0,0,1.445H21.446l-3.379,3.385a.731.731,0,0,0,.006,1.023.72.72,0,0,0,1.017-.006L23.669,17.1h0a.811.811,0,0,0,.15-.228.69.69,0,0,0,.056-.278.724.724,0,0,0-.206-.506L19.09,11.473A.708.708,0,0,0,18.079,11.456Z" transform="translate(-7.875 -11.252)" fill="currentColor"/>
</svg>
