<svg xmlns="http://www.w3.org/2000/svg" width="90.727" height="50.022" viewBox="644.954 8 90.727 50.022"><g data-name="Group 5913"><g data-name="Group 5911"><path d="m732.477 46.265 3.204 9.423h-43.1l-2.264 2.334-2.263-2.334h-43.1l3.203-9.423-3.203-9.425h43.1l2.263-1.862 2.263 1.862h43.1l-3.203 9.425Z" fill="#fff" fill-rule="evenodd" data-name="Path 8336"/><g data-name="Group 5910"><g data-name="Group 5908"><g data-name="Group 5907"><path d="M656.947 39.5c3.003 0 4.75 2.148 4.75 5.267v2.953c0 3.14-1.747 5.308-4.75 5.308h-4.733V39.5h4.733Zm0 2.809h-1.85v8.013h1.85c1.272 0 1.866-.701 1.866-2.705v-2.644c0-1.92-.594-2.664-1.866-2.664Z" fill="#1f2dcb" fill-rule="evenodd" data-name="Path 8337"/><path d="M664.954 53.028h-2.918l3.936-13.528h3.206l3.953 13.528h-2.935l-.661-2.602h-3.936l-.645 2.602Zm1.238-5.06h2.732l-1.357-5.453h-.034l-1.34 5.453Z" fill="#1f2dcb" fill-rule="evenodd" data-name="Path 8338"/><path d="M678.543 48.918v4.11h-2.867v-4.11l-3.97-9.418h3.223l2.155 6.403h.034l2.188-6.403h3.207l-3.97 9.418Z" fill="#1f2dcb" fill-rule="evenodd" data-name="Path 8339"/></g></g><g data-name="Group 5909"><path d="m699.072 42.082-1.866 1.219c-.407-.91-1.238-1.384-2.171-1.384-1.035 0-1.409.475-1.409 1.177 0 1.941 5.463 1.404 5.463 6.03 0 2.603-1.645 4.09-4.19 4.09-1.985 0-3.817-1.321-4.377-3.283l2.07-.95c.407 1.073 1.408 1.652 2.273 1.652 1.103 0 1.56-.393 1.56-1.157 0-2.23-5.649-1.735-5.649-6.237 0-2.19 1.561-3.925 3.97-3.925 2.155 0 3.529 1.074 4.326 2.768Z" fill="#fc0d1b" fill-rule="evenodd" data-name="Path 8340"/><path d="M702.431 53.028h-2.918L703.45 39.5h3.206l3.953 13.528h-2.935l-.661-2.602h-3.936l-.645 2.602Zm1.239-5.06h2.73l-1.356-5.453h-.034l-1.34 5.453Z" fill="#fc0d1b" fill-rule="evenodd" data-name="Path 8341"/><path d="M714.527 39.5v10.616h4.496v2.912h-7.261V39.5h2.765Z" fill="#fc0d1b" fill-rule="evenodd" data-name="Path 8342"/><path d="M728.268 39.5v2.87h-4.886v2.541h3.597v2.479h-3.597v2.83h5.04v2.808h-7.924V39.5h7.77Z" fill="#fc0d1b" fill-rule="evenodd" data-name="Path 8343"/></g><path d="m685.803 43.901.784 1.59 1.754.255-1.27 1.237.3 1.747-1.568-.824-1.57.824.3-1.747-1.27-1.237 1.755-.255.785-1.59Z" fill="#fc0d1b" fill-rule="evenodd" data-name="Path 8344"/></g></g><path d="M649.895 8.332v18.97h8.033v5.204h-12.974V8.332h4.941Zm13.975 24.174h-5.214l7.032-24.174h5.73l7.062 24.174h-5.244l-1.182-4.65h-7.033l-1.151 4.65Zm2.212-9.042h4.88l-2.424-9.744h-.061l-2.395 9.744Zm49.592-6.09v6.09c0 5.573-3.061 9.374-8.457 9.374-5.426 0-8.457-3.801-8.457-9.374V17.41c0-5.573 3.031-9.411 8.457-9.411 5.396 0 8.457 3.838 8.457 9.374Zm-5.153.037c0-3.137-1.03-4.502-3.334-4.502-2.274 0-3.304 1.365-3.304 4.502v6.053c0 3.247 1.03 4.65 3.334 4.65 2.274 0 3.304-1.403 3.304-4.65V17.41Zm15.702 6.127h-2.122v8.968h-5.153V8.332h7.82c5.457 0 7.64 3.1 7.64 7.308 0 2.952-1.213 5.536-3.577 6.606l4.85 10.26h-5.608l-3.85-8.968Zm-2.122-4.43h2.668c2.091 0 2.546-1.365 2.546-3.062 0-1.956-.606-2.916-2.607-2.916h-2.607v5.979Zm-31.313.776v.074c2.637.849 3.759 2.915 3.759 5.573 0 4.28-2.062 6.975-7.366 6.975h-8.64V8.332h7.67c5.213 0 7.305 2.916 7.305 6.348 0 2.436-.697 4.245-2.728 5.204Zm-7.215-1.772h2.79c1.878 0 2.515-.812 2.515-2.51 0-1.697-.667-2.324-2.516-2.324h-2.789v4.834Zm0 9.633h3.274c1.85 0 2.607-.775 2.607-2.731 0-1.882-.697-2.62-2.637-2.62h-3.244v5.35Z" fill="#fff" fill-rule="evenodd" data-name="Path 8345"/></g></svg>