<svg xmlns="http://www.w3.org/2000/svg" width="400.093" height="293.02" viewBox="0 0 400.093 293.02">
  <g id="Group_5912" data-name="Group 5912" transform="translate(-707 -253)">
    <g id="Group_5911" data-name="Group 5911" transform="translate(707 371.969)">
      <path id="Path_8336" data-name="Path 8336" d="M-1438.5-1630.549l14.125,41.556h-190.066l-9.98,10.292-9.98-10.292h-190.066l14.125-41.556-14.125-41.561H-1634.4l9.98-8.212,9.98,8.212h190.066Z" transform="translate(1824.466 1680.322)" fill="#fff"/>
      <g id="Group_5910" data-name="Group 5910" transform="translate(32.013 19.122)">
        <g id="Group_5908" data-name="Group 5908" transform="translate(0 0.82)">
          <g id="Group_5907" data-name="Group 5907">
            <path id="Path_8337" data-name="Path 8337" d="M-1705.759-1619.379c13.242,0,20.948,9.472,20.948,23.226v13.025c0,13.844-7.706,23.408-20.948,23.408h-20.873v-59.659Zm0,12.387h-8.155v35.34h8.155c5.611,0,8.229-3.1,8.229-11.932v-11.659C-1697.53-1603.713-1700.148-1606.992-1705.759-1606.992Z" transform="translate(1726.632 1619.379)" fill="#1f2dcb"/>
            <path id="Path_8338" data-name="Path 8338" d="M-1581.388-1559.72h-12.868l17.356-59.659h14.14l17.431,59.659h-12.943l-2.917-11.476h-17.357Zm5.461-22.316h12.046l-5.985-24.046h-.149Z" transform="translate(1637.572 1619.379)" fill="#1f2dcb"/>
            <path id="Path_8339" data-name="Path 8339" d="M-1433.787-1577.845v18.126h-12.643v-18.126l-17.506-41.533h14.214l9.5,28.236h.149l9.651-28.236h14.14Z" transform="translate(1549.896 1619.379)" fill="#1f2dcb"/>
          </g>
        </g>
        <g id="Group_5909" data-name="Group 5909" transform="translate(168.935)">
          <path id="Path_8340" data-name="Path 8340" d="M-1172.651-1609.679l-8.23,5.374a10.157,10.157,0,0,0-9.576-6.1c-4.563,0-6.209,2.095-6.209,5.192,0,8.562,24.09,6.194,24.09,26.6,0,11.477-7.257,18.035-18.479,18.035a20.157,20.157,0,0,1-19.3-14.482l9.127-4.19a11.1,11.1,0,0,0,10.025,7.287c4.863,0,6.883-1.731,6.883-5.1,0-9.837-24.913-7.651-24.913-27.507,0-9.655,6.883-17.306,17.506-17.306C-1182.227-1621.884-1176.167-1617.147-1172.651-1609.679Z" transform="translate(1210.357 1621.884)" fill="#fc0d1b"/>
          <path id="Path_8341" data-name="Path 8341" d="M-1076.317-1559.72h-12.868l17.357-59.659h14.14l17.432,59.659H-1053.2l-2.918-11.476h-17.356Zm5.461-22.316h12.045l-5.985-24.046h-.15Z" transform="translate(1128.835 1620.198)" fill="#fc0d1b"/>
          <path id="Path_8342" data-name="Path 8342" d="M-911.921-1619.379v46.816h19.826v12.843h-32.02v-59.659Z" transform="translate(1017.779 1620.198)" fill="#fc0d1b"/>
          <path id="Path_8343" data-name="Path 8343" d="M-772.106-1619.379v12.66h-21.546v11.2h15.86v10.93h-15.86v12.479h22.22v12.387H-806.37v-59.659Z" transform="translate(938.563 1620.198)" fill="#fc0d1b"/>
        </g>
        <path id="Path_8344" data-name="Path 8344" d="M-1296.982-1560.062l3.46,7.01,7.736,1.124-5.6,5.457,1.322,7.7-6.919-3.638-6.919,3.638,1.321-7.7-5.6-5.457,7.736-1.124Z" transform="translate(1445.104 1580.292)" fill="#fc0d1b"/>
      </g>
    </g>
    <path id="Path_8345" data-name="Path 8345" d="M-1881.533-2089.33v83.655h35.424v22.948h-57.213v-106.6Zm61.625,106.6H-1842.9l31.013-106.6h25.265l31.146,106.6H-1778.6l-5.214-20.507h-31.012Zm9.758-39.875h21.522l-10.694-42.967h-.268Zm218.694-26.854v26.854c0,24.576-13.5,41.339-37.3,41.339-23.927,0-37.3-16.764-37.3-41.339v-26.691c0-24.575,13.368-41.5,37.3-41.5C-1604.957-2090.795-1591.456-2073.868-1591.456-2049.456Zm-22.725.163c0-13.834-4.545-19.856-14.7-19.856-10.025,0-14.57,6.022-14.57,19.856v26.691c0,14.322,4.545,20.507,14.7,20.507,10.026,0,14.571-6.185,14.571-20.507Zm69.244,27.017h-9.357v39.549h-22.725v-106.6h34.488c24.061,0,33.686,13.671,33.686,32.225,0,13.02-5.347,24.412-15.773,29.133l21.388,45.245h-24.73Zm-9.357-19.53h11.763c9.223,0,11.228-6.022,11.228-13.508,0-8.626-2.673-12.857-11.5-12.857h-11.5Zm-138.089,3.417v.326c11.63,3.743,16.576,12.858,16.576,24.576,0,18.879-9.09,30.76-32.483,30.76h-38.1v-106.6h33.82c22.992,0,32.215,12.858,32.215,27.993C-1680.351-2050.595-1683.426-2042.62-1692.382-2038.389Zm-31.814-7.812h12.3c8.288,0,11.1-3.58,11.1-11.067s-2.941-10.253-11.1-10.253h-12.3Zm0,42.479h14.437c8.154,0,11.5-3.418,11.5-12.044,0-8.3-3.075-11.555-11.63-11.555h-14.3Z" transform="translate(2610.323 2343.795)" fill="#fff"/>
    <g id="Group_5896" data-name="Group 5896" transform="translate(774.632 482.141)">
      <rect id="Rectangle_1853" data-name="Rectangle 1853" width="106.465" height="63.879" rx="8" transform="translate(81.965 0)" fill="red"/>
      <path id="Path_8118" data-name="Path 8118" d="M-11.185-20.878h-4.471V1.9c0,2.151-.97,2.953-2.531,2.953s-2.531-.8-2.531-2.953V-20.878h-4.3v22.9c0,4.64,2.657,7.044,6.875,7.044,4.3,0,6.96-2.4,6.96-7.044Zm4.556,0V8.648h4.471V-3.584H-.175c4.809,0,7.424-2.615,7.424-7.466v-2.362c0-4.851-2.615-7.466-7.424-7.466Zm4.471,4.134H-.344c2.151,0,3.121,1.139,3.121,3.628v1.772c0,2.489-.97,3.628-3.121,3.628H-2.158Zm31.045.084v-4.218h-14v4.218H19.65V8.648h4.471V-16.66Zm9.449-4.64c-4.471,0-7.213,2.826-7.213,7.466V1.6c0,4.64,2.742,7.466,7.213,7.466S45.549,6.244,45.549,1.6V-13.834C45.549-18.474,42.807-21.3,38.336-21.3Zm0,4.134c1.772,0,2.742,1.181,2.742,3.374V1.562c0,2.193-.97,3.374-2.742,3.374s-2.742-1.181-2.742-3.374V-13.792C35.594-15.985,36.564-17.166,38.336-17.166Z" transform="translate(25.02 38.334)" fill="#fff"/>
      <path id="Path_8119" data-name="Path 8119" d="M-8.807-21.3c-4.471,0-7.213,2.826-7.213,7.466V1.6c0,4.64,2.742,7.466,7.213,7.466S-1.594,6.244-1.594,1.6V-13.834C-1.594-18.474-4.336-21.3-8.807-21.3Zm0,4.134c1.772,0,2.742,1.181,2.742,3.374V1.562c0,2.193-.97,3.374-2.742,3.374s-2.742-1.181-2.742-3.374V-13.792C-11.549-15.985-10.579-17.166-8.807-17.166Zm23.917.422v-4.134H2.751V8.648H7.222V-4.259h6.327V-8.393H7.222v-8.352Zm15.312,0v-4.134H18.062V8.648h4.471V-4.259H28.86V-8.393H22.533v-8.352Z" transform="translate(215.393 38.334)" fill="#fff"/>
      <path id="Path_8121" data-name="Path 8121" d="M22.823-28.288V-58.27H15.889L1.162-27.628v5.811H15.823v9.774h7v-9.774h3.236v-6.472ZM15.691-44.8h.132v16.51H8.03ZM45.012-58.93c-7,0-11.293,4.425-11.293,11.689v24.17c0,7.264,4.293,11.689,11.293,11.689S56.3-15.807,56.3-23.071v-24.17C56.3-54.505,52.012-58.93,45.012-58.93Zm0,6.472c2.774,0,4.293,1.849,4.293,5.283v24.038c0,3.434-1.519,5.283-4.293,5.283s-4.293-1.849-4.293-5.283V-47.175C40.719-50.609,42.238-52.458,45.012-52.458Zm23.043,12.17A4,4,0,0,0,63.8-35.912v6.047a4,4,0,0,0,4.257,4.376,4,4,0,0,0,4.257-4.376v-6.047A4,4,0,0,0,68.055-40.288Zm.835,28.643L82.1-40.288H79.472L66.264-11.644ZM68.055-37.7c.915,0,1.392.6,1.392,1.79v6.047c0,1.193-.477,1.79-1.392,1.79s-1.392-.6-1.392-1.79v-6.047C66.662-37.105,67.14-37.7,68.055-37.7ZM80.308-26.444a4,4,0,0,0-4.257,4.376v6.047a4,4,0,0,0,4.257,4.376,4,4,0,0,0,4.257-4.376v-6.047A4,4,0,0,0,80.308-26.444Zm0,2.586c.915,0,1.392.6,1.392,1.79v6.047c0,1.193-.477,1.79-1.392,1.79s-1.392-.6-1.392-1.79v-6.047C78.915-23.261,79.393-23.858,80.308-23.858Z" transform="translate(92.334 67.095)" fill="#fff"/>
    </g>
  </g>
</svg>
