<svg xmlns="http://www.w3.org/2000/svg" width="40" height="40" viewBox="0 0 40 40">
  <g id="layers" transform="translate(0 0)">
    <g id="Group_5118" data-name="Group 5118" transform="translate(0 0)">
      <g id="Group_5117" data-name="Group 5117" transform="translate(0 0)">
        <path id="Path_6238" data-name="Path 6238" d="M1.349,15.046c3.6,2.142,12.457,7.4,16.878,9.933a3.544,3.544,0,0,0,3.546,0c4.419-2.534,13.274-7.79,16.877-9.933a2.666,2.666,0,0,0,0-4.637C35.866,8.752,26.426,3.142,21.772.475A3.522,3.522,0,0,0,20,0a3.684,3.684,0,0,0-1.781.48S5.563,7.913,1.351,10.407a2.667,2.667,0,0,0,0,4.639Z" transform="translate(0 0)" fill="#ff8f1e"/>
        <path id="Path_6239" data-name="Path 6239" d="M38.682,206.3a.9.9,0,0,0-.937-.006c-4.9,2.906-11.481,6.8-15.067,8.856a5.451,5.451,0,0,1-5.353,0C13.7,213.08,7.131,209.194,2.255,206.3a.906.906,0,0,0-.939.006,2.662,2.662,0,0,0,.034,4.613c3.6,2.142,12.457,7.4,16.878,9.933a3.544,3.544,0,0,0,3.546,0c4.419-2.534,13.274-7.79,16.877-9.933a2.661,2.661,0,0,0,.032-4.612Z" transform="translate(0 -188.599)" fill="#ff8f1e"/>
        <path id="Path_6240" data-name="Path 6240" d="M38.682,291.646a.905.905,0,0,0-.937-.006c-4.9,2.906-11.481,6.8-15.067,8.856a5.451,5.451,0,0,1-5.353,0c-3.62-2.076-10.193-5.962-15.069-8.857a.91.91,0,0,0-.939.006,2.662,2.662,0,0,0,.034,4.613c3.6,2.142,12.457,7.4,16.878,9.933a3.544,3.544,0,0,0,3.546,0c4.419-2.534,13.274-7.79,16.877-9.933a2.661,2.661,0,0,0,.032-4.612Z" transform="translate(0 -266.667)" fill="#ff8f1e"/>
      </g>
    </g>
  </g>
</svg>
