<svg id="svg" version="1.1" xmlns="http://www.w3.org/2000/svg" xmlns:xlink="http://www.w3.org/1999/xlink" width="400" height="100.70422535211267" viewBox="0, 0, 400,100.70422535211267"><g id="svgg"><path id="path0" d="M39.139 0.157 C 39.108 0.244,38.333 0.338,37.417 0.366 C 36.173 0.404,35.761 0.471,35.793 0.630 C 35.849 0.906,35.616 0.979,34.500 1.036 C 33.693 1.078,33.577 1.128,33.530 1.458 C 33.481 1.803,33.390 1.833,32.405 1.833 C 31.444 1.833,31.333 1.868,31.333 2.167 C 31.333 2.482,30.518 2.639,29.542 2.512 C 29.427 2.498,29.333 2.639,29.333 2.826 C 29.333 3.119,29.228 3.167,28.583 3.167 C 27.944 3.167,27.833 3.216,27.833 3.500 C 27.833 3.778,27.722 3.833,27.170 3.833 C 26.607 3.833,26.491 3.894,26.405 4.238 C 26.329 4.542,26.215 4.625,25.944 4.573 C 25.398 4.467,25.000 4.653,25.000 5.011 C 25.000 5.276,24.881 5.333,24.333 5.333 C 23.778 5.333,23.667 5.389,23.667 5.667 C 23.667 5.946,23.556 6.000,22.984 6.000 C 22.442 6.000,22.284 6.068,22.215 6.333 C 22.167 6.518,21.988 6.667,21.814 6.667 C 21.611 6.667,21.500 6.785,21.500 7.000 C 21.500 7.270,21.389 7.333,20.913 7.333 C 20.449 7.333,20.287 7.420,20.136 7.750 C 20.032 7.979,19.809 8.167,19.640 8.167 C 19.444 8.167,19.333 8.287,19.333 8.500 C 19.333 8.818,19.013 8.931,18.362 8.843 C 18.240 8.826,18.100 8.967,18.051 9.156 C 18.000 9.350,17.824 9.500,17.647 9.500 C 17.444 9.500,17.333 9.618,17.333 9.833 C 17.333 10.052,17.222 10.167,17.011 10.167 C 16.834 10.167,16.643 10.313,16.586 10.491 C 16.529 10.670,16.337 10.863,16.158 10.919 C 15.979 10.976,15.833 11.167,15.833 11.345 C 15.833 11.556,15.718 11.667,15.500 11.667 C 15.278 11.667,15.167 11.778,15.167 12.000 C 15.167 12.327,14.883 12.420,14.121 12.341 C 13.959 12.325,13.836 12.372,13.849 12.447 C 13.916 12.832,13.813 13.174,13.659 13.079 C 13.356 12.891,13.000 13.354,13.000 13.937 C 13.000 14.389,12.934 14.500,12.667 14.500 C 12.444 14.500,12.333 14.611,12.333 14.833 C 12.333 15.056,12.222 15.167,12.000 15.167 C 11.778 15.167,11.667 15.278,11.667 15.500 C 11.667 15.722,11.556 15.833,11.333 15.833 C 11.115 15.833,11.000 15.944,11.000 16.155 C 11.000 16.362,10.866 16.496,10.625 16.530 C 10.384 16.564,10.231 16.717,10.197 16.958 C 10.163 17.199,10.029 17.333,9.822 17.333 C 9.611 17.333,9.500 17.448,9.500 17.667 C 9.500 17.965,9.327 18.078,8.958 18.020 C 8.890 18.009,8.833 18.300,8.833 18.667 C 8.833 19.154,8.765 19.333,8.578 19.333 C 8.438 19.333,8.273 19.465,8.212 19.625 C 8.151 19.785,7.927 20.055,7.713 20.223 C 7.500 20.392,7.336 20.617,7.349 20.723 C 7.415 21.263,7.309 21.500,7.000 21.500 C 6.778 21.500,6.667 21.611,6.667 21.833 C 6.667 22.017,6.562 22.167,6.434 22.167 C 6.154 22.167,6.000 22.526,6.000 23.180 C 6.000 23.556,5.924 23.667,5.667 23.667 C 5.389 23.667,5.333 23.778,5.333 24.333 C 5.333 24.880,5.276 25.000,5.013 25.000 C 4.679 25.000,4.372 25.825,4.581 26.163 C 4.639 26.257,4.541 26.333,4.361 26.333 C 3.992 26.333,3.833 26.639,3.833 27.347 C 3.833 27.722,3.757 27.833,3.500 27.833 C 3.222 27.833,3.167 27.944,3.167 28.500 C 3.167 28.959,3.094 29.167,2.934 29.167 C 2.620 29.167,2.500 29.538,2.500 30.514 C 2.500 31.222,2.455 31.333,2.167 31.333 C 1.868 31.333,1.833 31.444,1.833 32.405 C 1.833 33.390,1.803 33.481,1.458 33.530 C 1.129 33.577,1.077 33.694,1.033 34.500 C 0.997 35.148,0.892 35.490,0.674 35.667 C 0.416 35.876,0.362 36.177,0.343 37.500 C 0.330 38.371,0.248 39.108,0.160 39.139 C -0.056 39.214,-0.057 55.952,0.158 56.028 C 0.246 56.058,0.330 56.813,0.346 57.704 C 0.372 59.127,0.414 59.336,0.688 59.423 C 0.935 59.502,1.005 59.702,1.025 60.386 C 1.039 60.861,1.068 61.325,1.089 61.417 C 1.111 61.508,1.146 61.658,1.167 61.750 C 1.189 61.842,1.195 61.979,1.182 62.056 C 1.168 62.133,1.309 62.235,1.495 62.284 C 1.787 62.360,1.833 62.508,1.833 63.353 C 1.833 64.222,1.871 64.333,2.167 64.333 C 2.451 64.333,2.503 64.451,2.519 65.125 C 2.549 66.360,2.566 66.420,2.865 66.370 C 3.087 66.333,3.158 66.475,3.199 67.037 C 3.228 67.440,3.335 67.750,3.444 67.750 C 3.746 67.750,3.815 67.882,3.860 68.548 C 3.888 68.960,3.996 69.196,4.187 69.257 C 4.364 69.313,4.516 69.599,4.585 70.007 C 4.669 70.507,4.773 70.667,5.015 70.667 C 5.318 70.667,5.440 71.089,5.343 71.805 C 5.326 71.926,5.467 72.066,5.656 72.116 C 5.850 72.166,6.000 72.343,6.000 72.519 C 6.000 72.722,6.118 72.833,6.333 72.833 C 6.612 72.833,6.667 72.944,6.667 73.516 C 6.667 74.045,6.737 74.216,6.982 74.280 C 7.261 74.353,7.596 75.149,7.518 75.554 C 7.504 75.630,7.644 75.644,7.829 75.585 C 8.108 75.496,8.167 75.552,8.167 75.905 C 8.167 76.222,8.253 76.333,8.500 76.333 C 8.722 76.333,8.833 76.444,8.833 76.667 C 8.833 76.886,8.944 77.000,9.157 77.000 C 9.419 77.000,9.491 77.136,9.532 77.708 C 9.574 78.291,9.648 78.426,9.949 78.469 C 10.183 78.502,10.283 78.605,10.226 78.753 C 10.168 78.903,10.290 79.025,10.568 79.094 C 10.806 79.154,11.000 79.314,11.000 79.450 C 11.000 79.586,11.146 79.736,11.324 79.783 C 11.502 79.829,11.671 80.028,11.699 80.225 C 11.731 80.447,11.861 80.575,12.042 80.560 C 12.245 80.544,12.333 80.658,12.333 80.935 C 12.333 81.222,12.426 81.333,12.667 81.333 C 12.889 81.333,13.000 81.444,13.000 81.667 C 13.000 81.889,13.111 82.000,13.333 82.000 C 13.556 82.000,13.667 82.111,13.667 82.333 C 13.667 82.578,13.778 82.667,14.083 82.667 C 14.389 82.667,14.500 82.756,14.500 83.000 C 14.500 83.222,14.611 83.333,14.833 83.333 C 15.078 83.333,15.167 83.444,15.167 83.750 C 15.167 84.056,15.256 84.167,15.500 84.167 C 15.694 84.167,15.833 84.278,15.833 84.432 C 15.833 84.578,15.976 84.735,16.151 84.781 C 16.326 84.827,16.507 85.007,16.552 85.182 C 16.617 85.430,16.787 85.500,17.318 85.500 C 17.889 85.500,18.000 85.554,18.000 85.833 C 18.000 86.056,18.111 86.167,18.333 86.167 C 18.561 86.167,18.667 86.278,18.667 86.516 C 18.667 86.719,18.800 86.899,18.985 86.948 C 19.159 86.993,19.340 87.174,19.386 87.349 C 19.450 87.596,19.620 87.667,20.151 87.667 C 20.722 87.667,20.833 87.721,20.833 88.000 C 20.833 88.222,20.944 88.333,21.167 88.333 C 21.389 88.333,21.500 88.444,21.500 88.667 C 21.500 88.850,21.556 88.991,21.625 88.980 C 22.279 88.877,22.833 89.030,22.833 89.314 C 22.833 89.634,23.253 89.827,23.958 89.831 C 24.221 89.833,24.333 89.933,24.333 90.167 C 24.333 90.382,24.444 90.500,24.647 90.500 C 24.821 90.500,25.000 90.649,25.048 90.833 C 25.118 91.098,25.276 91.167,25.818 91.167 C 26.389 91.167,26.500 91.221,26.500 91.500 C 26.500 91.796,26.611 91.833,27.500 91.833 C 28.389 91.833,28.500 91.870,28.500 92.167 C 28.500 92.451,28.611 92.500,29.250 92.500 C 29.875 92.500,30.000 92.553,30.000 92.816 C 30.000 93.203,30.313 93.333,31.244 93.333 C 31.821 93.333,31.978 93.399,32.048 93.667 C 32.123 93.954,32.276 94.000,33.151 94.000 C 34.056 94.000,34.167 94.036,34.167 94.333 C 34.167 94.641,34.278 94.667,35.583 94.667 C 36.889 94.667,37.000 94.693,37.000 95.000 C 37.000 95.183,37.056 95.324,37.125 95.314 C 38.245 95.137,41.167 95.372,41.167 95.639 C 41.167 96.046,40.874 96.021,46.833 96.108 C 53.107 96.199,54.500 96.116,54.500 95.652 C 54.500 95.357,57.177 95.141,58.500 95.329 C 58.637 95.349,58.697 95.311,58.633 95.246 C 58.329 94.937,59.033 94.673,60.220 94.650 C 61.293 94.629,61.483 94.581,61.554 94.313 C 61.622 94.053,61.796 94.000,62.583 94.000 C 63.391 94.000,63.544 93.951,63.618 93.667 C 63.681 93.429,63.855 93.328,64.228 93.314 C 64.515 93.304,64.825 93.277,64.917 93.256 C 65.008 93.235,65.261 93.206,65.478 93.192 C 65.785 93.172,65.853 93.093,65.785 92.833 C 65.708 92.537,65.780 92.500,66.432 92.500 C 67.056 92.500,67.167 92.450,67.167 92.167 C 67.167 91.883,67.278 91.833,67.917 91.833 C 68.556 91.833,68.667 91.784,68.667 91.500 C 68.667 91.229,68.778 91.167,69.266 91.167 C 69.724 91.167,69.885 91.089,69.952 90.833 C 70.020 90.570,70.179 90.500,70.702 90.500 C 71.222 90.500,71.383 90.429,71.451 90.171 C 71.508 89.953,71.736 89.804,72.123 89.732 C 72.496 89.662,72.739 89.508,72.791 89.311 C 72.867 89.018,73.323 88.900,74.000 88.996 C 74.137 89.016,74.197 88.978,74.133 88.913 C 73.975 88.752,74.412 88.333,74.738 88.333 C 74.889 88.333,75.000 88.192,75.000 88.000 C 75.000 87.778,75.111 87.667,75.333 87.667 C 75.556 87.667,75.667 87.556,75.667 87.333 C 75.667 87.134,75.784 86.992,75.958 86.981 C 76.688 86.933,77.167 86.702,77.167 86.399 C 77.167 86.271,77.317 86.167,77.500 86.167 C 77.722 86.167,77.833 86.056,77.833 85.833 C 77.833 85.611,77.944 85.500,78.167 85.500 C 78.385 85.500,78.500 85.389,78.500 85.177 C 78.500 84.923,78.635 84.842,79.125 84.802 C 79.471 84.773,79.759 84.657,79.771 84.542 C 79.782 84.427,79.801 84.271,79.813 84.195 C 79.824 84.119,80.002 84.063,80.208 84.070 C 80.494 84.080,80.580 83.994,80.570 83.708 C 80.560 83.423,80.650 83.333,80.945 83.333 C 81.222 83.333,81.333 83.238,81.333 83.000 C 81.333 82.702,81.506 82.589,81.875 82.647 C 81.944 82.658,81.991 82.610,81.980 82.542 C 81.922 82.173,82.035 82.000,82.333 82.000 C 82.556 82.000,82.667 81.889,82.667 81.667 C 82.667 81.454,82.778 81.333,82.973 81.333 C 83.142 81.333,83.365 81.146,83.470 80.917 C 83.574 80.688,83.782 80.500,83.931 80.500 C 84.098 80.500,84.167 80.408,84.111 80.262 C 84.029 80.049,84.399 79.583,84.651 79.583 C 84.757 79.583,84.784 79.467,84.814 78.875 C 84.827 78.618,84.938 78.500,85.167 78.500 C 85.385 78.500,85.500 78.389,85.500 78.178 C 85.500 77.971,85.634 77.837,85.875 77.803 C 86.142 77.765,86.246 77.642,86.237 77.375 C 86.225 77.035,86.438 76.907,86.886 76.984 C 86.961 76.997,87.009 76.874,86.992 76.712 C 86.920 76.012,87.017 75.701,87.333 75.618 C 87.517 75.570,87.667 75.420,87.667 75.285 C 87.667 75.150,87.817 75.000,88.000 74.952 C 88.265 74.882,88.333 74.724,88.333 74.182 C 88.333 73.611,88.388 73.500,88.667 73.500 C 88.885 73.500,89.000 73.389,89.000 73.178 C 89.000 72.971,89.134 72.837,89.375 72.803 C 89.614 72.769,89.756 72.629,89.767 72.417 C 89.807 71.638,89.850 71.535,90.167 71.452 C 90.432 71.382,90.500 71.224,90.500 70.682 C 90.500 70.111,90.554 70.000,90.833 70.000 C 91.109 70.000,91.167 69.889,91.167 69.353 C 91.167 68.846,91.239 68.687,91.500 68.618 C 91.765 68.549,91.833 68.391,91.833 67.849 C 91.833 67.291,91.891 67.167,92.149 67.167 C 92.488 67.167,92.667 66.859,92.667 66.276 C 92.667 66.077,92.817 65.820,93.000 65.705 C 93.268 65.538,93.333 65.317,93.333 64.582 C 93.333 63.778,93.374 63.667,93.667 63.667 C 93.966 63.667,94.000 63.556,94.000 62.583 C 94.000 61.654,94.042 61.500,94.298 61.500 C 94.555 61.500,94.603 61.320,94.644 60.210 C 94.689 59.004,94.878 58.405,95.158 58.578 C 95.304 58.668,95.300 58.702,95.435 56.306 C 95.529 54.657,95.584 54.376,95.800 54.459 C 95.967 54.523,96.013 54.489,95.934 54.362 C 95.868 54.254,95.894 54.167,95.992 54.167 C 96.117 54.167,96.157 52.214,96.127 47.708 C 96.086 41.675,96.064 41.252,95.792 41.273 C 95.491 41.297,95.422 40.883,95.497 39.524 C 95.569 38.236,95.318 37.000,94.984 37.000 C 94.701 37.000,94.489 35.293,94.647 34.292 C 94.658 34.223,94.517 34.167,94.333 34.167 C 94.034 34.167,94.000 34.056,94.000 33.083 C 94.000 32.111,93.966 32.000,93.667 32.000 C 93.370 32.000,93.333 31.889,93.333 31.000 C 93.333 30.121,93.294 30.000,93.010 30.000 C 92.748 30.000,92.676 29.864,92.635 29.292 C 92.592 28.703,92.520 28.574,92.208 28.530 C 91.868 28.482,91.833 28.387,91.833 27.488 C 91.833 26.611,91.796 26.500,91.500 26.500 C 91.254 26.500,91.160 26.380,91.141 26.042 C 91.127 25.790,91.108 25.472,91.099 25.336 C 91.090 25.199,90.956 25.063,90.801 25.033 C 90.609 24.997,90.503 24.783,90.468 24.365 C 90.434 23.961,90.333 23.750,90.174 23.750 C 90.041 23.750,89.888 23.562,89.834 23.333 C 89.772 23.070,89.601 22.897,89.368 22.863 C 89.060 22.819,89.000 22.704,89.000 22.155 C 89.000 21.795,88.944 21.509,88.875 21.520 C 88.506 21.578,88.333 21.465,88.333 21.167 C 88.333 20.944,88.222 20.833,88.000 20.833 C 87.745 20.833,87.662 20.715,87.646 20.333 C 87.610 19.476,87.590 19.417,87.333 19.417 C 87.196 19.417,87.060 19.253,87.031 19.052 C 86.999 18.825,86.842 18.668,86.615 18.635 C 86.414 18.607,86.243 18.471,86.234 18.333 C 86.225 18.196,86.206 17.915,86.192 17.708 C 86.175 17.453,86.060 17.333,85.833 17.333 C 85.606 17.333,85.500 17.222,85.500 16.984 C 85.500 16.776,85.366 16.600,85.167 16.548 C 84.982 16.500,84.833 16.321,84.833 16.147 C 84.833 15.944,84.715 15.833,84.500 15.833 C 84.278 15.833,84.167 15.722,84.167 15.500 C 84.167 15.278,84.056 15.167,83.833 15.167 C 83.611 15.167,83.500 15.056,83.500 14.833 C 83.500 14.589,83.389 14.500,83.083 14.500 C 82.750 14.500,82.667 14.417,82.667 14.083 C 82.667 13.778,82.578 13.667,82.333 13.667 C 82.111 13.667,82.000 13.556,82.000 13.333 C 82.000 13.111,81.889 13.000,81.667 13.000 C 81.444 13.000,81.333 12.889,81.333 12.667 C 81.333 12.444,81.222 12.333,81.000 12.333 C 80.778 12.333,80.667 12.222,80.667 12.000 C 80.667 11.782,80.556 11.667,80.345 11.667 C 80.167 11.667,79.975 11.517,79.917 11.333 C 79.858 11.150,79.666 11.000,79.489 11.000 C 79.273 11.000,79.167 10.885,79.167 10.651 C 79.167 10.448,79.034 10.267,78.849 10.219 C 78.674 10.173,78.496 10.004,78.454 9.844 C 78.402 9.645,78.203 9.547,77.830 9.536 C 77.299 9.521,76.937 9.237,77.104 8.966 C 77.149 8.893,76.994 8.833,76.760 8.833 C 76.489 8.833,76.333 8.741,76.333 8.579 C 76.333 8.439,76.147 8.254,75.920 8.168 C 75.660 8.069,75.540 7.922,75.598 7.772 C 75.664 7.599,75.508 7.502,75.028 7.421 C 74.572 7.344,74.340 7.210,74.282 6.988 C 74.216 6.737,74.049 6.667,73.516 6.667 C 72.944 6.667,72.833 6.612,72.833 6.333 C 72.833 6.111,72.722 6.000,72.500 6.000 C 72.278 6.000,72.167 5.889,72.167 5.667 C 72.167 5.483,72.110 5.342,72.042 5.353 C 71.433 5.449,70.863 5.297,70.790 5.018 C 70.733 4.802,70.494 4.667,70.027 4.588 C 69.567 4.510,69.314 4.370,69.246 4.153 C 69.169 3.911,68.989 3.833,68.507 3.833 C 68.003 3.833,67.875 3.773,67.894 3.542 C 67.913 3.298,67.749 3.242,66.892 3.201 C 66.040 3.160,65.854 3.097,65.783 2.826 C 65.719 2.580,65.553 2.500,65.110 2.500 C 64.669 2.500,64.496 2.417,64.417 2.167 C 64.327 1.883,64.164 1.833,63.322 1.833 C 62.463 1.833,62.333 1.792,62.333 1.518 C 62.333 1.096,62.022 1.000,60.653 1.000 C 59.611 1.000,59.500 0.968,59.500 0.667 C 59.500 0.354,59.389 0.333,57.750 0.333 C 56.694 0.333,56.000 0.267,56.000 0.167 C 56.000 -0.054,39.217 -0.064,39.139 0.157 M163.226 18.115 C 163.409 18.298,162.867 18.643,162.316 18.696 C 161.897 18.736,161.756 18.826,161.773 19.042 C 161.789 19.245,161.675 19.333,161.398 19.333 C 161.085 19.333,161.000 19.422,161.000 19.750 C 161.000 20.123,160.843 20.248,160.454 20.185 C 160.384 20.174,160.280 20.392,160.224 20.671 C 160.168 20.950,160.001 21.270,159.853 21.381 C 159.705 21.492,159.558 21.771,159.527 22.000 C 159.496 22.229,159.403 22.488,159.319 22.575 C 159.113 22.789,159.124 26.391,159.331 26.597 C 159.421 26.687,159.508 27.113,159.524 27.543 C 159.546 28.115,159.655 28.421,159.932 28.681 C 160.139 28.876,160.269 29.140,160.220 29.268 C 160.171 29.395,160.218 29.500,160.325 29.500 C 160.432 29.500,160.472 29.577,160.414 29.671 C 160.356 29.765,160.370 29.831,160.446 29.818 C 160.812 29.754,160.981 29.865,161.030 30.202 C 161.059 30.404,161.233 30.610,161.417 30.660 C 161.600 30.709,161.750 30.861,161.750 30.996 C 161.750 31.155,161.950 31.258,162.320 31.288 C 162.936 31.338,163.083 31.421,163.083 31.722 C 163.083 31.863,164.040 31.926,166.556 31.950 C 169.493 31.978,170.015 31.946,169.938 31.747 C 169.819 31.435,170.065 31.300,170.755 31.300 C 171.153 31.300,171.350 31.211,171.416 31.001 C 171.468 30.837,171.661 30.664,171.844 30.616 C 172.027 30.568,172.165 30.466,172.152 30.389 C 172.085 30.010,172.198 29.833,172.507 29.833 C 172.695 29.833,172.836 29.740,172.821 29.625 C 172.728 28.912,172.850 28.500,173.155 28.500 C 173.586 28.500,173.692 27.493,173.593 24.333 C 173.500 21.374,173.514 21.457,173.139 21.556 C 172.845 21.633,172.753 21.325,172.789 20.375 C 172.793 20.260,172.655 20.167,172.481 20.167 C 172.195 20.167,172.086 19.983,172.152 19.611 C 172.165 19.534,172.027 19.432,171.844 19.384 C 171.661 19.336,171.466 19.155,171.411 18.982 C 171.335 18.743,171.152 18.667,170.655 18.667 C 170.108 18.667,170.000 18.611,170.000 18.328 C 170.000 17.998,169.912 17.990,166.568 18.007 C 164.680 18.017,163.176 18.065,163.226 18.115 M353.212 18.346 C 353.165 18.523,352.969 18.678,352.772 18.692 C 352.577 18.706,352.304 18.725,352.167 18.734 C 352.029 18.743,351.917 18.863,351.917 19.000 C 351.917 19.138,351.748 19.274,351.542 19.303 C 351.313 19.336,351.129 19.508,351.069 19.746 C 351.016 19.960,350.828 20.173,350.653 20.219 C 350.442 20.274,350.333 20.449,350.333 20.733 C 350.333 20.983,350.194 21.251,350.000 21.372 C 349.800 21.497,349.667 21.761,349.667 22.030 C 349.667 22.278,349.592 22.527,349.500 22.583 C 349.289 22.713,349.277 26.376,349.487 26.592 C 349.571 26.679,349.659 27.087,349.682 27.500 C 349.705 27.921,349.851 28.396,350.014 28.583 C 350.174 28.767,350.331 29.104,350.364 29.333 C 350.397 29.563,350.518 29.731,350.633 29.707 C 350.747 29.684,350.913 29.854,351.001 30.085 C 351.089 30.317,351.350 30.578,351.582 30.666 C 351.813 30.754,351.983 30.920,351.960 31.036 C 351.933 31.166,352.169 31.278,352.583 31.331 C 353.106 31.398,353.239 31.481,353.200 31.714 C 353.119 32.193,359.996 32.134,360.122 31.654 C 360.183 31.420,360.353 31.333,360.752 31.333 C 361.086 31.333,361.335 31.235,361.395 31.081 C 361.448 30.942,361.675 30.758,361.900 30.673 C 362.137 30.583,362.331 30.358,362.362 30.134 C 362.398 29.884,362.521 29.759,362.716 29.774 C 362.902 29.790,363.005 29.695,362.988 29.524 C 362.915 28.774,363.009 28.500,363.338 28.500 C 363.668 28.500,363.677 28.412,363.660 24.984 C 363.643 21.597,363.631 21.470,363.321 21.551 C 363.040 21.625,363.000 21.544,363.000 20.901 C 363.000 20.287,362.947 20.167,362.678 20.167 C 362.471 20.167,362.337 20.033,362.303 19.792 C 362.274 19.585,362.137 19.417,362.000 19.417 C 361.863 19.417,361.675 19.246,361.584 19.038 C 361.493 18.830,361.305 18.670,361.167 18.682 C 360.434 18.749,360.167 18.654,360.167 18.328 C 360.167 17.813,353.346 17.830,353.212 18.346 M70.885 33.508 C 72.294 33.712,73.731 34.340,74.377 35.032 C 74.901 35.594,74.883 35.648,73.857 36.573 C 73.444 36.945,72.575 37.747,71.928 38.355 C 71.280 38.962,70.161 39.975,69.442 40.605 C 68.723 41.235,67.626 42.237,67.006 42.833 C 66.386 43.429,65.261 44.479,64.506 45.167 C 63.751 45.854,62.747 46.771,62.275 47.204 C 61.803 47.637,61.369 47.994,61.310 47.996 C 61.251 47.998,60.560 48.637,59.774 49.417 C 58.988 50.196,58.309 50.833,58.265 50.833 C 58.222 50.833,57.856 51.152,57.451 51.542 C 55.698 53.231,53.110 55.596,52.858 55.739 C 52.707 55.824,52.120 56.349,51.554 56.905 C 50.988 57.462,50.024 58.367,49.411 58.917 C 48.799 59.467,47.791 60.407,47.171 61.005 C 46.551 61.604,45.806 62.279,45.515 62.505 C 45.224 62.732,44.633 63.239,44.201 63.633 C 42.453 65.230,40.551 66.994,39.108 68.355 C 37.486 69.885,36.588 70.667,36.452 70.667 C 36.406 70.667,35.873 71.154,35.269 71.750 C 33.838 73.160,33.542 73.179,32.583 71.924 C 32.400 71.683,32.124 71.358,31.969 71.200 C 31.163 70.375,31.253 69.709,32.313 68.642 C 32.645 68.308,34.342 66.557,36.083 64.752 C 37.825 62.947,41.292 59.407,43.789 56.886 L 48.328 52.303 47.456 52.394 C 46.976 52.444,46.281 52.532,45.911 52.590 C 45.278 52.689,43.392 52.215,42.917 51.837 C 42.825 51.765,42.487 51.651,42.167 51.585 C 41.846 51.518,41.349 51.322,41.064 51.149 C 40.778 50.975,40.365 50.833,40.147 50.832 C 39.929 50.832,39.525 50.682,39.250 50.500 C 38.975 50.318,38.635 50.168,38.494 50.168 C 38.353 50.167,37.960 50.025,37.620 49.852 C 37.281 49.679,36.748 49.490,36.435 49.431 C 36.123 49.372,35.782 49.222,35.677 49.096 C 35.573 48.971,35.218 48.818,34.888 48.756 C 34.558 48.694,34.018 48.498,33.688 48.322 C 33.358 48.145,32.946 48.000,32.772 48.000 C 32.598 48.000,32.222 47.859,31.936 47.687 C 31.651 47.515,31.143 47.325,30.808 47.266 C 30.474 47.206,30.108 47.047,29.996 46.912 C 29.884 46.777,29.632 46.667,29.435 46.667 C 29.239 46.667,28.799 46.517,28.456 46.333 C 28.114 46.150,27.741 45.999,27.626 45.998 C 27.511 45.998,27.042 45.812,26.583 45.587 C 26.125 45.362,25.553 45.175,25.312 45.172 C 25.071 45.169,24.782 45.056,24.670 44.921 C 24.558 44.786,24.193 44.629,23.858 44.572 C 23.524 44.515,23.047 44.326,22.798 44.151 C 22.550 43.976,22.173 43.833,21.960 43.833 C 19.954 43.833,21.153 40.559,23.383 39.948 C 23.656 39.873,23.986 39.704,24.118 39.573 C 24.450 39.240,27.879 39.240,28.869 39.573 C 29.262 39.705,30.645 39.886,31.942 39.975 C 33.239 40.064,34.449 40.217,34.631 40.314 C 34.813 40.411,36.040 40.563,37.359 40.652 C 38.677 40.740,39.974 40.895,40.240 40.996 C 40.506 41.097,41.736 41.256,42.974 41.350 C 44.212 41.443,45.612 41.620,46.087 41.744 C 46.561 41.868,47.805 42.019,48.850 42.081 C 49.895 42.142,51.114 42.308,51.560 42.449 C 53.211 42.972,54.346 42.848,55.303 42.042 C 55.765 41.652,56.192 41.333,56.251 41.333 C 56.311 41.333,56.897 40.899,57.555 40.369 C 58.622 39.508,59.115 39.143,59.967 38.583 C 60.264 38.388,60.569 38.146,61.233 37.579 C 61.498 37.352,61.768 37.167,61.833 37.167 C 61.941 37.167,62.506 36.711,63.181 36.080 C 63.326 35.944,63.523 35.833,63.619 35.833 C 63.714 35.833,63.894 35.711,64.019 35.561 C 64.269 35.259,65.208 34.637,66.287 34.058 C 66.680 33.847,67.527 33.614,68.204 33.529 C 68.871 33.445,69.477 33.367,69.551 33.355 C 69.626 33.343,70.226 33.412,70.885 33.508 M310.083 64.334 C 308.342 64.407,306.242 64.543,305.417 64.638 C 304.592 64.732,302.604 64.860,301.000 64.923 C 299.396 64.985,297.698 65.134,297.226 65.254 C 296.755 65.374,295.405 65.523,294.226 65.585 C 293.048 65.648,291.653 65.806,291.127 65.936 C 290.602 66.067,289.275 66.243,288.180 66.326 C 287.084 66.409,286.022 66.566,285.820 66.674 C 285.617 66.782,284.654 66.935,283.679 67.013 C 282.704 67.092,281.683 67.263,281.411 67.393 C 281.139 67.523,280.247 67.681,279.429 67.743 C 278.610 67.805,277.741 67.959,277.497 68.085 C 277.252 68.211,276.460 68.367,275.735 68.430 C 275.010 68.493,274.212 68.648,273.963 68.775 C 273.713 68.901,273.038 69.052,272.463 69.111 C 271.887 69.170,271.011 69.357,270.516 69.526 C 270.020 69.695,269.364 69.833,269.058 69.833 C 268.752 69.833,268.070 69.978,267.542 70.155 C 267.015 70.332,266.171 70.527,265.667 70.590 C 265.162 70.653,264.661 70.776,264.552 70.864 C 264.442 70.952,263.805 71.126,263.135 71.251 C 262.465 71.376,261.617 71.592,261.250 71.732 C 260.883 71.871,260.319 71.989,259.995 71.993 C 259.672 71.997,259.248 72.112,259.053 72.248 C 258.858 72.385,258.211 72.566,257.616 72.650 C 257.021 72.734,256.358 72.914,256.142 73.048 C 255.926 73.183,255.392 73.339,254.955 73.394 C 254.518 73.449,253.949 73.604,253.690 73.738 C 253.431 73.872,252.833 74.033,252.362 74.095 C 251.891 74.158,251.423 74.308,251.323 74.430 C 251.222 74.551,250.789 74.700,250.361 74.760 C 249.933 74.820,249.426 74.968,249.234 75.088 C 249.043 75.208,248.480 75.382,247.984 75.474 C 247.489 75.566,246.858 75.759,246.583 75.903 C 246.308 76.047,245.895 76.165,245.664 76.166 C 245.434 76.166,244.984 76.306,244.664 76.476 C 244.345 76.645,243.791 76.838,243.434 76.904 C 243.077 76.970,242.627 77.126,242.434 77.250 C 242.241 77.374,241.801 77.527,241.457 77.590 C 241.112 77.653,240.552 77.846,240.213 78.019 C 239.874 78.192,239.406 78.334,239.173 78.334 C 238.940 78.335,238.525 78.485,238.250 78.667 C 237.975 78.849,237.560 78.998,237.329 78.999 C 237.097 79.000,236.730 79.124,236.514 79.276 C 236.297 79.428,235.780 79.615,235.364 79.693 C 234.949 79.771,234.485 79.946,234.333 80.084 C 234.181 80.221,233.913 80.336,233.737 80.339 C 233.561 80.341,233.042 80.528,232.583 80.754 C 232.125 80.979,231.574 81.164,231.360 81.165 C 231.145 81.166,230.779 81.317,230.545 81.500 C 230.312 81.683,229.918 81.833,229.670 81.833 C 229.421 81.833,229.045 81.983,228.833 82.167 C 228.622 82.350,228.291 82.500,228.097 82.500 C 227.903 82.500,227.484 82.640,227.164 82.811 C 226.845 82.982,226.345 83.175,226.053 83.238 C 225.762 83.302,225.440 83.455,225.339 83.577 C 225.238 83.699,224.876 83.850,224.536 83.913 C 224.195 83.976,223.683 84.172,223.397 84.347 C 223.111 84.523,222.711 84.667,222.507 84.667 C 222.303 84.667,221.945 84.817,221.712 85.000 C 221.479 85.183,221.158 85.333,220.998 85.333 C 220.838 85.333,220.620 85.439,220.512 85.569 C 220.405 85.698,219.949 85.892,219.500 86.000 C 219.051 86.108,218.597 86.300,218.492 86.427 C 218.386 86.554,218.026 86.708,217.692 86.770 C 217.357 86.831,216.904 87.021,216.686 87.191 C 216.467 87.361,216.183 87.500,216.054 87.500 C 215.925 87.500,215.617 87.643,215.368 87.818 C 215.120 87.993,214.635 88.183,214.292 88.242 C 213.948 88.301,213.667 88.414,213.667 88.495 C 213.667 88.575,213.385 88.731,213.042 88.841 C 212.698 88.952,212.304 89.136,212.167 89.251 C 212.029 89.366,211.729 89.516,211.500 89.583 C 211.271 89.651,210.971 89.804,210.833 89.923 C 210.696 90.043,210.358 90.197,210.083 90.265 C 209.808 90.334,209.358 90.527,209.083 90.694 C 208.808 90.862,208.483 90.999,208.360 90.999 C 208.237 91.000,207.945 91.150,207.712 91.333 C 207.479 91.517,207.160 91.667,207.003 91.667 C 206.846 91.667,206.545 91.817,206.333 92.000 C 206.122 92.183,205.829 92.337,205.683 92.341 C 203.609 92.397,201.960 92.662,201.682 92.983 C 201.511 93.179,201.178 93.333,200.923 93.333 C 200.609 93.333,200.442 93.436,200.382 93.667 C 200.334 93.850,200.171 94.000,200.021 94.000 C 199.870 94.000,199.653 94.150,199.539 94.333 C 199.409 94.541,199.150 94.667,198.852 94.667 C 198.556 94.667,198.287 94.796,198.145 95.008 C 198.020 95.196,197.729 95.362,197.500 95.378 C 197.271 95.393,196.947 95.577,196.780 95.786 C 196.606 96.004,196.294 96.167,196.049 96.167 C 195.814 96.167,195.484 96.326,195.315 96.521 C 195.146 96.716,194.809 96.875,194.566 96.875 C 194.279 96.875,194.097 96.981,194.045 97.178 C 193.990 97.388,193.779 97.498,193.358 97.533 C 192.782 97.581,192.749 97.616,192.725 98.200 L 192.700 98.817 201.767 98.829 C 210.761 98.841,210.833 98.838,210.833 98.504 C 210.833 98.169,210.908 98.167,220.314 98.167 C 229.654 98.167,229.796 98.162,229.882 97.833 C 229.967 97.505,230.109 97.500,239.390 97.500 C 248.664 97.500,248.813 97.495,248.917 97.167 C 249.018 96.846,249.169 96.833,252.777 96.833 C 256.330 96.833,256.536 96.816,256.614 96.515 C 256.660 96.341,256.841 96.160,257.015 96.114 C 257.200 96.066,257.333 95.885,257.333 95.682 C 257.333 95.380,257.433 95.333,258.083 95.333 C 258.722 95.333,258.833 95.284,258.833 95.000 C 258.833 94.722,258.944 94.667,259.500 94.667 C 260.056 94.667,260.167 94.611,260.167 94.333 C 260.167 94.063,260.278 94.000,260.755 94.000 C 261.137 94.000,261.379 93.908,261.445 93.737 C 261.500 93.593,261.723 93.407,261.939 93.325 C 262.175 93.235,262.333 93.039,262.333 92.837 C 262.333 92.555,262.442 92.500,263.000 92.500 C 263.549 92.500,263.667 92.443,263.667 92.176 C 263.667 91.915,263.802 91.843,264.375 91.801 C 264.871 91.765,265.083 91.675,265.083 91.500 C 265.083 91.333,265.306 91.222,265.750 91.167 C 266.255 91.104,266.411 91.012,266.394 90.792 C 266.376 90.567,266.500 90.500,266.936 90.500 C 267.332 90.500,267.611 90.375,267.864 90.083 C 268.064 89.854,268.326 89.667,268.447 89.667 C 268.568 89.667,268.667 89.517,268.667 89.333 C 268.667 89.056,268.778 89.000,269.333 89.000 C 269.889 89.000,270.000 88.944,270.000 88.667 C 270.000 88.383,270.111 88.333,270.750 88.333 C 271.389 88.333,271.500 88.284,271.500 88.000 C 271.500 87.729,271.611 87.667,272.099 87.667 C 272.558 87.667,272.718 87.589,272.785 87.333 C 272.842 87.116,273.025 86.991,273.311 86.975 C 273.552 86.961,273.862 86.942,274.000 86.933 C 274.137 86.924,274.274 86.748,274.303 86.542 C 274.355 86.179,274.812 86.073,276.125 86.122 C 276.240 86.126,276.333 85.988,276.333 85.815 C 276.333 85.515,276.759 85.394,277.471 85.491 C 277.593 85.507,277.733 85.366,277.782 85.177 C 277.865 84.859,278.204 84.742,278.805 84.824 C 278.926 84.840,279.065 84.703,279.113 84.519 C 279.180 84.263,279.364 84.172,279.892 84.134 C 280.318 84.103,280.583 84.001,280.583 83.869 C 280.583 83.570,280.999 83.339,281.542 83.336 C 281.888 83.334,282.000 83.252,282.000 83.000 C 282.000 82.683,282.831 82.525,283.805 82.657 C 283.926 82.674,284.066 82.533,284.116 82.344 C 284.187 82.071,284.339 82.000,284.853 82.000 C 285.389 82.000,285.500 81.943,285.500 81.667 C 285.500 81.379,285.611 81.333,286.320 81.333 C 287.287 81.333,287.667 81.214,287.667 80.909 C 287.667 80.773,287.908 80.667,288.292 80.635 C 288.794 80.594,288.927 80.510,288.970 80.208 C 289.021 79.848,289.919 79.678,290.981 79.826 C 291.138 79.848,291.183 79.747,291.122 79.513 C 291.035 79.180,291.906 79.013,292.971 79.157 C 293.093 79.174,293.233 79.033,293.282 78.844 C 293.354 78.571,293.506 78.500,294.019 78.500 C 294.550 78.500,294.667 78.441,294.667 78.175 C 294.667 77.892,294.803 77.843,295.708 77.800 C 296.644 77.755,296.755 77.712,296.803 77.375 C 296.852 77.030,296.943 77.000,297.948 77.000 C 298.957 77.000,299.032 76.975,298.952 76.667 C 298.872 76.361,298.947 76.333,299.865 76.333 C 300.718 76.333,300.877 76.285,300.950 76.006 C 301.025 75.721,301.207 75.674,302.393 75.631 C 303.567 75.590,303.747 75.544,303.727 75.292 C 303.707 75.042,303.857 75.000,304.784 75.000 C 305.724 75.000,305.876 74.957,305.952 74.667 C 306.030 74.369,306.879 74.219,307.759 74.347 C 307.809 74.354,308.044 74.234,308.279 74.079 C 308.521 73.921,308.651 73.890,308.578 74.008 C 308.494 74.145,308.516 74.176,308.641 74.099 C 308.747 74.034,308.833 73.872,308.833 73.740 C 308.833 73.551,309.120 73.500,310.194 73.500 C 310.943 73.500,311.509 73.454,311.452 73.397 C 311.158 73.103,311.891 72.839,313.068 72.817 C 314.186 72.795,314.333 72.756,314.333 72.479 C 314.333 72.198,314.476 72.167,315.750 72.167 C 317.056 72.167,317.167 72.141,317.167 71.833 C 317.167 71.521,317.278 71.500,318.913 71.500 C 320.638 71.500,320.662 71.495,320.765 71.083 C 320.869 70.667,320.871 70.667,322.935 70.667 C 324.889 70.667,325.000 70.649,325.000 70.333 C 325.000 70.031,328.147 69.796,329.625 69.988 C 329.740 70.002,329.833 69.861,329.833 69.674 C 329.833 69.344,329.924 69.333,332.677 69.333 C 334.240 69.333,335.483 69.274,335.438 69.200 C 335.129 68.701,335.669 68.668,344.676 68.625 C 353.734 68.581,353.750 68.581,353.800 68.233 C 353.847 67.902,353.754 67.880,351.902 67.781 C 350.511 67.706,349.874 67.604,349.674 67.423 C 349.503 67.268,348.805 67.109,347.874 67.013 C 347.037 66.926,346.200 66.774,346.014 66.674 C 345.827 66.574,344.866 66.417,343.879 66.325 C 342.891 66.234,341.746 66.055,341.333 65.927 C 340.921 65.800,339.721 65.651,338.667 65.596 C 337.612 65.541,336.225 65.386,335.583 65.251 C 334.942 65.117,332.879 64.927,331.000 64.830 C 329.121 64.732,327.058 64.588,326.417 64.508 C 324.713 64.297,313.769 64.180,310.083 64.334 " stroke="none" fill="#f45c3c" fill-rule="evenodd"></path><path id="path1" d="M115.911 21.040 C 115.867 21.155,115.850 31.262,115.874 43.500 L 115.917 65.750 121.833 65.750 L 127.750 65.750 127.793 56.958 L 127.836 48.167 136.085 48.167 L 144.333 48.167 144.333 56.550 C 144.333 62.906,144.384 65.042,144.542 65.382 L 144.750 65.831 150.375 65.832 L 156.000 65.833 156.000 43.333 L 156.000 20.833 150.352 20.833 L 144.703 20.833 144.577 21.458 C 144.508 21.802,144.423 25.590,144.389 29.875 L 144.327 37.667 136.082 37.667 L 127.836 37.667 127.793 29.292 L 127.750 20.917 121.871 20.873 C 117.256 20.838,115.974 20.874,115.911 21.040 M291.940 21.458 C 291.807 22.262,291.806 30.464,291.938 30.958 L 292.039 31.333 299.019 31.333 L 306.000 31.333 306.000 46.500 L 306.000 61.667 311.896 61.667 L 317.792 61.667 317.896 61.146 C 317.953 60.859,318.000 54.034,318.000 45.979 L 318.000 31.333 324.667 31.333 L 331.333 31.333 331.333 26.083 L 331.333 20.833 311.688 20.833 L 292.044 20.833 291.940 21.458 M190.042 32.110 C 189.927 32.157,189.833 32.298,189.833 32.425 C 189.833 32.603,189.444 32.666,188.125 32.703 C 186.497 32.748,186.414 32.768,186.363 33.125 C 186.314 33.469,186.223 33.500,185.238 33.500 C 184.278 33.500,184.167 33.535,184.167 33.833 C 184.167 34.111,184.056 34.167,183.500 34.167 C 182.944 34.167,182.833 34.222,182.833 34.500 C 182.833 34.784,182.722 34.833,182.083 34.833 C 181.444 34.833,181.333 34.883,181.333 35.167 C 181.333 35.408,181.222 35.500,180.930 35.500 C 180.309 35.500,180.000 35.672,180.000 36.018 C 180.000 36.227,179.882 36.333,179.651 36.333 C 179.442 36.333,179.267 36.467,179.215 36.667 C 179.167 36.851,178.988 37.000,178.814 37.000 C 178.611 37.000,178.500 37.118,178.500 37.333 C 178.500 37.556,178.389 37.667,178.167 37.667 C 177.951 37.667,177.833 37.778,177.833 37.981 C 177.833 38.154,177.684 38.333,177.500 38.382 C 177.265 38.443,177.167 38.609,177.167 38.945 C 177.167 39.258,177.024 39.528,176.750 39.734 C 176.521 39.906,176.333 40.140,176.333 40.254 C 176.333 40.368,176.183 40.500,176.000 40.548 C 175.758 40.611,175.667 40.776,175.667 41.145 C 175.667 41.484,175.555 41.715,175.333 41.833 C 175.117 41.949,175.000 42.182,175.000 42.496 C 175.000 42.762,174.925 43.027,174.833 43.083 C 174.742 43.140,174.667 43.369,174.667 43.593 C 174.667 43.817,174.592 44.000,174.500 44.000 C 174.408 44.000,174.333 44.413,174.333 44.917 C 174.333 45.421,174.258 45.833,174.167 45.833 C 174.075 45.833,174.000 46.208,174.000 46.667 C 174.000 47.125,173.925 47.500,173.833 47.500 C 173.731 47.500,173.667 48.306,173.667 49.583 C 173.667 50.861,173.731 51.667,173.833 51.667 C 173.925 51.667,174.000 52.037,174.000 52.490 C 174.000 52.943,174.075 53.360,174.167 53.417 C 174.258 53.473,174.333 53.890,174.333 54.342 C 174.333 54.983,174.407 55.210,174.667 55.372 C 174.926 55.534,175.000 55.761,175.000 56.389 C 175.000 57.058,175.058 57.213,175.333 57.285 C 175.517 57.333,175.667 57.495,175.667 57.646 C 175.667 57.797,175.807 58.008,175.979 58.115 C 176.151 58.222,176.342 58.578,176.404 58.905 C 176.486 59.346,176.599 59.500,176.841 59.500 C 177.041 59.500,177.167 59.613,177.167 59.793 C 177.167 59.955,177.317 60.180,177.500 60.295 C 177.713 60.427,177.833 60.683,177.833 61.001 C 177.833 61.367,177.912 61.500,178.127 61.500 C 178.289 61.500,178.495 61.669,178.585 61.875 C 178.706 62.151,178.916 62.264,179.375 62.302 C 179.865 62.342,180.000 62.423,180.000 62.677 C 180.000 62.889,180.115 63.000,180.333 63.000 C 180.556 63.000,180.667 63.111,180.667 63.333 C 180.667 63.556,180.778 63.667,181.000 63.667 C 181.222 63.667,181.333 63.778,181.333 64.000 C 181.333 64.283,181.444 64.333,182.072 64.333 C 182.711 64.333,182.817 64.384,182.863 64.708 C 182.906 65.007,183.040 65.094,183.525 65.134 C 183.961 65.170,184.156 65.276,184.217 65.509 C 184.290 65.786,184.452 65.833,185.318 65.833 C 186.222 65.833,186.333 65.870,186.333 66.167 C 186.333 66.492,186.444 66.500,191.083 66.500 L 195.833 66.500 195.833 71.917 C 195.833 75.417,195.892 77.333,196.000 77.333 C 196.092 77.333,196.167 77.447,196.167 77.586 C 196.167 77.807,196.852 77.832,201.708 77.794 L 207.250 77.750 207.292 55.958 L 207.335 34.167 206.667 34.167 C 206.111 34.167,206.000 34.111,206.000 33.833 C 206.000 33.527,205.889 33.500,204.603 33.500 C 203.384 33.500,203.195 33.461,203.125 33.192 C 203.012 32.759,202.358 32.667,199.415 32.667 C 197.012 32.667,196.867 32.648,196.785 32.333 C 196.701 32.010,190.776 31.814,190.042 32.110 M223.000 32.333 C 222.834 32.644,222.651 32.667,220.341 32.667 C 217.625 32.667,217.333 32.717,217.333 33.184 C 217.333 33.478,217.181 33.500,215.167 33.500 C 213.111 33.500,213.000 33.517,213.000 33.833 C 213.000 34.106,212.889 34.167,212.393 34.167 C 212.011 34.167,211.705 34.275,211.565 34.458 C 211.238 34.890,211.238 65.110,211.565 65.542 C 211.768 65.808,212.229 65.833,216.977 65.833 L 222.167 65.833 222.167 54.583 L 222.167 43.333 225.000 43.333 C 227.722 43.333,227.833 43.346,227.833 43.667 C 227.833 43.882,227.944 44.000,228.147 44.000 C 228.321 44.000,228.500 44.149,228.548 44.333 C 228.596 44.517,228.747 44.667,228.884 44.667 C 229.313 44.667,229.374 45.780,229.480 55.583 C 229.567 63.600,229.622 65.142,229.832 65.458 L 230.080 65.833 235.623 65.833 L 241.167 65.833 241.167 56.734 C 241.167 47.776,241.162 47.634,240.833 47.548 C 240.527 47.468,240.500 47.321,240.500 45.731 C 240.500 44.111,240.521 44.000,240.833 44.000 C 241.056 44.000,241.167 43.889,241.167 43.667 C 241.167 43.348,241.278 43.333,243.667 43.333 C 246.056 43.333,246.167 43.348,246.167 43.667 C 246.167 43.889,246.278 44.000,246.500 44.000 C 246.694 44.000,246.833 44.111,246.833 44.266 C 246.833 44.412,246.983 44.570,247.167 44.618 C 247.427 44.686,247.500 44.846,247.500 45.343 C 247.500 45.694,247.575 46.027,247.667 46.083 C 247.775 46.150,247.835 49.520,247.837 55.635 C 247.840 64.359,247.863 65.112,248.131 65.461 L 248.422 65.838 253.919 65.794 L 259.417 65.750 259.460 54.943 C 259.502 44.245,259.499 44.135,259.168 44.049 C 258.856 43.967,258.833 43.823,258.833 41.965 C 258.833 40.109,258.810 39.963,258.500 39.882 C 258.267 39.821,258.167 39.654,258.167 39.328 C 258.167 38.643,258.005 38.333,257.649 38.333 C 257.392 38.333,257.333 38.210,257.333 37.667 C 257.333 37.111,257.278 37.000,257.000 37.000 C 256.778 37.000,256.667 36.889,256.667 36.667 C 256.667 36.444,256.556 36.333,256.333 36.333 C 256.089 36.333,256.000 36.222,256.000 35.917 C 256.000 35.620,255.910 35.500,255.686 35.500 C 255.512 35.500,255.333 35.351,255.285 35.167 C 255.233 34.967,255.058 34.833,254.849 34.833 C 254.611 34.833,254.500 34.727,254.500 34.500 C 254.500 34.222,254.389 34.167,253.833 34.167 C 253.278 34.167,253.167 34.111,253.167 33.833 C 253.167 33.534,253.056 33.500,252.083 33.500 C 251.132 33.500,251.000 33.462,251.000 33.184 C 251.000 32.734,250.697 32.667,248.672 32.667 C 247.012 32.667,246.865 32.641,246.785 32.333 C 246.703 32.020,246.558 32.000,244.417 32.000 C 242.276 32.000,242.130 32.020,242.048 32.333 C 241.969 32.636,241.821 32.667,240.418 32.667 C 238.472 32.667,237.812 32.795,237.708 33.192 C 237.642 33.447,237.461 33.500,236.658 33.500 C 235.836 33.500,235.673 33.550,235.583 33.833 C 235.501 34.092,235.331 34.167,234.822 34.167 C 234.278 34.167,234.167 34.110,234.167 33.833 C 234.167 33.534,234.056 33.500,233.083 33.500 C 232.132 33.500,232.000 33.462,232.000 33.184 C 232.000 32.746,231.692 32.667,229.986 32.667 C 228.827 32.667,228.500 32.616,228.500 32.434 C 228.500 31.849,223.310 31.753,223.000 32.333 M273.667 32.333 C 273.667 32.647,273.555 32.667,271.792 32.669 C 269.342 32.671,268.667 32.783,268.667 33.188 C 268.667 33.467,268.524 33.500,267.318 33.500 C 266.109 33.500,265.960 33.535,265.882 33.833 C 265.834 34.017,265.680 34.167,265.541 34.167 C 265.207 34.167,264.845 34.656,264.839 35.115 C 264.836 35.316,264.758 35.527,264.667 35.583 C 264.575 35.640,264.500 36.352,264.500 37.167 C 264.500 37.981,264.425 38.693,264.333 38.750 C 264.242 38.807,264.167 39.217,264.167 39.663 C 264.167 40.111,264.084 40.500,263.980 40.534 C 263.877 40.569,263.755 41.135,263.708 41.802 C 263.660 42.466,263.553 43.051,263.469 43.102 C 263.379 43.158,263.382 43.275,263.477 43.390 C 263.565 43.496,263.663 43.808,263.694 44.083 C 263.768 44.742,265.833 44.991,265.833 44.341 C 265.833 44.025,265.934 44.000,267.182 44.000 C 268.391 44.000,268.540 43.965,268.618 43.667 C 268.697 43.365,268.846 43.333,270.172 43.333 C 271.781 43.333,272.167 43.249,272.167 42.899 C 272.167 42.709,272.689 42.667,275.000 42.667 C 277.311 42.667,277.833 42.709,277.833 42.899 C 277.833 43.195,278.198 43.333,278.984 43.333 C 279.441 43.333,279.703 43.444,279.970 43.751 C 280.512 44.375,280.442 44.667,279.750 44.667 C 279.278 44.667,279.167 44.603,279.167 44.333 C 279.167 44.011,279.056 44.000,275.734 44.000 C 272.442 44.000,272.299 44.014,272.215 44.333 C 272.136 44.635,271.988 44.667,270.661 44.667 C 269.053 44.667,268.667 44.751,268.667 45.101 C 268.667 45.236,268.497 45.333,268.264 45.333 C 267.642 45.333,267.333 45.505,267.333 45.851 C 267.333 46.114,267.208 46.167,266.583 46.167 C 265.944 46.167,265.833 46.216,265.833 46.500 C 265.833 46.778,265.722 46.833,265.167 46.833 C 264.611 46.833,264.500 46.889,264.500 47.167 C 264.500 47.389,264.389 47.500,264.167 47.500 C 263.979 47.500,263.833 47.611,263.833 47.754 C 263.833 47.893,263.646 48.093,263.417 48.197 C 263.188 48.301,263.000 48.525,263.000 48.693 C 263.000 48.889,262.879 49.000,262.667 49.000 C 262.408 49.000,262.333 49.111,262.333 49.499 C 262.333 49.817,262.213 50.073,262.000 50.205 C 261.800 50.330,261.667 50.594,261.667 50.864 C 261.667 51.111,261.592 51.360,261.500 51.417 C 261.408 51.473,261.333 51.740,261.333 52.010 C 261.333 52.279,261.258 52.500,261.167 52.500 C 261.072 52.500,261.000 52.993,261.000 53.646 C 261.000 54.462,260.928 54.852,260.750 55.000 C 260.612 55.114,260.500 55.377,260.500 55.583 C 260.500 55.790,260.612 56.053,260.750 56.167 C 260.931 56.317,261.000 56.714,261.000 57.604 C 261.000 58.312,261.071 58.833,261.167 58.833 C 261.258 58.833,261.333 59.016,261.333 59.240 C 261.333 59.464,261.408 59.693,261.500 59.750 C 261.592 59.807,261.667 60.074,261.667 60.343 C 261.667 60.722,261.742 60.833,262.000 60.833 C 262.220 60.833,262.333 60.944,262.333 61.161 C 262.333 61.341,262.483 61.569,262.667 61.667 C 262.850 61.765,263.000 61.986,263.000 62.159 C 263.000 62.693,263.189 63.000,263.518 63.000 C 263.722 63.000,263.833 63.117,263.833 63.333 C 263.833 63.611,263.944 63.667,264.500 63.667 C 265.056 63.667,265.167 63.722,265.167 64.000 C 265.167 64.218,265.278 64.333,265.488 64.333 C 265.695 64.333,265.829 64.467,265.863 64.708 C 265.954 65.344,271.273 65.502,272.597 64.908 C 272.880 64.781,273.855 64.626,274.764 64.563 C 275.716 64.497,276.570 64.349,276.779 64.213 C 277.009 64.064,277.833 63.944,279.029 63.884 C 280.087 63.831,281.173 63.683,281.500 63.547 C 281.858 63.398,283.052 63.255,284.591 63.176 C 285.970 63.106,287.266 62.958,287.472 62.848 C 287.754 62.697,290.531 62.362,291.708 62.336 C 292.053 62.329,291.845 42.667,291.500 42.667 C 291.193 42.667,291.167 42.556,291.167 41.250 C 291.167 39.944,291.141 39.833,290.833 39.833 C 290.554 39.833,290.500 39.722,290.500 39.151 C 290.500 38.609,290.432 38.451,290.167 38.382 C 289.955 38.326,289.833 38.154,289.833 37.911 C 289.833 37.308,289.658 37.000,289.316 37.000 C 289.111 37.000,289.000 36.883,289.000 36.667 C 289.000 36.444,288.889 36.333,288.667 36.333 C 288.439 36.333,288.333 36.222,288.333 35.984 C 288.333 35.781,288.200 35.601,288.015 35.552 C 287.841 35.507,287.660 35.326,287.614 35.151 C 287.553 34.915,287.382 34.833,286.952 34.833 C 286.512 34.833,286.351 34.753,286.285 34.500 C 286.216 34.235,286.058 34.167,285.516 34.167 C 284.944 34.167,284.833 34.112,284.833 33.833 C 284.833 33.557,284.722 33.500,284.178 33.500 C 283.683 33.500,283.498 33.423,283.423 33.187 C 283.296 32.785,282.684 32.667,280.749 32.667 C 279.346 32.667,279.198 32.636,279.118 32.333 C 279.036 32.017,278.891 32.000,276.349 32.000 C 273.778 32.000,273.667 32.014,273.667 32.333 M376.548 32.333 C 376.466 32.648,376.321 32.667,373.911 32.667 C 371.123 32.667,370.833 32.715,370.833 33.184 C 370.833 33.474,370.689 33.500,369.083 33.500 C 367.444 33.500,367.333 33.521,367.333 33.833 C 367.333 34.078,367.222 34.167,366.916 34.167 L 366.499 34.167 366.541 55.958 L 366.583 77.750 372.167 77.750 L 377.750 77.750 377.794 72.125 L 377.838 66.500 382.684 66.500 C 387.391 66.500,387.534 66.490,387.618 66.167 C 387.692 65.886,387.846 65.833,388.593 65.833 C 389.267 65.833,389.534 65.759,389.699 65.525 C 389.819 65.356,390.198 65.165,390.542 65.101 C 391.011 65.014,391.167 64.904,391.167 64.659 C 391.167 64.444,391.280 64.333,391.500 64.333 C 391.722 64.333,391.833 64.222,391.833 64.000 C 391.833 63.721,391.944 63.667,392.516 63.667 C 393.058 63.667,393.216 63.598,393.285 63.333 C 393.333 63.149,393.512 63.000,393.686 63.000 C 393.889 63.000,394.000 62.882,394.000 62.667 C 394.000 62.444,394.111 62.333,394.333 62.333 C 394.556 62.333,394.667 62.222,394.667 62.000 C 394.667 61.784,394.778 61.667,394.982 61.667 C 395.179 61.667,395.336 61.511,395.402 61.250 C 395.469 60.981,395.623 60.833,395.837 60.833 C 396.056 60.833,396.167 60.721,396.167 60.500 C 396.167 60.278,396.278 60.167,396.500 60.167 C 396.778 60.167,396.833 60.056,396.833 59.500 C 396.833 58.944,396.889 58.833,397.167 58.833 C 397.411 58.833,397.500 58.722,397.500 58.417 C 397.500 58.111,397.589 58.000,397.833 58.000 C 398.129 58.000,398.167 57.889,398.167 57.012 C 398.167 56.113,398.201 56.018,398.542 55.970 C 398.852 55.926,398.925 55.797,398.967 55.225 C 399.005 54.706,399.098 54.513,399.342 54.449 C 399.856 54.315,399.848 44.850,399.333 44.715 C 399.048 44.640,399.000 44.488,399.000 43.647 C 399.000 42.712,398.981 42.667,398.583 42.667 C 398.201 42.667,398.167 42.606,398.167 41.917 C 398.167 41.278,398.117 41.167,397.833 41.167 C 397.556 41.167,397.500 41.056,397.500 40.500 C 397.500 39.944,397.444 39.833,397.167 39.833 C 396.939 39.833,396.833 39.722,396.833 39.484 C 396.833 39.276,396.699 39.100,396.500 39.048 C 396.288 38.993,396.167 38.821,396.167 38.578 C 396.167 37.975,395.991 37.667,395.649 37.667 C 395.444 37.667,395.333 37.549,395.333 37.333 C 395.333 37.056,395.222 37.000,394.667 37.000 C 394.111 37.000,394.000 36.944,394.000 36.667 C 394.000 36.444,393.889 36.333,393.667 36.333 C 393.439 36.333,393.333 36.222,393.333 35.984 C 393.333 35.778,393.200 35.601,393.006 35.550 C 392.825 35.503,392.633 35.322,392.578 35.149 C 392.502 34.910,392.319 34.833,391.822 34.833 C 391.278 34.833,391.167 34.777,391.167 34.500 C 391.167 34.224,391.056 34.167,390.519 34.167 C 390.012 34.167,389.853 34.094,389.785 33.833 C 389.710 33.546,389.558 33.500,388.682 33.500 C 387.799 33.500,387.667 33.459,387.667 33.186 C 387.667 32.762,387.237 32.672,385.220 32.669 C 383.670 32.667,383.513 32.638,383.417 32.333 C 383.316 32.015,383.164 32.000,379.973 32.000 C 376.776 32.000,376.632 32.014,376.548 32.333 M337.458 32.786 C 337.140 32.834,337.000 32.954,337.000 33.178 C 337.000 33.485,336.853 33.500,333.833 33.500 C 330.778 33.500,330.667 33.512,330.667 33.833 C 330.667 34.132,330.556 34.167,329.583 34.167 L 328.500 34.167 328.500 48.231 L 328.500 62.296 330.208 62.497 C 331.148 62.608,332.238 62.804,332.631 62.933 C 333.024 63.061,333.924 63.168,334.631 63.169 C 335.338 63.171,336.367 63.295,336.917 63.445 C 338.157 63.784,339.479 63.802,339.681 63.482 C 339.762 63.355,339.829 58.919,339.831 53.625 L 339.833 44.000 340.500 44.000 C 341.054 44.000,341.167 43.944,341.167 43.670 C 341.167 43.350,341.305 43.338,345.375 43.295 L 349.583 43.250 349.583 38.091 L 349.583 32.932 349.167 32.816 C 348.727 32.694,338.245 32.667,337.458 32.786 M161.000 49.667 L 161.000 65.833 166.583 65.833 L 172.167 65.833 172.167 49.667 L 172.167 33.500 166.583 33.500 L 161.000 33.500 161.000 49.667 M351.077 33.708 C 351.033 33.823,351.017 41.079,351.040 49.833 L 351.083 65.750 356.708 65.794 L 362.333 65.838 362.333 49.669 L 362.333 33.500 356.745 33.500 C 352.427 33.500,351.138 33.547,351.077 33.708 M195.833 49.262 C 195.833 56.095,195.938 55.667,194.272 55.667 C 193.675 55.667,193.140 55.742,193.083 55.833 C 193.027 55.925,192.797 56.000,192.573 56.000 C 192.350 56.000,192.167 55.925,192.167 55.833 C 192.167 55.742,191.792 55.667,191.333 55.667 C 190.875 55.667,190.500 55.592,190.500 55.500 C 190.500 55.408,190.105 55.333,189.623 55.333 C 188.882 55.333,188.697 55.269,188.433 54.917 C 188.261 54.688,188.027 54.500,187.913 54.500 C 187.799 54.500,187.666 54.350,187.618 54.167 C 187.570 53.983,187.412 53.833,187.266 53.833 C 187.120 53.833,187.000 53.714,187.000 53.568 C 187.000 53.422,186.857 53.265,186.682 53.219 C 186.507 53.173,186.327 52.993,186.281 52.818 C 186.233 52.633,186.052 52.500,185.849 52.500 C 185.508 52.500,185.500 52.431,185.500 49.667 C 185.500 46.998,185.518 46.833,185.816 46.833 C 186.175 46.833,186.333 46.523,186.333 45.820 C 186.333 45.444,186.409 45.333,186.667 45.333 C 186.889 45.333,187.000 45.222,187.000 45.000 C 187.000 44.729,187.111 44.667,187.599 44.667 C 188.058 44.667,188.218 44.589,188.285 44.333 C 188.353 44.073,188.512 44.000,189.008 44.000 C 189.498 44.000,189.669 43.923,189.750 43.667 C 189.851 43.350,190.002 43.333,192.845 43.333 L 195.833 43.333 195.833 49.262 M384.167 43.667 C 384.167 43.943,384.278 44.000,384.814 44.000 C 385.321 44.000,385.480 44.072,385.548 44.333 C 385.600 44.533,385.776 44.667,385.984 44.667 C 386.222 44.667,386.333 44.773,386.333 45.000 C 386.333 45.222,386.444 45.333,386.667 45.333 C 386.909 45.333,387.000 45.444,387.000 45.739 C 387.000 45.998,387.120 46.182,387.333 46.250 C 387.581 46.329,387.667 46.502,387.667 46.928 C 387.667 47.243,387.742 47.500,387.833 47.500 C 387.936 47.500,388.000 48.302,388.000 49.573 C 388.000 50.776,387.930 51.690,387.833 51.750 C 387.742 51.807,387.667 52.048,387.667 52.285 C 387.667 53.123,385.200 55.333,384.265 55.333 C 383.844 55.333,383.500 55.408,383.500 55.500 C 383.500 55.594,383.027 55.667,382.414 55.667 C 381.817 55.667,381.180 55.760,380.998 55.873 C 380.734 56.038,380.599 56.038,380.336 55.873 C 380.154 55.760,379.516 55.667,378.919 55.667 L 377.833 55.667 377.833 49.500 L 377.833 43.333 381.000 43.333 C 384.056 43.333,384.167 43.345,384.167 43.667 M279.382 52.833 C 279.441 53.059,279.609 53.167,279.901 53.167 L 280.333 53.167 280.333 54.917 L 280.333 56.667 279.510 56.667 C 279.057 56.667,278.640 56.742,278.583 56.833 C 278.527 56.925,277.852 57.000,277.083 57.000 C 276.315 57.000,275.640 56.925,275.583 56.833 C 275.527 56.742,275.112 56.667,274.663 56.667 C 274.016 56.667,273.808 56.597,273.667 56.333 C 273.569 56.150,273.341 56.000,273.161 56.000 C 272.944 56.000,272.833 55.887,272.833 55.667 C 272.833 55.444,272.722 55.333,272.500 55.333 C 272.256 55.333,272.167 55.222,272.167 54.917 C 272.167 54.611,272.256 54.500,272.500 54.500 C 272.778 54.500,272.833 54.389,272.833 53.833 L 272.833 53.167 273.849 53.167 C 274.724 53.167,274.877 53.121,274.952 52.833 C 275.033 52.522,275.179 52.500,277.167 52.500 C 279.154 52.500,279.300 52.522,279.382 52.833 M355.107 83.250 C 354.954 83.403,354.545 83.500,354.052 83.500 C 353.427 83.500,353.200 83.575,353.039 83.833 C 352.906 84.046,352.650 84.167,352.332 84.167 C 351.944 84.167,351.833 84.241,351.833 84.500 C 351.833 84.727,351.722 84.833,351.484 84.833 C 351.281 84.833,351.101 84.966,351.052 85.151 C 351.007 85.326,350.826 85.507,350.651 85.552 C 350.425 85.611,350.333 85.784,350.333 86.150 C 350.333 86.483,350.216 86.737,350.000 86.872 C 349.798 86.998,349.667 87.261,349.667 87.539 C 349.667 87.817,349.535 88.079,349.333 88.205 C 349.069 88.371,349.000 88.594,349.000 89.290 C 349.000 89.772,348.925 90.167,348.833 90.167 C 348.732 90.167,348.667 90.941,348.667 92.157 C 348.667 93.304,348.737 94.191,348.833 94.250 C 349.236 94.499,349.023 95.458,348.583 95.374 C 348.315 95.323,348.167 95.183,348.167 94.981 C 348.167 94.778,348.049 94.667,347.833 94.667 C 347.611 94.667,347.500 94.556,347.500 94.333 C 347.500 94.022,347.389 94.000,345.846 94.000 L 344.193 94.000 343.430 94.763 C 342.872 95.321,342.667 95.657,342.667 96.013 C 342.667 96.281,342.592 96.500,342.500 96.500 C 342.407 96.500,342.333 96.944,342.333 97.500 C 342.333 98.056,342.407 98.500,342.500 98.500 C 342.592 98.500,342.667 98.763,342.667 99.083 C 342.667 99.556,342.730 99.667,343.000 99.667 C 343.222 99.667,343.333 99.778,343.333 100.000 C 343.333 100.222,343.444 100.333,343.667 100.333 C 343.850 100.333,344.000 100.408,344.000 100.500 C 344.000 100.601,344.694 100.667,345.750 100.667 C 346.806 100.667,347.500 100.601,347.500 100.500 C 347.500 100.408,347.650 100.333,347.833 100.333 C 348.052 100.333,348.167 100.222,348.167 100.012 C 348.167 99.805,348.301 99.671,348.542 99.637 C 348.901 99.586,348.919 99.506,348.964 97.794 C 349.010 96.061,349.022 96.011,349.339 96.209 C 349.592 96.367,349.667 96.599,349.667 97.222 C 349.667 97.891,349.724 98.046,350.000 98.118 C 350.184 98.167,350.333 98.346,350.333 98.519 C 350.333 98.718,350.451 98.833,350.655 98.833 C 350.862 98.833,350.996 98.967,351.030 99.208 C 351.064 99.449,351.217 99.602,351.458 99.637 C 351.699 99.671,351.833 99.805,351.833 100.012 C 351.833 100.294,351.956 100.333,352.833 100.333 C 353.389 100.333,353.833 100.407,353.833 100.500 C 353.833 100.605,354.889 100.667,356.667 100.667 C 358.444 100.667,359.500 100.605,359.500 100.500 C 359.500 100.408,359.800 100.333,360.167 100.333 C 360.722 100.333,360.833 100.278,360.833 100.000 C 360.833 99.753,360.944 99.667,361.261 99.667 C 362.000 99.667,362.333 99.380,362.333 98.744 C 362.333 98.278,362.397 98.167,362.667 98.167 C 362.889 98.167,363.000 98.278,363.000 98.500 C 363.000 98.716,363.111 98.833,363.315 98.833 C 363.513 98.833,363.670 98.989,363.735 99.250 C 363.803 99.519,363.957 99.667,364.170 99.667 C 364.389 99.667,364.500 99.779,364.500 100.000 C 364.500 100.296,364.611 100.333,365.500 100.333 C 366.056 100.333,366.500 100.407,366.500 100.500 C 366.500 100.605,367.556 100.667,369.333 100.667 C 371.111 100.667,372.167 100.605,372.167 100.500 C 372.167 100.408,372.575 100.333,373.074 100.333 C 373.759 100.333,374.034 100.259,374.199 100.031 C 374.319 99.864,374.548 99.679,374.708 99.619 C 374.869 99.559,375.000 99.358,375.000 99.172 C 375.000 98.944,375.109 98.833,375.333 98.833 C 375.556 98.833,375.667 98.722,375.667 98.500 C 375.667 98.278,375.778 98.167,376.000 98.167 C 376.278 98.167,376.333 98.056,376.333 97.500 C 376.333 97.019,376.403 96.833,376.583 96.833 C 376.787 96.833,376.833 97.110,376.833 98.323 C 376.833 99.143,376.908 99.860,377.000 99.917 C 377.092 99.973,377.167 100.165,377.167 100.343 C 377.167 100.649,377.302 100.667,379.583 100.667 C 381.083 100.667,382.000 100.603,382.000 100.500 C 382.000 100.408,382.150 100.333,382.333 100.333 C 382.660 100.333,382.667 100.222,382.667 94.667 C 382.667 89.027,382.668 89.000,383.016 89.000 C 383.224 89.000,383.400 88.866,383.452 88.667 C 383.567 88.226,385.234 88.167,385.399 88.597 C 385.454 88.742,385.500 91.323,385.500 94.333 C 385.500 100.111,385.519 100.333,386.018 100.333 C 386.191 100.333,386.333 100.408,386.333 100.500 C 386.333 100.603,387.250 100.667,388.750 100.667 L 391.167 100.667 391.167 95.167 C 391.167 89.778,391.173 89.667,391.500 89.667 C 391.778 89.667,391.833 89.556,391.833 89.000 L 391.833 88.333 393.083 88.333 C 394.277 88.333,394.333 88.351,394.333 88.717 C 394.333 88.927,394.407 89.174,394.498 89.264 C 394.597 89.364,394.679 91.568,394.706 94.839 L 394.750 100.250 395.125 100.303 C 395.331 100.333,395.500 100.426,395.500 100.512 C 395.500 100.600,396.473 100.667,397.750 100.667 L 400.000 100.667 400.000 93.417 C 400.000 88.694,399.942 86.167,399.833 86.167 C 399.742 86.167,399.667 85.867,399.667 85.500 C 399.667 84.944,399.611 84.833,399.333 84.833 C 399.111 84.833,399.000 84.722,399.000 84.500 C 399.000 84.256,398.889 84.167,398.583 84.167 C 398.278 84.167,398.167 84.078,398.167 83.833 C 398.167 83.577,398.056 83.500,397.687 83.500 C 397.423 83.500,397.114 83.387,397.000 83.250 C 396.840 83.057,396.398 83.000,395.075 83.000 C 393.770 83.000,393.297 83.060,393.107 83.250 C 392.956 83.401,392.549 83.500,392.080 83.500 C 391.442 83.500,391.286 83.560,391.215 83.833 C 391.081 84.346,389.601 84.335,389.152 83.817 C 389.001 83.643,388.689 83.500,388.459 83.500 C 388.229 83.500,387.947 83.387,387.833 83.250 C 387.680 83.065,387.270 83.000,386.250 83.000 C 385.230 83.000,384.820 83.065,384.667 83.250 C 384.534 83.410,384.166 83.500,383.648 83.500 C 383.017 83.500,382.790 83.574,382.628 83.833 C 382.513 84.017,382.325 84.167,382.210 84.167 C 382.094 84.167,382.000 84.017,382.000 83.833 C 382.000 83.515,381.889 83.500,379.583 83.500 L 377.167 83.500 377.167 83.990 C 377.167 84.260,377.092 84.527,377.000 84.583 C 376.908 84.640,376.833 85.207,376.833 85.843 C 376.833 86.760,376.782 87.000,376.583 87.000 C 376.402 87.000,376.333 86.813,376.333 86.318 C 376.333 85.776,376.265 85.618,376.000 85.548 C 375.816 85.500,375.667 85.321,375.667 85.147 C 375.667 84.944,375.549 84.833,375.333 84.833 C 375.111 84.833,375.000 84.722,375.000 84.500 C 375.000 84.245,374.889 84.167,374.526 84.167 C 374.263 84.167,373.917 84.018,373.750 83.833 C 373.529 83.590,373.237 83.500,372.661 83.500 C 372.165 83.500,371.797 83.408,371.667 83.250 C 371.502 83.052,371.020 83.000,369.333 83.000 C 367.647 83.000,367.165 83.052,367.000 83.250 C 366.886 83.387,366.595 83.500,366.353 83.500 C 366.094 83.500,365.828 83.637,365.705 83.833 C 365.588 84.022,365.317 84.167,365.082 84.167 C 364.816 84.167,364.433 84.407,364.019 84.833 C 363.338 85.535,362.333 85.788,362.333 85.258 C 362.333 84.905,361.539 84.167,361.159 84.167 C 360.944 84.167,360.833 84.053,360.833 83.833 C 360.833 83.546,360.722 83.500,360.020 83.500 C 359.501 83.500,359.133 83.410,359.000 83.250 C 358.840 83.057,358.398 83.000,357.075 83.000 C 355.770 83.000,355.297 83.060,355.107 83.250 M362.333 87.832 C 362.333 87.923,362.183 88.091,362.000 88.205 C 361.717 88.382,361.667 88.594,361.667 89.614 C 361.667 90.274,361.592 90.860,361.500 90.917 C 361.408 90.973,361.333 91.573,361.333 92.250 C 361.333 92.927,361.408 93.527,361.500 93.583 C 361.592 93.640,361.667 94.175,361.667 94.772 C 361.667 95.758,361.643 95.833,361.405 95.595 C 361.261 95.451,360.999 95.333,360.823 95.333 C 360.647 95.333,360.409 95.183,360.295 95.000 C 359.968 94.477,359.107 94.558,358.525 95.167 C 358.262 95.442,357.896 95.667,357.711 95.667 C 357.526 95.667,357.281 95.779,357.167 95.917 C 356.856 96.291,356.375 96.219,356.068 95.750 C 355.918 95.521,355.700 95.333,355.584 95.333 C 355.467 95.333,355.333 95.183,355.285 95.000 C 355.233 94.801,355.058 94.667,354.849 94.667 C 354.280 94.667,354.306 89.717,354.875 89.637 C 355.175 89.594,355.260 89.460,355.301 88.967 C 355.351 88.373,355.377 88.350,356.051 88.301 C 357.418 88.201,358.167 88.337,358.167 88.683 C 358.167 88.968,358.301 89.000,359.500 89.000 C 360.722 89.000,360.833 88.972,360.833 88.667 C 360.833 88.439,360.944 88.333,361.182 88.333 C 361.391 88.333,361.566 88.199,361.618 88.000 C 361.706 87.667,362.333 87.519,362.333 87.832 M370.048 88.000 C 370.100 88.199,370.276 88.333,370.484 88.333 C 370.722 88.333,370.833 88.439,370.833 88.667 C 370.833 88.850,370.908 89.000,371.000 89.000 C 371.092 89.000,371.167 89.225,371.167 89.500 C 371.167 89.775,371.242 90.000,371.333 90.000 C 371.436 90.000,371.500 90.830,371.500 92.157 C 371.500 93.415,371.431 94.357,371.333 94.417 C 371.242 94.473,371.167 94.703,371.167 94.927 C 371.167 95.150,371.092 95.333,371.000 95.333 C 370.908 95.333,370.833 95.414,370.833 95.512 C 370.833 95.917,370.329 96.167,369.512 96.167 C 368.778 96.167,368.667 96.123,368.667 95.833 C 368.667 95.646,368.556 95.500,368.413 95.500 C 368.273 95.500,368.087 95.313,368.000 95.083 C 367.913 94.854,367.727 94.667,367.587 94.667 C 367.139 94.667,367.216 89.736,367.667 89.618 C 367.922 89.552,368.000 89.391,368.000 88.932 C 368.000 88.444,368.062 88.333,368.333 88.333 C 368.556 88.333,368.667 88.222,368.667 88.000 C 368.667 87.724,368.778 87.667,369.314 87.667 C 369.821 87.667,369.980 87.739,370.048 88.000 " stroke="none" fill="#1c144c" fill-rule="evenodd"></path><path id="path2" d="M67.889 33.978 C 67.508 34.046,67.095 34.182,66.973 34.281 C 66.850 34.379,66.572 34.514,66.355 34.580 C 66.138 34.647,65.651 34.921,65.272 35.190 C 64.893 35.458,64.397 35.806,64.169 35.964 C 63.942 36.121,63.632 36.362,63.481 36.500 C 63.095 36.851,62.417 37.357,60.242 38.917 C 59.730 39.283,58.734 40.033,58.028 40.583 C 57.322 41.133,56.411 41.808,56.003 42.083 C 55.595 42.358,55.127 42.715,54.964 42.875 C 54.800 43.035,54.498 43.165,54.292 43.164 C 53.209 43.156,49.980 42.817,49.595 42.671 C 49.350 42.578,48.091 42.422,46.796 42.325 C 45.502 42.227,44.311 42.077,44.151 41.991 C 43.990 41.906,42.859 41.762,41.638 41.672 C 40.416 41.583,39.164 41.435,38.854 41.344 C 38.545 41.253,37.345 41.096,36.188 40.995 C 35.030 40.894,33.521 40.705,32.833 40.574 C 32.146 40.444,30.758 40.264,29.750 40.174 C 28.742 40.085,27.417 39.920,26.807 39.808 C 23.765 39.250,19.544 42.645,22.292 43.440 C 22.660 43.547,23.139 43.732,23.356 43.852 C 23.841 44.119,25.156 44.607,26.195 44.906 C 26.624 45.029,27.147 45.251,27.358 45.398 C 27.568 45.546,27.881 45.667,28.053 45.667 C 28.225 45.667,28.564 45.778,28.808 45.914 C 29.051 46.051,29.569 46.276,29.958 46.414 C 30.348 46.553,30.985 46.780,31.375 46.919 C 31.765 47.058,32.271 47.274,32.500 47.400 C 32.729 47.525,33.179 47.683,33.500 47.750 C 33.821 47.817,34.166 47.938,34.268 48.020 C 34.369 48.101,34.857 48.309,35.351 48.482 C 35.846 48.654,36.512 48.887,36.833 48.999 C 37.154 49.111,37.694 49.345,38.033 49.518 C 38.372 49.692,38.747 49.834,38.866 49.834 C 38.986 49.835,39.296 49.946,39.556 50.082 C 39.815 50.217,40.340 50.411,40.722 50.513 C 41.104 50.614,41.529 50.797,41.667 50.918 C 41.804 51.039,42.217 51.191,42.583 51.256 C 42.950 51.321,43.490 51.519,43.784 51.696 C 44.237 51.969,44.616 52.015,46.284 52.000 C 47.365 51.990,48.344 51.986,48.458 51.991 C 48.947 52.012,48.580 52.628,47.292 53.946 C 46.535 54.719,43.854 57.451,41.333 60.017 C 36.373 65.065,31.958 69.710,31.870 69.974 C 31.762 70.297,33.377 72.334,33.739 72.330 C 33.929 72.328,34.575 71.862,35.184 71.288 C 35.789 70.717,36.914 69.678,37.684 68.978 C 38.454 68.279,39.355 67.454,39.687 67.145 C 40.019 66.836,40.795 66.133,41.413 65.583 C 42.031 65.033,42.851 64.283,43.237 63.917 C 43.622 63.550,44.233 62.990,44.594 62.673 C 44.955 62.356,45.852 61.531,46.588 60.840 C 47.323 60.149,48.419 59.153,49.022 58.626 C 49.625 58.100,50.490 57.312,50.945 56.876 C 51.796 56.059,52.497 55.419,55.500 52.717 C 56.462 51.851,57.700 50.719,58.250 50.201 C 58.800 49.684,60.038 48.552,61.000 47.687 C 61.962 46.822,62.950 45.908,63.194 45.656 C 63.439 45.405,64.125 44.786,64.719 44.282 C 65.313 43.778,66.098 43.078,66.463 42.725 C 66.828 42.372,67.789 41.483,68.597 40.750 C 69.406 40.017,70.680 38.854,71.427 38.167 C 72.174 37.479,73.125 36.617,73.541 36.250 L 74.298 35.583 73.779 35.119 C 73.493 34.864,73.070 34.608,72.838 34.551 C 72.606 34.494,72.245 34.336,72.035 34.200 C 71.599 33.918,69.006 33.779,67.889 33.978 M298.774 61.417 C 298.573 61.617,298.013 61.667,295.929 61.667 C 294.310 61.667,293.333 61.729,293.333 61.833 C 293.333 61.925,293.004 62.000,292.601 62.000 C 292.122 62.000,291.838 62.082,291.778 62.237 C 291.501 62.960,290.341 63.293,287.454 63.479 C 285.917 63.578,284.523 63.732,284.358 63.820 C 284.192 63.909,283.088 64.055,281.903 64.144 C 280.719 64.234,279.546 64.385,279.296 64.481 C 279.046 64.577,277.996 64.740,276.963 64.844 C 275.929 64.948,274.746 65.148,274.333 65.288 C 273.166 65.686,268.209 65.805,268.069 65.438 C 267.956 65.146,267.333 65.057,267.333 65.333 C 267.333 65.425,267.113 65.500,266.843 65.500 C 266.574 65.500,266.307 65.575,266.250 65.667 C 266.193 65.758,265.631 65.833,265.000 65.833 C 264.369 65.833,263.807 65.908,263.750 66.000 C 263.693 66.092,263.468 66.167,263.250 66.167 C 263.032 66.167,262.807 66.242,262.750 66.333 C 262.693 66.425,262.230 66.500,261.720 66.500 C 261.211 66.500,260.334 66.645,259.772 66.823 C 259.210 67.001,258.300 67.238,257.750 67.350 C 257.200 67.463,256.632 67.655,256.487 67.778 C 256.342 67.900,255.878 68.000,255.455 68.000 C 255.032 68.000,254.640 68.075,254.583 68.167 C 254.527 68.258,254.302 68.333,254.083 68.333 C 253.865 68.333,253.640 68.408,253.583 68.500 C 253.527 68.592,253.110 68.667,252.657 68.667 C 252.204 68.667,251.833 68.742,251.833 68.833 C 251.833 68.925,251.608 69.000,251.333 69.000 C 251.058 69.000,250.833 69.075,250.833 69.167 C 250.833 69.258,250.421 69.333,249.917 69.333 C 249.412 69.333,249.000 69.408,249.000 69.500 C 249.000 69.592,248.817 69.667,248.593 69.667 C 248.369 69.667,248.140 69.742,248.083 69.833 C 248.027 69.925,247.653 70.000,247.252 70.000 C 246.852 70.000,246.423 70.101,246.300 70.224 C 245.889 70.635,245.361 70.833,244.678 70.833 C 244.305 70.833,244.000 70.908,244.000 71.000 C 244.000 71.092,243.817 71.167,243.593 71.167 C 243.369 71.167,243.140 71.242,243.083 71.333 C 243.027 71.425,242.621 71.500,242.183 71.500 C 241.597 71.500,241.305 71.588,241.083 71.833 C 240.865 72.075,240.570 72.167,240.014 72.167 C 239.427 72.167,239.198 72.245,239.039 72.500 C 238.872 72.768,238.650 72.833,237.915 72.833 C 237.412 72.833,237.000 72.908,237.000 73.000 C 237.000 73.092,236.817 73.167,236.593 73.167 C 236.369 73.167,236.140 73.242,236.083 73.333 C 236.027 73.425,235.757 73.500,235.485 73.500 C 235.198 73.500,234.949 73.605,234.894 73.750 C 234.841 73.887,234.623 74.000,234.409 74.000 C 234.195 74.000,233.973 74.075,233.917 74.167 C 233.860 74.258,233.455 74.333,233.016 74.333 C 232.430 74.333,232.138 74.422,231.917 74.667 C 231.698 74.908,231.403 75.000,230.848 75.000 C 230.261 75.000,230.031 75.078,229.872 75.333 C 229.728 75.563,229.483 75.667,229.082 75.667 C 228.762 75.667,228.500 75.742,228.500 75.833 C 228.500 75.925,228.317 76.000,228.093 76.000 C 227.869 76.000,227.640 76.075,227.583 76.167 C 227.527 76.258,227.268 76.333,227.009 76.333 C 226.691 76.333,226.450 76.468,226.265 76.750 C 226.038 77.097,225.861 77.167,225.203 77.167 C 224.594 77.167,224.366 77.243,224.205 77.500 C 224.044 77.759,223.817 77.833,223.191 77.833 C 222.597 77.833,222.306 77.921,222.083 78.167 C 221.916 78.351,221.570 78.500,221.308 78.500 C 221.047 78.500,220.833 78.575,220.833 78.667 C 220.833 78.758,220.650 78.833,220.427 78.833 C 220.203 78.833,219.973 78.908,219.917 79.000 C 219.860 79.092,219.556 79.167,219.240 79.167 C 218.853 79.167,218.667 79.244,218.667 79.405 C 218.667 79.665,218.449 79.752,217.390 79.917 C 217.008 79.976,216.566 80.169,216.406 80.345 C 216.246 80.522,215.920 80.667,215.681 80.667 C 215.427 80.667,215.160 80.805,215.039 81.000 C 214.877 81.259,214.650 81.333,214.024 81.333 C 213.430 81.333,213.139 81.421,212.917 81.667 C 212.751 81.850,212.420 82.000,212.181 82.000 C 211.927 82.000,211.660 82.139,211.539 82.333 C 211.409 82.541,211.150 82.667,210.851 82.667 C 210.524 82.667,210.285 82.799,210.099 83.083 C 209.871 83.431,209.695 83.500,209.033 83.500 C 208.431 83.500,208.182 83.580,208.000 83.833 C 207.850 84.041,207.569 84.167,207.253 84.167 C 206.927 84.167,206.673 84.285,206.539 84.500 C 206.412 84.702,206.150 84.833,205.872 84.833 C 205.594 84.833,205.332 84.965,205.205 85.167 C 205.049 85.417,204.817 85.500,204.274 85.500 C 203.787 85.500,203.424 85.610,203.161 85.838 C 202.947 86.024,202.579 86.223,202.344 86.281 C 202.109 86.339,201.795 86.525,201.647 86.693 C 201.499 86.862,201.161 87.000,200.896 87.000 C 200.594 87.000,200.336 87.125,200.205 87.333 C 200.079 87.535,199.817 87.667,199.539 87.667 C 199.261 87.667,198.998 87.798,198.872 88.000 C 198.731 88.226,198.483 88.333,198.101 88.333 C 197.679 88.333,197.517 88.416,197.452 88.667 C 197.385 88.922,197.224 89.000,196.766 89.000 C 196.436 89.000,196.167 89.080,196.167 89.179 C 196.167 89.508,195.695 89.833,195.219 89.833 C 194.927 89.833,194.667 89.961,194.539 90.167 C 194.412 90.369,194.150 90.500,193.872 90.500 C 193.594 90.500,193.332 90.631,193.205 90.833 C 193.073 91.046,192.817 91.167,192.499 91.167 C 192.028 91.167,192.000 91.204,192.000 91.833 L 192.000 92.500 197.760 92.500 C 204.155 92.500,204.106 92.507,206.583 91.328 C 207.317 90.979,208.329 90.508,208.833 90.281 C 209.338 90.055,210.092 89.711,210.511 89.518 C 210.929 89.325,211.352 89.167,211.449 89.167 C 211.546 89.167,211.713 89.062,211.820 88.933 C 211.926 88.805,212.211 88.650,212.452 88.589 C 212.693 88.529,213.075 88.334,213.301 88.156 C 213.527 87.979,213.896 87.833,214.121 87.833 C 214.346 87.833,214.721 87.683,214.955 87.500 C 215.188 87.317,215.484 87.167,215.613 87.167 C 215.741 87.167,216.050 87.024,216.298 86.849 C 216.547 86.674,217.024 86.485,217.358 86.428 C 217.693 86.371,218.058 86.214,218.170 86.079 C 218.282 85.944,218.462 85.833,218.569 85.833 C 218.675 85.833,219.049 85.688,219.398 85.510 C 219.747 85.332,220.245 85.139,220.505 85.082 C 220.764 85.025,221.061 84.877,221.163 84.754 C 221.266 84.630,221.717 84.441,222.167 84.333 C 222.616 84.226,223.071 84.031,223.179 83.902 C 223.286 83.773,223.580 83.667,223.831 83.667 C 224.083 83.667,224.479 83.517,224.712 83.333 C 224.945 83.150,225.239 83.000,225.366 83.000 C 225.493 83.000,225.882 82.854,226.231 82.676 C 226.580 82.498,227.102 82.303,227.391 82.242 C 227.680 82.181,228.151 81.989,228.436 81.815 C 228.722 81.642,229.097 81.500,229.270 81.499 C 229.442 81.498,229.808 81.349,230.083 81.167 C 230.358 80.985,230.734 80.835,230.919 80.834 C 231.104 80.834,231.535 80.683,231.877 80.500 C 232.219 80.317,232.594 80.167,232.710 80.167 C 232.826 80.167,233.183 80.028,233.502 79.858 C 233.822 79.688,234.350 79.500,234.676 79.440 C 235.002 79.380,235.562 79.181,235.920 78.999 C 236.278 78.816,236.689 78.667,236.833 78.667 C 236.978 78.667,237.390 78.517,237.750 78.333 C 238.110 78.150,238.538 78.000,238.703 78.000 C 238.867 78.000,239.281 77.850,239.623 77.667 C 239.965 77.483,240.435 77.333,240.667 77.333 C 240.899 77.333,241.350 77.194,241.669 77.024 C 241.989 76.855,242.542 76.662,242.899 76.596 C 243.257 76.530,243.707 76.374,243.899 76.250 C 244.092 76.126,244.550 75.973,244.917 75.910 C 245.283 75.847,245.747 75.694,245.947 75.568 C 246.146 75.443,246.634 75.289,247.030 75.226 C 247.426 75.163,248.050 74.976,248.417 74.810 C 248.783 74.643,249.271 74.505,249.500 74.503 C 249.729 74.500,250.142 74.380,250.417 74.236 C 250.692 74.092,251.329 73.898,251.833 73.805 C 252.338 73.712,252.848 73.555,252.967 73.457 C 253.087 73.358,253.649 73.183,254.217 73.068 C 254.785 72.952,255.550 72.743,255.917 72.603 C 256.283 72.463,256.793 72.345,257.050 72.341 C 257.307 72.337,257.721 72.228,257.970 72.099 C 258.219 71.970,258.853 71.785,259.379 71.688 C 259.905 71.591,260.492 71.427,260.684 71.324 C 260.877 71.221,261.497 71.071,262.063 70.991 C 262.628 70.911,263.315 70.738,263.587 70.607 C 263.860 70.475,264.533 70.315,265.083 70.251 C 265.633 70.187,266.172 70.061,266.281 69.972 C 266.390 69.883,267.065 69.706,267.781 69.580 C 268.497 69.454,269.493 69.234,269.995 69.092 C 270.496 68.950,271.112 68.833,271.364 68.833 C 271.616 68.833,272.151 68.722,272.553 68.585 C 272.955 68.449,273.876 68.256,274.600 68.157 C 275.324 68.058,276.238 67.870,276.631 67.739 C 277.024 67.607,277.624 67.499,277.964 67.498 C 278.305 67.497,279.177 67.350,279.903 67.172 C 280.629 66.994,281.754 66.800,282.403 66.741 C 283.052 66.682,283.956 66.528,284.411 66.399 C 284.867 66.269,285.879 66.118,286.661 66.064 C 287.443 66.009,288.458 65.861,288.917 65.735 C 289.375 65.609,290.778 65.429,292.035 65.335 C 293.292 65.241,294.509 65.092,294.741 65.004 C 294.972 64.916,296.675 64.760,298.525 64.657 C 300.375 64.555,302.079 64.398,302.312 64.310 C 303.835 63.731,328.738 63.740,330.833 64.320 C 331.154 64.409,332.831 64.563,334.560 64.662 C 336.289 64.760,337.833 64.911,337.991 64.995 C 338.149 65.080,339.247 65.232,340.431 65.333 C 341.615 65.435,342.958 65.621,343.417 65.748 C 343.875 65.874,344.881 66.029,345.652 66.092 C 346.423 66.155,347.318 66.317,347.641 66.452 C 347.964 66.587,348.946 66.735,349.823 66.781 C 350.975 66.842,351.534 66.948,351.840 67.162 C 352.073 67.325,352.560 67.499,352.923 67.549 C 353.286 67.599,353.795 67.693,354.053 67.758 C 354.513 67.874,354.522 67.864,354.470 67.230 L 354.417 66.583 353.458 66.533 C 352.636 66.490,352.500 66.437,352.500 66.158 C 352.500 65.876,352.381 65.833,351.593 65.833 C 351.094 65.833,350.640 65.758,350.583 65.667 C 350.527 65.575,350.297 65.500,350.073 65.500 C 349.850 65.500,349.667 65.425,349.667 65.333 C 349.667 65.242,349.259 65.167,348.760 65.167 C 348.261 65.167,347.807 65.092,347.750 65.000 C 347.693 64.908,347.314 64.833,346.907 64.833 C 346.500 64.833,346.167 64.758,346.167 64.667 C 346.167 64.575,345.848 64.497,345.458 64.494 C 345.069 64.491,344.563 64.381,344.333 64.250 C 344.104 64.119,343.650 64.009,343.325 64.006 C 343.000 64.003,342.662 63.931,342.575 63.846 C 342.392 63.668,339.832 63.527,339.833 63.695 C 339.835 64.182,336.064 64.313,335.211 63.857 C 335.013 63.751,333.757 63.590,332.422 63.500 C 329.822 63.325,328.800 63.015,328.584 62.336 C 328.492 62.045,328.334 62.000,327.405 62.000 C 326.802 62.000,326.333 61.927,326.333 61.833 C 326.333 61.729,325.368 61.667,323.770 61.667 C 321.696 61.667,321.168 61.619,321.000 61.417 C 320.727 61.088,318.002 61.050,317.996 61.375 C 317.982 62.021,316.893 62.167,312.072 62.167 C 307.258 62.167,306.003 62.003,306.001 61.375 C 306.000 61.039,299.111 61.079,298.774 61.417 " stroke="none" fill="#fbf8f7" fill-rule="evenodd"></path><path id="path3" d="M68.204 33.529 C 67.527 33.614,66.680 33.847,66.287 34.058 C 65.208 34.637,64.269 35.259,64.019 35.561 C 63.894 35.711,63.714 35.833,63.619 35.833 C 63.523 35.833,63.326 35.944,63.181 36.080 C 62.506 36.711,61.941 37.167,61.833 37.167 C 61.768 37.167,61.498 37.352,61.233 37.579 C 60.569 38.146,60.264 38.388,59.967 38.583 C 59.115 39.143,58.622 39.508,57.555 40.369 C 56.897 40.899,56.311 41.333,56.251 41.333 C 56.192 41.333,55.765 41.652,55.303 42.042 C 54.346 42.848,53.211 42.972,51.560 42.449 C 51.114 42.308,49.895 42.142,48.850 42.081 C 47.805 42.019,46.561 41.868,46.087 41.744 C 45.612 41.620,44.212 41.443,42.974 41.350 C 41.736 41.256,40.506 41.097,40.240 40.996 C 39.974 40.895,38.677 40.740,37.359 40.652 C 36.040 40.563,34.813 40.411,34.631 40.314 C 34.449 40.217,33.239 40.064,31.942 39.975 C 30.645 39.886,29.262 39.705,28.869 39.573 C 27.879 39.240,24.450 39.240,24.118 39.573 C 23.986 39.704,23.656 39.873,23.383 39.948 C 21.153 40.559,19.954 43.833,21.960 43.833 C 22.173 43.833,22.550 43.976,22.798 44.151 C 23.047 44.326,23.524 44.515,23.858 44.572 C 24.193 44.629,24.558 44.786,24.670 44.921 C 24.782 45.056,25.071 45.169,25.312 45.172 C 25.553 45.175,26.125 45.362,26.583 45.587 C 27.042 45.812,27.511 45.998,27.626 45.998 C 27.741 45.999,28.114 46.150,28.456 46.333 C 28.799 46.517,29.239 46.667,29.435 46.667 C 29.632 46.667,29.884 46.777,29.996 46.912 C 30.108 47.047,30.474 47.206,30.808 47.266 C 31.143 47.325,31.651 47.515,31.936 47.687 C 32.222 47.859,32.598 48.000,32.772 48.000 C 32.946 48.000,33.358 48.145,33.688 48.322 C 34.018 48.498,34.558 48.694,34.888 48.756 C 35.218 48.818,35.573 48.971,35.677 49.096 C 35.782 49.222,36.123 49.372,36.435 49.431 C 36.748 49.490,37.281 49.679,37.620 49.852 C 37.960 50.025,38.353 50.167,38.494 50.168 C 38.635 50.168,38.975 50.318,39.250 50.500 C 39.525 50.682,39.929 50.832,40.147 50.832 C 40.365 50.833,40.778 50.975,41.064 51.149 C 41.349 51.322,41.846 51.518,42.167 51.585 C 42.487 51.651,42.825 51.765,42.917 51.837 C 43.392 52.215,45.278 52.689,45.911 52.590 C 46.281 52.532,46.976 52.444,47.456 52.394 L 48.328 52.303 43.789 56.886 C 41.292 59.407,37.825 62.947,36.083 64.752 C 34.342 66.557,32.645 68.308,32.313 68.642 C 31.253 69.709,31.163 70.375,31.969 71.200 C 32.124 71.358,32.400 71.683,32.583 71.924 C 33.542 73.179,33.838 73.160,35.269 71.750 C 35.873 71.154,36.406 70.667,36.452 70.667 C 36.588 70.667,37.486 69.885,39.108 68.355 C 40.551 66.994,42.453 65.230,44.201 63.633 C 44.633 63.239,45.224 62.732,45.515 62.505 C 45.806 62.279,46.551 61.604,47.171 61.005 C 47.791 60.407,48.799 59.467,49.411 58.917 C 50.024 58.367,50.988 57.462,51.554 56.905 C 52.120 56.349,52.707 55.824,52.858 55.739 C 53.110 55.596,55.698 53.231,57.451 51.542 C 57.856 51.152,58.222 50.833,58.265 50.833 C 58.309 50.833,58.988 50.196,59.774 49.417 C 60.560 48.637,61.251 47.998,61.310 47.996 C 61.369 47.994,61.803 47.637,62.275 47.204 C 62.747 46.771,63.751 45.854,64.506 45.167 C 65.261 44.479,66.386 43.429,67.006 42.833 C 67.626 42.237,68.723 41.235,69.442 40.605 C 70.161 39.975,71.280 38.962,71.928 38.355 C 72.575 37.747,73.444 36.945,73.857 36.573 C 74.883 35.648,74.901 35.594,74.377 35.032 C 73.584 34.182,70.684 33.174,69.551 33.355 C 69.477 33.367,68.871 33.445,68.204 33.529 M72.035 34.200 C 72.245 34.336,72.606 34.494,72.838 34.551 C 73.070 34.608,73.493 34.864,73.779 35.119 L 74.298 35.583 73.541 36.250 C 73.125 36.617,72.174 37.479,71.427 38.167 C 70.680 38.854,69.406 40.017,68.597 40.750 C 67.789 41.483,66.828 42.372,66.463 42.725 C 66.098 43.078,65.313 43.778,64.719 44.282 C 64.125 44.786,63.439 45.405,63.194 45.656 C 62.950 45.908,61.962 46.822,61.000 47.687 C 60.038 48.552,58.800 49.684,58.250 50.201 C 57.700 50.719,56.462 51.851,55.500 52.717 C 52.497 55.419,51.796 56.059,50.945 56.876 C 50.490 57.312,49.625 58.100,49.022 58.626 C 48.419 59.153,47.323 60.149,46.588 60.840 C 45.852 61.531,44.955 62.356,44.594 62.673 C 44.233 62.990,43.622 63.550,43.237 63.917 C 42.851 64.283,42.031 65.033,41.413 65.583 C 40.795 66.133,40.019 66.836,39.687 67.145 C 39.355 67.454,38.454 68.279,37.684 68.978 C 36.914 69.678,35.789 70.717,35.184 71.288 C 34.575 71.862,33.929 72.328,33.739 72.330 C 33.377 72.334,31.762 70.297,31.870 69.974 C 31.958 69.710,36.373 65.065,41.333 60.017 C 43.854 57.451,46.535 54.719,47.292 53.946 C 48.580 52.628,48.947 52.012,48.458 51.991 C 48.344 51.986,47.365 51.990,46.284 52.000 C 44.616 52.015,44.237 51.969,43.784 51.696 C 43.490 51.519,42.950 51.321,42.583 51.256 C 42.217 51.191,41.804 51.039,41.667 50.918 C 41.529 50.797,41.104 50.614,40.722 50.513 C 40.340 50.411,39.815 50.217,39.556 50.082 C 39.296 49.946,38.986 49.835,38.866 49.834 C 38.747 49.834,38.372 49.692,38.033 49.518 C 37.694 49.345,37.154 49.111,36.833 48.999 C 36.512 48.887,35.846 48.654,35.351 48.482 C 34.857 48.309,34.369 48.101,34.268 48.020 C 34.166 47.938,33.821 47.817,33.500 47.750 C 33.179 47.683,32.729 47.525,32.500 47.400 C 32.271 47.274,31.765 47.058,31.375 46.919 C 30.985 46.780,30.348 46.553,29.958 46.414 C 29.569 46.276,29.051 46.051,28.808 45.914 C 28.564 45.778,28.225 45.667,28.053 45.667 C 27.881 45.667,27.568 45.546,27.358 45.398 C 27.147 45.251,26.624 45.029,26.195 44.906 C 25.156 44.607,23.841 44.119,23.356 43.852 C 23.139 43.732,22.660 43.547,22.292 43.440 C 19.544 42.645,23.765 39.250,26.807 39.808 C 27.417 39.920,28.742 40.085,29.750 40.174 C 30.758 40.264,32.146 40.444,32.833 40.574 C 33.521 40.705,35.030 40.894,36.188 40.995 C 37.345 41.096,38.545 41.253,38.854 41.344 C 39.164 41.435,40.416 41.583,41.638 41.672 C 42.859 41.762,43.990 41.906,44.151 41.991 C 44.311 42.077,45.502 42.227,46.796 42.325 C 48.091 42.422,49.350 42.578,49.595 42.671 C 49.980 42.817,53.209 43.156,54.292 43.164 C 54.498 43.165,54.800 43.035,54.964 42.875 C 55.127 42.715,55.595 42.358,56.003 42.083 C 56.411 41.808,57.322 41.133,58.028 40.583 C 58.734 40.033,59.730 39.283,60.242 38.917 C 62.417 37.357,63.095 36.851,63.481 36.500 C 63.632 36.362,63.942 36.121,64.169 35.964 C 64.397 35.806,64.893 35.458,65.272 35.190 C 65.651 34.921,66.138 34.647,66.355 34.580 C 66.572 34.514,66.850 34.379,66.973 34.281 C 67.573 33.799,71.324 33.740,72.035 34.200 M317.083 61.833 C 317.019 61.937,315.108 62.015,312.032 62.039 L 307.083 62.078 311.968 62.125 C 316.115 62.165,316.908 62.134,317.214 61.919 C 317.412 61.780,317.487 61.667,317.380 61.667 C 317.274 61.667,317.140 61.742,317.083 61.833 M291.035 62.698 C 290.926 62.807,290.292 62.987,289.627 63.097 L 288.417 63.297 289.333 63.315 C 290.036 63.328,290.405 63.236,290.917 62.921 C 291.283 62.695,291.505 62.508,291.408 62.505 C 291.312 62.502,291.144 62.589,291.035 62.698 M328.667 62.576 C 328.667 62.769,330.023 63.332,330.452 63.317 C 330.857 63.302,330.836 63.281,330.286 63.151 C 329.940 63.070,329.433 62.888,329.161 62.747 C 328.889 62.607,328.667 62.529,328.667 62.576 M286.961 63.454 C 287.261 63.491,287.711 63.490,287.961 63.452 C 288.212 63.414,287.967 63.384,287.417 63.385 C 286.867 63.386,286.662 63.417,286.961 63.454 M331.542 63.455 C 331.885 63.491,332.448 63.491,332.792 63.455 C 333.135 63.419,332.854 63.389,332.167 63.389 C 331.479 63.389,331.198 63.419,331.542 63.455 M283.000 63.842 C 282.129 64.003,281.679 64.136,282.000 64.139 C 282.557 64.142,283.359 64.023,285.000 63.693 C 285.694 63.553,285.706 63.542,285.167 63.545 C 284.846 63.547,283.871 63.680,283.000 63.842 M334.417 63.673 C 334.783 63.746,335.383 63.884,335.750 63.982 C 336.117 64.079,336.754 64.151,337.167 64.142 C 337.844 64.126,337.813 64.111,336.849 63.986 C 336.262 63.910,335.557 63.770,335.283 63.674 C 335.008 63.578,334.551 63.509,334.267 63.521 C 333.790 63.540,333.801 63.552,334.417 63.673 M306.819 64.005 C 304.656 64.070,302.631 64.205,302.319 64.305 C 302.006 64.405,300.267 64.567,298.454 64.666 C 296.641 64.764,294.969 64.917,294.739 65.004 C 294.508 65.092,293.292 65.241,292.035 65.335 C 290.778 65.429,289.375 65.609,288.917 65.735 C 288.458 65.861,287.443 66.009,286.661 66.064 C 285.879 66.118,284.867 66.269,284.411 66.399 C 283.956 66.528,283.052 66.682,282.403 66.741 C 281.754 66.800,280.629 66.994,279.903 67.172 C 279.177 67.350,278.305 67.497,277.964 67.498 C 277.624 67.499,277.024 67.607,276.631 67.739 C 276.238 67.870,275.324 68.058,274.600 68.157 C 273.876 68.256,272.955 68.449,272.553 68.585 C 272.151 68.722,271.616 68.833,271.364 68.833 C 271.112 68.833,270.496 68.950,269.995 69.092 C 269.493 69.234,268.497 69.454,267.781 69.580 C 267.065 69.706,266.390 69.883,266.281 69.972 C 266.172 70.061,265.633 70.187,265.083 70.251 C 264.533 70.315,263.860 70.475,263.587 70.607 C 263.315 70.738,262.628 70.911,262.063 70.991 C 261.497 71.071,260.877 71.221,260.684 71.324 C 260.492 71.427,259.905 71.591,259.379 71.688 C 258.853 71.785,258.219 71.970,257.970 72.099 C 257.721 72.228,257.307 72.337,257.050 72.341 C 256.793 72.345,256.283 72.463,255.917 72.603 C 255.550 72.743,254.785 72.952,254.217 73.068 C 253.649 73.183,253.087 73.358,252.967 73.457 C 252.848 73.555,252.338 73.712,251.833 73.805 C 251.329 73.898,250.692 74.092,250.417 74.236 C 250.142 74.380,249.729 74.500,249.500 74.503 C 249.271 74.505,248.783 74.643,248.417 74.810 C 248.050 74.976,247.426 75.163,247.030 75.226 C 246.634 75.289,246.146 75.443,245.947 75.568 C 245.747 75.694,245.283 75.847,244.917 75.910 C 244.550 75.973,244.092 76.126,243.899 76.250 C 243.707 76.374,243.257 76.530,242.899 76.596 C 242.542 76.662,241.989 76.855,241.669 77.024 C 241.350 77.194,240.899 77.333,240.667 77.333 C 240.435 77.333,239.965 77.483,239.623 77.667 C 239.281 77.850,238.867 78.000,238.703 78.000 C 238.538 78.000,238.110 78.150,237.750 78.333 C 237.390 78.517,236.978 78.667,236.833 78.667 C 236.689 78.667,236.278 78.816,235.920 78.999 C 235.562 79.181,235.002 79.380,234.676 79.440 C 234.350 79.500,233.822 79.688,233.502 79.858 C 233.183 80.028,232.826 80.167,232.710 80.167 C 232.594 80.167,232.219 80.317,231.877 80.500 C 231.535 80.683,231.104 80.834,230.919 80.834 C 230.734 80.835,230.358 80.985,230.083 81.167 C 229.808 81.349,229.442 81.498,229.270 81.499 C 229.097 81.500,228.722 81.642,228.436 81.815 C 228.151 81.989,227.680 82.181,227.391 82.242 C 227.102 82.303,226.580 82.498,226.231 82.676 C 225.882 82.854,225.493 83.000,225.366 83.000 C 225.239 83.000,224.945 83.150,224.712 83.333 C 224.479 83.517,224.083 83.667,223.831 83.667 C 223.580 83.667,223.286 83.773,223.179 83.902 C 223.071 84.031,222.616 84.226,222.167 84.333 C 221.717 84.441,221.266 84.630,221.163 84.754 C 221.061 84.877,220.764 85.025,220.505 85.082 C 220.245 85.139,219.747 85.332,219.398 85.510 C 219.049 85.688,218.675 85.833,218.569 85.833 C 218.462 85.833,218.282 85.944,218.170 86.079 C 218.058 86.214,217.693 86.371,217.358 86.428 C 217.024 86.485,216.547 86.674,216.298 86.849 C 216.050 87.024,215.741 87.167,215.613 87.167 C 215.484 87.167,215.188 87.317,214.955 87.500 C 214.721 87.683,214.346 87.833,214.121 87.833 C 213.896 87.833,213.527 87.979,213.301 88.156 C 213.075 88.334,212.693 88.529,212.452 88.589 C 212.211 88.650,211.926 88.805,211.820 88.933 C 211.713 89.062,211.546 89.167,211.449 89.167 C 211.352 89.167,210.929 89.325,210.511 89.518 C 210.092 89.711,209.338 90.055,208.833 90.281 C 208.329 90.508,207.317 90.982,206.583 91.336 C 205.850 91.689,204.924 92.063,204.525 92.167 C 203.529 92.426,203.756 92.544,204.982 92.405 C 205.599 92.336,206.140 92.168,206.358 91.979 C 206.556 91.807,206.846 91.667,207.003 91.667 C 207.160 91.667,207.479 91.517,207.712 91.333 C 207.945 91.150,208.237 91.000,208.360 90.999 C 208.483 90.999,208.808 90.862,209.083 90.694 C 209.358 90.527,209.808 90.334,210.083 90.265 C 210.358 90.197,210.696 90.043,210.833 89.923 C 210.971 89.804,211.271 89.651,211.500 89.583 C 211.729 89.516,212.029 89.366,212.167 89.251 C 212.304 89.136,212.698 88.952,213.042 88.841 C 213.385 88.731,213.667 88.575,213.667 88.495 C 213.667 88.414,213.948 88.301,214.292 88.242 C 214.635 88.183,215.120 87.993,215.368 87.818 C 215.617 87.643,215.925 87.500,216.054 87.500 C 216.183 87.500,216.467 87.361,216.686 87.191 C 216.904 87.021,217.357 86.831,217.692 86.770 C 218.026 86.708,218.386 86.554,218.492 86.427 C 218.597 86.300,219.051 86.108,219.500 86.000 C 219.949 85.892,220.405 85.698,220.512 85.569 C 220.620 85.439,220.838 85.333,220.998 85.333 C 221.158 85.333,221.479 85.183,221.712 85.000 C 221.945 84.817,222.303 84.667,222.507 84.667 C 222.711 84.667,223.111 84.523,223.397 84.347 C 223.683 84.172,224.195 83.976,224.536 83.913 C 224.876 83.850,225.238 83.699,225.339 83.577 C 225.440 83.455,225.762 83.302,226.053 83.238 C 226.345 83.175,226.845 82.982,227.164 82.811 C 227.484 82.640,227.903 82.500,228.097 82.500 C 228.291 82.500,228.622 82.350,228.833 82.167 C 229.045 81.983,229.421 81.833,229.670 81.833 C 229.918 81.833,230.312 81.683,230.545 81.500 C 230.779 81.317,231.145 81.166,231.360 81.165 C 231.574 81.164,232.125 80.979,232.583 80.754 C 233.042 80.528,233.561 80.341,233.737 80.339 C 233.913 80.336,234.181 80.221,234.333 80.084 C 234.485 79.946,234.949 79.771,235.364 79.693 C 235.780 79.615,236.297 79.428,236.514 79.276 C 236.730 79.124,237.097 79.000,237.329 78.999 C 237.560 78.998,237.975 78.849,238.250 78.667 C 238.525 78.485,238.940 78.335,239.173 78.334 C 239.406 78.334,239.874 78.192,240.213 78.019 C 240.552 77.846,241.112 77.653,241.457 77.590 C 241.801 77.527,242.241 77.374,242.434 77.250 C 242.627 77.126,243.077 76.970,243.434 76.904 C 243.791 76.838,244.345 76.645,244.664 76.476 C 244.984 76.306,245.434 76.166,245.664 76.166 C 245.895 76.165,246.308 76.047,246.583 75.903 C 246.858 75.759,247.489 75.566,247.984 75.474 C 248.480 75.382,249.043 75.208,249.234 75.088 C 249.426 74.968,249.933 74.820,250.361 74.760 C 250.789 74.700,251.222 74.551,251.323 74.430 C 251.423 74.308,251.891 74.158,252.362 74.095 C 252.833 74.033,253.431 73.872,253.690 73.738 C 253.949 73.604,254.518 73.449,254.955 73.394 C 255.392 73.339,255.926 73.183,256.142 73.048 C 256.358 72.914,257.021 72.734,257.616 72.650 C 258.211 72.566,258.858 72.385,259.053 72.248 C 259.248 72.112,259.672 71.997,259.995 71.993 C 260.319 71.989,260.883 71.871,261.250 71.732 C 261.617 71.592,262.465 71.376,263.135 71.251 C 263.805 71.126,264.442 70.952,264.552 70.864 C 264.661 70.776,265.162 70.653,265.667 70.590 C 266.171 70.527,267.015 70.332,267.542 70.155 C 268.070 69.978,268.752 69.833,269.058 69.833 C 269.364 69.833,270.020 69.695,270.516 69.526 C 271.011 69.357,271.887 69.170,272.463 69.111 C 273.038 69.052,273.713 68.901,273.963 68.775 C 274.212 68.648,275.010 68.493,275.735 68.430 C 276.460 68.367,277.252 68.211,277.497 68.085 C 277.741 67.959,278.610 67.805,279.429 67.743 C 280.247 67.681,281.139 67.523,281.411 67.393 C 281.683 67.263,282.704 67.092,283.679 67.013 C 284.654 66.935,285.617 66.782,285.820 66.674 C 286.022 66.566,287.084 66.409,288.180 66.326 C 289.275 66.243,290.602 66.068,291.127 65.937 C 291.653 65.806,293.021 65.651,294.167 65.591 C 295.313 65.531,296.737 65.376,297.333 65.247 C 297.929 65.118,300.104 64.933,302.167 64.837 C 304.229 64.741,306.442 64.579,307.083 64.478 C 308.603 64.238,324.604 64.240,326.333 64.480 C 327.021 64.576,329.121 64.733,331.000 64.830 C 332.879 64.927,334.942 65.117,335.583 65.251 C 336.225 65.386,337.612 65.541,338.667 65.596 C 339.721 65.651,340.921 65.800,341.333 65.927 C 341.746 66.055,342.891 66.234,343.879 66.325 C 344.866 66.417,345.827 66.574,346.014 66.674 C 346.200 66.774,347.037 66.926,347.874 67.013 C 348.805 67.109,349.503 67.268,349.674 67.423 C 349.877 67.607,350.499 67.702,351.935 67.768 C 353.361 67.835,353.847 67.811,353.667 67.683 C 353.529 67.585,353.170 67.504,352.868 67.503 C 352.567 67.501,352.117 67.357,351.868 67.183 C 351.529 66.944,351.021 66.845,349.823 66.781 C 348.946 66.735,347.964 66.587,347.641 66.452 C 347.318 66.317,346.423 66.155,345.652 66.092 C 344.881 66.029,343.875 65.874,343.417 65.748 C 342.958 65.621,341.615 65.435,340.431 65.333 C 339.247 65.232,338.149 65.080,337.991 64.995 C 337.833 64.911,336.289 64.760,334.560 64.662 C 332.831 64.563,331.154 64.409,330.833 64.320 C 329.372 63.915,315.777 63.737,306.819 64.005 M278.917 64.353 C 278.550 64.434,277.912 64.572,277.500 64.660 C 276.783 64.813,276.794 64.816,277.750 64.734 C 278.794 64.644,280.726 64.183,280.000 64.197 C 279.771 64.201,279.283 64.271,278.917 64.353 M275.460 64.951 C 275.668 64.991,275.968 64.990,276.127 64.948 C 276.286 64.906,276.117 64.874,275.750 64.875 C 275.383 64.877,275.253 64.911,275.460 64.951 M273.583 65.268 L 272.750 65.496 273.554 65.416 C 273.996 65.372,274.483 65.263,274.637 65.173 C 275.031 64.944,274.638 64.979,273.583 65.268 M271.375 65.619 C 271.627 65.658,272.040 65.658,272.292 65.619 C 272.544 65.581,272.337 65.550,271.833 65.550 C 271.329 65.550,271.123 65.581,271.375 65.619 M346.375 68.624 C 346.994 68.656,348.006 68.656,348.625 68.624 C 349.244 68.592,348.738 68.565,347.500 68.565 C 346.262 68.565,345.756 68.592,346.375 68.624 " stroke="none" fill="#f7a694" fill-rule="evenodd"></path><path id="path4" d="M306.833 61.833 C 307.176 62.055,316.947 62.055,317.083 61.833 C 317.151 61.724,315.377 61.668,311.885 61.669 C 308.400 61.671,306.669 61.727,306.833 61.833 M289.398 62.506 C 288.562 62.574,287.703 62.725,287.488 62.840 C 287.264 62.960,286.032 63.103,284.591 63.176 C 283.052 63.255,281.858 63.398,281.500 63.547 C 281.173 63.683,280.087 63.831,279.029 63.884 C 277.833 63.944,277.009 64.064,276.779 64.213 C 276.570 64.349,275.716 64.497,274.764 64.563 C 273.838 64.627,272.867 64.793,272.556 64.941 C 272.157 65.130,271.439 65.210,270.001 65.227 C 267.855 65.252,267.430 65.390,268.927 65.577 C 270.084 65.722,271.921 65.574,274.083 65.162 C 275.000 64.987,276.275 64.772,276.917 64.684 C 278.326 64.491,280.005 64.255,283.000 63.830 C 284.237 63.655,285.813 63.469,286.500 63.417 C 288.860 63.240,290.584 62.954,291.164 62.644 C 291.829 62.289,291.936 62.297,289.398 62.506 M328.667 62.407 C 328.667 62.788,330.336 63.203,332.470 63.353 C 333.724 63.442,334.964 63.585,335.226 63.671 C 336.984 64.252,339.617 64.145,339.795 63.486 C 339.849 63.286,339.834 63.285,339.696 63.482 C 339.474 63.801,338.155 63.783,336.917 63.445 C 336.367 63.295,335.338 63.171,334.631 63.169 C 333.924 63.168,333.024 63.062,332.631 62.934 C 332.238 62.807,331.504 62.655,331.000 62.597 C 330.496 62.540,329.765 62.448,329.375 62.394 C 328.985 62.340,328.667 62.346,328.667 62.407 " stroke="none" fill="#646484" fill-rule="evenodd"></path></g></svg>