<svg xmlns="http://www.w3.org/2000/svg" width="538.7" height="157.5" viewBox="0 0 538.7 157.5">
  <g id="Big_Savings_forMemorial_Day" data-name="Big Savings forMemorial Day" transform="translate(-3.7 -11.2)">
    <g id="Group_1" data-name="Group 1">
      <path id="Path_4742" data-name="Path 4742" d="M3.7,14.2h22c10.2,0,17.6,5.1,17.6,14.4a12.493,12.493,0,0,1-6.8,11A14.078,14.078,0,0,1,46,53.5C46,64,38.2,70.1,26.5,70.1H3.7ZM24.9,36c5.5,0,8.2-2.4,8.2-6.6s-2.7-6.6-8.4-6.6H14.6V36Zm.5,24.7c7,0,10.3-2.6,10.3-7.7s-3.3-7.8-10.3-7.8H14.6V60.7Z" fill="#00dfc4"/>
      <path id="Path_4743" data-name="Path 4743" d="M52.5,17.4a6.3,6.3,0,1,1,6.2,6.2A5.932,5.932,0,0,1,52.5,17.4Zm1.2,12.4H63.8V70.1H53.7Z" fill="#00dfc4"/>
      <path id="Path_4744" data-name="Path 4744" d="M111.3,29.8V67.6c0,10.6-8,17.8-20,17.8-9.4,0-17-5-18.4-12.6l9.4-1.5c.5,3.8,4.3,6,9,6,6.1,0,10.1-3.4,10.1-8.6V64.3C99.4,67.2,95,69,90.2,69c-11.8,0-18.8-8-18.8-19.8,0-11.9,7-19.9,18.6-19.9,5,0,9.1,1.9,11.4,4.7V29.9h9.9Zm-9.4,19.3c0-6.8-4.1-11.2-10.3-11.2S81.4,42.3,81.4,49.1c0,6.7,4.1,11.1,10.2,11.1C97.8,60.2,101.9,55.8,101.9,49.1Z" fill="#00dfc4"/>
      <path id="Path_4745" data-name="Path 4745" d="M137.5,53.2l9.7-3c.9,6.7,6.1,11.3,12.3,11.3,5.8,0,9.7-2.8,9.7-7,0-12.1-29.7-5.3-29.7-25.6,0-9,8.4-15.4,19.4-15.4,10.6,0,19,5.7,20.8,14.2l-9.8,4a10.668,10.668,0,0,0-11-8.9c-5.4,0-8.6,2.3-8.6,6.1,0,10.2,29.9,2.6,29.9,25.4,0,9.9-8.5,16.6-21.1,16.6C148.1,70.8,138.9,63.4,137.5,53.2Z" fill="#00dfc4"/>
      <path id="Path_4746" data-name="Path 4746" d="M220.9,45.6V70.2h-9.8V64.4c-2.2,3.9-7.1,6.5-12.1,6.5-7.9,0-13.4-5.1-13.4-12,0-7.9,6-12.2,18-13.4l7.5-.7v-.4c0-4.6-3.1-7.4-8-7.4a7.578,7.578,0,0,0-8,7l-9-1.6c1.3-8,8.4-13.1,17-13.1C213.7,29.2,220.9,34.9,220.9,45.6Zm-9.8,7.1v-.9l-7.7.9c-5.4.6-8.1,2.9-8.1,5.8,0,2.8,2.2,4.9,5.9,4.9C207.5,63.4,211.1,58.6,211.1,52.7Z" fill="#00dfc4"/>
      <path id="Path_4747" data-name="Path 4747" d="M224.8,29.8H235l9.2,28.6,9.2-28.6h10.2L248.9,70.1h-9.4Z" fill="#00dfc4"/>
      <path id="Path_4748" data-name="Path 4748" d="M267.9,17.4a6.3,6.3,0,1,1,6.2,6.2A5.988,5.988,0,0,1,267.9,17.4Zm1.2,12.4h10.1V70.1H269.1Z" fill="#00dfc4"/>
      <path id="Path_4749" data-name="Path 4749" d="M289,29.8h10v6.1a15.108,15.108,0,0,1,12.8-6.7c8.8,0,14.7,5.8,14.7,14.6V70.2H316.4v-24c0-4.7-3-8-7.7-8-6.2,0-9.8,5.3-9.8,14.3V70.2H289Z" fill="#00dfc4"/>
      <path id="Path_4750" data-name="Path 4750" d="M374.1,29.8V67.6c0,10.6-8,17.8-20,17.8-9.4,0-17-5-18.4-12.6l9.4-1.5c.5,3.8,4.3,6,9,6,6.1,0,10.1-3.4,10.1-8.6V64.3c-2,2.9-6.4,4.7-11.2,4.7-11.8,0-18.8-8-18.8-19.8,0-11.9,7-19.9,18.6-19.9,5,0,9.1,1.9,11.4,4.7V29.9h9.9Zm-9.4,19.3c0-6.8-4.1-11.2-10.3-11.2s-10.2,4.4-10.2,11.2c0,6.7,4.1,11.1,10.2,11.1C360.6,60.2,364.7,55.8,364.7,49.1Z" fill="#00dfc4"/>
      <path id="Path_4751" data-name="Path 4751" d="M380.4,58.9l8.2-3.4c1.2,4.1,4.3,7.4,9.4,7.4,3.8,0,6.2-2,6.2-4.6,0-7.6-22-2.6-22-17.9,0-6.3,5.5-11.3,14.3-11.3,7.8,0,14.5,4,16.2,9.8l-8.2,3.4a8.145,8.145,0,0,0-7.9-5.8c-3.2,0-5.4,1.4-5.4,3.7,0,7.1,22.2,1.4,22.2,17.9,0,7-6.2,12.6-15.5,12.6C388.2,70.8,382.4,64.8,380.4,58.9Z" fill="#00dfc4"/>
      <path id="Path_4752" data-name="Path 4752" d="M443.5,38.3H437V29.8h6.5V26.7c0-9.4,6.1-14.6,14.2-14.6a20.463,20.463,0,0,1,6.1.9l-.7,8.3a9.844,9.844,0,0,0-4-.8c-3.4,0-5.5,2.4-5.5,6.2v3.1h9.6v8.5h-9.6V70.1H443.5Z" fill="#00dfc4"/>
      <path id="Path_4753" data-name="Path 4753" d="M466,50c0-12,8.8-20.8,21-20.8S508,38,508,50s-8.8,20.8-21,20.8S466,62,466,50Zm31.9,0c0-7.2-4.4-12.1-10.9-12.1-6.6,0-10.9,4.9-10.9,12.1s4.3,12.1,10.9,12.1C493.5,62.1,497.9,57.2,497.9,50Z" fill="#00dfc4"/>
      <path id="Path_4754" data-name="Path 4754" d="M536.6,38.6c-5.7,0-10.8,4.7-10.8,16.7V70.1H515.7V29.8h10.1v7.4a14.068,14.068,0,0,1,12.2-8,15.6,15.6,0,0,1,4.4.6l-.6,9.8A15.485,15.485,0,0,0,536.6,38.6Z" fill="#00dfc4"/>
    </g>
    <g id="Group_2" data-name="Group 2">
      <path id="Path_4755" data-name="Path 4755" d="M22.4,98.2H34.6l17.1,40.6L68.8,98.2H81v56H70.9V118.4l-15,35.8H47.7l-15-35.8v35.8H22.4Z" fill="#00dfc4"/>
      <path id="Path_4756" data-name="Path 4756" d="M129.1,136.6H99.2c.9,6.1,4.8,9.7,10.6,9.7,4.7,0,8.1-2.2,9.1-6.2l9.4,2.6c-2.2,7.6-9.3,12.1-18.7,12.1-13.4,0-20.5-10.3-20.5-20.8s6.6-20.8,19.9-20.8c13.6,0,20.2,10.1,20.2,19.4A24.17,24.17,0,0,1,129.1,136.6Zm-10.6-7.3c-.5-4.8-3.6-8.4-9.4-8.4-5,0-8.5,3-9.6,8.4Z" fill="#00dfc4"/>
      <path id="Path_4757" data-name="Path 4757" d="M136.9,113.8H147V120a12.6,12.6,0,0,1,11.6-6.8c6.4,0,10.7,2.7,12.6,7.6a15.011,15.011,0,0,1,13.4-7.6c8.7,0,14.4,5.7,14.4,13.6v27.4H188.9V129.6c0-4.8-2.6-7.8-7.4-7.8-5.4,0-8.6,4.7-8.6,11.8v20.6H162.8V129.6c0-4.8-2.6-7.8-7.2-7.8-5.5,0-8.6,4.8-8.6,11.9v20.5H136.9V113.8Z" fill="#00dfc4"/>
      <path id="Path_4758" data-name="Path 4758" d="M206.5,134c0-12,8.8-20.8,21-20.8s21,8.8,21,20.8-8.8,20.8-21,20.8S206.5,146,206.5,134Zm31.9,0c0-7.2-4.4-12.1-10.9-12.1-6.6,0-10.9,4.9-10.9,12.1s4.3,12.1,10.9,12.1C234,146.1,238.4,141.2,238.4,134Z" fill="#00dfc4"/>
      <path id="Path_4759" data-name="Path 4759" d="M277,122.6c-5.7,0-10.8,4.7-10.8,16.7v14.8H256.1V113.8h10.1v7.4a14.068,14.068,0,0,1,12.2-8,15.6,15.6,0,0,1,4.4.6l-.6,9.8A14.583,14.583,0,0,0,277,122.6Z" fill="#00dfc4"/>
      <path id="Path_4760" data-name="Path 4760" d="M287.4,101.4a6.3,6.3,0,1,1,6.2,6.2A5.988,5.988,0,0,1,287.4,101.4Zm1.2,12.4h10.1v40.3H288.6Z" fill="#00dfc4"/>
      <path id="Path_4761" data-name="Path 4761" d="M341.8,129.6v24.6H332v-5.8c-2.2,3.9-7.1,6.5-12.1,6.5-7.9,0-13.4-5.1-13.4-12,0-7.9,6-12.2,18-13.4l7.5-.7v-.4c0-4.6-3.1-7.4-8-7.4a7.578,7.578,0,0,0-8,7l-9-1.6c1.3-8,8.4-13.1,17-13.1C334.6,113.2,341.8,118.9,341.8,129.6Zm-9.8,7.1v-.9l-7.7.9c-5.4.6-8.1,2.9-8.1,5.8,0,2.8,2.2,4.9,5.9,4.9C328.4,147.4,332,142.6,332,136.7Z" fill="#00dfc4"/>
      <path id="Path_4762" data-name="Path 4762" d="M351.6,97.5h10.1v56.6H351.6Z" fill="#00dfc4"/>
      <path id="Path_4763" data-name="Path 4763" d="M391,98.2h18.3c15.4,0,28.7,9.2,28.7,28s-13.3,28-28.7,28H391Zm17.4,46.5c9.6,0,18.6-4.9,18.6-18.6s-9-18.6-18.6-18.6h-6.6v37.2Z" fill="#00dfc4"/>
      <path id="Path_4764" data-name="Path 4764" d="M479,129.6v24.6h-9.8v-5.8c-2.2,3.9-7.1,6.5-12.1,6.5-7.9,0-13.4-5.1-13.4-12,0-7.9,6-12.2,18-13.4l7.5-.7v-.4c0-4.6-3.1-7.4-8-7.4a7.578,7.578,0,0,0-8,7l-9-1.6c1.3-8,8.4-13.1,17-13.1C471.8,113.2,479,118.9,479,129.6Zm-9.7,7.1v-.9l-7.7.9c-5.4.6-8.1,2.9-8.1,5.8,0,2.8,2.2,4.9,5.9,4.9C465.7,147.4,469.3,142.6,469.3,136.7Z" fill="#00dfc4"/>
      <path id="Path_4765" data-name="Path 4765" d="M523.9,113.8l-21.3,54.9H492.4l6.2-16.2L483,113.8h11l9.7,25.9,10-25.9h10.2Z" fill="#00dfc4"/>
    </g>
  </g>
</svg>
