<svg xmlns="http://www.w3.org/2000/svg" width="638.508" height="57.72" viewBox="0 0 638.508 57.72">
  <path id="Path_16836" data-name="Path 16836" d="M-306.111-55.38h-8.814c-2.5,0-3.354.858-3.354,3.276V-3.276c0,2.418.858,3.276,3.354,3.276h30.888c2.418,0,3.276-.858,3.276-3.276v-7.1c0-2.5-.858-3.276-3.276-3.276h-18.8V-52.1C-302.835-54.522-303.615-55.38-306.111-55.38ZM-224.835-3.2l-18.018-49.608c-.78-2.028-1.794-2.574-4.056-2.574H-255.8c-2.262,0-3.276.468-4.056,2.73L-277.8-3.2c-.78,2.106-.312,3.2,2.106,3.2h8.19c3.9,0,4.914-.858,5.694-3.276l1.794-5.616h16.848l1.794,5.616C-240.747-.858-239.577,0-235.521,0h8.424C-224.757,0-224.055-1.092-224.835-3.2Zm-24.726-27.066,2.886,9.126h-9.75l2.886-9.2a41.346,41.346,0,0,0,1.482-10.842h.78A49.077,49.077,0,0,0-249.561-30.264Zm27.69-8.814c0,15.132,12.792,16.77,21.918,18.018,5.148.7,9.126,1.56,9.126,4.6,0,3.354-3.12,4.446-8.346,4.446-4.368,0-7.41-1.4-8.814-4.134-1.17-2.262-2.262-2.5-4.6-1.716l-7.332,2.652c-2.262.858-2.964,1.95-2.106,4.29,2.964,8.112,11.076,12.09,22.7,12.09,13.806,0,24.18-6.318,24.18-17.784,0-14.742-11.7-16.926-20.748-18.174-5.616-.7-10.218-1.4-10.218-4.758,0-2.73,2.106-4.056,7.41-4.056,3.588,0,6.4,1.092,7.878,4.056,1.248,2.262,2.106,2.574,4.212,1.638l7.8-3.354c2.34-.936,2.964-2.106,1.872-4.368-3.666-7.488-10.218-10.92-21.762-10.92C-213.6-56.55-221.871-49.374-221.871-39.078Zm92.82-16.3h-38.61c-2.5,0-3.276.858-3.276,3.276v7.02c0,2.5.78,3.354,3.276,3.354h11.622V-3.276c0,2.418.78,3.276,3.276,3.276h8.814c2.5,0,3.354-.858,3.354-3.276V-41.73h11.544c2.5,0,3.354-.858,3.354-3.354V-52.1C-125.7-54.522-126.555-55.38-129.051-55.38Zm66.534-.078h-8.892c-2.418,0-3.276.858-3.276,3.354v17.238H-89.817V-52.1c0-2.5-.78-3.354-3.276-3.354h-8.814c-2.5,0-3.354.858-3.354,3.354V-3.276c0,2.418.858,3.276,3.354,3.276h8.814c2.5,0,3.276-.858,3.276-3.276v-17.94h15.132v17.94c0,2.418.858,3.276,3.276,3.276h8.892c2.418,0,3.276-.858,3.276-3.276V-52.1C-59.241-54.6-60.1-55.458-62.517-55.458ZM-51.051-34.71v14.04c0,13.494,8.58,21.84,24.024,21.84,15.366,0,23.946-8.346,23.946-21.84V-34.71c0-13.494-8.58-21.84-23.946-21.84C-42.471-56.55-51.051-48.2-51.051-34.71Zm32.526-.7v15.444c0,4.914-3.12,7.488-8.5,7.488-5.46,0-8.58-2.574-8.58-7.488V-35.412c0-4.914,3.12-7.488,8.58-7.488C-21.645-42.9-18.525-40.326-18.525-35.412ZM20.241-19.656V-52.1c0-2.418-.858-3.276-3.354-3.276H8.073c-2.5,0-3.276.858-3.276,3.276v31.746C4.8-7.254,12.909,1.17,28.275,1.17c15.444,0,23.556-8.424,23.556-21.528V-52.1c0-2.418-.858-3.276-3.354-3.276H39.663c-2.5,0-3.276.858-3.276,3.276v32.448c0,4.6-2.73,7.176-8.112,7.176S20.241-15.054,20.241-19.656ZM86.463-55.38H64.233c-2.5,0-3.354.858-3.354,3.276V-3.276C60.879-.858,61.737,0,64.233,0h8.814c2.5,0,3.276-.858,3.276-3.276V-18.408h1.794c3.2,0,4.524,1.326,5.85,3.978L88.959-3.744C90.207-1.014,92,0,96.135,0h8.424c2.574,0,3.12-1.716,2.028-3.822L99.567-17.16a20.416,20.416,0,0,0-2.106-3.354c5.3-2.964,8.424-8.424,8.424-16.068C105.885-48.672,98.241-55.38,86.463-55.38ZM89.9-36.66c0,3.2-1.872,5.226-5.148,5.226H76.323v-10.3h8.424C88.1-41.73,89.9-39.78,89.9-36.66Zm38.3-2.418c0,15.132,12.792,16.77,21.918,18.018,5.148.7,9.126,1.56,9.126,4.6,0,3.354-3.12,4.446-8.346,4.446-4.368,0-7.41-1.4-8.814-4.134-1.17-2.262-2.262-2.5-4.6-1.716l-7.332,2.652c-2.262.858-2.964,1.95-2.106,4.29C131-2.808,139.113,1.17,150.735,1.17c13.806,0,24.18-6.318,24.18-17.784,0-14.742-11.7-16.926-20.748-18.174-5.616-.7-10.218-1.4-10.218-4.758,0-2.73,2.106-4.056,7.41-4.056,3.588,0,6.4,1.092,7.878,4.056,1.248,2.262,2.106,2.574,4.212,1.638l7.8-3.354c2.34-.936,2.964-2.106,1.872-4.368-3.666-7.488-10.218-10.92-21.762-10.92C136.461-56.55,128.193-49.374,128.193-39.078ZM230.295-3.2,212.277-52.806c-.78-2.028-1.794-2.574-4.056-2.574h-8.892c-2.262,0-3.276.468-4.056,2.73L177.333-3.2c-.78,2.106-.312,3.2,2.106,3.2h8.19c3.9,0,4.914-.858,5.694-3.276l1.794-5.616h16.848l1.794,5.616C214.383-.858,215.553,0,219.609,0h8.424C230.373,0,231.075-1.092,230.295-3.2ZM205.569-30.264l2.886,9.126H198.7l2.886-9.2a41.346,41.346,0,0,0,1.482-10.842h.78A49.077,49.077,0,0,0,205.569-30.264ZM248.391-55.38h-8.814c-2.5,0-3.354.858-3.354,3.276V-3.276c0,2.418.858,3.276,3.354,3.276h30.888c2.418,0,3.276-.858,3.276-3.276v-7.1c0-2.5-.858-3.276-3.276-3.276h-18.8V-52.1C251.667-54.522,250.887-55.38,248.391-55.38Zm67.86,0H283.569c-2.5,0-3.354.858-3.354,3.276V-3.276c0,2.418.858,3.276,3.354,3.276h33.384c2.418,0,3.276-.858,3.276-3.276v-7.1c0-2.5-.858-3.276-3.276-3.276H295.659v-7.488h16.458c2.5,0,3.354-.858,3.354-3.354v-7.02c0-2.418-.858-3.276-3.354-3.276H295.659V-41.73h20.592c2.5,0,3.354-.858,3.354-3.354V-52.1C319.605-54.522,318.747-55.38,316.251-55.38Z" transform="translate(318.279 56.55)" fill="#fff"/>
</svg>
