<svg xmlns="http://www.w3.org/2000/svg" xmlns:xlink="http://www.w3.org/1999/xlink" width="165.944" height="62.571" viewBox="0 0 165.944 62.571">
  <defs>
    <filter id="Path_16830" x="0" y="7.536" width="87.162" height="55.035" filterUnits="userSpaceOnUse">
      <feOffset dy="6" input="SourceAlpha"/>
      <feGaussianBlur stdDeviation="5.5" result="blur"/>
      <feFlood flood-color="red" flood-opacity="0.161"/>
      <feComposite operator="in" in2="blur"/>
      <feComposite in="SourceGraphic"/>
    </filter>
  </defs>
  <g id="Group_11769" data-name="Group 11769" transform="translate(-370.952 -14.929)">
    <path id="Path_16832" data-name="Path 16832" d="M5.764,0C2.122,0,0,2.193,0,5.941v13.58c0,3.749,2.122,5.941,5.764,5.941,3.678,0,5.835-2.193,5.835-5.941V16.551l-3.607-.177v2.758C7.992,21.113,7.25,22,5.871,22s-2.122-.884-2.122-2.511V5.977c0-1.627.743-2.511,2.122-2.511S7.992,4.35,7.992,6.33V8.346L11.6,8.169V5.941C11.6,2.193,9.442,0,5.764,0ZM26.347.354h-3.89l-3.006,8.77H19.38L16.232.354H12.272L17.47,13.9V25.109h3.749V13.934Zm6.931,0H28.044V25.109h5.517c4.032,0,6.224-2.193,6.224-6.26V18c0-3.254-.99-5.092-3.324-5.8V12.13c1.98-.672,2.794-2.3,2.794-5.057v-.46C39.255,2.546,37.168.354,33.278.354Zm-.141,3.466c1.627,0,2.369.919,2.369,2.935v.813c0,2.087-.743,3.006-2.546,3.006H31.793V3.819Zm.106,10.22c1.98,0,2.794.99,2.794,3.183V18.6c0,2.087-.813,3.041-2.617,3.041H31.793v-7.6ZM53.4.354H42.862V25.109H53.4V21.643h-6.79V14.287h5.482V10.822H46.611v-7H53.4ZM69.067,25.109l-3.43-11.281c1.733-.99,2.652-2.829,2.652-5.446V6.613c0-4.067-2.193-6.26-6.224-6.26H56.654V25.109H60.4V14.641h1.733l2.971,10.468ZM61.923,3.819c1.8,0,2.617.955,2.617,3.041V8.134c0,2.087-.813,3.041-2.617,3.041H60.4V3.819Z" transform="translate(467.477 14.929)" fill="#fff"/>
    <path id="Path_16833" data-name="Path 16833" d="M0,.354H5.871a5.952,5.952,0,0,1,4.385,1.4,5.9,5.9,0,0,1,1.379,4.3v.99a6.8,6.8,0,0,1-.619,3.112,3.628,3.628,0,0,1-1.892,1.733v.071q2.9.99,2.9,5.163v2.122a5.916,5.916,0,0,1-1.5,4.368,5.967,5.967,0,0,1-4.4,1.5H0ZM5.411,10.433a2.335,2.335,0,0,0,1.751-.6,2.841,2.841,0,0,0,.584-2.016V6.436a3.142,3.142,0,0,0-.477-1.945,1.8,1.8,0,0,0-1.5-.6H3.89v6.542Zm.707,11.14a1.949,1.949,0,0,0,1.521-.548,2.824,2.824,0,0,0,.5-1.892V16.975a3.583,3.583,0,0,0-.584-2.352,2.471,2.471,0,0,0-1.927-.654H3.89v7.6ZM14.358.354h3.89V21.572h6.4v3.536H14.358Zm15.384,0h5.269l4.032,24.755h-3.89l-.707-4.916v.071H30.025l-.707,4.845H25.71ZM33.985,16.9,32.253,4.668h-.071L30.484,16.9ZM46.4,25.462a5.51,5.51,0,0,1-4.261-1.591,6.382,6.382,0,0,1-1.468-4.491V6.083a6.382,6.382,0,0,1,1.468-4.491A5.51,5.51,0,0,1,46.4,0,5.51,5.51,0,0,1,50.66,1.591a6.382,6.382,0,0,1,1.468,4.491V8.7H48.45V5.835q0-2.3-1.945-2.3t-1.945,2.3V19.663q0,2.263,1.945,2.263t1.945-2.263V15.879h3.678v3.5a6.382,6.382,0,0,1-1.468,4.491A5.51,5.51,0,0,1,46.4,25.462ZM54.532.354h3.89V10.786L63.373.354h3.89L62.631,9.442l4.7,15.666H63.267L59.978,14.075l-1.556,3.147v7.886h-3.89Z" transform="translate(375 14.929)" fill="#fff"/>
    <g transform="matrix(1, 0, 0, 1, 370.95, 14.93)" filter="url(#Path_16830)">
      <path id="Path_16830-2" data-name="Path 16830" d="M0,9.3c.661-.11,2.2-.242,2.688-.286C1.587,11.59.639,14.367.639,16c0,.97.331,1.675,1.9,1.785a21.031,21.031,0,0,1,1.08-5.773c.066-.22.529-1.763.9-3.107,3.349-.066,3.856-.11,4.539-1.058-1.5-.044-2.6-.242-4.121-.353.705-2.226,1.388-4.385,1.983-5.8,1.3.088,2.468.353,3.173.353.859,0,1.631-.4,3.041-1.961a7.783,7.783,0,0,1-2.226.331C9.563.419,7.955.11,6.39.11,2.776.11,0,1.741,0,4.032c0,.992.529,1.7,1.917,1.917a4.811,4.811,0,0,1-.441-1.983c0-1.52.661-2.4,3.371-2.4a5.637,5.637,0,0,1,.793.044C4.826,3.283,4.01,5.354,3.239,7.47,1.564,7.514.11,7.955,0,9.3Zm9.144,6.985a25.683,25.683,0,0,0,3.239-6.765,1.656,1.656,0,0,1,1.1,1.41c0,1.036-1.168,2.71-1.168,3.922a1.624,1.624,0,0,0,1.829,1.587c1.983,0,3.834-2.071,4.693-3.988l-.4-.375c-.551,1.256-2.336,3.261-3.724,3.261-.286,0-.551-.088-.551-.507,0-.837,1.058-2.248,1.058-3.526,0-1.917-2.38-2.424-2.38-3,0-.2.242-.507.242-.9,0-.2-.066-.551-.4-.551-.507,0-1.146.793-1.146,1.564a.78.78,0,0,0,.22.595,27.182,27.182,0,0,1-3.019,6.853ZM21.154,8.373c-1.653,0-3.283,4.517-3.283,6.192a1.82,1.82,0,0,0,1.939,1.961c1.829,0,3.482-1.5,4.517-4.1L24,12.075c-1.278,2.512-2.468,3.371-3.459,3.371-.639,0-.992-.22-.992-1.168,0-1.939,2.27-4.517,2.27-5.266A.618.618,0,0,0,21.154,8.373Zm1.256-1.785a1.651,1.651,0,0,0,1.609-1.322c0-.617-.419-.815-.948-.815-.815,0-1.763.573-1.763,1.278C21.308,6.324,21.859,6.588,22.409,6.588ZM30.3,8.99a.563.563,0,0,0,.264-.507c0-.507-.419-.705-1.08-.705-3.085,0-6.258,4.319-6.258,6.765A1.865,1.865,0,0,0,25.1,16.526c1.3,0,2.931-1.432,4.319-3.437a7.951,7.951,0,0,0-.176,1.432c0,1.036.4,1.917,1.609,1.917,1.653,0,3.57-1.675,4.539-4.1l-.419-.353c-1.014,2.093-2.468,3.261-3.415,3.261-.331,0-.441-.2-.441-.9,0-4.715,5-12.163,5-13.684A.641.641,0,0,0,35.5,0c-1.344,0-3.349,5.134-4.98,9.321-1.432,3.658-3.5,5.839-4.693,5.839-.463,0-.705-.353-.705-.925,0-1.653,1.983-5.487,4.407-5.487A.986.986,0,0,1,30.3,8.99Zm12.185,1.08c0-1.058-1.014-1.763-2.27-1.763-3.041,0-6.236,4.076-6.236,6.655A1.76,1.76,0,0,0,35.785,16.9c1.124,0,2.027-.881,3.2-2.292a1.811,1.811,0,0,0,1.829,1.917c1.653,0,3.393-1.653,4.473-4.054l-.419-.419c-1.322,2.512-2.732,3.437-3.437,3.437-.485,0-.661-.419-.661-.793,0-.97,1.256-2.336,1.256-2.909,0-.375-.507-.573-.793-.661C42,11.106,42.483,10.819,42.483,10.07Zm-1.675,1.1c-1.124,1.5-3.217,4.605-4.561,4.605-.353,0-.507-.2-.507-.705,0-2.027,2.468-5.949,4.517-5.949.749,0,.925.551.925,1.146a2.515,2.515,0,0,1-.11.815c-.022,0-.066-.022-.088-.022A.225.225,0,0,0,40.809,11.172ZM51.914,9.894a5.089,5.089,0,0,0-.705-.088c-1.3,0-1.278,1.719-1.41,2.159-.815,1.3-1.961,2.666-2.909,2.666-.507,0-.639-.375-.639-.815a9.76,9.76,0,0,1,1.41-4.032c-.132-.375-.947-.727-1.19-.727-.727,0-2.027,3.261-2.027,4.8a1.753,1.753,0,0,0,1.873,1.829c1.256,0,2.27-1.124,3.173-2.4-.308,1.124-.727,2.6-1.058,3.437-1.873.881-4.385,2.027-4.385,3.878a1.377,1.377,0,0,0,1.5,1.432c1.763,0,3.2-2.4,4.407-5.288a7.1,7.1,0,0,0,4.209-4.253l-.375-.308a6.348,6.348,0,0,1-3.548,3.724A31.862,31.862,0,0,0,51.914,9.894ZM45.326,21.22c-.308,0-.419-.331-.419-.617,0-1.08,1.7-2.2,3.107-2.909C46.978,20.052,45.877,21.22,45.326,21.22Z" transform="translate(16.5 18.04)" fill="#fa0"/>
    </g>
    <path id="Path_16831" data-name="Path 16831" d="M17.562.507a2.86,2.86,0,0,0-.97-.242c-.551,0-.793.331-1.212.97a65.655,65.655,0,0,0-6.17,12.053c0-1.807.419-4.936.419-7.822C9.629,1.08,8.66,0,7.051,0,4.936,0,2.512,1.851,2.512,3.724c0,.859.507,2.005,1.564,2.005a7.218,7.218,0,0,1-.088-1.058c0-1.564.815-3.548,2.644-3.548.485,0,.639.2.639.485a1.9,1.9,0,0,1-.2.727C2.931,11.414.308,16.879,0,17.782c2.005,0,3.239-4.076,7.734-14.5,0,.419.022.859.022,1.3,0,2.49-.176,5.509-.176,7.822,0,2.181.154,3.5,1.19,3.5a.7.7,0,0,0,.308-.066l.154-.044c.837-2.468,3.415-8.638,5.487-11.59a44.919,44.919,0,0,0-1.873,10.709c0,2.071.353,2.865,2.27,2.865a4.414,4.414,0,0,1-.441-2.137A61.137,61.137,0,0,1,17.562.507Zm6.126,14.058a3.243,3.243,0,0,0,2.865-2.159l-.4-.286a2.773,2.773,0,0,1-2.4,1.653,1.342,1.342,0,0,1-.617-.132,7.785,7.785,0,0,0,1.454-3.746,1.591,1.591,0,0,0-1.719-1.785,2.37,2.37,0,0,0-2.358,2.336,1.743,1.743,0,0,0-.683-.176c-1.322,0-2.644,2.358-2.644,4.231,0,1.036.4,2.071,1.719,2.071a5.358,5.358,0,0,0,3.68-2.2A3.615,3.615,0,0,0,23.688,14.565Zm-1.873-.683c-.705.837-1.564,1.564-2.115,1.564s-.749-.419-.749-1.014a6.389,6.389,0,0,1,1.542-3.79A4.288,4.288,0,0,0,21.815,13.882Zm-.066-2.865c0-1.19.727-2.093,1.3-2.093.4,0,.617.308.617.97a6.475,6.475,0,0,1-1.278,3.283A3.988,3.988,0,0,1,21.748,11.017Zm3.217,4.539A1.723,1.723,0,0,0,26.4,16.2c1.124-1.851,3.129-5.178,4.914-5.178.4,0,.771.22.771.859,0,.947-.617,2.027-.617,2.909s.617,1.52,1.763,1.52c1.763,0,3-1.785,3.944-3.944l-.375-.308c-.793,1.587-2.049,3.371-3.107,3.371-.264,0-.529-.176-.529-.639,0-.97.859-1.961.859-3.305a1.867,1.867,0,0,0-1.851-2.049c-1.5,0-3.019,1.476-4.165,3a9.167,9.167,0,0,0,.375-1.961c0-.419-.286-.661-.771-.661a1.754,1.754,0,0,0-1.146.529C26.464,12.229,25.032,15.248,24.966,15.557ZM43.1,8.99a.563.563,0,0,0,.264-.507c0-.507-.419-.705-1.08-.705-3.085,0-6.258,4.319-6.258,6.765A1.865,1.865,0,0,0,37.9,16.526c1.3,0,2.931-1.432,4.319-3.437a7.951,7.951,0,0,0-.176,1.432c0,1.036.4,1.917,1.609,1.917,1.653,0,3.57-1.675,4.539-4.1l-.419-.353c-1.014,2.093-2.468,3.261-3.415,3.261-.331,0-.441-.2-.441-.9,0-4.715,5-12.163,5-13.684A.641.641,0,0,0,48.3,0c-1.344,0-3.349,5.134-4.98,9.321-1.432,3.658-3.5,5.839-4.693,5.839-.463,0-.705-.353-.705-.925,0-1.653,1.983-5.487,4.407-5.487A.986.986,0,0,1,43.1,8.99Zm12.185,1.08c0-1.058-1.014-1.763-2.27-1.763-3.041,0-6.236,4.076-6.236,6.655A1.76,1.76,0,0,0,48.587,16.9c1.124,0,2.027-.881,3.2-2.292a1.811,1.811,0,0,0,1.829,1.917c1.653,0,3.393-1.653,4.473-4.054l-.419-.419c-1.322,2.512-2.732,3.437-3.437,3.437-.485,0-.661-.419-.661-.793,0-.97,1.256-2.336,1.256-2.909,0-.375-.507-.573-.793-.661C54.8,11.106,55.286,10.819,55.286,10.07Zm-1.675,1.1c-1.124,1.5-3.217,4.605-4.561,4.605-.353,0-.507-.2-.507-.705,0-2.027,2.468-5.949,4.517-5.949.749,0,.925.551.925,1.146a2.515,2.515,0,0,1-.11.815c-.022,0-.066-.022-.088-.022A.225.225,0,0,0,53.611,11.172ZM64.716,9.894a5.089,5.089,0,0,0-.705-.088c-1.3,0-1.278,1.719-1.41,2.159-.815,1.3-1.961,2.666-2.909,2.666-.507,0-.639-.375-.639-.815a9.76,9.76,0,0,1,1.41-4.032c-.132-.375-.948-.727-1.19-.727-.727,0-2.027,3.261-2.027,4.8a1.753,1.753,0,0,0,1.873,1.829c1.256,0,2.27-1.124,3.173-2.4-.308,1.124-.727,2.6-1.058,3.437-1.873.881-4.385,2.027-4.385,3.878a1.377,1.377,0,0,0,1.5,1.432c1.763,0,3.2-2.4,4.407-5.288a7.1,7.1,0,0,0,4.209-4.253l-.375-.308a6.348,6.348,0,0,1-3.548,3.724A31.862,31.862,0,0,0,64.716,9.894ZM58.128,21.22c-.308,0-.419-.331-.419-.617,0-1.08,1.7-2.2,3.107-2.909C59.781,20.052,58.679,21.22,58.128,21.22Z" transform="translate(469.931 32.15)" fill="#56e2ff"/>
  </g>
</svg>
