<svg width="71" height="30" viewBox="0 0 71 30" fill="none" xmlns="http://www.w3.org/2000/svg">
<path d="M10.8608 14.5C11.9345 15 12.7466 15.7361 13.2972 16.7083C13.8754 17.6806 14.1644 18.8611 14.1644 20.25V22.625C14.1644 24.7361 13.545 26.4306 12.3061 27.7083C11.0673 28.9583 9.40167 29.5833 7.30935 29.5833H0V0.416666H6.93769C9.03001 0.416666 10.6956 1.05556 11.9345 2.33333C13.1733 3.58333 13.7928 5.26389 13.7928 7.375V8.91667C13.7928 11.5278 12.8155 13.3889 10.8608 14.5ZM4.37735 4.58333V12.5H6.31825C7.36441 12.5 8.13527 12.25 8.63082 11.75C9.15389 11.2222 9.41543 10.4306 9.41543 9.375V7.29167C9.41543 6.43056 9.18143 5.76389 8.71341 5.29167C8.24539 4.81945 7.58466 4.58333 6.73121 4.58333H4.37735ZM9.7871 19.7917C9.7871 18.7361 9.52556 17.9583 9.00248 17.4583C8.50693 16.9306 7.73607 16.6667 6.68991 16.6667H4.37735V25.4167H7.10287C7.95632 25.4167 8.61705 25.1806 9.08507 24.7083C9.55309 24.2361 9.7871 23.5694 9.7871 22.7083V19.7917Z" fill="url(#paint0_linear_351_90)"/>
<path d="M18.1476 0.416666H30.3711V4.58333H22.5249V13.125H28.7193V17.2917H22.5249V29.5833H18.1476V0.416666Z" fill="url(#paint1_linear_351_90)"/>
<path d="M40.2379 30C38.2006 30 36.5488 29.3611 35.2824 28.0833C34.016 26.8056 33.3828 25.1389 33.3828 23.0833V6.91667C33.3828 4.86111 34.016 3.19444 35.2824 1.91667C36.5488 0.638889 38.2006 0 40.2379 0C42.2751 0 43.927 0.638889 45.1934 1.91667C46.4598 3.19444 47.093 4.86111 47.093 6.91667V10.3333H42.7982V6.91667C42.7982 6.08333 42.5642 5.41667 42.0962 4.91667C41.6282 4.41667 41.0225 4.16667 40.2792 4.16667C39.5359 4.16667 38.9302 4.41667 38.4622 4.91667C37.9941 5.41667 37.7601 6.08333 37.7601 6.91667V23.0833C37.7601 23.9167 37.9941 24.5833 38.4622 25.0833C38.9302 25.5833 39.5359 25.8333 40.2792 25.8333C41.0225 25.8333 41.6282 25.5833 42.0962 25.0833C42.5642 24.5833 42.7982 23.9167 42.7982 23.0833V18.9167H47.093V23.0833C47.093 25.1389 46.4598 26.8056 45.1934 28.0833C43.927 29.3611 42.2751 30 40.2379 30Z" fill="url(#paint2_linear_351_90)"/>
<path d="M71 0.416666V29.5833H66.6226V9.58333L62.5344 29.5833H59.4785L55.3902 9.58333V29.5833H51.0954V0.416666H57.2898L61.089 19.0417L64.723 0.416666H71Z" fill="url(#paint3_linear_351_90)"/>
<defs>
<linearGradient id="paint0_linear_351_90" x1="-19.0048" y1="17.5558" x2="21.3669" y2="60.375" gradientUnits="userSpaceOnUse">
<stop stop-color="#FFFA8A"/>
<stop offset="1" stop-color="#85FAC9"/>
</linearGradient>
<linearGradient id="paint1_linear_351_90" x1="-19.0048" y1="17.5558" x2="21.3669" y2="60.375" gradientUnits="userSpaceOnUse">
<stop stop-color="#FFFA8A"/>
<stop offset="1" stop-color="#85FAC9"/>
</linearGradient>
<linearGradient id="paint2_linear_351_90" x1="-19.0048" y1="17.5558" x2="21.3669" y2="60.375" gradientUnits="userSpaceOnUse">
<stop stop-color="#FFFA8A"/>
<stop offset="1" stop-color="#85FAC9"/>
</linearGradient>
<linearGradient id="paint3_linear_351_90" x1="-19.0048" y1="17.5558" x2="21.3669" y2="60.375" gradientUnits="userSpaceOnUse">
<stop stop-color="#FFFA8A"/>
<stop offset="1" stop-color="#85FAC9"/>
</linearGradient>
</defs>
</svg>
