<svg xmlns="http://www.w3.org/2000/svg" width="176" height="37.256" viewBox="0 0 176 37.256">
  <g id="Group_5244" data-name="Group 5244" transform="translate(-565 -23)">
    <g id="Group_5241" data-name="Group 5241" transform="translate(565 23)">
      <path id="Path_6369" data-name="Path 6369" d="M108.477,522.641l5.91-5.91,1.926-1.926,1.926,1.926,7.922,7.922,6-6-6-6L122.1,516.72l-3.853-3.853,5.985-5.985,1.926-1.928,1.926,1.928,9.85,9.85,1.926,1.926-1.926,1.927-9.85,9.85-1.926,1.926-1.926-1.926-7.922-7.922L112.33,526.5Zm-.086-11.906-7.922,7.922,6,6,3.853,3.854-1.926,1.926-1.926,1.926-1.928-1.926-9.85-9.85-1.926-1.928,1.926-1.926,9.85-9.85Z" transform="translate(-92.761 -504.955)" fill="#fff"/>
      <rect id="Rectangle_1814" data-name="Rectangle 1814" width="10.962" height="10.962" transform="translate(15.801 29.505) rotate(-45)" fill="#fff"/>
    </g>
    <g id="Group_5243" data-name="Group 5243" transform="translate(619.055 28.356)">
      <g id="Group_5242" data-name="Group 5242" transform="translate(0 0)">
        <path id="Path_6370" data-name="Path 6370" d="M273.718,539.93,269.944,528.4l-.272-.062-3.817,11.6h-4.527l-6.516-18.657h5.234l3.737,12.284,3.845-12.284h4.706l3.868,12.313,3.641-12.313h5.127l-6.516,18.657Z" transform="translate(-254.812 -520.819)" fill="#fff"/>
        <path id="Path_6371" data-name="Path 6371" d="M351.667,537.17v9.4h-5.055V520.507h4.665v2.273a6.649,6.649,0,0,1,5.91-2.706,7.731,7.731,0,0,1,6.267,2.777,11.678,11.678,0,0,1,0,13.959,7.732,7.732,0,0,1-6.267,2.777,7.5,7.5,0,0,1-3.293-.694,5.969,5.969,0,0,1-2.226-1.724Zm1.122-11.145a6.374,6.374,0,0,0,0,7.62,4.453,4.453,0,0,0,6.658,0,6.374,6.374,0,0,0,0-7.62,4.453,4.453,0,0,0-6.658,0Z" transform="translate(-313.927 -520.053)" fill="#fff"/>
        <path id="Path_6372" data-name="Path 6372" d="M421.518,539.93,417.744,528.4l-.272-.062-3.817,11.6h-4.527l-6.516-18.657h5.234l3.738,12.284,3.845-12.284h4.706L424,533.591l3.641-12.313h5.127l-6.516,18.657Z" transform="translate(-349.989 -520.819)" fill="#fff"/>
        <path id="Path_6373" data-name="Path 6373" d="M496.067,539.59a6.608,6.608,0,0,1-4.949-1.656,5.91,5.91,0,0,1-1.6-4.291,5.134,5.134,0,0,1,2.063-4.575,11.312,11.312,0,0,1,6.3-1.407h3.7v-.783q0-2.634-3.346-2.635-2.991,0-3.311,2.279h-4.985a6.853,6.853,0,0,1,2.278-4.593,8.835,8.835,0,0,1,6.124-1.851,9.029,9.029,0,0,1,6.125,1.821,6.467,6.467,0,0,1,2.063,5.127v12.138h-4.491V537.1Q500.447,539.591,496.067,539.59Zm5.519-7.9v-.214H498.56a9,9,0,0,0-3.156.409,1.7,1.7,0,0,0-1.015,1.763q0,2.03,2.849,2.029a4.561,4.561,0,0,0,3.365-1.015,4.119,4.119,0,0,0,.983-2.971Z" transform="translate(-405.952 -520.053)" fill="#fff"/>
        <path id="Path_6374" data-name="Path 6374" d="M560.909,521.274l-6.748,9.184,6.961,9.468h-6.088l-3.917-5.331-3.917,5.331h-6.088l6.961-9.468-6.747-9.184h6.084l3.7,5.041,3.7-5.041Z" transform="translate(-439.178 -520.82)" fill="#fff"/>
      </g>
    </g>
  </g>
</svg>
