<svg xmlns="http://www.w3.org/2000/svg" width="309.759" height="26.429" viewBox="0 0 309.759 26.429">
  <g id="Group_30437" data-name="Group 30437" transform="translate(-375 70.069)">
    <path id="Path_32100" data-name="Path 32100" d="M5.512-24.937,10.5-8.178v-16.76h3.759V0H10.222L5.051-15.969V0H1.293V-24.937ZM16.844,0V-24.937h10.7v3.778H20.6v6.8h5.071v3.778H20.6v6.8h6.94V0ZM45.572-24.918h3.945L45.619,0H42.04L39.9-13.709,37.9,0H34.3L30.128-24.918h3.938l1.969,13.344,1.81-13.344h3.937l1.967,13.333ZM62.719-10.44l-5.031-14.5h4.136l2.784,8.949,2.764-8.949h4.156l-5.051,14.5V0H62.719ZM74.114,0V-24.937h10.7v3.778h-6.94v6.8h5.071v3.778H77.872v6.8h6.94V0ZM92.225-5.727,91.311,0H87.4l4.236-24.918H96.8L100.98,0H97.028l-.879-5.727ZM94.2-19.21,92.807-9.386h2.784Zm15.293-5.707a5.731,5.731,0,0,1,4.614,1.73,6.287,6.287,0,0,1,1.293,4.216v3.619a5.823,5.823,0,0,1-2.009,4.474L116.173,0h-4.065L109.83-9.386h-2.506V0h-3.759V-24.918Zm2.247,6.006a1.907,1.907,0,0,0-2.148-2.168h-2.267v7.974h2.267a2.055,2.055,0,0,0,1.521-.636,2.1,2.1,0,0,0,.626-1.531ZM136.773-6.2A7.008,7.008,0,0,1,135.42-1.75,4.871,4.871,0,0,1,132.835.02,7.048,7.048,0,0,1,130.747.3,5.91,5.91,0,0,1,127.088-.8a6.118,6.118,0,0,1-1.919-2.436,9.829,9.829,0,0,1-.825-3.53l3.58-.259a5.441,5.441,0,0,0,1.153,3.158,1.924,1.924,0,0,0,1.551.7A2.331,2.331,0,0,0,132.6-4.376a3.015,3.015,0,0,0,.378-1.652,4.587,4.587,0,0,0-1.412-3.085l-3.341-3.165a14.274,14.274,0,0,1-2.645-3.245,7.5,7.5,0,0,1-.835-3.5,6.093,6.093,0,0,1,2.287-5.155,5.683,5.683,0,0,1,3.5-1.055,6.361,6.361,0,0,1,3.44.895,5.17,5.17,0,0,1,1.8,1.949,7.213,7.213,0,0,1,.825,2.884l-3.6.656a4.339,4.339,0,0,0-.875-2.386,1.837,1.837,0,0,0-1.491-.616,1.718,1.718,0,0,0-1.571.915,3.527,3.527,0,0,0-.437,1.83,5.49,5.49,0,0,0,1.472,3.48,12.434,12.434,0,0,0,1.67,1.591q1.313,1.094,1.73,1.531a12.753,12.753,0,0,1,2.148,2.744,10.52,10.52,0,0,1,.577,1.173A6.832,6.832,0,0,1,136.773-6.2Zm7.412.477L143.272,0h-3.914l4.236-24.918h5.17L152.94,0h-3.952l-.879-5.727Zm1.974-13.483-1.392,9.824h2.784ZM165.767,0H155.526V-24.918h3.759V-3.739h6.483Zm2.585,0V-24.937h10.7v3.778h-6.94v6.8h5.071v3.778h-5.071v6.8h6.94V0Z" transform="translate(505.707 -43.938)" fill="#fff"/>
    <path id="Path_32101" data-name="Path 32101" d="M15.949-11.733a25.121,25.121,0,0,1-2.426,6.722,4.086,4.086,0,0,0,2.526,1.332V-.2a7.061,7.061,0,0,1-4.514-1.989A6.548,6.548,0,0,1,6.761.159,5.014,5.014,0,0,1,2.267-2.267a6.378,6.378,0,0,1-.974-3.5,9.819,9.819,0,0,1,.935-4.017q.159-.338,1.054-1.83.5-.8.994-1.531L3.5-14.915q-.557-1.233-.756-1.75a10.7,10.7,0,0,1-.557-1.83,8.912,8.912,0,0,1-.179-1.75,6.451,6.451,0,0,1,.736-3.062,4.962,4.962,0,0,1,2.188-2.207,5.159,5.159,0,0,1,2.506-.616,5.337,5.337,0,0,1,2.8.766,5.057,5.057,0,0,1,1.949,2.118,5.3,5.3,0,0,1,.537,2.366,6.878,6.878,0,0,1-1.571,4.276l-.815,1.054Q9.227-14.1,8.293-12.827a35.7,35.7,0,0,0,2.824,4.872,22.62,22.62,0,0,0,1.432-4.534ZM5.469-20.264a12.094,12.094,0,0,0,1.153,3.858L7.1-17l.5-.656.8-1.054a3.642,3.642,0,0,0,.875-2.148,2.593,2.593,0,0,0-.2-1.134,1.7,1.7,0,0,0-1.631-1.253,1.7,1.7,0,0,0-1.531,1.054A4.1,4.1,0,0,0,5.469-20.264ZM6.761-3.3A3.455,3.455,0,0,0,9.168-4.733,35.781,35.781,0,0,1,6.085-9.545q-.358.6-.716,1.233a6.425,6.425,0,0,0-.6,2.545,2.893,2.893,0,0,0,.457,1.69A1.751,1.751,0,0,0,6.761-3.3Z" transform="translate(478.707 -43.938)" fill="#fff"/>
    <path id="Path_32102" data-name="Path 32102" d="M5.051-10.56V0H1.293V-24.918H5.051v10.58H9.585v-10.58h3.759V0H9.585V-10.56ZM21.875-25.236a5.737,5.737,0,0,1,4.226,1.75,5.763,5.763,0,0,1,1.74,4.216v13.6a5.737,5.737,0,0,1-1.75,4.226A5.763,5.763,0,0,1,21.875.3a5.7,5.7,0,0,1-4.216-1.75,5.78,5.78,0,0,1-1.73-4.216v-13.6a5.737,5.737,0,0,1,1.75-4.226A5.74,5.74,0,0,1,21.875-25.236Zm2.048,5.886a2.071,2.071,0,0,0-.626-1.521,2.071,2.071,0,0,0-1.521-.626,2.1,2.1,0,0,0-1.531.626,2.055,2.055,0,0,0-.636,1.521V-5.707a2.055,2.055,0,0,0,.636,1.521,2.1,2.1,0,0,0,1.531.626A2.071,2.071,0,0,0,23.3-4.186a2.071,2.071,0,0,0,.626-1.521ZM40.668,0H30.426V-24.918h3.759V-3.739h6.483Zm6.344,0H43.253V-24.918h3.759Zm14.4-5.966a5.78,5.78,0,0,1-1.73,4.216A5.658,5.658,0,0,1,55.5,0H49.6V-24.937H55.5a5.649,5.649,0,0,1,4.186,1.75,5.773,5.773,0,0,1,1.72,4.2ZM53.355-3.719h2.267a2.008,2.008,0,0,0,1.511-.646,2.132,2.132,0,0,0,.616-1.521V-18.932a2.1,2.1,0,0,0-.626-1.531,2.032,2.032,0,0,0-1.5-.636H53.355ZM68.821-5.727,67.908,0H63.994L68.23-24.918H73.4L77.576,0H73.625l-.879-5.727ZM70.8-19.21,69.4-9.386h2.784Zm14.4,8.77-5.031-14.5H84.3l2.784,8.949,2.764-8.949H94l-5.051,14.5V0H85.193Z" transform="translate(373.707 -43.938)" fill="#fff"/>
  </g>
</svg>
