<svg xmlns="http://www.w3.org/2000/svg" width="118.349" height="37.693" viewBox="0 0 118.349 37.693">
  <g id="Group_30396" data-name="Group 30396" transform="translate(-758.242 -14.841)">
    <g id="Group_30383" data-name="Group 30383" transform="translate(810.805 1.431)">
      <g id="Group_25309" data-name="Group 25309" transform="matrix(0.995, 0.105, -0.105, 0.995, 4.235, 8.569)">
        <path id="Path_21495" data-name="Path 21495" d="M.856,9.234A2.832,2.832,0,0,1,0,6.955v-1.6A3.784,3.784,0,0,1,.856,2.8,3.847,3.847,0,0,1,3.274,1.556,2.883,2.883,0,0,1,5.7,2.037a2.88,2.88,0,0,1,.849,2.305V5.918a3.779,3.779,0,0,1-.855,2.557A3.856,3.856,0,0,1,3.274,9.715,2.887,2.887,0,0,1,.856,9.234M11.121.493,14.233,0l-9.5,20.129-3.112.493ZM3.693,6.806a1.016,1.016,0,0,0,.144-.573V4.823a.731.731,0,0,0-.144-.5.431.431,0,0,0-.419-.12.594.594,0,0,0-.419.252.986.986,0,0,0-.144.567V6.41a.8.8,0,0,0,.144.534.431.431,0,0,0,.419.12.592.592,0,0,0,.419-.259m6.2,11.834a2.831,2.831,0,0,1-.856-2.279v-1.6a3.783,3.783,0,0,1,.856-2.55,3.843,3.843,0,0,1,2.418-1.248,2.884,2.884,0,0,1,2.424.481,2.882,2.882,0,0,1,.85,2.306v1.575a3.776,3.776,0,0,1-.856,2.557,3.856,3.856,0,0,1-2.418,1.241,2.885,2.885,0,0,1-2.418-.482m2.837-2.428a1.017,1.017,0,0,0,.143-.573V14.229a.734.734,0,0,0-.143-.5.431.431,0,0,0-.419-.119.6.6,0,0,0-.419.252.985.985,0,0,0-.143.567v1.384a.8.8,0,0,0,.143.534.43.43,0,0,0,.419.119.589.589,0,0,0,.419-.258" transform="translate(46.307 0)" fill="#fff"/>
        <path id="Path_21496" data-name="Path 21496" d="M6.026,19.754V11.646a7.269,7.269,0,0,1,.857-3.8,3.623,3.623,0,0,1,2.683-1.7A2.588,2.588,0,0,1,12.249,7a5.867,5.867,0,0,1,.858,3.527v8.108l6.026-.954V7.992q0-4.441-2.442-6.489T9.566.2A11.371,11.371,0,0,0,2.452,3.77,10.688,10.688,0,0,0,0,11.023v14.9Q0,30.3,2.441,32.379a6.594,6.594,0,0,0,3.585,1.454V19.754Z" transform="translate(25.639 3.636)" fill="#fff"/>
        <path id="Path_21497" data-name="Path 21497" d="M1.994,11.889A2.943,2.943,0,0,1,.521,10.6,4.314,4.314,0,0,1,0,8.4V5.069A5.3,5.3,0,0,1,.521,2.708,4.659,4.659,0,0,1,1.994.953a5.036,5.036,0,0,1,2.2-.887,4.067,4.067,0,0,1,2.2.19A2.941,2.941,0,0,1,7.865,1.545a4.322,4.322,0,0,1,.521,2.2V7.076a5.306,5.306,0,0,1-.521,2.361,4.665,4.665,0,0,1-1.472,1.755,5.035,5.035,0,0,1-2.2.887,4.072,4.072,0,0,1-2.2-.19M5.22,9.444A2.167,2.167,0,0,0,5.9,8.611a2.587,2.587,0,0,0,.241-1.123V4.04A2.12,2.12,0,0,0,5.9,2.993a1.37,1.37,0,0,0-.683-.617,1.874,1.874,0,0,0-1.026-.092A2.314,2.314,0,0,0,3.166,2.7a2.178,2.178,0,0,0-.683.833,2.589,2.589,0,0,0-.241,1.123V8.106a2.118,2.118,0,0,0,.241,1.046,1.376,1.376,0,0,0,.683.617,1.865,1.865,0,0,0,1.027.092A2.309,2.309,0,0,0,5.22,9.444" transform="translate(34.63 24.702)" fill="#fff"/>
        <path id="Path_21498" data-name="Path 21498" d="M0,1.195,2.164.852V12.622L0,12.964ZM.789,1.07,7.541,0V2.137L.789,3.207Zm0,4.962L6.673,5.1V7.237L.789,8.168Z" transform="translate(45.149 22.694)" fill="#fff"/>
        <path id="Path_21499" data-name="Path 21499" d="M0,1.195,2.164.852V12.622L0,12.964ZM.79,1.07,7.541,0V2.137L.79,3.207Zm0,4.962L6.673,5.1V7.237L.79,8.168Z" transform="translate(54.347 21.237)" fill="#fff"/>
        <path id="Path_21500" data-name="Path 21500" d="M0,24.687,9.853,1.08,16.669,0,7.081,23.3l14.36-2.274v5.951L0,30.368ZM12.909,14.077l6.025-.954v19.3l-6.025.954Z" transform="translate(0 7.141)" fill="#fff"/>
      </g>
    </g>
    <path id="Path_32099" data-name="Path 32099" d="M5.037.23A3.726,3.726,0,0,1,2.3-.817,3.665,3.665,0,0,1,1.242-3.542V-16.1H3.68V-3.542A1.487,1.487,0,0,0,4.06-2.461a1.3,1.3,0,0,0,.977.391,1.3,1.3,0,0,0,.977-.391,1.487,1.487,0,0,0,.38-1.081V-16.1H8.786V-3.542A3.709,3.709,0,0,1,7.751-.817,3.648,3.648,0,0,1,5.037.23ZM11.362-16.1H15.18a3.738,3.738,0,0,1,2.783,1.047A3.8,3.8,0,0,1,19-12.259v1.886a3.8,3.8,0,0,1-1.035,2.795A3.738,3.738,0,0,1,15.18-6.532H13.8V0H11.362Zm3.7,7.268a1.493,1.493,0,0,0,1.1-.391,1.493,1.493,0,0,0,.391-1.1v-1.978a1.493,1.493,0,0,0-.391-1.1,1.493,1.493,0,0,0-1.1-.391H13.8v4.968Zm9.8-7.268h7.774v2.3H29.969V0H27.531V-13.8H24.863ZM38.226.23A3.848,3.848,0,0,1,35.4-.84a3.787,3.787,0,0,1-1.081-2.818v-8.786A3.787,3.787,0,0,1,35.4-15.26a3.848,3.848,0,0,1,2.829-1.07,3.848,3.848,0,0,1,2.829,1.07,3.787,3.787,0,0,1,1.081,2.818v8.786A3.787,3.787,0,0,1,41.055-.84,3.848,3.848,0,0,1,38.226.23Zm0-2.3a1.415,1.415,0,0,0,1.081-.414A1.642,1.642,0,0,0,39.7-3.657v-8.786a1.642,1.642,0,0,0-.391-1.173,1.415,1.415,0,0,0-1.081-.414,1.415,1.415,0,0,0-1.081.414,1.642,1.642,0,0,0-.391,1.173v8.786a1.642,1.642,0,0,0,.391,1.173A1.415,1.415,0,0,0,38.226-2.07Z" transform="translate(757 42)" fill="#fff"/>
  </g>
</svg>
