<svg xmlns="http://www.w3.org/2000/svg" xmlns:xlink="http://www.w3.org/1999/xlink" width="107.764" height="45.521" viewBox="0 0 107.764 45.521">
  <defs>
    <linearGradient id="linear-gradient" x1="-1.102" y1="-0.349" x2="4.051" y2="2.351" gradientUnits="objectBoundingBox">
      <stop offset="0.127" stop-color="#ffbd24"/>
      <stop offset="0.398" stop-color="#f9f3a2"/>
      <stop offset="0.54" stop-color="#ffd142"/>
      <stop offset="0.884" stop-color="#c86c29"/>
    </linearGradient>
    <linearGradient id="linear-gradient-2" x1="-1.805" y1="-0.06" x2="2.271" y2="0.951" xlink:href="#linear-gradient"/>
    <linearGradient id="linear-gradient-3" x1="-1.989" y1="-0.532" x2="1.128" y2="0.804" xlink:href="#linear-gradient"/>
    <linearGradient id="linear-gradient-4" x1="0.031" y1="0.28" x2="2.802" y2="1.295" xlink:href="#linear-gradient"/>
  </defs>
  <g id="Sale_top_banner_img" data-name="Sale top banner img" transform="translate(-703.903 -268.089)">
    <path id="Path_8092" data-name="Path 8092" d="M-105.919-100.66c-3.545,0-6.78,1.714-6.78,5.525,0,3.368,2.511,5.067,5.392,6.9,2.659,1.714,4.535,3.146,4.535,5.628,0,2.26-1.64,3.383-3.752,3.383-3.87,0-5.259-3.56-5.51-7.593h-.694c0,4.816-.03,6.751-.118,8.169h.694c.118-.872.266-1.33.665-1.33a2.111,2.111,0,0,1,1.034.428,9.345,9.345,0,0,0,4.86,1.123c4.062,0,7.5-1.906,7.5-5.894,0-3.279-2.245-4.919-5.111-6.825-3.383-2.275-5.229-3.265-5.229-5.7a3.028,3.028,0,0,1,3.324-3.087c3.235,0,4.934,3.294,5.141,6.441h.694c0-4.254.059-5.7.162-6.9H-99.8c-.133.872-.281,1.33-.68,1.33a2.121,2.121,0,0,1-1.019-.428A7.559,7.559,0,0,0-105.919-100.66Zm16.276,5.732a9.224,9.224,0,0,0-4.594,1.034,2.971,2.971,0,0,0-1.7,2.526,2.141,2.141,0,0,0,2.142,2.334,2.223,2.223,0,0,0,2.467-2.172,2.4,2.4,0,0,0-1.787-2.378,3.2,3.2,0,0,1,2.157-.739c1.787,0,2.467,1.123,2.467,2.7v2.364c0,1.3-1.743,1.876-3.974,2.718-2.807,1.034-4.254,2.26-4.254,4.446s1.566,3.442,3.826,3.442A5.11,5.11,0,0,0-88.431-81.1c.015,1.3.694,2.452,2.91,2.452a5.061,5.061,0,0,0,3.457-1.108l-.31-.517a1.841,1.841,0,0,1-1.108.517c-.487,0-.65-.369-.65-1.344v-8.228c0-2.112-.192-3.324-1.078-4.24C-86.186-94.573-87.693-94.928-89.642-94.928ZM-88.49-81.81a2.412,2.412,0,0,1-2.039,1.226c-1.078,0-1.891-.68-1.891-2.349a4.222,4.222,0,0,1,2.053-3.59,5.756,5.756,0,0,0,1.876-1.492ZM-75.8-102.536a19.609,19.609,0,0,1-4.417.414c-.606,0-1.241-.03-1.876-.089v.635c1.462,0,1.935.857,1.935,2.674v17.239c0,1.684-.517,2.172-1.935,2.172v.635c.812-.03,2.615-.118,4.2-.118s3.265.089,4.033.118v-.635c-1.4,0-1.935-.487-1.935-2.172ZM-64.7-80.924c-1.92,0-3.944-1.64-3.944-5.85,0-.487.015-.99.059-1.433h8.465c0-4.742-2.157-6.721-5.687-6.721-4.3,0-7.4,2.792-7.4,8.405,0,5.525,2.9,8.1,6.973,8.1a6.375,6.375,0,0,0,6.057-4.712l-.547-.207A4.443,4.443,0,0,1-64.7-80.924Zm-1.285-13.354c1.477,0,2.112,2.541,2.053,5.5h-4.742C-68.421-92.7-67.342-94.278-65.983-94.278Z" transform="translate(854.068 392.037)" fill="#fff"/>
    <g id="Group_5878" data-name="Group 5878" transform="translate(703.903 268.089)">
      <path id="Path_8093" data-name="Path 8093" d="M-386.166,135.712a.3.3,0,0,0-.323.323.343.343,0,0,0,.086.232,3.277,3.277,0,0,1,.327,1.612,8.246,8.246,0,0,1-1.206,3.572c-.783,1.452-1.649,2.188-2.572,2.188h-.358c-.247,0-1,0-1-1.576a3.913,3.913,0,0,1,.517-1.891A16.356,16.356,0,0,1-389.4,138.2c.705-.932.8-1.185.8-1.32a.835.835,0,0,0-.341-.586,1.039,1.039,0,0,0-.7-.3c-.386,0-1.18.325-3.615,3.138-.1.118-.859,1.034-2.313,2.793a24.506,24.506,0,0,1,1.263-2.488c1.52-2.72,1.52-2.831,1.52-2.912a.929.929,0,0,0-.286-.543.871.871,0,0,0-.67-.344c-.4,0-1.106.393-2.649,3.794l-.151.335a17.584,17.584,0,0,1-2.751,2.733c-1.413,1.2-2.569,1.807-3.435,1.807-.821,0-1.2-.4-1.2-1.273a3.028,3.028,0,0,1,.336-1.384,1.507,1.507,0,0,0,.3.029,8.137,8.137,0,0,0,3.866-1.426c1.594-.962,2.4-2,2.4-3.081a1.228,1.228,0,0,0-.454-.96,1.688,1.688,0,0,0-1.135-.382c-1.323,0-2.825.868-4.463,2.581s-2.466,3.248-2.466,4.568a2.164,2.164,0,0,0,1.87,2.131,1.9,1.9,0,0,0,.6.091,6.68,6.68,0,0,0,3.643-1.544,17.771,17.771,0,0,0,1.9-1.582,6.747,6.747,0,0,0-.551,1.785c0,.244.182.477.556.712a1.708,1.708,0,0,0,.841.327h.089l.046-.076a31.8,31.8,0,0,1,2.081-2.832c.765-.964,1.4-1.721,1.889-2.262a7.59,7.59,0,0,0-.272,1.847,3.729,3.729,0,0,0,.616,2.011,1.935,1.935,0,0,0,1.689,1.009,5.079,5.079,0,0,0,3.865-2.135,6.589,6.589,0,0,0,1.771-4.161,3.711,3.711,0,0,0-.345-1.882A1,1,0,0,0-386.166,135.712Zm-14.293,2.262a3.652,3.652,0,0,1,1.894-1.037c.164,0,.544.017.544.172a.553.553,0,0,1-.047.2,4.789,4.789,0,0,1-2.123,2.353,5.655,5.655,0,0,1-2.709,1.09c-.035,0-.069,0-.1,0A12.408,12.408,0,0,1-400.459,137.974Z" transform="translate(430.031 -125.864)" fill="url(#linear-gradient)"/>
      <path id="Path_8094" data-name="Path 8094" d="M-306.141,112.789c0-.13-.059-.433-.6-.433a3.23,3.23,0,0,0-2.525,1.693,44.463,44.463,0,0,1-4.9,5.7,50.613,50.613,0,0,1-6.681,5.79,3.562,3.562,0,0,1-1.683.824c-.215,0-.434-.071-.434-.6a5.234,5.234,0,0,1,.564-1.972,8.5,8.5,0,0,1,1.244-2.043,80.03,80.03,0,0,0,4.882-6.413,7.694,7.694,0,0,0,1.567-3.555,1.914,1.914,0,0,0-.916-1.759,4.953,4.953,0,0,0-2.532-.532,13.5,13.5,0,0,0-4.278.945,17.2,17.2,0,0,0-4.25,2.112c-3.678,2.625-5.544,5.243-5.544,7.78a3.813,3.813,0,0,0,.691,2.295,2.316,2.316,0,0,0,1.44,1.068,7.892,7.892,0,0,0,.945.1,7.706,7.706,0,0,0,3.993-1.318c1.312-.837,2.046-1.6,2.242-2.321l.077-.284-.28.093a18.5,18.5,0,0,0-2.3,1.452,5.408,5.408,0,0,1-3.019,1.182,3.443,3.443,0,0,1-.923-.132,1.759,1.759,0,0,1-1.451-1.884,6.471,6.471,0,0,1,1.24-3.464,12.139,12.139,0,0,1,3.37-3.342c3.389-2.32,6.072-3.5,7.975-3.5a3.761,3.761,0,0,1,1.746.4c.2.1.3.329.3.7a5.692,5.692,0,0,1-.9,2.178,26.285,26.285,0,0,1-2.3,3.324c-.947,1.181-1.739,2.157-2.421,2.985s-1.078,1.307-1.171,1.419a7.53,7.53,0,0,0-1.906,4.64c0,1.655.939,2,1.727,2a5.862,5.862,0,0,0,2.806-1.013,21.347,21.347,0,0,0,3.071-2.735c1.348-1.347,3.58-3.681,6.644-6.942l-4.321,7.706c-3.24,6.081-5.99,9.164-8.173,9.164a1.576,1.576,0,0,1-1.457-.66,9.2,9.2,0,0,1-.538-1.538l-.026-.093-.095-.019a2.413,2.413,0,0,0-.444-.058.664.664,0,0,0-.736.736,2.235,2.235,0,0,0,1.069,1.779,3.588,3.588,0,0,0,2.145.774,6.588,6.588,0,0,0,3.74-1.475,14.932,14.932,0,0,0,3.8-4.382c3.963-6.649,7.14-12.058,9.455-16.106A.938.938,0,0,0-306.141,112.789Z" transform="translate(382.89 -109.058)" fill="url(#linear-gradient-2)"/>
      <path id="Path_8095" data-name="Path 8095" d="M-237.028,110.073c-4.226-3.458-12.624-1.139-17.782.4s-5.175,2.722-3.8,3.513c3.43,1.976,9.235-3.787,15.162-4.12s8.562,3.68,8.507,6.919a10.588,10.588,0,0,1-1.879,5.306,11.584,11.584,0,0,1-2.8,3,5.339,5.339,0,0,1-3.017,1.318c-.718,0-1.053-.365-1.053-1.15a6.6,6.6,0,0,1,1.728-3.466l1.9-2.394.024-.042a.633.633,0,0,0-.2-.657.811.811,0,0,0-.585-.327.744.744,0,0,0-.358.051l-.713.439a2.07,2.07,0,0,1-1.021.336c-.613,0-.685-.228-.694-.369l.624-.833a2.612,2.612,0,0,0,.723-1.5c0-.265-.1-.708-.791-.708-.728,0-1.3.816-1.745,2.5a25.865,25.865,0,0,1-3.355,4.659,3.867,3.867,0,0,0-.245.3c-2.119,2.409-3.169,2.976-3.683,2.976-.146,0-.352-.053-.456-.526a.355.355,0,0,1-.019-.115c0-.625.565-1.776,1.679-3.421,1.734-2.559,1.734-2.658,1.734-2.745,0-.143-.1-.3-.328-.5a1.015,1.015,0,0,0-.684-.288l-.309.062-.01-.028-.144-.385a1.359,1.359,0,0,0-1.354-.722c-1.6,0-3.364.955-5.258,2.839a16.89,16.89,0,0,0-1.288,1.425,1.417,1.417,0,0,0-.238.255,17.515,17.515,0,0,1-2.84,2.839c-1.413,1.2-2.569,1.807-3.434,1.807-.822,0-1.2-.4-1.2-1.273a3.028,3.028,0,0,1,.336-1.384,1.507,1.507,0,0,0,.3.029,8.136,8.136,0,0,0,3.866-1.426c1.594-.962,2.4-2,2.4-3.081a1.229,1.229,0,0,0-.454-.96,1.687,1.687,0,0,0-1.135-.382c-1.324,0-2.825.868-4.463,2.581s-2.466,3.248-2.466,4.568a2.164,2.164,0,0,0,1.87,2.131,1.9,1.9,0,0,0,.6.091,6.681,6.681,0,0,0,3.643-1.544,17.819,17.819,0,0,0,1.719-1.416,3.328,3.328,0,0,0-.071.655,1.887,1.887,0,0,0,.81,1.588,2.53,2.53,0,0,0,1.482.5c.531,0,1.335-.481,2.463-1.476l1.357-1.313a4.172,4.172,0,0,0-.029.484,1.932,1.932,0,0,0,1.313,1.965c1.233.462,3.015-.82,5.474-3.967.254-.293.564-.664.954-1.149l1.885-2.446a1.32,1.32,0,0,0,1.127.8h.026a12.083,12.083,0,0,0-1.134,2.062,6.529,6.529,0,0,0-.619,2.6c0,1.621.748,2.442,2.222,2.442a6.774,6.774,0,0,0,3.676-1.658,16.534,16.534,0,0,0,1.672-1.505C-232.347,119.09-232.8,113.531-237.028,110.073Zm-25.742,10.311a3.652,3.652,0,0,1,1.894-1.037c.164,0,.544.017.544.172a.553.553,0,0,1-.047.2,4.787,4.787,0,0,1-2.123,2.353,5.654,5.654,0,0,1-2.709,1.09c-.035,0-.07,0-.1,0A12.408,12.408,0,0,1-262.77,120.384Zm8.912,2.643c-1.8,2.28-3.217,3.435-4.225,3.435-.145,0-.53,0-.53-.833,0-1.087.918-2.5,2.73-4.192s3.278-2.559,4.351-2.559a.614.614,0,0,1,.523.223Z" transform="translate(341.499 -108.274)" fill="url(#linear-gradient-3)"/>
      <path id="Path_8096" data-name="Path 8096" d="M-435.788,133.232c.034-.933-1.18-1.715-2.964-.988s-6.872,5.72-12.556,4.074c-1.716-.5-2.243-1.887-2.147-3.586a10.268,10.268,0,0,1,.326-1.926,31.6,31.6,0,0,1,3.474-7.564l0,0a38.123,38.123,0,0,1,4.7-5.862c1.35-1.377,1.436-1.851,1.36-2.1a1.447,1.447,0,0,0-1.475-1.307,1.472,1.472,0,0,0-.6.122c-3.287,1.212-7.264,3.768-11.829,7.6-.616.527-1.156,1.014-1.61,1.459,1.917-3.148,2.888-5.667,2.888-7.5a2.771,2.771,0,0,0-.85-2.141,4.213,4.213,0,0,0-2.845-.77,13.972,13.972,0,0,0-4.37.807,12.851,12.851,0,0,0-3.915,2.009c-3.949,3.175-5.951,6.254-5.951,9.152a4.076,4.076,0,0,0,1.12,3,4.118,4.118,0,0,0,3.03,1.116,6.379,6.379,0,0,0,3.372-.9,5.628,5.628,0,0,0,2.051-1.93,3.68,3.68,0,0,0,.57-1.647c0-.9-.474-1.093-.873-1.093-.3,0-.326.185-.326.24a.315.315,0,0,0,.076.224l.036.026c.181.1.221.412.221.659a2.7,2.7,0,0,1-.632,1.449,5.6,5.6,0,0,1-4.8,2.22h-.217c-1.544-.036-2.3-.866-2.3-2.539a8.38,8.38,0,0,1,1.353-4.1,19.387,19.387,0,0,1,4.287-4.749c2.417-1.966,4.726-2.964,6.863-2.964,1.12,0,1.831.3,2.114.9a3.254,3.254,0,0,1,.287,1.363,11.932,11.932,0,0,1-1.851,5.236c-.563,1.018-1.759,2.888-3.557,5.562-2.457,3.652-2.74,4.508-2.74,4.838,0,.26.168.57.959.57a2.492,2.492,0,0,0,1.337-.313c.481-.306.527-.375.527-.477v-.1l-.1-.043c-.069-.033-.151-.092-.151-.283,0-.1.082-.4.635-1.248v0a41.222,41.222,0,0,1,6.553-7.482c3.639-3.415,6.672-5.332,9.02-5.694-2.143,2.994-3.76,5.417-4.808,7.209a31.235,31.235,0,0,0-1.5,2.95l0,0a.023.023,0,0,1,0,.01c-.174.339-5.1,10.172,3.152,11.305C-442.045,139.159-435.827,134.3-435.788,133.232Z" transform="translate(474.149 -111.139)" fill="url(#linear-gradient-4)"/>
    </g>
  </g>
</svg>
