<svg xmlns="http://www.w3.org/2000/svg" xmlns:xlink="http://www.w3.org/1999/xlink" width="701.694" height="276.316" viewBox="0 0 701.694 276.316">
  <defs>
    <filter id="Path_8685" x="0" y="64.426" width="701.694" height="211.89" filterUnits="userSpaceOnUse">
      <feOffset dx="-1" dy="6" input="SourceAlpha"/>
      <feGaussianBlur stdDeviation="3" result="blur"/>
      <feFlood flood-color="#282623" flood-opacity="0.812"/>
      <feComposite operator="in" in2="blur"/>
      <feComposite in="SourceGraphic"/>
    </filter>
  </defs>
  <g id="Group_10850" data-name="Group 10850" transform="translate(14572 -2043.288)">
    <g transform="matrix(1, 0, 0, 1, -14572, 2043.29)" filter="url(#Path_8685)">
      <path id="Path_8685-2" data-name="Path 8685" d="M687.606,188.053h567.881a35.23,35.23,0,0,1,27.958,13.392,30.343,30.343,0,0,1,4.637,29l-47,129.671c-4.727,13.043-17.84,21.822-32.595,21.822H640.611a35.231,35.231,0,0,1-27.958-13.392,30.344,30.344,0,0,1-4.638-29L655.01,209.875c4.728-13.043,17.841-21.822,32.6-21.822Z" transform="translate(-596.2 -120.63)" fill="#ff8d1a"/>
    </g>
    <path id="October" d="M9.509-36.051A7.393,7.393,0,0,1,14.955-33.8,7.427,7.427,0,0,1,17.2-28.363v17.529a7.393,7.393,0,0,1-2.255,5.446A7.427,7.427,0,0,1,9.509-3.145,7.351,7.351,0,0,1,4.076-5.4a7.448,7.448,0,0,1-2.23-5.433V-28.363A7.393,7.393,0,0,1,4.1-33.809,7.4,7.4,0,0,1,9.509-36.051Zm2.64,7.586a2.669,2.669,0,0,0-.807-1.961,2.669,2.669,0,0,0-1.961-.807,2.712,2.712,0,0,0-1.973.807,2.648,2.648,0,0,0-.82,1.961v17.581a2.648,2.648,0,0,0,.82,1.961,2.712,2.712,0,0,0,1.973.807,2.669,2.669,0,0,0,1.961-.807,2.669,2.669,0,0,0,.807-1.961ZM47.105-3.119A7.414,7.414,0,0,1,41.66-5.362a7.384,7.384,0,0,1-2.242-5.42V-28.312a7.393,7.393,0,0,1,2.255-5.446A7.427,7.427,0,0,1,47.105-36a7.351,7.351,0,0,1,5.433,2.255,7.448,7.448,0,0,1,2.23,5.433v3.665H49.745v-3.767a2.69,2.69,0,0,0-.82-1.973,2.69,2.69,0,0,0-1.973-.82,2.648,2.648,0,0,0-1.961.82,2.712,2.712,0,0,0-.807,1.973v17.581a2.669,2.669,0,0,0,.807,1.961,2.669,2.669,0,0,0,1.961.807,2.712,2.712,0,0,0,1.973-.807,2.648,2.648,0,0,0,.82-1.961v-4.434h5.023v4.485a7.351,7.351,0,0,1-2.255,5.433A7.418,7.418,0,0,1,47.105-3.119ZM81.293-30.8H76.142v-4.844h15.12V-30.8H86.137V-3.529H81.293ZM120.3-36.051a7.393,7.393,0,0,1,5.446,2.255,7.427,7.427,0,0,1,2.242,5.433v17.529a7.393,7.393,0,0,1-2.255,5.446A7.427,7.427,0,0,1,120.3-3.145,7.351,7.351,0,0,1,114.866-5.4a7.448,7.448,0,0,1-2.23-5.433V-28.363a7.393,7.393,0,0,1,2.255-5.446A7.4,7.4,0,0,1,120.3-36.051Zm2.64,7.586a2.669,2.669,0,0,0-.807-1.961,2.669,2.669,0,0,0-1.961-.807,2.712,2.712,0,0,0-1.973.807,2.648,2.648,0,0,0-.82,1.961v17.581a2.648,2.648,0,0,0,.82,1.961,2.712,2.712,0,0,0,1.973.807,2.669,2.669,0,0,0,1.961-.807,2.669,2.669,0,0,0,.807-1.961ZM150.283-3.529V-35.667h7.253a9.236,9.236,0,0,1,5.177,1.512,7.036,7.036,0,0,1,2.819,3.972,11.19,11.19,0,0,1,.461,3.409,7.544,7.544,0,0,1-1.717,5.177,4.866,4.866,0,0,1-1.691,1.256,5.628,5.628,0,0,1,2.742,2.435,9.467,9.467,0,0,1,1.1,3.178,12.675,12.675,0,0,1,.179,2.23,10.732,10.732,0,0,1-1.153,5.177,6.911,6.911,0,0,1-2.537,2.665,6.988,6.988,0,0,1-3.665,1.128Zm5.228-4.792h2.025a3.437,3.437,0,0,0,3.409-2.537,5.572,5.572,0,0,0,.333-2,6.088,6.088,0,0,0-1.025-3.921,3.305,3.305,0,0,0-2.717-1.128h-2.025Zm0-14.223h2.025a2.967,2.967,0,0,0,3.024-2.2,6.287,6.287,0,0,0,.282-2.025,4.234,4.234,0,0,0-.974-3.024,3.064,3.064,0,0,0-2.332-.948h-2.025ZM188.828-3.529V-35.667h13.788v4.844h-8.944v8.79h6.535v4.869h-6.535v8.79h8.944v4.844Zm42.8-32.112q4.049,0,5.946,2.23a8.1,8.1,0,0,1,1.666,5.433v4.664a7.5,7.5,0,0,1-2.588,5.766l3.588,14.018h-5.228l-2.947-12.122a3.516,3.516,0,0,1-.436.026h-2.793v12.1h-4.844V-35.641Zm2.9,7.74a2.458,2.458,0,0,0-2.768-2.793h-2.922v10.277h2.922a2.648,2.648,0,0,0,1.961-.82,2.712,2.712,0,0,0,.807-1.973Z" transform="translate(-14341.166 2188.429)"/>
    <path id="Special_Offer" data-name="Special Offer" d="M20.86-34.308c-5.46-1.534-7.729-3.006-7.729-5.889s2.454-4.907,6.38-4.907c4.417,0,7.422,1.963,9.079,5.889l8.22-4.478C34.049-50.318,27.976-54.06,19.94-54.06A17.727,17.727,0,0,0,8.1-49.95,12.873,12.873,0,0,0,3.194-39.583a11.893,11.893,0,0,0,3.681,8.895c2.208,2.208,6.134,4.171,11.716,5.828a27.369,27.369,0,0,1,7.177,2.883,3.684,3.684,0,0,1,1.9,3.313c0,2.944-3.067,5.091-7.3,5.091A11.068,11.068,0,0,1,9.88-20.26L1.292-15.843C4.175-8.912,11.046-4.556,20.063-4.556c5.521,0,9.815-1.35,12.943-4.11A13.682,13.682,0,0,0,37.668-19.4C37.668-27.069,32.332-31.056,20.86-34.308Zm59.871-3.619c0-4.907-1.595-8.711-4.846-11.348q-4.785-4.049-12.33-4.049H45.7V-5.292h9.938V-22.223h7.545c5.275,0,9.508-1.35,12.7-3.987C79.136-28.909,80.731-32.835,80.731-37.927Zm-10,.245c0,4.171-3.558,6.2-7.975,6.2H55.642V-43.938H62.7C67.3-43.938,70.732-42.037,70.732-37.681ZM88.154-53.324V-5.292h31.592v-9.263H97.968V-24.922h19.384v-9.324H97.968V-44h21.654v-9.324Zm36.928,24.046A23.96,23.96,0,0,0,132.2-11.672,23.908,23.908,0,0,0,149.8-4.618a25.5,25.5,0,0,0,13.5-3.8,20.1,20.1,0,0,0,8.649-10.49l-9.14-4.233a13.755,13.755,0,0,1-12.882,8.895A13.791,13.791,0,0,1,139.5-18.6a15.209,15.209,0,0,1-4.11-10.8,14.823,14.823,0,0,1,4.171-10.612,13.846,13.846,0,0,1,10.367-4.355,13.2,13.2,0,0,1,12.759,8.649l9.079-4.171A20.058,20.058,0,0,0,163.3-50.257a24.566,24.566,0,0,0-13.311-3.8,24.022,24.022,0,0,0-17.667,7.238A23.652,23.652,0,0,0,125.082-29.277ZM189-53.324h-9.938V-5.292H189ZM204.582-5.292l3.558-9.692h21.286l3.619,9.692H243.29l-18.4-48.031H212.925L194.584-5.292Zm14.232-38.4,7.238,19.507H211.575Zm30-9.631V-5.292h30.426v-9.447h-20.55V-53.324Zm47.357,24.046a23.652,23.652,0,0,0,7.238,17.544,24.068,24.068,0,0,0,17.605,7.177,24.022,24.022,0,0,0,17.667-7.238,24.035,24.035,0,0,0,7.361-17.728A23.381,23.381,0,0,0,338.8-46.944a24.017,24.017,0,0,0-17.544-7.116,24.258,24.258,0,0,0-17.728,7.238A23.725,23.725,0,0,0,296.167-29.277Zm14.477-10.735a14.135,14.135,0,0,1,10.49-4.417,14.135,14.135,0,0,1,10.49,4.417,14.672,14.672,0,0,1,4.294,10.674A14.912,14.912,0,0,1,331.624-18.6a14.135,14.135,0,0,1-10.49,4.417,14.135,14.135,0,0,1-10.49-4.417,14.912,14.912,0,0,1-4.294-10.735A14.672,14.672,0,0,1,310.644-40.012ZM364.2-33.694V-43.877h21.715v-9.447H354.259V-5.292H364.2V-24.247h19.446v-9.447Zm39.812,0V-43.877h21.715v-9.447H394.071V-5.292h9.938V-24.247h19.446v-9.447Zm29.874-19.63V-5.292h31.592v-9.263H443.7V-24.922h19.384v-9.324H443.7V-44h21.654v-9.324Zm77.6,48.031L500.623-24.063c6.564-2.392,9.876-7.054,9.876-14.048,0-4.846-1.595-8.588-4.846-11.226a18.44,18.44,0,0,0-12.146-3.987H474.553V-5.292h9.938V-22.53H490.5l9.938,17.237ZM484.49-43.938h8.22c4.355,0,7.729,1.779,7.729,6.012,0,4.171-3.5,6.2-7.668,6.2H484.49Z" transform="translate(-14477.329 2262.119)" fill="#fff"/>
    <path id="No_Tricks_Just_Treats" data-name="No Tricks, Just Treats" d="M9.466-46.214l8.3,27.96v-27.96h6.276V-4.573H17.3L8.669-31.238V-4.573H2.393V-46.214Zm30.019-.5a9.579,9.579,0,0,1,7.056,2.922,9.623,9.623,0,0,1,2.906,7.04v22.713a9.579,9.579,0,0,1-2.922,7.056,9.623,9.623,0,0,1-7.04,2.906A9.525,9.525,0,0,1,32.445-7a9.651,9.651,0,0,1-2.889-7.04V-36.75a9.579,9.579,0,0,1,2.922-7.056A9.584,9.584,0,0,1,39.485-46.712Zm3.42,9.829a3.459,3.459,0,0,0-1.046-2.54,3.459,3.459,0,0,0-2.54-1.046,3.514,3.514,0,0,0-2.557,1.046,3.431,3.431,0,0,0-1.063,2.54V-14.1a3.431,3.431,0,0,0,1.063,2.54,3.514,3.514,0,0,0,2.557,1.046,3.459,3.459,0,0,0,2.54-1.046A3.459,3.459,0,0,0,42.9-14.1ZM64.755-39.9H58.08v-6.276H77.672V-39.9H71.031V-4.573H64.755Zm27.86-6.276q5.247,0,7.7,2.889a10.5,10.5,0,0,1,2.158,7.04v6.044a9.723,9.723,0,0,1-3.354,7.472l4.649,18.164H97L93.18-20.28a4.556,4.556,0,0,1-.565.033H89V-4.573H82.72V-46.181Zm3.752,10.028q0-3.62-3.586-3.62H89v13.316h3.786a3.431,3.431,0,0,0,2.54-1.063,3.514,3.514,0,0,0,1.046-2.557Zm19.061,31.58h-6.276V-46.181h6.276Zm15.508.531a9.607,9.607,0,0,1-7.056-2.906,9.568,9.568,0,0,1-2.906-7.023V-36.684A9.579,9.579,0,0,1,123.9-43.74a9.623,9.623,0,0,1,7.04-2.906,9.525,9.525,0,0,1,7.04,2.922,9.651,9.651,0,0,1,2.889,7.04v4.749h-6.509v-4.881a3.486,3.486,0,0,0-1.063-2.557,3.486,3.486,0,0,0-2.557-1.063,3.431,3.431,0,0,0-2.54,1.063,3.514,3.514,0,0,0-1.046,2.557v22.78A3.459,3.459,0,0,0,128.2-11.5a3.459,3.459,0,0,0,2.54,1.046,3.514,3.514,0,0,0,2.557-1.046,3.431,3.431,0,0,0,1.063-2.54v-5.745h6.509v5.811a9.525,9.525,0,0,1-2.922,7.04A9.612,9.612,0,0,1,130.936-4.042Zm21.385-13.681v13.15h-6.309V-46.214h6.309v14.843l7.638-14.843h6.708l-8.6,17.035L168.127-4.573h-7.372L154.18-21.442Zm38.321,2.789A11.7,11.7,0,0,1,188.383-7.5a8.133,8.133,0,0,1-4.317,2.955,11.769,11.769,0,0,1-3.487.465A9.869,9.869,0,0,1,174.47-5.9a10.215,10.215,0,0,1-3.2-4.068,16.413,16.413,0,0,1-1.378-5.894l5.977-.432a9.012,9.012,0,0,0,1.926,5.247,3.219,3.219,0,0,0,2.59,1.162,3.894,3.894,0,0,0,3.287-2.026,5.028,5.028,0,0,0,.631-2.756,7.649,7.649,0,0,0-2.358-5.147l-5.579-5.28a23.811,23.811,0,0,1-4.416-5.413,12.507,12.507,0,0,1-1.395-5.844q0-5.678,3.819-8.6a9.5,9.5,0,0,1,5.844-1.76,10.622,10.622,0,0,1,5.745,1.494,8.632,8.632,0,0,1,3.005,3.254,12.044,12.044,0,0,1,1.378,4.815l-6.01,1.1a7.245,7.245,0,0,0-1.461-3.985,3.068,3.068,0,0,0-2.49-1.029,2.869,2.869,0,0,0-2.623,1.528,5.889,5.889,0,0,0-.731,3.055,9.168,9.168,0,0,0,2.457,5.811,20.763,20.763,0,0,0,2.789,2.657q2.192,1.826,2.889,2.557a21.294,21.294,0,0,1,3.586,4.583,17.561,17.561,0,0,1,.963,1.959A11.409,11.409,0,0,1,190.641-14.934Zm4.317,10.36v-6.243h6.309v6.243L198.976.209H196.32l1.494-4.782ZM223.715-14a9.5,9.5,0,0,1-2.906,7.023,9.624,9.624,0,0,1-7.023,2.872,12.553,12.553,0,0,1-3.885-.5l.9-5.844a10.132,10.132,0,0,0,1.826.2,9.636,9.636,0,0,0,1.328-.033,3.985,3.985,0,0,0,2.574-1.1,3.3,3.3,0,0,0,1.046-2.491V-46.115h6.143Zm15.441,9.9A9.58,9.58,0,0,1,232.117-7,9.541,9.541,0,0,1,229.228-14V-46.181h6.143V-14.07a3.431,3.431,0,0,0,1.063,2.54,3.514,3.514,0,0,0,2.557,1.046,3.458,3.458,0,0,0,2.54-1.046,3.459,3.459,0,0,0,1.046-2.54V-46.181h6.542V-14a9.455,9.455,0,0,1-2.922,7.04A9.709,9.709,0,0,1,239.156-4.108Zm35.9-10.825A11.7,11.7,0,0,1,272.795-7.5a8.133,8.133,0,0,1-4.317,2.955,11.769,11.769,0,0,1-3.487.465,9.869,9.869,0,0,1-6.11-1.826,10.216,10.216,0,0,1-3.2-4.068,16.412,16.412,0,0,1-1.378-5.894l5.977-.432a9.012,9.012,0,0,0,1.926,5.247,3.219,3.219,0,0,0,2.59,1.162,3.894,3.894,0,0,0,3.287-2.026,5.028,5.028,0,0,0,.631-2.756,7.649,7.649,0,0,0-2.358-5.147l-5.579-5.28a23.81,23.81,0,0,1-4.417-5.413,12.507,12.507,0,0,1-1.395-5.844q0-5.678,3.819-8.6a9.5,9.5,0,0,1,5.844-1.76,10.622,10.622,0,0,1,5.745,1.494,8.632,8.632,0,0,1,3.005,3.254,12.044,12.044,0,0,1,1.378,4.815l-6.01,1.1a7.245,7.245,0,0,0-1.461-3.985,3.068,3.068,0,0,0-2.49-1.029,2.869,2.869,0,0,0-2.623,1.528,5.889,5.889,0,0,0-.731,3.055,9.168,9.168,0,0,0,2.457,5.811,20.76,20.76,0,0,0,2.789,2.657q2.192,1.826,2.889,2.557a21.294,21.294,0,0,1,3.586,4.583,17.562,17.562,0,0,1,.963,1.959A11.409,11.409,0,0,1,275.053-14.934ZM286.044-39.9H279.37v-6.276h19.592V-39.9H292.32V-4.573h-6.276Zm28.226,0H307.6v-6.276h19.592V-39.9h-6.641V-4.573H314.27Zm27.86-6.276q5.247,0,7.7,2.889a10.5,10.5,0,0,1,2.158,7.04v6.044a9.723,9.723,0,0,1-3.354,7.472l4.649,18.164h-6.774L342.695-20.28a4.557,4.557,0,0,1-.565.033h-3.62V-4.573h-6.276V-46.181Zm3.752,10.028q0-3.62-3.586-3.62h-3.786v13.316H342.3a3.431,3.431,0,0,0,2.54-1.063,3.514,3.514,0,0,0,1.046-2.557Zm12.785,31.58V-46.214h17.865v6.276H364.943v11.39h8.468v6.309h-8.468v11.39h11.589v6.276Zm30.251-9.564-1.527,9.564h-6.542l7.073-41.608h8.634L403.53-4.573h-6.575l-1.494-9.564Zm3.287-22.514-2.324,16.4h4.649Zm17.4-3.254h-6.675v-6.276h19.592V-39.9h-6.641V-4.573h-6.276Zm37.988,24.971A11.7,11.7,0,0,1,445.337-7.5,8.133,8.133,0,0,1,441.02-4.54a11.769,11.769,0,0,1-3.487.465,9.869,9.869,0,0,1-6.11-1.826,10.215,10.215,0,0,1-3.2-4.068,16.412,16.412,0,0,1-1.378-5.894l5.977-.432a9.012,9.012,0,0,0,1.926,5.247,3.219,3.219,0,0,0,2.59,1.162,3.894,3.894,0,0,0,3.287-2.026,5.028,5.028,0,0,0,.631-2.756,7.649,7.649,0,0,0-2.358-5.147l-5.579-5.28a23.81,23.81,0,0,1-4.417-5.413,12.507,12.507,0,0,1-1.395-5.844q0-5.678,3.819-8.6a9.5,9.5,0,0,1,5.844-1.76,10.622,10.622,0,0,1,5.745,1.494,8.632,8.632,0,0,1,3.005,3.254,12.044,12.044,0,0,1,1.378,4.815l-6.01,1.1a7.245,7.245,0,0,0-1.461-3.985,3.068,3.068,0,0,0-2.491-1.029,2.868,2.868,0,0,0-2.623,1.528,5.889,5.889,0,0,0-.731,3.055,9.168,9.168,0,0,0,2.457,5.811,20.76,20.76,0,0,0,2.789,2.657q2.192,1.826,2.889,2.557a21.3,21.3,0,0,1,3.586,4.583,17.556,17.556,0,0,1,.963,1.959A11.41,11.41,0,0,1,447.595-14.934Z" transform="translate(-14444.961 2090)" fill="#fff"/>
  </g>
</svg>
