<svg xmlns="http://www.w3.org/2000/svg" width="145.408" height="27.882" viewBox="0 0 145.408 27.882">
  <g id="Group_10889" data-name="Group 10889" transform="translate(-1002.592 -402)">
    <text id="Limited_Time_Only" data-name="Limited Time Only" transform="translate(1036 416)" fill="#ef1f1f" font-size="12" font-family="Gordita-Medium, Gordita" font-weight="500"><tspan x="0" y="0">Limited Time Only</tspan></text>
    <path id="Union_1" data-name="Union 1" d="M916.319,5735.636l-5.416-8.923a1,1,0,0,1,.838-1.519l4.1-.071a1,1,0,0,1,.572-.411,1.058,1.058,0,0,1,.34-.03,1,1,0,0,1,.731.413l4.771-.083a1,1,0,0,1,.89,1.488l-5.1,9.106a1,1,0,0,1-1.728.03Zm.584-11.946a1,1,0,0,1-.716-1.219,12.5,12.5,0,0,1,1.195-3.023,1,1,0,1,1,1.741.983,10.631,10.631,0,0,0-1,2.542,1,1,0,0,1-1.219.717Zm2.475-5.416a1,1,0,0,1,.108-1.41,9.57,9.57,0,0,1,2.876-1.683.871.871,0,0,1,.094-.03,1,1,0,0,1,.609,1.9,7.581,7.581,0,0,0-2.277,1.329,1,1,0,0,1-1.409-.109Zm14.719-.559a20.734,20.734,0,0,0-2.728-.8,1,1,0,1,1,.442-1.951,22.164,22.164,0,0,1,3.023.894,1,1,0,0,1-.737,1.859Zm-5.554-1.251a15.572,15.572,0,0,0-2.814,0,1,1,0,0,1-.356-1.961.916.916,0,0,1,.164-.029,17.4,17.4,0,0,1,3.179,0,1,1,0,0,1-.085,2C928.6,5716.468,928.572,5716.467,928.543,5716.464Z" transform="translate(91.835 -5306.234)" fill="#ef1f1f"/>
  </g>
</svg>
