<svg id="Quote" xmlns="http://www.w3.org/2000/svg" width="20" height="13.846" viewBox="0 0 20 13.846">
  <path id="Path_1953" data-name="Path 1953" d="M304.259,133.273c-.464-.163-.932-.3-1.379-.49a8.791,8.791,0,0,1-5.615-6.3,5.642,5.642,0,0,1,1.111-5.262,4.614,4.614,0,0,1,3.267-1.746,3.755,3.755,0,0,1,3.643,1.772,2.675,2.675,0,0,1-.191,3.139,3.029,3.029,0,0,1-3.218.945c-.262-.07-.517-.165-.779-.233a.966.966,0,0,0-1.327.723,4.31,4.31,0,0,0,.278,2.725,4.971,4.971,0,0,0,1.827,2.172c.6.43,1.229.828,1.862,1.214S304.462,132.479,304.259,133.273Z" transform="translate(-285.704 -119.466)" fill="#4353ff"/>
  <path id="Path_1954" data-name="Path 1954" d="M159.356,133.574a.7.7,0,0,1-.18,0c-3.058-1-5.417-2.739-6.611-5.694a6.753,6.753,0,0,1-.363-4.083,5.3,5.3,0,0,1,4.066-3.97,3.786,3.786,0,0,1,3.6,1.138,2.8,2.8,0,0,1-1.575,4.695,5.73,5.73,0,0,1-1.607-.117c-.228-.027-.445-.135-.673-.18a.884.884,0,0,0-1.172.685,4.129,4.129,0,0,0,.283,2.827,5.677,5.677,0,0,0,2,2.325,20.159,20.159,0,0,0,1.861,1.146c.29.159.417.324.374.637A4.405,4.405,0,0,0,159.356,133.574Z" transform="translate(-152.038 -119.733)" fill="#4353ff"/>
</svg>
