<svg xmlns="http://www.w3.org/2000/svg" width="661.84" height="155.918" viewBox="0 0 661.84 155.918">
  <g id="Group_31163" data-name="Group 31163" transform="translate(-613.926 -247.26)">
    <text id="Special_Deal" data-name="Special Deal" transform="translate(866.977 389.177)" fill="#fff" font-size="55" font-family="Lobster-Regular, Lobster"><tspan x="-132.083" y="0">Special Deal</tspan></text>
    <g id="Group_31159" data-name="Group 31159" transform="translate(1106.487 298.093)">
      <path id="Path_41954" data-name="Path 41954" d="M3084.571,628.71a15.889,15.889,0,0,1-7.861-1.877v.784q0,9.268-7.656,9.27t-7.657-9.27v-51.31q0-9.268,7.657-9.267t7.656,9.267v8.657a15.855,15.855,0,0,1,7.861-1.88,16.365,16.365,0,0,1,6.915,1.4v-7.236q0-11.282-5.776-17.461t-16.656-6.179q-10.882,0-16.656,6.179t-5.776,17.461v49.43q0,11.282,5.776,17.461t16.656,6.179a29.325,29.325,0,0,0,7.8-.964l.826-2.136,7.167-18.509C3084.754,628.707,3084.661,628.71,3084.571,628.71Z" transform="translate(-2992.93 -552.263)" fill="#00ff9d"/>
      <path id="Path_41955" data-name="Path 41955" d="M3348.572,881.672q-2.3-2.465-6.719-2.466t-6.723,2.466q-2.293,2.469-2.295,7.062v14.887q0,4.6,2.295,7.062t6.723,2.466q4.42,0,6.719-2.466t2.3-7.062V888.734Q3350.87,884.138,3348.572,881.672Zm-3.658,22.375q0,3.744-3.061,3.743t-3.064-3.743v-15.74q0-3.739,3.064-3.742t3.061,3.742Z" transform="translate(-3224.094 -815.237)" fill="#00ff9d" stroke="rgba(0,0,0,0)" stroke-miterlimit="10" stroke-width="1"/>
      <path id="Path_41956" data-name="Path 41956" d="M3259.47,741.652l-14.709,38-6.7,17.29-1.649,4.262h5.953l23.054-59.549Z" transform="translate(-3146.219 -704.14)" fill="#00ff9d" stroke="rgba(0,0,0,0)" stroke-miterlimit="10" stroke-width="1"/>
      <path id="Path_41957" data-name="Path 41957" d="M3212.782,739.7q-2.293-2.469-6.719-2.466t-6.719,2.466a7.322,7.322,0,0,0-1.141,1.622,11.527,11.527,0,0,0-1.156,5.44v14.887a11.535,11.535,0,0,0,1.156,5.44,7.325,7.325,0,0,0,1.141,1.622q2.293,2.464,6.719,2.466t6.719-2.466c.069-.072.135-.147.2-.222a10.175,10.175,0,0,0,2.1-6.84V746.76a10.17,10.17,0,0,0-2.1-6.84C3212.918,739.845,3212.852,739.77,3212.782,739.7Zm-3.655,22.372q0,3.749-3.064,3.746T3203,762.07V746.333q0-3.744,3.064-3.743t3.064,3.743Z" transform="translate(-3114.422 -700.57)" fill="#00ff9d" stroke="rgba(0,0,0,0)" stroke-miterlimit="10" stroke-width="1"/>
      <path id="Path_41958" data-name="Path 41958" d="M2800.644,592.423v-.268a14.488,14.488,0,0,0,7.925-6.649q2.55-4.634,2.552-12.29v-3.358q0-11.283-5.507-17.26T2789.5,546.62q-10.477,0-16.051,6.044t-5.574,17.327v4.97h13.969v-6.179q0-8.73,7.119-8.731a6.813,6.813,0,0,1,5.372,2.283q2.016,2.286,2.015,7.119v6.85q0,5.374-2.216,7.656t-6.649,2.284h-5.373v13.432h4.97q5.1,0,7.388,2.754t2.283,9.2v7.656q0,5.912-1.947,8.26a6.989,6.989,0,0,1-5.709,2.351q-7.656,0-7.656-9.268V612.3h-13.969v7.656q0,11.283,5.574,17.327t16.454,6.044q10.88,0,16.454-5.977t5.574-17.26v-8.328q0-7.521-2.552-12.357A14.814,14.814,0,0,0,2800.644,592.423Z" transform="translate(-2767.467 -546.62)" fill="#00ff9d"/>
    </g>
    <g id="Group_31160" data-name="Group 31160" transform="translate(1159.907 269.829) rotate(90)" opacity="0.7">
      <path id="Path_41932" data-name="Path 41932" d="M18.856,1.383a5,5,0,0,1,1.468,3.726,5.062,5.062,0,0,1-1.468,3.754,5.191,5.191,0,0,1-3.7,1.383H0V7.085H15.327a1.93,1.93,0,0,0,2.145-1.976,1.91,1.91,0,0,0-2.145-1.948H0V0H15.158A5.192,5.192,0,0,1,18.856,1.383Z" transform="translate(0.226 37.034)" fill="#fff"/>
      <path id="Path_41933" data-name="Path 41933" d="M12.222,5.166V7.057H20.1v3.161H0V5.166C0,1.524,1.919,0,6.125,0S12.222,1.524,12.222,5.166Zm-9.371.113V7.057H9.371V5.279c0-1.694-1.214-2.117-3.246-2.117S2.851,3.585,2.851,5.279Z" transform="translate(0.226 23.598)" fill="#fff"/>
      <path id="Path_41934" data-name="Path 41934" d="M2.851,3.387H20.1V6.549H2.851V9.908H0V0H2.851Z" transform="translate(0.226 12.194)" fill="#fff"/>
      <path id="Path_41935" data-name="Path 41935" d="M18.827,1.468a4.77,4.77,0,0,1,1.722,3.9,4.769,4.769,0,0,1-1.722,3.9c-1.609,1.327-3.782,1.468-8.553,1.468s-6.944-.141-8.553-1.468A4.77,4.77,0,0,1,0,5.363a4.77,4.77,0,0,1,1.722-3.9C3.3.113,5.5,0,10.275,0S17.247.113,18.827,1.468ZM3.613,3.839a1.667,1.667,0,0,0-.762,1.524,1.618,1.618,0,0,0,.762,1.5c.96.593,2.992.706,6.662.706s5.7-.113,6.662-.706a1.618,1.618,0,0,0,.762-1.5,1.667,1.667,0,0,0-.762-1.524c-.96-.593-2.992-.677-6.662-.677S4.573,3.246,3.613,3.839Z" transform="translate(0 0)" fill="#fff"/>
    </g>
    <g id="Group_31161" data-name="Group 31161" transform="translate(1239.572 372.284)" opacity="0.7">
      <path id="Path_41936" data-name="Path 41936" d="M1997.684,1575.626a5.772,5.772,0,0,1-8.538,0c-1.454-1.763-1.609-4.146-1.609-9.374s.155-7.61,1.609-9.374a5.772,5.772,0,0,1,8.538,0c1.485,1.733,1.609,4.145,1.609,9.374S1999.169,1573.894,1997.684,1575.626Zm-2.6-16.674a1.827,1.827,0,0,0-1.671-.835,1.774,1.774,0,0,0-1.639.835c-.65,1.052-.774,3.279-.774,7.3s.124,6.249.774,7.3a1.774,1.774,0,0,0,1.639.835,1.827,1.827,0,0,0,1.671-.835c.65-1.052.742-3.279.742-7.3S1995.735,1560,1995.085,1558.952Z" transform="translate(-1987.537 -1554.992)" fill="#fff"/>
      <path id="Path_41937" data-name="Path 41937" d="M2209.283,1561.748V1568h4.98v3.125h-4.98v9.528h-3.465v-22.026h9.25v3.125Z" transform="translate(-2190.939 -1558.376)" fill="#fff"/>
      <path id="Path_41938" data-name="Path 41938" d="M2386.271,1561.748V1568h4.98v3.125h-4.98v9.528h-3.465v-22.026h9.25v3.125Z" transform="translate(-2355.862 -1558.376)" fill="#fff"/>
    </g>
    <g id="Group_31034" data-name="Group 31034" transform="translate(613.926 247.26)">
      <path id="Path_40394" data-name="Path 40394" d="M299.652,209.094q14.861,0,22.7,5.274t7.84,15.107a26.515,26.515,0,0,1-1.121,8.223,17.3,17.3,0,0,1-3.116,5.792,17.119,17.119,0,0,1-4.753,3.933,35.065,35.065,0,0,1-5.983,2.65,9.546,9.546,0,0,1,4.509,3.224,48.776,48.776,0,0,1,4.615,6.476q2.348,3.85,4.755,8.55t4.836,9.506q2.428,4.81,4.918,9.343a87.44,87.44,0,0,0,4.973,8.086,29.264,29.264,0,0,0,5.026,5.682,7.9,7.9,0,0,0,5.054,2.129,5.642,5.642,0,0,0,2.16-.435,8.156,8.156,0,0,0,1.666-.875l1.147,2.131q-1.093.6-2.677,1.338a29.351,29.351,0,0,1-3.716,1.393,40.145,40.145,0,0,1-4.78,1.121,34.318,34.318,0,0,1-5.875.464,16.525,16.525,0,0,1-9.563-2.923,24.691,24.691,0,0,1-7.32-8.225q-3.118-5.463-6.12-11.473t-5.983-12.022q-2.978-6.011-5.955-11.747t-5.983-10.765l.435-2.239a7.827,7.827,0,0,0,5.6-.382,9.374,9.374,0,0,0,3.907-3.907,21.525,21.525,0,0,0,2.266-6.638,46.236,46.236,0,0,0,.738-8.524,25.525,25.525,0,0,0-.71-6.146,18.469,18.469,0,0,0-2-5.028,10.539,10.539,0,0,0-3.087-3.388,7,7,0,0,0-4.043-1.228,6.849,6.849,0,0,0-2.87.519,4.964,4.964,0,0,0-1.775,1.312,4.506,4.506,0,0,0-.9,1.694,6.508,6.508,0,0,0-.246,1.721v64.8q0,4.208-2.213,6.12t-6.748,1.912q-4.588,0-6.775-1.912t-2.184-6.12V218.271q0-3-4.153-3.006a21.624,21.624,0,0,0-6.093.9,22.059,22.059,0,0,0-5.573,2.459,14.565,14.565,0,0,0-4.07,3.716,7.736,7.736,0,0,0-1.584,4.672,6.944,6.944,0,0,0,.464,2.786,4.427,4.427,0,0,0,1.066,1.558,2.773,2.773,0,0,0,1.228.655,4.875,4.875,0,0,0,.9.136,4.771,4.771,0,0,0,2.239-.464,12.815,12.815,0,0,0,1.586-.984c.473-.346.918-.674,1.338-.984a2.369,2.369,0,0,1,1.448-.466,3.687,3.687,0,0,1,1.393.3,3.982,3.982,0,0,1,1.367.956,5.493,5.493,0,0,1,1.066,1.721,6.845,6.845,0,0,1,.437,2.6,7.9,7.9,0,0,1-.846,3.771,8.429,8.429,0,0,1-2.186,2.65,9.083,9.083,0,0,1-3.059,1.584,11.769,11.769,0,0,1-3.415.519,11.9,11.9,0,0,1-4.727-.9,10.459,10.459,0,0,1-3.579-2.485,10.678,10.678,0,0,1-2.241-3.716,13.3,13.3,0,0,1-.765-4.535,18.027,18.027,0,0,1,1.694-8,17.6,17.6,0,0,1,4.781-5.983,27.07,27.07,0,0,1,7.4-4.179,54.283,54.283,0,0,1,9.561-2.65,97.012,97.012,0,0,1,11.23-1.393Q293.2,209.1,299.652,209.094Z" transform="translate(-252.553 -205.763)" fill="#fff"/>
      <path id="Path_40395" data-name="Path 40395" d="M321.249,226.767a12.888,12.888,0,0,0-3.441.437,11.816,11.816,0,0,0-2.731,1.092,6.453,6.453,0,0,0-1.8,1.448,2.416,2.416,0,0,0-.657,1.5,1.21,1.21,0,0,0,.846,1.175q.846.355,1.885.82a6.341,6.341,0,0,1,1.885,1.312,3.533,3.533,0,0,1,.846,2.6,4.758,4.758,0,0,1-.464,2.1,5.695,5.695,0,0,1-3.114,2.841,6.091,6.091,0,0,1-2.213.409,6.353,6.353,0,0,1-4.944-2.076,7.894,7.894,0,0,1-1.885-5.52,9.368,9.368,0,0,1,1.749-5.709,13.651,13.651,0,0,1,4.562-3.907,23.059,23.059,0,0,1,6.364-2.268,35.373,35.373,0,0,1,15.245.191,20.705,20.705,0,0,1,6.858,2.951,15.278,15.278,0,0,1,4.753,5.135,15.007,15.007,0,0,1,1.776,7.541v30.871c0,.327.019.693.053,1.094a3.416,3.416,0,0,0,.274,1.092,1.867,1.867,0,0,0,1.914,1.147,2.74,2.74,0,0,0,1.83-.738,14.8,14.8,0,0,0,1.5-1.5l1.367,1.147q-.82,1.147-1.967,2.514a15.778,15.778,0,0,1-6.614,4.588,14.128,14.128,0,0,1-4.973.82,9.787,9.787,0,0,1-6.118-2.048,9.945,9.945,0,0,1-3.5-6.311,23.079,23.079,0,0,1-3.634,3.933,19.477,19.477,0,0,1-3.85,2.567,16.952,16.952,0,0,1-3.962,1.422,18.831,18.831,0,0,1-4.017.435,16.01,16.01,0,0,1-5.082-.82,12.126,12.126,0,0,1-4.4-2.6,12.717,12.717,0,0,1-3.116-4.617,18.165,18.165,0,0,1-1.175-6.939,15.22,15.22,0,0,1,1.969-8.141,17.522,17.522,0,0,1,5.164-5.327,34.849,34.849,0,0,1,7.267-3.689q4.072-1.528,8.333-3.224a8.9,8.9,0,0,0,4.615-3.744,10.027,10.027,0,0,0,1.45-5.109,8.861,8.861,0,0,0-2.377-6.474A8.64,8.64,0,0,0,321.249,226.767Zm8.688,23.932a2.518,2.518,0,0,0-.875-2.076,3.443,3.443,0,0,0-2.241-.71,7.907,7.907,0,0,0-3.632.875,8.995,8.995,0,0,0-3.034,2.567,13.046,13.046,0,0,0-2.076,4.18,19.6,19.6,0,0,0-.765,5.764,24.7,24.7,0,0,0,.464,5.245,10.269,10.269,0,0,0,1.257,3.307,4.532,4.532,0,0,0,1.83,1.721,5.05,5.05,0,0,0,2.186.492,5.2,5.2,0,0,0,2.677-.738,8.026,8.026,0,0,0,2.184-1.885,9.4,9.4,0,0,0,1.475-2.569,7.876,7.876,0,0,0,.547-2.841V250.7Z" transform="translate(-209.022 -193.986)" fill="#fff"/>
      <path id="Path_40396" data-name="Path 40396" d="M382.714,274.192a7.989,7.989,0,0,1-.218,1.694,3.89,3.89,0,0,1-1.066,1.857,6.766,6.766,0,0,1-2.542,1.5,13.53,13.53,0,0,1-4.59.628,12.36,12.36,0,0,1-4.562-.681,6.841,6.841,0,0,1-2.512-1.613,4.211,4.211,0,0,1-1.066-1.912,7.657,7.657,0,0,1-.218-1.584v-38.63a5.909,5.909,0,0,0-.218-1.556,4.932,4.932,0,0,0-.657-1.448,3.639,3.639,0,0,0-1.092-1.066,2.831,2.831,0,0,0-1.531-.409,5.589,5.589,0,0,0-2.894.846,17.371,17.371,0,0,0-2.65,1.94,20.092,20.092,0,0,0-2.131,2.184c-.6.729-1.03,1.276-1.283,1.639v36.608a8.11,8.11,0,0,1-.218,1.694,3.9,3.9,0,0,1-1.066,1.857,6.787,6.787,0,0,1-2.512,1.5,13.3,13.3,0,0,1-4.564.628,12.361,12.361,0,0,1-4.562-.681,7.148,7.148,0,0,1-2.54-1.613,4.091,4.091,0,0,1-1.092-1.912,7.675,7.675,0,0,1-.22-1.584V231.906a5.079,5.079,0,0,0-.738-2.76,2.7,2.7,0,0,0-2.485-1.175,3.533,3.533,0,0,0-1.586.327,8.658,8.658,0,0,0-1.42.929l-1.147-1.367a30.943,30.943,0,0,1,2.813-2.05,22.007,22.007,0,0,1,3.36-1.776,24.2,24.2,0,0,1,3.88-1.257,18.915,18.915,0,0,1,4.371-.492,10.808,10.808,0,0,1,5.52,1.175,7.826,7.826,0,0,1,2.894,2.815,8.8,8.8,0,0,1,1.121,3.415,28.34,28.34,0,0,1,.193,2.977,41.012,41.012,0,0,1,5.518-5.19,28.38,28.38,0,0,1,2.65-1.912,27.92,27.92,0,0,1,2.978-1.666,17.993,17.993,0,0,1,3.169-1.175,12.661,12.661,0,0,1,3.278-.437,11.751,11.751,0,0,1,5.408,1.147,11.528,11.528,0,0,1,3.606,2.76,10.916,10.916,0,0,1,2,3.388,9.475,9.475,0,0,1,.626,3.087,45.981,45.981,0,0,1,5.52-5.19,30.292,30.292,0,0,1,2.624-1.912,24.643,24.643,0,0,1,2.977-1.666A19.06,19.06,0,0,1,397,222.727a12.359,12.359,0,0,1,3.252-.437,11.513,11.513,0,0,1,5.408,1.175,10.131,10.131,0,0,1,3.606,3.087,13.092,13.092,0,0,1,2,4.318,18.965,18.965,0,0,1,.626,4.808V269.5c0,.327.019.683.055,1.066a3.62,3.62,0,0,0,.274,1.092,1.922,1.922,0,0,0,.681.846,2.079,2.079,0,0,0,1.228.327,2.7,2.7,0,0,0,1.857-.738q.82-.738,1.531-1.5l1.31,1.147a22.931,22.931,0,0,1-2.02,2.54,19.329,19.329,0,0,1-2.977,2.65,16.5,16.5,0,0,1-3.988,2.1,14.526,14.526,0,0,1-5.109.846,12.5,12.5,0,0,1-4.18-.628,9.267,9.267,0,0,1-3.006-1.694,6.674,6.674,0,0,1-1.83-2.514,7.963,7.963,0,0,1-.6-3.087v-36.5a5.907,5.907,0,0,0-.218-1.556,5.471,5.471,0,0,0-.628-1.448,3.314,3.314,0,0,0-1.066-1.066,2.836,2.836,0,0,0-1.531-.409,5.732,5.732,0,0,0-2.923.846,16.822,16.822,0,0,0-2.678,1.94,17.971,17.971,0,0,0-2.1,2.184q-.875,1.093-1.257,1.639v36.606Z" transform="translate(-183.996 -193.984)" fill="#fff"/>
      <path id="Path_40397" data-name="Path 40397" d="M398.348,226.767a12.888,12.888,0,0,0-3.441.437,11.818,11.818,0,0,0-2.731,1.092,6.456,6.456,0,0,0-1.8,1.448,2.416,2.416,0,0,0-.657,1.5,1.21,1.21,0,0,0,.846,1.175q.846.355,1.885.82a6.342,6.342,0,0,1,1.885,1.312,3.533,3.533,0,0,1,.846,2.6,4.758,4.758,0,0,1-.464,2.1,5.694,5.694,0,0,1-3.114,2.841,6.091,6.091,0,0,1-2.213.409,6.353,6.353,0,0,1-4.944-2.076,7.893,7.893,0,0,1-1.885-5.52,9.367,9.367,0,0,1,1.749-5.709,13.65,13.65,0,0,1,4.562-3.907,23.059,23.059,0,0,1,6.364-2.268,35.373,35.373,0,0,1,15.245.191,20.706,20.706,0,0,1,6.858,2.951,15.278,15.278,0,0,1,4.753,5.135,15.007,15.007,0,0,1,1.775,7.541v30.871c0,.327.019.693.053,1.094a3.417,3.417,0,0,0,.274,1.092,1.867,1.867,0,0,0,1.914,1.147,2.74,2.74,0,0,0,1.83-.738,14.8,14.8,0,0,0,1.5-1.5l1.367,1.147q-.821,1.147-1.967,2.514a15.779,15.779,0,0,1-6.614,4.588,14.129,14.129,0,0,1-4.973.82,9.787,9.787,0,0,1-6.118-2.048,9.945,9.945,0,0,1-3.5-6.311A23.078,23.078,0,0,1,404,275.448a19.476,19.476,0,0,1-3.85,2.567,16.953,16.953,0,0,1-3.962,1.422,18.833,18.833,0,0,1-4.017.435,16.01,16.01,0,0,1-5.082-.82,12.126,12.126,0,0,1-4.4-2.6,12.717,12.717,0,0,1-3.116-4.617A18.165,18.165,0,0,1,378.4,264.9a15.22,15.22,0,0,1,1.969-8.141,17.522,17.522,0,0,1,5.164-5.327,34.847,34.847,0,0,1,7.267-3.689q4.071-1.528,8.332-3.224a8.9,8.9,0,0,0,4.615-3.744,10.027,10.027,0,0,0,1.45-5.109,8.862,8.862,0,0,0-2.377-6.474A8.64,8.64,0,0,0,398.348,226.767Zm8.686,23.932a2.519,2.519,0,0,0-.874-2.076,3.443,3.443,0,0,0-2.241-.71,7.907,7.907,0,0,0-3.632.875,8.994,8.994,0,0,0-3.034,2.567,13.046,13.046,0,0,0-2.076,4.18,19.6,19.6,0,0,0-.765,5.764,24.706,24.706,0,0,0,.464,5.245,10.27,10.27,0,0,0,1.257,3.307,4.532,4.532,0,0,0,1.83,1.721,5.05,5.05,0,0,0,2.186.492,5.2,5.2,0,0,0,2.677-.738,8.028,8.028,0,0,0,2.184-1.885,9.4,9.4,0,0,0,1.474-2.569,7.877,7.877,0,0,0,.547-2.841V250.7Z" transform="translate(-140.183 -193.986)" fill="#fff"/>
      <path id="Path_40398" data-name="Path 40398" d="M441.3,238.64a56.859,56.859,0,0,0-2.9-10.189,34.27,34.27,0,0,0-4.454-8.168,20.638,20.638,0,0,0-5.9-5.41,13.7,13.7,0,0,0-7.13-1.967,13.454,13.454,0,0,0-3.962.547,15.655,15.655,0,0,0-3.087,1.283,15.948,15.948,0,0,0-2.16,1.42q-.849.684-1.228,1.011l-1.42-1.912a18.1,18.1,0,0,1,3.2-3.169,21.062,21.062,0,0,1,4.125-2.514,25.523,25.523,0,0,1,4.727-1.639,21.046,21.046,0,0,1,4.944-.6,27.962,27.962,0,0,1,14.206,3.525,29.522,29.522,0,0,1,10.218,9.972,49.229,49.229,0,0,1,6.175,15.573,91.646,91.646,0,0,1,2.076,20.271,61.478,61.478,0,0,1-1.83,15.845,34.124,34.124,0,0,1-5.219,11.446,21.875,21.875,0,0,1-8.225,6.939,24.856,24.856,0,0,1-10.9,2.323,26.065,26.065,0,0,1-8.552-1.5,21.317,21.317,0,0,1-7.869-4.889,25.425,25.425,0,0,1-5.764-8.878,40.624,40.624,0,0,1-.3-25.707,27.593,27.593,0,0,1,5.219-9.042,22.335,22.335,0,0,1,7.6-5.628,22.011,22.011,0,0,1,9.124-1.94,16.768,16.768,0,0,1,3.333.3,14.977,14.977,0,0,1,2.567.738,11.855,11.855,0,0,1,1.914.956C440.374,237.976,440.866,238.313,441.3,238.64Zm.657,24.041v-2.432q0-1.831-.112-4.208t-.38-5.054a33.141,33.141,0,0,0-.875-4.973,19.393,19.393,0,0,0-2.925-3.032,6.241,6.241,0,0,0-4.125-1.338q-4.262,0-6.258,5.573t-2,17.267a86.966,86.966,0,0,0,.466,9.4,38.816,38.816,0,0,0,1.42,7.322,12.9,12.9,0,0,0,2.459,4.753,4.628,4.628,0,0,0,3.579,1.694Q441.96,287.651,441.961,262.682Z" transform="translate(-113.639 -207.334)" fill="#fff"/>
      <path id="Path_40399" data-name="Path 40399" d="M457.608,226.767a12.888,12.888,0,0,0-3.441.437,11.818,11.818,0,0,0-2.731,1.092,6.455,6.455,0,0,0-1.8,1.448,2.416,2.416,0,0,0-.657,1.5,1.21,1.21,0,0,0,.846,1.175q.846.355,1.885.82a6.342,6.342,0,0,1,1.885,1.312,3.533,3.533,0,0,1,.846,2.6,4.759,4.759,0,0,1-.464,2.1,5.694,5.694,0,0,1-3.114,2.841,6.091,6.091,0,0,1-2.213.409,6.353,6.353,0,0,1-4.944-2.076,7.894,7.894,0,0,1-1.885-5.52,9.367,9.367,0,0,1,1.749-5.709,13.651,13.651,0,0,1,4.562-3.907,23.059,23.059,0,0,1,6.364-2.268,35.373,35.373,0,0,1,15.245.191,20.706,20.706,0,0,1,6.858,2.951,15.279,15.279,0,0,1,4.753,5.135,15.008,15.008,0,0,1,1.775,7.541v30.871c0,.327.019.693.053,1.094a3.416,3.416,0,0,0,.274,1.092,1.867,1.867,0,0,0,1.914,1.147,2.74,2.74,0,0,0,1.83-.738,14.8,14.8,0,0,0,1.5-1.5l1.367,1.147q-.821,1.147-1.967,2.514a15.779,15.779,0,0,1-6.614,4.588,14.129,14.129,0,0,1-4.973.82,9.787,9.787,0,0,1-6.118-2.048,9.945,9.945,0,0,1-3.5-6.311,23.077,23.077,0,0,1-3.634,3.933,19.474,19.474,0,0,1-3.85,2.567,16.953,16.953,0,0,1-3.962,1.422,18.833,18.833,0,0,1-4.017.435,16.01,16.01,0,0,1-5.082-.82,12.125,12.125,0,0,1-4.4-2.6,12.717,12.717,0,0,1-3.116-4.617,18.164,18.164,0,0,1-1.176-6.939,15.22,15.22,0,0,1,1.969-8.141,17.522,17.522,0,0,1,5.164-5.327,34.848,34.848,0,0,1,7.267-3.689q4.072-1.528,8.332-3.224a8.9,8.9,0,0,0,4.615-3.744,10.028,10.028,0,0,0,1.45-5.109,8.861,8.861,0,0,0-2.377-6.474A8.637,8.637,0,0,0,457.608,226.767ZM466.3,250.7a2.519,2.519,0,0,0-.874-2.076,3.443,3.443,0,0,0-2.241-.71,7.907,7.907,0,0,0-3.632.875,8.994,8.994,0,0,0-3.034,2.567,13.045,13.045,0,0,0-2.076,4.18,19.6,19.6,0,0,0-.765,5.764,24.706,24.706,0,0,0,.464,5.245,10.27,10.27,0,0,0,1.257,3.307,4.532,4.532,0,0,0,1.83,1.721,5.05,5.05,0,0,0,2.186.492,5.2,5.2,0,0,0,2.676-.738,8.027,8.027,0,0,0,2.184-1.885,9.4,9.4,0,0,0,1.474-2.569,7.877,7.877,0,0,0,.547-2.841V250.7Z" transform="translate(-87.271 -193.986)" fill="#fff"/>
      <path id="Path_40400" data-name="Path 40400" d="M504.541,251.792a76.491,76.491,0,0,0-.628-11.009,23.22,23.22,0,0,0-1.666-6.282,6.124,6.124,0,0,0-2.3-2.841,5.306,5.306,0,0,0-2.567-.683,4.832,4.832,0,0,0-2.813.846,10.327,10.327,0,0,0-2.131,1.94,16.244,16.244,0,0,0-1.531,2.184,13.689,13.689,0,0,1-1.066,1.639v36.5a8.482,8.482,0,0,1-.218,1.721,4.07,4.07,0,0,1-1.066,1.912,6.611,6.611,0,0,1-2.512,1.529,13.3,13.3,0,0,1-4.564.628,12.361,12.361,0,0,1-4.562-.681,7.147,7.147,0,0,1-2.54-1.613,4.091,4.091,0,0,1-1.092-1.912,7.681,7.681,0,0,1-.22-1.584V231.9a5.08,5.08,0,0,0-.738-2.76,2.7,2.7,0,0,0-2.485-1.175,3.533,3.533,0,0,0-1.586.327,8.655,8.655,0,0,0-1.42.929l-1.147-1.367a30.942,30.942,0,0,1,2.813-2.05,22.008,22.008,0,0,1,3.36-1.776,24.2,24.2,0,0,1,3.88-1.257,18.915,18.915,0,0,1,4.371-.492,10.808,10.808,0,0,1,5.52,1.175,7.827,7.827,0,0,1,2.894,2.815,8.806,8.806,0,0,1,1.121,3.415,28.356,28.356,0,0,1,.193,2.977,29.765,29.765,0,0,1,4.59-5.19,22.582,22.582,0,0,1,2.323-1.912,20.455,20.455,0,0,1,2.731-1.666,16.006,16.006,0,0,1,3.059-1.175,12.551,12.551,0,0,1,3.3-.437,14.657,14.657,0,0,1,6.585,1.42,11.752,11.752,0,0,1,4.836,4.753,27.6,27.6,0,0,1,3.006,8.825,75.2,75.2,0,0,1,1.037,13.632,58.863,58.863,0,0,1-1.42,13.769,39.46,39.46,0,0,1-3.716,9.943,25.88,25.88,0,0,1-5.19,6.691,26.8,26.8,0,0,1-5.847,4.072,23.772,23.772,0,0,1-5.654,2.048,26.531,26.531,0,0,1-4.672.628l-.6-2.241a10.844,10.844,0,0,0,3.034-1.2,8.542,8.542,0,0,0,2.54-2.406,16.193,16.193,0,0,0,2.022-4.015,36.769,36.769,0,0,0,1.5-6.093,80.265,80.265,0,0,0,.927-8.66Q504.537,258.459,504.541,251.792Z" transform="translate(-62.244 -193.986)" fill="#fff"/>
    </g>
  </g>
</svg>
