<svg xmlns="http://www.w3.org/2000/svg" width="628.722" height="155.667" viewBox="0 0 628.722 155.667">
  <g id="Ramadan_40_" data-name="Ramadan 40%" transform="translate(-646 -257.26)">
    <path id="Path_42063" data-name="Path 42063" d="M-118.608.99a14.514,14.514,0,0,1-6.1-1.21,9.433,9.433,0,0,1-4.07-3.382,8.943,8.943,0,0,1-1.43-5.033,9.484,9.484,0,0,1,1.018-4.4,8.172,8.172,0,0,1,2.75-3.135,6.745,6.745,0,0,1,3.823-1.155,5.359,5.359,0,0,1,3.245.962,4.144,4.144,0,0,1,1.65,2.668,6.628,6.628,0,0,0-4.565,1.512A5.2,5.2,0,0,0-124-8.085a5.13,5.13,0,0,0,1.43,3.8,5.13,5.13,0,0,0,3.795,1.43,6.425,6.425,0,0,0,4.813-1.952,6.777,6.777,0,0,0,1.9-4.922,9.149,9.149,0,0,0-1.43-4.9,46.079,46.079,0,0,0-4.29-5.61,46.99,46.99,0,0,1-4.483-5.858,10.006,10.006,0,0,1-1.512-5.363,8.765,8.765,0,0,1,1.6-5.142,10.879,10.879,0,0,1,4.4-3.6,14.678,14.678,0,0,1,6.325-1.32,11.235,11.235,0,0,1,7.122,2.09,6.759,6.759,0,0,1,2.668,5.61,5.768,5.768,0,0,1-1.155,3.74,3.7,3.7,0,0,1-3.025,1.43,3.976,3.976,0,0,1-3.355-1.7,5.331,5.331,0,0,0,1.65-2.035,6.047,6.047,0,0,0,.605-2.64,3.791,3.791,0,0,0-1.045-2.805,3.865,3.865,0,0,0-2.86-1.045,4.615,4.615,0,0,0-3.6,1.568,5.755,5.755,0,0,0-1.4,3.987,7.246,7.246,0,0,0,1.265,4.1,44.713,44.713,0,0,0,3.96,4.867q2.2,2.365,3.548,4.07a17.493,17.493,0,0,1,2.31,3.932,12,12,0,0,1,.963,4.813,11.061,11.061,0,0,1-1.952,6.38A13.434,13.434,0,0,1-111.1-.66,16.894,16.894,0,0,1-118.608.99Zm22.055-30.525h7.92l-.88,4.125a9.561,9.561,0,0,1,6.435-2.365,6.23,6.23,0,0,1,4.895,2.035q1.815,2.035,1.815,6.655a31.817,31.817,0,0,1-1.265,8.773,17.491,17.491,0,0,1-4.29,7.535A10.626,10.626,0,0,1-89.9.33q-3.52,0-4.675-1.98l-2.86,13.42-8.305,1.98Zm4.95,25.08A5.17,5.17,0,0,0-87.23-6.93a16.829,16.829,0,0,0,2.53-5.913,28.452,28.452,0,0,0,.8-6.407q0-4.565-2.75-4.565a3.488,3.488,0,0,0-2.007.715,6.5,6.5,0,0,0-1.787,1.98l-3.245,15.4A1.952,1.952,0,0,0-91.6-4.455ZM-67.128.33a8.882,8.882,0,0,1-6.325-2.117q-2.255-2.118-2.255-6.628a27.225,27.225,0,0,1,1.485-8.36,19.4,19.4,0,0,1,4.84-7.892A11.6,11.6,0,0,1-60.858-28q6.05,0,6.05,5.28a9.856,9.856,0,0,1-1.76,5.665A12.984,12.984,0,0,1-61.243-12.9a15.1,15.1,0,0,1-6.215,1.787q-.11,1.65-.11,2.2,0,2.7.935,3.657a4.074,4.074,0,0,0,3.025.963A9.137,9.137,0,0,0-58.52-5.665a24.659,24.659,0,0,0,4.648-4.18H-52Q-58.108.33-67.128.33Zm.11-14.08a7.25,7.25,0,0,0,3.878-1.43,10.072,10.072,0,0,0,2.97-3.355,8.724,8.724,0,0,0,1.128-4.29q0-2.255-1.375-2.255-1.98,0-3.877,3.465A26.39,26.39,0,0,0-67.018-13.75ZM-46.008.33a8.882,8.882,0,0,1-6.325-2.117q-2.255-2.118-2.255-6.628a26.78,26.78,0,0,1,1.513-8.36,19.807,19.807,0,0,1,4.84-7.892A11.439,11.439,0,0,1-39.793-28q3.3,0,4.7,1.43a4.97,4.97,0,0,1,1.4,3.63,4.694,4.694,0,0,1-.825,2.97A2.554,2.554,0,0,1-36.6-18.92a3.476,3.476,0,0,1-1.925-.66,9.634,9.634,0,0,0,.66-3.245,3.052,3.052,0,0,0-.385-1.65,1.278,1.278,0,0,0-1.155-.6q-1.65,0-3.3,2.695A25.108,25.108,0,0,0-45.4-15.84a26.739,26.739,0,0,0-1.045,6.93q0,2.7.935,3.657a4.074,4.074,0,0,0,3.025.963A9.137,9.137,0,0,0-37.4-5.665a24.659,24.659,0,0,0,4.648-4.18h1.87Q-36.988.33-46.008.33Zm22.44-30.8a4.192,4.192,0,0,1-3.08-1.265,4.192,4.192,0,0,1-1.265-3.08,4.283,4.283,0,0,1,1.265-3.107,4.147,4.147,0,0,1,3.08-1.293,4.237,4.237,0,0,1,3.108,1.293,4.237,4.237,0,0,1,1.292,3.107,4.147,4.147,0,0,1-1.292,3.08A4.283,4.283,0,0,1-23.568-30.47ZM-27.308.33A5.711,5.711,0,0,1-31.57-1.32a6.793,6.793,0,0,1-1.622-4.95,19.071,19.071,0,0,1,.44-3.575l3.74-17.655h7.92l-3.96,18.7a6.807,6.807,0,0,0-.22,1.76,2.018,2.018,0,0,0,.523,1.568,2.578,2.578,0,0,0,1.733.467,4.189,4.189,0,0,0,2.97-1.347,7.7,7.7,0,0,0,1.98-3.493h2.31q-2.035,5.94-5.225,8.058A11.393,11.393,0,0,1-27.308.33Zm15.84,0a7,7,0,0,1-5.225-2.145q-2.09-2.145-2.09-6.71a25.122,25.122,0,0,1,1.622-8.552,19.7,19.7,0,0,1,4.84-7.59,10.661,10.661,0,0,1,7.673-3.108A5.891,5.891,0,0,1-1.293-27a2.374,2.374,0,0,1,1.1,2.035v.385l.6-2.915h7.92L4.372-8.8a6.807,6.807,0,0,0-.22,1.76q0,2.365,2.255,2.365a3.322,3.322,0,0,0,2.667-1.43,10.769,10.769,0,0,0,1.788-3.74h2.31Q11.137-3.905,8.14-1.787A10.378,10.378,0,0,1,2.117.33,5.262,5.262,0,0,1-1.6-.962,5.787,5.787,0,0,1-3.273-4.73,15.356,15.356,0,0,1-6.82-1.072,7.754,7.754,0,0,1-11.468.33Zm3.575-5.335A3.97,3.97,0,0,0-5.17-6.3,6.786,6.786,0,0,0-3.328-9.845l2.64-12.43a2.232,2.232,0,0,0-.55-1.4,2.052,2.052,0,0,0-1.7-.687q-2.2,0-3.96,2.558a20.249,20.249,0,0,0-2.75,6.16,24.364,24.364,0,0,0-.99,6.352q0,2.75.8,3.52A2.7,2.7,0,0,0-7.893-5.005ZM16.2.33a5.661,5.661,0,0,1-4.262-1.677A6.979,6.979,0,0,1,10.313-6.38a19.071,19.071,0,0,1,.44-3.575L16.638-37.51l8.14-1.1L18.453-8.91a6.182,6.182,0,0,0-.22,1.595,1.969,1.969,0,0,0,2.255,2.2,4.431,4.431,0,0,0,1.76-.33A6.035,6.035,0,0,1,20.3-1.183,6.028,6.028,0,0,1,16.2.33ZM54.422.715A10.434,10.434,0,0,1,47.712-2.2L47.272,0h-7.92l7.48-34.98,8.14-1.1-6.6,30.855a5.347,5.347,0,0,0,3.135,1.1q3.135,0,5.528-3.63a28.674,28.674,0,0,0,3.713-9.24,49.306,49.306,0,0,0,1.32-11.33q0-5.39-2.118-7.893a7.324,7.324,0,0,0-5.913-2.5,16.43,16.43,0,0,0-7.4,1.623A12.374,12.374,0,0,0,41.5-32.45a13.218,13.218,0,0,0-1.87,7.095,7.213,7.213,0,0,0,.385,2.832,4.777,4.777,0,0,1,.385.908,6.863,6.863,0,0,1-4.373-1.21,4.707,4.707,0,0,1-1.512-3.905,10.907,10.907,0,0,1,2.8-7.1,19.84,19.84,0,0,1,7.508-5.39A25.273,25.273,0,0,1,54.972-41.25q7.535,0,11.11,4.455A17.619,17.619,0,0,1,69.657-25.41,37.286,37.286,0,0,1,67.54-13.062,28.3,28.3,0,0,1,61.9-3.135Q58.382.715,54.422.715ZM78.512.33a8.882,8.882,0,0,1-6.325-2.117q-2.255-2.118-2.255-6.628a27.225,27.225,0,0,1,1.485-8.36,19.4,19.4,0,0,1,4.84-7.892A11.6,11.6,0,0,1,84.782-28q6.05,0,6.05,5.28a9.856,9.856,0,0,1-1.76,5.665A12.984,12.984,0,0,1,84.4-12.9a15.1,15.1,0,0,1-6.215,1.787q-.11,1.65-.11,2.2,0,2.7.935,3.657a4.074,4.074,0,0,0,3.025.963A9.137,9.137,0,0,0,87.12-5.665a24.659,24.659,0,0,0,4.647-4.18h1.87Q87.532.33,78.512.33Zm.11-14.08A7.25,7.25,0,0,0,82.5-15.18a10.072,10.072,0,0,0,2.97-3.355,8.724,8.724,0,0,0,1.127-4.29q0-2.255-1.375-2.255-1.98,0-3.877,3.465A26.39,26.39,0,0,0,78.622-13.75ZM98.368.33a7,7,0,0,1-5.225-2.145q-2.09-2.145-2.09-6.71a25.122,25.122,0,0,1,1.622-8.552,19.7,19.7,0,0,1,4.84-7.59,10.661,10.661,0,0,1,7.673-3.108,5.891,5.891,0,0,1,3.355.77,2.374,2.374,0,0,1,1.1,2.035v.385l.6-2.915h7.92l-3.96,18.7a6.807,6.807,0,0,0-.22,1.76q0,2.365,2.255,2.365a3.322,3.322,0,0,0,2.668-1.43,10.768,10.768,0,0,0,1.787-3.74h2.31q-2.035,5.94-5.033,8.058A10.378,10.378,0,0,1,111.952.33,5.262,5.262,0,0,1,108.24-.962a5.787,5.787,0,0,1-1.678-3.768,15.356,15.356,0,0,1-3.548,3.658A7.754,7.754,0,0,1,98.368.33Zm3.575-5.335A3.97,3.97,0,0,0,104.665-6.3a6.786,6.786,0,0,0,1.842-3.548l2.64-12.43a2.232,2.232,0,0,0-.55-1.4,2.052,2.052,0,0,0-1.705-.687q-2.2,0-3.96,2.558a20.248,20.248,0,0,0-2.75,6.16,24.364,24.364,0,0,0-.99,6.352q0,2.75.8,3.52A2.7,2.7,0,0,0,101.943-5.005ZM126.032.33a5.661,5.661,0,0,1-4.262-1.677,6.979,6.979,0,0,1-1.623-5.032,19.071,19.071,0,0,1,.44-3.575l5.885-27.555,8.14-1.1-6.325,29.7a6.182,6.182,0,0,0-.22,1.595,1.969,1.969,0,0,0,2.255,2.2,4.431,4.431,0,0,0,1.76-.33,6.035,6.035,0,0,1-1.952,4.263A6.028,6.028,0,0,1,126.032.33Z" transform="translate(899.05 399.177)" fill="#fff"/>
    <g id="Group_31034" data-name="Group 31034" transform="translate(646 257.26)">
      <path id="Path_40394" data-name="Path 40394" d="M299.652,209.094q14.861,0,22.7,5.274t7.84,15.107a26.515,26.515,0,0,1-1.121,8.223,17.3,17.3,0,0,1-3.116,5.792,17.119,17.119,0,0,1-4.753,3.933,35.065,35.065,0,0,1-5.983,2.65,9.546,9.546,0,0,1,4.509,3.224,48.776,48.776,0,0,1,4.615,6.476q2.348,3.85,4.755,8.55t4.836,9.506q2.428,4.81,4.918,9.343a87.44,87.44,0,0,0,4.973,8.086,29.264,29.264,0,0,0,5.026,5.682,7.9,7.9,0,0,0,5.054,2.129,5.642,5.642,0,0,0,2.16-.435,8.156,8.156,0,0,0,1.666-.875l1.147,2.131q-1.093.6-2.677,1.338a29.351,29.351,0,0,1-3.716,1.393,40.145,40.145,0,0,1-4.78,1.121,34.318,34.318,0,0,1-5.875.464,16.525,16.525,0,0,1-9.563-2.923,24.691,24.691,0,0,1-7.32-8.225q-3.118-5.463-6.12-11.473t-5.983-12.022q-2.978-6.011-5.955-11.747t-5.983-10.765l.435-2.239a7.827,7.827,0,0,0,5.6-.382,9.374,9.374,0,0,0,3.907-3.907,21.525,21.525,0,0,0,2.266-6.638,46.236,46.236,0,0,0,.738-8.524,25.525,25.525,0,0,0-.71-6.146,18.469,18.469,0,0,0-2-5.028,10.539,10.539,0,0,0-3.087-3.388,7,7,0,0,0-4.043-1.228,6.849,6.849,0,0,0-2.87.519,4.964,4.964,0,0,0-1.775,1.312,4.506,4.506,0,0,0-.9,1.694,6.508,6.508,0,0,0-.246,1.721v64.8q0,4.208-2.213,6.12t-6.748,1.912q-4.588,0-6.775-1.912t-2.184-6.12V218.271q0-3-4.153-3.006a21.624,21.624,0,0,0-6.093.9,22.059,22.059,0,0,0-5.573,2.459,14.565,14.565,0,0,0-4.07,3.716,7.736,7.736,0,0,0-1.584,4.672,6.944,6.944,0,0,0,.464,2.786,4.427,4.427,0,0,0,1.066,1.558,2.773,2.773,0,0,0,1.228.655,4.875,4.875,0,0,0,.9.136,4.771,4.771,0,0,0,2.239-.464,12.815,12.815,0,0,0,1.586-.984c.473-.346.918-.674,1.338-.984a2.369,2.369,0,0,1,1.448-.466,3.687,3.687,0,0,1,1.393.3,3.982,3.982,0,0,1,1.367.956,5.493,5.493,0,0,1,1.066,1.721,6.845,6.845,0,0,1,.437,2.6,7.9,7.9,0,0,1-.846,3.771,8.429,8.429,0,0,1-2.186,2.65,9.083,9.083,0,0,1-3.059,1.584,11.769,11.769,0,0,1-3.415.519,11.9,11.9,0,0,1-4.727-.9,10.459,10.459,0,0,1-3.579-2.485,10.678,10.678,0,0,1-2.241-3.716,13.3,13.3,0,0,1-.765-4.535,18.027,18.027,0,0,1,1.694-8,17.6,17.6,0,0,1,4.781-5.983,27.07,27.07,0,0,1,7.4-4.179,54.283,54.283,0,0,1,9.561-2.65,97.012,97.012,0,0,1,11.23-1.393Q293.2,209.1,299.652,209.094Z" transform="translate(-252.553 -205.763)" fill="#fff"/>
      <path id="Path_40395" data-name="Path 40395" d="M321.249,226.767a12.888,12.888,0,0,0-3.441.437,11.816,11.816,0,0,0-2.731,1.092,6.453,6.453,0,0,0-1.8,1.448,2.416,2.416,0,0,0-.657,1.5,1.21,1.21,0,0,0,.846,1.175q.846.355,1.885.82a6.341,6.341,0,0,1,1.885,1.312,3.533,3.533,0,0,1,.846,2.6,4.758,4.758,0,0,1-.464,2.1,5.695,5.695,0,0,1-3.114,2.841,6.091,6.091,0,0,1-2.213.409,6.353,6.353,0,0,1-4.944-2.076,7.894,7.894,0,0,1-1.885-5.52,9.368,9.368,0,0,1,1.749-5.709,13.651,13.651,0,0,1,4.562-3.907,23.059,23.059,0,0,1,6.364-2.268,35.373,35.373,0,0,1,15.245.191,20.705,20.705,0,0,1,6.858,2.951,15.278,15.278,0,0,1,4.753,5.135,15.007,15.007,0,0,1,1.776,7.541v30.871c0,.327.019.693.053,1.094a3.416,3.416,0,0,0,.274,1.092,1.867,1.867,0,0,0,1.914,1.147,2.74,2.74,0,0,0,1.83-.738,14.8,14.8,0,0,0,1.5-1.5l1.367,1.147q-.82,1.147-1.967,2.514a15.778,15.778,0,0,1-6.614,4.588,14.128,14.128,0,0,1-4.973.82,9.787,9.787,0,0,1-6.118-2.048,9.945,9.945,0,0,1-3.5-6.311,23.079,23.079,0,0,1-3.634,3.933,19.477,19.477,0,0,1-3.85,2.567,16.952,16.952,0,0,1-3.962,1.422,18.831,18.831,0,0,1-4.017.435,16.01,16.01,0,0,1-5.082-.82,12.126,12.126,0,0,1-4.4-2.6,12.717,12.717,0,0,1-3.116-4.617,18.165,18.165,0,0,1-1.175-6.939,15.22,15.22,0,0,1,1.969-8.141,17.522,17.522,0,0,1,5.164-5.327,34.849,34.849,0,0,1,7.267-3.689q4.072-1.528,8.333-3.224a8.9,8.9,0,0,0,4.615-3.744,10.027,10.027,0,0,0,1.45-5.109,8.861,8.861,0,0,0-2.377-6.474A8.64,8.64,0,0,0,321.249,226.767Zm8.688,23.932a2.518,2.518,0,0,0-.875-2.076,3.443,3.443,0,0,0-2.241-.71,7.907,7.907,0,0,0-3.632.875,8.995,8.995,0,0,0-3.034,2.567,13.046,13.046,0,0,0-2.076,4.18,19.6,19.6,0,0,0-.765,5.764,24.7,24.7,0,0,0,.464,5.245,10.269,10.269,0,0,0,1.257,3.307,4.532,4.532,0,0,0,1.83,1.721,5.05,5.05,0,0,0,2.186.492,5.2,5.2,0,0,0,2.677-.738,8.026,8.026,0,0,0,2.184-1.885,9.4,9.4,0,0,0,1.475-2.569,7.876,7.876,0,0,0,.547-2.841V250.7Z" transform="translate(-209.022 -193.986)" fill="#fff"/>
      <path id="Path_40396" data-name="Path 40396" d="M382.714,274.192a7.989,7.989,0,0,1-.218,1.694,3.89,3.89,0,0,1-1.066,1.857,6.766,6.766,0,0,1-2.542,1.5,13.53,13.53,0,0,1-4.59.628,12.36,12.36,0,0,1-4.562-.681,6.841,6.841,0,0,1-2.512-1.613,4.211,4.211,0,0,1-1.066-1.912,7.657,7.657,0,0,1-.218-1.584v-38.63a5.909,5.909,0,0,0-.218-1.556,4.932,4.932,0,0,0-.657-1.448,3.639,3.639,0,0,0-1.092-1.066,2.831,2.831,0,0,0-1.531-.409,5.589,5.589,0,0,0-2.894.846,17.371,17.371,0,0,0-2.65,1.94,20.092,20.092,0,0,0-2.131,2.184c-.6.729-1.03,1.276-1.283,1.639v36.608a8.11,8.11,0,0,1-.218,1.694,3.9,3.9,0,0,1-1.066,1.857,6.787,6.787,0,0,1-2.512,1.5,13.3,13.3,0,0,1-4.564.628,12.361,12.361,0,0,1-4.562-.681,7.148,7.148,0,0,1-2.54-1.613,4.091,4.091,0,0,1-1.092-1.912,7.675,7.675,0,0,1-.22-1.584V231.906a5.079,5.079,0,0,0-.738-2.76,2.7,2.7,0,0,0-2.485-1.175,3.533,3.533,0,0,0-1.586.327,8.658,8.658,0,0,0-1.42.929l-1.147-1.367a30.943,30.943,0,0,1,2.813-2.05,22.007,22.007,0,0,1,3.36-1.776,24.2,24.2,0,0,1,3.88-1.257,18.915,18.915,0,0,1,4.371-.492,10.808,10.808,0,0,1,5.52,1.175,7.826,7.826,0,0,1,2.894,2.815,8.8,8.8,0,0,1,1.121,3.415,28.34,28.34,0,0,1,.193,2.977,41.012,41.012,0,0,1,5.518-5.19,28.38,28.38,0,0,1,2.65-1.912,27.92,27.92,0,0,1,2.978-1.666,17.993,17.993,0,0,1,3.169-1.175,12.661,12.661,0,0,1,3.278-.437,11.751,11.751,0,0,1,5.408,1.147,11.528,11.528,0,0,1,3.606,2.76,10.916,10.916,0,0,1,2,3.388,9.475,9.475,0,0,1,.626,3.087,45.981,45.981,0,0,1,5.52-5.19,30.292,30.292,0,0,1,2.624-1.912,24.643,24.643,0,0,1,2.977-1.666A19.06,19.06,0,0,1,397,222.727a12.359,12.359,0,0,1,3.252-.437,11.513,11.513,0,0,1,5.408,1.175,10.131,10.131,0,0,1,3.606,3.087,13.092,13.092,0,0,1,2,4.318,18.965,18.965,0,0,1,.626,4.808V269.5c0,.327.019.683.055,1.066a3.62,3.62,0,0,0,.274,1.092,1.922,1.922,0,0,0,.681.846,2.079,2.079,0,0,0,1.228.327,2.7,2.7,0,0,0,1.857-.738q.82-.738,1.531-1.5l1.31,1.147a22.931,22.931,0,0,1-2.02,2.54,19.329,19.329,0,0,1-2.977,2.65,16.5,16.5,0,0,1-3.988,2.1,14.526,14.526,0,0,1-5.109.846,12.5,12.5,0,0,1-4.18-.628,9.267,9.267,0,0,1-3.006-1.694,6.674,6.674,0,0,1-1.83-2.514,7.963,7.963,0,0,1-.6-3.087v-36.5a5.907,5.907,0,0,0-.218-1.556,5.471,5.471,0,0,0-.628-1.448,3.314,3.314,0,0,0-1.066-1.066,2.836,2.836,0,0,0-1.531-.409,5.732,5.732,0,0,0-2.923.846,16.822,16.822,0,0,0-2.678,1.94,17.971,17.971,0,0,0-2.1,2.184q-.875,1.093-1.257,1.639v36.606Z" transform="translate(-183.996 -193.984)" fill="#fff"/>
      <path id="Path_40397" data-name="Path 40397" d="M398.348,226.767a12.888,12.888,0,0,0-3.441.437,11.818,11.818,0,0,0-2.731,1.092,6.456,6.456,0,0,0-1.8,1.448,2.416,2.416,0,0,0-.657,1.5,1.21,1.21,0,0,0,.846,1.175q.846.355,1.885.82a6.342,6.342,0,0,1,1.885,1.312,3.533,3.533,0,0,1,.846,2.6,4.758,4.758,0,0,1-.464,2.1,5.694,5.694,0,0,1-3.114,2.841,6.091,6.091,0,0,1-2.213.409,6.353,6.353,0,0,1-4.944-2.076,7.893,7.893,0,0,1-1.885-5.52,9.367,9.367,0,0,1,1.749-5.709,13.65,13.65,0,0,1,4.562-3.907,23.059,23.059,0,0,1,6.364-2.268,35.373,35.373,0,0,1,15.245.191,20.706,20.706,0,0,1,6.858,2.951,15.278,15.278,0,0,1,4.753,5.135,15.007,15.007,0,0,1,1.775,7.541v30.871c0,.327.019.693.053,1.094a3.417,3.417,0,0,0,.274,1.092,1.867,1.867,0,0,0,1.914,1.147,2.74,2.74,0,0,0,1.83-.738,14.8,14.8,0,0,0,1.5-1.5l1.367,1.147q-.821,1.147-1.967,2.514a15.779,15.779,0,0,1-6.614,4.588,14.129,14.129,0,0,1-4.973.82,9.787,9.787,0,0,1-6.118-2.048,9.945,9.945,0,0,1-3.5-6.311A23.078,23.078,0,0,1,404,275.448a19.476,19.476,0,0,1-3.85,2.567,16.953,16.953,0,0,1-3.962,1.422,18.833,18.833,0,0,1-4.017.435,16.01,16.01,0,0,1-5.082-.82,12.126,12.126,0,0,1-4.4-2.6,12.717,12.717,0,0,1-3.116-4.617A18.165,18.165,0,0,1,378.4,264.9a15.22,15.22,0,0,1,1.969-8.141,17.522,17.522,0,0,1,5.164-5.327,34.847,34.847,0,0,1,7.267-3.689q4.071-1.528,8.332-3.224a8.9,8.9,0,0,0,4.615-3.744,10.027,10.027,0,0,0,1.45-5.109,8.862,8.862,0,0,0-2.377-6.474A8.64,8.64,0,0,0,398.348,226.767Zm8.686,23.932a2.519,2.519,0,0,0-.874-2.076,3.443,3.443,0,0,0-2.241-.71,7.907,7.907,0,0,0-3.632.875,8.994,8.994,0,0,0-3.034,2.567,13.046,13.046,0,0,0-2.076,4.18,19.6,19.6,0,0,0-.765,5.764,24.706,24.706,0,0,0,.464,5.245,10.27,10.27,0,0,0,1.257,3.307,4.532,4.532,0,0,0,1.83,1.721,5.05,5.05,0,0,0,2.186.492,5.2,5.2,0,0,0,2.677-.738,8.028,8.028,0,0,0,2.184-1.885,9.4,9.4,0,0,0,1.474-2.569,7.877,7.877,0,0,0,.547-2.841V250.7Z" transform="translate(-140.183 -193.986)" fill="#fff"/>
      <path id="Path_40398" data-name="Path 40398" d="M441.3,238.64a56.859,56.859,0,0,0-2.9-10.189,34.27,34.27,0,0,0-4.454-8.168,20.638,20.638,0,0,0-5.9-5.41,13.7,13.7,0,0,0-7.13-1.967,13.454,13.454,0,0,0-3.962.547,15.655,15.655,0,0,0-3.087,1.283,15.948,15.948,0,0,0-2.16,1.42q-.849.684-1.228,1.011l-1.42-1.912a18.1,18.1,0,0,1,3.2-3.169,21.062,21.062,0,0,1,4.125-2.514,25.523,25.523,0,0,1,4.727-1.639,21.046,21.046,0,0,1,4.944-.6,27.962,27.962,0,0,1,14.206,3.525,29.522,29.522,0,0,1,10.218,9.972,49.229,49.229,0,0,1,6.175,15.573,91.646,91.646,0,0,1,2.076,20.271,61.478,61.478,0,0,1-1.83,15.845,34.124,34.124,0,0,1-5.219,11.446,21.875,21.875,0,0,1-8.225,6.939,24.856,24.856,0,0,1-10.9,2.323,26.065,26.065,0,0,1-8.552-1.5,21.317,21.317,0,0,1-7.869-4.889,25.425,25.425,0,0,1-5.764-8.878,40.624,40.624,0,0,1-.3-25.707,27.593,27.593,0,0,1,5.219-9.042,22.335,22.335,0,0,1,7.6-5.628,22.011,22.011,0,0,1,9.124-1.94,16.768,16.768,0,0,1,3.333.3,14.977,14.977,0,0,1,2.567.738,11.855,11.855,0,0,1,1.914.956C440.374,237.976,440.866,238.313,441.3,238.64Zm.657,24.041v-2.432q0-1.831-.112-4.208t-.38-5.054a33.141,33.141,0,0,0-.875-4.973,19.393,19.393,0,0,0-2.925-3.032,6.241,6.241,0,0,0-4.125-1.338q-4.262,0-6.258,5.573t-2,17.267a86.966,86.966,0,0,0,.466,9.4,38.816,38.816,0,0,0,1.42,7.322,12.9,12.9,0,0,0,2.459,4.753,4.628,4.628,0,0,0,3.579,1.694Q441.96,287.651,441.961,262.682Z" transform="translate(-113.639 -207.334)" fill="#fff"/>
      <path id="Path_40399" data-name="Path 40399" d="M457.608,226.767a12.888,12.888,0,0,0-3.441.437,11.818,11.818,0,0,0-2.731,1.092,6.455,6.455,0,0,0-1.8,1.448,2.416,2.416,0,0,0-.657,1.5,1.21,1.21,0,0,0,.846,1.175q.846.355,1.885.82a6.342,6.342,0,0,1,1.885,1.312,3.533,3.533,0,0,1,.846,2.6,4.759,4.759,0,0,1-.464,2.1,5.694,5.694,0,0,1-3.114,2.841,6.091,6.091,0,0,1-2.213.409,6.353,6.353,0,0,1-4.944-2.076,7.894,7.894,0,0,1-1.885-5.52,9.367,9.367,0,0,1,1.749-5.709,13.651,13.651,0,0,1,4.562-3.907,23.059,23.059,0,0,1,6.364-2.268,35.373,35.373,0,0,1,15.245.191,20.706,20.706,0,0,1,6.858,2.951,15.279,15.279,0,0,1,4.753,5.135,15.008,15.008,0,0,1,1.775,7.541v30.871c0,.327.019.693.053,1.094a3.416,3.416,0,0,0,.274,1.092,1.867,1.867,0,0,0,1.914,1.147,2.74,2.74,0,0,0,1.83-.738,14.8,14.8,0,0,0,1.5-1.5l1.367,1.147q-.821,1.147-1.967,2.514a15.779,15.779,0,0,1-6.614,4.588,14.129,14.129,0,0,1-4.973.82,9.787,9.787,0,0,1-6.118-2.048,9.945,9.945,0,0,1-3.5-6.311,23.077,23.077,0,0,1-3.634,3.933,19.474,19.474,0,0,1-3.85,2.567,16.953,16.953,0,0,1-3.962,1.422,18.833,18.833,0,0,1-4.017.435,16.01,16.01,0,0,1-5.082-.82,12.125,12.125,0,0,1-4.4-2.6,12.717,12.717,0,0,1-3.116-4.617,18.164,18.164,0,0,1-1.176-6.939,15.22,15.22,0,0,1,1.969-8.141,17.522,17.522,0,0,1,5.164-5.327,34.848,34.848,0,0,1,7.267-3.689q4.072-1.528,8.332-3.224a8.9,8.9,0,0,0,4.615-3.744,10.028,10.028,0,0,0,1.45-5.109,8.861,8.861,0,0,0-2.377-6.474A8.637,8.637,0,0,0,457.608,226.767ZM466.3,250.7a2.519,2.519,0,0,0-.874-2.076,3.443,3.443,0,0,0-2.241-.71,7.907,7.907,0,0,0-3.632.875,8.994,8.994,0,0,0-3.034,2.567,13.045,13.045,0,0,0-2.076,4.18,19.6,19.6,0,0,0-.765,5.764,24.706,24.706,0,0,0,.464,5.245,10.27,10.27,0,0,0,1.257,3.307,4.532,4.532,0,0,0,1.83,1.721,5.05,5.05,0,0,0,2.186.492,5.2,5.2,0,0,0,2.676-.738,8.027,8.027,0,0,0,2.184-1.885,9.4,9.4,0,0,0,1.474-2.569,7.877,7.877,0,0,0,.547-2.841V250.7Z" transform="translate(-87.271 -193.986)" fill="#fff"/>
      <path id="Path_40400" data-name="Path 40400" d="M504.541,251.792a76.491,76.491,0,0,0-.628-11.009,23.22,23.22,0,0,0-1.666-6.282,6.124,6.124,0,0,0-2.3-2.841,5.306,5.306,0,0,0-2.567-.683,4.832,4.832,0,0,0-2.813.846,10.327,10.327,0,0,0-2.131,1.94,16.244,16.244,0,0,0-1.531,2.184,13.689,13.689,0,0,1-1.066,1.639v36.5a8.482,8.482,0,0,1-.218,1.721,4.07,4.07,0,0,1-1.066,1.912,6.611,6.611,0,0,1-2.512,1.529,13.3,13.3,0,0,1-4.564.628,12.361,12.361,0,0,1-4.562-.681,7.147,7.147,0,0,1-2.54-1.613,4.091,4.091,0,0,1-1.092-1.912,7.681,7.681,0,0,1-.22-1.584V231.9a5.08,5.08,0,0,0-.738-2.76,2.7,2.7,0,0,0-2.485-1.175,3.533,3.533,0,0,0-1.586.327,8.655,8.655,0,0,0-1.42.929l-1.147-1.367a30.942,30.942,0,0,1,2.813-2.05,22.008,22.008,0,0,1,3.36-1.776,24.2,24.2,0,0,1,3.88-1.257,18.915,18.915,0,0,1,4.371-.492,10.808,10.808,0,0,1,5.52,1.175,7.827,7.827,0,0,1,2.894,2.815,8.806,8.806,0,0,1,1.121,3.415,28.356,28.356,0,0,1,.193,2.977,29.765,29.765,0,0,1,4.59-5.19,22.582,22.582,0,0,1,2.323-1.912,20.455,20.455,0,0,1,2.731-1.666,16.006,16.006,0,0,1,3.059-1.175,12.551,12.551,0,0,1,3.3-.437,14.657,14.657,0,0,1,6.585,1.42,11.752,11.752,0,0,1,4.836,4.753,27.6,27.6,0,0,1,3.006,8.825,75.2,75.2,0,0,1,1.037,13.632,58.863,58.863,0,0,1-1.42,13.769,39.46,39.46,0,0,1-3.716,9.943,25.88,25.88,0,0,1-5.19,6.691,26.8,26.8,0,0,1-5.847,4.072,23.772,23.772,0,0,1-5.654,2.048,26.531,26.531,0,0,1-4.672.628l-.6-2.241a10.844,10.844,0,0,0,3.034-1.2,8.542,8.542,0,0,0,2.54-2.406,16.193,16.193,0,0,0,2.022-4.015,36.769,36.769,0,0,0,1.5-6.093,80.265,80.265,0,0,0,.927-8.66Q504.537,258.459,504.541,251.792Z" transform="translate(-62.244 -193.986)" fill="#fff"/>
    </g>
    <g id="Group_31195" data-name="Group 31195">
      <g id="Group_31187" data-name="Group 31187" transform="translate(1188.362 272.497) rotate(90)" opacity="0.7">
        <path id="Path_41932" data-name="Path 41932" d="M18.856,1.383a5,5,0,0,1,1.468,3.726,5.062,5.062,0,0,1-1.468,3.754,5.191,5.191,0,0,1-3.7,1.383H0V7.085H15.327a1.93,1.93,0,0,0,2.145-1.976,1.91,1.91,0,0,0-2.145-1.948H0V0H15.158A5.192,5.192,0,0,1,18.856,1.383Z" transform="translate(0.226 37.034)" fill="#fff"/>
        <path id="Path_41933" data-name="Path 41933" d="M12.222,5.166V7.057H20.1v3.161H0V5.166C0,1.524,1.919,0,6.125,0S12.222,1.524,12.222,5.166Zm-9.371.113V7.057H9.371V5.279c0-1.694-1.214-2.117-3.246-2.117S2.851,3.585,2.851,5.279Z" transform="translate(0.226 23.598)" fill="#fff"/>
        <path id="Path_41934" data-name="Path 41934" d="M2.851,3.387H20.1V6.549H2.851V9.908H0V0H2.851Z" transform="translate(0.226 12.194)" fill="#fff"/>
        <path id="Path_41935" data-name="Path 41935" d="M18.827,1.468a4.77,4.77,0,0,1,1.722,3.9,4.769,4.769,0,0,1-1.722,3.9c-1.609,1.327-3.782,1.468-8.553,1.468s-6.944-.141-8.553-1.468A4.77,4.77,0,0,1,0,5.363a4.77,4.77,0,0,1,1.722-3.9C3.3.113,5.5,0,10.275,0S17.247.113,18.827,1.468ZM3.613,3.839a1.667,1.667,0,0,0-.762,1.524,1.618,1.618,0,0,0,.762,1.5c.96.593,2.992.706,6.662.706s5.7-.113,6.662-.706a1.618,1.618,0,0,0,.762-1.5,1.667,1.667,0,0,0-.762-1.524c-.96-.593-2.992-.677-6.662-.677S4.573,3.246,3.613,3.839Z" transform="translate(0 0)" fill="#fff"/>
      </g>
      <g id="Group_31186" data-name="Group 31186" transform="translate(1236.391 368.093)" opacity="0.7">
        <path id="Path_41936" data-name="Path 41936" d="M1998.143,1576.559a6.033,6.033,0,0,1-8.924,0c-1.52-1.843-1.681-4.333-1.681-9.8s.162-7.954,1.681-9.8a6.033,6.033,0,0,1,8.924,0c1.552,1.811,1.681,4.333,1.681,9.8S1999.695,1574.748,1998.143,1576.559Zm-2.716-17.428a1.91,1.91,0,0,0-1.746-.873,1.854,1.854,0,0,0-1.714.873c-.679,1.1-.808,3.427-.808,7.631s.129,6.531.808,7.631a1.854,1.854,0,0,0,1.714.873,1.91,1.91,0,0,0,1.746-.873c.679-1.1.776-3.427.776-7.631S1996.105,1560.23,1995.427,1559.131Z" transform="translate(-1987.537 -1554.992)" fill="#fff"/>
        <path id="Path_41937" data-name="Path 41937" d="M2209.44,1561.889v6.532h5.206v3.266h-5.206v9.959h-3.622v-23.022h9.667v3.266Z" transform="translate(-2190.266 -1558.364)" fill="#fff"/>
        <path id="Path_41938" data-name="Path 41938" d="M2386.428,1561.889v6.532h5.206v3.266h-5.206v9.959h-3.622v-23.022h9.668v3.266Z" transform="translate(-2354.644 -1558.364)" fill="#fff"/>
      </g>
      <g id="Group_31190" data-name="Group 31190" transform="translate(184.381 -364.538)">
        <path id="Path_42056" data-name="Path 42056" d="M3258.1,741.652l-13.835,35.739-6.3,16.262-1.551,4.009h5.6l21.684-56.011Z" transform="translate(-2180.98 -73.453)" fill="#00ff9d" stroke="rgba(0,0,0,0)" stroke-miterlimit="10" stroke-width="1"/>
        <path id="Path_42057" data-name="Path 42057" d="M3211.847,739.552q-2.157-2.322-6.32-2.32t-6.32,2.32a6.886,6.886,0,0,0-1.073,1.526,10.842,10.842,0,0,0-1.088,5.117v14a10.85,10.85,0,0,0,1.088,5.117,6.89,6.89,0,0,0,1.073,1.526q2.157,2.318,6.32,2.319t6.32-2.319c.065-.068.127-.138.184-.209a9.57,9.57,0,0,0,1.978-6.433v-14a9.565,9.565,0,0,0-1.978-6.433C3211.975,739.69,3211.913,739.619,3211.847,739.552Zm-3.438,21.042q0,3.526-2.882,3.523t-2.882-3.523v-14.8q0-3.522,2.882-3.52t2.882,3.52Z" transform="translate(-2148.733 -69.833)" fill="#00ff9d" stroke="rgba(0,0,0,0)" stroke-miterlimit="10" stroke-width="1"/>
        <path id="Path_42058" data-name="Path 42058" d="M3347.637,881.526q-2.161-2.318-6.32-2.32t-6.323,2.32q-2.157,2.322-2.158,6.642v14q0,4.323,2.158,6.642t6.323,2.32q4.157,0,6.32-2.32t2.162-6.642v-14Q3349.8,883.845,3347.637,881.526Zm-3.441,21.045q0,3.522-2.879,3.52t-2.882-3.52v-14.8q0-3.517,2.882-3.52t2.879,3.52Z" transform="translate(-2259.957 -186.122)" fill="#00ff9d" stroke="rgba(0,0,0,0)" stroke-miterlimit="10" stroke-width="1"/>
      </g>
      <path id="Path_42061" data-name="Path 42061" d="M3.094-83.165H29.589v16.023H43.467V-83.165h6.561V-95.782H43.467v-59.677H28.327L3.094-95.782ZM15.837-95.782l13.752-32.677v32.677Zm53.242-39.364c0-6.308,2.776-8.705,7.191-8.705s7.191,2.4,7.191,8.705v47.691c0,6.308-2.776,8.705-7.191,8.705s-7.191-2.4-7.191-8.705ZM55.2-88.338c0,14.131,7.444,22.205,21.07,22.205s21.07-8.075,21.07-22.205v-45.924c0-14.131-7.444-22.205-21.07-22.205S55.2-148.393,55.2-134.263Z" transform="translate(1127.283 458.067)" fill="#00ff9d"/>
    </g>
  </g>
</svg>
