<svg xmlns="http://www.w3.org/2000/svg" xmlns:xlink="http://www.w3.org/1999/xlink" width="440.676" height="329.732" viewBox="0 0 440.676 329.732">
  <defs>
    <linearGradient id="linear-gradient" x1="3.55" y1="-0.052" x2="3.55" y2="1.322" gradientUnits="objectBoundingBox">
      <stop offset="0" stop-color="#ffe564"/>
      <stop offset="1" stop-color="#ff9101"/>
    </linearGradient>
  </defs>
  <g id="Group_5897" data-name="Group 5897" transform="translate(8201.001 5421)">
    <g id="Group_5714" data-name="Group 5714" transform="translate(-8201 -5397.989)">
      <g id="Group_5712" data-name="Group 5712">
        <path id="Path_6539" data-name="Path 6539" d="M174.794,331.923c0,2.368.4,4.139,1.776,5.519l5.9,5.714c.4.592,1.38,1.184,1.38,1.771a1.133,1.133,0,0,1-1.173,1.184H151.748a1.139,1.139,0,0,1-1.184-1.184c0-.587.983-1.179,1.38-1.771l5.91-5.714c1.38-1.38,1.771-3.15,1.771-5.519V212.542c0-2.368-.391-4.139-1.771-5.518l-5.91-5.714c-.4-.592-1.38-1.179-1.38-1.771a1.134,1.134,0,0,1,1.184-1.179H176.37c20.493,0,31.129,10.836,31.129,36.446,0,21.862-7.68,30.732-14.578,35.061,6.7,3.547,12.612,11.233,12.612,22.069v41.172a5.111,5.111,0,0,0,1.771,3.542l6.306,6.7c.782.788,1.575,1.575,1.575,2.167s-.989.592-1.972.592H202.968c-9.06,0-12.607-5.91-12.607-12.612v-42.35c0-8.669-5.323-15.176-12.216-15.176h-3.351Zm0-65.8h2.955c9.657,0,13.6-7.68,13.6-31.319,0-20.1-3.938-26.6-13.6-26.6h-2.955Z" transform="translate(-150.564 -198.36)" fill="url(#linear-gradient)"/>
        <path id="Path_6540" data-name="Path 6540" d="M205.792,301.535c0,2.564.788,4.921,2.564,4.921a6.92,6.92,0,0,0,5.714-3.346c.391-.391.587-.793.983-.793s.592.4.592.988c-.793,5.714-5.323,11.624-10.244,11.624-6.111,0-9.261-3.943-11.629-7.485-3.15,3.541-8.272,7.485-13.59,7.485-7.686,0-17.142-4.926-17.142-31.916,0-22.063,3.351-27.978,25.018-45.311,3.943-3.15,3.943-4.921,3.943-13,0-8.663-1.966-10.836-8.272-10.836-5.714,0-13.992,4.53-17.533,8.082a2.256,2.256,0,0,1-1.575.587c-.4,0-.592-.391-.592-.983,0-2.363,11.227-16.154,22.259-16.154,7.094,0,19.5,4.334,19.5,24.627ZM192,243.222h-.391c-10.836,9.261-13.986,16.154-13.986,36.245,0,22.46,2.162,26.99,6.5,26.99S192,300.351,192,294.833Z" transform="translate(-95.275 -167.179)" fill="url(#linear-gradient)"/>
        <path id="Path_6541" data-name="Path 6541" d="M180.194,214.852a1.919,1.919,0,0,0-.592-1.575l-5.91-5.519a3.866,3.866,0,0,1-.788-1.575c0-.592.592-.788,1.184-.788H193c.793,0,.989.391.989,1.179v5.714h.391c3.552-3.742,6.9-6.893,13.6-6.893a14.7,14.7,0,0,1,12.612,6.893c3.541-3.742,8.272-6.893,14.964-6.893,8.87,0,15.572,6.893,15.572,20.092V304.1c0,.782,0,1.369.391,1.771l6.1,6.893a1.7,1.7,0,0,1,.788,1.38c0,.587-.4.787-1.179.787H231.219c-.592,0-1.184-.2-1.184-.787a2.051,2.051,0,0,1,.983-1.38l5.91-6.893c.4-.4.4-.988.4-1.771V225.292c0-7.485-1.575-11.428-5.519-11.428-4.139,0-9.261,6.507-9.261,17.142V304.1c0,.782,0,1.369.391,1.771l4.731,6.893a2.118,2.118,0,0,1,.592,1.38c0,.587-.4.787-1.184.787H204.229c-.592,0-1.184-.2-1.184-.787a2.467,2.467,0,0,1,.793-1.38l4.53-6.893c.391-.4.391-.988.391-1.771V225.292c0-7.485-1.575-11.428-5.518-11.428-4.334,0-9.256,6.507-9.256,17.142V304.1c0,.782,0,1.369.391,1.771l6.1,6.893a2.467,2.467,0,0,1,.793,1.38c0,.587-.391.787-1.184.787h-26c-.592,0-1.184-.2-1.184-.787a2.487,2.487,0,0,1,.788-1.38l6.111-6.893c.391-.4.391-.988.391-1.771Z" transform="translate(-51.557 -167.179)" fill="url(#linear-gradient)"/>
        <path id="Path_6542" data-name="Path 6542" d="M232.448,301.535c0,2.564.788,4.921,2.564,4.921a6.913,6.913,0,0,0,5.714-3.346c.391-.391.587-.793.983-.793s.592.4.592.988c-.793,5.714-5.323,11.624-10.244,11.624-6.111,0-9.261-3.943-11.629-7.485-3.15,3.541-8.272,7.485-13.59,7.485-7.686,0-17.142-4.926-17.142-31.916,0-22.063,3.351-27.978,25.023-45.311,3.938-3.15,3.938-4.921,3.938-13,0-8.663-1.966-10.836-8.272-10.836-5.714,0-13.986,4.53-17.533,8.082a2.247,2.247,0,0,1-1.575.587c-.4,0-.592-.391-.592-.983,0-2.363,11.227-16.154,22.264-16.154,7.088,0,19.5,4.334,19.5,24.627Zm-13.791-58.314h-.391c-10.836,9.261-13.986,16.154-13.986,36.245,0,22.46,2.162,26.99,6.5,26.99s7.881-6.105,7.881-11.624Z" transform="translate(22.854 -167.179)" fill="url(#linear-gradient)"/>
        <path id="Path_6543" data-name="Path 6543" d="M231.647,207.816a1.6,1.6,0,0,0-.793-1.581l-5.709-5.714a2.021,2.021,0,0,1-.983-1.38c0-.587.587-.782,1.38-.782h18.712a1.042,1.042,0,0,1,1.184,1.179V335.28a4.427,4.427,0,0,0,.2,1.771l6.105,6.893a2.043,2.043,0,0,1,.989,1.38c0,.587-.592.788-1.38.788H233.027c-.793,0-1.38-.4-1.38-.788v-6.7h-.391c-3.357,3.938-6.9,7.485-13.2,7.485-8.669,0-17.729-4.926-17.729-60.481,0-43.931,9.853-49.053,17.924-49.053,5.719,0,9.652,3.15,13.009,6.893h.391Zm0,52.008c0-9.652-5.91-14.779-8.669-14.779-4.926,0-7.289,4.139-7.289,40.585,0,47.478,1.972,52.008,7.094,52.008,4.726,0,8.864-6.105,8.864-15.757Z" transform="translate(69.949 -198.36)" fill="url(#linear-gradient)"/>
        <path id="Path_6544" data-name="Path 6544" d="M253.779,301.535c0,2.564.782,4.921,2.558,4.921a6.906,6.906,0,0,0,5.714-3.346c.391-.391.587-.793.983-.793s.592.4.592.988c-.788,5.714-5.318,11.624-10.244,11.624-6.111,0-9.261-3.943-11.624-7.485-3.15,3.541-8.278,7.485-13.59,7.485-7.686,0-17.148-4.926-17.148-31.916,0-22.063,3.357-27.978,25.023-45.311,3.938-3.15,3.938-4.921,3.938-13,0-8.663-1.966-10.836-8.272-10.836-5.714,0-13.986,4.53-17.533,8.082a2.251,2.251,0,0,1-1.581.587c-.391,0-.587-.391-.587-.983,0-2.363,11.227-16.154,22.264-16.154,7.088,0,19.5,4.334,19.5,24.627Zm-13.8-58.314h-.391c-10.836,9.261-13.986,16.154-13.986,36.245,0,22.46,2.162,26.99,6.5,26.99s7.881-6.105,7.881-11.624Z" transform="translate(117.358 -167.179)" fill="url(#linear-gradient)"/>
        <path id="Path_6545" data-name="Path 6545" d="M241.966,212.289h.391c3.547-3.742,6.893-6.893,13.6-6.893,9.848,0,16.349,6.893,16.349,20.092V304.1c0,.782,0,1.369.4,1.771l6.105,6.893a2.52,2.52,0,0,1,.788,1.38c0,.587-.592.787-1.179.787H252.4c-.782,0-1.179-.2-1.179-.787a2.521,2.521,0,0,1,.788-1.38l6.1-6.893c.4-.4.4-.988.4-1.771V225.292c0-7.485-2.167-11.428-6.7-11.428-4.731,0-9.848,6.507-9.848,17.142V304.1a4.425,4.425,0,0,0,.2,1.771l6.1,6.893a2.033,2.033,0,0,1,.983,1.38c0,.587-.587.787-1.179.787h-26.01c-.788,0-1.179-.2-1.179-.787a1.711,1.711,0,0,1,.782-1.38l6.11-6.893c.391-.4.391-.988.391-1.771V214.852a1.919,1.919,0,0,0-.592-1.575l-5.91-5.519a3.912,3.912,0,0,1-.782-1.575c0-.592.587-.788,1.179-.788h18.913c.787,0,.988.391.988,1.179Z" transform="translate(161.076 -167.179)" fill="url(#linear-gradient)"/>
      </g>
      <g id="Group_5713" data-name="Group 5713" transform="translate(108.458 163.921)">
        <path id="Path_6546" data-name="Path 6546" d="M181.335,246.279l-2.01,2.238v6.556h-8.794V228.539h8.794v9.63l8.723-9.63h9.739l-10.613,11.678,11.14,14.856H187.967Z" transform="translate(-170.532 -228.539)" fill="url(#linear-gradient)"/>
        <path id="Path_6547" data-name="Path 6547" d="M199.2,250.445H189.116l-1.782,4.628h-9.1l11.6-26.533h8.794l11.6,26.533h-9.245ZM196.736,244l-2.58-6.67-2.58,6.67Z" transform="translate(-136.391 -228.539)" fill="url(#linear-gradient)"/>
        <path id="Path_6548" data-name="Path 6548" d="M198.9,248.4h-2.422v6.675h-8.951V228.539H200.3a15.558,15.558,0,0,1,6.4,1.217,9.8,9.8,0,0,1,4.4,13.753,9.083,9.083,0,0,1-3.715,3.373l5.573,8.191h-9.554Zm3.563-12.145a4.013,4.013,0,0,0-2.732-.815h-3.254v6.214h3.254a4.013,4.013,0,0,0,2.732-.809,3.356,3.356,0,0,0,0-4.59Z" transform="translate(-95.199 -228.539)" fill="url(#linear-gradient)"/>
        <path id="Path_6549" data-name="Path 6549" d="M217.933,248.326v6.746H195.87V228.539h21.569v6.746H204.664V238.4h11.222v6.436H204.664v3.493Z" transform="translate(-58.244 -228.539)" fill="url(#linear-gradient)"/>
        <path id="Path_6550" data-name="Path 6550" d="M225.769,248.326v6.746H203.706V228.539h21.569v6.746H212.5V238.4h11.222v6.436H212.5v3.493Z" transform="translate(-23.518 -228.539)" fill="url(#linear-gradient)"/>
        <path id="Path_6551" data-name="Path 6551" d="M235.229,255.072l-.071-12.1-5.763,9.712h-3.943l-5.757-9.293v11.678h-8.153v-26.53H218.9l8.642,14.139,8.414-14.139h7.354l.076,26.533Z" transform="translate(11.208 -228.539)" fill="url(#linear-gradient)"/>
      </g>
    </g>
    <g id="Group_5896" data-name="Group 5896" transform="translate(2547.02 -3684.032)">
      <rect id="Rectangle_1853" data-name="Rectangle 1853" width="145.098" height="96.732" rx="14" transform="translate(-10586.021 -1503.968)" fill="red"/>
      <path id="Path_8118" data-name="Path 8118" d="M-9.156-20.816h-5.127V5.3c0,2.467-1.112,3.386-2.9,3.386s-2.9-.919-2.9-3.386V-20.816H-25.02V5.446c0,5.32,3.047,8.077,7.884,8.077,4.933,0,7.98-2.757,7.98-8.077Zm5.224,0V13.04H1.194V-.986H3.468c5.514,0,8.512-3,8.512-8.561v-2.708c0-5.562-3-8.561-8.512-8.561Zm5.127,4.74h2.08c2.467,0,3.579,1.306,3.579,4.159v2.031c0,2.854-1.112,4.159-3.579,4.159H1.194Zm35.6.1v-4.837H20.734v4.837H26.2V13.04h5.127V-15.98ZM47.626-21.3c-5.127,0-8.271,3.241-8.271,8.561v17.7c0,5.32,3.144,8.561,8.271,8.561S55.9,10.283,55.9,4.963v-17.7C55.9-18.059,52.753-21.3,47.626-21.3Zm0,4.74c2.031,0,3.144,1.354,3.144,3.869V4.914c0,2.515-1.112,3.869-3.144,3.869s-3.144-1.354-3.144-3.869V-12.691C44.482-15.206,45.594-16.56,47.626-16.56Z" transform="translate(-10661 -1448.844)" fill="#fff"/>
      <path id="Path_8119" data-name="Path 8119" d="M-7.749-21.3c-5.127,0-8.271,3.241-8.271,8.561v17.7c0,5.32,3.144,8.561,8.271,8.561S.521,10.283.521,4.963v-17.7C.521-18.059-2.623-21.3-7.749-21.3Zm0,4.74c2.031,0,3.144,1.354,3.144,3.869V4.914c0,2.515-1.112,3.869-3.144,3.869s-3.144-1.354-3.144-3.869V-12.691C-10.893-15.206-9.781-16.56-7.749-16.56Zm27.424.484v-4.74H5.5V13.04h5.13V-1.76h7.255V-6.5H10.63v-9.576Zm17.557,0v-4.74H23.06V13.04h5.127V-1.76h7.255V-6.5H28.187v-9.576Z" transform="translate(-10407.212 -1448.844)" fill="#fff"/>
      <g id="Group_1" data-name="Group 1" transform="translate(-2.324 -1.037)">
        <path id="Path_1" data-name="Path 1" d="M31.05-64.211v9.274L18.114-3H9.084L22.019-54.936H3.324v-9.274Zm35.585,47.3a14,14,0,0,1-4.3,10.348,14.13,14.13,0,0,1-10.3,4.247A14.122,14.122,0,0,1,41.667-6.587,14.065,14.065,0,0,1,37.4-16.911V-50.3a14.082,14.082,0,0,1,4.3-10.373,14.146,14.146,0,0,1,10.348-4.271,14,14,0,0,1,10.348,4.3A14.187,14.187,0,0,1,66.635-50.3ZM57.067-50.494a5.124,5.124,0,0,0-1.562-3.759,5.124,5.124,0,0,0-3.759-1.562,5.044,5.044,0,0,0-3.734,1.562,5.165,5.165,0,0,0-1.538,3.759v33.437A5.165,5.165,0,0,0,48.012-13.3a5.044,5.044,0,0,0,3.734,1.562A5.124,5.124,0,0,0,55.505-13.3a5.124,5.124,0,0,0,1.562-3.759Z" transform="translate(-10565.021 -1420.988)" fill="#fff"/>
        <path id="Path_2" data-name="Path 2" d="M6.528-34.08c-3.168,0-5.136,2.016-5.136,5.28v7.3c0,3.264,1.968,5.28,5.136,5.28s5.136-2.016,5.136-5.28v-7.3C11.664-32.064,9.7-34.08,6.528-34.08ZM7.536.48,23.472-34.08H20.3L4.368.48ZM6.528-30.96c1.1,0,1.68.72,1.68,2.16v7.3c0,1.44-.576,2.16-1.68,2.16s-1.68-.72-1.68-2.16v-7.3C4.848-30.24,5.424-30.96,6.528-30.96ZM21.312-17.376c-3.168,0-5.136,2.016-5.136,5.28v7.3c0,3.264,1.968,5.28,5.136,5.28s5.136-2.016,5.136-5.28v-7.3C26.448-15.36,24.48-17.376,21.312-17.376Zm0,3.12c1.1,0,1.68.72,1.68,2.16v7.3c0,1.44-.576,2.16-1.68,2.16s-1.68-.72-1.68-2.16v-7.3C19.632-13.536,20.208-14.256,21.312-14.256Z" transform="translate(-10487.021 -1426.968)" fill="#fff"/>
      </g>
    </g>
    <rect id="Rectangle_1854" data-name="Rectangle 1854" width="220" height="46" rx="6" transform="translate(-8136 -5421)" fill="#00b569"/>
    <path id="Path_8122" data-name="Path 8122" d="M7.436-10.406c-1.958-.55-2.772-1.078-2.772-2.112s.88-1.76,2.288-1.76a3.241,3.241,0,0,1,3.256,2.112l2.948-1.606a6.134,6.134,0,0,0-6.05-3.718A6.358,6.358,0,0,0,2.86-16.016,4.617,4.617,0,0,0,1.1-12.3,4.265,4.265,0,0,0,2.42-9.11a10.133,10.133,0,0,0,4.2,2.09A9.816,9.816,0,0,1,9.2-5.984,1.321,1.321,0,0,1,9.878-4.8c0,1.056-1.1,1.826-2.618,1.826A3.969,3.969,0,0,1,3.5-5.368L.418-3.784C1.452-1.3,3.916.264,7.15.264A6.758,6.758,0,0,0,11.792-1.21a4.907,4.907,0,0,0,1.672-3.85C13.464-7.81,11.55-9.24,7.436-10.406Zm21.472-1.3a4.941,4.941,0,0,0-1.738-4.07,6.61,6.61,0,0,0-4.422-1.452h-6.4V0H19.91V-6.072h2.706A6.923,6.923,0,0,0,27.17-7.5a5.153,5.153,0,0,0,1.738-4.2Zm-3.586.088c0,1.5-1.276,2.222-2.86,2.222H19.91V-13.86h2.53c1.65,0,2.882.682,2.882,2.244Zm6.248-5.61V0H42.9V-3.322H35.09V-7.04h6.952v-3.344H35.09v-3.5h7.766v-3.344ZM44.814-8.6a8.593,8.593,0,0,0,2.552,6.314A8.574,8.574,0,0,0,53.68.242a9.145,9.145,0,0,0,4.84-1.364,7.208,7.208,0,0,0,3.1-3.762L58.344-6.4a4.933,4.933,0,0,1-4.62,3.19,4.946,4.946,0,0,1-3.74-1.562A5.454,5.454,0,0,1,48.51-8.646a5.316,5.316,0,0,1,1.5-3.806,4.966,4.966,0,0,1,3.718-1.562,4.735,4.735,0,0,1,4.576,3.1l3.256-1.5a7.194,7.194,0,0,0-3.036-3.718A8.81,8.81,0,0,0,53.75-17.5a8.615,8.615,0,0,0-6.336,2.6,8.483,8.483,0,0,0-2.6,6.3Zm22.924-8.624H64.174V0h3.564ZM73.326,0,74.6-3.476h7.634L83.534,0h3.674l-6.6-17.226h-4.29L69.74,0Zm5.1-13.772,2.6,7H75.834Zm10.758-3.454V0H100.1V-3.388H92.73V-17.226ZM106.172-8.6a8.483,8.483,0,0,0,2.6,6.292,8.632,8.632,0,0,0,6.31,2.572,8.615,8.615,0,0,0,6.336-2.6,8.62,8.62,0,0,0,2.64-6.358,8.385,8.385,0,0,0-2.6-6.248,8.614,8.614,0,0,0-6.292-2.552,8.7,8.7,0,0,0-6.358,2.6A8.509,8.509,0,0,0,106.172-8.6Zm5.192-3.85a5.069,5.069,0,0,1,3.762-1.584,5.069,5.069,0,0,1,3.762,1.584,5.262,5.262,0,0,1,1.54,3.828,5.348,5.348,0,0,1-1.54,3.85,5.069,5.069,0,0,1-3.762,1.584,5.069,5.069,0,0,1-3.762-1.584,5.348,5.348,0,0,1-1.54-3.85,5.262,5.262,0,0,1,1.54-3.83Zm19.206,2.266v-3.652h7.788v-3.388H127.006V0h3.564V-6.8h6.974v-3.388Zm14.278,0v-3.652h7.788v-3.388H141.284V0h3.564V-6.8h6.974v-3.388Zm10.714-7.04V0h11.33V-3.322h-7.81V-7.04h6.952v-3.344h-6.952v-3.5h7.766v-3.344ZM183.392,0,179.5-6.732a4.937,4.937,0,0,0,3.542-5.038A4.881,4.881,0,0,0,181.3-15.8a6.613,6.613,0,0,0-4.356-1.43h-6.8V0h3.564V-6.182h2.156L179.432,0Zm-9.68-13.86h2.948c1.562,0,2.772.638,2.772,2.156,0,1.5-1.254,2.222-2.75,2.222h-2.97Z" transform="translate(-8117.418 -5389.51)" fill="#fff"/>
  </g>
</svg>
