<svg xmlns="http://www.w3.org/2000/svg" xmlns:xlink="http://www.w3.org/1999/xlink" width="273.5" height="184.482" viewBox="0 0 273.5 184.482">
  <defs>
    <linearGradient id="linear-gradient" x1="0.5" y1="0.975" x2="0.528" gradientUnits="objectBoundingBox">
      <stop offset="0" stop-color="#7b43ff"/>
      <stop offset="1" stop-color="#fc5c9c"/>
    </linearGradient>
  </defs>
  <g id="Group_4847" data-name="Group 4847" transform="translate(-1130 -1105)">
    <path id="Path_4927" data-name="Path 4927" d="M142.609,80.236a27.7,27.7,0,0,0,8.65,9.064,71.664,71.664,0,0,0,6.605,3.845L151.132,125.5a27.191,27.191,0,0,0-6.077-7.026c-4.068-3.381-3-5.273-3-5.273Z" transform="translate(1116.601 1115.47)" fill="#00ba45" fill-rule="evenodd"/>
    <g id="Group_4845" data-name="Group 4845" transform="translate(1130 1196.964)">
      <path id="Path_4926" data-name="Path 4926" d="M211.147,108.443s-18.694-18.7-35.764-24.218a89.953,89.953,0,0,0-33.167-3.85l.045,35.735s20.523,4.293,35.97,10.118,24.993,19.627,24.993,19.627-2.843-14.1-7.724-22.071-6.507-9.511-6.507-9.511S198.754,107.535,211.147,108.443Z" transform="translate(62.353 -79.028)" fill="#00a33c" fill-rule="evenodd"/>
      <path id="Path_4928" data-name="Path 4928" d="M41.38,108.71s18.694-18.7,35.759-24.218,34.595-4.465,34.595-4.465l-1.476,36.35S89.74,120.669,74.3,126.495,49.3,146.121,49.3,146.121s2.843-14.1,7.722-22.071,6.5-9.511,6.5-9.511S53.77,107.8,41.38,108.71Z" transform="translate(-41.38 -79.945)" fill="#00a33c" fill-rule="evenodd"/>
    </g>
    <path id="Path_4931" data-name="Path 4931" d="M142.609,80.236a27.7,27.7,0,0,0,8.65,9.064,71.664,71.664,0,0,0,6.605,3.845L151.132,125.5a27.191,27.191,0,0,0-6.077-7.026c-4.068-3.381-3-5.273-3-5.273Z" transform="translate(1116.601 1115.47)" fill="#00ba45" fill-rule="evenodd"/>
    <path id="Path_4934" data-name="Path 4934" d="M160.491,52.307l9.693-10L177.592,54.1l11.56-7.763,4.787,13.08,12.924-5.192,1.966,13.788,13.723-2.391-.944,13.9,13.914.514-3.811,13.393,13.508,3.4L238.7,109.136l12.508,6.126-8.931,10.687,10.958,8.6-10.958,8.6,8.931,10.687L238.7,159.959l6.516,12.314-13.508,3.4,3.811,13.393-13.914.518.944,13.891L208.83,201.08l-1.966,13.788-12.924-5.192-4.787,13.081-11.56-7.763-7.408,11.794-9.693-10-9.694,10-7.4-11.794-11.564,7.763-4.789-13.081-12.925,5.192L112.15,201.08l-13.72,2.391.945-13.891-13.918-.518,3.812-13.393-13.507-3.4,6.514-12.314-12.506-6.126L78.7,143.146l-10.958-8.6,10.958-8.6-8.931-10.687,12.506-6.126L75.762,96.822l13.507-3.4L85.456,80.033l13.918-.514-.945-13.9,13.72,2.391,1.966-13.788,12.925,5.192,4.789-13.08L143.393,54.1l7.4-11.794Z" transform="translate(1106.578 1062.693)" fill="url(#linear-gradient)"/>
    <g id="Group_4843" data-name="Group 4843" transform="translate(1209.776 1125.264)">
      <path id="Path_4954" data-name="Path 4954" d="M91.531,75.392l-8.779-9.508,2.872-2.65,7.712,4.888-4.281-8.057,2.877-2.659,8.779,9.5-1.784,1.645-6.909-7.483L97.041,70.3l-1.846,1.705L86.4,66.262l6.911,7.48Z" transform="translate(-82.752 -41.561)" fill="#fff"/>
      <path id="Path_4955" data-name="Path 4955" d="M89.787,64.794a8.188,8.188,0,0,1-1.193-3.154,5.988,5.988,0,0,1,.127-2.14,4.989,4.989,0,0,1,.837-1.856,7.121,7.121,0,0,1,2.133-1.87,6.073,6.073,0,0,1,4.838-.82,6.8,6.8,0,0,1,4,3.353,6.8,6.8,0,0,1,1.052,5.082,6.809,6.809,0,0,1-7.849,4.7A6.683,6.683,0,0,1,89.787,64.794Zm2.267-1.456a4.851,4.851,0,0,0,2.578,2.344,3.326,3.326,0,0,0,2.8-.349,3.287,3.287,0,0,0,1.624-2.281,4.943,4.943,0,0,0-.87-3.413,4.9,4.9,0,0,0-2.537-2.351,3.618,3.618,0,0,0-4.453,2.678A4.863,4.863,0,0,0,92.054,63.338Z" transform="translate(-74.685 -45.247)" fill="#fff"/>
      <path id="Path_4956" data-name="Path 4956" d="M97.741,67.594l-4.374-12.18,2.391-.856,7.906,6.34-2.922-8.129,2.284-.823L107.4,64.124l-2.468.885-7.763-6.177,2.855,7.942Z" transform="translate(-67.982 -49.157)" fill="#fff"/>
      <path id="Path_4957" data-name="Path 4957" d="M101.032,65.285l-2.2-12.751,9.453-1.631.373,2.159-6.88,1.189.488,2.822,6.4-1.1.371,2.15-6.4,1.1.6,3.472,7.124-1.232.368,2.148Z" transform="translate(-60.378 -50.609)" fill="#fff"/>
      <path id="Path_4958" data-name="Path 4958" d="M108.343,63.737l-.012-5.445-4.759-7.483,3.066,0,3.054,5.113,2.973-5.13,3.008-.007-4.74,7.526.014,5.424Z" transform="translate(-53.782 -50.78)" fill="#fff"/>
      <path id="Path_4959" data-name="Path 4959" d="M113.064,51.133l5.029,1.193a14.9,14.9,0,0,1,2.2.65,3.341,3.341,0,0,1,1.191.832,3.262,3.262,0,0,1,.72,1.282,2.9,2.9,0,0,1,.034,1.562,3.081,3.081,0,0,1-2.415,2.315,3.427,3.427,0,0,1,1.5,1.559,3.112,3.112,0,0,1,.167,2.047,3.882,3.882,0,0,1-.794,1.578,3.45,3.45,0,0,1-1.4,1.033,3.669,3.669,0,0,1-1.849.194q-.653-.083-3.087-.641l-4.283-1.014Zm.859,7.705-.8,3.367,2.356.557a11.866,11.866,0,0,0,1.76.337,1.642,1.642,0,0,0,1.04-.285,1.615,1.615,0,0,0,.612-.985,1.674,1.674,0,0,0-.045-1.024,1.59,1.59,0,0,0-.66-.768,8.931,8.931,0,0,0-2.212-.713Zm1.186-5.005-.691,2.908,1.669.4c.99.232,1.609.366,1.853.395a1.737,1.737,0,0,0,1.136-.208,1.374,1.374,0,0,0,.605-.894,1.391,1.391,0,0,0-.1-1.024,1.463,1.463,0,0,0-.849-.67c-.249-.091-.966-.277-2.167-.56Z" transform="translate(-44.728 -50.289)" fill="#fff"/>
      <path id="Path_4960" data-name="Path 4960" d="M126.151,68.292l-2.6-1.148L123.707,64l-4.725-2.1-2.167,2.253-2.533-1.122,9.846-9.788,2.528,1.122Zm-2.327-6.627.318-5.113L120.6,60.235Z" transform="translate(-38.88 -47.35)" fill="#fff"/>
      <path id="Path_4961" data-name="Path 4961" d="M127.65,65.438l1.641,2.095a5.667,5.667,0,0,1-3.379,1.5A6.089,6.089,0,0,1,119.99,64.1a6.727,6.727,0,0,1,1.344-4.91,7.078,7.078,0,0,1,4.209-3.2,5.734,5.734,0,0,1,4.63,1,5.379,5.379,0,0,1,2.4,3.331,5.114,5.114,0,0,1-.253,2.714l-2.485-.945a2.668,2.668,0,0,0-1.028-3.334,2.92,2.92,0,0,0-2.506-.462,5.033,5.033,0,0,0-2.626,2.255,5.388,5.388,0,0,0-1.244,3.384,2.873,2.873,0,0,0,1.3,2.155,2.644,2.644,0,0,0,1.856.464A3.839,3.839,0,0,0,127.65,65.438Z" transform="translate(-31.033 -43.722)" fill="#fff"/>
      <path id="Path_4962" data-name="Path 4962" d="M123.173,67.676l9.126-9.169,1.853,1.844-4.053,4.07,7.8-.347,2.485,2.48-7.007.132L131.44,75.91l-2.391-2.384,1.76-6.816-3.028.038-2.755,2.769Z" transform="translate(-26.509 -40.028)" fill="#fff"/>
    </g>
    <g id="Group_4833" data-name="Group 4833" transform="translate(1215.316 1235.319)">
      <path id="Path_4963" data-name="Path 4963" d="M89.934,104.494l1.569-1.413,3.652,4.051-3.709,3.343a6.925,6.925,0,0,1-2.549-.8,8.351,8.351,0,0,1-2.48-1.877,6.878,6.878,0,0,1-1.686-3.1,5.243,5.243,0,0,1,.282-3.207A7.591,7.591,0,0,1,87,98.7a7.159,7.159,0,0,1,3.133-1.717,5.485,5.485,0,0,1,3.341.218,6.421,6.421,0,0,1,2.473,1.813,5.98,5.98,0,0,1,1.717,3.365,4.424,4.424,0,0,1-.88,3.068l-2.033-1.557a2.661,2.661,0,0,0,.418-1.715,3.036,3.036,0,0,0-.827-1.715A3.421,3.421,0,0,0,91.8,99.207a4.42,4.42,0,0,0-2.977,1.363A4.922,4.922,0,0,0,87,103.547a3.306,3.306,0,0,0,.911,2.678,4.335,4.335,0,0,0,1.3.973,5.364,5.364,0,0,0,1.48.514l1.181-1.067Z" transform="translate(-84.599 -95.667)" fill="#fff"/>
      <path id="Path_4964" data-name="Path 4964" d="M94.607,99.867l2.066,1.459-3.912,5.548a13.581,13.581,0,0,0-1.126,1.77,2.013,2.013,0,0,0-.081,1.454,2.681,2.681,0,0,0,1.1,1.344,2.551,2.551,0,0,0,1.581.576,1.767,1.767,0,0,0,1.16-.5,14.144,14.144,0,0,0,1.318-1.676l4-5.668,2.064,1.461-3.79,5.376a16.928,16.928,0,0,1-2,2.489,3.562,3.562,0,0,1-1.526.851,3.9,3.9,0,0,1-1.8-.014,6.511,6.511,0,0,1-2.191-1.079,7.039,7.039,0,0,1-1.985-1.906,3.85,3.85,0,0,1-.576-1.729,3.426,3.426,0,0,1,.22-1.545,15.061,15.061,0,0,1,1.631-2.741Z" transform="translate(-78.625 -91.425)" fill="#fff"/>
      <path id="Path_4965" data-name="Path 4965" d="M104.384,117.773l-2.533-1.076.1-3.047L97.339,111.7l-2.064,2.214L92.8,112.866l9.384-9.638,2.466,1.043Zm-2.356-6.383.225-4.96-3.374,3.621Z" transform="translate(-73.185 -86.749)" fill="#fff"/>
      <path id="Path_4966" data-name="Path 4966" d="M98.924,116.811l2.31-12.323,5.237.981a9.2,9.2,0,0,1,2.808.87,2.878,2.878,0,0,1,1.212,1.452,3.646,3.646,0,0,1,.172,2.042,3.361,3.361,0,0,1-1.244,2.138,3.983,3.983,0,0,1-2.652.679,5.955,5.955,0,0,1,1.136,1.282,14.151,14.151,0,0,1,1.043,2.269L110,118.887l-2.973-.56-1.294-3.016a17.3,17.3,0,0,0-.976-2.059,1.891,1.891,0,0,0-.648-.65,4.154,4.154,0,0,0-1.229-.375l-.5-.093-.966,5.142Zm3.822-6.646,1.839.347a9.6,9.6,0,0,0,2.265.268,1.358,1.358,0,0,0,.8-.392,1.644,1.644,0,0,0,.426-.873,1.421,1.421,0,0,0-.992-1.727c-.194-.069-.8-.2-1.806-.385l-1.942-.363Z" transform="translate(-64.667 -84.995)" fill="#fff"/>
      <path id="Path_4967" data-name="Path 4967" d="M116.941,117.6l-2.753.089L113,114.881l-5.008.163-.942,2.875-2.683.086,4.482-12.684,2.676-.084Zm-4.816-4.807L110.25,108.2l-1.545,4.7Z" transform="translate(-57.091 -83.955)" fill="#fff"/>
      <path id="Path_4968" data-name="Path 4968" d="M112.851,118.706l-3.19-12.127,2.382-.624,7.091,6.787L117,104.649l2.274-.6,3.19,12.12-2.456.648-6.964-6.622,2.078,7.908Z" transform="translate(-49.727 -85.603)" fill="#fff"/>
      <path id="Path_4969" data-name="Path 4969" d="M122.811,116.157l-4.47-9.41-3.358,1.6-.911-1.913,9-4.276.911,1.918-3.35,1.593,4.465,9.408Z" transform="translate(-43.588 -88.244)" fill="#fff"/>
      <path id="Path_4970" data-name="Path 4970" d="M125.572,115.256l-7.44-10.09,7.48-5.517,1.263,1.705-5.448,4.018,1.65,2.236,5.067-3.738,1.251,1.7-5.067,3.735,2.028,2.748,5.637-4.159,1.253,1.7Z" transform="translate(-37.94 -91.729)" fill="#fff"/>
      <path id="Path_4971" data-name="Path 4971" d="M131.015,111.647l-9.286-8.42,6.242-6.89,1.574,1.428L125,102.772l2.057,1.868,4.23-4.661,1.566,1.421-4.228,4.659,2.523,2.291,4.706-5.185,1.566,1.418Z" transform="translate(-32.935 -96.337)" fill="#fff"/>
    </g>
    <path id="Path_4972" data-name="Path 4972" d="M187.639,110.734a52.2,52.2,0,1,1-52.2-52.2A52.2,52.2,0,0,1,187.639,110.734Z" transform="translate(1130.965 1087.409)" fill="#fff"/>
    <g id="Group_4837" data-name="Group 4837" transform="translate(1165.456 1195.408)">
      <g id="Group_4835" data-name="Group 4835">
        <path id="Path_4974" data-name="Path 4974" d="M64.385,95.433l8.722,30.9s34.666-8.6,61.085-10.443a458.533,458.533,0,0,1,62.792.225c26.418,1.841,62.354,11.775,62.354,11.775l6.722-32.459c.359.6-34.145-17.175-99.211-17.175S64.029,96.034,64.385,95.433Z" transform="translate(-64.383 -78.258)" fill="#00bb45" fill-rule="evenodd"/>
      </g>
    </g>
    <g id="Group_4840" data-name="Group 4840" transform="translate(1196.48 1175.758)">
      <g id="Group_4839" data-name="Group 4839" transform="translate(0)">
        <path id="Path_4980" data-name="Path 4980" d="M85.535,75.872l4.476.507-3.127,3.244.9,4.416-4.047-1.973-3.922,2.212.625-4.456-3.322-3.045,4.437-.782,1.865-4.1Z" transform="translate(-77.115 -71.894)" fill="#fff" fill-rule="evenodd"/>
        <path id="Path_4981" data-name="Path 4981" d="M137.854,75.872l4.475.507L139.2,79.622l.9,4.416-4.049-1.973-3.914,2.212.621-4.456-3.321-3.045,4.433-.782,1.868-4.1Z" transform="translate(-2.101 -71.894)" fill="#fff" fill-rule="evenodd"/>
      </g>
    </g>
    <g id="Group_4842" data-name="Group 4842" transform="translate(1228.612 1203.061)">
      <path id="Path_4986" data-name="Path 4986" d="M97.94,86.2H93.677V72.8a15.566,15.566,0,0,1-5.507,2.7V72.267a13.071,13.071,0,0,0,3.624-1.729,6.775,6.775,0,0,0,2.685-2.968H97.94Z" transform="translate(-88.17 -65.998)" fill="#fff"/>
      <path id="Path_4987" data-name="Path 4987" d="M103.234,67.57a6.625,6.625,0,0,1,5.053,1.926q2.168,2.272,2.167,7.556,0,5.263-2.185,7.569a6.613,6.613,0,0,1-5.034,1.9A6.909,6.909,0,0,1,98,84.436q-1.986-2.081-1.988-7.421,0-5.242,2.185-7.548A6.631,6.631,0,0,1,103.234,67.57Zm0,2.95a2.4,2.4,0,0,0-1.379.411,2.667,2.667,0,0,0-.941,1.478,17.126,17.126,0,0,0-.438,4.644,16.826,16.826,0,0,0,.395,4.485,3.021,3.021,0,0,0,.993,1.626,2.388,2.388,0,0,0,1.371.407,2.432,2.432,0,0,0,1.381-.411,2.681,2.681,0,0,0,.939-1.478,16.86,16.86,0,0,0,.44-4.629,16.981,16.981,0,0,0-.395-4.491,3.081,3.081,0,0,0-.993-1.63A2.377,2.377,0,0,0,103.234,70.52Z" transform="translate(-79.891 -67.57)" fill="#fff"/>
      <path id="Path_4988" data-name="Path 4988" d="M111.637,67.57a6.611,6.611,0,0,1,5.051,1.926q2.171,2.272,2.169,7.556,0,5.263-2.179,7.569a6.631,6.631,0,0,1-5.04,1.9,6.909,6.909,0,0,1-5.234-2.084q-1.986-2.081-1.986-7.421,0-5.242,2.185-7.548A6.623,6.623,0,0,1,111.637,67.57Zm0,2.95a2.41,2.41,0,0,0-1.379.411,2.678,2.678,0,0,0-.941,1.478,17.042,17.042,0,0,0-.438,4.644,17.03,17.03,0,0,0,.393,4.485,3.034,3.034,0,0,0,.995,1.626,2.4,2.4,0,0,0,1.371.407,2.423,2.423,0,0,0,1.381-.411,2.67,2.67,0,0,0,.939-1.478,16.675,16.675,0,0,0,.442-4.629,17.1,17.1,0,0,0-.393-4.491,3.07,3.07,0,0,0-1-1.63A2.363,2.363,0,0,0,111.637,70.52Z" transform="translate(-71.019 -67.57)" fill="#fff"/>
      <path id="Path_4989" data-name="Path 4989" d="M112.846,72.354a4.8,4.8,0,0,1,1.309-3.7,5.064,5.064,0,0,1,3.558-1.2,5.191,5.191,0,0,1,3.632,1.2,4.769,4.769,0,0,1,1.314,3.7,4.776,4.776,0,0,1-1.314,3.7,5.061,5.061,0,0,1-3.556,1.2,5.19,5.19,0,0,1-3.634-1.2A4.784,4.784,0,0,1,112.846,72.354Zm3.322-.029a4.09,4.09,0,0,0,.5,2.432,1.287,1.287,0,0,0,1.044.456,1.3,1.3,0,0,0,1.059-.456,4.206,4.206,0,0,0,.489-2.432,4.138,4.138,0,0,0-.489-2.415,1.433,1.433,0,0,0-2.1-.014A4.108,4.108,0,0,0,116.168,72.325Zm4.794,14.708H117.8l11.844-19.58h3.067Zm6.884-4.872a4.782,4.782,0,0,1,1.314-3.7,5.978,5.978,0,0,1,7.186,0,5.874,5.874,0,0,1,0,7.4,5.04,5.04,0,0,1-3.556,1.207,5.157,5.157,0,0,1-3.63-1.207A4.784,4.784,0,0,1,127.846,82.161Zm3.32-.012a4.019,4.019,0,0,0,.5,2.413,1.41,1.41,0,0,0,2.091.019,4.13,4.13,0,0,0,.5-2.432,4.244,4.244,0,0,0-.485-2.428,1.3,1.3,0,0,0-1.061-.463,1.254,1.254,0,0,0-1.046.463A4.116,4.116,0,0,0,131.166,82.149Z" transform="translate(-62.122 -66.963)" fill="#fff"/>
    </g>
    <path id="Path_4990" data-name="Path 4990" d="M4.973.193q1.852,0,1.852-1.724V-2.585q0-2.749-2.877-2.749V-7.642A2.85,2.85,0,0,0,6.24-8.511,3.229,3.229,0,0,0,6.924-10.7v-.413q0-1.752-1.538-1.752a1.361,1.361,0,0,0-1.254.655,2.5,2.5,0,0,0-.3,1.3v.47H1.2v-.413a4.78,4.78,0,0,1,.969-3.105,3.737,3.737,0,0,1,3.091-1.367,3.86,3.86,0,0,1,3.034,1.282,4.172,4.172,0,0,1,1.026,2.877v.755a4.384,4.384,0,0,1-1,2.877,4.158,4.158,0,0,1-1,.869A4.461,4.461,0,0,1,9.175-4.636a3.826,3.826,0,0,1,.342,1.7v1.41A4.253,4.253,0,0,1,8.164,1.717a4.38,4.38,0,0,1-3.12,1.225,4.086,4.086,0,0,1-3.02-1.254A4.123,4.123,0,0,1,.785-1.317v-.442l2.564-.2.057.627a1.717,1.717,0,0,0,.477,1.1A1.461,1.461,0,0,0,4.973.193Zm15.37-1.51A4.086,4.086,0,0,1,19.089,1.7a4.123,4.123,0,0,1-3.006,1.239A4.121,4.121,0,0,1,13.057,1.7,4.1,4.1,0,0,1,11.81-1.317V-11.06a4.109,4.109,0,0,1,1.254-3.027,4.128,4.128,0,0,1,3.02-1.246A4.086,4.086,0,0,1,19.1-14.08a4.14,4.14,0,0,1,1.239,3.02Zm-2.792-9.8a1.5,1.5,0,0,0-.456-1.1A1.5,1.5,0,0,0,16-12.67a1.472,1.472,0,0,0-1.09.456,1.507,1.507,0,0,0-.449,1.1V-1.36a1.507,1.507,0,0,0,.449,1.1A1.472,1.472,0,0,0,16,.193a1.5,1.5,0,0,0,1.1-.456,1.5,1.5,0,0,0,.456-1.1Zm16.809,9.6A4.14,4.14,0,0,1,33.12,1.5a4.053,4.053,0,0,1-2.991,1.254H25.9V-15.106h4.231a4.046,4.046,0,0,1,3,1.254,4.135,4.135,0,0,1,1.232,3.006ZM28.59.093h1.624A1.438,1.438,0,0,0,31.3-.37a1.527,1.527,0,0,0,.442-1.09V-10.8a1.507,1.507,0,0,0-.449-1.1,1.456,1.456,0,0,0-1.075-.456H28.59ZM39.673-1.346l-.655,4.1H36.211l3.034-17.849h3.7L45.94,2.757H43.12l-.641-4.1ZM41.083-11l-1,7.037H42.08ZM48.9-4.722,45.3-15.106h2.963L50.256-8.7l1.98-6.41h2.977L51.6-4.722V2.757H48.9Z" transform="translate(1238.907 1180.84)" fill="#151826"/>
  </g>
</svg>
