<svg xmlns="http://www.w3.org/2000/svg" xmlns:xlink="http://www.w3.org/1999/xlink" width="499.097" height="256.911" viewBox="0 0 499.097 256.911">
  <defs>
    <linearGradient id="linear-gradient" x1="-1.102" y1="-0.349" x2="4.051" y2="2.351" gradientUnits="objectBoundingBox">
      <stop offset="0.127" stop-color="#ffbd24"/>
      <stop offset="0.398" stop-color="#f9f3a2"/>
      <stop offset="0.54" stop-color="#ffd142"/>
      <stop offset="0.884" stop-color="#c86c29"/>
    </linearGradient>
    <linearGradient id="linear-gradient-2" x1="-1.805" y1="-0.06" x2="2.271" y2="0.951" xlink:href="#linear-gradient"/>
    <linearGradient id="linear-gradient-3" x1="-1.989" y1="-0.532" x2="1.128" y2="0.804" xlink:href="#linear-gradient"/>
    <linearGradient id="linear-gradient-4" x1="0.031" y1="0.28" x2="2.802" y2="1.295" xlink:href="#linear-gradient"/>
  </defs>
  <g id="Group_10638" data-name="Group 10638" transform="translate(-300 -135.544)">
    <g id="Group_6568" data-name="Group 6568" transform="translate(-403.903 -132.545)">
      <path id="Path_8092" data-name="Path 8092" d="M-84.424-94.839c-14.545,0-27.817,7.03-27.817,22.665,0,13.817,10.3,20.787,22.12,28.3,10.909,7.03,18.6,12.908,18.6,23.09,0,9.272-6.727,13.878-15.393,13.878-15.878,0-21.575-14.6-22.6-31.15h-2.848c0,19.757-.121,27.7-.485,33.513H-110c.485-3.576,1.091-5.454,2.727-5.454.97,0,2.242.485,4.242,1.757,4.183,2.24,9.638,4.608,19.94,4.608,16.666,0,30.786-7.818,30.786-24.181,0-13.454-9.212-20.181-20.969-28C-87.151-65.144-94.727-69.2-94.727-79.2c0-7.878,5.7-12.666,13.636-12.666,13.272,0,20.241,13.514,21.09,26.423h2.848c0-17.454.242-23.393.667-28.3h-2.848c-.545,3.576-1.151,5.454-2.788,5.454-1.091,0-2.182-.545-4.182-1.757C-70.182-92.354-74.728-94.839-84.424-94.839Zm66.772,23.514c-8.363,0-14.423,1.757-18.847,4.242-4.06,2.364-6.969,5.818-6.969,10.363,0,5.454,3.394,9.575,8.787,9.575,6.121,0,10.121-3.757,10.121-8.909,0-5.03-2.909-8.242-7.333-9.757,2.242-2.182,5.878-3.03,8.848-3.03,7.333,0,10.121,4.606,10.121,11.09v9.7c0,5.333-7.151,7.7-16.3,11.151-11.515,4.242-17.454,9.272-17.454,18.241,0,9.03,6.424,14.12,15.7,14.12a20.962,20.962,0,0,0,18.3-10.06C-12.617-9.266-9.83-4.539-.739-4.539c6.3,0,10.424-1.515,14.181-4.545l-1.273-2.121c-1.4,1.089-2.792,2.119-4.549,2.119-2,0-2.667-1.515-2.667-5.515V-48.357c0-8.666-.788-13.636-4.424-17.393C-3.471-69.871-9.652-71.325-17.652-71.325Zm4.727,53.815c-2.606,3.7-5.333,5.03-8.363,5.03-4.424,0-7.757-2.788-7.757-9.636,0-7.454,4.06-11.515,8.424-14.726,4.182-2.606,6.545-4.242,7.7-6.121Zm52.046-85.026a80.445,80.445,0,0,1-18.12,1.7c-2.485,0-5.091-.121-7.7-.364v2.6c6,0,7.939,3.515,7.939,10.969V-16.9c0,6.9-2.118,8.9-7.94,8.9v2.606c3.333-.121,10.727-.485,17.211-.485,6.424,0,13.393.364,16.545.485V-8c-5.756,0-7.935-2-7.935-8.9ZM84.682-13.874c-7.878,0-16.181-6.727-16.181-24,0-2,.061-4.06.242-5.878h34.725c0-19.454-8.848-27.574-23.332-27.574-17.635,0-30.362,11.454-30.362,34.483,0,22.665,11.878,33.21,28.6,33.21,13.757,0,21.878-10,24.847-19.332l-2.242-.848C95.954-15.571,89.652-13.874,84.682-13.874ZM79.41-68.659c6.06,0,8.666,10.424,8.424,22.544H68.38C69.41-62.174,73.834-68.659,79.41-68.659Z" transform="translate(969.847 458.47)" fill="#fff"/>
      <g id="Group_5878" data-name="Group 5878" transform="translate(1178.052 159.815)">
        <path id="Path_8093" data-name="Path 8093" d="M-326.073,135.967a1.242,1.242,0,0,0-.966.361,1.242,1.242,0,0,0-.36.966,1.407,1.407,0,0,0,.352.953,13.443,13.443,0,0,1,1.342,6.611c0,3.635-1.664,8.565-4.946,14.654-3.213,5.955-6.764,8.975-10.553,8.975h-1.468c-1.012,0-4.094,0-4.094-6.466a16.054,16.054,0,0,1,2.121-7.76,67.089,67.089,0,0,1,5.312-8.108c2.894-3.824,3.294-4.863,3.294-5.416a3.426,3.426,0,0,0-1.4-2.4A4.263,4.263,0,0,0-340.3,137.1c-1.582,0-4.839,1.334-14.832,12.873-.414.485-3.524,4.24-9.488,11.456a100.5,100.5,0,0,1,5.182-10.208c6.236-11.159,6.236-11.615,6.236-11.947a3.81,3.81,0,0,0-1.172-2.229,3.574,3.574,0,0,0-2.751-1.41c-1.634,0-4.537,1.613-10.866,15.566-.214.472-.417.923-.621,1.375A72.137,72.137,0,0,1-379.9,163.785c-5.8,4.918-10.539,7.413-14.091,7.413-3.37,0-4.94-1.659-4.94-5.223a12.421,12.421,0,0,1,1.377-5.68,6.181,6.181,0,0,0,1.249.117c4.089,0,9.426-1.968,15.862-5.851,6.538-3.947,9.854-8.2,9.854-12.638a5.04,5.04,0,0,0-1.863-3.937,6.926,6.926,0,0,0-4.658-1.566c-5.429,0-11.59,3.562-18.308,10.588s-10.118,13.325-10.118,18.741c0,4.37,2.591,7.316,7.67,8.744a7.778,7.778,0,0,0,2.464.372c4.11,0,9.139-2.131,14.945-6.335a72.909,72.909,0,0,0,7.782-6.491c-1.513,3.8-2.261,6.223-2.261,7.322,0,1,.746,1.957,2.279,2.92a7.006,7.006,0,0,0,3.451,1.342h.365l.189-.312a130.473,130.473,0,0,1,8.536-11.619c3.139-3.954,5.734-7.062,7.749-9.28a31.139,31.139,0,0,0-1.115,7.578,15.3,15.3,0,0,0,2.528,8.25,7.938,7.938,0,0,0,6.928,4.141c5.671,0,11.005-2.947,15.855-8.757,4.82-5.777,7.265-11.519,7.265-17.072,0-3.7-.476-6.247-1.413-7.722C-323.186,136.931-324.449,135.967-326.073,135.967Zm-58.638,9.278c3.4-2.824,6.014-4.255,7.771-4.255.671,0,2.231.069,2.231.706a2.268,2.268,0,0,1-.192.811c-1.153,3.452-4.083,6.7-8.71,9.652-4.655,2.966-8.394,4.471-11.114,4.471-.144,0-.284-.006-.422-.019a50.907,50.907,0,0,1,10.436-11.366Z" transform="translate(31.88 12.71)" fill="url(#linear-gradient)"/>
        <path id="Path_8094" data-name="Path 8094" d="M-225.233,123.014c0-.535-.24-1.778-2.455-1.778-3.672,0-7.156,2.336-10.359,6.947-4.253,6.267-11.01,14.14-20.083,23.4a207.638,207.638,0,0,1-27.411,23.753c-3.109,2.242-5.432,3.379-6.9,3.379-.88,0-1.78-.293-1.78-2.456,0-1.968.779-4.69,2.314-8.091a34.883,34.883,0,0,1,5.1-8.381,328.321,328.321,0,0,0,20.029-26.308c4.327-6.607,6.43-11.379,6.43-14.583a7.854,7.854,0,0,0-3.757-7.216c-2.39-1.449-5.886-2.184-10.386-2.184-4.455,0-10.361,1.3-17.551,3.878a70.564,70.564,0,0,0-17.435,8.663c-15.09,10.768-22.743,21.508-22.743,31.919a15.643,15.643,0,0,0,2.836,9.415c1.9,2.622,3.893,4.1,5.907,4.381a32.382,32.382,0,0,0,3.877.4c5.068,0,10.578-1.818,16.382-5.409,5.384-3.433,8.392-6.548,9.2-9.523l.315-1.166-1.147.382c-.472.157-1.961.945-9.429,5.957-4.532,3.218-8.7,4.849-12.383,4.849a14.124,14.124,0,0,1-3.788-.543c-4.006-1.055-5.952-3.582-5.952-7.729,0-4.293,1.711-9.073,5.087-14.21a49.8,49.8,0,0,1,13.826-13.709c13.9-9.516,24.91-14.342,32.718-14.342a15.432,15.432,0,0,1,7.162,1.626c.823.413,1.223,1.349,1.223,2.865,0,1.645-1.243,4.652-3.7,8.936a107.835,107.835,0,0,1-9.429,13.637c-3.884,4.845-7.133,8.851-9.93,12.244-2.822,3.426-4.422,5.361-4.8,5.823-5.191,6.485-7.821,12.889-7.821,19.034,0,6.79,3.852,8.214,7.084,8.214,3.042,0,6.915-1.4,11.513-4.157,2.324-1.394,6.446-5.065,12.6-11.219,5.529-5.527,14.687-15.1,27.255-28.481l-17.726,31.613c-13.293,24.947-24.574,37.6-33.53,37.6-2.875,0-4.838-.9-5.977-2.707a37.73,37.73,0,0,1-2.207-6.308l-.107-.381-.388-.078a9.893,9.893,0,0,0-1.821-.237,2.723,2.723,0,0,0-2.24.779,2.723,2.723,0,0,0-.78,2.24c0,2.692,1.475,5.145,4.384,7.3a14.718,14.718,0,0,0,8.8,3.175c4.633,0,9.794-2.036,15.342-6.05,5.5-3.985,10.746-10.033,15.589-17.977,16.259-27.276,29.293-49.466,38.788-66.072a3.847,3.847,0,0,0,.254-1.114Z" transform="translate(65.944 0.566)" fill="url(#linear-gradient-2)"/>
        <path id="Path_8095" data-name="Path 8095" d="M-141.418,115.656c-17.338-14.185-51.788-4.672-72.95,1.633s-21.231,11.166-15.6,14.41c14.074,8.1,37.886-15.537,62.2-16.9s35.125,15.1,34.9,28.383c-.142,8.307-4.161,16.3-7.707,21.769a47.521,47.521,0,0,1-11.5,12.306c-4.829,3.694-9.07,5.409-12.378,5.409-2.947,0-4.321-1.5-4.321-4.716,0-3.411,2.387-8.2,7.087-14.22l7.792-9.823.1-.174a2.6,2.6,0,0,0-.8-2.7A3.329,3.329,0,0,0-157,149.7a3.05,3.05,0,0,0-1.469.208l-2.925,1.8a8.492,8.492,0,0,1-4.189,1.377c-2.513,0-2.811-.937-2.846-1.513l2.562-3.416c2-2.477,2.966-4.492,2.966-6.168,0-1.085-.422-2.906-3.246-2.906-2.986,0-5.328,3.348-7.158,10.236-2.677,5.189-7.31,11.62-13.763,19.112a15.877,15.877,0,0,0-1.006,1.239c-8.694,9.882-13,12.209-15.108,12.209-.6,0-1.444-.217-1.87-2.157a1.46,1.46,0,0,1-.079-.47c0-2.566,2.319-7.288,6.888-14.033,7.115-10.5,7.115-10.9,7.115-11.262,0-.587-.414-1.224-1.345-2.062a4.162,4.162,0,0,0-2.8-1.182l-1.268.256c-.013-.034-.028-.072-.042-.116l-.589-1.58c-.945-1.967-2.814-2.963-5.554-2.963-6.544,0-13.8,3.918-21.573,11.648a69.3,69.3,0,0,0-5.284,5.847,5.813,5.813,0,0,0-.977,1.044,71.856,71.856,0,0,1-11.653,11.648c-5.8,4.918-10.539,7.413-14.09,7.413-3.372,0-4.942-1.659-4.942-5.223a12.421,12.421,0,0,1,1.377-5.68,6.181,6.181,0,0,0,1.249.117c4.091,0,9.426-1.968,15.862-5.851,6.54-3.947,9.854-8.2,9.854-12.638a5.04,5.04,0,0,0-1.863-3.937,6.922,6.922,0,0,0-4.656-1.566c-5.431,0-11.59,3.562-18.309,10.588s-10.118,13.325-10.118,18.741c0,4.37,2.591,7.316,7.67,8.744a7.785,7.785,0,0,0,2.464.372c4.111,0,9.139-2.131,14.947-6.335a73.108,73.108,0,0,0,7.052-5.81,13.646,13.646,0,0,0-.291,2.689,7.743,7.743,0,0,0,3.322,6.513,10.38,10.38,0,0,0,6.078,2.039c2.178,0,5.476-1.974,10.1-6.055l5.567-5.387a17.116,17.116,0,0,0-.117,1.986c0,3.968,1.81,6.679,5.388,8.06,5.057,1.894,12.367-3.366,22.457-16.276,1.043-1.2,2.316-2.726,3.915-4.712l7.735-10.033c1.243,2.182,2.8,3.285,4.624,3.285h.108A49.574,49.574,0,0,0-171.476,166a26.785,26.785,0,0,0-2.538,10.651c0,6.649,3.067,10.02,9.116,10.02,3.966,0,9.035-2.283,15.08-6.8a67.83,67.83,0,0,0,6.859-6.175C-122.212,152.646-124.081,129.842-141.418,115.656Zm-105.6,42.3c3.4-2.824,6.014-4.255,7.771-4.255.671,0,2.231.069,2.231.706a2.269,2.269,0,0,1-.192.811c-1.151,3.452-4.083,6.7-8.71,9.652-4.655,2.966-8.392,4.472-11.112,4.472-.145,0-.286-.006-.423-.019a50.906,50.906,0,0,1,10.431-11.367Zm36.563,10.843c-7.366,9.352-13.2,14.093-17.332,14.093-.6,0-2.173,0-2.173-3.417,0-4.458,3.767-10.245,11.2-17.2s13.448-10.5,17.848-10.5a2.517,2.517,0,0,1,2.147.917Z" transform="translate(95.854)" fill="url(#linear-gradient-3)"/>
        <path id="Path_8096" data-name="Path 8096" d="M-316.773,196.841c.139-3.829-4.841-7.038-12.159-4.054s-28.194,23.468-51.513,16.713c-7.039-2.04-9.2-7.742-8.808-14.712a42.112,42.112,0,0,1,1.337-7.9c3.742-14.469,13.874-30.425,14.252-31.033l.015-.013a156.4,156.4,0,0,1,19.292-24.048c5.538-5.648,5.889-7.593,5.579-8.619-.825-3.553-2.863-5.363-6.052-5.363a6.037,6.037,0,0,0-2.472.5c-13.483,4.972-29.8,15.456-48.528,31.167-2.527,2.162-4.742,4.161-6.607,5.985,7.864-12.915,11.849-23.25,11.849-30.788a11.367,11.367,0,0,0-3.486-8.782c-2.3-2.094-6.228-3.161-11.672-3.161a57.32,57.32,0,0,0-17.928,3.31,52.72,52.72,0,0,0-16.063,8.24c-16.2,13.023-24.412,25.656-24.412,37.544,0,5.12,1.541,9.268,4.593,12.32s7.228,4.58,12.429,4.58a26.168,26.168,0,0,0,13.835-3.7c4.025-2.459,6.862-5.12,8.416-7.916,1.567-2.838,2.338-5.04,2.338-6.756,0-3.7-1.945-4.485-3.58-4.485-1.23,0-1.337.757-1.337.986a1.294,1.294,0,0,0,.311.92l.148.107c.743.406.9,1.689.9,2.7,0,1.58-.877,3.581-2.594,5.945-4.431,6.039-11.064,9.106-19.683,9.106h-.892c-6.336-.149-9.416-3.553-9.416-10.416,0-4.9,1.878-10.578,5.552-16.833A79.535,79.535,0,0,1-445.536,128.9c9.917-8.066,19.387-12.159,28.155-12.159,4.6,0,7.512,1.243,8.674,3.688a13.352,13.352,0,0,1,1.176,5.593c0,5.216-2.554,12.444-7.593,21.48-2.31,4.176-7.215,11.849-14.591,22.819-10.078,14.982-11.241,18.5-11.241,19.846,0,1.068.69,2.338,3.933,2.338a10.225,10.225,0,0,0,5.485-1.284c1.971-1.255,2.16-1.539,2.16-1.958v-.419l-.391-.176c-.284-.135-.621-.378-.621-1.161,0-.406.337-1.621,2.607-5.12v-.013c5.282-8.485,14.334-18.819,26.885-30.694,14.927-14.011,27.371-21.873,37-23.359-8.794,12.281-15.427,22.224-19.724,29.574A128.139,128.139,0,0,0-389.8,170l-.013.015a.1.1,0,0,1-.015.04c-.715,1.391-20.927,41.732,12.93,46.38C-342.442,221.158-316.933,201.241-316.773,196.841Z" transform="translate(0 2.07)" fill="url(#linear-gradient-4)"/>
      </g>
    </g>
    <g id="_50_Off" data-name="50% Off" transform="translate(-423.903 -153.545)">
      <rect id="Rectangle_1851" data-name="Rectangle 1851" width="140" height="140" rx="70" transform="translate(1083 406)" fill="#ffd500"/>
      <g id="Group_5877" data-name="Group 5877" transform="translate(-305.266 -192.084)">
        <path id="Path_6958" data-name="Path 6958" d="M4.238-6a3.109,3.109,0,0,1-2.285-.938,3.1,3.1,0,0,1-.938-2.274V-19.656h2V-9.233a1.114,1.114,0,0,0,.345.825,1.14,1.14,0,0,0,.83.34,1.123,1.123,0,0,0,.825-.34,1.123,1.123,0,0,0,.34-.825V-19.656H7.472V-9.212a3.069,3.069,0,0,1-.948,2.285A3.151,3.151,0,0,1,4.238-6ZM16.714-19.656a3.1,3.1,0,0,1,2.371.938,3.252,3.252,0,0,1,.819,2.285v1.962a3.142,3.142,0,0,1-.932,2.285,3.049,3.049,0,0,1-2.258.948H15.539V-6.15H13.5V-19.656ZM17.931-16.4a1.162,1.162,0,0,0-.318-.851,1.133,1.133,0,0,0-.846-.323H15.539v4.322h1.229a1.114,1.114,0,0,0,.825-.345,1.14,1.14,0,0,0,.34-.83Zm16.2-1.207H31.964v-2.048h6.359v2.048H36.167V-6.15H34.13Zm13.445-2.22a3.109,3.109,0,0,1,2.29.948,3.123,3.123,0,0,1,.943,2.285v7.372a3.109,3.109,0,0,1-.948,2.29,3.123,3.123,0,0,1-2.285.943,3.092,3.092,0,0,1-2.285-.948,3.133,3.133,0,0,1-.938-2.285v-7.372a3.109,3.109,0,0,1,.948-2.29,3.111,3.111,0,0,1,2.274-.944Zm1.11,3.19a1.123,1.123,0,0,0-.34-.825,1.123,1.123,0,0,0-.825-.34,1.14,1.14,0,0,0-.83.34,1.114,1.114,0,0,0-.345.825v7.394a1.114,1.114,0,0,0,.345.825,1.14,1.14,0,0,0,.83.34,1.123,1.123,0,0,0,.825-.34,1.123,1.123,0,0,0,.34-.825Z" transform="translate(1424.154 640.828)"/>
        <path id="Path_6959" data-name="Path 6959" d="M-16.294-19.828A3.109,3.109,0,0,1-14-18.88a3.123,3.123,0,0,1,.943,2.285v7.372A3.109,3.109,0,0,1-14-6.933a3.123,3.123,0,0,1-2.285.943,3.092,3.092,0,0,1-2.285-.948,3.133,3.133,0,0,1-.938-2.285v-7.372a3.109,3.109,0,0,1,.948-2.29,3.111,3.111,0,0,1,2.271-.943Zm1.11,3.19a1.123,1.123,0,0,0-.34-.825,1.123,1.123,0,0,0-.825-.34,1.14,1.14,0,0,0-.83.34,1.114,1.114,0,0,0-.345.825v7.394a1.114,1.114,0,0,0,.345.825,1.14,1.14,0,0,0,.83.34,1.123,1.123,0,0,0,.825-.34,1.123,1.123,0,0,0,.34-.825Zm8.6,10.487H-8.625V-19.666h5.8v2.048H-6.588v3.686H-3.84v2.048H-6.588Zm10.235,0H1.61V-19.666h5.8v2.048H3.648v3.686H6.4v2.048H3.648Z" transform="translate(1456.683 721.115)"/>
        <path id="Path_8089" data-name="Path 8089" d="M-3.88-19.454a2.709,2.709,0,0,1-.844,2,2.754,2.754,0,0,1-2,.835,2.745,2.745,0,0,1-2.014-.835,2.724,2.724,0,0,1-.835-2v-6.5a2.745,2.745,0,0,1,.835-2.014A2.745,2.745,0,0,1-6.729-28.8a2.73,2.73,0,0,1,2.014.844,2.754,2.754,0,0,1,.835,2Zm-3.937-.036a1,1,0,0,0,.3.735,1,1,0,0,0,.735.3,1,1,0,0,0,.735-.3,1,1,0,0,0,.3-.735v-6.5a1,1,0,0,0-.3-.735,1,1,0,0,0-.735-.3,1,1,0,0,0-.735.3,1,1,0,0,0-.3.735Zm11.2,2.377a2.7,2.7,0,0,1,2,.844,2.769,2.769,0,0,1,.826,2v6.5a2.685,2.685,0,0,1-.835,2,2.754,2.754,0,0,1-2,.817A2.76,2.76,0,0,1,1.36-5.778,2.694,2.694,0,0,1,.529-7.769v-6.5a2.745,2.745,0,0,1,.835-2.014,2.745,2.745,0,0,1,2.014-.83Zm.98,2.812a1,1,0,0,0-.3-.735,1,1,0,0,0-.735-.3,1,1,0,0,0-.735.3,1,1,0,0,0-.3.735v6.5a1,1,0,0,0,.3.735,1,1,0,0,0,.735.3,1,1,0,0,0,.735-.3,1,1,0,0,0,.3-.735ZM-6.475-4.684H-8.489L3.126-28.744H5.12Z" transform="translate(1493.058 697.98)"/>
      </g>
    </g>
    <path id="Path_9453" data-name="Path 9453" d="M-3.967-48.3v6.348L-15.559,0h-7.59l12.075-41.262H-26.185V-48.3ZM12.662.69A11.545,11.545,0,0,1,4.175-2.519,11.361,11.361,0,0,1,.932-10.971V-37.329a11.361,11.361,0,0,1,3.243-8.452,11.545,11.545,0,0,1,8.487-3.208,11.545,11.545,0,0,1,8.487,3.208,11.361,11.361,0,0,1,3.243,8.452v26.358a11.361,11.361,0,0,1-3.243,8.453A11.545,11.545,0,0,1,12.662.69Zm0-6.9A4.246,4.246,0,0,0,15.9-7.452a4.927,4.927,0,0,0,1.173-3.519V-37.329A4.927,4.927,0,0,0,15.9-40.848a4.246,4.246,0,0,0-3.243-1.242,4.246,4.246,0,0,0-3.243,1.242,4.927,4.927,0,0,0-1.173,3.519v26.358A4.927,4.927,0,0,0,9.419-7.452,4.246,4.246,0,0,0,12.662-6.21Z" transform="translate(722.186 348)"/>
  </g>
</svg>
