<svg xmlns="http://www.w3.org/2000/svg" width="39.995" height="39.089" viewBox="0 0 39.995 39.089">
  <path id="Union_32" data-name="Union 32" d="M11642.5,5933.022a16.606,16.606,0,0,1,1.091-5.91c-2.937-2.708-3.529-8.585-3.588-9.292a.523.523,0,0,1,.006-.067,1.251,1.251,0,0,1,.041-.343c.009-.029.009-.062.021-.091a1.192,1.192,0,0,1,.19-.349c.006-.009.015-.012.021-.021a.866.866,0,0,1,.076-.07,1.173,1.173,0,0,1,.258-.2c.041-.023.082-.041.126-.062a1.349,1.349,0,0,1,.32-.091c.029,0,.05-.018.082-.021.012,0,.021.006.032.006a1.255,1.255,0,0,1,.416.038l.021.006a.069.069,0,0,1,.023.006c.223.062,3.052.824,7.126,1.486l2.688-4.763a4.525,4.525,0,0,1,3.949-2.284h9.192a4.523,4.523,0,0,1,3.951,2.29l2.686,4.757c4.232-.686,7.141-1.492,7.173-1.5a1.238,1.238,0,0,1,.413-.038c.015,0,.023-.006.035-.006.032,0,.056.021.085.023a1.328,1.328,0,0,1,.319.091,1.259,1.259,0,0,1,.126.062,1.183,1.183,0,0,1,.261.206.834.834,0,0,1,.076.067c.006.009.015.012.021.021a1.192,1.192,0,0,1,.19.349c.012.029.012.059.021.088a1.382,1.382,0,0,1,.041.346c0,.021.009.044.009.067-.062.707-.653,6.583-3.591,9.292a16.559,16.559,0,0,1,1.094,5.907,17.506,17.506,0,0,1-35,0Zm3.333,0a14.171,14.171,0,0,0,28.334,0,13.373,13.373,0,0,0-2.324-7.487,25.306,25.306,0,0,1-23.685,0A13.365,13.365,0,0,0,11645.831,5933.02Zm4.222,5.666a1.2,1.2,0,0,1,.188-1.084,1.268,1.268,0,0,1,1.008-.5h17.5a1.261,1.261,0,0,1,1.009.5,1.2,1.2,0,0,1,.188,1.084,10.49,10.49,0,0,1-19.892,0Zm14.53-6.557a2.083,2.083,0,1,1,2.081,2.031A2.056,2.056,0,0,1,11664.583,5932.128Zm-13.335,0a2.084,2.084,0,1,1,2.082,2.031A2.057,2.057,0,0,1,11651.248,5932.128Z" transform="translate(-11640 -5911)" fill="#00b141"/>
</svg>
