<svg width="697" height="419" viewBox="0 0 697 419" fill="none" xmlns="http://www.w3.org/2000/svg">
<path fill-rule="evenodd" clip-rule="evenodd" d="M166.309 382.297L657.12 341.852L672.665 253.189L163.718 293.634L209.633 335.663L166.309 382.297Z" fill="#E50012"/>
<path fill-rule="evenodd" clip-rule="evenodd" d="M657.12 341.852L554.928 390.789L556.223 349.624L657.12 341.852Z" fill="#BB0E17"/>
<path fill-rule="evenodd" clip-rule="evenodd" d="M480.946 156.466C481.09 156.61 481.09 156.61 481.09 156.754C483.393 160.496 483.825 165.102 483.105 169.42C482.098 174.89 479.651 181.511 477.06 187.844C477.492 187.124 477.924 186.548 478.356 185.973C486.272 174.602 495.915 164.814 507.574 157.186C518.513 149.989 530.459 145.239 543.413 144.808C549.746 144.52 555.791 146.103 559.534 151.429C559.534 151.573 559.678 151.573 559.678 151.573C559.822 151.573 559.966 151.573 560.109 151.573C568.602 151.285 575.942 154.307 579.397 160.209C582.563 150.421 586.017 140.634 589.76 131.278C598.252 109.976 608.615 89.2496 622.289 70.5383C633.227 55.4253 648.34 40.8881 667.915 40.1684C679.574 39.7366 688.786 45.4939 693.391 56.145C697.709 66.5082 696.702 79.3182 694.543 90.401C690.225 112.423 678.998 134.732 667.34 153.875C653.522 176.905 637.258 198.351 619.554 218.357C621.713 217.926 623.872 216.918 625.743 215.479C632.076 211.017 638.553 204.684 644.022 199.214C648.053 195.184 653.234 192.45 658.848 192.306C665.612 192.018 671.514 195.616 674.104 201.805C676.119 206.267 675.976 211.305 675.112 216.055C673.673 223.539 670.506 230.592 664.893 236.061C657.12 243.978 648.484 251.174 639.129 257.219C629.341 263.408 618.546 266.863 607.176 267.295C594.653 267.726 584.434 263.696 577.525 255.204C575.798 256.644 573.927 257.939 572.056 259.234C563.996 264.848 554.784 269.454 544.996 269.742C537.08 270.029 530.027 267.583 524.558 262.257C524.126 261.825 523.694 261.393 523.263 260.962C515.346 267.151 506.279 271.181 495.771 271.613C486.416 271.901 477.78 269.454 471.447 263.696C462.955 269.166 453.455 273.34 443.812 273.628C433.88 274.059 424.669 271.181 418.767 264.416C416.896 265.424 415.313 266.287 413.442 267.151C403.079 272.188 391.852 275.643 380.481 276.219C367.095 276.65 353.853 274.059 344.354 264.992C342.339 266.143 340.324 267.295 338.309 268.446C326.506 274.779 313.84 278.809 300.598 279.241C287.069 279.673 273.395 277.226 263.32 268.59C261.736 269.741 260.009 270.749 258.426 271.901C248.782 278.09 238.131 281.688 226.761 282.12C219.852 282.408 213.231 280.824 207.905 277.514C203.156 279.673 198.262 281.4 193.08 282.552C186.891 304.429 178.975 326.451 168.18 346.314C158.824 363.586 144.431 381.002 123.417 381.865C112.046 382.297 101.971 377.979 96.9331 367.472C92.4712 358.26 93.0469 347.177 95.062 337.102C98.6603 319.111 106.721 300.831 115.5 284.423C117.084 281.544 118.667 278.665 120.394 275.787C104.13 284.567 86.1381 288.309 67.8587 289.029C50.7306 289.748 32.0193 287.589 17.77 277.802C2.65701 267.439 -0.941314 251.03 2.51308 233.326C4.24027 224.834 7.26286 216.198 12.8762 209.578C18.6336 202.525 26.4059 198.639 35.3298 198.207C41.8068 197.919 47.9959 199.646 52.7457 204.108C57.9273 209.002 59.6545 215.623 58.3591 222.675C57.7833 225.698 56.9197 228.577 56.0561 231.455C55.7683 232.607 55.3365 233.758 55.0486 234.91C54.7608 235.773 54.4729 236.781 54.185 237.644C54.185 237.788 54.185 237.932 54.0411 238.076C54.3289 238.22 54.4729 238.364 54.7607 238.364C59.9423 240.955 69.154 240.955 74.9114 240.811C82.5398 240.523 91.4637 239.228 98.2285 235.054C102.259 232.607 104.993 229.728 105.857 224.978C106.001 224.115 106.145 222.963 105.569 222.1C104.13 220.085 102.115 218.501 99.8118 217.35C94.3423 214.615 88.7289 212.168 82.9716 210.009C74.1917 206.555 65.2679 202.813 57.0637 198.063C49.1474 193.313 42.8143 186.692 38.3524 178.632C32.8829 168.701 32.5951 157.186 34.6101 145.959C37.2009 133.437 42.6704 122.21 51.0185 112.423C59.6545 102.204 70.7373 94.719 82.8277 89.5374C96.2134 83.7801 110.319 81.0454 124.712 80.4697C128.023 80.3257 131.333 80.3257 134.5 80.6136C164.582 59.7433 206.034 63.0538 238.563 71.6897C269.077 79.8939 296.424 90.8328 324.923 103.499C358.459 118.324 384.655 130.99 422.366 119.044C427.979 117.173 434.168 116.309 439.925 117.604C441.797 118.036 443.668 118.756 445.251 119.619C447.554 115.589 450.72 112.135 454.463 109.256C461.228 104.075 468.856 101.34 477.204 100.908C484.689 100.62 491.885 102.347 497.499 107.241C503.832 112.855 505.559 120.915 503.976 129.263C502.248 137.755 498.074 145.096 491.166 150.565C488.143 153.156 484.545 155.027 480.946 156.466ZM446.978 151.86C446.834 151.717 446.69 151.573 446.546 151.429C446.115 150.997 445.827 150.565 445.539 150.133C442.228 152.724 438.342 154.739 434.6 155.891C432.153 156.754 429.706 157.474 427.259 158.05C428.267 159.057 429.274 160.209 430.138 161.36C431.433 163.087 432.441 164.958 433.448 166.829C435.895 161.792 439.206 157.042 443.812 153.732C444.963 153.012 445.971 152.436 446.978 151.86ZM371.557 161.504C350.975 157.906 331.256 149.558 308.227 139.482C281.455 127.68 255.691 117.173 227.192 109.544C214.095 105.946 197.254 103.067 181.854 104.363C183.869 107.961 185.164 111.847 185.884 115.877C187.467 124.513 186.316 133.725 183.293 141.929C177.536 157.33 164.15 172.155 147.31 174.17C143.999 174.602 140.977 174.458 137.954 174.026C138.098 174.026 138.098 174.17 138.242 174.17C145.87 178.632 151.916 184.821 156.377 192.45C158.393 195.76 159.544 199.502 160.408 203.244C161.703 196.336 162.998 189.283 164.15 182.23C165.445 174.314 169.907 167.837 176.528 163.519C182.573 159.633 189.338 157.618 196.391 157.33C202.148 157.186 207.618 158.337 211.648 162.511C211.792 162.655 211.792 162.655 211.792 162.799C211.936 162.655 212.079 162.655 212.079 162.655C218.413 159.201 225.321 157.042 232.374 156.898C244.32 156.466 254.252 161.36 260.441 171.435C263.32 176.329 264.903 181.655 265.479 187.268C271.812 178.2 279.728 170.428 289.084 164.383C299.015 158.05 309.954 154.307 321.469 154.019C332.264 153.588 342.339 156.61 349.248 164.814C352.126 168.269 353.997 172.011 355.005 176.041C360.043 170.284 365.512 165.534 371.557 161.504ZM122.121 166.11C118.379 162.799 115.213 158.769 112.478 154.451C108.016 147.111 106.001 138.475 106.145 129.983C102.69 130.846 99.38 132.142 96.5013 133.869C92.3273 136.604 89.7365 139.914 88.8729 144.808C88.585 146.247 88.4411 147.974 89.3047 149.27C90.8879 151.716 93.1909 153.3 95.6377 154.739C101.251 157.762 107.44 160.209 113.341 162.655C116.22 163.663 119.099 164.814 122.121 166.11ZM408.98 220.516C407.684 220.804 406.389 220.948 404.95 220.948C399.624 221.236 394.443 219.941 390.412 216.342C388.973 215.047 387.822 213.608 387.102 212.024C386.238 214.327 385.663 216.63 385.087 219.077C384.799 220.804 383.936 226.562 384.943 228.145C385.807 228.577 388.541 228.721 389.405 228.577C394.011 228.433 399.624 225.842 403.51 223.683C405.382 222.819 407.253 221.668 408.98 220.516ZM208.193 217.206C209.345 215.191 210.352 213.032 211.072 210.873C210.352 211.737 209.633 212.456 209.057 213.176C208.769 214.471 208.481 215.911 208.193 217.206Z" fill="#E9E9EC"/>
<path fill-rule="evenodd" clip-rule="evenodd" d="M462.955 148.262C465.977 149.126 468.568 150.709 470.295 153.732C472.022 156.466 472.31 159.777 471.735 163.087C471.015 166.398 469.863 169.852 468.712 173.163C466.697 178.632 464.682 184.101 462.379 189.427C459.788 195.76 457.197 202.381 454.894 208.858C453.599 212.312 452.16 216.342 451.584 219.941C451.44 220.66 451.152 221.812 451.152 222.963C452.591 222.1 454.175 220.804 454.894 220.229C457.053 218.501 459.212 216.63 461.084 214.759C463.818 203.388 469 192.737 475.765 183.094C483.249 172.299 492.605 162.943 503.544 155.747C513.763 149.126 524.846 144.664 536.936 144.088C541.542 143.944 546.292 144.808 549.027 148.694C549.458 149.414 549.89 150.277 550.322 151.141C551.473 150.997 552.481 150.997 553.632 150.853C559.246 150.565 565.147 151.716 568.314 156.754C570.185 159.777 570.473 163.231 569.897 166.686C569.321 169.42 568.314 172.587 567.306 175.321C565.723 180.071 563.852 184.821 562.125 189.427C559.534 196.336 556.943 203.101 554.496 210.153C553.632 212.744 552.625 215.623 551.905 218.214C552.769 217.638 553.489 216.918 554.064 216.63C558.382 213.032 562.7 209.146 566.73 205.116C567.162 199.502 568.026 193.745 569.033 188.275C573.063 167.549 580.116 146.967 587.745 127.392C595.949 106.522 606.312 86.0831 619.698 67.8036C629.629 54.1299 643.735 40.1684 661.438 39.4488C671.226 39.017 678.71 43.7668 682.452 52.6906C686.483 62.1902 685.331 74.1366 683.316 84.068C678.998 105.514 668.059 127.248 656.832 145.959C642.439 169.708 625.455 192.018 607.032 212.6C607.176 214.615 607.319 216.774 608.039 217.638C608.327 218.07 609.478 218.07 610.054 218.07C614.516 217.926 618.402 216.486 622.145 213.896C628.765 209.29 635.53 202.669 641.288 197.055C644.454 193.889 648.34 191.73 652.802 191.586C657.696 191.442 661.582 193.889 663.597 198.351C665.037 201.949 665.037 205.979 664.317 209.721C663.022 216.198 660.287 222.388 655.537 227.137C648.052 234.91 639.848 241.819 630.781 247.576C621.713 253.333 611.925 256.644 601.274 257.075C588.464 257.507 578.677 252.757 572.919 242.682C570.041 245.273 566.874 247.576 563.708 249.879C556.511 254.916 548.019 259.09 539.239 259.378C532.618 259.666 526.861 257.507 522.111 253.189C520.672 251.894 519.376 250.311 518.369 248.727C510.453 255.924 500.953 260.818 490.014 261.25C480.658 261.681 472.31 258.803 466.553 251.894C457.917 257.939 448.13 262.833 438.054 263.265C428.267 263.552 419.343 260.674 414.449 252.47C411.715 254.197 408.692 255.78 405.813 257.219C396.026 261.825 385.375 265.28 374.724 265.711C361.482 266.143 348.24 263.408 339.46 253.189C336.581 255.06 333.415 256.931 330.392 258.659C319.31 264.704 307.363 268.302 294.841 268.878C281.311 269.31 267.35 266.719 258.138 256.788C255.547 258.803 252.956 260.674 250.222 262.401C241.298 268.158 231.51 271.325 221.003 271.757C214.095 272.044 207.761 270.317 202.724 266.287C196.679 269.454 190.346 271.757 183.581 272.908C177.392 295.362 169.475 318.103 158.249 338.541C149.756 354.23 136.659 370.639 117.659 371.358C108.16 371.646 99.6678 368.336 95.4937 359.556C91.6075 351.208 92.1833 341.132 94.0544 332.065C97.5088 314.505 105.569 296.657 113.917 280.824C119.099 270.893 125 261.249 131.333 251.75C127.735 255.348 123.705 258.659 119.099 261.825C101.971 273.196 81.964 277.802 61.8134 278.521C45.6929 279.097 27.8452 277.37 14.4595 268.158C1.07369 258.947 -1.94889 244.265 1.0737 228.433C2.51303 220.948 5.24776 213.032 10.2854 206.843C15.1791 200.942 21.6561 197.631 29.1406 197.343C34.3222 197.199 39.3599 198.351 43.1021 201.949C46.9883 205.691 48.2837 210.873 47.2762 216.342C46.7005 219.077 45.9808 221.956 44.9733 224.69C44.6854 225.698 44.2536 226.85 43.9657 227.857C43.5339 229.008 43.2461 230.16 42.9582 231.311C42.3825 234.478 43.1021 235.773 45.9808 237.213C52.026 240.235 61.6695 240.379 68.4343 240.091C77.0703 239.803 86.5699 238.22 94.1983 233.758C99.3799 230.592 102.978 226.418 104.13 220.373C104.562 217.926 104.562 215.767 103.122 213.752C101.251 211.017 98.6603 209.146 95.7816 207.562C90.3121 204.684 84.4109 202.237 78.6536 200.078C70.1615 196.768 61.2377 193.025 53.4653 188.419C46.1247 184.101 40.5113 178.056 36.4812 170.716C31.5875 161.792 31.2996 151.429 33.3147 141.209C35.6176 129.551 40.7992 119.188 48.5716 109.976C56.7758 100.332 67.1389 93.2797 78.5096 88.386C91.3197 82.7726 104.849 80.3257 118.667 79.75C122.409 79.6061 126.008 79.6061 129.75 79.8939C158.68 58.8797 199.557 62.3341 231.079 70.8261C247.343 75.1441 263.32 80.4697 279.008 86.5149C291.818 91.4086 304.34 96.878 316.863 102.491C351.551 117.748 378.466 130.558 417.616 118.18C422.509 116.741 427.835 115.733 432.729 116.885C436.039 117.604 438.918 119.332 440.933 121.922C442.804 116.165 446.402 111.415 451.296 107.673C457.197 103.211 463.962 100.764 471.303 100.476C477.492 100.332 483.681 101.484 488.287 105.658C493.325 110.12 494.62 116.597 493.325 123.218C491.885 130.558 488.143 136.891 482.242 141.641C476.34 145.527 469.863 147.83 462.955 148.262ZM452.879 147.542C449.425 146.679 446.114 145.096 443.668 142.361C442.084 140.634 440.933 138.619 440.213 136.604C439.781 137.179 439.35 137.755 438.918 138.187C435.751 141.785 431.289 144.232 426.684 145.671C419.919 147.83 413.442 149.557 407.397 150.709C412.29 152.004 416.608 154.451 419.775 158.769C423.949 164.239 425.244 170.86 424.669 177.48C426.54 173.163 428.555 168.845 430.57 164.383C432.729 159.777 435.751 154.883 439.925 151.86C443.812 149.126 448.273 147.974 452.879 147.542ZM381.633 152.724C355.293 151.86 331.976 141.785 303.621 129.407C291.53 124.081 279.44 118.756 266.918 114.006C252.237 108.393 237.268 103.355 222.011 99.3249C205.746 94.863 184.876 91.5525 166.741 95.0069C167.892 96.3023 168.9 97.7416 169.907 99.181C172.21 102.923 173.793 106.953 174.657 111.271C176.096 119.044 175.089 127.248 172.21 134.732C167.172 148.262 155.37 161.792 140.401 163.663C126.871 165.39 116.508 156.898 110.175 145.959C105.137 137.755 103.554 127.824 104.849 118.18C98.8042 119.044 92.6151 120.771 87.4335 123.937C82.108 127.392 78.7975 131.854 77.5021 138.187C77.0703 140.922 77.0703 143.8 78.6536 146.247C80.6686 149.27 83.4034 151.429 86.5699 153.156C92.3272 156.178 98.6603 158.769 104.705 161.216C112.91 164.527 121.258 168.125 129.03 172.587C135.939 176.473 141.408 182.086 145.438 189.139C150.188 197.487 150.476 207.131 148.605 216.63C147.454 222.532 145.726 228.001 143.279 233.183C147.022 228.145 150.62 223.107 154.362 218.214C157.097 204.54 159.832 190.722 162.135 176.905C163.142 170.428 166.884 165.246 172.354 161.504C177.536 158.05 183.581 156.322 189.77 156.034C194.088 155.891 198.406 156.754 201.428 159.921C202.436 160.928 203.156 162.08 203.587 163.231C205.027 162.368 206.322 161.504 207.618 160.784C213.231 157.618 219.42 155.747 225.753 155.603C236.116 155.171 244.464 159.201 249.79 167.837C255.115 176.761 255.259 187.7 253.244 198.063C251.517 206.555 248.638 214.615 244.464 222.388C243.457 224.403 242.305 226.274 241.154 228.145L241.298 228.001C243.745 226.274 245.904 224.403 248.063 222.388C248.351 220.229 248.638 217.926 249.07 215.623C251.229 204.684 255.547 194.609 261.736 185.253C267.925 176.041 275.698 168.125 285.053 162.08C294.265 156.178 304.341 152.868 314.992 152.436C324.203 152.004 332.983 154.451 339.028 161.504C343.922 167.405 345.361 174.602 344.786 182.086C344.93 181.798 345.217 181.511 345.361 181.223C351.838 172.155 359.755 164.095 369.254 158.337C373.284 156.178 377.315 154.163 381.633 152.724ZM332.12 211.88C330.248 214.039 328.233 215.911 326.074 217.926C319.31 223.683 310.818 228.289 302.182 231.743C308.227 231.168 315.136 228.001 320.317 225.266C323.915 223.251 327.37 221.236 330.68 218.645C330.824 217.494 331.112 216.342 331.4 215.191C331.544 214.039 331.832 213.032 332.12 211.88ZM416.176 200.078C415.889 200.366 415.745 200.654 415.457 200.942C410.995 206.411 405.238 210.153 398.329 210.441C394.155 210.585 390.269 209.578 387.102 206.987C383.648 203.82 382.496 199.502 383.36 194.896C383.648 193.169 384.223 191.586 384.943 190.003C385.087 189.859 385.087 189.715 385.231 189.427C382.64 192.018 380.481 195.184 378.898 198.495C376.451 202.957 374.868 207.85 373.86 212.888C373.14 216.342 372.277 223.395 374.868 226.13C376.739 228.001 380.481 228.145 382.928 228.001C388.397 227.857 394.443 225.122 399.336 222.388C403.942 219.797 408.404 216.63 412.434 213.176C413.442 208.57 414.737 204.252 416.176 200.078ZM192.792 230.304C192.792 230.16 192.936 230.16 192.936 230.16C197.83 225.842 201.716 220.66 204.883 215.191C208.193 209.434 210.64 203.101 211.936 196.624C212.079 195.76 212.367 193.889 212.223 192.737C210.928 193.025 208.481 194.752 207.761 195.472C204.307 198.207 200.997 201.805 197.974 205.26C196.103 213.608 194.52 221.956 192.792 230.304ZM294.409 201.373C296.28 200.366 297.864 199.358 299.447 198.207C302.613 195.904 305.492 192.881 306.356 189.139C303.045 189.859 300.023 193.169 298.151 195.616C296.712 197.343 295.561 199.214 294.409 201.373ZM522.543 184.389C517.073 188.707 512.755 194.033 509.157 199.934C505.415 206.267 502.68 213.032 501.241 220.229C501.097 220.948 500.809 222.963 500.809 224.115C500.953 224.115 501.097 224.115 501.097 224.115C502.392 223.971 504.983 221.524 505.703 220.804C509.013 217.35 511.316 212.744 513.187 208.282L522.543 184.389ZM647.333 84.4998C646.037 86.6588 645.03 88.5299 644.454 89.5374C637.114 103.355 630.924 118.18 625.455 132.861C624.591 135.308 623.728 137.611 622.864 140.058C625.455 135.596 628.046 131.134 630.493 126.672C637.833 113.718 644.31 99.037 647.333 84.4998Z" fill="#231915"/>
<path d="M61.3817 270.317C42.6704 271.037 28.421 268.014 18.4896 261.25C8.70217 254.485 5.24778 243.834 8.12644 229.008C9.7097 221.092 12.1566 215.191 15.611 210.873C19.0653 206.699 23.5273 204.54 28.7089 204.252C32.4511 204.108 35.4737 204.972 37.3448 206.987C39.3599 208.858 40.0796 211.305 39.5038 214.471C38.9281 217.35 38.2084 219.941 37.3448 221.956C37.2009 222.532 36.913 223.539 36.4812 224.978C36.0494 226.418 35.6176 228.001 35.1858 229.44C33.8904 235.773 36.1934 240.523 41.9507 243.402C47.708 246.28 56.4879 247.432 68.0026 247C79.949 246.568 89.7364 243.978 97.3649 239.516C104.993 234.91 109.599 228.721 111.182 220.948C112.046 216.055 111.326 212.024 109.023 208.714C106.577 205.404 103.266 202.525 99.0921 200.366C94.918 198.207 88.8728 195.472 81.1005 192.45C71.1691 188.563 62.9649 184.821 56.9197 181.367C50.8745 177.768 45.9808 172.731 42.5264 166.398C38.9281 160.065 38.2084 151.86 40.0796 142.073C42.0946 131.854 46.7005 122.642 53.6093 114.438C60.662 106.378 69.5858 99.9006 80.8126 95.0069C91.8954 90.2571 104.274 87.5224 118.091 87.0906C122.697 86.9466 127.015 86.9467 131.045 87.5224C149.181 73.1291 180.702 65.2128 228.344 77.8789C263.751 87.3785 290.235 99.037 312.976 109.112C351.263 125.952 378.466 137.899 419.055 125.089C437.622 119.332 441.077 133.149 424.381 138.763C378.034 154.163 348.384 141.065 306.643 122.642C284.19 112.855 258.138 101.34 224.026 92.1282C190.346 83.0605 166.165 85.3634 150.476 92.56C156.09 95.2948 160.264 99.037 163.286 103.643C180.846 130.846 140.257 181.367 116.364 142.217C112.046 135.02 110.607 125.952 112.478 116.597C112.91 114.438 113.485 112.423 114.349 110.264C113.629 110.264 113.054 110.264 112.478 110.408C100.387 110.84 90.6 113.43 83.2595 118.18C75.9189 122.786 71.6009 129.263 69.8737 137.323C68.8662 142.793 69.5858 147.399 72.0327 150.997C74.6235 154.739 78.0779 157.762 82.5398 160.065C87.0017 162.511 93.3348 165.246 101.395 168.413C111.182 172.443 118.955 176.185 124.856 179.352C130.613 182.662 135.219 187.268 138.674 193.169C141.984 199.214 142.848 206.555 140.977 215.623C137.666 232.319 128.742 245.417 114.493 254.916C100.244 264.272 82.5398 269.454 61.3817 270.317ZM133.204 113.862C131.909 113.142 130.613 112.567 129.318 111.991C128.31 114.15 127.591 116.453 127.159 118.612C119.818 153.875 154.506 125.952 133.204 113.862ZM271.38 213.32C273.251 213.176 274.546 214.039 275.266 215.767C275.986 217.494 276.13 219.797 275.41 222.675C274.402 228.433 272.1 232.895 268.789 236.061C261.305 243.834 253.532 250.311 245.616 255.348C237.7 260.386 229.351 263.121 220.428 263.409C212.943 263.696 207.474 261.249 203.875 256.068C194.808 261.681 185.884 264.704 177.104 265.136C169.907 292.627 161.271 315.8 151.052 334.367C140.977 352.935 129.606 362.578 117.084 363.01C109.455 363.298 104.418 360.707 101.827 355.238C99.236 349.768 98.9481 342.284 100.819 332.496C103.554 318.535 110.031 302.27 119.962 283.415C129.894 264.704 143.855 243.834 161.415 220.948C165.445 200.222 168.18 185.829 169.619 177.624C170.339 173.45 172.498 170.284 176.384 167.693C180.27 165.102 184.588 163.807 189.77 163.663C192.649 163.519 194.808 164.095 195.815 165.246C196.967 166.398 197.254 168.701 196.679 172.299C195.959 175.897 195.527 178.488 195.383 180.215C200.997 174.314 206.322 169.996 211.072 167.405C215.966 164.814 220.859 163.231 225.753 163.087C233.669 162.799 239.571 165.678 243.169 172.011C246.911 178.2 247.775 186.548 245.76 196.911C244.32 204.396 241.73 211.88 237.843 219.077C234.101 226.274 229.495 232.895 224.026 238.796C226.761 239.516 229.207 239.803 231.223 239.803C235.828 239.66 240.578 237.788 245.616 234.19C250.51 230.592 256.987 224.691 265.191 216.486C267.206 214.471 269.221 213.464 271.38 213.32ZM182.141 244.697C187.467 243.402 192.649 240.379 197.83 235.773C203.012 231.167 207.618 225.41 211.36 218.645C215.246 212.024 217.837 204.972 219.276 197.775C220.14 193.457 219.996 190.291 218.7 188.132C217.405 185.973 215.39 184.965 212.511 185.109C207.474 185.253 200.277 190.866 190.921 201.949C189.626 208.138 187.755 217.35 185.308 229.44C184.156 236.061 183.005 241.243 182.141 244.697ZM122.841 342.284C126.727 342.14 131.477 333.648 137.378 316.808C143.136 299.967 148.893 279.097 154.506 254.197C145.726 268.734 138.242 282.408 132.197 295.506C126.151 308.603 122.265 319.398 120.538 328.322C119.674 332.784 119.531 336.383 120.106 338.685C120.538 341.132 121.402 342.284 122.841 342.284ZM354.429 210.297C356.3 210.153 357.596 211.017 358.315 212.744C359.035 214.327 359.179 216.63 358.603 219.653C357.452 225.266 355.293 229.872 351.982 233.039C345.505 239.66 336.869 245.849 326.362 251.606C315.855 257.363 305.06 260.53 294.265 260.818C279.44 261.393 268.789 257.795 262.312 250.023C255.691 242.25 253.82 231.311 256.555 217.206C258.57 207.419 262.312 198.207 268.069 189.571C273.827 180.935 280.879 174.026 289.084 168.701C297.288 163.519 306.068 160.64 315.135 160.352C323.34 160.065 329.385 162.224 333.271 166.973C337.301 171.723 338.453 178.344 336.725 186.692C334.854 196.48 329.673 205.116 321.325 212.312C312.976 219.653 300.023 225.698 282.607 230.448C284.766 236.781 290.811 239.803 300.742 239.516C307.075 239.228 314.704 236.781 323.628 232.031C332.695 227.281 340.756 221.092 348.24 213.608C350.255 211.449 352.414 210.297 354.429 210.297ZM307.363 181.367C302.182 181.655 297.144 184.821 292.25 191.01C287.5 197.199 284.19 204.684 282.463 213.464L282.319 213.896C290.955 211.593 298.151 208.426 303.765 204.252C309.378 200.078 312.545 195.328 313.696 190.147C314.128 187.412 313.84 185.253 312.689 183.67C311.681 181.942 309.81 181.223 307.363 181.367ZM374.004 257.795C360.187 258.227 350.255 254.773 344.066 247.288C338.021 239.66 336.15 229.44 338.74 216.486C341.043 204.972 345.217 194.752 351.551 185.973C357.74 177.049 364.936 170.284 372.997 165.246C381.057 160.209 389.117 157.618 397.033 157.33C404.806 157.042 410.419 159.057 413.73 163.519C417.184 167.981 418.048 173.882 416.608 181.079C415.457 187.124 413.154 192.162 409.699 196.336C406.245 200.654 402.359 202.813 398.185 202.957C395.45 203.101 393.435 202.525 392.14 201.229C390.7 199.934 390.268 198.207 390.7 196.048C390.844 195.04 391.276 193.889 391.708 192.593C392.284 191.298 392.571 190.434 393.003 189.859C394.011 187.7 394.874 185.685 395.162 183.814C395.45 181.942 395.306 180.503 394.586 179.639C393.867 178.632 392.715 178.2 390.988 178.2C387.822 178.344 384.511 179.927 381.057 182.95C377.602 185.973 374.58 190.003 371.989 195.04C369.254 200.078 367.383 205.691 366.232 211.593C362.921 228.145 368.391 236.061 382.64 235.485C388.397 235.342 395.018 233.039 402.503 228.865C409.987 224.691 417.616 218.645 425.676 210.441C427.835 208.426 429.85 207.275 432.009 207.275C433.88 207.275 435.176 207.994 435.895 209.721C436.615 211.305 436.615 213.608 436.039 216.63C435.032 222.1 432.729 226.418 429.418 230.016C421.214 238.508 412.002 245.129 401.927 250.023C391.996 254.772 382.64 257.363 374.004 257.795ZM461.659 140.778C455.758 141.065 451.584 139.77 449.281 137.179C446.834 134.445 446.114 130.702 447.122 125.665C448.13 120.627 450.864 116.453 455.326 112.999C459.788 109.544 464.97 107.673 470.871 107.385C476.053 107.241 480.083 108.393 482.673 110.696C485.408 113.142 486.416 116.741 485.408 121.491C484.401 127.104 481.522 131.71 477.204 135.164C473.03 138.619 467.704 140.49 461.659 140.778ZM437.478 255.348C428.267 255.78 422.222 252.757 419.343 246.28C416.464 239.947 416.176 231.311 418.335 220.516C419.631 214.183 422.078 205.835 425.676 195.76C429.274 185.685 433.161 176.185 437.478 167.405C439.637 162.799 441.94 159.633 444.387 157.906C446.834 156.034 450.432 155.171 455.038 154.883C462.235 154.595 465.401 156.898 464.394 161.648C463.674 165.246 460.796 173.594 455.614 186.548C449.137 202.237 445.395 212.888 444.243 218.501C443.38 222.819 443.38 225.986 443.955 228.289C444.675 230.592 446.258 231.599 448.993 231.455C451.584 231.311 455.038 229.44 459.5 225.842C463.962 222.1 470.151 216.342 478.068 208.426C480.227 206.411 482.242 205.26 484.401 205.26C486.272 205.116 487.567 205.979 488.287 207.706C489.006 209.434 489.006 211.737 488.431 214.759C487.279 220.373 485.12 224.834 481.81 228.145C464.25 245.849 449.569 254.916 437.478 255.348ZM489.294 253.333C480.658 253.621 474.181 250.742 470.295 244.553C466.409 238.364 465.401 230.016 467.417 219.653C469.719 208.282 474.325 197.487 481.666 186.98C488.863 176.617 497.355 168.269 507.286 161.648C517.217 155.027 527.005 151.573 536.648 151.285C539.815 151.141 541.686 151.716 542.55 152.868C543.413 154.019 543.845 156.178 543.845 159.201C547.011 158.481 550.034 158.193 553.345 157.906C560.253 157.618 563.276 160.065 562.268 164.958C561.549 167.981 559.102 175.178 554.784 186.404C548.307 202.957 544.421 214.327 543.269 220.66C542.837 222.819 542.981 224.547 543.845 225.698C544.709 226.993 545.86 227.569 547.587 227.425C550.322 227.281 553.92 225.41 558.382 221.812C562.844 218.214 569.177 212.312 577.093 204.252C579.109 202.237 581.268 201.086 583.427 201.086C585.298 200.942 586.593 201.805 587.313 203.532C588.032 205.26 588.032 207.562 587.457 210.441C586.305 216.198 584.146 220.66 580.836 223.827C573.639 231.311 566.298 237.644 558.814 242.97C551.329 248.152 544.709 250.886 538.519 251.03C533.914 251.318 529.883 249.735 526.717 246.712C523.55 243.69 521.391 239.372 520.528 233.902C510.884 246.568 500.521 252.901 489.294 253.333ZM501.241 231.455C504.407 231.311 507.718 229.44 511.172 225.554C514.627 221.812 517.793 216.774 520.24 210.585L535.785 171.004C529.883 171.435 523.982 173.738 518.081 178.344C512.324 182.806 507.142 188.707 502.824 195.904C498.506 203.101 495.483 210.729 493.9 218.645C493.037 223.107 493.324 226.274 494.62 228.289C495.915 230.736 498.074 231.743 501.241 231.455ZM652.37 198.927C654.242 198.783 655.537 199.646 656.257 201.373C656.976 203.101 657.12 205.403 656.401 208.282C655.393 214.039 653.09 218.501 649.78 221.668C642.295 229.44 634.523 235.917 626.319 240.955C618.258 245.993 609.766 248.727 600.698 249.159C588.32 249.591 580.26 244.265 576.518 233.039C572.775 221.956 572.632 207.275 576.23 189.283C579.54 172.011 585.729 152.148 594.509 129.695C603.289 107.385 613.652 88.0981 625.455 71.8337C637.257 55.5693 649.06 47.2211 661.006 46.7893C667.771 46.5015 672.521 49.5241 675.112 55.7132C677.703 61.9023 677.847 70.8262 675.544 82.6287C672.233 99.4688 663.741 119.332 649.924 142.073C636.25 164.67 619.266 187.412 599.115 209.865C598.827 215.623 599.691 219.797 601.418 222.1C603.145 224.547 605.88 225.554 609.478 225.41C615.236 225.266 620.705 223.395 625.743 219.797C630.78 216.342 637.401 210.297 645.749 201.949C648.196 200.078 650.211 198.927 652.37 198.927ZM652.514 68.0914C649.204 68.2354 644.454 74.2806 637.977 86.227C631.5 98.1734 625.023 112.999 618.546 130.558C612.069 148.118 607.032 164.958 603.577 181.079C616.819 164.095 628.19 147.111 637.257 130.127C646.469 113.286 652.37 97.7416 655.249 84.068C657.264 73.273 656.401 67.9475 652.514 68.0914Z" fill="#FEFEFE"/>
<path fill-rule="evenodd" clip-rule="evenodd" d="M534.201 13.3969C531.035 10.0864 527.868 10.2304 524.558 9.79857L471.735 4.90486C470.871 4.76092 470.871 4.90486 470.007 4.90486L464.682 4.32911C463.818 4.18518 463.674 4.32913 462.811 4.18519C462.379 4.18519 461.515 4.04125 461.083 4.04125L432.873 1.45045C430.426 1.16259 417.184 -0.132811 415.313 0.0111222C412.866 0.298988 409.843 1.45046 407.397 3.32159C404.806 5.19271 403.798 7.49565 403.366 9.51071C402.791 11.8136 402.503 14.1166 402.215 16.4195L393.435 70.9701C393.579 71.8337 393.579 71.8337 393.147 72.5534C393.291 73.8488 392.715 75.8638 392.715 77.7349C392.859 79.75 393.579 81.4772 394.874 83.3483C396.745 85.5073 398.041 85.9391 400.344 86.8027C401.063 86.9467 401.639 87.0906 402.503 87.0906C403.366 87.2345 403.942 87.0906 404.806 87.3784L425.676 89.2496C446.402 91.1207 467.992 93.2797 488.431 95.0069C491.885 95.2948 495.196 95.5826 498.794 95.8705C502.248 96.3023 505.991 96.4462 509.301 96.878C518.945 97.8856 518.945 96.5902 525.709 91.4086C533.626 85.3634 564.715 65.6446 564.571 56.4329C564.715 44.9182 541.398 22.4647 534.201 13.3969ZM538.376 63.1977C533.77 62.4781 530.891 58.1601 532.042 53.6981C533.05 49.2362 537.8 46.2136 542.406 46.9333C545.716 47.509 548.163 49.812 548.739 52.6906C549.17 58.7358 545.572 64.3492 538.376 63.1977Z" fill="#EA0E02"/>
<path fill-rule="evenodd" clip-rule="evenodd" d="M481.522 5.91239C478.787 5.91239 476.053 5.76846 473.462 5.62453C465.545 5.19273 458.061 4.32912 451.008 3.32159L433.017 1.73832C430.57 1.45045 417.328 0.155054 415.457 0.298987C413.01 0.586853 409.987 1.73832 407.54 3.60945C404.95 5.48058 403.942 7.78351 403.51 9.79857C402.935 12.1015 402.647 14.4044 402.359 16.7074L396.602 52.1149C396.889 53.6981 396.746 54.9935 395.882 56.4329L393.579 71.4019C393.723 72.2655 393.723 72.2655 393.291 72.9851C393.435 74.2805 392.859 76.2956 392.859 78.1667C393.003 80.1818 393.723 81.909 395.018 83.7801C396.889 85.9391 398.185 86.3709 400.488 87.2345C401.207 87.3785 401.783 87.5224 402.647 87.5224C403.51 87.6663 404.086 87.5224 404.95 87.8102L425.82 89.6814C446.546 91.5525 468.136 93.7115 488.575 95.4387C492.029 95.7266 495.34 96.0144 498.938 96.3023C502.392 96.7341 506.135 96.878 509.445 97.3098C519.089 98.3174 519.089 97.022 525.853 91.8404C533.77 85.7952 564.859 66.0764 564.715 56.8647C564.715 45.2061 541.398 22.7525 534.201 13.6848C531.035 10.3743 527.868 10.5182 524.558 10.0864L481.522 5.91239ZM538.376 63.1977C533.77 62.4781 530.891 58.1601 532.042 53.6981C533.05 49.2362 537.8 46.2136 542.406 46.9333C545.716 47.509 548.163 49.8119 548.739 52.6906C549.171 58.7358 545.572 64.3492 538.376 63.1977Z" fill="#ED1C24"/>
<path fill-rule="evenodd" clip-rule="evenodd" d="M543.413 23.904C523.694 27.6463 503.832 29.8052 484.113 27.6462C434.6 22.3207 513.043 64.2052 467.848 64.3492C446.258 64.4931 410.563 51.827 401.351 23.0404L396.745 51.827C397.033 53.4103 396.889 54.8496 396.026 56.145L393.723 71.114C393.867 71.9776 393.867 71.9776 393.435 72.6973C393.579 73.9927 393.003 76.0077 393.003 77.8789C393.147 79.8939 393.867 81.6211 395.162 83.4922C397.033 85.6512 398.329 86.0831 400.632 86.9466C401.351 87.0906 401.927 87.2345 402.791 87.2345C403.654 87.3784 404.23 87.2345 405.094 87.5224L425.964 89.3935C446.69 91.2646 468.28 93.4236 488.719 95.1508C492.173 95.4387 495.483 95.7265 499.082 96.0144C502.536 96.4462 506.278 96.5902 509.589 97.022C519.232 98.0295 519.232 96.7341 525.997 91.5525C533.914 85.5073 565.003 65.7885 564.859 56.5768C564.715 48.2287 552.913 34.4111 543.413 23.904ZM538.375 63.1977C533.77 62.478 530.891 58.16 532.042 53.6981C533.05 49.2362 537.8 46.2136 542.406 46.9333C545.716 47.509 548.163 49.8119 548.739 52.6906C549.17 58.7358 545.572 64.3492 538.375 63.1977Z" fill="#BE1E2D"/>
<path fill-rule="evenodd" clip-rule="evenodd" d="M61.3816 267.151C79.3732 266.431 97.5087 262.545 113.054 252.182C126.727 243.114 135.075 230.736 138.242 214.903C139.681 207.994 139.681 200.654 136.227 194.608C133.492 189.859 130.038 185.973 125.432 182.95C128.598 185.541 131.189 188.707 133.348 192.45C136.802 198.495 136.659 205.835 135.363 212.744C132.197 228.721 123.848 241.099 110.175 250.167C94.6301 260.386 76.4945 264.416 58.5029 265.136C45.1171 265.567 29.2845 264.416 18.0577 257.075C18.7774 257.651 19.4971 258.227 20.2167 258.659C31.5874 266.431 47.7079 267.726 61.3816 267.151ZM75.3431 158.625C73.1841 156.754 71.3129 154.739 69.7297 152.436C66.5632 147.686 65.9874 142.217 66.995 136.46C68.8661 127.392 73.9037 120.195 81.8201 115.157C90.8878 109.4 102.115 107.241 112.478 106.809C113.197 106.809 113.773 106.809 114.493 106.809H114.637C114.493 106.522 114.349 106.234 114.205 105.946C113.629 105.082 112.766 104.65 111.758 104.65C111.038 104.65 110.319 104.794 109.743 104.794C99.3799 105.226 88.1531 107.241 79.0853 113.142C71.169 118.18 66.1314 125.233 64.4042 134.445C63.2527 140.058 63.8284 145.671 67.1389 150.421C69.154 153.732 72.0326 156.466 75.3431 158.625ZM125.864 148.55C129.606 151.716 133.924 153.732 139.249 153.012C150.044 151.716 158.536 140.778 162.135 131.134C165.445 122.642 165.733 112.711 160.839 105.082C158.68 101.772 155.946 99.037 152.779 97.022C154.794 98.7492 156.521 100.764 157.961 103.067C162.998 110.84 162.566 120.627 159.4 129.263C155.946 138.763 147.166 149.701 136.515 151.141C132.484 151.573 128.886 150.421 125.864 148.55ZM147.741 93.7115C147.454 93.2797 147.454 92.8479 147.454 92.2722C147.597 90.9768 148.317 90.1132 149.325 89.5374C172.354 79.0303 202.004 82.7726 225.033 88.9617C240.722 93.1358 255.979 98.1734 271.092 104.075C283.614 108.968 295.848 114.294 308.227 119.619C348.816 137.467 378.034 150.565 423.805 135.596C426.252 134.732 429.274 133.437 431.145 131.278C431.865 130.558 432.585 129.407 432.441 128.543C432.153 127.536 430.57 126.96 429.706 126.672H429.562C429.562 127.536 428.842 128.543 428.267 129.263C426.54 131.278 423.373 132.717 420.926 133.581C375.299 148.694 346.081 135.452 305.348 117.604C293.114 112.279 280.735 106.809 268.213 102.06C253.244 96.3023 237.987 91.2646 222.299 87.0906C199.269 80.9015 169.619 77.0153 146.59 87.6663C145.438 88.0981 144.719 89.2496 144.719 90.401C144.575 91.6964 145.295 92.56 146.302 93.1357C146.734 93.2797 147.31 93.4236 147.741 93.7115ZM54.1849 175.321C55.6243 176.473 57.0636 177.48 58.6468 178.488C65.9874 182.806 74.3355 186.404 82.3958 189.427C88.5849 191.874 94.774 194.465 100.531 197.487C101.683 198.063 102.69 198.639 103.842 199.358C101.971 197.775 99.9556 196.48 97.7966 195.328C91.8954 192.306 85.7062 189.715 79.5171 187.268C71.6008 184.101 63.2527 180.647 55.9121 176.329C55.3364 176.041 54.7607 175.609 54.1849 175.321ZM36.3372 243.114C32.595 239.66 31.1556 234.766 32.3071 228.865C32.595 227.281 33.1707 225.554 33.7464 223.971C34.0343 223.251 34.3222 222.244 34.4661 221.38C34.61 221.092 34.61 220.948 34.61 220.804C35.4736 218.645 36.0494 216.198 36.6251 213.896C36.913 212.024 36.769 210.297 35.3297 209.002C34.754 208.426 34.0343 207.994 33.1707 207.706C33.8904 208.714 34.0343 210.153 33.7464 211.593C33.3146 214.039 32.595 216.342 31.7314 218.501C31.5874 218.645 31.5874 218.789 31.5874 218.933C31.4435 219.797 31.0117 220.804 30.7238 221.524C30.1481 223.107 29.7163 224.69 29.4284 226.418C27.9891 234.046 30.436 239.66 36.3372 243.114ZM134.787 111.271C135.075 111.415 135.219 111.559 135.507 111.703C134.5 110.84 133.204 109.976 131.909 109.256C130.613 108.393 129.174 107.817 127.591 107.241C126.007 106.665 124.28 107.385 123.705 108.824C122.697 111.271 121.833 113.574 121.402 116.021C120.106 121.778 118.667 133.725 125.432 136.316C121.977 131.854 123.129 122.93 124.136 118.18C124.568 115.733 125.432 113.286 126.439 110.983C127.159 109.544 128.886 108.824 130.325 109.256C131.909 109.832 133.348 110.408 134.787 111.271ZM393.723 197.631C393.867 198.063 393.867 198.495 394.299 198.926C395.306 199.79 397.033 199.934 398.329 199.79C402.071 199.646 405.094 197.343 407.396 194.321C410.707 190.291 412.578 185.541 413.586 180.503C414.593 175.178 414.449 169.708 411.139 165.39C410.131 163.951 408.836 162.943 407.396 162.224C407.684 162.511 408.116 162.943 408.404 163.375C411.714 167.693 411.858 173.163 410.707 178.488C409.699 183.526 407.828 188.275 404.518 192.306C402.215 195.184 399.192 197.487 395.306 197.775C394.874 197.775 394.299 197.775 393.723 197.631ZM283.47 237.644C281.887 236.061 280.592 234.046 279.584 231.455C279.296 230.592 279.296 229.872 279.728 229.008C280.16 228.145 280.879 227.569 281.743 227.425C294.121 223.971 309.234 218.645 319.166 210.009C326.506 203.532 331.688 195.76 333.559 186.116C334.71 180.071 334.71 173.738 330.68 168.988C329.529 167.693 328.233 166.542 326.794 165.822C327.082 166.11 327.514 166.542 327.802 166.973C331.688 171.579 331.832 178.056 330.536 184.101C328.665 193.745 323.627 201.517 316.143 207.994C306.212 216.63 291.099 221.956 278.72 225.41C277.857 225.698 277.137 226.274 276.705 226.993C276.274 227.857 276.274 228.577 276.417 229.584C278.145 233.183 280.592 235.917 283.47 237.644ZM221.147 239.947L221.003 239.803C220.715 238.796 221.003 237.788 221.723 236.925C226.905 231.167 231.366 224.69 235.109 217.782C238.563 211.017 241.298 203.964 242.737 196.624C244.176 189.139 244.608 180.503 240.578 173.882C239.139 171.435 237.268 169.564 235.109 168.413C236.116 169.42 236.98 170.572 237.843 171.867C241.874 178.488 241.442 186.98 240.002 194.608C238.563 201.949 235.972 209.146 232.374 215.911C228.776 222.819 224.314 229.152 219.132 235.054C218.412 235.917 218.125 236.925 218.412 238.076C218.7 239.084 219.42 239.947 220.428 240.091C220.571 239.947 220.859 239.947 221.147 239.947ZM192.361 181.367C192.217 180.935 192.217 180.503 192.217 180.071C192.505 177.337 193.08 174.602 193.656 172.011C193.8 171.147 194.088 168.125 193.512 167.549C193.08 167.117 191.929 166.973 190.921 166.829C190.921 167.837 190.777 169.276 190.633 169.852C190.202 172.443 189.626 175.321 189.194 177.912C189.05 179.352 189.77 180.503 190.921 181.079C191.497 181.223 191.929 181.367 192.361 181.367ZM106.289 356.677C108.879 359.412 112.766 360.131 117.084 359.987C131.621 359.556 142.128 344.587 148.317 333.072C159.976 311.77 168.036 287.733 174.081 264.56C174.369 263.265 175.664 262.257 176.96 262.257C186.028 261.825 194.376 258.371 202.148 253.621C202.724 253.333 203.443 253.189 204.019 253.189C203.731 252.901 203.587 252.613 203.299 252.326C202.436 251.03 200.709 250.742 199.269 251.606C191.497 256.356 183.005 259.666 173.937 260.242C172.498 260.242 171.346 261.249 171.059 262.689C164.869 285.862 156.809 309.899 145.295 331.201C138.961 342.859 128.598 357.685 114.061 358.26C111.326 358.116 108.592 357.828 106.289 356.677ZM208.193 256.644C211.36 259.666 215.678 260.674 220.428 260.53C228.92 260.242 236.836 257.651 244.033 252.901C248.494 249.879 252.812 246.712 256.986 243.114C257.706 242.682 258.282 242.394 259.145 242.394C259.002 242.25 258.858 241.962 258.858 241.819C258.426 240.955 257.706 240.523 256.699 240.379C255.835 240.235 254.828 240.523 254.108 241.099C250.078 244.553 245.616 247.864 241.154 250.886C233.813 255.636 226.041 258.227 217.549 258.515C214.094 258.515 210.928 258.083 208.193 256.644ZM267.062 250.598C274.258 256.788 284.622 258.083 294.121 257.795C304.916 257.363 315.279 254.053 324.779 248.871C329.817 246.137 334.566 243.258 339.172 239.803C339.748 239.372 340.468 239.228 341.043 239.228C340.899 239.084 340.899 238.94 340.755 238.796C340.324 237.932 339.748 237.501 338.74 237.213C337.877 237.069 337.013 237.213 336.15 237.788C331.688 241.099 326.794 244.121 321.756 246.856C312.113 252.038 301.894 255.348 290.955 255.78C283.038 255.924 273.971 254.916 267.062 250.598ZM349.248 248.008C355.868 253.765 365.224 255.06 374.004 254.629C383.216 254.341 392.571 251.318 400.919 247.288C406.101 244.697 411.283 241.675 415.889 238.22C416.464 237.788 417.184 237.501 417.76 237.644C417.472 236.781 416.896 236.061 415.889 235.629C414.881 235.342 413.873 235.485 413.01 236.061C408.26 239.516 403.222 242.682 398.041 245.129C389.549 249.159 380.481 252.326 371.125 252.614C363.641 252.901 355.581 251.894 349.248 248.008ZM424.525 248.439C427.691 251.75 432.441 252.47 437.478 252.326C447.698 251.894 458.637 244.553 466.409 238.076C466.985 237.644 467.704 237.357 468.424 237.357L468.28 237.069C467.992 236.205 467.273 235.485 466.265 235.198C465.258 234.91 464.394 235.198 463.53 235.917C455.758 242.25 444.819 249.735 434.6 250.167C430.858 250.311 427.403 249.879 424.525 248.439ZM475.477 245.993C479.075 249.303 483.969 250.455 489.294 250.311C501.385 249.879 510.884 241.675 518.225 232.463C518.801 231.743 519.664 231.167 520.672 231.311C520.384 230.304 519.664 229.44 518.513 229.296C517.217 229.008 516.21 229.44 515.346 230.448C508.006 239.66 498.506 247.72 486.56 248.152C482.386 248.296 478.643 247.72 475.477 245.993ZM528.876 244.841C531.611 247.432 534.921 248.583 538.663 248.439C545.284 248.152 551.905 244.553 557.231 240.811C562.988 236.781 568.314 232.319 573.495 227.425C574.215 226.85 574.934 226.562 575.654 226.562C575.366 225.554 574.647 224.834 573.639 224.547C572.632 224.259 571.48 224.547 570.76 225.41C565.723 230.304 560.253 234.766 554.496 238.796C549.17 242.538 542.406 246.137 535.929 246.424C533.194 246.424 530.891 245.993 528.876 244.841ZM585.01 241.243C588.896 244.697 594.078 246.28 600.698 245.993C609.334 245.705 617.395 242.97 624.735 238.22C633.083 233.039 640.712 226.562 647.621 219.509L647.765 219.365C650.931 216.198 652.658 212.024 653.522 207.562C653.81 206.123 654.098 203.82 653.522 202.381C653.234 201.949 653.09 201.661 652.514 201.805C652.083 201.805 651.507 201.949 651.075 202.093C651.219 203.244 650.931 204.54 650.787 205.403C649.924 209.721 648.34 213.896 645.03 217.062C638.121 224.259 630.493 230.736 622.145 235.917C614.66 240.523 606.744 243.258 598.108 243.69C592.926 244.121 588.464 243.258 585.01 241.243ZM600.123 225.122C599.835 224.834 599.403 224.403 599.115 223.971C596.38 220.229 596.093 214.327 596.237 209.865C596.237 209.002 596.524 208.426 597.1 207.85C615.811 186.98 633.083 164.527 647.765 140.49C658.272 123.074 668.923 102.204 672.953 82.1969C674.392 74.7123 675.688 64.2052 672.665 57.0086C671.37 53.986 669.642 52.1149 667.339 50.9634C668.347 51.9709 669.211 53.4103 669.786 54.8496C672.809 62.0462 671.657 72.5533 670.074 80.0379C666.044 100.188 655.537 120.915 644.886 138.475C630.349 162.511 613.077 184.821 594.365 205.691C593.79 206.267 593.502 206.987 593.502 207.706C593.358 212.312 593.646 218.07 596.38 221.812C597.388 223.251 598.683 224.403 600.123 225.122ZM541.83 228.289C541.686 228.145 541.542 228.001 541.398 227.857C539.959 225.698 539.959 223.107 540.391 220.516C541.254 215.911 542.837 211.161 544.421 206.699C546.868 199.646 549.458 192.593 552.193 185.685C553.92 181.223 555.647 176.617 557.231 172.011C557.95 169.852 558.814 167.117 559.39 164.814C559.534 164.239 559.678 163.231 559.246 162.655C558.814 161.936 557.806 161.648 556.655 161.504C556.655 161.936 556.511 162.511 556.511 162.799C556.079 165.102 555.072 167.693 554.352 169.996C552.769 174.602 551.042 179.208 549.314 183.67C546.58 190.578 543.989 197.631 541.542 204.684C540.103 209.146 538.519 213.896 537.656 218.501C537.224 220.948 537.224 223.539 538.663 225.842C539.383 226.993 540.391 227.857 541.83 228.289ZM541.11 160.352C540.966 160.065 540.966 159.921 540.966 159.489C540.966 158.481 540.822 155.603 540.247 154.883C539.815 154.595 538.807 154.451 537.944 154.451C538.232 155.459 538.232 156.898 538.232 157.474C538.232 158.337 538.663 159.201 539.239 159.633C539.815 160.209 540.391 160.352 541.11 160.352ZM442.228 232.031C441.653 231.311 441.221 230.448 440.789 229.44C439.781 226.13 440.357 221.668 441.077 218.357C441.94 214.183 443.38 209.721 444.819 205.691C447.122 198.927 449.857 192.306 452.447 185.829C454.606 180.647 456.765 175.322 458.637 169.852C459.5 167.261 460.652 164.095 461.227 161.36C461.371 160.784 461.371 159.921 461.083 159.489C460.652 158.769 459.644 158.481 458.493 158.193C458.493 158.625 458.349 158.913 458.349 159.201C457.917 161.936 456.765 164.958 455.758 167.693C453.743 173.019 451.728 178.2 449.569 183.526C446.834 190.147 444.243 196.768 441.94 203.532C440.501 207.419 438.918 211.88 438.054 216.055C437.335 219.509 436.759 223.827 437.91 227.281C438.774 229.728 440.213 231.167 442.228 232.031ZM367.383 233.902C362.345 229.009 361.338 220.804 363.353 211.017C364.648 204.972 366.519 199.07 369.542 193.601C372.133 188.707 375.299 184.245 379.33 180.503C382.784 177.48 386.814 175.178 391.276 175.034C392.427 174.89 393.579 175.178 394.586 175.465L394.442 175.321C393.003 173.45 390.7 172.731 388.397 172.731C383.791 173.019 379.761 175.321 376.451 178.344C372.421 181.942 369.11 186.548 366.663 191.298C363.785 196.768 361.77 202.669 360.618 208.714C358.315 220.373 359.899 229.584 367.383 233.902ZM179.119 244.121C180.27 239.084 181.278 234.046 182.285 229.152C184.156 219.941 185.884 210.729 187.899 201.517C188.043 201.086 188.187 200.654 188.618 200.222C193.8 194.033 204.019 182.374 212.511 182.086C214.382 182.086 215.966 182.374 217.405 182.95C215.534 180.791 212.799 179.927 209.776 180.071C201.14 180.359 190.921 192.018 185.884 198.063C185.596 198.495 185.308 198.926 185.164 199.502C183.149 208.714 181.278 217.926 179.407 226.993C178.399 232.031 177.392 237.069 176.24 241.962C175.952 242.97 176.24 244.121 176.96 244.841C177.536 245.417 178.255 245.705 178.975 245.705C179.119 245.273 178.975 244.697 179.119 244.121ZM118.379 343.003C117.659 341.996 117.228 340.844 116.94 339.549C116.076 335.951 116.652 331.489 117.371 327.746C119.53 316.376 124.424 304.717 129.318 294.21C135.939 279.961 143.711 266.143 151.915 252.614C152.491 251.606 153.499 251.03 154.65 251.03C154.362 250.167 153.787 249.447 152.779 249.159C151.34 248.583 149.9 249.159 149.037 250.455C140.833 263.84 133.204 277.802 126.583 292.051C121.69 302.558 116.796 314.361 114.493 325.731C113.773 329.33 113.197 333.792 114.061 337.39C114.637 339.981 115.932 342.428 118.379 343.003ZM307.363 178.344C309.09 178.2 310.674 178.488 312.113 179.208C310.242 177.049 307.507 176.185 304.484 176.185C297.144 176.473 291.386 181.511 287.069 187.124C281.599 194.033 278.433 202.237 276.705 210.873L276.561 211.305C276.274 212.312 276.705 213.32 277.425 214.039C278.001 214.471 278.72 214.759 279.44 214.759C279.296 214.327 279.296 213.896 279.296 213.32L279.44 212.888C281.167 204.396 284.478 196.192 289.803 189.139C294.265 183.526 300.022 178.488 307.363 178.344ZM492.893 231.455C492.605 231.167 492.317 230.736 492.029 230.304C489.87 226.85 490.158 222.244 491.021 218.357C492.605 210.009 495.915 201.949 500.233 194.608C504.551 187.556 509.877 181.223 516.354 176.041C522.111 171.579 528.588 168.557 535.785 168.125H535.929C535.785 167.837 535.641 167.405 535.497 167.261C534.777 166.398 533.914 165.966 532.906 165.966C525.709 166.398 519.232 169.564 513.475 174.026C506.998 179.064 501.673 185.397 497.355 192.45C492.893 199.934 489.726 207.85 487.999 216.342C487.279 220.229 486.991 224.834 489.15 228.289C490.158 229.728 491.453 230.88 492.893 231.455ZM652.514 65.0688C653.234 64.9249 654.098 65.2128 654.817 65.3567C654.241 64.637 653.522 64.0613 652.802 63.6295C651.795 63.0538 650.787 62.9098 649.636 62.9098C642.727 63.1977 635.242 77.591 632.508 82.7726C624.879 97.0219 618.546 112.423 612.789 127.536C606.6 144.232 601.274 161.216 597.676 178.488C597.388 179.927 597.964 181.223 599.259 181.798C599.691 181.942 600.123 182.086 600.555 182.086C600.411 181.655 600.411 181.079 600.411 180.503C604.153 163.231 609.478 146.247 615.524 129.551C621.137 114.438 627.47 99.181 635.242 84.7877C638.121 79.6061 645.462 65.2128 652.514 65.0688ZM461.659 137.755C466.697 137.611 471.447 136.172 475.477 132.861C479.363 129.695 481.522 125.665 482.53 120.915C483.105 118.036 482.961 115.014 480.658 112.999C479.939 112.423 479.219 111.991 478.499 111.559C480.083 113.574 480.083 116.165 479.651 118.756C478.787 123.65 476.484 127.536 472.598 130.702C468.568 134.013 463.962 135.308 458.924 135.596C456.622 135.74 453.599 135.596 451.296 134.588C451.44 134.732 451.44 134.876 451.584 135.02C453.887 137.467 458.493 137.755 461.659 137.755Z" fill="#C8C9C9"/>
<path d="M286.637 357.972C280.304 358.404 274.546 357.685 269.653 355.669C264.759 353.654 260.873 350.632 257.994 346.602C255.115 342.572 253.388 337.822 253.1 332.352C252.525 325.156 253.676 318.391 256.699 312.346C259.721 306.301 263.895 301.407 269.797 297.665C275.554 293.922 282.175 291.763 289.947 291.188C296.28 290.756 302.038 291.475 306.931 293.49C311.825 295.506 315.711 298.528 318.59 302.558C321.469 306.588 323.196 311.338 323.484 316.808C324.059 324.004 322.908 330.769 319.885 336.814C316.863 342.859 312.689 347.753 306.787 351.495C301.03 355.238 294.409 357.397 286.637 357.972ZM287.069 342.859C291.099 342.572 294.553 341.276 297.432 338.973C300.31 336.67 302.469 333.792 303.909 330.481C305.348 327.027 305.78 323.141 305.492 319.111C305.204 314.793 303.621 311.482 300.886 309.035C298.008 306.588 294.265 305.581 289.515 306.013C285.485 306.3 282.031 307.596 279.152 309.899C276.274 312.202 274.115 315.08 272.675 318.535C271.236 321.989 270.804 325.731 271.092 329.762C271.38 334.08 272.963 337.39 275.842 339.837C278.577 342.284 282.319 343.291 287.069 342.859ZM353.278 301.551L351.551 315.8L379.618 313.641L377.89 327.747L349.967 329.906L347.233 352.071L329.241 353.367L337.157 288.741L386.958 284.998L385.231 299.104L353.278 301.551ZM411.427 297.089L409.699 311.338L437.766 309.179L436.039 323.285L408.116 325.444L405.382 347.609L387.39 348.905L395.306 284.279L444.963 280.537L443.236 294.786L411.427 297.089ZM469.576 292.771L468.28 303.71L496.635 301.551L495.052 315.224L466.697 317.383L465.258 329.186L498.65 326.739L496.779 340.844L445.827 344.731L453.743 280.105L503.4 276.362L501.673 290.468L469.576 292.771ZM568.889 291.619C569.321 297.521 568.17 302.558 565.435 307.02C562.7 311.482 558.67 314.936 553.201 317.239L565.435 335.519L546.58 336.958L535.785 320.694L526.717 321.413L524.702 338.541L506.71 339.981L514.627 275.355L541.686 273.34C549.89 272.764 556.223 274.06 560.973 277.226C565.867 280.536 568.458 285.286 568.889 291.619ZM550.898 294.786C550.754 292.195 549.746 290.324 547.875 289.172C546.004 288.021 543.557 287.445 540.391 287.733L531.035 288.453L528.588 307.452L539.383 306.588C543.269 306.301 546.292 305.149 548.307 302.99C550.322 300.975 551.186 298.24 550.898 294.786Z" fill="#FEFEFE"/>
<path d="M603.145 45.7818C613.077 47.6529 622.001 50.2437 629.485 53.2663C630.061 53.4103 630.637 53.6981 631.212 53.986L628.19 57.1525L628.046 57.0086C620.849 54.1299 612.213 51.5391 602.426 49.668C587.601 46.7893 573.495 46.0697 562.7 47.2211L561.837 47.3651C561.117 46.0697 560.397 44.7743 559.534 43.4789C560.397 43.3349 561.405 43.335 562.268 43.191C573.495 42.1835 587.888 42.9032 603.145 45.7818ZM651.363 68.3793C652.514 70.5383 652.946 72.5533 652.658 74.5684C652.514 75.0002 652.37 75.5759 652.226 76.0077C650.067 81.4772 641.719 84.9316 629.917 86.083C618.69 87.3784 604.153 86.5149 589.04 83.6362C579.252 81.7651 570.185 79.1743 562.7 76.1517C555.36 73.273 549.314 69.9625 545.284 66.5082C540.966 62.7659 538.807 58.7358 539.527 54.9935C539.671 54.5617 539.671 53.986 539.959 53.5542C540.822 51.3952 542.55 49.668 545.14 48.0848C546.436 48.8044 547.299 49.9559 548.019 51.1073C545.86 52.1149 544.277 53.5542 543.701 54.9935C543.557 55.2814 543.557 55.4253 543.557 55.7132C543.125 58.0161 544.709 60.6069 548.019 63.3416C551.617 66.5082 557.231 69.5308 564.139 72.4094C571.48 75.2881 580.116 77.8789 589.76 79.75C604.441 82.6287 618.546 83.3483 629.485 82.1969C639.704 81.1893 646.901 78.4546 648.34 74.5684C648.484 74.4245 648.484 74.1366 648.628 73.8487C648.772 72.8412 648.628 71.8337 648.196 70.8261C649.348 69.5307 650.355 68.6672 651.363 68.3793Z" fill="#636865"/>
<path d="M355.725 419C357.02 419 358.171 417.849 358.171 416.553C358.171 415.258 357.02 414.106 355.725 414.106C354.429 414.106 353.278 415.258 353.278 416.553C353.278 417.849 354.285 419 355.725 419Z" fill="#F0F1F1"/>
<path d="M353.278 383.736C353.278 385.032 354.429 386.183 355.725 386.183C357.02 386.183 358.171 385.032 358.171 383.736C358.171 382.441 357.308 381.434 356.012 381.29H355.437C354.141 381.577 353.278 382.585 353.278 383.736Z" fill="#F0F1F1"/>
<path d="M358.171 400.145C358.171 398.849 357.02 397.698 355.725 397.698C354.429 397.698 353.278 398.849 353.278 400.145C353.278 401.44 354.429 402.592 355.725 402.592C357.02 402.592 358.171 401.584 358.171 400.145Z" fill="#F0F1F1"/>
<path d="M385.95 416.553C385.95 417.849 387.102 419 388.397 419C389.693 419 390.844 417.849 390.844 416.553C390.844 415.258 389.693 414.106 388.397 414.106C387.102 414.106 385.95 415.114 385.95 416.553Z" fill="#F0F1F1"/>
<path d="M369.542 416.553C369.542 417.849 370.694 419 371.989 419C373.284 419 374.436 417.849 374.436 416.553C374.436 415.258 373.284 414.106 371.989 414.106C370.694 414.106 369.542 415.114 369.542 416.553Z" fill="#F0F1F1"/>
<path d="M385.95 383.736C385.95 385.032 387.102 386.183 388.397 386.183C389.693 386.183 390.844 385.032 390.844 383.736C390.844 382.441 389.981 381.434 388.685 381.29H388.109C386.958 381.577 385.95 382.585 385.95 383.736Z" fill="#F0F1F1"/>
<path d="M369.542 383.736C369.542 385.032 370.694 386.183 371.989 386.183C373.284 386.183 374.436 385.032 374.436 383.736C374.436 382.441 373.572 381.434 372.277 381.29H371.701C370.55 381.577 369.542 382.585 369.542 383.736Z" fill="#F0F1F1"/>
<path d="M390.844 400.145C390.844 398.849 389.693 397.698 388.397 397.698C387.102 397.698 385.95 398.849 385.95 400.145C385.95 401.44 387.102 402.592 388.397 402.592C389.837 402.592 390.844 401.584 390.844 400.145Z" fill="#F0F1F1"/>
<path d="M374.58 400.145C374.58 398.849 373.428 397.698 372.133 397.698C370.838 397.698 369.686 398.849 369.686 400.145C369.686 401.44 370.838 402.592 372.133 402.592C373.428 402.592 374.58 401.584 374.58 400.145Z" fill="#F0F1F1"/>
<path d="M418.623 416.553C418.623 417.849 419.775 419 421.07 419C422.366 419 423.517 417.849 423.517 416.553C423.517 415.258 422.366 414.106 421.07 414.106C419.775 414.106 418.623 415.114 418.623 416.553Z" fill="#F0F1F1"/>
<path d="M402.359 416.553C402.359 417.849 403.51 419 404.806 419C406.101 419 407.253 417.849 407.253 416.553C407.253 415.258 406.101 414.106 404.806 414.106C403.366 414.106 402.359 415.114 402.359 416.553Z" fill="#F0F1F1"/>
<path d="M418.623 383.736C418.623 385.032 419.775 386.183 421.07 386.183C422.366 386.183 423.517 385.032 423.517 383.736C423.517 382.441 422.653 381.434 421.358 381.29H420.782C419.631 381.577 418.623 382.585 418.623 383.736Z" fill="#F0F1F1"/>
<path d="M402.359 383.736C402.359 385.032 403.51 386.183 404.806 386.183C406.101 386.183 407.253 385.032 407.253 383.736C407.253 382.441 406.389 381.434 405.094 381.29H404.518C403.222 381.577 402.359 382.585 402.359 383.736Z" fill="#F0F1F1"/>
<path d="M423.661 400.145C423.661 398.849 422.509 397.698 421.214 397.698C419.919 397.698 418.767 398.849 418.767 400.145C418.767 401.44 419.919 402.592 421.214 402.592C422.509 402.592 423.661 401.584 423.661 400.145Z" fill="#F0F1F1"/>
<path d="M407.253 400.145C407.253 398.849 406.101 397.698 404.806 397.698C403.51 397.698 402.359 398.849 402.359 400.145C402.359 401.44 403.51 402.592 404.806 402.592C406.101 402.592 407.253 401.584 407.253 400.145Z" fill="#F0F1F1"/>
<path d="M451.44 416.553C451.44 417.849 452.591 419 453.887 419C455.182 419 456.334 417.849 456.334 416.553C456.334 415.258 455.182 414.106 453.887 414.106C452.447 414.106 451.44 415.114 451.44 416.553Z" fill="#F0F1F1"/>
<path d="M435.032 416.553C435.032 417.849 436.183 419 437.478 419C438.774 419 439.925 417.849 439.925 416.553C439.925 415.258 438.774 414.106 437.478 414.106C436.183 414.106 435.032 415.114 435.032 416.553Z" fill="#F0F1F1"/>
<path d="M451.44 383.736C451.44 385.032 452.591 386.183 453.887 386.183C455.182 386.183 456.334 385.032 456.334 383.736C456.334 382.441 455.47 381.434 454.175 381.29H453.599C452.304 381.577 451.44 382.585 451.44 383.736Z" fill="#F0F1F1"/>
<path d="M435.032 383.736C435.032 385.032 436.183 386.183 437.478 386.183C438.774 386.183 439.925 385.032 439.925 383.736C439.925 382.441 439.062 381.434 437.766 381.29H437.191C436.039 381.577 435.032 382.585 435.032 383.736Z" fill="#F0F1F1"/>
<path d="M456.334 400.145C456.334 398.849 455.182 397.698 453.887 397.698C452.591 397.698 451.44 398.849 451.44 400.145C451.44 401.44 452.591 402.592 453.887 402.592C455.182 402.592 456.334 401.584 456.334 400.145Z" fill="#F0F1F1"/>
<path d="M439.925 400.145C439.925 398.849 438.774 397.698 437.478 397.698C436.183 397.698 435.032 398.849 435.032 400.145C435.032 401.44 436.183 402.592 437.478 402.592C438.918 402.592 439.925 401.584 439.925 400.145Z" fill="#F0F1F1"/>
<path d="M484.113 416.553C484.113 417.849 485.264 419 486.56 419C487.855 419 489.006 417.849 489.006 416.553C489.006 415.258 487.855 414.106 486.56 414.106C485.264 414.106 484.113 415.114 484.113 416.553Z" fill="#F0F1F1"/>
<path d="M467.848 416.553C467.848 417.849 469 419 470.295 419C471.591 419 472.742 417.849 472.742 416.553C472.742 415.258 471.591 414.106 470.295 414.106C468.856 414.106 467.848 415.114 467.848 416.553Z" fill="#F0F1F1"/>
<path d="M484.113 383.736C484.113 385.032 485.264 386.183 486.56 386.183C487.855 386.183 489.006 385.032 489.006 383.736C489.006 382.441 488.143 381.434 486.847 381.29H486.272C485.12 381.577 484.113 382.585 484.113 383.736Z" fill="#F0F1F1"/>
<path d="M467.848 383.736C467.848 385.032 469 386.183 470.295 386.183C471.591 386.183 472.742 385.032 472.742 383.736C472.742 382.441 471.878 381.434 470.583 381.29H470.007C468.712 381.577 467.848 382.585 467.848 383.736Z" fill="#F0F1F1"/>
<path d="M489.006 400.145C489.006 398.849 487.855 397.698 486.56 397.698C485.264 397.698 484.113 398.849 484.113 400.145C484.113 401.44 485.264 402.592 486.56 402.592C487.999 402.592 489.006 401.584 489.006 400.145Z" fill="#F0F1F1"/>
<path d="M472.742 400.145C472.742 398.849 471.591 397.698 470.295 397.698C469 397.698 467.848 398.849 467.848 400.145C467.848 401.44 469 402.592 470.295 402.592C471.591 402.592 472.742 401.584 472.742 400.145Z" fill="#F0F1F1"/>
<path d="M516.929 416.553C516.929 417.849 518.081 419 519.376 419C520.672 419 521.823 417.849 521.823 416.553C521.823 415.258 520.672 414.106 519.376 414.106C517.937 414.106 516.929 415.114 516.929 416.553Z" fill="#F0F1F1"/>
<path d="M500.521 416.553C500.521 417.849 501.673 419 502.968 419C504.263 419 505.415 417.849 505.415 416.553C505.415 415.258 504.263 414.106 502.968 414.106C501.673 414.106 500.521 415.114 500.521 416.553Z" fill="#F0F1F1"/>
<path d="M516.929 383.736C516.929 385.032 518.081 386.183 519.376 386.183C520.672 386.183 521.823 385.032 521.823 383.736C521.823 382.441 520.96 381.434 519.664 381.29H519.088C517.793 381.577 516.929 382.585 516.929 383.736Z" fill="#F0F1F1"/>
<path d="M500.521 383.736C500.521 385.032 501.673 386.183 502.968 386.183C504.263 386.183 505.415 385.032 505.415 383.736C505.415 382.441 504.551 381.434 503.256 381.29H502.68C501.385 381.577 500.521 382.585 500.521 383.736Z" fill="#F0F1F1"/>
<path d="M521.823 400.145C521.823 398.849 520.672 397.698 519.376 397.698C518.081 397.698 516.929 398.849 516.929 400.145C516.929 401.44 518.081 402.592 519.376 402.592C520.672 402.592 521.823 401.584 521.823 400.145Z" fill="#F0F1F1"/>
<path d="M505.415 400.145C505.415 398.849 504.263 397.698 502.968 397.698C501.673 397.698 500.521 398.849 500.521 400.145C500.521 401.44 501.673 402.592 502.968 402.592C504.263 402.592 505.415 401.584 505.415 400.145Z" fill="#F0F1F1"/>
<path d="M208.481 47.6529C209.777 47.6529 210.928 46.5015 210.928 45.2061C210.928 43.9107 209.777 42.7592 208.481 42.7592C207.186 42.7592 206.034 43.9107 206.034 45.2061C206.034 46.5015 207.042 47.6529 208.481 47.6529Z" fill="#F0F1F1"/>
<path d="M206.034 12.5333C206.034 13.8287 207.186 14.9802 208.481 14.9802C209.776 14.9802 210.928 13.8287 210.928 12.5333C210.928 11.2379 210.064 10.2304 208.769 10.0864H208.193C206.898 10.2304 206.034 11.2379 206.034 12.5333Z" fill="#F0F1F1"/>
<path d="M210.928 28.7977C210.928 27.5023 209.777 26.3509 208.481 26.3509C207.186 26.3509 206.034 27.5023 206.034 28.7977C206.034 30.0931 207.186 31.2446 208.481 31.2446C209.777 31.2446 210.928 30.237 210.928 28.7977Z" fill="#F0F1F1"/>
<path d="M238.707 45.2061C238.707 46.5015 239.858 47.6529 241.154 47.6529C242.449 47.6529 243.601 46.5015 243.601 45.2061C243.601 43.9107 242.449 42.7592 241.154 42.7592C239.858 42.7592 238.707 43.9107 238.707 45.2061Z" fill="#F0F1F1"/>
<path d="M222.299 45.2061C222.299 46.5015 223.45 47.6529 224.746 47.6529C226.041 47.6529 227.192 46.5015 227.192 45.2061C227.192 43.9107 226.041 42.7592 224.746 42.7592C223.45 42.7592 222.299 43.9107 222.299 45.2061Z" fill="#F0F1F1"/>
<path d="M238.707 12.5333C238.707 13.8287 239.858 14.9802 241.154 14.9802C242.449 14.9802 243.601 13.8287 243.601 12.5333C243.601 11.2379 242.737 10.2304 241.442 10.0864H240.866C239.715 10.2304 238.707 11.2379 238.707 12.5333Z" fill="#F0F1F1"/>
<path d="M222.299 12.5333C222.299 13.8287 223.45 14.9802 224.746 14.9802C226.041 14.9802 227.192 13.8287 227.192 12.5333C227.192 11.2379 226.329 10.2304 225.033 10.0864H224.458C223.306 10.2304 222.299 11.2379 222.299 12.5333Z" fill="#F0F1F1"/>
<path d="M243.601 28.7977C243.601 27.5023 242.449 26.3509 241.154 26.3509C239.858 26.3509 238.707 27.5023 238.707 28.7977C238.707 30.0931 239.858 31.2446 241.154 31.2446C242.593 31.2446 243.601 30.237 243.601 28.7977Z" fill="#F0F1F1"/>
<path d="M227.192 28.7977C227.192 27.5023 226.041 26.3509 224.746 26.3509C223.45 26.3509 222.299 27.5023 222.299 28.7977C222.299 30.0931 223.45 31.2446 224.746 31.2446C226.185 31.2446 227.192 30.237 227.192 28.7977Z" fill="#F0F1F1"/>
<path d="M271.38 45.2061C271.38 46.5015 272.531 47.6529 273.827 47.6529C275.122 47.6529 276.274 46.5015 276.274 45.2061C276.274 43.9107 275.122 42.7592 273.827 42.7592C272.531 42.7592 271.38 43.9107 271.38 45.2061Z" fill="#F0F1F1"/>
<path d="M255.115 45.2061C255.115 46.5015 256.267 47.6529 257.562 47.6529C258.858 47.6529 260.009 46.5015 260.009 45.2061C260.009 43.9107 258.858 42.7592 257.562 42.7592C256.123 42.7592 255.115 43.9107 255.115 45.2061Z" fill="#F0F1F1"/>
<path d="M271.38 12.5333C271.38 13.8287 272.531 14.9802 273.827 14.9802C275.122 14.9802 276.274 13.8287 276.274 12.5333C276.274 11.2379 275.41 10.2304 274.115 10.0864H273.539C272.387 10.2304 271.38 11.2379 271.38 12.5333Z" fill="#F0F1F1"/>
<path d="M255.115 12.5333C255.115 13.8287 256.267 14.9802 257.562 14.9802C258.858 14.9802 260.009 13.8287 260.009 12.5333C260.009 11.2379 259.146 10.2304 257.85 10.0864H257.274C255.979 10.2304 255.115 11.2379 255.115 12.5333Z" fill="#F0F1F1"/>
<path d="M276.274 28.7977C276.274 27.5023 275.122 26.3509 273.827 26.3509C272.531 26.3509 271.38 27.5023 271.38 28.7977C271.38 30.0931 272.531 31.2446 273.827 31.2446C275.266 31.2446 276.274 30.237 276.274 28.7977Z" fill="#F0F1F1"/>
<path d="M260.009 28.7977C260.009 27.5023 258.858 26.3509 257.562 26.3509C256.267 26.3509 255.115 27.5023 255.115 28.7977C255.115 30.0931 256.267 31.2446 257.562 31.2446C258.858 31.2446 260.009 30.237 260.009 28.7977Z" fill="#F0F1F1"/>
<path d="M304.197 45.2061C304.197 46.5015 305.348 47.6529 306.643 47.6529C307.939 47.6529 309.09 46.5015 309.09 45.2061C309.09 43.9107 307.939 42.7592 306.643 42.7592C305.204 42.7592 304.197 43.9107 304.197 45.2061Z" fill="#F0F1F1"/>
<path d="M287.788 45.2061C287.788 46.5015 288.94 47.6529 290.235 47.6529C291.53 47.6529 292.682 46.5015 292.682 45.2061C292.682 43.9107 291.53 42.7592 290.235 42.7592C288.94 42.7592 287.788 43.9107 287.788 45.2061Z" fill="#F0F1F1"/>
<path d="M304.197 12.5333C304.197 13.8287 305.348 14.9802 306.643 14.9802C307.939 14.9802 309.09 13.8287 309.09 12.5333C309.09 11.2379 308.227 10.2304 306.931 10.0864H306.356C305.06 10.2304 304.197 11.2379 304.197 12.5333Z" fill="#F0F1F1"/>
<path d="M287.788 12.5333C287.788 13.8287 288.94 14.9802 290.235 14.9802C291.53 14.9802 292.682 13.8287 292.682 12.5333C292.682 11.2379 291.818 10.2304 290.523 10.0864H289.947C288.796 10.2304 287.788 11.2379 287.788 12.5333Z" fill="#F0F1F1"/>
<path d="M309.09 28.7977C309.09 27.5023 307.939 26.3509 306.643 26.3509C305.348 26.3509 304.197 27.5023 304.197 28.7977C304.197 30.0931 305.348 31.2446 306.643 31.2446C307.939 31.2446 309.09 30.237 309.09 28.7977Z" fill="#F0F1F1"/>
<path d="M292.682 28.7977C292.682 27.5023 291.53 26.3509 290.235 26.3509C288.94 26.3509 287.788 27.5023 287.788 28.7977C287.788 30.0931 288.94 31.2446 290.235 31.2446C291.674 31.2446 292.682 30.237 292.682 28.7977Z" fill="#F0F1F1"/>
<path d="M336.869 45.2061C336.869 46.5015 338.021 47.6529 339.316 47.6529C340.612 47.6529 341.763 46.5015 341.763 45.2061C341.763 43.9107 340.612 42.7592 339.316 42.7592C338.021 42.7592 336.869 43.9107 336.869 45.2061Z" fill="#F0F1F1"/>
<path d="M320.461 45.2061C320.461 46.5015 321.612 47.6529 322.908 47.6529C324.203 47.6529 325.355 46.5015 325.355 45.2061C325.355 43.9107 324.203 42.7592 322.908 42.7592C321.612 42.7592 320.461 43.9107 320.461 45.2061Z" fill="#F0F1F1"/>
<path d="M336.869 12.5333C336.869 13.8287 338.021 14.9802 339.316 14.9802C340.612 14.9802 341.763 13.8287 341.763 12.5333C341.763 11.2379 340.899 10.2304 339.604 10.0864H339.028C337.877 10.2304 336.869 11.2379 336.869 12.5333Z" fill="#F0F1F1"/>
<path d="M320.461 12.5333C320.461 13.8287 321.612 14.9802 322.908 14.9802C324.203 14.9802 325.355 13.8287 325.355 12.5333C325.355 11.2379 324.491 10.2304 323.196 10.0864H322.62C321.468 10.2304 320.461 11.2379 320.461 12.5333Z" fill="#F0F1F1"/>
<path d="M341.763 28.7977C341.763 27.5023 340.612 26.3509 339.316 26.3509C338.021 26.3509 336.869 27.5023 336.869 28.7977C336.869 30.0931 338.021 31.2446 339.316 31.2446C340.755 31.2446 341.763 30.237 341.763 28.7977Z" fill="#F0F1F1"/>
<path d="M325.499 28.7977C325.499 27.5023 324.347 26.3509 323.052 26.3509C321.756 26.3509 320.605 27.5023 320.605 28.7977C320.605 30.0931 321.756 31.2446 323.052 31.2446C324.347 31.2446 325.499 30.237 325.499 28.7977Z" fill="#F0F1F1"/>
<path d="M369.542 45.2061C369.542 46.5015 370.694 47.6529 371.989 47.6529C373.284 47.6529 374.436 46.5015 374.436 45.2061C374.436 43.9107 373.284 42.7592 371.989 42.7592C370.694 42.7592 369.542 43.9107 369.542 45.2061Z" fill="#F0F1F1"/>
<path d="M353.278 45.2061C353.278 46.5015 354.429 47.6529 355.725 47.6529C357.02 47.6529 358.171 46.5015 358.171 45.2061C358.171 43.9107 357.02 42.7592 355.725 42.7592C354.285 42.7592 353.278 43.9107 353.278 45.2061Z" fill="#F0F1F1"/>
<path d="M369.542 12.5333C369.542 13.8287 370.694 14.9802 371.989 14.9802C373.284 14.9802 374.436 13.8287 374.436 12.5333C374.436 11.2379 373.572 10.2304 372.277 10.0864H371.701C370.55 10.2304 369.542 11.2379 369.542 12.5333Z" fill="#F0F1F1"/>
<path d="M353.278 12.5333C353.278 13.8287 354.429 14.9802 355.725 14.9802C357.02 14.9802 358.171 13.8287 358.171 12.5333C358.171 11.2379 357.308 10.2304 356.012 10.0864H355.437C354.141 10.2304 353.278 11.2379 353.278 12.5333Z" fill="#F0F1F1"/>
<path d="M374.58 28.7977C374.58 27.5023 373.428 26.3509 372.133 26.3509C370.838 26.3509 369.686 27.5023 369.686 28.7977C369.686 30.0931 370.838 31.2446 372.133 31.2446C373.428 31.2446 374.58 30.237 374.58 28.7977Z" fill="#F0F1F1"/>
<path d="M358.171 28.7977C358.171 27.5023 357.02 26.3509 355.725 26.3509C354.429 26.3509 353.278 27.5023 353.278 28.7977C353.278 30.0931 354.429 31.2446 355.725 31.2446C357.02 31.2446 358.171 30.237 358.171 28.7977Z" fill="#F0F1F1"/>
</svg>
