<svg xmlns="http://www.w3.org/2000/svg" xmlns:xlink="http://www.w3.org/1999/xlink" width="479" height="392.508" viewBox="0 0 479 392.508"><defs><linearGradient id="a" x1="1" y1="0.5" x2="0" y2="0.5" gradientUnits="objectBoundingBox"><stop offset="0" stop-color="#a26bf9"/><stop offset="1" stop-color="#a26bf9" stop-opacity="0"/></linearGradient><linearGradient id="b" x1="0.5" x2="0.5" y2="1" gradientUnits="objectBoundingBox"><stop offset="0" stop-color="#f99071"/><stop offset="1" stop-color="#f99071"/></linearGradient><linearGradient id="c" x1="0.5" x2="0.5" y2="1" gradientUnits="objectBoundingBox"><stop offset="0" stop-color="#7b43ff"/><stop offset="1" stop-color="#fc5c9c"/></linearGradient><linearGradient id="f" x1="0.5" y1="0.905" x2="0.596" gradientUnits="objectBoundingBox"><stop offset="0" stop-color="#1dd089"/><stop offset="1" stop-color="#6ce311"/></linearGradient><linearGradient id="g" x1="0.5" x2="0.5" y2="1" gradientUnits="objectBoundingBox"><stop offset="0" stop-color="#a18aff"/><stop offset="1" stop-color="#e259fc"/></linearGradient></defs><g transform="translate(-1306 -112)"><ellipse cx="239.5" cy="24.394" rx="239.5" ry="24.394" transform="translate(1306 455.721)" opacity="0.19" fill="url(#a)" style="mix-blend-mode:multiply;isolation:isolate"/><g transform="translate(1352.069 203.938)"><g transform="translate(25.957 217.271)"><path d="M239.3,246.9l20.391,52.485h-8.866L218.379,246.9Z" transform="translate(-156.752 -246.9)" fill="#18006b"/><path d="M274.812,246.9l-20.391,52.485h8.866L295.735,246.9Z" transform="translate(-254.421 -246.9)" fill="#18006b"/></g><g transform="translate(175.323 217.271)"><path d="M151.946,246.9l20.391,52.485h-8.866L131.023,246.9Z" transform="translate(-69.396 -246.9)" fill="#18006b"/><path d="M187.456,246.9l-20.391,52.485h8.866L208.379,246.9Z" transform="translate(-167.065 -246.9)" fill="#18006b"/></g><g transform="translate(24.797 139.733)"><path d="M0,0H202.379a0,0,0,0,1,0,0V68.362a13.2,13.2,0,0,1-13.2,13.2H13.2A13.2,13.2,0,0,1,0,68.361V0A0,0,0,0,1,0,0Z" transform="translate(0)" fill="#ffb849"/><path d="M0,0H102.941a0,0,0,0,1,0,0V68.362a13.2,13.2,0,0,1-13.2,13.2H13.2A13.2,13.2,0,0,1,0,68.361V0A0,0,0,0,1,0,0Z" transform="translate(150.526)" fill="#f99071"/></g><g transform="translate(71.986)"><path d="M135.861,262.628h155.7c5.749,0,11.249-8.8,13.142-21.021l14.007-90.477c2.507-16.191-2.259-31.3-9.873-31.3h-155.7c-5.748,0-11.247,8.8-13.14,21.023l-14.009,90.477C123.482,247.52,128.247,262.628,135.861,262.628Z" transform="translate(-103.349 -119.83)" fill="#fc815d"/><path d="M148.707,262.628h155.7c5.749,0,11.247-8.8,13.14-21.021l14.009-90.477c2.507-16.191-2.259-31.3-9.873-31.3h-155.7c-5.749,0-11.247,8.8-13.14,21.023l-14.009,90.477C136.327,247.52,141.095,262.628,148.707,262.628Z" transform="translate(-138.162 -119.83)" fill="url(#b)"/></g><g transform="translate(0 96.341)"><path d="M213.291,222.632H310.9A23.228,23.228,0,0,0,334.131,199.4h0A23.229,23.229,0,0,0,310.9,176.175l-97.819.215Z" transform="translate(-196.18 -176.175)" fill="#ffb849"/><ellipse cx="16.904" cy="23.121" rx="16.904" ry="23.121" transform="translate(0 0.216)" fill="#f9a21a"/></g></g><g transform="translate(1327.95 112)"><g transform="translate(127.555)"><path d="M249.706,121.113s13.677-17.186,10.2-31.47-12.413-6.468-20.664-12.477c-7.306-5.319-44.3-23.365-44.3,2.413s10.343,36.163,10.343,36.163Z" transform="translate(-194.948 -66.06)" fill="#09004d"/><g transform="translate(7.48 14.798)"><g transform="translate(1.359 1.408)"><path d="M219.418,147.529c.28-3.592.5-7.462-1.394-10.528-2.089-3.386-6.147-4.865-9.592-6.851a29.939,29.939,0,0,1-13.672-17.509,39.6,39.6,0,0,1-.766-16.279,118.164,118.164,0,0,1,3.743-15.972c19.55-7.322,35.784-6.568,48.1,3.705-4.3,13.171-8.642,26.527-9.42,40.361-.431,7.652,1.794,15.317,2.975,22.89a23.414,23.414,0,0,1,13.26,21.279c0,15.647-50.353,19.249-50.353.949C202.3,153.644,219.418,147.529,219.418,147.529Z" transform="translate(-193.506 -75.539)" fill="#e9ae8f"/><g transform="translate(5.118 20.237)"><g transform="translate(2.59 3.64)"><path d="M221.351,92.246c0,1.513.858,2.741,1.917,2.741s1.917-1.228,1.917-2.741-.858-2.743-1.917-2.743S221.351,90.731,221.351,92.246Z" transform="translate(-221.351 -89.503)" fill="#1b1b28"/><path d="M221.781,90.918c0,.564.32,1.021.715,1.021s.713-.457.713-1.021-.32-1.021-.713-1.021S221.781,90.354,221.781,90.918Z" transform="translate(-220.11 -89.223)" fill="#fff"/></g><g transform="translate(15.457 3.64)"><path d="M213.826,92.246c0,1.513.858,2.741,1.917,2.741s1.917-1.228,1.917-2.741S216.8,89.5,215.743,89.5,213.826,90.731,213.826,92.246Z" transform="translate(-213.826 -89.503)" fill="#1b1b28"/><path d="M214.256,90.918c0,.564.32,1.021.713,1.021s.713-.457.713-1.021-.318-1.021-.713-1.021S214.256,90.354,214.256,90.918Z" transform="translate(-212.584 -89.223)" fill="#fff"/></g><path d="M219.106,93.854a3.021,3.021,0,0,1,2.038-.089.622.622,0,0,1,.431.759.631.631,0,0,1-.759.431,3.29,3.29,0,0,0-.7-.1c-.058,0-.116.005-.173.005a.064.064,0,0,1-.019,0l-.026.009-.152.043a.149.149,0,0,1-.024.005l-.021.014c-.034.021-.067.041-.1.06-.014.014-.029.027-.043.043s-.009,0-.01,0l-.009.019c-.012.022-.043.089-.046.091-.014.043-.026.084-.036.128l-.01.027,0,.034c0,.106,0,.209.005.315l.007.05c.009.043.017.085.026.13a2.663,2.663,0,0,0,.082.282l.036.1.034.074a2.8,2.8,0,0,0,.157.28c.029.046.06.089.091.133l.012.019.005.005c.068.072.13.149.2.217.038.038.077.075.118.109.007.007.055.044.072.058.077.055.156.108.238.156a.618.618,0,1,1-.622,1.067,3.433,3.433,0,0,1-1.7-2.852A1.731,1.731,0,0,1,219.106,93.854Z" transform="translate(-209.817 -82.932)" fill="#c67f60"/><path d="M213.669,100.393a10.8,10.8,0,0,0,8.414-4.11.639.639,0,0,1,.845-.222.62.62,0,0,1,.221.845,12.091,12.091,0,0,1-9.479,4.723A.618.618,0,0,1,213.669,100.393Z" transform="translate(-202.663 -81.267)" fill="#c67f60"/><path d="M213.351,90.11a3.859,3.859,0,0,1,1.431-.877,5.275,5.275,0,0,1,1.833-.289,7.512,7.512,0,0,1,1.929.315c.32.1.634.224.952.333l.932.433.048.022a.619.619,0,0,0,.559-1.1l-.992-.549c-.349-.152-.694-.32-1.053-.457A8.95,8.95,0,0,0,216.7,87.4a6.869,6.869,0,0,0-2.43.212,5.432,5.432,0,0,0-2.281,1.243.926.926,0,0,0,1.253,1.364c.019-.017.038-.036.055-.055Z" transform="translate(-198.418 -87.374)" fill="#1b1b28"/><path d="M228.237,88.931a4.44,4.44,0,0,0-1.864-1.272,4.8,4.8,0,0,0-2.13-.258,6.291,6.291,0,0,0-1.953.563c-.294.147-.576.308-.858.467l-.788.544a.619.619,0,0,0,.655,1.048l.055-.031.73-.415c.25-.113.5-.229.749-.33a4.893,4.893,0,0,1,1.515-.3,3.159,3.159,0,0,1,1.385.289,2.758,2.758,0,0,1,1.019.8l.029.041a.927.927,0,0,0,1.518-1.064C228.28,88.984,228.258,88.956,228.237,88.931Z" transform="translate(-220.376 -87.374)" fill="#1b1b28"/></g></g><g transform="translate(0)"><path d="M243.19,111.072s-5.2-7.694-4.136-22.844c0,0-10.811,2.773-8.819-.639,0,0-11.023-5.263-17.851-.853s-17,7.325-16.073,2.56,4.266-10.028,4.266-10.028,5.619-4.552,28.377-4.552,23.114,10.1,23.114,10.1Z" transform="translate(-196.252 -74.715)" fill="#1b1b28"/><path d="M205.5,102.524s-1.636,12.584-3.329,12.584c-2.361,0,0-16.851,0-16.851Z" transform="translate(-158.001 -58.003)" fill="#09004d"/></g><g transform="translate(43.233 28.966)"><path d="M196.946,95.693c-3.069,3.914-3.16,8.966-.2,11.287s7.843,1.028,10.912-2.886,3.16-8.966.2-11.285S200.015,91.779,196.946,95.693Z" transform="translate(-194.583 -91.656)" fill="#e9ae8f"/><path d="M198.428,97.853c.111-.405.5-.655.805-.913l1.1-.939q1.1-.936,2.2-1.874c.6-.513,1.477.356.872.872-1.226,1.046-2.46,2.083-3.68,3.138l.015.021c.118.15.238.3.357.451l.761.956q.762.957,1.522,1.915a.634.634,0,0,1,0,.872.619.619,0,0,1-.872,0q-.9-1.126-1.792-2.252c-.282-.356-.566-.713-.85-1.069S198.294,98.33,198.428,97.853Z" transform="translate(-194.689 -90.012)" fill="#c67f60"/></g></g></g><g transform="translate(31.304 88.014)"><g transform="translate(26.843 13.323)"><path d="M291,143.578l-14.363,29.613-48.23-7.27-2.673,11.8s48.83,18.878,61.242,10.723,21.047-40.428,21.047-40.428Z" transform="translate(-225.737 -112.372)" fill="#e9ae8f"/><path d="M240.727,125.327s-15.495,20.918-20.932,32.029l22.223,6.621L251,135.843Z" transform="translate(-158.553 -125.327)" fill="url(#c)"/></g><path d="M207.307,117.718s-18.947,9-22.264,13.486-7.947,87.214-7.411,95.172c0,0,14.482,3.707,35.977,3.707s54.151-4.914,54.151-4.914-8.435-90.559-13.058-95.784-27.416-11.849-27.416-11.849S212.043,130.314,207.307,117.718Z" transform="translate(-76.305 -117.535)" fill="url(#c)"/><g transform="translate(0 25.889)"><path d="M207.266,180.242H307.333a4.367,4.367,0,0,0,4.369-4.367h0a4.369,4.369,0,0,0-4.369-4.369H207.266a4.369,4.369,0,0,0-4.369,4.369h0A4.367,4.367,0,0,0,207.266,180.242Z" transform="translate(-163.518 -105.113)" fill="#ff346b"/><g transform="translate(0)"><path d="M236.816,132.676h81.823a4.554,4.554,0,0,1,4.374,4.23l7.087,65.551a4.66,4.66,0,0,1-4.374,5.348H243.9a4.554,4.554,0,0,1-4.374-4.23l-7.087-65.551A4.66,4.66,0,0,1,236.816,132.676Z" transform="translate(-232.411 -132.676)" fill="#ff346b"/><path d="M257.614,158.594a9.169,9.169,0,0,0,8.746,7.727,6.51,6.51,0,0,0,6.542-7.727,9.168,9.168,0,0,0-8.744-7.725A6.511,6.511,0,0,0,257.614,158.594Z" transform="translate(-218.219 -119.762)" fill="#fff"/></g></g><g transform="translate(102.903 11.849)"><g transform="translate(0 29.312)"><path d="M216.443,147.445l4.6,27.32-49.115,9.4,2.083,14.043s54.2-1.706,63.066-10.926-4.153-45.672-4.153-45.672Z" transform="translate(-141.942 -141.608)" fill="#e9ae8f"/><path d="M208.384,168.7a32.465,32.465,0,0,1,6.111-5.463,10.618,10.618,0,0,1,5.114-2.141c2.024-.144,3.974.687,5.853,1.453,2.934,1.2,5.926,2.276,8.739,3.736a21.344,21.344,0,0,1,7.708,6.26,16.067,16.067,0,0,1,2.645,7.077l-.017.749a7.385,7.385,0,0,1-4.93,4.256,16.507,16.507,0,0,1-6.1.469,41.2,41.2,0,0,1-11.986-2.765c-1.011,1.111-2.331,2.329-3.794,1.99a3.935,3.935,0,0,1-2.149-1.814,22.424,22.424,0,0,1-3.874-11.186c-.043-.66.072-1.508.711-1.679a9.037,9.037,0,0,1-3.295.516c-.455-.014-1.019-.154-1.11-.6A1.085,1.085,0,0,1,208.384,168.7Z" transform="translate(-208.002 -127.785)" fill="#e9ae8f"/></g><path d="M185.464,124.465s15.372,20.918,20.809,32.031l-24.232,7.626-8.984-28.134Z" transform="translate(-109.97 -124.465)" fill="url(#c)"/></g></g><g transform="translate(0 189.032)"><g transform="translate(73.92 7.191)"><path d="M261.557,256.484s7.93,11.379,5.56,15.4-41.252,21.73-43.432,16.587,18.323-21.1,19.291-25.506l7.831-6.894Z" transform="translate(-197.26 -127.402)" fill="#d72323"/><path d="M307.443,218.256s-68.55,2.216-77.535,2.891L259.29,309.9l-18.581,6.485s-57.369-99.761-43.576-118.352,116.942-17.191,116.942-17.191Z" transform="translate(-194.993 -180.821)" fill="#172eda"/></g><path d="M328.178,240.566s-3.71,13.364-8.322,14.1-43.042-17.928-40.47-22.886,27.941.662,31.949-1.4l10.305,1.638Z" transform="translate(-279.262 -138.95)" fill="#d72323"/><path d="M368.277,183.23S361.8,218.2,335.166,221s-90.882-14.1-90.882-14.1l-49.851,71.33-16.844-10.18s35.551-82.827,58.662-88.822S344.659,178.833,368.277,183.23Z" transform="translate(-145.518 -176.615)" fill="#3242df"/></g></g><g transform="translate(1521.208 300.279)"><path d="M114.37,222.632h97.612A23.228,23.228,0,0,0,235.21,199.4h0a23.229,23.229,0,0,0-23.228-23.228l-97.819.215Z" transform="translate(-97.258 -176.175)" fill="#ffb849"/><ellipse cx="16.904" cy="23.121" rx="16.904" ry="23.121" transform="translate(0 0.216)" fill="#f9a21a"/></g><path d="M-3190.1,7532.727a1.032,1.032,0,0,1-.9-.755,37.732,37.732,0,0,0-9.7-15.735q-.153.048-.306.09a24.664,24.664,0,0,1-9.1.724c-3.218-.378-6.248-1.523-8.222-3.817-1.955-2.274-2.342-5.812-.365-8.067,1.823-2.078,5-2.586,7.88-2.556a10.873,10.873,0,0,1,8.625,4.165c1.641,2.053,3.01,5.04,2.762,7.659a39.817,39.817,0,0,1,8.665,12.12,190.631,190.631,0,0,0-7.869-41.575,4.66,4.66,0,0,1-2.667-1.03q-3.08-2.544-6.188-5.054a32.69,32.69,0,0,1-4.433-4.07,11.016,11.016,0,0,1-2.643-5.332,6.662,6.662,0,0,1,1.577-5.6c1.794-1.87,4.671-2.231,7.244-1.928a12.253,12.253,0,0,1,5.208,1.722,12.2,12.2,0,0,1,4.94,7.806,33.6,33.6,0,0,1,.289,9.445,4.705,4.705,0,0,1-1,3.2,2.641,2.641,0,0,1-.234.209,192.747,192.747,0,0,1,7.306,35.159q.88-8.875,1.771-17.75a205.668,205.668,0,0,1,4.046-27.084q1.086-4.562,2.611-8.987a2.956,2.956,0,0,1-1.046-.709,5.386,5.386,0,0,1-1.089-3.586,38.8,38.8,0,0,1,.312-10.595c.728-3.467,2.479-6.842,5.367-8.759a12.982,12.982,0,0,1,5.66-1.928c2.8-.342,5.921.061,7.87,2.159a7.647,7.647,0,0,1,1.715,6.282,12.509,12.509,0,0,1-2.874,5.982,36.052,36.052,0,0,1-4.817,4.567c-2.246,1.883-4.49,3.762-6.723,5.666a5.016,5.016,0,0,1-2.134,1.053c-5.547,15.622-6.392,32.676-8.02,49.033l-.3,2.98c3.028-11.413,6.959-22.654,13.555-32.309a3.722,3.722,0,0,1-.713-2.872,21.761,21.761,0,0,1,5.437-12.941,15.409,15.409,0,0,1,6.144-4.231,10.323,10.323,0,0,1,7.365.079,8.857,8.857,0,0,1,5.154,6.322c.953,4.825-2.533,8.226-6.345,10.5a32.443,32.443,0,0,1-7.7,3.459q-.749.213-1.514.371a15.243,15.243,0,0,1-5.914.371c-7.9,11.455-11.89,25.25-15.128,38.843a75.233,75.233,0,0,1,9.612-11.917,3.033,3.033,0,0,1-.089-.425c-.4-2.7,1.008-5.854,2.719-7.992a10.875,10.875,0,0,1,8.626-4.167c2.881-.03,6.059.48,7.88,2.556,1.978,2.255,1.59,5.794-.365,8.067-1.974,2.295-5,3.44-8.222,3.819a24.627,24.627,0,0,1-8.7-.62,73.378,73.378,0,0,0-12.733,17.1,1.048,1.048,0,0,1-.368.4.929.929,0,0,1-.137.179,1.008,1.008,0,0,1-.975.607A1.2,1.2,0,0,1-3190.1,7532.727Z" transform="translate(4893.18 -7167.239)" stroke="rgba(0,0,0,0)" stroke-miterlimit="10" stroke-width="1" fill="url(#f)"/><path d="M87.658,229.953c0-15.431-13.418-26.687-13.418-26.687h39.586s-13.42,11.256-13.42,26.687,35.56,93.93-6.373,93.93S87.658,245.385,87.658,229.953Z" transform="translate(1608.568 156.163)" fill="url(#g)"/></g></svg>