<svg xmlns="http://www.w3.org/2000/svg" width="18" height="15.296" viewBox="0 0 18 15.296">
  <path id="Path_1454" data-name="Path 1454" d="M627.264,404.535c.49-.332.962-.64,1.42-.967a1.871,1.871,0,0,1,2.051-.228,1.915,1.915,0,0,1,1.028,1.569,3.91,3.91,0,0,1,.039.632q0,2.989,0,5.977a2.918,2.918,0,0,1-.2,1.16,1.613,1.613,0,0,1-1.994.954,3.545,3.545,0,0,1-.989-.477c-.414-.274-.826-.55-1.262-.841a11.12,11.12,0,0,1-.134,1.163,2.781,2.781,0,0,1-1.991,2.338,5.691,5.691,0,0,1-1.224.22c-.641.05-1.282.031-1.923.032q-2.006,0-4.012,0a4.553,4.553,0,0,1-2.413-.582,3.809,3.809,0,0,1-1.783-2.778,5.832,5.832,0,0,1-.07-1q0-3.357,0-6.714a7.849,7.849,0,0,1,.184-1.847,2.8,2.8,0,0,1,2.319-2.218,7.775,7.775,0,0,1,1.627-.15q2.6-.005,5.2,0a7.466,7.466,0,0,1,1.7.176,2.871,2.871,0,0,1,2.3,2.463A9.527,9.527,0,0,1,627.264,404.535Zm-3.767,1.673a1.658,1.658,0,1,0-1.676,1.642A1.655,1.655,0,0,0,623.5,406.207Z" transform="translate(-613.803 -400.773)" fill="#a3a3a3"/>
</svg>
