<svg id="Group_5241" data-name="Group 5241" xmlns="http://www.w3.org/2000/svg" width="70" height="55.366" viewBox="0 0 70 55.366">
  <path id="Path_6369" data-name="Path 6369" d="M116.117,531.245l8.783-8.785,2.863-2.863,2.863,2.863L142.4,534.236l8.911-8.913L142.4,516.41l-6.032,6.033-5.725-5.727,8.895-8.9,2.863-2.865,2.863,2.865L159.9,522.461l2.863,2.863L159.9,528.19l-14.638,14.641-2.863,2.863-2.863-2.863-11.773-11.776-5.92,5.922Zm-.128-17.7-11.773,11.776,8.911,8.913,5.725,5.728-2.863,2.863-2.863,2.863-2.864-2.863L95.624,528.186l-2.863-2.865,2.863-2.863,14.638-14.641Z" transform="translate(-92.761 -504.955)" fill="#fff"/>
  <rect id="Rectangle_1814" data-name="Rectangle 1814" width="16.279" height="16.279" transform="translate(23.489 43.854) rotate(-45)" fill="#fff"/>
</svg>
