<svg xmlns="http://www.w3.org/2000/svg" xmlns:xlink="http://www.w3.org/1999/xlink" width="111.015" height="23.5" viewBox="0 0 111.015 23.5">
  <defs>
    <linearGradient id="linear-gradient" x1="0.504" y1="1.244" x2="0.495" y2="-0.399" gradientUnits="objectBoundingBox">
      <stop offset="0" stop-color="#5922c5"/>
      <stop offset="0.25" stop-color="#834eff"/>
      <stop offset="0.39" stop-color="#834eff"/>
      <stop offset="0.71" stop-color="#ef77fd"/>
      <stop offset="0.89" stop-color="#bb35f9"/>
      <stop offset="1" stop-color="#a81cf8"/>
    </linearGradient>
    <linearGradient id="linear-gradient-2" y1="1" x2="1" gradientUnits="objectBoundingBox">
      <stop offset="0" stop-color="#fc5469"/>
      <stop offset="1" stop-color="#fcaf17"/>
    </linearGradient>
  </defs>
  <g id="Group_5244" data-name="Group 5244" transform="translate(-565 -23)">
    <g id="Group_5241" data-name="Group 5241" transform="translate(565 23)">
      <path id="Path_6369" data-name="Path 6369" d="M102.674,516.111l3.728-3.728,1.215-1.215,1.215,1.215,5,5,3.782-3.782-3.782-3.782-2.56,2.56-2.43-2.43,3.775-3.775,1.215-1.216,1.215,1.216,6.213,6.213,1.215,1.215-1.215,1.216-6.213,6.213-1.215,1.215-1.215-1.215-5-5-2.513,2.513Zm-.054-7.51-5,5,3.782,3.782,2.43,2.431-1.215,1.215-1.215,1.215-1.216-1.215-6.213-6.213L92.761,513.6l1.215-1.215,6.213-6.213Z" transform="translate(-92.761 -504.955)" fill="url(#linear-gradient)"/>
      <rect id="Rectangle_1814" data-name="Rectangle 1814" width="6.914" height="6.914" transform="translate(9.967 18.611) rotate(-45)" fill="url(#linear-gradient-2)"/>
    </g>
    <g id="Group_5243" data-name="Group 5243" transform="translate(599.096 26.379)">
      <g id="Group_5242" data-name="Group 5242" transform="translate(0 0)">
        <path id="Path_6370" data-name="Path 6370" d="M266.737,533.043l-2.38-7.273-.171-.039-2.408,7.316h-2.856l-4.11-11.768h3.3l2.357,7.748,2.426-7.748h2.968l2.44,7.766,2.3-7.766h3.234l-4.11,11.768Z" transform="translate(-254.812 -520.988)" fill="#fff"/>
        <path id="Path_6371" data-name="Path 6371" d="M349.8,530.85v5.93h-3.189v-16.44h2.942v1.434a4.194,4.194,0,0,1,3.728-1.707,4.877,4.877,0,0,1,3.953,1.752,7.366,7.366,0,0,1,0,8.8,4.877,4.877,0,0,1-3.953,1.752,4.731,4.731,0,0,1-2.077-.438,3.765,3.765,0,0,1-1.4-1.087Zm.707-7.03a4.02,4.02,0,0,0,0,4.807,2.809,2.809,0,0,0,4.2,0,4.02,4.02,0,0,0,0-4.807,2.809,2.809,0,0,0-4.2,0Z" transform="translate(-325.995 -520.053)" fill="#fff"/>
        <path id="Path_6372" data-name="Path 6372" d="M414.537,533.043l-2.38-7.273-.171-.039-2.408,7.316h-2.856l-4.11-11.768h3.3l2.358,7.748,2.426-7.748h2.968l2.44,7.766,2.3-7.766h3.234l-4.11,11.768Z" transform="translate(-369.419 -520.988)" fill="#834eff"/>
        <path id="Path_6373" data-name="Path 6373" d="M493.641,532.377a4.168,4.168,0,0,1-3.121-1.044,3.728,3.728,0,0,1-1.011-2.706,3.239,3.239,0,0,1,1.3-2.886,7.136,7.136,0,0,1,3.975-.887h2.336v-.494q0-1.661-2.111-1.662-1.886,0-2.089,1.438h-3.144a4.322,4.322,0,0,1,1.437-2.9,5.573,5.573,0,0,1,3.863-1.168,5.7,5.7,0,0,1,3.863,1.148,4.079,4.079,0,0,1,1.3,3.234v7.656H497.41v-1.3Q496.4,532.377,493.641,532.377Zm3.481-4.986v-.135h-1.909a5.675,5.675,0,0,0-1.991.258,1.072,1.072,0,0,0-.64,1.112q0,1.28,1.8,1.28a2.877,2.877,0,0,0,2.122-.64,2.6,2.6,0,0,0,.62-1.874Z" transform="translate(-436.8 -520.053)" fill="#834eff"/>
        <path id="Path_6374" data-name="Path 6374" d="M553.6,521.274l-4.256,5.793,4.391,5.972h-3.84l-2.471-3.363-2.471,3.363h-3.84l4.391-5.972-4.256-5.793h3.837l2.336,3.18,2.336-3.18Z" transform="translate(-476.816 -520.987)" fill="#834eff"/>
      </g>
    </g>
  </g>
</svg>
