<svg xmlns="http://www.w3.org/2000/svg" xmlns:xlink="http://www.w3.org/1999/xlink" width="170" height="35.783" viewBox="0 0 170 35.783">
  <defs>
    <linearGradient id="linear-gradient" x1="0.5" y1="1" x2="0.5" gradientUnits="objectBoundingBox">
      <stop offset="0" stop-color="#834eff"/>
      <stop offset="1" stop-color="#d07eff"/>
    </linearGradient>
    <linearGradient id="linear-gradient-2" y1="1" x2="1" gradientUnits="objectBoundingBox">
      <stop offset="0" stop-color="#fc5469"/>
      <stop offset="1" stop-color="#fcaf17"/>
    </linearGradient>
  </defs>
  <g id="Group_5389" data-name="Group 5389" transform="translate(-1122 -1915)">
    <g id="Group_5387" data-name="Group 5387" transform="translate(1122 1915)">
      <path id="Path_6369" data-name="Path 6369" d="M107.859,521.941l5.677-5.676,1.85-1.85,1.85,1.85,7.611,7.609,5.76-5.759-5.76-5.759-3.9,3.9-3.7-3.7,5.75-5.748,1.85-1.851,1.85,1.851,9.462,9.46,1.85,1.85-1.85,1.851-9.462,9.46-1.85,1.85-1.85-1.85-7.611-7.609-3.827,3.826Zm-.083-11.435-7.611,7.609,5.76,5.759,3.7,3.7-1.85,1.85-1.85,1.85-1.852-1.85-9.462-9.46-1.85-1.851,1.85-1.85,9.462-9.46Z" transform="translate(-92.761 -504.955)" fill="url(#linear-gradient)"/>
      <rect id="Rectangle_1814" data-name="Rectangle 1814" width="10.53" height="10.53" transform="translate(15.179 28.337) rotate(-45)" fill="url(#linear-gradient-2)"/>
    </g>
    <g id="Group_5243" data-name="Group 5243" transform="translate(1174.856 1919.803)">
      <g id="Group_5242" data-name="Group 5242" transform="translate(0 0)">
        <path id="Path_6370" data-name="Path 6370" d="M272.974,539.2l-3.625-11.077-.261-.06L265.42,539.2h-4.349l-6.259-17.923h5.028l3.59,11.8,3.694-11.8h4.521l3.716,11.828,3.5-11.828h4.925L277.525,539.2Z" transform="translate(-254.812 -520.837)" fill="#fff"/>
        <path id="Path_6371" data-name="Path 6371" d="M351.468,536.5v9.031h-4.856V520.489h4.481v2.184a6.387,6.387,0,0,1,5.677-2.6,7.427,7.427,0,0,1,6.02,2.668,11.218,11.218,0,0,1,0,13.409,7.428,7.428,0,0,1-6.02,2.668,7.2,7.2,0,0,1-3.163-.667,5.734,5.734,0,0,1-2.138-1.656Zm1.077-10.706a6.123,6.123,0,0,0,0,7.32,4.278,4.278,0,0,0,6.4,0,6.123,6.123,0,0,0,0-7.32,4.278,4.278,0,0,0-6.4,0Z" transform="translate(-315.213 -520.053)" fill="#fff"/>
        <path id="Path_6372" data-name="Path 6372" d="M420.774,539.2l-3.625-11.077-.261-.06L413.22,539.2h-4.349l-6.259-17.923h5.028l3.591,11.8,3.694-11.8h4.521l3.716,11.828,3.5-11.828h4.925L425.326,539.2Z" transform="translate(-352.06 -520.837)" fill="#834eff"/>
        <path id="Path_6373" data-name="Path 6373" d="M495.809,538.821a6.348,6.348,0,0,1-4.754-1.591,5.677,5.677,0,0,1-1.539-4.122,4.932,4.932,0,0,1,1.982-4.395,10.868,10.868,0,0,1,6.054-1.351h3.558v-.752q0-2.53-3.215-2.531-2.873,0-3.181,2.19h-4.789a6.584,6.584,0,0,1,2.189-4.412A8.487,8.487,0,0,1,498,520.078a8.673,8.673,0,0,1,5.884,1.749,6.213,6.213,0,0,1,1.982,4.925v11.66h-4.314v-1.982Q500.016,538.822,495.809,538.821Zm5.3-7.593v-.205H498.2a8.644,8.644,0,0,0-3.032.393,1.632,1.632,0,0,0-.975,1.693q0,1.95,2.737,1.95a4.382,4.382,0,0,0,3.232-.975,3.957,3.957,0,0,0,.945-2.854Z" transform="translate(-409.241 -520.053)" fill="#834eff"/>
        <path id="Path_6374" data-name="Path 6374" d="M560.13,521.274l-6.482,8.822,6.687,9.1h-5.849l-3.763-5.121-3.763,5.121h-5.849l6.687-9.1-6.482-8.822h5.844l3.558,4.843,3.557-4.843Z" transform="translate(-443.191 -520.838)" fill="#834eff"/>
      </g>
    </g>
  </g>
</svg>
