<svg xmlns="http://www.w3.org/2000/svg" xmlns:xlink="http://www.w3.org/1999/xlink" width="145" height="30.694" viewBox="0 0 145 30.694">
  <defs>
    <linearGradient id="linear-gradient" x1="0.504" y1="1.244" x2="0.495" y2="-0.399" gradientUnits="objectBoundingBox">
      <stop offset="0" stop-color="#5922c5"/>
      <stop offset="0.25" stop-color="#834eff"/>
      <stop offset="0.39" stop-color="#834eff"/>
      <stop offset="0.71" stop-color="#ef77fd"/>
      <stop offset="0.89" stop-color="#bb35f9"/>
      <stop offset="1" stop-color="#a81cf8"/>
    </linearGradient>
    <linearGradient id="linear-gradient-2" y1="1" x2="1" gradientUnits="objectBoundingBox">
      <stop offset="0" stop-color="#fc5469"/>
      <stop offset="1" stop-color="#fcaf17"/>
    </linearGradient>
  </defs>
  <g id="Group_5244" data-name="Group 5244" transform="translate(-565 -23)">
    <g id="Group_5241" data-name="Group 5241" transform="translate(565 23)">
      <path id="Path_6369" data-name="Path 6369" d="M105.709,519.526l4.869-4.869,1.587-1.587,1.587,1.587,6.527,6.527,4.94-4.94-4.94-4.94-3.344,3.344-3.174-3.174,4.931-4.931,1.587-1.588,1.587,1.588,8.115,8.115,1.587,1.587-1.587,1.588-8.115,8.115-1.587,1.587-1.587-1.587-6.527-6.527-3.282,3.282Zm-.071-9.809-6.527,6.527,4.94,4.94,3.174,3.175-1.587,1.587-1.587,1.587-1.588-1.587-8.115-8.115-1.587-1.588,1.587-1.587,8.115-8.115Z" transform="translate(-92.761 -504.955)" fill="url(#linear-gradient)"/>
      <rect id="Rectangle_1814" data-name="Rectangle 1814" width="9.031" height="9.031" transform="translate(13.018 24.308) rotate(-45)" fill="url(#linear-gradient-2)"/>
    </g>
    <g id="Group_5243" data-name="Group 5243" transform="translate(609.534 27.435)">
      <g id="Group_5242" data-name="Group 5242">
        <path id="Path_6370" data-name="Path 6370" d="M270.388,536.645l-3.109-9.5-.224-.051-3.145,9.555H260.18l-5.368-15.371h4.312l3.079,10.12,3.168-10.12h3.877l3.187,10.144,3-10.144h4.224l-5.368,15.371Z" transform="translate(-254.812 -520.922)" fill="#35355e"/>
        <path id="Path_6371" data-name="Path 6371" d="M350.777,534.155V541.9h-4.165V520.427h3.843V522.3a5.478,5.478,0,0,1,4.869-2.229,6.369,6.369,0,0,1,5.163,2.288,9.621,9.621,0,0,1,0,11.5,6.37,6.37,0,0,1-5.163,2.288,6.179,6.179,0,0,1-2.713-.572A4.919,4.919,0,0,1,350.777,534.155Zm.924-9.182a5.251,5.251,0,0,0,0,6.278,3.669,3.669,0,0,0,5.485,0,5.251,5.251,0,0,0,0-6.278,3.669,3.669,0,0,0-5.485,0Z" transform="translate(-319.684 -520.075)" fill="#35355e"/>
        <path id="Path_6372" data-name="Path 6372" d="M418.188,536.645l-3.109-9.5-.224-.051-3.145,9.555H407.98l-5.368-15.371h4.312l3.08,10.12,3.168-10.12h3.877l3.187,10.144,3-10.144h4.224l-5.368,15.371Z" transform="translate(-359.258 -520.922)" fill="#834eff"/>
        <path id="Path_6373" data-name="Path 6373" d="M494.91,536.149a5.444,5.444,0,0,1-4.077-1.364,4.869,4.869,0,0,1-1.32-3.535,4.23,4.23,0,0,1,1.7-3.769,9.32,9.32,0,0,1,5.192-1.159h3.051v-.645q0-2.17-2.757-2.171-2.464,0-2.728,1.878h-4.107a5.646,5.646,0,0,1,1.877-3.784,7.279,7.279,0,0,1,5.045-1.525,7.438,7.438,0,0,1,5.046,1.5,5.328,5.328,0,0,1,1.7,4.224v10h-3.7v-1.7Q498.518,536.15,494.91,536.149Zm4.547-6.512v-.176h-2.493a7.413,7.413,0,0,0-2.6.337,1.4,1.4,0,0,0-.836,1.452q0,1.672,2.347,1.672a3.758,3.758,0,0,0,2.772-.836A3.394,3.394,0,0,0,499.457,529.638Z" transform="translate(-420.668 -520.075)" fill="#834eff"/>
        <path id="Path_6374" data-name="Path 6374" d="M557.422,521.274l-5.559,7.566,5.735,7.8h-5.016l-3.227-4.392-3.227,4.392h-5.016l5.735-7.8-5.559-7.566H546.3l3.051,4.153,3.051-4.153Z" transform="translate(-457.133 -520.922)" fill="#834eff"/>
      </g>
    </g>
  </g>
</svg>
