<svg xmlns="http://www.w3.org/2000/svg" xmlns:xlink="http://www.w3.org/1999/xlink" width="135" height="46" viewBox="0 0 135 46">
  <defs>
    <clipPath id="clip-path">
      <rect id="Rectangle_1634" data-name="Rectangle 1634" width="135" height="46" fill="#fff"/>
    </clipPath>
  </defs>
  <g id="logo_3_" data-name="logo (3)" clip-path="url(#clip-path)">
    <path id="Path_6044" data-name="Path 6044" d="M119.439,25.38l-.006-.008a3.174,3.174,0,0,0,1.315-.875,3.7,3.7,0,0,0,.894-2.15c.009-.1.017-.193.019-.292,0-.065,0-.131,0-.2s0-.122,0-.182a3.8,3.8,0,0,0-.913-2.442,3.252,3.252,0,0,0-1.5-.947c-.069-.022-.139-.041-.212-.059q-.163-.041-.341-.07a4.918,4.918,0,0,0-.778-.059h-3.362v1.6h3.362a2.137,2.137,0,0,1,1.65.614,2.654,2.654,0,0,1,0,3.113,1.637,1.637,0,0,1-.4.316l-.005,0a2.419,2.419,0,0,1-1.247.295h-1.589v-.016h-1.772v5.462h1.772v-3.85h1.3l2.857,3.85h2Z" transform="translate(-32.134 -5.077)" fill="#231f20"/>
    <path id="Path_6045" data-name="Path 6045" d="M48.934,19.221a3.65,3.65,0,0,0-2.827-1.12H42.745v1.6h3.362a2.138,2.138,0,0,1,1.65.614,2.653,2.653,0,0,1,0,3.113,2.131,2.131,0,0,1-1.65.6H42.745v5.462h1.772v-3.85h1.59A3.6,3.6,0,0,0,48.934,24.5a3.8,3.8,0,0,0,.917-2.639A3.826,3.826,0,0,0,48.934,19.221Z" transform="translate(-11.99 -5.077)" fill="#231f20"/>
    <path id="Path_6046" data-name="Path 6046" d="M54.659,29.483h1.773V18.1H54.659Z" transform="translate(-15.332 -5.077)" fill="#231f20"/>
    <path id="Path_6047" data-name="Path 6047" d="M59.374,18.1v1.6h3.117v9.787h1.788V19.7H67.4V18.1Z" transform="translate(-16.655 -5.077)" fill="#231f20"/>
    <path id="Path_6048" data-name="Path 6048" d="M79.729,26.554a3.9,3.9,0,0,1-5.5-5.523,3.882,3.882,0,0,1,5.211-.276v-2.1c-.077-.03-.168-.077-.245-.107a5.507,5.507,0,0,0-2.216-.445,5.668,5.668,0,0,0-4,1.657,5.63,5.63,0,0,0-1.665,4.035,5.633,5.633,0,0,0,1.665,4.019,5.6,5.6,0,0,0,4,1.672,5.764,5.764,0,0,0,2.216-.445,6.47,6.47,0,0,0,.917-.491V26.124A5.182,5.182,0,0,1,79.729,26.554Z" transform="translate(-20.003 -5.077)" fill="#231f20"/>
    <path id="Path_6049" data-name="Path 6049" d="M92.218,18.1v4.863H87.694V18.1H85.922V29.484h1.772V24.574h4.524v4.909H93.99V18.1Z" transform="translate(-24.101 -5.077)" fill="#231f20"/>
    <path id="Path_6050" data-name="Path 6050" d="M104.469,23.578v1.61h2.14v2.1h-.015a3.129,3.129,0,0,1-.626.246.055.055,0,0,1-.032.016.1.1,0,0,0-.061.015.055.055,0,0,0-.045.016h-.046a.09.09,0,0,1-.061.016c-.016.015-.016.015-.03.015-.106.016-.23.047-.336.062h-.091c-.016,0-.031,0-.031.016H105a.053.053,0,0,1-.045.016h-.107a3.866,3.866,0,0,1-2.75-1.151,3.925,3.925,0,0,1-.994-1.7,4.118,4.118,0,0,1-.137-.859.961.961,0,0,1-.015-.2,1.023,1.023,0,0,1,.015-.215v-.169c.016-.154.046-.307.076-.461,0-.016,0-.016.015-.03a3.688,3.688,0,0,1,.473-1.166.116.116,0,0,1,.032-.062c.03-.046.061-.092.091-.137l.031-.031a3.006,3.006,0,0,1,.2-.276.014.014,0,0,0,.015-.015,2.3,2.3,0,0,1,.2-.2,3.261,3.261,0,0,1,.673-.551.333.333,0,0,0,.076-.047,3.784,3.784,0,0,1,2-.551h.245c.014,0,.03.015.045.015h.137a.09.09,0,0,0,.061.016h.031c.015,0,.046.016.061.016h.03c.062.015.137.015.2.03a.047.047,0,0,0,.031.016c.03,0,.046,0,.061.016h.046a.056.056,0,0,0,.045.015,4.373,4.373,0,0,1,.7.261,3.639,3.639,0,0,1,.764.491v-2.1H107.3l-.091-.046a.015.015,0,0,1-.016-.016,5.552,5.552,0,0,0-1.91-.475.41.41,0,0,0-.137-.016h-.291a5.671,5.671,0,0,0-4,1.657,5.815,5.815,0,0,0-1.222,1.81,6.01,6.01,0,0,0-.443,1.933v.292c0,.183.015.384.03.567A5.506,5.506,0,0,0,99.626,26a5.655,5.655,0,0,0,1.222,1.81,4.983,4.983,0,0,0,1.253.951,3.042,3.042,0,0,0,.55.276l.23.093c.06.015.106.046.168.06h.015a5.373,5.373,0,0,0,1.787.292h.291a5.707,5.707,0,0,0,2.032-.491l.016-.016c.031-.015.077-.03.107-.046a.321.321,0,0,0,.076-.046h.03l.032-.03a.117.117,0,0,0,.076-.031c.016-.016.031-.016.045-.03.032-.016.046-.016.077-.031.016-.015.03-.015.046-.03s.03-.016.045-.031a.19.19,0,0,0,.061-.046.077.077,0,0,0,.061-.03c.016,0,.03-.016.046-.031a.11.11,0,0,0,.061-.03c.016-.016.016-.016.03-.016l.4-.276V23.578Z" transform="translate(-27.821 -5.077)" fill="#231f20"/>
    <path id="Path_6051" data-name="Path 6051" d="M135.084,26.554a3.9,3.9,0,1,1,1.146-2.761A3.869,3.869,0,0,1,135.084,26.554Zm2.476-4.986a5.609,5.609,0,0,0-3.01-3.022,5.768,5.768,0,0,0-2.216-.445,5.666,5.666,0,0,0-4,1.657,6,6,0,0,0-1.222,1.809,5.836,5.836,0,0,0-.443,2.225,5.641,5.641,0,0,0,1.666,4.019,5.6,5.6,0,0,0,4,1.672,5.767,5.767,0,0,0,2.216-.445,5.968,5.968,0,0,0,1.8-1.227A5.612,5.612,0,0,0,137.559,26,5.692,5.692,0,0,0,138,23.793,5.836,5.836,0,0,0,137.559,21.568Z" transform="translate(-35.53 -5.077)" fill="#231f20"/>
    <path id="Path_6052" data-name="Path 6052" d="M151.523,18.1v7.517a1.845,1.845,0,0,1-.687,1.55,2.9,2.9,0,0,1-1.727.537,2.828,2.828,0,0,1-1.726-.537,1.853,1.853,0,0,1-.7-1.55V18.1h-1.772v7.517a3.842,3.842,0,0,0,.382,1.733,3.383,3.383,0,0,0,1.009,1.228,4.82,4.82,0,0,0,5.623,0,3.714,3.714,0,0,0,1.008-1.228,4.053,4.053,0,0,0,.382-1.733V18.1Z" transform="translate(-40.647 -5.077)" fill="#231f20"/>
    <path id="Path_6053" data-name="Path 6053" d="M166.853,17.891v7.3l-7.122-7.839v11.92H161.5V21.957l7.135,7.838v-11.9Z" transform="translate(-44.805 -4.868)" fill="#231f20"/>
    <path id="Path_6054" data-name="Path 6054" d="M181.076,26.583A3.839,3.839,0,0,1,178.1,27.7h-.917V19.88h.917A3.788,3.788,0,0,1,181.076,21a4.088,4.088,0,0,1,.917,2.792A4.115,4.115,0,0,1,181.076,26.583Zm1.315-6.78a4.619,4.619,0,0,0-1.819-1.258A6.364,6.364,0,0,0,178.1,18.1h-2.69V29.483h2.69a6.644,6.644,0,0,0,2.475-.445,4.619,4.619,0,0,0,1.819-1.258,5.819,5.819,0,0,0,1.375-3.988A5.822,5.822,0,0,0,182.39,19.8Z" transform="translate(-49.202 -5.077)" fill="#231f20"/>
    <path id="Path_6055" data-name="Path 6055" d="M46.375,44.765H43.8v2.711H42.99V41.337h3.8V42H43.8v2.1h2.576Zm4.06,2.26a1.657,1.657,0,0,1-1.336.535,1.428,1.428,0,0,1-1.113-.422,1.849,1.849,0,0,1-.384-1.256V42.914h.78v2.947q0,1.037.843,1.037a1.168,1.168,0,0,0,1.189-.666V42.914h.78v4.561h-.742Zm3.913.535a2,2,0,0,1-1.509-.607,2.269,2.269,0,0,1-.582-1.631v-.143a2.743,2.743,0,0,1,.257-1.21,2.025,2.025,0,0,1,.725-.835,1.824,1.824,0,0,1,1.012-.3,1.709,1.709,0,0,1,1.383.586,2.537,2.537,0,0,1,.493,1.678v.325h-3.09a1.636,1.636,0,0,0,.392,1.092,1.249,1.249,0,0,0,.961.413,1.358,1.358,0,0,0,.7-.169,1.758,1.758,0,0,0,.5-.447l.476.371A1.916,1.916,0,0,1,54.348,47.56Zm-.1-4.089a1.038,1.038,0,0,0-.793.346,1.66,1.66,0,0,0-.4.961h2.285v-.059a1.475,1.475,0,0,0-.32-.919A.976.976,0,0,0,54.251,43.47Zm3.7,4.005h-.78V41h.78Zm5.532-3.056,1.6-3.082h.919l-2.116,3.849v2.289H63.08V45.186l-2.116-3.849h.927Zm2.778.734a2.712,2.712,0,0,1,.261-1.206,1.984,1.984,0,0,1,.734-.826,2.007,2.007,0,0,1,1.075-.291,1.917,1.917,0,0,1,1.505.645,2.476,2.476,0,0,1,.578,1.716v.055a2.712,2.712,0,0,1-.257,1.2,1.921,1.921,0,0,1-.729.822,2.009,2.009,0,0,1-1.088.3,1.925,1.925,0,0,1-1.505-.645,2.475,2.475,0,0,1-.573-1.707Zm.784.093a1.96,1.96,0,0,0,.35,1.218,1.2,1.2,0,0,0,1.889,0,2.144,2.144,0,0,0,.35-1.307,1.931,1.931,0,0,0-.358-1.214A1.181,1.181,0,0,0,67.4,43.93,2.117,2.117,0,0,0,67.047,45.245Zm7.235,1.779a1.657,1.657,0,0,1-1.336.535,1.428,1.428,0,0,1-1.113-.422,1.849,1.849,0,0,1-.384-1.256V42.914h.78v2.947q0,1.037.843,1.037a1.168,1.168,0,0,0,1.189-.666V42.914h.78v4.561H74.3Zm4.224-3.411a2.34,2.34,0,0,0-.384-.029,1.028,1.028,0,0,0-1.041.653v3.238H76.3V42.914h.759l.013.527a1.215,1.215,0,0,1,1.088-.611.8.8,0,0,1,.346.059Zm3.129,3.862V41.337h2.007a2.32,2.32,0,0,1,1.5.413,1.485,1.485,0,0,1,.506,1.223,1.254,1.254,0,0,1-.245.763,1.59,1.59,0,0,1-.666.51,1.41,1.41,0,0,1,.784.531,1.5,1.5,0,0,1,.291.928,1.642,1.642,0,0,1-.535,1.3,2.216,2.216,0,0,1-1.514.472Zm.809-2.871v2.209h1.336a1.285,1.285,0,0,0,.89-.291A1.032,1.032,0,0,0,85,45.713Q85,44.6,83.794,44.6Zm0-.649h1.223a1.274,1.274,0,0,0,.847-.266.887.887,0,0,0,.32-.721.867.867,0,0,0-.295-.734,1.44,1.44,0,0,0-.9-.232h-1.2Zm7.336,3.069a1.657,1.657,0,0,1-1.337.535,1.427,1.427,0,0,1-1.112-.422,1.848,1.848,0,0,1-.384-1.256V42.914h.78v2.947q0,1.037.843,1.037a1.169,1.169,0,0,0,1.189-.666V42.914h.78v4.561H89.8Zm4.675-.759a.566.566,0,0,0-.24-.489,2.234,2.234,0,0,0-.83-.3,3.979,3.979,0,0,1-.94-.3,1.357,1.357,0,0,1-.514-.422,1.015,1.015,0,0,1-.165-.582,1.186,1.186,0,0,1,.472-.949,1.862,1.862,0,0,1,1.215-.388,1.9,1.9,0,0,1,1.256.4,1.27,1.27,0,0,1,.485,1.024H94.41a.7.7,0,0,0-.274-.552,1.01,1.01,0,0,0-.683-.232,1.067,1.067,0,0,0-.666.185.583.583,0,0,0-.24.485.473.473,0,0,0,.224.426,2.746,2.746,0,0,0,.805.274,4.2,4.2,0,0,1,.948.312,1.353,1.353,0,0,1,.535.438,1.054,1.054,0,0,1,.177.62,1.173,1.173,0,0,1-.489.982,2.061,2.061,0,0,1-1.269.367,2.3,2.3,0,0,1-.97-.194,1.6,1.6,0,0,1-.662-.54,1.328,1.328,0,0,1-.236-.755h.78a.817.817,0,0,0,.312.624,1.235,1.235,0,0,0,.776.228,1.258,1.258,0,0,0,.708-.177A.554.554,0,0,0,94.456,46.266Zm2.715,1.21h-.78V42.914h.78ZM96.328,41.7a.472.472,0,0,1,.114-.32.523.523,0,0,1,.691,0,.459.459,0,0,1,.118.32.444.444,0,0,1-.118.316.536.536,0,0,1-.691,0A.457.457,0,0,1,96.328,41.7Zm2.905,1.21.025.573a1.662,1.662,0,0,1,1.366-.658q1.446,0,1.459,1.631v3.014h-.78V44.457a1.044,1.044,0,0,0-.228-.729.9.9,0,0,0-.687-.236,1.128,1.128,0,0,0-.666.2,1.381,1.381,0,0,0-.447.531v3.25h-.78V42.914Zm5.991,4.646a2,2,0,0,1-1.509-.607,2.269,2.269,0,0,1-.582-1.631v-.143a2.735,2.735,0,0,1,.258-1.21,2.027,2.027,0,0,1,.725-.835,1.827,1.827,0,0,1,1.012-.3,1.707,1.707,0,0,1,1.382.586A2.537,2.537,0,0,1,107,45.094v.325h-3.09a1.636,1.636,0,0,0,.392,1.092,1.249,1.249,0,0,0,.961.413,1.359,1.359,0,0,0,.7-.169,1.761,1.761,0,0,0,.5-.447l.476.371A1.915,1.915,0,0,1,105.224,47.56Zm-.1-4.089a1.038,1.038,0,0,0-.793.346,1.662,1.662,0,0,0-.4.961h2.285v-.059a1.477,1.477,0,0,0-.32-.919A.977.977,0,0,0,105.127,43.47Zm5.51,2.8a.566.566,0,0,0-.24-.489,2.239,2.239,0,0,0-.83-.3,3.968,3.968,0,0,1-.94-.3,1.365,1.365,0,0,1-.514-.422,1.02,1.02,0,0,1-.164-.582,1.186,1.186,0,0,1,.472-.949,1.862,1.862,0,0,1,1.215-.388,1.9,1.9,0,0,1,1.256.4,1.27,1.27,0,0,1,.485,1.024h-.784a.7.7,0,0,0-.274-.552,1.011,1.011,0,0,0-.683-.232,1.065,1.065,0,0,0-.666.185.583.583,0,0,0-.24.485.473.473,0,0,0,.223.426,2.744,2.744,0,0,0,.806.274,4.2,4.2,0,0,1,.948.312,1.353,1.353,0,0,1,.535.438,1.054,1.054,0,0,1,.177.62,1.171,1.171,0,0,1-.489.982,2.059,2.059,0,0,1-1.268.367,2.3,2.3,0,0,1-.97-.194,1.6,1.6,0,0,1-.662-.54,1.322,1.322,0,0,1-.236-.755h.78a.817.817,0,0,0,.312.624,1.233,1.233,0,0,0,.776.228,1.258,1.258,0,0,0,.708-.177A.555.555,0,0,0,110.637,46.266Zm4.524,0a.568.568,0,0,0-.24-.489,2.244,2.244,0,0,0-.831-.3,3.96,3.96,0,0,1-.94-.3,1.354,1.354,0,0,1-.514-.422,1.02,1.02,0,0,1-.165-.582,1.185,1.185,0,0,1,.473-.949,1.86,1.86,0,0,1,1.214-.388,1.9,1.9,0,0,1,1.256.4,1.27,1.27,0,0,1,.485,1.024h-.784a.7.7,0,0,0-.274-.552,1.01,1.01,0,0,0-.683-.232,1.068,1.068,0,0,0-.666.185.585.585,0,0,0-.24.485.473.473,0,0,0,.224.426,2.746,2.746,0,0,0,.805.274,4.2,4.2,0,0,1,.948.312,1.361,1.361,0,0,1,.536.438,1.054,1.054,0,0,1,.177.62,1.173,1.173,0,0,1-.489.982,2.059,2.059,0,0,1-1.269.367,2.294,2.294,0,0,1-.969-.194,1.594,1.594,0,0,1-.662-.54,1.322,1.322,0,0,1-.236-.755h.78a.816.816,0,0,0,.312.624,1.236,1.236,0,0,0,.776.228,1.26,1.26,0,0,0,.709-.177A.555.555,0,0,0,115.161,46.266Zm8.735.4a1.88,1.88,0,0,1-.873.67,3.529,3.529,0,0,1-1.3.219,2.533,2.533,0,0,1-1.332-.35,2.374,2.374,0,0,1-.9-1,3.479,3.479,0,0,1-.324-1.505v-.535a3.238,3.238,0,0,1,.645-2.15,2.263,2.263,0,0,1,1.822-.763,2.323,2.323,0,0,1,1.547.493,2.131,2.131,0,0,1,.717,1.391h-.809a1.337,1.337,0,0,0-1.45-1.218,1.436,1.436,0,0,0-1.235.573,2.787,2.787,0,0,0-.422,1.653v.5a2.619,2.619,0,0,0,.472,1.644,1.532,1.532,0,0,0,1.277.607,2.819,2.819,0,0,0,.8-.1,1.232,1.232,0,0,0,.565-.341V45.077h-1.421v-.658H123.9Zm3.508-3.056a2.335,2.335,0,0,0-.383-.029,1.027,1.027,0,0,0-1.041.653v3.238h-.78V42.914h.759l.012.527a1.215,1.215,0,0,1,1.088-.611.794.794,0,0,1,.345.059Zm.5,1.539a2.714,2.714,0,0,1,.261-1.206,1.982,1.982,0,0,1,.734-.826,2.005,2.005,0,0,1,1.075-.291,1.917,1.917,0,0,1,1.505.645,2.476,2.476,0,0,1,.578,1.716v.055a2.715,2.715,0,0,1-.258,1.2,1.917,1.917,0,0,1-.73.822,2.007,2.007,0,0,1-1.087.3,1.925,1.925,0,0,1-1.505-.645,2.476,2.476,0,0,1-.573-1.707Zm.784.093a1.961,1.961,0,0,0,.35,1.218,1.133,1.133,0,0,0,.945.459,1.12,1.12,0,0,0,.944-.464,2.145,2.145,0,0,0,.35-1.307,1.931,1.931,0,0,0-.358-1.214,1.181,1.181,0,0,0-1.876-.008A2.118,2.118,0,0,0,128.691,45.245Zm8.457,1.155.877-3.486h.78l-1.328,4.561h-.632l-1.109-3.457-1.079,3.457h-.632L132.7,42.914h.776l.9,3.415,1.062-3.415h.628Zm3.584-4.591v1.1h.852v.6h-.852v2.829a.643.643,0,0,0,.114.413.484.484,0,0,0,.388.135,1.891,1.891,0,0,0,.371-.051v.632a2.259,2.259,0,0,1-.6.084.972.972,0,0,1-.789-.316,1.358,1.358,0,0,1-.265-.9V43.517h-.83v-.6h.83v-1.1Zm2.618,1.657a1.659,1.659,0,0,1,1.349-.637q1.446,0,1.459,1.631v3.014h-.78V44.457a1.044,1.044,0,0,0-.228-.729.9.9,0,0,0-.687-.236,1.126,1.126,0,0,0-.666.2,1.381,1.381,0,0,0-.447.531v3.25h-.78V41h.78Z" transform="translate(-12.059 -11.501)" fill="#585454"/>
    <path id="Path_6056" data-name="Path 6056" d="M20.93,26.767a4.308,4.308,0,0,1-3.336,1.21h-6.8V35.8H7.572a4.319,4.319,0,0,1-3.336-1.241,4.732,4.732,0,0,1-1.022-3.132,4.765,4.765,0,0,1,1.022-3.165,4.306,4.306,0,0,1,3.336-1.21h6.8V19.228h3.222A4.322,4.322,0,0,1,20.93,20.47,4.729,4.729,0,0,1,21.95,23.6,4.762,4.762,0,0,1,20.93,26.767Zm2.381-8.5A7.386,7.386,0,0,0,17.594,16H10.787v7.788H7.572a7.28,7.28,0,0,0-5.718,2.3A7.69,7.69,0,0,0,0,31.423a7.742,7.742,0,0,0,1.854,5.336,7.386,7.386,0,0,0,5.718,2.265h6.806V31.236h3.216a7.28,7.28,0,0,0,5.718-2.3A7.686,7.686,0,0,0,25.165,23.6,7.742,7.742,0,0,0,23.311,18.265Z" transform="translate(0 -4.488)" fill="#ed1c24"/>
  </g>
</svg>
