<svg xmlns="http://www.w3.org/2000/svg" width="30" height="40.144" viewBox="0 0 30 40.144">
  <g id="_1" data-name="1" transform="translate(-1238 -1437)">
    <g id="Group_5244" data-name="Group 5244" transform="translate(1238 1466.415)" opacity="0.4">
      <path id="Path_6107" data-name="Path 6107" d="M10.343,364.694H8.473a.82.82,0,0,0-.82.82v6.429a.82.82,0,0,0,.82.82h1.87Z" transform="translate(-7.653 -362.036)" fill="#fff"/>
      <path id="Path_6108" data-name="Path 6108" d="M109.457,318.676a3.947,3.947,0,0,0-5.575,0l-2.457,2.457-1.007,1.007a2.17,2.17,0,0,1-1.535.636h-4.9a.837.837,0,0,1-.844-.782.821.821,0,0,1,.82-.861H98.94a2.066,2.066,0,0,0,2.041-1.7,4.046,4.046,0,0,0,.06-.7.824.824,0,0,0-.821-.822H97.493a6.445,6.445,0,0,1-2.653-.832,8.484,8.484,0,0,0-3.082-.99,8.684,8.684,0,0,0-2.994.327,2.655,2.655,0,0,0-1.9,2.316h-.011V326.8h0v0h14.128a3.614,3.614,0,0,0,2.572-1.065l5.9-5.9A.821.821,0,0,0,109.457,318.676Z" transform="translate(-82.524 -316.075)" fill="#fff"/>
    </g>
    <path id="Subtraction_1" data-name="Subtraction 1" d="M13.5,27A13.5,13.5,0,0,1,3.954,3.954,13.5,13.5,0,1,1,23.046,23.045,13.411,13.411,0,0,1,13.5,27ZM13.183,6.75c-.025,0-.047,0-.067,0a.88.88,0,0,0-.812.942l.877,11.724a.882.882,0,0,0,.875.81l.064,0a.88.88,0,0,0,.814-.877.171.171,0,0,0,0-.07L14.058,7.564A.883.883,0,0,0,13.183,6.75ZM8.63,11.29a2.631,2.631,0,1,0,2.632,2.631A2.634,2.634,0,0,0,8.63,11.29Zm9.926-1.148a2.631,2.631,0,1,0,2.631,2.63A2.633,2.633,0,0,0,18.556,10.142ZM8.63,14.8a.877.877,0,1,1,.877-.876A.877.877,0,0,1,8.63,14.8Zm9.926-1.148a.876.876,0,1,1,.877-.877A.877.877,0,0,1,18.556,13.649Z" transform="translate(1241 1437)" fill="#fff"/>
  </g>
</svg>
