<svg xmlns="http://www.w3.org/2000/svg" width="40" height="31.663" viewBox="0 0 40 31.663">
  <g id="_2" data-name="2" transform="translate(-890 -1592.254)">
    <path id="Path_6102" data-name="Path 6102" d="M37.959,10.255,17.344,18.5H11.751A3.755,3.755,0,0,0,8,22.249v4.582c0,1.962,1.543,3.332,3.751,3.332h1.415l1.513,10.594a1.25,1.25,0,0,0,1.238,1.072h5a1.25,1.25,0,0,0,1.243-1.39L21.18,31.7l16.778,6.709a1.249,1.249,0,0,0,1.715-1.16V11.418a1.251,1.251,0,0,0-1.715-1.162Z" transform="translate(882 1582.088)" fill="#fff"/>
    <g id="Group_5242" data-name="Group 5242" transform="translate(923.337 1597.268)" opacity="0.4">
      <path id="Path_6103" data-name="Path 6103" d="M22.581,17.99a1.261,1.261,0,0,0,.782-.272l4.162-3.328a1.249,1.249,0,0,0-1.561-1.95L21.8,15.768a1.247,1.247,0,0,0,.779,2.222Z" transform="translate(-21.332 -12.168)" fill="#fff"/>
      <path id="Path_6104" data-name="Path 6104" d="M23.362,18.106a1.249,1.249,0,1,0-1.561,1.95l4.162,3.328a1.253,1.253,0,0,0,1.758-.2,1.249,1.249,0,0,0-.195-1.755Z" transform="translate(-21.332 -3.687)" fill="#fff"/>
      <path id="Path_6105" data-name="Path 6105" d="M22.581,18.164h4.162a1.248,1.248,0,0,0,0-2.5H22.581a1.248,1.248,0,0,0,0,2.5Z" transform="translate(-21.333 -6.931)" fill="#fff"/>
    </g>
  </g>
</svg>
