<svg xmlns="http://www.w3.org/2000/svg" width="40" height="40.002" viewBox="0 0 40 40.002">
  <g id="_4" data-name="4" transform="translate(-726.25 -1336.25)">
    <path id="Path_6098" data-name="Path 6098" d="M24.056,11.245H22.271a4.473,4.473,0,0,0-8.6,0H11.884a1.227,1.227,0,0,0-1.217,1.217V14.9a2.855,2.855,0,0,0,2.841,2.841h8.924A2.855,2.855,0,0,0,25.273,14.9V12.462A1.227,1.227,0,0,0,24.056,11.245Z" transform="translate(722.356 1328.25)" fill="#fff" opacity="0.4"/>
    <path id="Path_6099" data-name="Path 6099" d="M31.126,10h-.407v2.1a4.543,4.543,0,0,1-4.462,4.623H17.331A4.543,4.543,0,0,1,12.869,12.1V10h-.407A4.543,4.543,0,0,0,8,14.623V35.639a4.543,4.543,0,0,0,4.462,4.625H24.439L24.8,38.2a4.743,4.743,0,0,1,1.234-2.472l1.3-1.344H14.086a1.262,1.262,0,0,1,0-2.522H29.5a.544.544,0,0,1,.226.033h.017l5.842-6.053V14.623A4.543,4.543,0,0,0,31.126,10ZM29.5,28.915H14.086a1.262,1.262,0,0,1,0-2.522H29.5a1.262,1.262,0,0,1,0,2.522Zm0-5.465H14.086a1.262,1.262,0,0,1,0-2.522H29.5a1.262,1.262,0,0,1,0,2.522Z" transform="translate(718.25 1331.119)" fill="#fff"/>
    <path id="Path_6100" data-name="Path 6100" d="M17.069,35.786a1.216,1.216,0,0,1-1.2-1.427l.862-4.878a1.22,1.22,0,0,1,.338-.65l12.05-12.05c1.48-1.482,2.933-1.083,3.729-.287L34.856,18.5a2.843,2.843,0,0,1,0,4.017l-12.05,12.05a1.2,1.2,0,0,1-.65.338l-4.876.862A1.552,1.552,0,0,1,17.069,35.786Zm4.878-2.076h.017Z" transform="translate(730.563 1340.466)" fill="#fff" opacity="0.4"/>
  </g>
</svg>
