<svg xmlns="http://www.w3.org/2000/svg" width="40" height="40" viewBox="0 0 40 40">
  <g id="_5" data-name="5" transform="translate(-2 -2)">
    <path id="Path_6436" data-name="Path 6436" d="M40.462,38.923H5.077V3.538A1.538,1.538,0,0,0,2,3.538V40.462A1.539,1.539,0,0,0,3.538,42H40.462a1.538,1.538,0,0,0,0-3.077Z" fill="#fff" opacity="0.4"/>
    <path id="Path_6437" data-name="Path 6437" d="M10.168,32.8a4.026,4.026,0,0,0,3.838-4.182,3.962,3.962,0,0,0-.876-2.326l2.918-6a3.976,3.976,0,0,0,.545.034,3.9,3.9,0,0,0,1.214-.262l3.345,3.911a3.958,3.958,0,0,0-.086.944,4.013,4.013,0,1,0,8.021-.312,3.966,3.966,0,0,0-.723-2.129L33.5,11.268c.043,0,.083.009.126.008A4.074,4.074,0,1,0,30.55,10L25.6,20.8a3.981,3.981,0,0,0-.66-.041A4.023,4.023,0,0,0,23.1,21.3l-2.974-3.478a4.011,4.011,0,1,0-6.886.9L10.282,24.8a3.94,3.94,0,0,0-.427-.026,4.013,4.013,0,1,0,.313,8.021Z" transform="translate(2.144 0.674)" fill="#fff"/>
  </g>
</svg>
