<svg xmlns="http://www.w3.org/2000/svg" width="40.001" height="40" viewBox="0 0 40.001 40">
  <g id="_6" data-name="6" transform="translate(-2 -2)">
    <path id="Path_6438" data-name="Path 6438" d="M29,31H15a2,2,0,0,1-2-2V15a2,2,0,0,1,2-2H29a2,2,0,0,1,2,2V29A2,2,0,0,1,29,31Z" transform="translate(11 11)" fill="#fff" opacity="0.4"/>
    <path id="Path_6439" data-name="Path 6439" d="M13.828,32.956l5.586-5.586a2,2,0,1,0-2.828-2.828L11,30.128,5.414,24.542a2,2,0,1,0-2.828,2.828l5.586,5.586L2.586,38.542a2,2,0,1,0,2.828,2.828L11,35.784l5.586,5.586a2,2,0,1,0,2.828-2.828ZM40,19.956H26a2,2,0,0,1-1.79-2.894l7-14a2.082,2.082,0,0,1,3.58,0l7,14A2,2,0,0,1,40,19.956Z" transform="translate(0 0.044)" fill="#fff"/>
    <path id="Path_6440" data-name="Path 6440" d="M11,20a9,9,0,1,1,9-9,9,9,0,0,1-9,9Z" transform="translate(0 0)" fill="#fff" opacity="0.4"/>
  </g>
</svg>
