<svg xmlns="http://www.w3.org/2000/svg" xmlns:xlink="http://www.w3.org/1999/xlink" width="760" height="384" viewBox="0 0 760 384">
  <defs>
    <filter id="Group_5125" x="0" y="0" width="760" height="384" filterUnits="userSpaceOnUse">
      <feOffset dx="10" dy="30" input="SourceAlpha"/>
      <feGaussianBlur stdDeviation="15" result="blur"/>
      <feFlood flood-opacity="0.051"/>
      <feComposite operator="in" in2="blur"/>
      <feComposite in="SourceGraphic"/>
    </filter>
  </defs>
  <g id="Group_5318" data-name="Group 5318" transform="translate(-840 -2097)">
    <g transform="matrix(1, 0, 0, 1, 840, 2097)" filter="url(#Group_5125)">
      <rect id="Group_5125-2" data-name="Group 5125" width="670" height="294" rx="8" transform="translate(35 15)" fill="#fff"/>
    </g>
    <text id="Classe" transform="translate(905 2154)" fill="#484d61" font-size="13" font-family="CircularStd-Medium, Circular Std Medium" font-weight="500"><tspan x="0" y="0">Classe</tspan></text>
    <text id="Based_on" data-name="Based on" transform="translate(993 2154)" fill="#484d61" font-size="13" font-family="CircularStd-Medium, Circular Std Medium" font-weight="500"><tspan x="0" y="0">Based on</tspan></text>
    <text id="Min_Value" data-name="Min Value" transform="translate(1094 2154)" fill="#484d61" font-size="13" font-family="CircularStd-Medium, Circular Std Medium" font-weight="500"><tspan x="0" y="0">Min Value</tspan></text>
    <text id="Max_Value" data-name="Max Value" transform="translate(1180 2154)" fill="#484d61" font-size="13" font-family="CircularStd-Medium, Circular Std Medium" font-weight="500"><tspan x="0" y="0">Max Value</tspan></text>
    <text id="Rate" transform="translate(1266 2154)" fill="#484d61" font-size="13" font-family="CircularStd-Medium, Circular Std Medium" font-weight="500"><tspan x="0" y="0">Rate</tspan></text>
    <text id="Per_Item" data-name="Per Item" transform="translate(1350 2154)" fill="#484d61" font-size="13" font-family="CircularStd-Medium, Circular Std Medium" font-weight="500"><tspan x="0" y="0">Per Item</tspan></text>
    <text id="Per_kg" data-name="Per kg" transform="translate(1436 2153)" fill="#484d61" font-size="13" font-family="CircularStd-Medium, Circular Std Medium" font-weight="500"><tspan x="0" y="0">Per kg</tspan></text>
    <rect id="Rectangle_1938" data-name="Rectangle 1938" width="82" height="30" rx="3" transform="translate(905 2176)" fill="#f5f7fa"/>
    <rect id="Rectangle_1959" data-name="Rectangle 1959" width="82" height="30" rx="3" transform="translate(905 2256)" fill="#f5f7fa"/>
    <rect id="Rectangle_1945" data-name="Rectangle 1945" width="82" height="30" rx="3" transform="translate(905 2216)" fill="#f5f7fa"/>
    <rect id="Rectangle_1952" data-name="Rectangle 1952" width="82" height="30" rx="3" transform="translate(905 2296)" fill="#f5f7fa"/>
    <rect id="Rectangle_1940" data-name="Rectangle 1940" width="80" height="30" rx="3" transform="translate(1094 2176)" fill="#f5f7fa"/>
    <rect id="Rectangle_1960" data-name="Rectangle 1960" width="80" height="30" rx="3" transform="translate(1094 2256)" fill="#f5f7fa"/>
    <rect id="Rectangle_1946" data-name="Rectangle 1946" width="80" height="30" rx="3" transform="translate(1094 2216)" fill="#f5f7fa"/>
    <rect id="Rectangle_1953" data-name="Rectangle 1953" width="80" height="30" rx="3" transform="translate(1094 2296)" fill="#f5f7fa"/>
    <rect id="Rectangle_1942" data-name="Rectangle 1942" width="80" height="30" rx="3" transform="translate(1350 2176)" fill="#f5f7fa"/>
    <rect id="Rectangle_1961" data-name="Rectangle 1961" width="80" height="30" rx="3" transform="translate(1350 2256)" fill="#f5f7fa"/>
    <rect id="Rectangle_1947" data-name="Rectangle 1947" width="80" height="30" rx="3" transform="translate(1350 2216)" fill="#f5f7fa"/>
    <rect id="Rectangle_1954" data-name="Rectangle 1954" width="80" height="30" rx="3" transform="translate(1350 2296)" fill="#f5f7fa"/>
    <rect id="Rectangle_1939" data-name="Rectangle 1939" width="95" height="30" rx="3" transform="translate(993 2176)" fill="#151826"/>
    <rect id="Rectangle_1962" data-name="Rectangle 1962" width="95" height="30" rx="3" transform="translate(993 2256)" fill="#151826"/>
    <rect id="Rectangle_1948" data-name="Rectangle 1948" width="95" height="30" rx="3" transform="translate(993 2216)" fill="#151826"/>
    <rect id="Rectangle_1955" data-name="Rectangle 1955" width="95" height="30" rx="3" transform="translate(993 2296)" fill="#151826"/>
    <rect id="Rectangle_1943" data-name="Rectangle 1943" width="78" height="30" rx="3" transform="translate(1266 2176)" fill="#f5f7fa"/>
    <rect id="Rectangle_1963" data-name="Rectangle 1963" width="78" height="30" rx="3" transform="translate(1266 2256)" fill="#f5f7fa"/>
    <rect id="Rectangle_1949" data-name="Rectangle 1949" width="78" height="30" rx="3" transform="translate(1266 2216)" fill="#f5f7fa"/>
    <rect id="Rectangle_1956" data-name="Rectangle 1956" width="78" height="30" rx="3" transform="translate(1266 2296)" fill="#f5f7fa"/>
    <rect id="Rectangle_1941" data-name="Rectangle 1941" width="80" height="30" rx="3" transform="translate(1180 2176)" fill="#f5f7fa"/>
    <rect id="Rectangle_1964" data-name="Rectangle 1964" width="80" height="30" rx="3" transform="translate(1180 2256)" fill="#f5f7fa"/>
    <rect id="Rectangle_1950" data-name="Rectangle 1950" width="80" height="30" rx="3" transform="translate(1180 2216)" fill="#f5f7fa"/>
    <rect id="Rectangle_1957" data-name="Rectangle 1957" width="80" height="30" rx="3" transform="translate(1180 2296)" fill="#f5f7fa"/>
    <rect id="Rectangle_1944" data-name="Rectangle 1944" width="80" height="30" rx="3" transform="translate(1436 2176)" fill="#f5f7fa"/>
    <rect id="Rectangle_1965" data-name="Rectangle 1965" width="80" height="30" rx="3" transform="translate(1436 2256)" fill="#f5f7fa"/>
    <rect id="Rectangle_1951" data-name="Rectangle 1951" width="80" height="30" rx="3" transform="translate(1436 2216)" fill="#f5f7fa"/>
    <rect id="Rectangle_1958" data-name="Rectangle 1958" width="80" height="30" rx="3" transform="translate(1436 2296)" fill="#f5f7fa"/>
    <text id="T-Shirts" transform="translate(915 2195)" fill="#7b839b" font-size="12" font-family="CircularStd-Book, Circular Std Book"><tspan x="0" y="0">T-Shirts</tspan></text>
    <text id="Jersey" transform="translate(915 2275)" fill="#7b839b" font-size="12" font-family="CircularStd-Book, Circular Std Book"><tspan x="0" y="0">Jersey</tspan></text>
    <text id="Hoodies" transform="translate(915 2235)" fill="#7b839b" font-size="12" font-family="CircularStd-Book, Circular Std Book"><tspan x="0" y="0">Hoodies</tspan></text>
    <text id="Sweater" transform="translate(915 2315)" fill="#7b839b" font-size="12" font-family="CircularStd-Book, Circular Std Book"><tspan x="0" y="0">Sweater</tspan></text>
    <text id="Cart_Line_Item" data-name="Cart Line Item" transform="translate(1001 2195)" fill="#fff" font-size="12" font-family="CircularStd-Medium, Circular Std Medium" font-weight="500"><tspan x="0" y="0">Cart Line Item</tspan></text>
    <text id="Cart_Line_Item-2" data-name="Cart Line Item" transform="translate(1001 2275)" fill="#fff" font-size="12" font-family="CircularStd-Medium, Circular Std Medium" font-weight="500"><tspan x="0" y="0">Cart Line Item</tspan></text>
    <text id="Cart_Line_Item-3" data-name="Cart Line Item" transform="translate(1001 2235)" fill="#fff" font-size="12" font-family="CircularStd-Medium, Circular Std Medium" font-weight="500"><tspan x="0" y="0">Cart Line Item</tspan></text>
    <text id="Cart_Line_Item-4" data-name="Cart Line Item" transform="translate(1001 2315)" fill="#fff" font-size="12" font-family="CircularStd-Medium, Circular Std Medium" font-weight="500"><tspan x="0" y="0">Cart Line Item</tspan></text>
    <g id="Group_5316" data-name="Group 5316" transform="translate(0 10)">
      <rect id="Rectangle_1966" data-name="Rectangle 1966" width="119" height="30" rx="3" transform="translate(905 2336)" fill="#ebeef5"/>
      <text id="Add_New_Rate" data-name="Add New Rate" transform="translate(933 2355)" fill="#484d61" font-size="12" font-family="CircularStd-Medium, Circular Std Medium" font-weight="500"><tspan x="0" y="0">Add New Rate</tspan></text>
      <path id="Icon_open-plus" data-name="Icon open-plus" d="M3.75,0V3.75H0v2.5H3.75V10h2.5V6.25H10V3.75H6.25V0Z" transform="translate(917 2346)" fill="#484d61"/>
    </g>
    <rect id="Rectangle_1967" data-name="Rectangle 1967" width="40" height="6" rx="3" transform="translate(1104 2188)" fill="#d9deec"/>
    <rect id="Rectangle_1976" data-name="Rectangle 1976" width="40" height="6" rx="3" transform="translate(1104 2228)" fill="#d9deec"/>
    <rect id="Rectangle_1981" data-name="Rectangle 1981" width="40" height="6" rx="3" transform="translate(1104 2268)" fill="#d9deec"/>
    <rect id="Rectangle_1986" data-name="Rectangle 1986" width="40" height="6" rx="3" transform="translate(1104 2308)" fill="#d9deec"/>
    <rect id="Rectangle_1968" data-name="Rectangle 1968" width="40" height="6" rx="3" transform="translate(1189 2188)" fill="#d9deec"/>
    <rect id="Rectangle_1975" data-name="Rectangle 1975" width="40" height="6" rx="3" transform="translate(1189 2228)" fill="#d9deec"/>
    <rect id="Rectangle_1980" data-name="Rectangle 1980" width="40" height="6" rx="3" transform="translate(1189 2268)" fill="#d9deec"/>
    <rect id="Rectangle_1985" data-name="Rectangle 1985" width="40" height="6" rx="3" transform="translate(1189 2308)" fill="#d9deec"/>
    <rect id="Rectangle_1969" data-name="Rectangle 1969" width="40" height="6" rx="3" transform="translate(1275 2188)" fill="#d9deec"/>
    <rect id="Rectangle_1974" data-name="Rectangle 1974" width="40" height="6" rx="3" transform="translate(1275 2228)" fill="#d9deec"/>
    <rect id="Rectangle_1979" data-name="Rectangle 1979" width="40" height="6" rx="3" transform="translate(1275 2268)" fill="#d9deec"/>
    <rect id="Rectangle_1984" data-name="Rectangle 1984" width="40" height="6" rx="3" transform="translate(1275 2308)" fill="#d9deec"/>
    <rect id="Rectangle_1970" data-name="Rectangle 1970" width="40" height="6" rx="3" transform="translate(1359 2188)" fill="#d9deec"/>
    <rect id="Rectangle_1973" data-name="Rectangle 1973" width="40" height="6" rx="3" transform="translate(1359 2228)" fill="#d9deec"/>
    <rect id="Rectangle_1978" data-name="Rectangle 1978" width="40" height="6" rx="3" transform="translate(1359 2268)" fill="#d9deec"/>
    <rect id="Rectangle_1983" data-name="Rectangle 1983" width="40" height="6" rx="3" transform="translate(1359 2308)" fill="#d9deec"/>
    <rect id="Rectangle_1971" data-name="Rectangle 1971" width="40" height="6" rx="3" transform="translate(1445 2188)" fill="#d9deec"/>
    <rect id="Rectangle_1972" data-name="Rectangle 1972" width="40" height="6" rx="3" transform="translate(1445 2228)" fill="#d9deec"/>
    <rect id="Rectangle_1977" data-name="Rectangle 1977" width="40" height="6" rx="3" transform="translate(1445 2268)" fill="#d9deec"/>
    <rect id="Rectangle_1982" data-name="Rectangle 1982" width="40" height="6" rx="3" transform="translate(1445 2308)" fill="#d9deec"/>
  </g>
</svg>
