<svg xmlns="http://www.w3.org/2000/svg" xmlns:xlink="http://www.w3.org/1999/xlink" width="830" height="384" viewBox="0 0 830 384">
  <defs>
    <filter id="Group_5125" x="0" y="0" width="830" height="384" filterUnits="userSpaceOnUse">
      <feOffset dx="10" dy="30" input="SourceAlpha"/>
      <feGaussianBlur stdDeviation="15" result="blur"/>
      <feFlood flood-opacity="0.051"/>
      <feComposite operator="in" in2="blur"/>
      <feComposite in="SourceGraphic"/>
    </filter>
  </defs>
  <g id="Group_5325" data-name="Group 5325" transform="translate(-770 -3564)">
    <g transform="matrix(1, 0, 0, 1, 770, 3564)" filter="url(#Group_5125)">
      <rect id="Group_5125-2" data-name="Group 5125" width="740" height="294" rx="8" transform="translate(35 15)" fill="#fff"/>
    </g>
    <text id="Classe" transform="translate(830 3621)" fill="#484d61" font-size="13" font-family="CircularStd-Medium, Circular Std Medium" font-weight="500"><tspan x="0" y="0">Classe</tspan></text>
    <text id="Based_on" data-name="Based on" transform="translate(899 3621)" fill="#484d61" font-size="13" font-family="CircularStd-Medium, Circular Std Medium" font-weight="500"><tspan x="0" y="0">Based on</tspan></text>
    <text id="Min_Value" data-name="Min Value" transform="translate(1023 3621)" fill="#484d61" font-size="13" font-family="CircularStd-Medium, Circular Std Medium" font-weight="500"><tspan x="0" y="0">Min Value</tspan></text>
    <text id="Max_Value" data-name="Max Value" transform="translate(1098 3621)" fill="#484d61" font-size="13" font-family="CircularStd-Medium, Circular Std Medium" font-weight="500"><tspan x="0" y="0">Max Value</tspan></text>
    <text id="Min_Count" data-name="Min Count" transform="translate(1173 3621)" fill="#484d61" font-size="13" font-family="CircularStd-Medium, Circular Std Medium" font-weight="500"><tspan x="0" y="0">Min Count</tspan></text>
    <text id="Max_Count" data-name="Max Count" transform="translate(1258 3621)" fill="#484d61" font-size="13" font-family="CircularStd-Medium, Circular Std Medium" font-weight="500"><tspan x="0" y="0">Max Count</tspan></text>
    <text id="Rate" transform="translate(1343 3621)" fill="#484d61" font-size="13" font-family="CircularStd-Medium, Circular Std Medium" font-weight="500"><tspan x="0" y="0">Rate</tspan></text>
    <text id="Per_Item" data-name="Per Item" transform="translate(1400 3621)" fill="#484d61" font-size="13" font-family="CircularStd-Medium, Circular Std Medium" font-weight="500"><tspan x="0" y="0">Per Item</tspan></text>
    <text id="Per_kg" data-name="Per kg" transform="translate(1467 3620)" fill="#484d61" font-size="13" font-family="CircularStd-Medium, Circular Std Medium" font-weight="500"><tspan x="0" y="0">Per kg</tspan></text>
    <rect id="Rectangle_1938" data-name="Rectangle 1938" width="64" height="30" rx="3" transform="translate(830 3643)" fill="#f5f7fa"/>
    <rect id="Rectangle_1959" data-name="Rectangle 1959" width="64" height="30" rx="3" transform="translate(830 3723)" fill="#f5f7fa"/>
    <rect id="Rectangle_1945" data-name="Rectangle 1945" width="64" height="30" rx="3" transform="translate(830 3683)" fill="#f5f7fa"/>
    <rect id="Rectangle_1952" data-name="Rectangle 1952" width="64" height="30" rx="3" transform="translate(830 3763)" fill="#f5f7fa"/>
    <rect id="Rectangle_1940" data-name="Rectangle 1940" width="70" height="30" rx="3" transform="translate(1023 3643)" fill="#f5f7fa"/>
    <rect id="Rectangle_1960" data-name="Rectangle 1960" width="70" height="30" rx="3" transform="translate(1023 3723)" fill="#f5f7fa"/>
    <rect id="Rectangle_1946" data-name="Rectangle 1946" width="70" height="30" rx="3" transform="translate(1023 3683)" fill="#f5f7fa"/>
    <rect id="Rectangle_1953" data-name="Rectangle 1953" width="70" height="30" rx="3" transform="translate(1023 3763)" fill="#f5f7fa"/>
    <rect id="Rectangle_1942" data-name="Rectangle 1942" width="62" height="30" rx="3" transform="translate(1400 3643)" fill="#f5f7fa"/>
    <rect id="Rectangle_1961" data-name="Rectangle 1961" width="62" height="30" rx="3" transform="translate(1400 3723)" fill="#f5f7fa"/>
    <rect id="Rectangle_1947" data-name="Rectangle 1947" width="62" height="30" rx="3" transform="translate(1400 3683)" fill="#f5f7fa"/>
    <rect id="Rectangle_1954" data-name="Rectangle 1954" width="62" height="30" rx="3" transform="translate(1400 3763)" fill="#f5f7fa"/>
    <rect id="Rectangle_1939" data-name="Rectangle 1939" width="119" height="30" rx="3" transform="translate(899 3643)" fill="#151826"/>
    <rect id="Rectangle_1962" data-name="Rectangle 1962" width="119" height="30" rx="3" transform="translate(899 3723)" fill="#151826"/>
    <rect id="Rectangle_1948" data-name="Rectangle 1948" width="119" height="30" rx="3" transform="translate(899 3683)" fill="#151826"/>
    <rect id="Rectangle_1955" data-name="Rectangle 1955" width="119" height="30" rx="3" transform="translate(899 3763)" fill="#151826"/>
    <rect id="Rectangle_1943" data-name="Rectangle 1943" width="52" height="30" rx="3" transform="translate(1343 3643)" fill="#f5f7fa"/>
    <rect id="Rectangle_1963" data-name="Rectangle 1963" width="52" height="30" rx="3" transform="translate(1343 3723)" fill="#f5f7fa"/>
    <rect id="Rectangle_1949" data-name="Rectangle 1949" width="52" height="30" rx="3" transform="translate(1343 3683)" fill="#f5f7fa"/>
    <rect id="Rectangle_1956" data-name="Rectangle 1956" width="52" height="30" rx="3" transform="translate(1343 3763)" fill="#f5f7fa"/>
    <rect id="Rectangle_1941" data-name="Rectangle 1941" width="70" height="30" rx="3" transform="translate(1098 3643)" fill="#f5f7fa"/>
    <rect id="Rectangle_1987" data-name="Rectangle 1987" width="80" height="30" rx="3" transform="translate(1173 3643)" fill="#f5f7fa"/>
    <rect id="Rectangle_1995" data-name="Rectangle 1995" width="80" height="30" rx="3" transform="translate(1258 3643)" fill="#f5f7fa"/>
    <rect id="Rectangle_1964" data-name="Rectangle 1964" width="70" height="30" rx="3" transform="translate(1098 3723)" fill="#f5f7fa"/>
    <rect id="Rectangle_1990" data-name="Rectangle 1990" width="80" height="30" rx="3" transform="translate(1173 3723)" fill="#f5f7fa"/>
    <rect id="Rectangle_1999" data-name="Rectangle 1999" width="80" height="30" rx="3" transform="translate(1258 3723)" fill="#f5f7fa"/>
    <rect id="Rectangle_1950" data-name="Rectangle 1950" width="70" height="30" rx="3" transform="translate(1098 3683)" fill="#f5f7fa"/>
    <rect id="Rectangle_1988" data-name="Rectangle 1988" width="80" height="30" rx="3" transform="translate(1173 3683)" fill="#f5f7fa"/>
    <rect id="Rectangle_1996" data-name="Rectangle 1996" width="80" height="30" rx="3" transform="translate(1258 3683)" fill="#f5f7fa"/>
    <rect id="Rectangle_1957" data-name="Rectangle 1957" width="70" height="30" rx="3" transform="translate(1098 3763)" fill="#f5f7fa"/>
    <rect id="Rectangle_1993" data-name="Rectangle 1993" width="80" height="30" rx="3" transform="translate(1173 3763)" fill="#f5f7fa"/>
    <rect id="Rectangle_2001" data-name="Rectangle 2001" width="80" height="30" rx="3" transform="translate(1258 3763)" fill="#f5f7fa"/>
    <rect id="Rectangle_1944" data-name="Rectangle 1944" width="55" height="30" rx="3" transform="translate(1467 3643)" fill="#f5f7fa"/>
    <rect id="Rectangle_1965" data-name="Rectangle 1965" width="55" height="30" rx="3" transform="translate(1467 3723)" fill="#f5f7fa"/>
    <rect id="Rectangle_1951" data-name="Rectangle 1951" width="55" height="30" rx="3" transform="translate(1467 3683)" fill="#f5f7fa"/>
    <rect id="Rectangle_1958" data-name="Rectangle 1958" width="55" height="30" rx="3" transform="translate(1467 3763)" fill="#f5f7fa"/>
    <text id="T-Shirts" transform="translate(839 3662)" fill="#7b839b" font-size="12" font-family="CircularStd-Book, Circular Std Book"><tspan x="0" y="0">T-Shirts</tspan></text>
    <text id="Jersey" transform="translate(839 3742)" fill="#7b839b" font-size="12" font-family="CircularStd-Book, Circular Std Book"><tspan x="0" y="0">Jersey</tspan></text>
    <text id="Hoodies" transform="translate(839 3702)" fill="#7b839b" font-size="12" font-family="CircularStd-Book, Circular Std Book"><tspan x="0" y="0">Hoodies</tspan></text>
    <text id="Sweater" transform="translate(839 3782)" fill="#7b839b" font-size="12" font-family="CircularStd-Book, Circular Std Book"><tspan x="0" y="0">Sweater</tspan></text>
    <text id="Price_Item_Count" data-name="Price &amp; Item Count" transform="translate(907 3662)" fill="#fff" font-size="12" font-family="CircularStd-Medium, Circular Std Medium" font-weight="500"><tspan x="0" y="0">Price &amp; Item Count</tspan></text>
    <text id="Price_Item_Count-2" data-name="Price &amp; Item Count" transform="translate(907 3742)" fill="#fff" font-size="12" font-family="CircularStd-Medium, Circular Std Medium" font-weight="500"><tspan x="0" y="0">Price &amp; Item Count</tspan></text>
    <text id="Price_Item_Count-3" data-name="Price &amp; Item Count" transform="translate(907 3702)" fill="#fff" font-size="12" font-family="CircularStd-Medium, Circular Std Medium" font-weight="500"><tspan x="0" y="0">Price &amp; Item Count</tspan></text>
    <text id="Price_Item_Count-4" data-name="Price &amp; Item Count" transform="translate(907 3782)" fill="#fff" font-size="12" font-family="CircularStd-Medium, Circular Std Medium" font-weight="500"><tspan x="0" y="0">Price &amp; Item Count</tspan></text>
    <g id="Group_5316" data-name="Group 5316" transform="translate(-75 1477)">
      <rect id="Rectangle_1966" data-name="Rectangle 1966" width="119" height="30" rx="3" transform="translate(905 2336)" fill="#ebeef5"/>
      <text id="Add_New_Rate" data-name="Add New Rate" transform="translate(933 2355)" fill="#484d61" font-size="12" font-family="CircularStd-Medium, Circular Std Medium" font-weight="500"><tspan x="0" y="0">Add New Rate</tspan></text>
      <path id="Icon_open-plus" data-name="Icon open-plus" d="M3.75,0V3.75H0v2.5H3.75V10h2.5V6.25H10V3.75H6.25V0Z" transform="translate(917 2346)" fill="#484d61"/>
    </g>
    <rect id="Rectangle_1967" data-name="Rectangle 1967" width="40" height="6" rx="3" transform="translate(1033 3655)" fill="#d9deec"/>
    <rect id="Rectangle_1976" data-name="Rectangle 1976" width="40" height="6" rx="3" transform="translate(1033 3695)" fill="#d9deec"/>
    <rect id="Rectangle_1981" data-name="Rectangle 1981" width="40" height="6" rx="3" transform="translate(1033 3735)" fill="#d9deec"/>
    <rect id="Rectangle_1986" data-name="Rectangle 1986" width="40" height="6" rx="3" transform="translate(1033 3775)" fill="#d9deec"/>
    <rect id="Rectangle_1968" data-name="Rectangle 1968" width="40" height="6" rx="3" transform="translate(1107 3655)" fill="#d9deec"/>
    <rect id="Rectangle_1989" data-name="Rectangle 1989" width="40" height="6" rx="3" transform="translate(1182 3655)" fill="#d9deec"/>
    <rect id="Rectangle_1997" data-name="Rectangle 1997" width="40" height="6" rx="3" transform="translate(1267 3655)" fill="#d9deec"/>
    <rect id="Rectangle_1975" data-name="Rectangle 1975" width="40" height="6" rx="3" transform="translate(1107 3695)" fill="#d9deec"/>
    <rect id="Rectangle_1991" data-name="Rectangle 1991" width="40" height="6" rx="3" transform="translate(1182 3695)" fill="#d9deec"/>
    <rect id="Rectangle_1998" data-name="Rectangle 1998" width="40" height="6" rx="3" transform="translate(1267 3695)" fill="#d9deec"/>
    <rect id="Rectangle_1980" data-name="Rectangle 1980" width="40" height="6" rx="3" transform="translate(1107 3735)" fill="#d9deec"/>
    <rect id="Rectangle_1992" data-name="Rectangle 1992" width="40" height="6" rx="3" transform="translate(1182 3735)" fill="#d9deec"/>
    <rect id="Rectangle_2000" data-name="Rectangle 2000" width="40" height="6" rx="3" transform="translate(1267 3735)" fill="#d9deec"/>
    <rect id="Rectangle_1985" data-name="Rectangle 1985" width="40" height="6" rx="3" transform="translate(1107 3775)" fill="#d9deec"/>
    <rect id="Rectangle_1994" data-name="Rectangle 1994" width="40" height="6" rx="3" transform="translate(1182 3775)" fill="#d9deec"/>
    <rect id="Rectangle_2002" data-name="Rectangle 2002" width="40" height="6" rx="3" transform="translate(1267 3775)" fill="#d9deec"/>
    <rect id="Rectangle_1969" data-name="Rectangle 1969" width="30" height="6" rx="3" transform="translate(1352 3655)" fill="#d9deec"/>
    <rect id="Rectangle_1974" data-name="Rectangle 1974" width="30" height="6" rx="3" transform="translate(1352 3695)" fill="#d9deec"/>
    <rect id="Rectangle_1979" data-name="Rectangle 1979" width="30" height="6" rx="3" transform="translate(1352 3735)" fill="#d9deec"/>
    <rect id="Rectangle_1984" data-name="Rectangle 1984" width="30" height="6" rx="3" transform="translate(1352 3775)" fill="#d9deec"/>
    <rect id="Rectangle_1970" data-name="Rectangle 1970" width="40" height="6" rx="3" transform="translate(1409 3655)" fill="#d9deec"/>
    <rect id="Rectangle_1973" data-name="Rectangle 1973" width="40" height="6" rx="3" transform="translate(1409 3695)" fill="#d9deec"/>
    <rect id="Rectangle_1978" data-name="Rectangle 1978" width="40" height="6" rx="3" transform="translate(1409 3735)" fill="#d9deec"/>
    <rect id="Rectangle_1983" data-name="Rectangle 1983" width="40" height="6" rx="3" transform="translate(1409 3775)" fill="#d9deec"/>
    <rect id="Rectangle_1971" data-name="Rectangle 1971" width="35" height="6" rx="3" transform="translate(1476 3655)" fill="#d9deec"/>
    <rect id="Rectangle_1972" data-name="Rectangle 1972" width="35" height="6" rx="3" transform="translate(1476 3695)" fill="#d9deec"/>
    <rect id="Rectangle_1977" data-name="Rectangle 1977" width="35" height="6" rx="3" transform="translate(1476 3735)" fill="#d9deec"/>
    <rect id="Rectangle_1982" data-name="Rectangle 1982" width="35" height="6" rx="3" transform="translate(1476 3775)" fill="#d9deec"/>
  </g>
</svg>
