<svg width="313" height="451" viewBox="0 0 313 451" fill="none" xmlns="http://www.w3.org/2000/svg">
<path d="M17.61 108.54C14.946 108.54 12.786 107.712 11.13 106.056C9.474 104.4 8.646 102.24 8.646 99.576V78.624C8.646 75.96 9.474 73.8 11.13 72.144C12.786 70.488 14.946 69.66 17.61 69.66C20.274 69.66 22.434 70.488 24.09 72.144C25.746 73.8 26.574 75.96 26.574 78.624V83.052H20.958V78.624C20.958 77.544 20.652 76.68 20.04 76.032C19.428 75.384 18.636 75.06 17.664 75.06C16.692 75.06 15.9 75.384 15.288 76.032C14.676 76.68 14.37 77.544 14.37 78.624V99.576C14.37 100.656 14.676 101.52 15.288 102.168C15.9 102.816 16.692 103.14 17.664 103.14C18.636 103.14 19.428 102.816 20.04 102.168C20.652 101.52 20.958 100.656 20.958 99.576V94.176H26.574V99.576C26.574 102.24 25.746 104.4 24.09 106.056C22.434 107.712 20.274 108.54 17.61 108.54ZM50.3939 70.2L42.7259 92.178V108H37.0019V92.178L29.3339 70.2H35.4359L39.8639 84.618L44.3999 70.2H50.3939ZM68.791 88.452C70.195 89.1 71.257 90.054 71.977 91.314C72.733 92.574 73.111 94.104 73.111 95.904V98.982C73.111 101.718 72.301 103.914 70.681 105.57C69.061 107.19 66.883 108 64.147 108H54.589V70.2H63.661C66.397 70.2 68.575 71.028 70.195 72.684C71.815 74.304 72.625 76.482 72.625 79.218V81.216C72.625 84.6 71.347 87.012 68.791 88.452ZM60.313 75.6V85.86H62.851C64.219 85.86 65.227 85.536 65.875 84.888C66.559 84.204 66.901 83.178 66.901 81.81V79.11C66.901 77.994 66.595 77.13 65.983 76.518C65.371 75.906 64.507 75.6 63.391 75.6H60.313ZM67.387 95.31C67.387 93.942 67.045 92.934 66.361 92.286C65.713 91.602 64.705 91.26 63.337 91.26H60.313V102.6H63.877C64.993 102.6 65.857 102.294 66.469 101.682C67.081 101.07 67.387 100.206 67.387 99.09V95.31ZM78.3195 70.2H94.5735V75.6H84.0435V86.13H92.4135V91.53H84.0435V102.6H94.5735V108H78.3195V70.2ZM112.213 108L108.055 92.394H105.085V108H99.3605V70.2H108.325C111.061 70.2 113.239 71.028 114.859 72.684C116.479 74.304 117.289 76.482 117.289 79.218V83.376C117.289 85.104 116.947 86.634 116.263 87.966C115.579 89.298 114.607 90.342 113.347 91.098L118.153 108H112.213ZM105.085 86.994H108.055C109.171 86.994 110.035 86.688 110.647 86.076C111.259 85.464 111.565 84.6 111.565 83.484V79.11C111.565 77.994 111.259 77.13 110.647 76.518C110.035 75.906 109.171 75.6 108.055 75.6H105.085V86.994ZM159.666 70.2V108H153.942V82.08L148.596 108H144.6L139.254 82.08V108H133.638V70.2H141.738L146.706 94.338L151.458 70.2H159.666ZM174.605 108.54C171.869 108.54 169.655 107.712 167.963 106.056C166.271 104.364 165.425 102.15 165.425 99.414V78.786C165.425 76.05 166.271 73.854 167.963 72.198C169.655 70.506 171.869 69.66 174.605 69.66C177.341 69.66 179.555 70.506 181.247 72.198C182.939 73.854 183.785 76.05 183.785 78.786V99.414C183.785 102.15 182.939 104.364 181.247 106.056C179.555 107.712 177.341 108.54 174.605 108.54ZM174.605 103.14C175.685 103.14 176.531 102.816 177.143 102.168C177.755 101.52 178.061 100.602 178.061 99.414V78.786C178.061 77.598 177.755 76.68 177.143 76.032C176.531 75.384 175.685 75.06 174.605 75.06C173.525 75.06 172.679 75.384 172.067 76.032C171.455 76.68 171.149 77.598 171.149 78.786V99.414C171.149 100.602 171.455 101.52 172.067 102.168C172.679 102.816 173.525 103.14 174.605 103.14ZM189.589 70.2H195.907L203.197 95.58V70.2H208.813V108H202.765L195.205 83.808V108H189.589V70.2ZM215.06 70.2H224.024C226.76 70.2 228.938 71.028 230.558 72.684C232.178 74.304 232.988 76.482 232.988 79.218V98.982C232.988 101.718 232.178 103.914 230.558 105.57C228.938 107.19 226.76 108 224.024 108H215.06V70.2ZM223.754 102.6C224.87 102.6 225.734 102.294 226.346 101.682C226.958 101.07 227.264 100.206 227.264 99.09V79.11C227.264 77.994 226.958 77.13 226.346 76.518C225.734 75.906 224.87 75.6 223.754 75.6H220.784V102.6H223.754ZM249.971 99.63H243.815L242.573 108H236.849L243.113 70.2H250.781L257.045 108H251.213L249.971 99.63ZM249.215 94.122L246.893 78.3L244.571 94.122H249.215ZM278.154 70.2L270.486 92.178V108H264.762V92.178L257.094 70.2H263.196L267.624 84.618L272.16 70.2H278.154Z" fill="url(#paint0_linear_350_66)"/>
<path d="M25.26 32.28C26.82 33 28 34.06 28.8 35.46C29.64 36.86 30.06 38.56 30.06 40.56V43.98C30.06 47.02 29.16 49.46 27.36 51.3C25.56 53.1 23.14 54 20.1 54H9.48V12H19.56C22.6 12 25.02 12.92 26.82 14.76C28.62 16.56 29.52 18.98 29.52 22.02V24.24C29.52 28 28.1 30.68 25.26 32.28ZM15.84 18V29.4H18.66C20.18 29.4 21.3 29.04 22.02 28.32C22.78 27.56 23.16 26.42 23.16 24.9V21.9C23.16 20.66 22.82 19.7 22.14 19.02C21.46 18.34 20.5 18 19.26 18H15.84ZM23.7 39.9C23.7 38.38 23.32 37.26 22.56 36.54C21.84 35.78 20.72 35.4 19.2 35.4H15.84V48H19.8C21.04 48 22 47.66 22.68 46.98C23.36 46.3 23.7 45.34 23.7 44.1V39.9ZM35.8472 12H42.2072V48H53.5472V54H35.8472V12ZM71.5903 44.7H64.7503L63.3703 54H57.0103L63.9703 12H72.4903L79.4503 54H72.9703L71.5903 44.7ZM70.7503 38.58L68.1703 21L65.5903 38.58H70.7503ZM93.7242 54.6C90.7642 54.6 88.3642 53.68 86.5242 51.84C84.6842 50 83.7642 47.6 83.7642 44.64V21.36C83.7642 18.4 84.6842 16 86.5242 14.16C88.3642 12.32 90.7642 11.4 93.7242 11.4C96.6842 11.4 99.0842 12.32 100.924 14.16C102.764 16 103.684 18.4 103.684 21.36V26.28H97.4442V21.36C97.4442 20.16 97.1042 19.2 96.4242 18.48C95.7442 17.76 94.8642 17.4 93.7842 17.4C92.7042 17.4 91.8242 17.76 91.1442 18.48C90.4642 19.2 90.1242 20.16 90.1242 21.36V44.64C90.1242 45.84 90.4642 46.8 91.1442 47.52C91.8242 48.24 92.7042 48.6 93.7842 48.6C94.8642 48.6 95.7442 48.24 96.4242 47.52C97.1042 46.8 97.4442 45.84 97.4442 44.64V38.64H103.684V44.64C103.684 47.6 102.764 50 100.924 51.84C99.0842 53.68 96.6842 54.6 93.7242 54.6ZM118.26 36.72L115.86 41.34V54H109.5V12H115.86V29.04L124.26 12H131.1L122.16 29.82L131.76 54H124.92L118.26 36.72ZM148.523 12H166.283V18H154.883V30.3H163.883V36.3H154.883V54H148.523V12ZM185.479 54L180.859 36.66H177.559V54H171.199V12H181.159C184.199 12 186.619 12.92 188.419 14.76C190.219 16.56 191.119 18.98 191.119 22.02V26.64C191.119 28.56 190.739 30.26 189.979 31.74C189.219 33.22 188.139 34.38 186.739 35.22L192.079 54H185.479ZM177.559 30.66H180.859C182.099 30.66 183.059 30.32 183.739 29.64C184.419 28.96 184.759 28 184.759 26.76V21.9C184.759 20.66 184.419 19.7 183.739 19.02C183.059 18.34 182.099 18 180.859 18H177.559V30.66ZM197.273 12H203.633V54H197.273V12ZM210.574 12H220.534C223.574 12 225.994 12.92 227.794 14.76C229.594 16.56 230.494 18.98 230.494 22.02V43.98C230.494 47.02 229.594 49.46 227.794 51.3C225.994 53.1 223.574 54 220.534 54H210.574V12ZM220.234 48C221.474 48 222.434 47.66 223.114 46.98C223.794 46.3 224.134 45.34 224.134 44.1V21.9C224.134 20.66 223.794 19.7 223.114 19.02C222.434 18.34 221.474 18 220.234 18H216.934V48H220.234ZM249.364 44.7H242.524L241.144 54H234.784L241.744 12H250.264L257.224 54H250.744L249.364 44.7ZM248.524 38.58L245.944 21L243.364 38.58H248.524ZM280.678 12L272.158 36.42V54H265.798V36.42L257.278 12H264.058L268.978 28.02L274.018 12H280.678Z" fill="url(#paint1_linear_350_66)"/>
<path d="M311.351 409.593H164.538L208.043 329.485H311.351L285.926 369.539L311.351 409.593Z" fill="white"/>
<path d="M297.077 142.58C242.876 245.8 185.134 349.461 126.495 450.215C132.968 437.053 139.657 424.006 146.231 410.907C179.066 346.541 213.961 279.696 248.275 216.164C260.311 193.95 278.29 160.812 290.591 139.078C292.981 135.045 299.189 138.18 297.09 142.593L297.077 142.58Z" fill="url(#paint2_linear_350_66)"/>
<path d="M243.142 147.675C232.774 147.675 224.215 156.475 224.215 172.153C224.341 187.944 232.774 195.783 242.535 195.783C252.295 195.783 261.335 187.59 261.335 171.065C261.335 156.121 254.103 147.675 243.129 147.675H243.142ZM242.775 189.385C236.15 189.385 232.408 181.787 232.648 171.786C232.648 161.899 236.137 154.06 242.775 154.06C250.133 154.06 252.902 162.013 252.902 171.546C252.902 181.913 249.767 189.385 242.775 189.385Z" fill="url(#paint3_linear_350_66)"/>
<path d="M294.258 180.105C283.891 180.105 275.331 188.905 275.331 204.696C275.457 220.374 283.891 228.2 293.651 228.2C303.412 228.2 312.338 220.007 312.338 203.483C312.338 188.538 305.22 180.093 294.258 180.093V180.105ZM293.891 221.815C287.38 221.815 283.524 214.217 283.65 204.216C283.65 194.329 287.266 186.49 293.891 186.49C301.25 186.49 304.019 194.443 304.019 203.976C304.019 214.343 300.883 221.815 293.891 221.815Z" fill="url(#paint4_linear_350_66)"/>
<path d="M164.804 379.856C157.345 377.592 152.894 371.005 152.894 358.135V234.003C152.894 217.58 160.113 211.347 171.619 211.347C183.124 211.347 190.331 217.58 190.331 234.003V332.671L226.452 265.877V236.292C226.452 199.513 207.083 178.487 171.606 178.487C136.129 178.487 116.76 199.5 116.76 236.292V355.833C116.76 383.623 127.823 402.411 148.532 409.934L164.791 379.856H164.804Z" fill="url(#paint5_linear_350_66)"/>
<path d="M208.524 360.789C208.524 353.482 212.368 349.309 219.423 349.309C226.478 349.309 230.321 353.482 230.321 360.789V384.546C230.321 391.854 226.465 396.026 219.423 396.026C212.381 396.026 208.524 391.854 208.524 384.546V360.789ZM215.706 385.001C215.706 388.263 217.134 389.502 219.423 389.502C221.711 389.502 223.14 388.263 223.14 385.001V360.334C223.14 357.072 221.699 355.833 219.423 355.833C217.147 355.833 215.706 357.072 215.706 360.334V385.001Z" fill="#1A1A1A"/>
<path d="M242.117 370.12H251.384V376.644H242.117V395.495H234.936V349.815H253.926V356.339H242.117V370.107V370.12Z" fill="#1A1A1A"/>
<path d="M264.559 370.12H273.826V376.644H264.559V395.495H257.377V349.815H276.367V356.339H264.559V370.107V370.12Z" fill="#1A1A1A"/>
<path d="M33.8712 332.874V354.051C33.8712 370.336 41.0399 376.202 52.4441 376.202C63.8483 376.202 71.0043 370.336 71.0043 354.051V303.895C71.0043 287.611 63.8356 281.416 52.4441 281.416C41.0525 281.416 33.8712 287.598 33.8712 303.895V310.735H0L6.51126 178.5H100.969V211.069H38.7641L35.8309 265.46C42.3421 254.713 52.7728 248.847 67.0976 248.847C93.484 248.847 106.835 267.407 106.835 300.962V351.775C106.835 388.251 88.6037 409.1 53.4176 409.1C18.2315 409.1 0 388.251 0 351.763V332.874H33.8712Z" fill="url(#paint6_linear_350_66)"/>
<rect x="6" y="136" width="94.8241" height="32.8724" fill="white"/>
<path d="M31.446 164.555C29.7913 164.555 28.4427 164.045 27.4 163.025C26.3573 161.982 25.836 160.634 25.836 158.979V140.415H29.44V158.979C29.44 159.659 29.6213 160.192 29.984 160.577C30.3693 160.962 30.8567 161.155 31.446 161.155C32.0353 161.155 32.5113 160.962 32.874 160.577C33.2593 160.192 33.452 159.659 33.452 158.979V140.415H36.988V158.979C36.988 160.634 36.478 161.982 35.458 163.025C34.438 164.045 33.1007 164.555 31.446 164.555ZM40.7806 140.415H46.4246C48.1473 140.415 49.5186 140.936 50.5386 141.979C51.5586 142.999 52.0686 144.37 52.0686 146.093V148.881C52.0686 150.604 51.5586 151.986 50.5386 153.029C49.5186 154.049 48.1473 154.559 46.4246 154.559H44.3846V164.215H40.7806V140.415ZM46.2546 151.159C46.9573 151.159 47.5013 150.966 47.8866 150.581C48.2719 150.196 48.4646 149.652 48.4646 148.949V146.025C48.4646 145.322 48.2719 144.778 47.8866 144.393C47.5013 144.008 46.9573 143.815 46.2546 143.815H44.3846V151.159H46.2546ZM53.9351 140.415H65.4271V143.815H61.4831V164.215H57.8791V143.815H53.9351V140.415ZM73.6804 164.555C71.9577 164.555 70.5637 164.034 69.4984 162.991C68.433 161.926 67.9004 160.532 67.9004 158.809V145.821C67.9004 144.098 68.433 142.716 69.4984 141.673C70.5637 140.608 71.9577 140.075 73.6804 140.075C75.403 140.075 76.797 140.608 77.8624 141.673C78.9277 142.716 79.4604 144.098 79.4604 145.821V158.809C79.4604 160.532 78.9277 161.926 77.8624 162.991C76.797 164.034 75.403 164.555 73.6804 164.555ZM73.6804 161.155C74.3604 161.155 74.893 160.951 75.2784 160.543C75.6637 160.135 75.8564 159.557 75.8564 158.809V145.821C75.8564 145.073 75.6637 144.495 75.2784 144.087C74.893 143.679 74.3604 143.475 73.6804 143.475C73.0004 143.475 72.4677 143.679 72.0824 144.087C71.697 144.495 71.5044 145.073 71.5044 145.821V158.809C71.5044 159.557 71.697 160.135 72.0824 160.543C72.4677 160.951 73.0004 161.155 73.6804 161.155Z" fill="#1A1A1A"/>
<defs>
<linearGradient id="paint0_linear_350_66" x1="-53.8016" y1="93.5155" x2="-6.69268" y2="204.561" gradientUnits="userSpaceOnUse">
<stop stop-color="#FFFA8A"/>
<stop offset="1" stop-color="#85FAC9"/>
</linearGradient>
<linearGradient id="paint1_linear_350_66" x1="-54.2381" y1="38.3505" x2="1.65203" y2="157.787" gradientUnits="userSpaceOnUse">
<stop stop-color="#FFFA8A"/>
<stop offset="1" stop-color="#85FAC9"/>
</linearGradient>
<linearGradient id="paint2_linear_350_66" x1="212.006" y1="137.215" x2="290.694" y2="483.363" gradientUnits="userSpaceOnUse">
<stop stop-color="#FEE101"/>
<stop offset="1" stop-color="#FF2E00"/>
</linearGradient>
<linearGradient id="paint3_linear_350_66" x1="242.775" y1="147.675" x2="251.554" y2="202.214" gradientUnits="userSpaceOnUse">
<stop stop-color="#FEE101"/>
<stop offset="1" stop-color="#FF2E00"/>
</linearGradient>
<linearGradient id="paint4_linear_350_66" x1="293.834" y1="180.093" x2="302.639" y2="234.623" gradientUnits="userSpaceOnUse">
<stop stop-color="#FEE101"/>
<stop offset="1" stop-color="#FF2E00"/>
</linearGradient>
<linearGradient id="paint5_linear_350_66" x1="171.606" y1="178.487" x2="237.619" y2="430.372" gradientUnits="userSpaceOnUse">
<stop stop-color="#FEE101"/>
<stop offset="1" stop-color="#FF2E00"/>
</linearGradient>
<linearGradient id="paint6_linear_350_66" x1="53.4176" y1="178.5" x2="120.5" y2="428.715" gradientUnits="userSpaceOnUse">
<stop stop-color="#FEE101"/>
<stop offset="1" stop-color="#FF2E00"/>
</linearGradient>
</defs>
</svg>
