<svg xmlns="http://www.w3.org/2000/svg" xmlns:xlink="http://www.w3.org/1999/xlink" width="600" height="480" viewBox="0 0 600 480">
  <defs>
    <filter id="Rectangle_988" x="245" y="5" width="350" height="470" filterUnits="userSpaceOnUse">
      <feOffset input="SourceAlpha"/>
      <feGaussianBlur stdDeviation="15" result="blur"/>
      <feFlood flood-color="#355344" flood-opacity="0.051"/>
      <feComposite operator="in" in2="blur"/>
      <feComposite in="SourceGraphic"/>
    </filter>
    <filter id="Ellipse_253" x="320" y="29" width="211" height="210" filterUnits="userSpaceOnUse">
      <feOffset dy="5" input="SourceAlpha"/>
      <feGaussianBlur stdDeviation="25" result="blur-2"/>
      <feFlood flood-opacity="0.149"/>
      <feComposite operator="in" in2="blur-2"/>
      <feComposite in="SourceGraphic"/>
    </filter>
  </defs>
  <g id="feature_3" data-name="feature 3" transform="translate(-928 -2150)">
    <rect id="_01_All_Massages" data-name="01_All Massages" width="600" height="480" rx="30" transform="translate(928 2150)" fill="#cef0dd"/>
    <g id="Group_10941" data-name="Group 10941" transform="translate(-29 20)">
      <g transform="matrix(1, 0, 0, 1, 957, 2130)" filter="url(#Rectangle_988)">
        <rect id="Rectangle_988-2" data-name="Rectangle 988" width="260" height="380" rx="20" transform="translate(290 50)" fill="#fff"/>
      </g>
      <g id="Group_2607" data-name="Group 2607" transform="translate(1247 2317.516)">
        <path id="Path_1265" data-name="Path 1265" d="M394.452,181.044a.724.724,0,0,0-.724.724v13.155a.724.724,0,1,0,1.447,0V181.768A.724.724,0,0,0,394.452,181.044Z" transform="translate(-382.15 -169.456)" fill="#6551f2"/>
        <path id="Path_1396" data-name="Path 1396" d="M394.452,181.044a.724.724,0,0,0-.724.724v13.155a.724.724,0,1,0,1.447,0V181.768A.724.724,0,0,0,394.452,181.044Z" transform="translate(-247.713 -169.456)" fill="#6551f2"/>
        <path id="Path_1372" data-name="Path 1372" d="M394.452,181.044a.724.724,0,0,0-.724.724v13.155a.724.724,0,1,0,1.447,0V181.768A.724.724,0,0,0,394.452,181.044Z" transform="translate(-313.644 -169.456)" fill="#6551f2"/>
        <path id="Path_1421" data-name="Path 1421" d="M394.452,181.044a.724.724,0,0,0-.724.724v13.155a.724.724,0,1,0,1.447,0V181.768A.724.724,0,0,0,394.452,181.044Z" transform="translate(-179.207 -169.456)" fill="#6551f2"/>
        <path id="Path_1266" data-name="Path 1266" d="M413.5,189.426h0a.724.724,0,0,0-.724.724v6.568a.724.724,0,0,0,.724.724h0a.724.724,0,0,0,.724-.724V190.15A.724.724,0,0,0,413.5,189.426Z" transform="translate(-398.299 -174.619)" fill="#6551f2"/>
        <path id="Path_1397" data-name="Path 1397" d="M413.5,189.426h0a.724.724,0,0,0-.724.724v6.568a.724.724,0,0,0,.724.724h0a.724.724,0,0,0,.724-.724V190.15A.724.724,0,0,0,413.5,189.426Z" transform="translate(-263.862 -174.619)" fill="#6551f2"/>
        <path id="Path_1379" data-name="Path 1379" d="M413.5,189.426h0a.724.724,0,0,0-.724.724v6.568a.724.724,0,0,0,.724.724h0a.724.724,0,0,0,.724-.724V190.15A.724.724,0,0,0,413.5,189.426Z" transform="translate(-329.793 -174.619)" fill="#6551f2"/>
        <path id="Path_1422" data-name="Path 1422" d="M413.5,189.426h0a.724.724,0,0,0-.724.724v6.568a.724.724,0,0,0,.724.724h0a.724.724,0,0,0,.724-.724V190.15A.724.724,0,0,0,413.5,189.426Z" transform="translate(-195.357 -174.619)" fill="#6551f2"/>
        <path id="Path_1267" data-name="Path 1267" d="M337.32,180.453a.724.724,0,0,0-.724.724v6.493a.626.626,0,0,0,.626.626h.195a.626.626,0,0,0,.626-.626v-6.493A.724.724,0,0,0,337.32,180.453Z" transform="translate(-333.702 -165.646)" fill="#6551f2"/>
        <path id="Path_1398" data-name="Path 1398" d="M337.32,180.453a.724.724,0,0,0-.724.724v6.493a.626.626,0,0,0,.626.626h.195a.626.626,0,0,0,.626-.626v-6.493A.724.724,0,0,0,337.32,180.453Z" transform="translate(-199.265 -165.646)" fill="#6551f2"/>
        <path id="Path_1380" data-name="Path 1380" d="M337.32,180.453a.724.724,0,0,0-.724.724v6.493a.626.626,0,0,0,.626.626h.195a.626.626,0,0,0,.626-.626v-6.493A.724.724,0,0,0,337.32,180.453Z" transform="translate(-265.196 -165.646)" fill="#6551f2"/>
        <path id="Path_1423" data-name="Path 1423" d="M337.32,180.453a.724.724,0,0,0-.724.724v6.493a.626.626,0,0,0,.626.626h.195a.626.626,0,0,0,.626-.626v-6.493A.724.724,0,0,0,337.32,180.453Z" transform="translate(-130.759 -165.646)" fill="#6551f2"/>
        <path id="Path_1270" data-name="Path 1270" d="M584.892,223.676a.724.724,0,0,0-.724.724v14.759a.724.724,0,0,0,1.447,0V224.4A.724.724,0,0,0,584.892,223.676Z" transform="translate(-544.127 -213.375)" fill="#6551f2"/>
        <path id="Path_1399" data-name="Path 1399" d="M584.892,223.676a.724.724,0,0,0-.724.724v14.759a.724.724,0,0,0,1.447,0V224.4A.724.724,0,0,0,584.892,223.676Z" transform="translate(-409.69 -213.375)" fill="#6551f2"/>
        <path id="Path_1381" data-name="Path 1381" d="M584.892,223.676a.724.724,0,0,0-.724.724v14.759a.724.724,0,0,0,1.447,0V224.4A.724.724,0,0,0,584.892,223.676Z" transform="translate(-475.621 -213.375)" fill="#6551f2"/>
        <path id="Path_1424" data-name="Path 1424" d="M584.892,223.676a.724.724,0,0,0-.724.724v14.759a.724.724,0,0,0,1.447,0V224.4A.724.724,0,0,0,584.892,223.676Z" transform="translate(-341.184 -213.375)" fill="#6551f2"/>
        <path id="Path_1271" data-name="Path 1271" d="M603.936,146.725a.724.724,0,0,0-.724.724V164.5a.724.724,0,0,0,1.447,0V147.449A.724.724,0,0,0,603.936,146.725Z" transform="translate(-560.276 -137.068)" fill="#6551f2"/>
        <path id="Path_1400" data-name="Path 1400" d="M603.936,146.725a.724.724,0,0,0-.724.724V164.5a.724.724,0,0,0,1.447,0V147.449A.724.724,0,0,0,603.936,146.725Z" transform="translate(-425.839 -137.068)" fill="#6551f2"/>
        <path id="Path_1382" data-name="Path 1382" d="M603.936,146.725a.724.724,0,0,0-.724.724V164.5a.724.724,0,0,0,1.447,0V147.449A.724.724,0,0,0,603.936,146.725Z" transform="translate(-491.77 -137.068)" fill="#6551f2"/>
        <path id="Path_1425" data-name="Path 1425" d="M603.936,146.725a.724.724,0,0,0-.724.724V164.5a.724.724,0,0,0,1.447,0V147.449A.724.724,0,0,0,603.936,146.725Z" transform="translate(-357.334 -137.068)" fill="#6551f2"/>
        <path id="Path_1273" data-name="Path 1273" d="M565.848,178.746a.724.724,0,0,0-.724.724v22.837a.724.724,0,1,0,1.447,0V179.47A.724.724,0,0,0,565.848,178.746Z" transform="translate(-527.978 -172.308)" fill="#6551f2"/>
        <path id="Path_1401" data-name="Path 1401" d="M565.848,178.746a.724.724,0,0,0-.724.724v22.837a.724.724,0,1,0,1.447,0V179.47A.724.724,0,0,0,565.848,178.746Z" transform="translate(-393.541 -172.308)" fill="#6551f2"/>
        <path id="Path_1383" data-name="Path 1383" d="M565.848,178.746a.724.724,0,0,0-.724.724v22.837a.724.724,0,1,0,1.447,0V179.47A.724.724,0,0,0,565.848,178.746Z" transform="translate(-459.472 -172.308)" fill="#6551f2"/>
        <path id="Path_1426" data-name="Path 1426" d="M565.848,178.746a.724.724,0,0,0-.724.724v22.837a.724.724,0,1,0,1.447,0V179.47A.724.724,0,0,0,565.848,178.746Z" transform="translate(-325.035 -172.308)" fill="#6551f2"/>
        <path id="Path_1274" data-name="Path 1274" d="M356.364,179.38a.724.724,0,0,0-.724.724v9.571a.626.626,0,0,0,.626.626h.195a.626.626,0,0,0,.626-.626V180.1A.724.724,0,0,0,356.364,179.38Z" transform="translate(-349.85 -165.861)" fill="#6551f2"/>
        <path id="Path_1402" data-name="Path 1402" d="M356.364,179.38a.724.724,0,0,0-.724.724v9.571a.626.626,0,0,0,.626.626h.195a.626.626,0,0,0,.626-.626V180.1A.724.724,0,0,0,356.364,179.38Z" transform="translate(-215.414 -165.861)" fill="#6551f2"/>
        <path id="Path_1384" data-name="Path 1384" d="M356.364,179.38a.724.724,0,0,0-.724.724v9.571a.626.626,0,0,0,.626.626h.195a.626.626,0,0,0,.626-.626V180.1A.724.724,0,0,0,356.364,179.38Z" transform="translate(-281.345 -165.861)" fill="#6551f2"/>
        <path id="Path_1427" data-name="Path 1427" d="M356.364,179.38a.724.724,0,0,0-.724.724v9.571a.626.626,0,0,0,.626.626h.195a.626.626,0,0,0,.626-.626V180.1A.724.724,0,0,0,356.364,179.38Z" transform="translate(-146.908 -165.861)" fill="#6551f2"/>
        <path id="Path_1275" data-name="Path 1275" d="M356.364,150.68a.724.724,0,0,0-.724.724v1.647a.626.626,0,0,0,.626.626h.195a.626.626,0,0,0,.626-.626V151.4A.724.724,0,0,0,356.364,150.68Z" transform="translate(-355.64 -133.298)" fill="#6551f2"/>
        <path id="Path_1385" data-name="Path 1385" d="M356.364,150.68a.724.724,0,0,0-.724.724v1.647a.626.626,0,0,0,.626.626h.195a.626.626,0,0,0,.626-.626V151.4A.724.724,0,0,0,356.364,150.68Z" transform="translate(-287.134 -133.298)" fill="#6551f2"/>
        <path id="Path_1404" data-name="Path 1404" d="M356.364,150.68a.724.724,0,0,0-.724.724v1.647a.626.626,0,0,0,.626.626h.195a.626.626,0,0,0,.626-.626V151.4A.724.724,0,0,0,356.364,150.68Z" transform="translate(-152.698 -133.298)" fill="#6551f2"/>
        <path id="Path_1276" data-name="Path 1276" d="M527.76,46.1a.724.724,0,0,0-.724.724v35.8a.724.724,0,0,0,1.447,0v-35.8A.724.724,0,0,0,527.76,46.1Z" transform="translate(-495.678 -46.098)" fill="#6551f2"/>
        <path id="Path_1405" data-name="Path 1405" d="M527.76,46.1a.724.724,0,0,0-.724.724v35.8a.724.724,0,0,0,1.447,0v-35.8A.724.724,0,0,0,527.76,46.1Z" transform="translate(-361.241 -46.098)" fill="#6551f2"/>
        <path id="Path_1373" data-name="Path 1373" d="M527.76,46.1a.724.724,0,0,0-.724.724v35.8a.724.724,0,0,0,1.447,0v-35.8A.724.724,0,0,0,527.76,46.1Z" transform="translate(-427.172 -46.098)" fill="#6551f2"/>
        <path id="Path_1428" data-name="Path 1428" d="M527.76,46.1a.724.724,0,0,0-.724.724v35.8a.724.724,0,0,0,1.447,0v-35.8A.724.724,0,0,0,527.76,46.1Z" transform="translate(-292.735 -46.098)" fill="#6551f2"/>
        <path id="Path_1278" data-name="Path 1278" d="M470.628,69.806a.724.724,0,0,0-.724.724v35.937a.724.724,0,1,0,1.447,0V70.53A.724.724,0,0,0,470.628,69.806Z" transform="translate(-447.23 -69.806)" fill="#6551f2"/>
        <path id="Path_1406" data-name="Path 1406" d="M470.628,69.806a.724.724,0,0,0-.724.724v35.937a.724.724,0,1,0,1.447,0V70.53A.724.724,0,0,0,470.628,69.806Z" transform="translate(-312.793 -69.806)" fill="#6551f2"/>
        <path id="Path_1374" data-name="Path 1374" d="M470.628,69.806a.724.724,0,0,0-.724.724v35.937a.724.724,0,1,0,1.447,0V70.53A.724.724,0,0,0,470.628,69.806Z" transform="translate(-378.724 -69.806)" fill="#6551f2"/>
        <path id="Path_1429" data-name="Path 1429" d="M470.628,69.806a.724.724,0,0,0-.724.724v35.937a.724.724,0,1,0,1.447,0V70.53A.724.724,0,0,0,470.628,69.806Z" transform="translate(-244.287 -69.806)" fill="#6551f2"/>
        <path id="Path_1279" data-name="Path 1279" d="M489.672,108.554a.724.724,0,0,0-.724.724v17.391a.724.724,0,1,0,1.447,0V109.278A.724.724,0,0,0,489.672,108.554Z" transform="translate(-463.379 -99.541)" fill="#6551f2"/>
        <path id="Path_1407" data-name="Path 1407" d="M489.672,108.554a.724.724,0,0,0-.724.724v17.391a.724.724,0,1,0,1.447,0V109.278A.724.724,0,0,0,489.672,108.554Z" transform="translate(-328.942 -99.541)" fill="#6551f2"/>
        <path id="Path_1375" data-name="Path 1375" d="M489.672,108.554a.724.724,0,0,0-.724.724v17.391a.724.724,0,1,0,1.447,0V109.278A.724.724,0,0,0,489.672,108.554Z" transform="translate(-394.874 -99.541)" fill="#6551f2"/>
        <path id="Path_1430" data-name="Path 1430" d="M489.672,108.554a.724.724,0,0,0-.724.724v17.391a.724.724,0,1,0,1.447,0V109.278A.724.724,0,0,0,489.672,108.554Z" transform="translate(-260.437 -99.541)" fill="#6551f2"/>
        <path id="Path_1281" data-name="Path 1281" d="M508.716,153.857a.724.724,0,0,0-.724.724v25.208a.724.724,0,0,0,1.447,0V154.581A.724.724,0,0,0,508.716,153.857Z" transform="translate(-479.528 -148.707)" fill="#6551f2"/>
        <path id="Path_1408" data-name="Path 1408" d="M508.716,153.857a.724.724,0,0,0-.724.724v25.208a.724.724,0,0,0,1.447,0V154.581A.724.724,0,0,0,508.716,153.857Z" transform="translate(-345.091 -148.707)" fill="#6551f2"/>
        <path id="Path_1376" data-name="Path 1376" d="M508.716,153.857a.724.724,0,0,0-.724.724v25.208a.724.724,0,0,0,1.447,0V154.581A.724.724,0,0,0,508.716,153.857Z" transform="translate(-411.023 -148.707)" fill="#6551f2"/>
        <path id="Path_1431" data-name="Path 1431" d="M508.716,153.857a.724.724,0,0,0-.724.724v25.208a.724.724,0,0,0,1.447,0V154.581A.724.724,0,0,0,508.716,153.857Z" transform="translate(-276.586 -148.707)" fill="#6551f2"/>
        <path id="Path_1284" data-name="Path 1284" d="M451.584,132.416a.724.724,0,0,0-.724.723V153.7a.724.724,0,0,0,1.447,0V133.14A.724.724,0,0,0,451.584,132.416Z" transform="translate(-431.08 -124.691)" fill="#6551f2"/>
        <path id="Path_1409" data-name="Path 1409" d="M451.584,132.416a.724.724,0,0,0-.724.723V153.7a.724.724,0,0,0,1.447,0V133.14A.724.724,0,0,0,451.584,132.416Z" transform="translate(-296.643 -124.691)" fill="#6551f2"/>
        <path id="Path_1377" data-name="Path 1377" d="M451.584,132.416a.724.724,0,0,0-.724.723V153.7a.724.724,0,0,0,1.447,0V133.14A.724.724,0,0,0,451.584,132.416Z" transform="translate(-362.575 -124.691)" fill="#6551f2"/>
        <path id="Path_1432" data-name="Path 1432" d="M451.584,132.416a.724.724,0,0,0-.724.723V153.7a.724.724,0,0,0,1.447,0V133.14A.724.724,0,0,0,451.584,132.416Z" transform="translate(-228.138 -124.691)" fill="#6551f2"/>
        <path id="Path_1285" data-name="Path 1285" d="M546.8,115.762a.724.724,0,0,0-.724.724v24.652a.724.724,0,1,0,1.447,0V116.486A.724.724,0,0,0,546.8,115.762Z" transform="translate(-511.827 -109.968)" fill="#6551f2"/>
        <path id="Path_1410" data-name="Path 1410" d="M546.8,115.762a.724.724,0,0,0-.724.724v24.652a.724.724,0,1,0,1.447,0V116.486A.724.724,0,0,0,546.8,115.762Z" transform="translate(-377.39 -109.968)" fill="#6551f2"/>
        <path id="Path_1386" data-name="Path 1386" d="M546.8,115.762a.724.724,0,0,0-.724.724v24.652a.724.724,0,1,0,1.447,0V116.486A.724.724,0,0,0,546.8,115.762Z" transform="translate(-443.322 -109.968)" fill="#6551f2"/>
        <path id="Path_1433" data-name="Path 1433" d="M546.8,115.762a.724.724,0,0,0-.724.724v24.652a.724.724,0,1,0,1.447,0V116.486A.724.724,0,0,0,546.8,115.762Z" transform="translate(-308.885 -109.968)" fill="#6551f2"/>
        <path id="Path_1286" data-name="Path 1286" d="M432.54,168.69a.724.724,0,0,0-.724.724v11.659a.724.724,0,1,0,1.447,0V169.414A.724.724,0,0,0,432.54,168.69Z" transform="translate(-414.931 -156.458)" fill="#6551f2"/>
        <path id="Path_1411" data-name="Path 1411" d="M432.54,168.69a.724.724,0,0,0-.724.724v11.659a.724.724,0,1,0,1.447,0V169.414A.724.724,0,0,0,432.54,168.69Z" transform="translate(-280.495 -156.458)" fill="#6551f2"/>
        <path id="Path_1387" data-name="Path 1387" d="M432.54,168.69a.724.724,0,0,0-.724.724v11.659a.724.724,0,1,0,1.447,0V169.414A.724.724,0,0,0,432.54,168.69Z" transform="translate(-346.426 -156.458)" fill="#6551f2"/>
        <path id="Path_1434" data-name="Path 1434" d="M432.54,168.69a.724.724,0,0,0-.724.724v11.659a.724.724,0,1,0,1.447,0V169.414A.724.724,0,0,0,432.54,168.69Z" transform="translate(-211.989 -156.458)" fill="#6551f2"/>
        <path id="Path_1288" data-name="Path 1288" d="M375.408,124.154h0a.724.724,0,0,0-.724.724v12.635a.626.626,0,0,0,.626.626h.195a.626.626,0,0,0,.626-.626V124.878A.724.724,0,0,0,375.408,124.154Z" transform="translate(-366 -112.566)" fill="#6551f2"/>
        <path id="Path_1412" data-name="Path 1412" d="M375.408,124.154h0a.724.724,0,0,0-.724.724v12.635a.626.626,0,0,0,.626.626h.195a.626.626,0,0,0,.626-.626V124.878A.724.724,0,0,0,375.408,124.154Z" transform="translate(-231.563 -112.566)" fill="#6551f2"/>
        <path id="Path_1378" data-name="Path 1378" d="M375.408,124.154h0a.724.724,0,0,0-.724.724v12.635a.626.626,0,0,0,.626.626h.195a.626.626,0,0,0,.626-.626V124.878A.724.724,0,0,0,375.408,124.154Z" transform="translate(-297.494 -112.566)" fill="#6551f2"/>
        <path id="Path_1435" data-name="Path 1435" d="M375.408,124.154h0a.724.724,0,0,0-.724.724v12.635a.626.626,0,0,0,.626.626h.195a.626.626,0,0,0,.626-.626V124.878A.724.724,0,0,0,375.408,124.154Z" transform="translate(-163.058 -112.566)" fill="#6551f2"/>
        <path id="Path_1291" data-name="Path 1291" d="M680.112,201.1a.724.724,0,0,0-.724.724V217.8a.724.724,0,1,0,1.447,0V201.822A.724.724,0,0,0,680.112,201.1Z" transform="translate(-625.356 -190.798)" fill="#6551f2"/>
        <path id="Path_1413" data-name="Path 1413" d="M680.112,201.1a.724.724,0,0,0-.724.724V217.8a.724.724,0,1,0,1.447,0V201.822A.724.724,0,0,0,680.112,201.1Z" transform="translate(-490.919 -190.798)" fill="#6551f2"/>
        <path id="Path_1390" data-name="Path 1390" d="M680.112,201.1a.724.724,0,0,0-.724.724V217.8a.724.724,0,1,0,1.447,0V201.822A.724.724,0,0,0,680.112,201.1Z" transform="translate(-556.85 -190.798)" fill="#6551f2"/>
        <path id="Path_1436" data-name="Path 1436" d="M680.112,201.1a.724.724,0,0,0-.724.724V217.8a.724.724,0,1,0,1.447,0V201.822A.724.724,0,0,0,680.112,201.1Z" transform="translate(-422.413 -190.798)" fill="#6551f2"/>
        <path id="Path_1295" data-name="Path 1295" d="M756.288,203.337h0a.724.724,0,0,0-.724.724v21.624a.724.724,0,0,0,.724.724h0a.724.724,0,0,0,.724-.724V204.061A.724.724,0,0,0,756.288,203.337Z" transform="translate(-689.954 -196.255)" fill="#6551f2"/>
        <path id="Path_1414" data-name="Path 1414" d="M756.288,203.337h0a.724.724,0,0,0-.724.724v21.624a.724.724,0,0,0,.724.724h0a.724.724,0,0,0,.724-.724V204.061A.724.724,0,0,0,756.288,203.337Z" transform="translate(-555.517 -196.255)" fill="#6551f2"/>
        <path id="Path_1394" data-name="Path 1394" d="M756.288,203.337h0a.724.724,0,0,0-.724.724v21.624a.724.724,0,0,0,.724.724h0a.724.724,0,0,0,.724-.724V204.061A.724.724,0,0,0,756.288,203.337Z" transform="translate(-621.448 -196.255)" fill="#6551f2"/>
        <path id="Path_1296" data-name="Path 1296" d="M737.244,199.014a.724.724,0,0,0-.724.724v16.487a.724.724,0,1,0,1.447,0V199.738A.723.723,0,0,0,737.244,199.014Z" transform="translate(-673.804 -189.357)" fill="#6551f2"/>
        <path id="Path_1415" data-name="Path 1415" d="M737.244,199.014a.724.724,0,0,0-.724.724v16.487a.724.724,0,1,0,1.447,0V199.738A.723.723,0,0,0,737.244,199.014Z" transform="translate(-539.367 -189.357)" fill="#6551f2"/>
        <path id="Path_1395" data-name="Path 1395" d="M737.244,199.014a.724.724,0,0,0-.724.724v16.487a.724.724,0,1,0,1.447,0V199.738A.723.723,0,0,0,737.244,199.014Z" transform="translate(-605.299 -189.357)" fill="#6551f2"/>
        <path id="Path_1298" data-name="Path 1298" d="M699.156,188.794a.724.724,0,0,0-.724.724v9.5a.724.724,0,0,0,1.447,0v-9.5A.724.724,0,0,0,699.156,188.794Z" transform="translate(-641.505 -175.275)" fill="#6551f2"/>
        <path id="Path_1416" data-name="Path 1416" d="M699.156,188.794a.724.724,0,0,0-.724.724v9.5a.724.724,0,0,0,1.447,0v-9.5A.724.724,0,0,0,699.156,188.794Z" transform="translate(-507.068 -175.275)" fill="#6551f2"/>
        <path id="Path_1392" data-name="Path 1392" d="M699.156,188.794a.724.724,0,0,0-.724.724v9.5a.724.724,0,0,0,1.447,0v-9.5A.724.724,0,0,0,699.156,188.794Z" transform="translate(-573 -175.275)" fill="#6551f2"/>
        <path id="Path_1300" data-name="Path 1300" d="M642.023,177.083a.724.724,0,0,0-.724.724v9.6a.724.724,0,0,0,1.447,0v-9.6A.724.724,0,0,0,642.023,177.083Z" transform="translate(-593.057 -164.208)" fill="#6551f2"/>
        <path id="Path_1417" data-name="Path 1417" d="M642.023,177.083a.724.724,0,0,0-.724.724v9.6a.724.724,0,0,0,1.447,0v-9.6A.724.724,0,0,0,642.023,177.083Z" transform="translate(-458.62 -164.208)" fill="#6551f2"/>
        <path id="Path_1388" data-name="Path 1388" d="M642.023,177.083a.724.724,0,0,0-.724.724v9.6a.724.724,0,0,0,1.447,0v-9.6A.724.724,0,0,0,642.023,177.083Z" transform="translate(-524.552 -164.208)" fill="#6551f2"/>
        <path id="Path_1438" data-name="Path 1438" d="M642.023,177.083a.724.724,0,0,0-.724.724v9.6a.724.724,0,0,0,1.447,0v-9.6A.724.724,0,0,0,642.023,177.083Z" transform="translate(-390.115 -164.208)" fill="#6551f2"/>
        <path id="Path_1301" data-name="Path 1301" d="M622.98,151.1a.724.724,0,0,0-.724.724V167.8a.724.724,0,1,0,1.447,0V151.829A.724.724,0,0,0,622.98,151.1Z" transform="translate(-576.907 -140.805)" fill="#6551f2"/>
        <path id="Path_1418" data-name="Path 1418" d="M622.98,151.1a.724.724,0,0,0-.724.724V167.8a.724.724,0,1,0,1.447,0V151.829A.724.724,0,0,0,622.98,151.1Z" transform="translate(-442.471 -140.805)" fill="#6551f2"/>
        <path id="Path_1389" data-name="Path 1389" d="M622.98,151.1a.724.724,0,0,0-.724.724V167.8a.724.724,0,1,0,1.447,0V151.829A.724.724,0,0,0,622.98,151.1Z" transform="translate(-508.402 -140.805)" fill="#6551f2"/>
        <path id="Path_1439" data-name="Path 1439" d="M622.98,151.1a.724.724,0,0,0-.724.724V167.8a.724.724,0,1,0,1.447,0V151.829A.724.724,0,0,0,622.98,151.1Z" transform="translate(-373.965 -140.805)" fill="#6551f2"/>
        <path id="Path_1302" data-name="Path 1302" d="M661.068,218.478h0a.724.724,0,0,0-.724.724v11.709a.724.724,0,0,0,.724.724h0a.724.724,0,0,0,.724-.724V219.2A.724.724,0,0,0,661.068,218.478Z" transform="translate(-609.207 -206.246)" fill="#6551f2"/>
        <path id="Path_1419" data-name="Path 1419" d="M661.068,218.478h0a.724.724,0,0,0-.724.724v11.709a.724.724,0,0,0,.724.724h0a.724.724,0,0,0,.724-.724V219.2A.724.724,0,0,0,661.068,218.478Z" transform="translate(-474.77 -206.246)" fill="#6551f2"/>
        <path id="Path_1391" data-name="Path 1391" d="M661.068,218.478h0a.724.724,0,0,0-.724.724v11.709a.724.724,0,0,0,.724.724h0a.724.724,0,0,0,.724-.724V219.2A.724.724,0,0,0,661.068,218.478Z" transform="translate(-540.701 -206.246)" fill="#6551f2"/>
        <path id="Path_1440" data-name="Path 1440" d="M661.068,218.478h0a.724.724,0,0,0-.724.724v11.709a.724.724,0,0,0,.724.724h0a.724.724,0,0,0,.724-.724V219.2A.724.724,0,0,0,661.068,218.478Z" transform="translate(-406.265 -206.246)" fill="#6551f2"/>
        <path id="Path_1303" data-name="Path 1303" d="M718.2,219.452a.724.724,0,0,0-.724.724v11.469a.724.724,0,0,0,1.447,0V220.176A.724.724,0,0,0,718.2,219.452Z" transform="translate(-657.655 -207.22)" fill="#6551f2"/>
        <path id="Path_1420" data-name="Path 1420" d="M718.2,219.452a.724.724,0,0,0-.724.724v11.469a.724.724,0,0,0,1.447,0V220.176A.724.724,0,0,0,718.2,219.452Z" transform="translate(-523.218 -207.22)" fill="#6551f2"/>
        <path id="Path_1393" data-name="Path 1393" d="M718.2,219.452a.724.724,0,0,0-.724.724v11.469a.724.724,0,0,0,1.447,0V220.176A.724.724,0,0,0,718.2,219.452Z" transform="translate(-589.149 -207.22)" fill="#6551f2"/>
      </g>
      <path id="Path_13979" data-name="Path 13979" d="M1.219,0V-12.364H5.856A4.447,4.447,0,0,1,9.1-11.271a3.83,3.83,0,0,1,1.114,2.862,4,4,0,0,1-.567,2.167A3.356,3.356,0,0,1,7.993-4.9L10.667,0h-2.5L5.741-4.528H3.459V0Zm2.24-6.387H5.524A2.693,2.693,0,0,0,7.35-6.906a1.908,1.908,0,0,0,.583-1.5A2,2,0,0,0,7.35-9.946a2.621,2.621,0,0,0-1.838-.546H3.459ZM16.155.181A4.719,4.719,0,0,1,13.749-.4a3.919,3.919,0,0,1-1.555-1.654,5.5,5.5,0,0,1-.543-2.523A5.54,5.54,0,0,1,12.195-7.1a4.086,4.086,0,0,1,1.53-1.69,4.332,4.332,0,0,1,2.315-.607,4.574,4.574,0,0,1,2.107.492A3.685,3.685,0,0,1,19.7-7.374a5.4,5.4,0,0,1,.583,2.665v.67h-6.46a2.614,2.614,0,0,0,.661,1.853,2.265,2.265,0,0,0,1.705.664,2.36,2.36,0,0,0,1.222-.3,1.706,1.706,0,0,0,.74-.89l2.04.229A3.2,3.2,0,0,1,18.838-.549,4.622,4.622,0,0,1,16.155.181Zm-2.33-5.693h4.359a2.206,2.206,0,0,0-.589-1.564,2,2,0,0,0-1.524-.616,2.084,2.084,0,0,0-1.588.646A2.354,2.354,0,0,0,13.825-5.512ZM24.794.187a3.426,3.426,0,0,1-2.216-.712A2.506,2.506,0,0,1,21.691-2.6a2.384,2.384,0,0,1,.5-1.621,2.884,2.884,0,0,1,1.31-.839,8.377,8.377,0,0,1,1.705-.359q1.225-.133,1.76-.248t.534-.586V-6.29a1.368,1.368,0,0,0-.4-1.056,1.655,1.655,0,0,0-1.165-.374,2.075,2.075,0,0,0-1.271.35,1.732,1.732,0,0,0-.631.827l-2.04-.29a3.176,3.176,0,0,1,1.416-1.914,4.717,4.717,0,0,1,2.514-.646,5.756,5.756,0,0,1,1.328.157,3.789,3.789,0,0,1,1.216.519,2.673,2.673,0,0,1,.887.978,3.178,3.178,0,0,1,.335,1.533V0h-2.1V-1.274h-.072a2.7,2.7,0,0,1-.963,1.023A3.162,3.162,0,0,1,24.794.187Zm.567-1.606a2.147,2.147,0,0,0,1.57-.567,1.814,1.814,0,0,0,.58-1.34V-4.419a1.325,1.325,0,0,1-.51.2q-.371.088-.788.148l-.706.1a3.167,3.167,0,0,0-1.219.4,1.009,1.009,0,0,0-.489.927,1.04,1.04,0,0,0,.441.912A1.916,1.916,0,0,0,25.361-1.419ZM35.334.163A3.509,3.509,0,0,1,33.378-.4a3.816,3.816,0,0,1-1.364-1.63,6.082,6.082,0,0,1-.5-2.6,6,6,0,0,1,.51-2.608A3.781,3.781,0,0,1,33.4-8.844a3.553,3.553,0,0,1,1.938-.549,2.877,2.877,0,0,1,1.343.275,2.628,2.628,0,0,1,.833.658,3.766,3.766,0,0,1,.474.721h.091v-4.624h2.191V0H38.123V-1.461H37.99a3.66,3.66,0,0,1-.489.715,2.667,2.667,0,0,1-.845.643A2.918,2.918,0,0,1,35.334.163Zm.61-1.793a1.838,1.838,0,0,0,1.612-.83,3.786,3.786,0,0,0,.567-2.176,3.711,3.711,0,0,0-.561-2.158A1.851,1.851,0,0,0,35.944-7.6a1.852,1.852,0,0,0-1.648.833,3.768,3.768,0,0,0-.555,2.131A3.838,3.838,0,0,0,34.3-2.481,1.843,1.843,0,0,0,35.944-1.63Zm7.945,5.24a3.638,3.638,0,0,1-.833-.085,3.687,3.687,0,0,1-.543-.163l.507-1.751a2.267,2.267,0,0,0,1.2.072,1.345,1.345,0,0,0,.794-.9l.217-.592L41.872-9.273H44.19l2.137,7h.1l2.143-7h2.324L47.148,1.207a3.854,3.854,0,0,1-1.189,1.748A3.17,3.17,0,0,1,43.888,3.61ZM61.251-9.273v1.69H59.422v4.793a1.021,1.021,0,0,0,.29.866,1.168,1.168,0,0,0,.7.208,2.189,2.189,0,0,0,.377-.03q.172-.03.263-.054L61.42-.091a4.926,4.926,0,0,1-.5.133,4.156,4.156,0,0,1-.788.085,3.142,3.142,0,0,1-2.068-.6,2.286,2.286,0,0,1-.83-1.95V-7.582H55.92v-1.69h1.316v-2.222h2.185v2.222ZM67.028.181a4.49,4.49,0,0,1-2.354-.6,4.034,4.034,0,0,1-1.542-1.675A5.477,5.477,0,0,1,62.585-4.6a5.491,5.491,0,0,1,.546-2.514,4.054,4.054,0,0,1,1.542-1.678,4.472,4.472,0,0,1,2.354-.6,4.488,4.488,0,0,1,2.357.6,4.028,4.028,0,0,1,1.542,1.678A5.516,5.516,0,0,1,71.471-4.6a5.5,5.5,0,0,1-.543,2.508A4.008,4.008,0,0,1,69.385-.417,4.506,4.506,0,0,1,67.028.181ZM67.04-1.57a1.88,1.88,0,0,0,1.235-.4,2.427,2.427,0,0,0,.737-1.1,4.583,4.583,0,0,0,.244-1.536,4.6,4.6,0,0,0-.244-1.542,2.469,2.469,0,0,0-.737-1.1,1.862,1.862,0,0,0-1.235-.411,1.9,1.9,0,0,0-1.247.411,2.468,2.468,0,0,0-.746,1.1A4.551,4.551,0,0,0,64.8-4.606a4.532,4.532,0,0,0,.248,1.536,2.427,2.427,0,0,0,.746,1.1A1.913,1.913,0,0,0,67.04-1.57ZM84.867-6.822,82.875-6.6a1.619,1.619,0,0,0-.54-.809,1.756,1.756,0,0,0-1.168-.35,2.08,2.08,0,0,0-1.144.3.869.869,0,0,0-.456.767.807.807,0,0,0,.3.661,2.419,2.419,0,0,0,1.011.414l1.582.338q2.6.567,2.608,2.511a2.479,2.479,0,0,1-.507,1.542,3.325,3.325,0,0,1-1.4,1.041,5.275,5.275,0,0,1-2.053.374,4.711,4.711,0,0,1-2.741-.718,2.887,2.887,0,0,1-1.238-1.992l2.131-.205A1.63,1.63,0,0,0,81.1-1.467a2.218,2.218,0,0,0,1.253-.317.933.933,0,0,0,.474-.794q0-.779-1.25-1.056L80-3.966a3.749,3.749,0,0,1-1.974-.939,2.29,2.29,0,0,1-.634-1.675,2.418,2.418,0,0,1,.471-1.488,3.032,3.032,0,0,1,1.316-.978,5.136,5.136,0,0,1,1.962-.347,4.222,4.222,0,0,1,2.569.7A2.933,2.933,0,0,1,84.867-6.822Zm6.109,7A4.719,4.719,0,0,1,88.571-.4a3.919,3.919,0,0,1-1.555-1.654,5.5,5.5,0,0,1-.543-2.523A5.54,5.54,0,0,1,87.016-7.1a4.086,4.086,0,0,1,1.53-1.69,4.332,4.332,0,0,1,2.315-.607,4.574,4.574,0,0,1,2.107.492,3.685,3.685,0,0,1,1.548,1.527A5.4,5.4,0,0,1,95.1-4.709v.67H88.64A2.614,2.614,0,0,0,89.3-2.185a2.265,2.265,0,0,0,1.705.664,2.36,2.36,0,0,0,1.222-.3,1.706,1.706,0,0,0,.74-.89l2.04.229A3.2,3.2,0,0,1,93.66-.549,4.622,4.622,0,0,1,90.977.181Zm-2.33-5.693H93a2.206,2.206,0,0,0-.589-1.564,2,2,0,0,0-1.524-.616,2.084,2.084,0,0,0-1.588.646A2.354,2.354,0,0,0,88.646-5.512Zm10.486.078V0H96.947V-9.273h2.089V-7.7h.109a2.666,2.666,0,0,1,1.023-1.235,3.107,3.107,0,0,1,1.742-.462,3.048,3.048,0,0,1,2.309.912,3.56,3.56,0,0,1,.866,2.578V0H102.9V-5.566a2.077,2.077,0,0,0-.48-1.455,1.705,1.705,0,0,0-1.325-.525,1.907,1.907,0,0,0-1.413.552A2.117,2.117,0,0,0,99.132-5.433Zm11.621,5.6A3.509,3.509,0,0,1,108.8-.4a3.816,3.816,0,0,1-1.364-1.63,6.082,6.082,0,0,1-.5-2.6,6,6,0,0,1,.51-2.608,3.781,3.781,0,0,1,1.379-1.612,3.553,3.553,0,0,1,1.938-.549,2.877,2.877,0,0,1,1.343.275,2.628,2.628,0,0,1,.833.658,3.766,3.766,0,0,1,.474.721h.091v-4.624h2.191V0h-2.149V-1.461h-.133a3.66,3.66,0,0,1-.489.715,2.666,2.666,0,0,1-.845.643A2.918,2.918,0,0,1,110.754.163Zm.61-1.793a1.838,1.838,0,0,0,1.612-.83,3.786,3.786,0,0,0,.567-2.176,3.711,3.711,0,0,0-.561-2.158,1.851,1.851,0,0,0-1.618-.806,1.852,1.852,0,0,0-1.648.833,3.768,3.768,0,0,0-.555,2.131,3.838,3.838,0,0,0,.561,2.155A1.843,1.843,0,0,0,111.363-1.63Zm8.754-2v-.157a6.133,6.133,0,0,1,.208-1.736,2.61,2.61,0,0,1,.58-1.044,4.662,4.662,0,0,1,.909-.727,3.753,3.753,0,0,0,.921-.8,1.659,1.659,0,0,0,.371-1.087,1.437,1.437,0,0,0-.486-1.138,1.729,1.729,0,0,0-1.18-.426,1.826,1.826,0,0,0-1.162.414,1.625,1.625,0,0,0-.564,1.265h-2.149a3.477,3.477,0,0,1,.558-1.917,3.289,3.289,0,0,1,1.4-1.159,4.679,4.679,0,0,1,1.929-.389,4.81,4.81,0,0,1,2.031.4,3.2,3.2,0,0,1,1.37,1.15,3.132,3.132,0,0,1,.492,1.766,3.005,3.005,0,0,1-.486,1.745A4.188,4.188,0,0,1,123.54-6.26a3.215,3.215,0,0,0-1.069.981,2.867,2.867,0,0,0-.344,1.488v.157ZM121.173.133a1.289,1.289,0,0,1-.942-.389,1.254,1.254,0,0,1-.386-.939,1.237,1.237,0,0,1,.386-.93,1.294,1.294,0,0,1,.942-.386,1.28,1.28,0,0,1,.93.386,1.279,1.279,0,0,1,.4.93,1.3,1.3,0,0,1-.4.939A1.275,1.275,0,0,1,121.173.133Z" transform="translate(1313.781 2426)" fill="#030308"/>
      <rect id="Rectangle_945" data-name="Rectangle 945" width="210" height="40" rx="10" transform="translate(1272 2445)" fill="#6551f2"/>
      <rect id="Rectangle_990" data-name="Rectangle 990" width="210" height="40" rx="10" transform="translate(1272 2495)" fill="#ededed"/>
      <path id="Path_13980" data-name="Path 13980" d="M.308-10.182H2.391l2.491,4.5h.1l2.491-4.5H9.555L5.852-3.8V0H4.012V-3.8ZM12.752.149a3.886,3.886,0,0,1-1.981-.482A3.228,3.228,0,0,1,9.491-1.7a4.531,4.531,0,0,1-.447-2.078,4.562,4.562,0,0,1,.447-2.071,3.365,3.365,0,0,1,1.26-1.392,3.568,3.568,0,0,1,1.907-.5,3.767,3.767,0,0,1,1.735.405,3.035,3.035,0,0,1,1.275,1.258,4.445,4.445,0,0,1,.48,2.195v.552h-5.32A2.153,2.153,0,0,0,11.373-1.8a1.865,1.865,0,0,0,1.4.547A1.944,1.944,0,0,0,13.784-1.5a1.4,1.4,0,0,0,.609-.733l1.68.189a2.632,2.632,0,0,1-1.111,1.6A3.807,3.807,0,0,1,12.752.149ZM10.833-4.539h3.589a1.816,1.816,0,0,0-.485-1.288,1.649,1.649,0,0,0-1.255-.507,1.716,1.716,0,0,0-1.308.532A1.939,1.939,0,0,0,10.833-4.539ZM23.7-5.618l-1.641.179a1.333,1.333,0,0,0-.445-.666,1.446,1.446,0,0,0-.962-.288,1.713,1.713,0,0,0-.942.244.716.716,0,0,0-.375.631.665.665,0,0,0,.246.544,1.992,1.992,0,0,0,.833.341l1.3.278q2.143.467,2.148,2.068a2.041,2.041,0,0,1-.418,1.27A2.738,2.738,0,0,1,22.3-.159a4.344,4.344,0,0,1-1.69.308A3.879,3.879,0,0,1,18.35-.442a2.377,2.377,0,0,1-1.019-1.641l1.755-.169A1.342,1.342,0,0,0,20.6-1.208a1.827,1.827,0,0,0,1.032-.261.768.768,0,0,0,.39-.654q0-.641-1.029-.87l-1.3-.273a3.087,3.087,0,0,1-1.626-.773,1.886,1.886,0,0,1-.522-1.38,1.992,1.992,0,0,1,.388-1.225,2.5,2.5,0,0,1,1.084-.805,4.23,4.23,0,0,1,1.616-.286,3.477,3.477,0,0,1,2.115.574A2.415,2.415,0,0,1,23.7-5.618Z" transform="translate(1364.692 2470)" fill="#fff"/>
      <path id="Path_13981" data-name="Path 13981" d="M9.371-10.182V0H7.731l-4.8-6.935H2.849V0H1V-10.182H2.655l4.793,6.94h.089v-6.94ZM14.626.149a3.7,3.7,0,0,1-1.939-.492,3.322,3.322,0,0,1-1.27-1.38,4.51,4.51,0,0,1-.45-2.066,4.522,4.522,0,0,1,.45-2.071,3.339,3.339,0,0,1,1.27-1.382,3.683,3.683,0,0,1,1.939-.495,3.7,3.7,0,0,1,1.941.495,3.317,3.317,0,0,1,1.27,1.382,4.543,4.543,0,0,1,.447,2.071,4.531,4.531,0,0,1-.447,2.066,3.3,3.3,0,0,1-1.27,1.38A3.711,3.711,0,0,1,14.626.149Zm.01-1.442a1.548,1.548,0,0,0,1.017-.333,2,2,0,0,0,.607-.9,3.774,3.774,0,0,0,.2-1.265,3.79,3.79,0,0,0-.2-1.27,2.034,2.034,0,0,0-.607-.907,1.533,1.533,0,0,0-1.017-.338,1.56,1.56,0,0,0-1.027.338A2.033,2.033,0,0,0,13-5.064a3.748,3.748,0,0,0-.2,1.27A3.732,3.732,0,0,0,13-2.528a2,2,0,0,0,.614.9A1.576,1.576,0,0,0,14.636-1.293Z" transform="translate(1366.996 2520)" fill="#030308"/>
      <g id="Group_10937" data-name="Group 10937" transform="translate(353 7)">
        <g transform="matrix(1, 0, 0, 1, 604, 2123)" filter="url(#Ellipse_253)">
          <ellipse id="Ellipse_253-2" data-name="Ellipse 253" cx="30.5" cy="30" rx="30.5" ry="30" transform="translate(395 99)" fill="#fff"/>
        </g>
        <path id="Polygon_4" data-name="Polygon 4" d="M9.387,2.2a2,2,0,0,1,3.226,0l7.053,9.618A2,2,0,0,1,18.053,15H3.947a2,2,0,0,1-1.613-3.183Z" transform="translate(1039 2241) rotate(90)" fill="#6551f2"/>
      </g>
    </g>
  </g>
</svg>
