<svg width="420" height="322" viewBox="0 0 420 322" fill="none" xmlns="http://www.w3.org/2000/svg">
<rect x="0.5" y="160.5" width="419" height="161" rx="15.5" stroke="white"/>
<g opacity="0.6">
<rect x="285" y="187" width="120" height="120" rx="22" fill="white"/>
<path d="M369.235 282.845V287H367.564V277.545H369.198V281.114H369.281C369.447 280.714 369.704 280.398 370.052 280.168C370.403 279.934 370.849 279.817 371.391 279.817C371.883 279.817 372.313 279.92 372.679 280.126C373.045 280.332 373.328 280.634 373.528 281.031C373.731 281.428 373.833 281.913 373.833 282.485V287H372.162V282.744C372.162 282.267 372.039 281.896 371.792 281.631C371.549 281.363 371.208 281.229 370.768 281.229C370.472 281.229 370.207 281.294 369.974 281.423C369.743 281.549 369.561 281.733 369.429 281.973C369.3 282.213 369.235 282.504 369.235 282.845Z" fill="#383838"/>
<path d="M366.034 281.783L364.51 281.949C364.467 281.796 364.392 281.651 364.284 281.516C364.179 281.38 364.038 281.271 363.859 281.188C363.681 281.105 363.462 281.063 363.204 281.063C362.856 281.063 362.564 281.139 362.327 281.289C362.093 281.44 361.977 281.636 361.98 281.876C361.977 282.082 362.053 282.25 362.207 282.379C362.363 282.508 362.622 282.614 362.982 282.697L364.192 282.956C364.863 283.101 365.361 283.33 365.687 283.644C366.017 283.958 366.183 284.368 366.186 284.876C366.183 285.323 366.052 285.717 365.794 286.058C365.538 286.397 365.183 286.661 364.727 286.852C364.272 287.043 363.748 287.138 363.157 287.138C362.29 287.138 361.591 286.957 361.062 286.594C360.532 286.227 360.217 285.718 360.115 285.066L361.745 284.909C361.819 285.229 361.976 285.47 362.216 285.633C362.456 285.797 362.768 285.878 363.153 285.878C363.55 285.878 363.868 285.797 364.108 285.633C364.352 285.47 364.473 285.269 364.473 285.029C364.473 284.826 364.395 284.658 364.238 284.525C364.084 284.393 363.844 284.292 363.518 284.221L362.308 283.967C361.628 283.825 361.125 283.587 360.798 283.251C360.472 282.913 360.311 282.485 360.314 281.968C360.311 281.531 360.429 281.152 360.669 280.832C360.912 280.509 361.249 280.26 361.68 280.084C362.114 279.906 362.614 279.817 363.181 279.817C364.012 279.817 364.666 279.994 365.143 280.348C365.623 280.701 365.92 281.18 366.034 281.783Z" fill="#383838"/>
<path d="M355.005 287.143C354.555 287.143 354.151 287.063 353.791 286.903C353.434 286.74 353.15 286.5 352.941 286.183C352.735 285.866 352.632 285.475 352.632 285.01C352.632 284.61 352.706 284.279 352.853 284.018C353.001 283.756 353.203 283.547 353.458 283.39C353.714 283.233 354.001 283.114 354.321 283.034C354.645 282.951 354.979 282.891 355.323 282.854C355.739 282.811 356.076 282.773 356.334 282.739C356.593 282.702 356.781 282.647 356.897 282.573C357.017 282.496 357.078 282.377 357.078 282.217V282.19C357.078 281.842 356.974 281.572 356.768 281.382C356.562 281.191 356.265 281.095 355.877 281.095C355.468 281.095 355.143 281.185 354.903 281.363C354.666 281.542 354.506 281.752 354.423 281.996L352.863 281.774C352.986 281.343 353.189 280.983 353.472 280.694C353.755 280.401 354.101 280.183 354.511 280.038C354.92 279.891 355.372 279.817 355.868 279.817C356.21 279.817 356.55 279.857 356.888 279.937C357.227 280.017 357.536 280.149 357.816 280.334C358.096 280.515 358.321 280.763 358.49 281.077C358.662 281.391 358.749 281.783 358.749 282.254V287H357.142V286.026H357.087C356.985 286.223 356.842 286.407 356.657 286.58C356.476 286.749 356.247 286.886 355.97 286.991C355.696 287.092 355.374 287.143 355.005 287.143ZM355.439 285.915C355.774 285.915 356.065 285.849 356.311 285.717C356.557 285.581 356.747 285.403 356.879 285.181C357.014 284.959 357.082 284.718 357.082 284.456V283.621C357.03 283.664 356.941 283.704 356.814 283.741C356.691 283.778 356.553 283.81 356.399 283.838C356.245 283.865 356.093 283.89 355.942 283.911C355.791 283.933 355.66 283.951 355.549 283.967C355.3 284.001 355.077 284.056 354.88 284.133C354.683 284.21 354.528 284.318 354.414 284.456C354.3 284.592 354.243 284.767 354.243 284.982C354.243 285.29 354.355 285.523 354.58 285.68C354.805 285.837 355.091 285.915 355.439 285.915Z" fill="#383838"/>
<path d="M351.246 277.545V287H349.574V277.545H351.246Z" fill="#383838"/>
<path d="M341.449 289.659V279.909H343.093V281.082H343.19C343.276 280.909 343.398 280.726 343.555 280.532C343.712 280.335 343.924 280.168 344.192 280.029C344.459 279.887 344.801 279.817 345.217 279.817C345.764 279.817 346.258 279.957 346.698 280.237C347.142 280.514 347.492 280.925 347.751 281.469C348.013 282.011 348.143 282.676 348.143 283.464C348.143 284.242 348.016 284.904 347.76 285.449C347.505 285.993 347.157 286.409 346.717 286.695C346.277 286.981 345.778 287.125 345.221 287.125C344.815 287.125 344.478 287.057 344.21 286.921C343.942 286.786 343.727 286.623 343.564 286.432C343.404 286.238 343.279 286.055 343.19 285.883H343.121V289.659H341.449ZM343.088 283.454C343.088 283.913 343.153 284.315 343.282 284.659C343.415 285.004 343.604 285.273 343.85 285.467C344.099 285.658 344.401 285.753 344.755 285.753C345.124 285.753 345.433 285.655 345.683 285.458C345.932 285.258 346.12 284.986 346.246 284.641C346.375 284.293 346.44 283.898 346.44 283.454C346.44 283.014 346.377 282.623 346.251 282.282C346.124 281.94 345.937 281.672 345.687 281.479C345.438 281.285 345.127 281.188 344.755 281.188C344.398 281.188 344.095 281.282 343.845 281.469C343.596 281.657 343.407 281.92 343.278 282.259C343.151 282.597 343.088 282.996 343.088 283.454Z" fill="#383838"/>
<path d="M339.919 281.783L338.396 281.949C338.353 281.796 338.277 281.651 338.17 281.516C338.065 281.38 337.923 281.271 337.745 281.188C337.566 281.105 337.348 281.063 337.089 281.063C336.742 281.063 336.449 281.139 336.212 281.289C335.978 281.44 335.863 281.636 335.866 281.876C335.863 282.082 335.938 282.25 336.092 282.379C336.249 282.508 336.508 282.614 336.868 282.697L338.077 282.956C338.748 283.101 339.247 283.33 339.573 283.644C339.902 283.958 340.069 284.368 340.072 284.876C340.069 285.323 339.938 285.717 339.679 286.058C339.424 286.397 339.068 286.661 338.613 286.852C338.157 287.043 337.634 287.138 337.043 287.138C336.175 287.138 335.477 286.957 334.947 286.594C334.418 286.227 334.103 285.718 334.001 285.066L335.631 284.909C335.704 285.229 335.861 285.47 336.101 285.633C336.342 285.797 336.654 285.878 337.039 285.878C337.436 285.878 337.754 285.797 337.994 285.633C338.237 285.47 338.359 285.269 338.359 285.029C338.359 284.826 338.28 284.658 338.123 284.525C337.97 284.393 337.73 284.292 337.403 284.221L336.194 283.967C335.514 283.825 335.01 283.587 334.684 283.251C334.358 282.913 334.196 282.485 334.199 281.968C334.196 281.531 334.315 281.152 334.555 280.832C334.798 280.509 335.135 280.26 335.566 280.084C336 279.906 336.5 279.817 337.066 279.817C337.897 279.817 338.551 279.994 339.028 280.348C339.508 280.701 339.805 281.18 339.919 281.783Z" fill="#383838"/>
<path d="M328.064 282.845V287H326.393V279.909H327.99V281.114H328.073C328.236 280.717 328.496 280.401 328.853 280.168C329.213 279.934 329.658 279.817 330.188 279.817C330.677 279.817 331.103 279.921 331.466 280.131C331.833 280.34 332.116 280.643 332.316 281.04C332.519 281.437 332.619 281.919 332.616 282.485V287H330.945V282.743C330.945 282.27 330.822 281.899 330.575 281.631C330.332 281.363 329.995 281.229 329.564 281.229C329.272 281.229 329.012 281.294 328.784 281.423C328.559 281.549 328.383 281.732 328.253 281.973C328.127 282.213 328.064 282.503 328.064 282.845Z" fill="#383838"/>
<path d="M322.892 277.545H324.605V283.722C324.605 284.399 324.445 284.995 324.125 285.509C323.808 286.023 323.362 286.424 322.786 286.714C322.211 287 321.538 287.143 320.769 287.143C319.996 287.143 319.322 287 318.747 286.714C318.171 286.424 317.725 286.023 317.408 285.509C317.091 284.995 316.933 284.399 316.933 283.722V277.545H318.645V283.579C318.645 283.973 318.732 284.324 318.904 284.632C319.079 284.939 319.325 285.181 319.642 285.356C319.959 285.529 320.335 285.615 320.769 285.615C321.203 285.615 321.578 285.529 321.895 285.356C322.215 285.181 322.462 284.939 322.634 284.632C322.806 284.324 322.892 283.973 322.892 283.579V277.545Z" fill="#383838"/>
<g clip-path="url(#clip0_715_705)">
<path fill-rule="evenodd" clip-rule="evenodd" d="M334.5 207H355.5V222.75H334.5V207ZM317 231.5H334.551V247.39H355.597V231.5H373V263H317V231.5Z" fill="black"/>
</g>
</g>
<rect x="157" y="150" width="106" height="22" rx="6" fill="#D1D1D1"/>
<path d="M250.81 157V165H249.521L245.751 159.551H245.685V165H244.236V157H245.533L249.298 162.453H249.369V157H250.81Z" fill="#5F5F5F"/>
<path d="M242.426 161C242.426 161.862 242.264 162.6 241.941 163.215C241.621 163.827 241.184 164.296 240.629 164.621C240.077 164.947 239.451 165.109 238.75 165.109C238.049 165.109 237.422 164.947 236.867 164.621C236.315 164.293 235.878 163.823 235.555 163.211C235.234 162.596 235.074 161.859 235.074 161C235.074 160.138 235.234 159.401 235.555 158.789C235.878 158.174 236.315 157.704 236.867 157.379C237.422 157.053 238.049 156.891 238.75 156.891C239.451 156.891 240.077 157.053 240.629 157.379C241.184 157.704 241.621 158.174 241.941 158.789C242.264 159.401 242.426 160.138 242.426 161ZM240.969 161C240.969 160.393 240.874 159.882 240.684 159.465C240.496 159.046 240.236 158.729 239.902 158.516C239.569 158.299 239.185 158.191 238.75 158.191C238.315 158.191 237.931 158.299 237.598 158.516C237.264 158.729 237.003 159.046 236.812 159.465C236.625 159.882 236.531 160.393 236.531 161C236.531 161.607 236.625 162.12 236.812 162.539C237.003 162.956 237.264 163.272 237.598 163.488C237.931 163.702 238.315 163.809 238.75 163.809C239.185 163.809 239.569 163.702 239.902 163.488C240.236 163.272 240.496 162.956 240.684 162.539C240.874 162.12 240.969 161.607 240.969 161Z" fill="#5F5F5F"/>
<path d="M233.467 161C233.467 161.862 233.306 162.6 232.983 163.215C232.663 163.827 232.225 164.296 231.67 164.621C231.118 164.947 230.492 165.109 229.792 165.109C229.091 165.109 228.463 164.947 227.909 164.621C227.357 164.293 226.919 163.823 226.596 163.211C226.276 162.596 226.116 161.859 226.116 161C226.116 160.138 226.276 159.401 226.596 158.789C226.919 158.174 227.357 157.704 227.909 157.379C228.463 157.053 229.091 156.891 229.792 156.891C230.492 156.891 231.118 157.053 231.67 157.379C232.225 157.704 232.663 158.174 232.983 158.789C233.306 159.401 233.467 160.138 233.467 161ZM232.01 161C232.01 160.393 231.915 159.882 231.725 159.465C231.538 159.046 231.277 158.729 230.944 158.516C230.611 158.299 230.226 158.191 229.792 158.191C229.357 158.191 228.972 158.299 228.639 158.516C228.306 158.729 228.044 159.046 227.854 159.465C227.667 159.882 227.573 160.393 227.573 161C227.573 161.607 227.667 162.12 227.854 162.539C228.044 162.956 228.306 163.272 228.639 163.488C228.972 163.702 229.357 163.809 229.792 163.809C230.226 163.809 230.611 163.702 230.944 163.488C231.277 163.272 231.538 162.956 231.725 162.539C231.915 162.12 232.01 161.607 232.01 161Z" fill="#5F5F5F"/>
<path d="M223.083 159.199C223.047 158.858 222.893 158.592 222.622 158.402C222.354 158.212 222.005 158.117 221.575 158.117C221.273 158.117 221.014 158.163 220.798 158.254C220.582 158.345 220.416 158.469 220.302 158.625C220.187 158.781 220.129 158.96 220.126 159.16C220.126 159.327 220.164 159.471 220.239 159.594C220.317 159.716 220.423 159.82 220.556 159.906C220.688 159.99 220.836 160.06 220.997 160.117C221.159 160.174 221.321 160.223 221.485 160.262L222.235 160.449C222.537 160.52 222.828 160.615 223.106 160.734C223.388 160.854 223.639 161.005 223.86 161.188C224.084 161.37 224.261 161.59 224.392 161.848C224.522 162.105 224.587 162.408 224.587 162.754C224.587 163.223 224.467 163.635 224.228 163.992C223.988 164.346 223.642 164.624 223.188 164.824C222.738 165.022 222.192 165.121 221.552 165.121C220.929 165.121 220.389 165.025 219.931 164.832C219.475 164.639 219.118 164.358 218.86 163.988C218.605 163.618 218.467 163.168 218.446 162.637H219.872C219.893 162.915 219.979 163.147 220.13 163.332C220.281 163.517 220.478 163.655 220.72 163.746C220.965 163.837 221.238 163.883 221.54 163.883C221.855 163.883 222.131 163.836 222.368 163.742C222.608 163.646 222.795 163.513 222.931 163.344C223.066 163.172 223.135 162.971 223.138 162.742C223.135 162.534 223.074 162.362 222.954 162.227C222.834 162.089 222.666 161.974 222.45 161.883C222.237 161.789 221.987 161.706 221.7 161.633L220.79 161.398C220.131 161.229 219.61 160.973 219.228 160.629C218.847 160.283 218.657 159.823 218.657 159.25C218.657 158.779 218.785 158.366 219.04 158.012C219.298 157.658 219.648 157.383 220.091 157.187C220.534 156.99 221.035 156.891 221.595 156.891C222.162 156.891 222.66 156.99 223.087 157.187C223.517 157.383 223.854 157.655 224.099 158.004C224.343 158.35 224.47 158.749 224.478 159.199H223.083Z" fill="#5F5F5F"/>
<path d="M212.182 159.555C212.117 159.344 212.027 159.155 211.913 158.988C211.801 158.819 211.665 158.674 211.507 158.555C211.35 158.435 211.171 158.345 210.968 158.285C210.764 158.223 210.543 158.191 210.303 158.191C209.874 158.191 209.491 158.299 209.155 158.516C208.819 158.732 208.555 159.049 208.362 159.469C208.172 159.885 208.077 160.393 208.077 160.992C208.077 161.596 208.172 162.108 208.362 162.527C208.552 162.947 208.816 163.266 209.155 163.484C209.494 163.701 209.887 163.809 210.335 163.809C210.741 163.809 211.093 163.73 211.389 163.574C211.689 163.418 211.919 163.197 212.081 162.91C212.242 162.621 212.323 162.283 212.323 161.895L212.651 161.945H210.479V160.812H213.725V161.773C213.725 162.458 213.58 163.051 213.288 163.551C212.996 164.051 212.595 164.436 212.085 164.707C211.574 164.975 210.988 165.109 210.327 165.109C209.59 165.109 208.943 164.944 208.385 164.613C207.831 164.28 207.397 163.807 207.085 163.195C206.775 162.581 206.62 161.852 206.62 161.008C206.62 160.362 206.711 159.785 206.893 159.277C207.078 158.77 207.336 158.339 207.667 157.984C207.997 157.628 208.385 157.357 208.831 157.172C209.276 156.984 209.76 156.891 210.284 156.891C210.727 156.891 211.139 156.956 211.522 157.086C211.905 157.214 212.245 157.396 212.542 157.633C212.841 157.87 213.087 158.151 213.28 158.477C213.473 158.802 213.599 159.161 213.659 159.555H212.182Z" fill="#5F5F5F"/>
<path d="M204.804 157V165H203.515L199.745 159.551H199.679V165H198.23V157H199.527L203.292 162.453H203.363V157H204.804Z" fill="#5F5F5F"/>
<path d="M196.22 157V165H194.771V157H196.22Z" fill="#5F5F5F"/>
<path d="M184.362 157H186.136L188.511 162.797H188.604L190.979 157H192.753V165H191.362V159.504H191.288L189.077 164.977H188.038L185.827 159.492H185.753V165H184.362V157Z" fill="#5F5F5F"/>
<path d="M182.552 161C182.552 161.862 182.391 162.6 182.068 163.215C181.748 163.827 181.31 164.296 180.755 164.621C180.203 164.947 179.577 165.109 178.876 165.109C178.176 165.109 177.548 164.947 176.994 164.621C176.442 164.293 176.004 163.823 175.681 163.211C175.361 162.596 175.201 161.859 175.201 161C175.201 160.138 175.361 159.401 175.681 158.789C176.004 158.174 176.442 157.704 176.994 157.379C177.548 157.053 178.176 156.891 178.876 156.891C179.577 156.891 180.203 157.053 180.755 157.379C181.31 157.704 181.748 158.174 182.068 158.789C182.391 159.401 182.552 160.138 182.552 161ZM181.095 161C181.095 160.393 181 159.882 180.81 159.465C180.623 159.046 180.362 158.729 180.029 158.516C179.695 158.299 179.311 158.191 178.876 158.191C178.442 158.191 178.057 158.299 177.724 158.516C177.391 158.729 177.129 159.046 176.939 159.465C176.751 159.882 176.658 160.393 176.658 161C176.658 161.607 176.751 162.12 176.939 162.539C177.129 162.956 177.391 163.272 177.724 163.488C178.057 163.702 178.442 163.809 178.876 163.809C179.311 163.809 179.695 163.702 180.029 163.488C180.362 163.272 180.623 162.956 180.81 162.539C181 162.12 181.095 161.607 181.095 161Z" fill="#5F5F5F"/>
<path d="M173.637 159.699H172.176C172.134 159.46 172.057 159.247 171.945 159.063C171.833 158.875 171.694 158.716 171.527 158.586C171.361 158.456 171.171 158.358 170.957 158.293C170.746 158.225 170.518 158.191 170.273 158.191C169.839 158.191 169.453 158.301 169.117 158.52C168.781 158.736 168.518 159.053 168.328 159.473C168.138 159.889 168.043 160.398 168.043 161C168.043 161.612 168.138 162.128 168.328 162.547C168.521 162.964 168.784 163.279 169.117 163.492C169.453 163.703 169.837 163.809 170.27 163.809C170.509 163.809 170.733 163.777 170.941 163.715C171.152 163.65 171.341 163.555 171.508 163.43C171.677 163.305 171.819 163.151 171.934 162.969C172.051 162.786 172.132 162.578 172.176 162.344L173.637 162.352C173.582 162.732 173.464 163.089 173.281 163.422C173.102 163.755 172.866 164.049 172.574 164.305C172.283 164.557 171.941 164.755 171.551 164.898C171.16 165.039 170.727 165.109 170.25 165.109C169.547 165.109 168.919 164.947 168.367 164.621C167.815 164.296 167.38 163.826 167.062 163.211C166.745 162.596 166.586 161.859 166.586 161C166.586 160.138 166.746 159.401 167.066 158.789C167.387 158.174 167.823 157.704 168.375 157.379C168.927 157.053 169.552 156.891 170.25 156.891C170.695 156.891 171.109 156.953 171.492 157.078C171.875 157.203 172.216 157.387 172.516 157.629C172.815 157.868 173.061 158.163 173.254 158.512C173.449 158.858 173.577 159.254 173.637 159.699Z" fill="#5F5F5F"/>
<g opacity="0.6">
<rect x="15" y="187" width="120" height="120" rx="22" fill="white"/>
<path d="M100.906 287.138C100.195 287.138 99.5811 286.991 99.0641 286.695C98.5501 286.397 98.1546 285.975 97.8776 285.43C97.6007 284.882 97.4622 284.238 97.4622 283.496C97.4622 282.767 97.6007 282.126 97.8776 281.576C98.1577 281.022 98.5486 280.591 99.0502 280.283C99.5519 279.972 100.141 279.817 100.818 279.817C101.255 279.817 101.668 279.887 102.056 280.029C102.446 280.168 102.791 280.383 103.09 280.675C103.391 280.968 103.628 281.34 103.801 281.793C103.973 282.242 104.059 282.777 104.059 283.399V283.911H98.247V282.785H102.457C102.454 282.465 102.385 282.18 102.249 281.931C102.114 281.679 101.925 281.48 101.682 281.335C101.442 281.191 101.161 281.118 100.841 281.118C100.5 281.118 100.2 281.202 99.9412 281.368C99.6827 281.531 99.4811 281.746 99.3364 282.014C99.1949 282.279 99.1226 282.57 99.1195 282.887V283.87C99.1195 284.282 99.1949 284.636 99.3457 284.932C99.4965 285.224 99.7073 285.449 99.9781 285.606C100.249 285.76 100.566 285.837 100.929 285.837C101.172 285.837 101.392 285.803 101.589 285.735C101.786 285.664 101.957 285.561 102.102 285.426C102.246 285.29 102.356 285.123 102.429 284.922L103.99 285.098C103.891 285.51 103.704 285.87 103.427 286.178C103.153 286.483 102.802 286.72 102.374 286.889C101.946 287.055 101.457 287.138 100.906 287.138Z" fill="#383838"/>
<path d="M96.8516 279.909L94.3264 287H92.4798L89.9546 279.909H91.7365L93.3662 285.176H93.44L95.0743 279.909H96.8516Z" fill="#383838"/>
<path d="M87.128 287V279.909H88.7992V287H87.128ZM87.9682 278.903C87.7036 278.903 87.4758 278.815 87.285 278.64C87.0942 278.461 86.9988 278.247 86.9988 277.998C86.9988 277.745 87.0942 277.532 87.285 277.356C87.4758 277.178 87.7036 277.088 87.9682 277.088C88.236 277.088 88.4637 277.178 88.6515 277.356C88.8423 277.532 88.9377 277.745 88.9377 277.998C88.9377 278.247 88.8423 278.461 88.6515 278.64C88.4637 278.815 88.236 278.903 87.9682 278.903Z" fill="#383838"/>
<path d="M81.9739 287V279.909H83.5943V281.091H83.6681C83.7974 280.681 84.019 280.366 84.3329 280.144C84.6499 279.92 85.0115 279.807 85.4178 279.807C85.5101 279.807 85.6132 279.812 85.7271 279.821C85.844 279.827 85.941 279.838 86.0179 279.854V281.391C85.9471 281.366 85.8348 281.345 85.6809 281.326C85.5301 281.305 85.3839 281.294 85.2423 281.294C84.9377 281.294 84.6637 281.36 84.4206 281.492C84.1806 281.622 83.9913 281.802 83.8528 282.033C83.7143 282.263 83.645 282.53 83.645 282.831V287H81.9739Z" fill="#383838"/>
<path d="M75.8315 287H72.6277V277.545H75.8962C76.8348 277.545 77.6412 277.735 78.3152 278.113C78.9923 278.489 79.5124 279.029 79.8756 279.734C80.2387 280.438 80.4203 281.282 80.4203 282.263C80.4203 283.248 80.2372 284.095 79.8709 284.803C79.5078 285.51 78.983 286.054 78.2967 286.432C77.6135 286.811 76.7917 287 75.8315 287ZM74.3404 285.518H75.7484C76.407 285.518 76.9564 285.398 77.3965 285.158C77.8366 284.915 78.1675 284.553 78.3891 284.073C78.6106 283.59 78.7214 282.987 78.7214 282.263C78.7214 281.54 78.6106 280.94 78.3891 280.463C78.1675 279.983 77.8397 279.624 77.4057 279.387C76.9749 279.147 76.4394 279.027 75.7992 279.027H74.3404V285.518Z" fill="#383838"/>
<path d="M67.9871 287.138C67.2762 287.138 66.6622 286.991 66.1451 286.695C65.6312 286.397 65.2357 285.975 64.9587 285.43C64.6817 284.882 64.5432 284.238 64.5432 283.496C64.5432 282.767 64.6817 282.126 64.9587 281.576C65.2388 281.022 65.6296 280.591 66.1313 280.283C66.6329 279.972 67.2223 279.817 67.8994 279.817C68.3364 279.817 68.7488 279.887 69.1366 280.029C69.5275 280.168 69.8722 280.383 70.1707 280.675C70.4723 280.968 70.7093 281.34 70.8816 281.793C71.054 282.242 71.1402 282.777 71.1402 283.399V283.911H65.328V282.785H69.5382C69.5352 282.465 69.4659 282.18 69.3305 281.931C69.1951 281.679 69.0058 281.48 68.7627 281.335C68.5226 281.191 68.2425 281.118 67.9225 281.118C67.5809 281.118 67.2808 281.202 67.0223 281.368C66.7637 281.531 66.5622 281.746 66.4175 282.014C66.2759 282.279 66.2036 282.57 66.2005 282.887V283.87C66.2005 284.282 66.2759 284.636 66.4267 284.932C66.5775 285.224 66.7884 285.449 67.0592 285.606C67.33 285.76 67.647 285.837 68.0102 285.837C68.2533 285.837 68.4734 285.803 68.6703 285.735C68.8673 285.664 69.0381 285.561 69.1828 285.426C69.3274 285.29 69.4367 285.123 69.5105 284.922L71.0709 285.098C70.9724 285.51 70.7847 285.87 70.5077 286.178C70.2338 286.483 69.8829 286.72 69.4551 286.889C69.0274 287.055 68.538 287.138 67.9871 287.138Z" fill="#383838"/>
<path d="M58.5972 282.845V287H56.926V279.909H58.5233V281.114H58.6064C58.7695 280.717 59.0296 280.401 59.3866 280.168C59.7467 279.934 60.1914 279.817 60.7208 279.817C61.2101 279.817 61.6364 279.921 61.9995 280.131C62.3658 280.34 62.6489 280.643 62.849 281.04C63.0521 281.437 63.1521 281.919 63.149 282.485V287H61.4779V282.743C61.4779 282.27 61.3548 281.899 61.1086 281.631C60.8654 281.363 60.5284 281.229 60.0975 281.229C59.8052 281.229 59.5451 281.294 59.3174 281.423C59.0927 281.549 58.9157 281.732 58.7865 281.973C58.6603 282.213 58.5972 282.503 58.5972 282.845Z" fill="#383838"/>
<path d="M55.3806 282.273C55.3806 283.291 55.1898 284.164 54.8082 284.89C54.4296 285.614 53.9126 286.168 53.257 286.552C52.6046 286.937 51.8644 287.129 51.0365 287.129C50.2086 287.129 49.4669 286.937 48.8113 286.552C48.1589 286.164 47.6418 285.609 47.2602 284.886C46.8817 284.159 46.6924 283.288 46.6924 282.273C46.6924 281.254 46.8817 280.383 47.2602 279.66C47.6418 278.934 48.1589 278.378 48.8113 277.993C49.4669 277.609 50.2086 277.416 51.0365 277.416C51.8644 277.416 52.6046 277.609 53.257 277.993C53.9126 278.378 54.4296 278.934 54.8082 279.66C55.1898 280.383 55.3806 281.254 55.3806 282.273ZM53.6586 282.273C53.6586 281.556 53.5463 280.951 53.3216 280.459C53.1001 279.963 52.7923 279.589 52.3983 279.337C52.0044 279.081 51.5505 278.954 51.0365 278.954C50.5225 278.954 50.0686 279.081 49.6746 279.337C49.2807 279.589 48.9714 279.963 48.7467 280.459C48.5251 280.951 48.4143 281.556 48.4143 282.273C48.4143 282.99 48.5251 283.596 48.7467 284.092C48.9714 284.584 49.2807 284.958 49.6746 285.213C50.0686 285.466 50.5225 285.592 51.0365 285.592C51.5505 285.592 52.0044 285.466 52.3983 285.213C52.7923 284.958 53.1001 284.584 53.3216 284.092C53.5463 283.596 53.6586 282.99 53.6586 282.273Z" fill="#383838"/>
<path d="M66.6903 225.456L81.3861 234.256L90.1428 230.57C91.9226 229.801 93.8413 229.406 95.7801 229.408C96.1038 229.408 96.4232 229.424 96.7404 229.443C95.688 225.338 93.4657 221.627 90.3436 218.761C87.2214 215.894 83.334 213.997 79.1537 213.299C74.9734 212.601 70.6803 213.132 66.7963 214.828C62.9122 216.524 59.6045 219.312 57.2751 222.852L57.4983 222.846C60.7457 222.842 63.9296 223.746 66.6903 225.456Z" fill="#0364B8"/>
<path d="M66.6922 225.453C63.9306 223.744 60.7459 222.84 57.498 222.846L57.2749 222.852C54.0964 222.892 50.9888 223.797 48.2861 225.47C45.5833 227.143 43.3874 229.521 41.9345 232.348C40.4815 235.176 39.8263 238.345 40.0393 241.517C40.2523 244.688 41.3255 247.742 43.1434 250.35L56.098 244.896L61.8599 242.472L74.6854 237.073L81.3837 234.256L66.6922 225.453Z" fill="#0078D4"/>
<path d="M96.74 229.443C96.4204 229.421 96.1001 229.409 95.7797 229.408C93.8415 229.407 91.9236 229.803 90.1446 230.572L81.3857 234.256L83.9255 235.776L92.249 240.762L95.8803 242.936L108.299 250.374C109.427 248.279 110.012 245.935 110 243.556C109.987 241.177 109.378 238.839 108.228 236.756C107.078 234.673 105.423 232.913 103.416 231.635C101.409 230.357 99.1138 229.604 96.74 229.443Z" fill="#1490DF"/>
<path d="M95.8805 242.936L92.2492 240.762L83.9257 235.774L81.3881 234.256L74.6877 237.073L61.8622 242.472L56.0981 244.896L43.1392 250.35C44.7499 252.665 46.8972 254.556 49.3976 255.862C51.8981 257.167 54.6774 257.848 57.4981 257.846H95.7799C98.3469 257.847 100.866 257.153 103.071 255.837C105.275 254.522 107.082 252.634 108.299 250.374L95.8805 242.936Z" fill="#28A8EA"/>
</g>
<g opacity="0.6">
<rect x="150" y="187" width="120" height="120" rx="22" fill="white"/>
<path d="M233.531 277.545H235.627L238.434 284.396H238.545L241.352 277.545H243.447V287H241.804V280.505H241.716L239.103 286.972H237.875L235.262 280.491H235.175V287H233.531V277.545Z" fill="#383838"/>
<path d="M225.076 287V277.545H228.622C229.348 277.545 229.957 277.672 230.45 277.924C230.945 278.176 231.319 278.53 231.572 278.986C231.827 279.438 231.955 279.966 231.955 280.569C231.955 281.176 231.825 281.702 231.567 282.148C231.311 282.591 230.934 282.934 230.436 283.178C229.937 283.418 229.325 283.538 228.599 283.538H226.073V282.116H228.368C228.792 282.116 229.14 282.057 229.411 281.94C229.682 281.82 229.882 281.646 230.011 281.419C230.144 281.188 230.21 280.905 230.21 280.569C230.21 280.234 230.144 279.948 230.011 279.711C229.879 279.47 229.677 279.289 229.406 279.166C229.136 279.04 228.786 278.977 228.358 278.977H226.789V287H225.076ZM229.96 282.716L232.301 287H230.39L228.091 282.716H229.96Z" fill="#383838"/>
<path d="M223.508 280.736H221.781C221.732 280.452 221.641 280.202 221.509 279.983C221.377 279.761 221.212 279.574 221.015 279.42C220.818 279.266 220.593 279.151 220.341 279.074C220.092 278.994 219.822 278.954 219.533 278.954C219.019 278.954 218.564 279.083 218.167 279.341C217.77 279.597 217.459 279.972 217.234 280.468C217.009 280.96 216.897 281.562 216.897 282.273C216.897 282.996 217.009 283.605 217.234 284.101C217.462 284.593 217.773 284.966 218.167 285.218C218.564 285.467 219.017 285.592 219.528 285.592C219.812 285.592 220.076 285.555 220.322 285.481C220.572 285.404 220.795 285.292 220.992 285.144C221.192 284.997 221.36 284.815 221.495 284.599C221.634 284.384 221.729 284.138 221.781 283.861L223.508 283.87C223.443 284.319 223.303 284.741 223.088 285.135C222.875 285.529 222.597 285.877 222.252 286.178C221.907 286.477 221.504 286.711 221.043 286.88C220.581 287.046 220.069 287.129 219.505 287.129C218.674 287.129 217.933 286.937 217.28 286.552C216.628 286.168 216.114 285.612 215.738 284.886C215.363 284.159 215.175 283.288 215.175 282.273C215.175 281.254 215.364 280.383 215.743 279.66C216.121 278.934 216.637 278.378 217.289 277.993C217.942 277.609 218.68 277.416 219.505 277.416C220.032 277.416 220.521 277.49 220.973 277.638C221.426 277.786 221.829 278.003 222.183 278.289C222.537 278.572 222.828 278.92 223.055 279.332C223.286 279.741 223.437 280.209 223.508 280.736Z" fill="#383838"/>
<path d="M213.944 279.909V281.202H209.867V279.909H213.944ZM210.874 278.21H212.545V284.867C212.545 285.092 212.579 285.264 212.646 285.384C212.717 285.501 212.809 285.581 212.923 285.624C213.037 285.667 213.163 285.689 213.302 285.689C213.406 285.689 213.502 285.681 213.588 285.666C213.677 285.65 213.745 285.637 213.791 285.624L214.073 286.931C213.984 286.962 213.856 286.995 213.69 287.032C213.527 287.069 213.326 287.091 213.089 287.097C212.671 287.109 212.294 287.046 211.958 286.908C211.623 286.766 211.357 286.548 211.16 286.252C210.966 285.957 210.87 285.587 210.874 285.144V278.21Z" fill="#383838"/>
<path d="M204.152 282.845V287H202.481V279.909H204.078V281.114H204.161C204.324 280.717 204.584 280.402 204.941 280.168C205.301 279.934 205.746 279.817 206.275 279.817C206.765 279.817 207.191 279.922 207.554 280.131C207.92 280.34 208.204 280.643 208.404 281.04C208.607 281.437 208.707 281.919 208.704 282.485V287H207.033V282.744C207.033 282.27 206.909 281.899 206.663 281.631C206.42 281.363 206.083 281.23 205.652 281.23C205.36 281.23 205.1 281.294 204.872 281.423C204.647 281.55 204.47 281.733 204.341 281.973C204.215 282.213 204.152 282.504 204.152 282.845Z" fill="#383838"/>
<path d="M197.914 287.139C197.203 287.139 196.589 286.991 196.072 286.695C195.558 286.397 195.162 285.975 194.885 285.431C194.608 284.883 194.47 284.238 194.47 283.496C194.47 282.767 194.608 282.127 194.885 281.576C195.166 281.022 195.556 280.591 196.058 280.283C196.56 279.972 197.149 279.817 197.826 279.817C198.263 279.817 198.676 279.888 199.063 280.029C199.454 280.168 199.799 280.383 200.097 280.676C200.399 280.968 200.636 281.34 200.808 281.793C200.981 282.242 201.067 282.778 201.067 283.399V283.912H195.255V282.785H199.465C199.462 282.465 199.393 282.181 199.257 281.931C199.122 281.679 198.933 281.48 198.689 281.336C198.449 281.191 198.169 281.119 197.849 281.119C197.508 281.119 197.208 281.202 196.949 281.368C196.69 281.531 196.489 281.747 196.344 282.014C196.203 282.279 196.13 282.57 196.127 282.887V283.87C196.127 284.283 196.203 284.636 196.353 284.932C196.504 285.224 196.715 285.449 196.986 285.606C197.257 285.76 197.574 285.837 197.937 285.837C198.18 285.837 198.4 285.803 198.597 285.735C198.794 285.664 198.965 285.561 199.11 285.426C199.254 285.29 199.363 285.123 199.437 284.923L200.998 285.098C200.899 285.511 200.711 285.871 200.434 286.178C200.161 286.483 199.81 286.72 199.382 286.889C198.954 287.056 198.465 287.139 197.914 287.139Z" fill="#383838"/>
<path d="M191.385 284.018V279.909H193.056V287H191.436V285.74H191.362C191.202 286.137 190.939 286.462 190.573 286.714C190.209 286.966 189.762 287.092 189.229 287.092C188.764 287.092 188.354 286.989 187.997 286.783C187.643 286.574 187.366 286.271 187.166 285.874C186.966 285.474 186.865 284.99 186.865 284.424V279.909H188.537V284.166C188.537 284.615 188.66 284.972 188.906 285.237C189.152 285.501 189.475 285.634 189.875 285.634C190.122 285.634 190.36 285.574 190.591 285.454C190.822 285.334 191.011 285.155 191.159 284.918C191.31 284.678 191.385 284.378 191.385 284.018Z" fill="#383838"/>
<path d="M185.147 277.545V287H183.476V277.545H185.147Z" fill="#383838"/>
<path d="M175.933 287V277.545H181.989V278.981H177.645V281.548H181.574V282.984H177.645V287H175.933Z" fill="#383838"/>
<path fill-rule="evenodd" clip-rule="evenodd" d="M238 212.6C238 209.509 235.491 207 232.4 207H187.6C184.509 207 182 209.509 182 212.6V257.4C182 260.491 184.509 263 187.6 263H232.4C235.491 263 238 260.491 238 257.4V212.6Z" fill="#7742E6"/>
<path fill-rule="evenodd" clip-rule="evenodd" d="M228.844 220.276L195.053 229.33C193.935 229.63 192.947 230.29 192.242 231.209C191.537 232.128 191.155 233.253 191.155 234.411V237.956L221.522 229.819C225.841 228.662 228.844 224.747 228.844 220.276ZM214.379 235.92L195.053 241.098C193.935 241.398 192.947 242.058 192.242 242.977C191.537 243.895 191.155 245.021 191.155 246.179V249.724L207.056 245.463C211.375 244.306 214.379 240.391 214.379 235.92V235.92Z" fill="white"/>
</g>
<rect width="120" height="120" rx="22" fill="white"/>
<path d="M97.2879 100.138C96.577 100.138 95.963 99.9907 95.4459 99.6952C94.9319 99.3967 94.5365 98.975 94.2595 98.4303C93.9825 97.8825 93.844 97.2377 93.844 96.496C93.844 95.7666 93.9825 95.1264 94.2595 94.5755C94.5395 94.0216 94.9304 93.5907 95.4321 93.2829C95.9337 92.9721 96.5231 92.8167 97.2002 92.8167C97.6372 92.8167 98.0496 92.8874 98.4374 93.029C98.8282 93.1675 99.1729 93.3829 99.4715 93.6753C99.7731 93.9677 100.01 94.3401 100.182 94.7925C100.355 95.2418 100.441 95.7774 100.441 96.399V96.9115H94.6288V95.785H98.839C98.8359 95.465 98.7667 95.1803 98.6313 94.931C98.4959 94.6786 98.3066 94.4801 98.0635 94.3355C97.8234 94.1908 97.5433 94.1185 97.2233 94.1185C96.8816 94.1185 96.5816 94.2016 96.323 94.3678C96.0645 94.5309 95.8629 94.7463 95.7183 95.0141C95.5767 95.2788 95.5044 95.5696 95.5013 95.8866V96.8699C95.5013 97.2823 95.5767 97.6363 95.7275 97.9317C95.8783 98.2241 96.0891 98.4488 96.36 98.6057C96.6308 98.7596 96.9478 98.8365 97.311 98.8365C97.5541 98.8365 97.7742 98.8027 97.9711 98.735C98.1681 98.6642 98.3389 98.5611 98.4836 98.4257C98.6282 98.2903 98.7375 98.1225 98.8113 97.9225L100.372 98.0979C100.273 98.5103 100.085 98.8704 99.8085 99.1782C99.5346 99.4828 99.1837 99.7198 98.7559 99.8891C98.3281 100.055 97.8388 100.138 97.2879 100.138Z" fill="#383838"/>
<path d="M93.2334 92.9089L90.7082 99.9998H88.8616L86.3364 92.9089H88.1184L89.748 98.1763H89.8219L91.4561 92.9089H93.2334Z" fill="#383838"/>
<path d="M83.5099 100V92.909H85.181V100H83.5099ZM84.3501 91.9027C84.0854 91.9027 83.8577 91.8149 83.6668 91.6395C83.476 91.461 83.3806 91.2471 83.3806 90.9978C83.3806 90.7455 83.476 90.5316 83.6668 90.3561C83.8577 90.1776 84.0854 90.0884 84.3501 90.0884C84.6178 90.0884 84.8456 90.1776 85.0333 90.3561C85.2241 90.5316 85.3195 90.7455 85.3195 90.9978C85.3195 91.2471 85.2241 91.461 85.0333 91.6395C84.8456 91.8149 84.6178 91.9027 84.3501 91.9027Z" fill="#383838"/>
<path d="M78.3557 99.9998V92.9089H79.9761V94.0908H80.05C80.1792 93.6814 80.4008 93.366 80.7147 93.1444C81.0317 92.9197 81.3934 92.8074 81.7996 92.8074C81.8919 92.8074 81.995 92.812 82.1089 92.8212C82.2259 92.8274 82.3228 92.8381 82.3997 92.8535V94.3908C82.329 94.3662 82.2166 94.3447 82.0627 94.3262C81.9119 94.3047 81.7658 94.2939 81.6242 94.2939C81.3195 94.2939 81.0456 94.36 80.8024 94.4924C80.5624 94.6216 80.3731 94.8017 80.2346 95.0325C80.0961 95.2633 80.0269 95.5296 80.0269 95.8312V99.9998H78.3557Z" fill="#383838"/>
<path d="M72.2134 100H69.0095V90.5454H72.278C73.2167 90.5454 74.023 90.7347 74.697 91.1132C75.3741 91.4887 75.8942 92.0288 76.2574 92.7336C76.6206 93.4384 76.8021 94.2817 76.8021 95.2635C76.8021 96.2483 76.619 97.0947 76.2528 97.8025C75.8896 98.5104 75.3649 99.0536 74.6786 99.4321C73.9953 99.8107 73.1736 100 72.2134 100ZM70.7222 98.5181H72.1303C72.7889 98.5181 73.3382 98.398 73.7783 98.158C74.2184 97.9148 74.5493 97.5532 74.7709 97.0731C74.9925 96.5899 75.1033 95.9867 75.1033 95.2635C75.1033 94.5402 74.9925 93.9401 74.7709 93.463C74.5493 92.9829 74.2215 92.6244 73.7876 92.3874C73.3567 92.1473 72.8212 92.0273 72.181 92.0273H70.7222V98.5181Z" fill="#383838"/>
<path d="M61.1443 100.138C60.4334 100.138 59.8194 99.9907 59.3024 99.6952C58.7884 99.3967 58.3929 98.975 58.1159 98.4303C57.8389 97.8825 57.7004 97.2377 57.7004 96.496C57.7004 95.7666 57.8389 95.1264 58.1159 94.5755C58.396 94.0216 58.7868 93.5907 59.2885 93.2829C59.7902 92.9721 60.3795 92.8167 61.0566 92.8167C61.4936 92.8167 61.9061 92.8874 62.2938 93.029C62.6847 93.1675 63.0294 93.3829 63.3279 93.6753C63.6295 93.9677 63.8665 94.3401 64.0389 94.7925C64.2112 95.2418 64.2974 95.7774 64.2974 96.399V96.9115H58.4852V95.785H62.6955C62.6924 95.465 62.6231 95.1803 62.4877 94.931C62.3523 94.6786 62.163 94.4801 61.9199 94.3355C61.6798 94.1908 61.3998 94.1185 61.0797 94.1185C60.7381 94.1185 60.438 94.2016 60.1795 94.3678C59.921 94.5309 59.7194 94.7463 59.5747 95.0141C59.4332 95.2788 59.3608 95.5696 59.3578 95.8866V96.8699C59.3578 97.2823 59.4332 97.6363 59.584 97.9317C59.7348 98.2241 59.9456 98.4488 60.2164 98.6057C60.4873 98.7596 60.8042 98.8365 61.1674 98.8365C61.4105 98.8365 61.6306 98.8027 61.8276 98.735C62.0245 98.6642 62.1954 98.5611 62.34 98.4257C62.4846 98.2903 62.5939 98.1225 62.6678 97.9225L64.2281 98.0979C64.1297 98.5103 63.9419 98.8704 63.6649 99.1782C63.391 99.4828 63.0402 99.7198 62.6124 99.8891C62.1846 100.055 61.6952 100.138 61.1443 100.138Z" fill="#383838"/>
<path d="M56.2866 90.5454V100H54.6155V90.5454H56.2866Z" fill="#383838"/>
<path d="M49.5741 102.807C48.974 102.807 48.4585 102.725 48.0276 102.562C47.5967 102.402 47.2505 102.187 46.9889 101.916C46.7273 101.645 46.5457 101.345 46.4441 101.016L47.9491 100.651C48.0168 100.789 48.1153 100.926 48.2446 101.062C48.3738 101.2 48.5477 101.314 48.7662 101.403C48.9878 101.496 49.2663 101.542 49.6018 101.542C50.0758 101.542 50.4682 101.426 50.779 101.196C51.0899 100.968 51.2453 100.592 51.2453 100.069V98.7257H51.1622C51.076 98.8981 50.9498 99.0751 50.7836 99.2566C50.6205 99.4382 50.4035 99.5906 50.1327 99.7137C49.8649 99.8368 49.5279 99.8983 49.1217 99.8983C48.5769 99.8983 48.083 99.7706 47.6398 99.5152C47.1997 99.2566 46.8488 98.8719 46.5872 98.361C46.3287 97.8471 46.1995 97.2038 46.1995 96.4314C46.1995 95.6527 46.3287 94.9956 46.5872 94.4601C46.8488 93.9215 47.2012 93.5137 47.6444 93.2367C48.0876 92.9567 48.5816 92.8167 49.1263 92.8167C49.5418 92.8167 49.8834 92.8874 50.1512 93.029C50.422 93.1675 50.6374 93.3352 50.7975 93.5322C50.9575 93.7261 51.0791 93.9092 51.1622 94.0816H51.2545V92.909H52.9026V100.115C52.9026 100.722 52.7579 101.223 52.4686 101.62C52.1793 102.017 51.7839 102.314 51.2822 102.511C50.7805 102.708 50.2112 102.807 49.5741 102.807ZM49.588 98.5872C49.9419 98.5872 50.2435 98.5011 50.4928 98.3287C50.7421 98.1564 50.9314 97.9086 51.0606 97.5855C51.1899 97.2623 51.2545 96.8745 51.2545 96.4221C51.2545 95.9759 51.1899 95.585 51.0606 95.2495C50.9344 94.9141 50.7467 94.654 50.4974 94.4693C50.2512 94.2816 49.948 94.1877 49.588 94.1877C49.2156 94.1877 48.9047 94.2847 48.6554 94.4786C48.4061 94.6725 48.2184 94.9387 48.0922 95.2772C47.966 95.6127 47.9029 95.9943 47.9029 96.4221C47.9029 96.8561 47.966 97.2362 48.0922 97.5624C48.2215 97.8855 48.4108 98.1379 48.66 98.3195C48.9124 98.498 49.2217 98.5872 49.588 98.5872Z" fill="#383838"/>
<path d="M41.6743 100.138C40.9819 100.138 40.3817 99.986 39.8739 99.6814C39.3661 99.3767 38.9722 98.9504 38.6921 98.4026C38.4151 97.8548 38.2766 97.2146 38.2766 96.4821C38.2766 95.7497 38.4151 95.108 38.6921 94.5571C38.9722 94.0062 39.3661 93.5784 39.8739 93.2737C40.3817 92.969 40.9819 92.8167 41.6743 92.8167C42.3668 92.8167 42.967 92.969 43.4748 93.2737C43.9826 93.5784 44.375 94.0062 44.652 94.5571C44.932 95.108 45.0721 95.7497 45.0721 96.4821C45.0721 97.2146 44.932 97.8548 44.652 98.4026C44.375 98.9504 43.9826 99.3767 43.4748 99.6814C42.967 99.986 42.3668 100.138 41.6743 100.138ZM41.6836 98.7996C42.059 98.7996 42.373 98.6965 42.6253 98.4903C42.8777 98.281 43.0654 98.001 43.1885 97.6501C43.3147 97.2992 43.3778 96.9084 43.3778 96.4775C43.3778 96.0436 43.3147 95.6512 43.1885 95.3003C43.0654 94.9464 42.8777 94.6648 42.6253 94.4555C42.373 94.2462 42.059 94.1416 41.6836 94.1416C41.2989 94.1416 40.9788 94.2462 40.7233 94.4555C40.471 94.6648 40.2817 94.9464 40.1555 95.3003C40.0324 95.6512 39.9709 96.0436 39.9709 96.4775C39.9709 96.9084 40.0324 97.2992 40.1555 97.6501C40.2817 98.001 40.471 98.281 40.7233 98.4903C40.9788 98.6965 41.2989 98.7996 41.6836 98.7996Z" fill="#383838"/>
<path d="M33.7652 100.138C33.0727 100.138 32.4725 99.986 31.9647 99.6814C31.4569 99.3767 31.063 98.9504 30.7829 98.4026C30.5059 97.8548 30.3674 97.2146 30.3674 96.4821C30.3674 95.7497 30.5059 95.108 30.7829 94.5571C31.063 94.0062 31.4569 93.5784 31.9647 93.2737C32.4725 92.969 33.0727 92.8167 33.7652 92.8167C34.4576 92.8167 35.0578 92.969 35.5656 93.2737C36.0734 93.5784 36.4658 94.0062 36.7428 94.5571C37.0229 95.108 37.1629 95.7497 37.1629 96.4821C37.1629 97.2146 37.0229 97.8548 36.7428 98.4026C36.4658 98.9504 36.0734 99.3767 35.5656 99.6814C35.0578 99.986 34.4576 100.138 33.7652 100.138ZM33.7744 98.7996C34.1499 98.7996 34.4638 98.6965 34.7162 98.4903C34.9685 98.281 35.1563 98.001 35.2794 97.6501C35.4055 97.2992 35.4686 96.9084 35.4686 96.4775C35.4686 96.0436 35.4055 95.6512 35.2794 95.3003C35.1563 94.9464 34.9685 94.6648 34.7162 94.4555C34.4638 94.2462 34.1499 94.1416 33.7744 94.1416C33.3897 94.1416 33.0696 94.2462 32.8142 94.4555C32.5618 94.6648 32.3725 94.9464 32.2463 95.3003C32.1232 95.6512 32.0617 96.0436 32.0617 96.4775C32.0617 96.9084 32.1232 97.2992 32.2463 97.6501C32.3725 98.001 32.5618 98.281 32.8142 98.4903C33.0696 98.6965 33.3897 98.7996 33.7744 98.7996Z" fill="#383838"/>
<path d="M27.2662 93.5647C27.1893 93.3154 27.0831 93.0923 26.9477 92.8953C26.8154 92.6953 26.6553 92.5245 26.4676 92.3829C26.2829 92.2413 26.0706 92.1351 25.8305 92.0643C25.5905 91.9905 25.3289 91.9535 25.0457 91.9535C24.5379 91.9535 24.0855 92.0813 23.6885 92.3367C23.2915 92.5922 22.9791 92.9676 22.7513 93.4631C22.5267 93.9556 22.4143 94.5557 22.4143 95.2636C22.4143 95.9776 22.5267 96.5823 22.7513 97.0778C22.976 97.5733 23.2884 97.9504 23.6885 98.2089C24.0886 98.4643 24.5533 98.592 25.0827 98.592C25.5628 98.592 25.9782 98.4997 26.3291 98.3151C26.683 98.1304 26.9554 97.8688 27.1462 97.5303C27.337 97.1886 27.4324 96.7885 27.4324 96.33L27.8202 96.39H25.2535V95.0512H29.0898V96.1869C29.0898 96.9963 28.9174 97.6964 28.5727 98.2874C28.228 98.8783 27.7541 99.3338 27.1508 99.6538C26.5476 99.9708 25.8551 100.129 25.0734 100.129C24.2024 100.129 23.4376 99.9339 22.779 99.543C22.1235 99.1491 21.6111 98.5905 21.2417 97.8673C20.8755 97.1409 20.6924 96.2792 20.6924 95.282C20.6924 94.5188 20.8001 93.8371 21.0155 93.2369C21.234 92.6368 21.5387 92.1274 21.9296 91.7089C22.3205 91.2872 22.779 90.9672 23.3053 90.7486C23.8316 90.5271 24.404 90.4163 25.0226 90.4163C25.5458 90.4163 26.0336 90.4932 26.4861 90.6471C26.9385 90.7979 27.3401 91.0133 27.691 91.2934C28.0449 91.5735 28.3357 91.9058 28.5635 92.2905C28.7912 92.6753 28.9405 93.1 29.0113 93.5647H27.2662Z" fill="#383838"/>
<g clip-path="url(#clip1_715_705)">
<path d="M71.009 56.4148H49.0574L39.6575 72.7782C40.7883 73.3513 42.0725 73.7187 42.903 73.7187C51.5383 73.7187 69.1614 73.5913 77.9097 73.5913C78.8092 73.5913 79.6513 73.2857 80.4065 72.8069L71.009 56.4148Z" fill="#4185F3"/>
<path d="M39.6576 72.7787L49.0575 56.4153H30.0097C30.0001 57.5524 30.4058 58.5928 31.0415 59.7797C32.8125 63.0816 35.8089 68.36 37.569 71.1169C38.0028 71.7963 39.7253 72.8131 39.6576 72.7787Z" fill="#1767D1"/>
<path d="M71.009 56.4148L80.4097 72.8044C81.628 72.0327 82.6208 70.8102 83.2655 69.6845C84.7209 67.146 87.1819 62.9188 88.8794 60.0568C89.6684 58.7261 89.9751 57.531 89.9559 56.4136L71.009 56.4148Z" fill="#E94235"/>
<path d="M49.0594 56.416L60.024 37.4192L50.2248 21.1372C49.1648 21.8319 48.2583 22.7748 47.8468 23.493C43.5694 30.9693 34.9528 46.2917 30.6198 53.8648C30.1758 54.6396 29.9632 55.5248 30.0071 56.416H49.0594Z" fill="#30A753"/>
<path d="M71.0083 56.4159L60.0239 37.419L69.5542 21.1555C70.6142 21.8508 71.7776 22.7747 72.189 23.4935C76.4664 30.9691 85.0831 46.2916 89.4179 53.8646C89.8652 54.6433 90 55.5245 89.9565 56.4159H71.0083Z" fill="#F9BC00"/>
<path d="M50.2234 21.1397L60.024 37.4191L69.5543 21.1556C68.5704 20.5826 67.177 20.2432 65.8276 20.2005C62.0735 20.0757 55.9874 20.0254 52.7119 20.1674C51.9043 20.2024 50.2336 21.1327 50.2234 21.1397Z" fill="#0F8038"/>
</g>
<rect x="150" width="120" height="120" rx="22" fill="white"/>
<path d="M223.941 102.659C223.713 102.659 223.502 102.64 223.308 102.604C223.117 102.57 222.965 102.53 222.851 102.484L223.239 101.182C223.482 101.252 223.699 101.286 223.89 101.283C224.081 101.28 224.248 101.22 224.393 101.103C224.541 100.989 224.665 100.798 224.767 100.531L224.91 100.148L222.339 92.9089H224.111L225.746 98.264H225.819L227.458 92.9089H229.236L226.397 100.859C226.264 101.234 226.089 101.556 225.87 101.823C225.652 102.094 225.384 102.3 225.067 102.442C224.753 102.587 224.378 102.659 223.941 102.659Z" fill="#383838"/>
<path d="M216.905 95.8451V99.9999H215.234V92.909H216.831V94.1139H216.914C217.077 93.7169 217.337 93.4014 217.694 93.1675C218.054 92.9336 218.499 92.8167 219.028 92.8167C219.518 92.8167 219.944 92.9213 220.307 93.1306C220.673 93.3399 220.957 93.643 221.157 94.04C221.36 94.437 221.46 94.9187 221.457 95.485V99.9999H219.785V95.7435C219.785 95.2695 219.662 94.8987 219.416 94.6309C219.173 94.3632 218.836 94.2293 218.405 94.2293C218.113 94.2293 217.853 94.2939 217.625 94.4232C217.4 94.5494 217.223 94.7325 217.094 94.9725C216.968 95.2126 216.905 95.5034 216.905 95.8451Z" fill="#383838"/>
<path d="M208.983 95.8451V99.9999H207.312V92.909H208.909V94.1139H208.992C209.155 93.7169 209.415 93.4014 209.772 93.1675C210.132 92.9336 210.577 92.8167 211.107 92.8167C211.596 92.8167 212.022 92.9213 212.385 93.1306C212.752 93.3399 213.035 93.643 213.235 94.04C213.438 94.437 213.538 94.9187 213.535 95.485V99.9999H211.864V95.7435C211.864 95.2695 211.741 94.8987 211.494 94.6309C211.251 94.3632 210.914 94.2293 210.483 94.2293C210.191 94.2293 209.931 94.2939 209.703 94.4232C209.478 94.5494 209.301 94.7325 209.172 94.9725C209.046 95.2126 208.983 95.5034 208.983 95.8451Z" fill="#383838"/>
<path d="M203.922 97.0176V92.9089H205.593V99.9998H203.973V98.7395H203.899C203.739 99.1366 203.476 99.4613 203.11 99.7136C202.746 99.966 202.299 100.092 201.766 100.092C201.301 100.092 200.891 99.9891 200.534 99.7829C200.18 99.5736 199.903 99.2704 199.703 98.8734C199.503 98.4733 199.403 97.9901 199.403 97.4239V92.9089H201.074V97.1653C201.074 97.6147 201.197 97.9717 201.443 98.2364C201.689 98.501 202.012 98.6334 202.413 98.6334C202.659 98.6334 202.897 98.5734 203.128 98.4533C203.359 98.3333 203.548 98.1548 203.696 97.9178C203.847 97.6778 203.922 97.3777 203.922 97.0176Z" fill="#383838"/>
<path d="M190.933 100V90.5454H194.552C195.235 90.5454 195.803 90.6531 196.255 90.8686C196.711 91.0809 197.051 91.3718 197.276 91.7411C197.503 92.1104 197.617 92.529 197.617 92.9968C197.617 93.3815 197.543 93.7108 197.396 93.9847C197.248 94.2555 197.049 94.4756 196.8 94.6448C196.551 94.8141 196.272 94.9357 195.965 95.0095V95.1019C196.3 95.1203 196.622 95.2234 196.929 95.4112C197.24 95.5958 197.494 95.8574 197.691 96.196C197.888 96.5345 197.987 96.9438 197.987 97.424C197.987 97.9133 197.868 98.3534 197.631 98.7443C197.394 99.1321 197.037 99.4383 196.56 99.663C196.083 99.8876 195.483 100 194.76 100H190.933ZM192.645 98.5688H194.487C195.109 98.5688 195.557 98.4504 195.831 98.2134C196.108 97.9733 196.246 97.6656 196.246 97.2901C196.246 97.01 196.177 96.7577 196.038 96.533C195.9 96.3052 195.703 96.1267 195.448 95.9975C195.192 95.8651 194.887 95.799 194.533 95.799H192.645V98.5688ZM192.645 94.5664H194.34C194.635 94.5664 194.901 94.5125 195.138 94.4048C195.375 94.294 195.561 94.1386 195.697 93.9385C195.835 93.7354 195.905 93.4953 195.905 93.2184C195.905 92.8521 195.775 92.5505 195.517 92.3135C195.261 92.0765 194.881 91.9581 194.377 91.9581H192.645V94.5664Z" fill="#383838"/>
<path fill-rule="evenodd" clip-rule="evenodd" d="M212.502 29.623L226.367 37.1528L213.555 20C212.538 21.3647 211.905 22.9763 211.719 24.6682C211.534 26.36 211.804 28.0706 212.502 29.623Z" fill="url(#paint0_linear_715_705)"/>
<path fill-rule="evenodd" clip-rule="evenodd" d="M206.235 57.5503C206.859 57.5503 207.469 57.735 207.989 58.0811C208.508 58.4272 208.913 58.9192 209.153 59.4951C209.393 60.0711 209.457 60.7052 209.337 61.3175C209.218 61.9299 208.919 62.4931 208.48 62.9363C208.041 63.3794 207.48 63.6827 206.869 63.8078C206.258 63.9329 205.623 63.8743 205.045 63.6394C204.467 63.4044 203.972 63.0037 203.621 62.4876C203.27 61.9715 203.08 61.3632 203.075 60.7392C203.071 60.3218 203.15 59.9077 203.307 59.521C203.464 59.1343 203.697 58.7825 203.99 58.486C204.284 58.1895 204.634 57.9542 205.019 57.7936C205.405 57.633 205.818 57.5503 206.235 57.5503Z" fill="url(#paint1_linear_715_705)"/>
<path fill-rule="evenodd" clip-rule="evenodd" d="M196.585 22.5149L235.414 43.5872C235.731 43.7416 235.999 43.9823 236.186 44.2816C236.374 44.5809 236.473 44.9269 236.473 45.28C236.473 45.6331 236.374 45.979 236.186 46.2784C235.999 46.5777 235.731 46.8183 235.414 46.9728C232.477 48.7399 229.261 49.9941 225.903 50.6815L217.825 67.2584C217.825 67.2584 215.269 73.0743 208.231 70.8407C211.181 67.8905 214.749 65.2214 214.749 60.6838C214.749 58.4223 213.851 56.2533 212.251 54.6541C210.652 53.055 208.483 52.1566 206.222 52.1566C203.96 52.1566 201.791 53.055 200.192 54.6541C198.593 56.2533 197.694 58.4223 197.694 60.6838C197.694 66.6122 203.538 69.1127 206.784 73.2289C207.493 74.2325 207.834 75.45 207.749 76.6759C207.665 77.9018 207.16 79.061 206.32 79.9579C202.288 75.9683 194.491 69.2392 191.288 64.828C189.537 62.6041 188.574 59.8618 188.549 57.0313C188.703 54.0195 189.781 51.1281 191.636 48.7503C193.491 46.3725 196.033 44.6237 198.917 43.7417C200.685 43.2265 202.527 43.0035 204.367 43.0814C206.934 43.2759 209.427 44.0286 211.672 45.287C215.114 47.3099 216.786 46.7761 219.16 44.7813C220.565 43.6293 222.096 39.8785 219.722 39.0075C218.946 38.7542 218.152 38.557 217.348 38.4174C212.937 37.5605 205.224 36.7457 202.387 35.1302C197.877 32.6436 194.843 27.516 196.585 22.5149Z" fill="url(#paint2_linear_715_705)"/>
<path fill-rule="evenodd" clip-rule="evenodd" d="M214.679 60.7253C216.477 51.2708 206.882 42.2519 199.521 43.6005L200.012 43.4881C199.619 43.5724 199.24 43.6707 198.874 43.7831C195.991 44.6652 193.448 46.414 191.593 48.7918C189.738 51.1695 188.661 54.0609 188.507 57.0727C188.552 59.9115 189.54 62.6547 191.316 64.8695C194.519 69.2806 202.316 76.0097 206.348 79.9994C207.188 79.1024 207.693 77.9432 207.777 76.7173C207.862 75.4914 207.521 74.2739 206.812 73.2703C203.496 69.1682 197.652 66.6536 197.652 60.7393C197.652 58.4777 198.551 56.3088 200.15 54.7096C201.749 53.1105 203.918 52.212 206.179 52.212C208.441 52.212 210.61 53.1105 212.209 54.7096C213.808 56.3088 214.707 58.4777 214.707 60.7393L214.679 60.7253Z" fill="url(#paint3_linear_715_705)"/>
<path fill-rule="evenodd" clip-rule="evenodd" d="M196.584 22.5149L226.086 38.586L226.928 39.0496C227.631 39.5975 228.333 40.6932 227.42 42.7162C226.015 45.7365 220.396 48.6586 213.92 46.3687C215.943 46.9587 217.32 46.2844 219.09 44.7953C220.494 43.6434 222.026 39.8925 219.652 39.0215C218.875 38.7683 218.082 38.5711 217.277 38.4315C212.866 37.5745 205.154 36.7598 202.316 35.1442C197.877 32.6436 194.842 27.516 196.584 22.5149Z" fill="url(#paint4_linear_715_705)"/>
<path fill-rule="evenodd" clip-rule="evenodd" d="M196.584 22.5149C199.633 33.7534 218.19 34.6806 227.49 39.3727L196.584 22.5149Z" fill="url(#paint5_linear_715_705)"/>
<path fill-rule="evenodd" clip-rule="evenodd" d="M206.741 73.2709C203.496 69.1689 197.652 66.6542 197.652 60.7399C197.66 58.6665 198.423 56.6671 199.799 55.1157C201.174 53.5643 203.068 52.5672 205.126 52.311C201.869 52.3221 198.749 53.6208 196.446 55.9236C194.143 58.2264 192.845 61.3465 192.834 64.6032C192.832 65.4339 192.917 66.2625 193.086 67.0757C195.77 70.1101 199.647 73.6924 202.92 76.7268C204.198 77.9209 205.379 79.0447 206.348 80C207.154 79.0655 207.646 77.9005 207.753 76.6706C207.829 75.4533 207.471 74.2483 206.741 73.2709Z" fill="url(#paint6_linear_715_705)"/>
<path fill-rule="evenodd" clip-rule="evenodd" d="M214.637 61.7377C214.681 61.4024 214.704 61.0646 214.707 60.7263C216.477 51.2718 206.882 42.2529 199.521 43.6015C201.093 43.2217 202.709 43.061 204.325 43.1239C213.976 43.5172 216.674 53.8286 214.637 61.7377Z" fill="url(#paint7_linear_715_705)"/>
<path fill-rule="evenodd" clip-rule="evenodd" d="M186.175 40.8472C187.018 40.8509 187.826 41.1885 188.421 41.7861C189.016 42.3838 189.35 43.1928 189.35 44.0361V47.211H186.175C185.333 47.211 184.525 46.8765 183.93 46.2811C183.334 45.6857 183 44.8781 183 44.0361C183 43.1928 183.334 42.3838 183.929 41.7861C184.524 41.1885 185.332 40.8509 186.175 40.8472Z" fill="url(#paint8_linear_715_705)"/>
<rect x="300" width="120" height="120" rx="22" fill="white"/>
<path d="M392.731 92.9091V94.2017H388.654V92.9091H392.731ZM389.661 91.2102H391.332V97.8672C391.332 98.0918 391.366 98.2642 391.433 98.3842C391.504 98.5012 391.597 98.5812 391.71 98.6243C391.824 98.6674 391.95 98.6889 392.089 98.6889C392.194 98.6889 392.289 98.6812 392.375 98.6658C392.464 98.6504 392.532 98.6366 392.578 98.6243L392.86 99.9307C392.771 99.9615 392.643 99.9954 392.477 100.032C392.314 100.069 392.114 100.091 391.877 100.097C391.458 100.109 391.081 100.046 390.746 99.9076C390.41 99.7661 390.144 99.5476 389.947 99.2521C389.753 98.9567 389.658 98.5873 389.661 98.1442V91.2102Z" fill="#383838"/>
<path d="M387.66 94.7833L386.136 94.9495C386.093 94.7956 386.018 94.6509 385.91 94.5155C385.805 94.3801 385.664 94.2708 385.485 94.1877C385.307 94.1046 385.088 94.0631 384.83 94.0631C384.482 94.0631 384.189 94.1385 383.953 94.2893C383.719 94.4401 383.603 94.6355 383.606 94.8756C383.603 95.0818 383.679 95.2495 383.832 95.3788C383.989 95.5081 384.248 95.6142 384.608 95.6973L385.818 95.9559C386.488 96.1005 386.987 96.3298 387.313 96.6437C387.643 96.9576 387.809 97.3685 387.812 97.8763C387.809 98.3226 387.678 98.7165 387.419 99.0581C387.164 99.3967 386.809 99.6613 386.353 99.8522C385.898 100.043 385.374 100.138 384.783 100.138C383.916 100.138 383.217 99.9568 382.688 99.5936C382.158 99.2274 381.843 98.718 381.741 98.0656L383.371 97.9086C383.445 98.2287 383.602 98.4703 383.842 98.6334C384.082 98.7965 384.394 98.8781 384.779 98.8781C385.176 98.8781 385.494 98.7965 385.734 98.6334C385.978 98.4703 386.099 98.2687 386.099 98.0287C386.099 97.8255 386.021 97.6578 385.864 97.5255C385.71 97.3931 385.47 97.2916 385.144 97.2208L383.934 96.9669C383.254 96.8253 382.751 96.5868 382.424 96.2513C382.098 95.9128 381.937 95.485 381.94 94.9679C381.937 94.5309 382.055 94.1524 382.295 93.8323C382.538 93.5091 382.875 93.2598 383.306 93.0844C383.74 92.9059 384.24 92.8167 384.807 92.8167C385.638 92.8167 386.292 92.9936 386.769 93.3475C387.249 93.7015 387.546 94.18 387.66 94.7833Z" fill="#383838"/>
<path d="M378.665 100V92.909H380.337V100H378.665ZM379.506 91.9027C379.241 91.9027 379.013 91.8149 378.822 91.6395C378.632 91.461 378.536 91.2471 378.536 90.9978C378.536 90.7455 378.632 90.5316 378.822 90.3561C379.013 90.1776 379.241 90.0884 379.506 90.0884C379.773 90.0884 380.001 90.1776 380.189 90.3561C380.38 90.5316 380.475 90.7455 380.475 90.9978C380.475 91.2471 380.38 91.461 380.189 91.6395C380.001 91.8149 379.773 91.9027 379.506 91.9027Z" fill="#383838"/>
<path d="M373.511 99.9998V92.9089H375.131V94.0908H375.205C375.334 93.6814 375.556 93.366 375.87 93.1444C376.187 92.9197 376.549 92.8074 376.955 92.8074C377.047 92.8074 377.15 92.812 377.264 92.8212C377.381 92.8274 377.478 92.8381 377.555 92.8535V94.3908C377.484 94.3662 377.372 94.3447 377.218 94.3262C377.067 94.3047 376.921 94.2939 376.779 94.2939C376.475 94.2939 376.201 94.36 375.958 94.4924C375.718 94.6216 375.528 94.8017 375.39 95.0325C375.251 95.2633 375.182 95.5296 375.182 95.8312V99.9998H373.511Z" fill="#383838"/>
<path d="M368.695 100.138C368.002 100.138 367.402 99.986 366.894 99.6814C366.387 99.3767 365.993 98.9504 365.713 98.4026C365.436 97.8548 365.297 97.2146 365.297 96.4821C365.297 95.7497 365.436 95.108 365.713 94.5571C365.993 94.0062 366.387 93.5784 366.894 93.2737C367.402 92.969 368.002 92.8167 368.695 92.8167C369.387 92.8167 369.987 92.969 370.495 93.2737C371.003 93.5784 371.395 94.0062 371.672 94.5571C371.953 95.108 372.093 95.7497 372.093 96.4821C372.093 97.2146 371.953 97.8548 371.672 98.4026C371.395 98.9504 371.003 99.3767 370.495 99.6814C369.987 99.986 369.387 100.138 368.695 100.138ZM368.704 98.7996C369.08 98.7996 369.393 98.6965 369.646 98.4903C369.898 98.281 370.086 98.001 370.209 97.6501C370.335 97.2992 370.398 96.9084 370.398 96.4775C370.398 96.0436 370.335 95.6512 370.209 95.3003C370.086 94.9464 369.898 94.6648 369.646 94.4555C369.393 94.2462 369.08 94.1416 368.704 94.1416C368.319 94.1416 367.999 94.2462 367.744 94.4555C367.491 94.6648 367.302 94.9464 367.176 95.3003C367.053 95.6512 366.991 96.0436 366.991 96.4775C366.991 96.9084 367.053 97.2992 367.176 97.6501C367.302 98.001 367.491 98.281 367.744 98.4903C367.999 98.6965 368.319 98.7996 368.704 98.7996Z" fill="#383838"/>
<path d="M364.28 92.9091V94.2017H360.204V92.9091H364.28ZM361.21 91.2102H362.882V97.8672C362.882 98.0918 362.916 98.2642 362.983 98.3842C363.054 98.5012 363.146 98.5812 363.26 98.6243C363.374 98.6674 363.5 98.6889 363.639 98.6889C363.743 98.6889 363.839 98.6812 363.925 98.6658C364.014 98.6504 364.082 98.6366 364.128 98.6243L364.41 99.9307C364.32 99.9615 364.193 99.9954 364.027 100.032C363.863 100.069 363.663 100.091 363.426 100.097C363.008 100.109 362.631 100.046 362.295 99.9076C361.96 99.7661 361.694 99.5476 361.497 99.2521C361.303 98.9567 361.207 98.5873 361.21 98.1442V91.2102Z" fill="#383838"/>
<path d="M356.33 100.138C355.622 100.138 355.014 99.983 354.506 99.6721C354.001 99.3613 353.612 98.9319 353.338 98.3841C353.067 97.8332 352.932 97.1992 352.932 96.4821C352.932 95.762 353.07 95.1264 353.347 94.5755C353.624 94.0216 354.015 93.5907 354.52 93.2829C355.028 92.9721 355.628 92.8167 356.32 92.8167C356.896 92.8167 357.405 92.9228 357.848 93.1352C358.295 93.3445 358.65 93.6415 358.915 94.0262C359.18 94.4078 359.33 94.8541 359.367 95.3649H357.77C357.705 95.0233 357.551 94.7386 357.308 94.5109C357.068 94.2801 356.747 94.1647 356.343 94.1647C356.002 94.1647 355.702 94.257 355.443 94.4416C355.185 94.6232 354.983 94.8848 354.838 95.2265C354.697 95.5681 354.626 95.9774 354.626 96.4544C354.626 96.9376 354.697 97.3531 354.838 97.7009C354.98 98.0456 355.179 98.3118 355.434 98.4995C355.693 98.6842 355.996 98.7765 356.343 98.7765C356.59 98.7765 356.81 98.7304 357.004 98.638C357.201 98.5426 357.365 98.4057 357.498 98.2272C357.63 98.0487 357.721 97.8317 357.77 97.5762H359.367C359.327 98.0779 359.18 98.5226 358.924 98.9104C358.669 99.2951 358.321 99.5967 357.881 99.8152C357.441 100.031 356.924 100.138 356.33 100.138Z" fill="#383838"/>
<path d="M348.67 100.138C347.959 100.138 347.345 99.9907 346.828 99.6952C346.314 99.3967 345.918 98.975 345.641 98.4303C345.364 97.8825 345.226 97.2377 345.226 96.496C345.226 95.7666 345.364 95.1264 345.641 94.5755C345.921 94.0216 346.312 93.5907 346.814 93.2829C347.316 92.9721 347.905 92.8167 348.582 92.8167C349.019 92.8167 349.431 92.8874 349.819 93.029C350.21 93.1675 350.555 93.3829 350.853 93.6753C351.155 93.9677 351.392 94.3401 351.564 94.7925C351.737 95.2418 351.823 95.7774 351.823 96.399V96.9115H346.011V95.785H350.221C350.218 95.465 350.149 95.1803 350.013 94.931C349.878 94.6786 349.688 94.4801 349.445 94.3355C349.205 94.1908 348.925 94.1185 348.605 94.1185C348.263 94.1185 347.963 94.2016 347.705 94.3678C347.446 94.5309 347.245 94.7463 347.1 95.0141C346.959 95.2788 346.886 95.5696 346.883 95.8866V96.8699C346.883 97.2823 346.959 97.6363 347.109 97.9317C347.26 98.2241 347.471 98.4488 347.742 98.6057C348.013 98.7596 348.33 98.8365 348.693 98.8365C348.936 98.8365 349.156 98.8027 349.353 98.735C349.55 98.6642 349.721 98.5611 349.865 98.4257C350.01 98.2903 350.119 98.1225 350.193 97.9225L351.754 98.0979C351.655 98.5103 351.467 98.8704 351.19 99.1782C350.916 99.4828 350.566 99.7198 350.138 99.8891C349.71 100.055 349.221 100.138 348.67 100.138Z" fill="#383838"/>
<path d="M340.668 99.9998V92.9089H342.289V94.0908H342.362C342.492 93.6814 342.713 93.366 343.027 93.1444C343.344 92.9197 343.706 92.8074 344.112 92.8074C344.204 92.8074 344.308 92.812 344.421 92.8212C344.538 92.8274 344.635 92.8381 344.712 92.8535V94.3908C344.641 94.3662 344.529 94.3447 344.375 94.3262C344.224 94.3047 344.078 94.2939 343.937 94.2939C343.632 94.2939 343.358 94.36 343.115 94.4924C342.875 94.6216 342.686 94.8017 342.547 95.0325C342.409 95.2633 342.339 95.5296 342.339 95.8312V99.9998H340.668Z" fill="#383838"/>
<path d="M337.279 100V92.909H338.95V100H337.279ZM338.119 91.9027C337.854 91.9027 337.626 91.8149 337.436 91.6395C337.245 91.461 337.149 91.2471 337.149 90.9978C337.149 90.7455 337.245 90.5316 337.436 90.3561C337.626 90.1776 337.854 90.0884 338.119 90.0884C338.387 90.0884 338.614 90.1776 338.802 90.3561C338.993 90.5316 339.088 90.7455 339.088 90.9978C339.088 91.2471 338.993 91.461 338.802 91.6395C338.614 91.8149 338.387 91.9027 338.119 91.9027Z" fill="#383838"/>
<path d="M331.136 100H327.933V90.5454H331.201C332.14 90.5454 332.946 90.7347 333.62 91.1132C334.297 91.4887 334.817 92.0288 335.18 92.7336C335.544 93.4384 335.725 94.2817 335.725 95.2635C335.725 96.2483 335.542 97.0947 335.176 97.8025C334.813 98.5104 334.288 99.0536 333.602 99.4321C332.918 99.8107 332.097 100 331.136 100ZM329.645 98.5181H331.053C331.712 98.5181 332.261 98.398 332.701 98.158C333.142 97.9148 333.472 97.5532 333.694 97.0731C333.916 96.5899 334.026 95.9867 334.026 95.2635C334.026 94.5402 333.916 93.9401 333.694 93.463C333.472 92.9829 333.145 92.6244 332.711 92.3874C332.28 92.1473 331.744 92.0273 331.104 92.0273H329.645V98.5181Z" fill="#383838"/>
<path d="M377.355 20C375.626 20 374.209 21.4171 374.209 23.1459V37.912C370.581 34.4543 365.678 32.3287 360.264 32.3287C349.069 32.3287 340 41.3981 340 52.5931C340 63.7881 349.069 72.8575 360.264 72.8575C365.678 72.8575 370.581 70.7319 374.209 67.2742V68.5212C374.209 70.25 375.626 71.6671 377.355 71.6671C379.083 71.6671 380.5 70.25 380.5 68.5212V23.1459C380.5 21.4171 379.083 20 377.355 20Z" fill="url(#paint9_linear_715_705)"/>
<g opacity="0.12">
<path d="M374.208 57.0148V58.0635C374.208 60.7276 373.074 63.9019 370.949 67.4163C369.815 69.2868 368.398 71.2424 366.726 73.2263C364.232 76.2022 361.738 78.6396 360.264 80C358.79 78.6396 356.296 76.2306 353.83 73.283C352.838 72.121 351.96 70.9873 351.166 69.8537C351.081 69.7403 350.996 69.6269 350.939 69.5419C349.947 68.1531 349.125 66.7927 348.445 65.489C348.417 65.4323 348.389 65.3756 348.36 65.319C347 62.6548 346.32 60.2458 346.32 58.1201V57.0715C346.32 52.9619 348.02 49.1925 350.741 46.5567C353.263 44.1476 356.579 42.6455 360.264 42.6455C363.948 42.6455 367.321 44.1193 369.787 46.5567C370.042 46.8118 370.297 47.0952 370.552 47.3786C370.665 47.4636 370.722 47.577 370.807 47.662C370.864 47.7187 370.92 47.8037 370.977 47.8604C372.961 50.3545 374.18 53.5571 374.208 57.0148Z" fill="black"/>
</g>
<path d="M374.208 52.9333V53.9819C374.208 56.646 373.074 59.8203 370.949 63.3347C369.815 65.2053 368.398 67.1609 366.726 69.1448C364.232 72.1207 361.738 74.5581 360.264 75.9185C358.79 74.5581 356.296 72.149 353.83 69.2015C352.838 68.0395 351.96 66.9058 351.166 65.7721C351.081 65.6587 350.996 65.5454 350.939 65.4603C349.947 64.0716 349.125 62.7112 348.445 61.4075C348.417 61.3508 348.389 61.2941 348.36 61.2374C347 58.5733 346.32 56.1642 346.32 54.0386V52.9899C346.32 48.8804 348.02 45.1109 350.741 42.4751C353.263 40.0661 356.579 38.564 360.264 38.564C363.948 38.564 367.321 40.0377 369.787 42.4751C370.042 42.7302 370.297 43.0136 370.552 43.297C370.665 43.3821 370.722 43.4954 370.807 43.5805C370.864 43.6371 370.92 43.7222 370.977 43.7789C372.961 46.2729 374.18 49.4756 374.208 52.9333Z" fill="white"/>
<path d="M360.236 44.6008C355.815 44.6008 352.244 48.1719 352.244 52.5932C352.244 54.0103 352.612 55.3707 353.264 56.5327L348.418 61.4075C349.07 62.7113 349.92 64.0433 350.912 65.4604L356.609 59.7637C357.685 60.3305 358.933 60.6423 360.236 60.6423C364.658 60.6423 368.229 57.0712 368.229 52.6499C368.229 48.2286 364.658 44.6008 360.236 44.6008Z" fill="#3E62F5"/>
<path d="M357.855 47.0098C356.807 47.4633 355.985 48.2002 355.446 49.0788C355.191 49.5039 355.418 50.0991 355.9 50.1841C355.928 50.1841 355.956 50.1841 355.985 50.2125C356.297 50.2692 356.58 50.1274 356.75 49.844C357.147 49.2205 357.714 48.7104 358.451 48.3986C359.244 48.0585 360.066 48.0301 360.831 48.2285C361.115 48.3136 361.426 48.2285 361.596 47.9735C361.625 47.9451 361.625 47.9168 361.653 47.8884C361.937 47.4917 361.738 46.8965 361.256 46.7831C360.179 46.4713 358.961 46.528 357.855 47.0098Z" fill="white"/>
<defs>
<linearGradient id="paint0_linear_715_705" x1="206.672" y1="28.5834" x2="234.262" y2="28.5834" gradientUnits="userSpaceOnUse">
<stop stop-color="#FBAA19"/>
<stop offset="1" stop-color="#EF3E23"/>
</linearGradient>
<linearGradient id="paint1_linear_715_705" x1="205.154" y1="63.6613" x2="207.317" y2="57.747" gradientUnits="userSpaceOnUse">
<stop stop-color="#F78D1E"/>
<stop offset="1" stop-color="#F37121"/>
</linearGradient>
<linearGradient id="paint2_linear_715_705" x1="188.001" y1="65.699" x2="221.619" y2="29.6654" gradientUnits="userSpaceOnUse">
<stop stop-color="#FEBE2D"/>
<stop offset="1" stop-color="#F04E23"/>
</linearGradient>
<linearGradient id="paint3_linear_715_705" x1="211.757" y1="44.6401" x2="193.157" y2="73.2703" gradientUnits="userSpaceOnUse">
<stop stop-color="#EA4425"/>
<stop offset="1" stop-color="#FDBB27"/>
</linearGradient>
<linearGradient id="paint4_linear_715_705" x1="183.337" y1="34.8492" x2="242.058" y2="34.8492" gradientUnits="userSpaceOnUse">
<stop stop-color="#F47920"/>
<stop offset="1" stop-color="#E93825"/>
</linearGradient>
<linearGradient id="paint5_linear_715_705" x1="152.318" y1="30.9298" x2="271.798" y2="30.9298" gradientUnits="userSpaceOnUse">
<stop stop-color="#FDCA0B"/>
<stop offset="1" stop-color="#F5841F"/>
</linearGradient>
<linearGradient id="paint6_linear_715_705" x1="194.997" y1="45.3853" x2="207.43" y2="88.752" gradientUnits="userSpaceOnUse">
<stop stop-color="#E73C25"/>
<stop offset="1" stop-color="#FAA21B"/>
</linearGradient>
<linearGradient id="paint7_linear_715_705" x1="110.835" y1="52.4238" x2="288.193" y2="52.4238" gradientUnits="userSpaceOnUse">
<stop stop-color="#FDBA12"/>
<stop offset="1" stop-color="#F7921E"/>
</linearGradient>
<linearGradient id="paint8_linear_715_705" x1="183.112" y1="43.4882" x2="189.757" y2="44.6683" gradientUnits="userSpaceOnUse">
<stop stop-color="#FEBE2D"/>
<stop offset="1" stop-color="#F04E23"/>
</linearGradient>
<linearGradient id="paint9_linear_715_705" x1="351.888" y1="73.3213" x2="382.22" y2="18.9222" gradientUnits="userSpaceOnUse">
<stop stop-color="#2AE498"/>
<stop offset="0.0111746" stop-color="#2AE299"/>
<stop offset="0.4845" stop-color="#359DCA"/>
<stop offset="0.8263" stop-color="#3B72E9"/>
<stop offset="1" stop-color="#3E62F5"/>
</linearGradient>
<clipPath id="clip0_715_705">
<rect width="56" height="56" fill="white" transform="translate(317 207)"/>
</clipPath>
<clipPath id="clip1_715_705">
<rect width="60" height="53.7441" fill="white" transform="translate(30 20)"/>
</clipPath>
</defs>
</svg>
