<svg xmlns="http://www.w3.org/2000/svg" xmlns:xlink="http://www.w3.org/1999/xlink" width="538" height="360.2" viewBox="0 0 538 360.2">
  <defs>
    <linearGradient id="linear-gradient" x1="-2.006" y1="-0.322" x2="-3.094" y2="-0.322" gradientUnits="objectBoundingBox">
      <stop offset="0" stop-color="#e9a402"/>
      <stop offset="1" stop-color="#fde803"/>
    </linearGradient>
    <linearGradient id="linear-gradient-2" y1="0.5" x2="1" y2="0.5" gradientUnits="objectBoundingBox">
      <stop offset="0" stop-color="#37474f"/>
      <stop offset="1" stop-color="#263238"/>
    </linearGradient>
    <linearGradient id="linear-gradient-3" x1="1" y1="0.5" x2="0" y2="0.5" xlink:href="#linear-gradient-2"/>
    <linearGradient id="linear-gradient-4" x1="-2.942" y1="0.215" x2="-1.856" y2="1.301" gradientUnits="objectBoundingBox">
      <stop offset="0" stop-color="#ff4081"/>
      <stop offset="1" stop-color="#a51fae"/>
    </linearGradient>
    <linearGradient id="linear-gradient-5" x1="0.5" y1="1" x2="0.5" y2="-0.351" gradientUnits="objectBoundingBox">
      <stop offset="0" stop-color="#a51fae"/>
      <stop offset="1" stop-color="#ff4081"/>
    </linearGradient>
  </defs>
  <g id="Group_10925" data-name="Group 10925" transform="translate(-691 -136.887)">
    <path id="Path_13979" data-name="Path 13979" d="M3.226-1v-9.932H1.4V.691H8.466V-1ZM9.951-8.988a1.138,1.138,0,0,0,1.633,0,1.138,1.138,0,0,0,0-1.633,1.114,1.114,0,0,0-1.633,0A1.138,1.138,0,0,0,9.951-8.988Zm1.707,1.752H9.892V.691h1.767ZM20.981.691V-3.733a1.768,1.768,0,0,1,1.752-2c1.173,0,1.692.757,1.692,1.96V.691h1.767v-4.9c0-1.9-.965-3.207-2.88-3.207a3.427,3.427,0,0,0-2.761,1.306A2.577,2.577,0,0,0,18.1-7.415a2.841,2.841,0,0,0-2.36,1.247V-7.237H14.019V.691h1.767V-3.718a1.778,1.778,0,0,1,1.737-2.019c1.173,0,1.707.787,1.707,1.974V.691Zm7.556-9.679a1.138,1.138,0,0,0,1.633,0,1.138,1.138,0,0,0,0-1.633,1.114,1.114,0,0,0-1.633,0A1.138,1.138,0,0,0,28.538-8.988Zm1.707,1.752H28.478V.691h1.767Zm6.681,1.588V-7.237H34.981v-2.45H33.214v2.45H31.759v1.588h1.455v3.786A2.438,2.438,0,0,0,35.961.78a2.773,2.773,0,0,0,.95-.163v-1.5a2.516,2.516,0,0,1-.564.059c-.906,0-1.366-.371-1.366-1.321v-3.5Zm9.011,2.895a4.843,4.843,0,0,0,.03-.549,4.247,4.247,0,0,0-1.024-2.969A3.626,3.626,0,0,0,42.107-7.4a3.756,3.756,0,0,0-2.85,1.2,4.082,4.082,0,0,0-1.143,2.91A4.03,4.03,0,0,0,39.3-.334,4.075,4.075,0,0,0,42.27.839a3.759,3.759,0,0,0,3.385-1.915l-1.277-.846A2.236,2.236,0,0,1,42.24-.69a2.42,2.42,0,0,1-1.6-.579,1.954,1.954,0,0,1-.713-1.485Zm-3.83-3.132a1.907,1.907,0,0,1,2.064,1.8H40.013A2.05,2.05,0,0,1,42.107-5.886Zm5.122,2.6a4.151,4.151,0,0,0,1.113,2.88A3.614,3.614,0,0,0,51.133.81,3.749,3.749,0,0,0,52.558.483,2.486,2.486,0,0,0,53.79-.541V.691h1.722V-11.393H53.746v5.285a2.349,2.349,0,0,0-1.173-.95,3.449,3.449,0,0,0-1.4-.327,3.638,3.638,0,0,0-2.865,1.247A4.2,4.2,0,0,0,47.228-3.288ZM51.4-5.8a2.191,2.191,0,0,1,1.707.727,2.554,2.554,0,0,1,.668,1.781,2.554,2.554,0,0,1-.668,1.781A2.208,2.208,0,0,1,51.4-.794a2.262,2.262,0,0,1-1.722-.713,2.611,2.611,0,0,1-.653-1.781,2.611,2.611,0,0,1,.653-1.781A2.222,2.222,0,0,1,51.4-5.8Zm8.982-3.444h3.682V.691h1.826V-9.241h3.7v-1.692h-9.2Zm10.748.252a1.138,1.138,0,0,0,1.633,0,1.138,1.138,0,0,0,0-1.633,1.114,1.114,0,0,0-1.633,0A1.138,1.138,0,0,0,71.13-8.988Zm1.707,1.752H71.07V.691h1.767ZM82.16.691V-3.733a1.768,1.768,0,0,1,1.752-2c1.173,0,1.692.757,1.692,1.96V.691h1.767v-4.9c0-1.9-.965-3.207-2.88-3.207a3.427,3.427,0,0,0-2.761,1.306,2.577,2.577,0,0,0-2.45-1.306,2.841,2.841,0,0,0-2.36,1.247V-7.237H75.2V.691h1.767V-3.718A1.778,1.778,0,0,1,78.7-5.737c1.173,0,1.707.787,1.707,1.974V.691ZM96.946-2.753a4.841,4.841,0,0,0,.03-.549,4.247,4.247,0,0,0-1.024-2.969A3.626,3.626,0,0,0,93.116-7.4a3.756,3.756,0,0,0-2.85,1.2,4.082,4.082,0,0,0-1.143,2.91A4.03,4.03,0,0,0,90.31-.334,4.075,4.075,0,0,0,93.279.839a3.759,3.759,0,0,0,3.385-1.915l-1.277-.846A2.236,2.236,0,0,1,93.25-.69a2.42,2.42,0,0,1-1.6-.579,1.954,1.954,0,0,1-.713-1.485Zm-3.83-3.132a1.907,1.907,0,0,1,2.064,1.8H91.023A2.05,2.05,0,0,1,93.116-5.886Zm9.115.787a5.718,5.718,0,0,0,1.722,4.246A5.825,5.825,0,0,0,108.169.824a5.847,5.847,0,0,0,4.246-1.707,5.711,5.711,0,0,0,1.752-4.261,5.721,5.721,0,0,0-1.737-4.246,5.732,5.732,0,0,0-4.216-1.707,5.806,5.806,0,0,0-4.231,1.737A5.757,5.757,0,0,0,102.231-5.1ZM108.2-.868a3.8,3.8,0,0,1-2.88-1.247,4.238,4.238,0,0,1-1.173-3.028,4.179,4.179,0,0,1,1.173-3.014A3.8,3.8,0,0,1,108.2-9.4a3.791,3.791,0,0,1,2.865,1.247,4.191,4.191,0,0,1,1.188,3.014,4.251,4.251,0,0,1-1.188,3.028A3.791,3.791,0,0,1,108.2-.868Zm17.191-9a2.667,2.667,0,0,1,.638.059v-1.514a3.194,3.194,0,0,0-.817-.119,2.842,2.842,0,0,0-3.118,3.088v1.113h-3.578V-8.291c0-1.054.5-1.574,1.514-1.574a2.667,2.667,0,0,1,.638.059v-1.514a3.194,3.194,0,0,0-.817-.119,2.842,2.842,0,0,0-3.118,3.088v1.113H115.28v1.559h1.455V.691h1.781V-5.678h3.578V.691h1.781V-5.678h2.108V-7.237h-2.108V-8.291C123.876-9.345,124.381-9.864,125.39-9.864Zm9.175,7.111a4.843,4.843,0,0,0,.03-.549,4.247,4.247,0,0,0-1.024-2.969A3.626,3.626,0,0,0,130.735-7.4a3.756,3.756,0,0,0-2.85,1.2,4.082,4.082,0,0,0-1.143,2.91,4.03,4.03,0,0,0,1.188,2.954A4.075,4.075,0,0,0,130.9.839a3.759,3.759,0,0,0,3.385-1.915l-1.277-.846A2.236,2.236,0,0,1,130.868-.69a2.42,2.42,0,0,1-1.6-.579,1.954,1.954,0,0,1-.713-1.485Zm-3.83-3.132a1.907,1.907,0,0,1,2.064,1.8h-4.157A2.05,2.05,0,0,1,130.735-5.886Zm10.006-1.381a1.586,1.586,0,0,0-.431-.045,2.354,2.354,0,0,0-2.182,1.336V-7.237h-1.722V.691h1.767V-3.332A1.908,1.908,0,0,1,140.236-5.5a2.552,2.552,0,0,1,.5.045Z" transform="translate(888.6 496.248)" fill="#464646"/>
    <g id="Group_10920" data-name="Group 10920" transform="translate(1065.357 136.887)">
      <line id="Line_164" data-name="Line 164" x1="14.713" y2="14.713" transform="translate(54.565 68.908)" fill="none" stroke="#263238" stroke-linecap="round" stroke-linejoin="round" stroke-width="4"/>
      <line id="Line_165" data-name="Line 165" x1="14.713" y2="14.713" transform="translate(45.524 68.908)" fill="none" stroke="#263238" stroke-linecap="round" stroke-linejoin="round" stroke-width="4"/>
      <g id="Group_10910" data-name="Group 10910" transform="translate(0 0)">
        <path id="Path_13944" data-name="Path 13944" d="M515.2,60.638l-9.093-5.8,5.415,9.33Z" transform="translate(-501.861 -48.701)" fill="#263238"/>
        <path id="Path_13945" data-name="Path 13945" d="M518.76,60.377l-10.53,2.345,10.432,2.748Z" transform="translate(-508.23 -46.903)" fill="#263238"/>
        <path id="Path_13946" data-name="Path 13946" d="M520.816,108.1c-18.255,18.255-46.146,19.961-62.3,3.812-10.1-10.1-13.215-24.784-9.671-38.837,3.167-12.559,18.9-18.038,27.3-9.645Z" transform="translate(-429.781 -47.216)" fill="url(#linear-gradient)"/>
        <ellipse id="Ellipse_332" data-name="Ellipse 332" cx="19.029" cy="19.029" rx="19.029" ry="19.029" transform="translate(13.941 47.228) rotate(-106.338)" fill="url(#linear-gradient-2)"/>
        <g id="Group_10909" data-name="Group 10909" transform="translate(19.511 11.043)">
          <path id="Path_13947" data-name="Path 13947" d="M495.466,61.008a4.212,4.212,0,1,0,5.58-2.086A4.213,4.213,0,0,0,495.466,61.008Z" transform="translate(-495.086 -58.542)" fill="#fff"/>
          <path id="Path_13948" data-name="Path 13948" d="M497.371,60.408a1.9,1.9,0,1,0,2.523-.943A1.905,1.905,0,0,0,497.371,60.408Z" transform="translate(-495.382 -58.298)" fill="#263238"/>
        </g>
        <path id="Path_13949" data-name="Path 13949" d="M448.21,84.827l33.355,33.355L433.608,94.134Z" transform="translate(-372.208 -38.972)" fill="url(#linear-gradient-3)"/>
        <path id="Path_13950" data-name="Path 13950" d="M503.883,100.048a29.369,29.369,0,1,1-41.535-41.535Z" transform="translate(-421.195 -47.508)" fill="url(#linear-gradient-4)"/>
      </g>
    </g>
    <path id="Path_13972" data-name="Path 13972" d="M-68.553-33.91l-.776,6.543-5.477-2.472a15.985,15.985,0,0,0-6.3-1.648,8.5,8.5,0,0,0-4.653,1.357,3.719,3.719,0,0,0-1.357,2.86,26.9,26.9,0,0,0,.63,3.393,6.342,6.342,0,0,1-.049,3.587A3.148,3.148,0,0,0-83.772-18.3a17.242,17.242,0,0,0,2.957-.679,5.3,5.3,0,0,1,3.247-.048q1.939-1.745,5.574-5.089a6.011,6.011,0,0,1,.194,1.454,29.109,29.109,0,0,1-.776,3.732,16.3,16.3,0,0,0-.194,5.913q-2.084-3.151-8.385-3.151a40.977,40.977,0,0,0-5.38.436q-2.133,1.842-2.133,5.719,0,.969.824,6.834,1.163.969,2.327,1.987A5.192,5.192,0,0,0-82.609.019a127.269,127.269,0,0,0-14.2.048q4.071-2.278,4.071-8.579,0-1.018-.63-7.222a10.957,10.957,0,0,1-.679-4.071q0,1.357.242-4.362a9.464,9.464,0,0,0-.533-3.975,6.419,6.419,0,0,0-3.054-3.247,2.12,2.12,0,0,1,1.115-1.987,9.757,9.757,0,0,1,2.5-.63,9.759,9.759,0,0,0,2.5-.63,58.307,58.307,0,0,0,10.857.679Q-70.443-34.007-68.553-33.91Zm0,27.434a1.874,1.874,0,0,1,.775,1.357,5.275,5.275,0,0,1-1.115,2.036A2.264,2.264,0,0,0-69.328-.66a53.782,53.782,0,0,1-9.888.727A9.9,9.9,0,0,0-75.532-1q1.793-.824,3.538-1.648Zm26.319,8.24a5.748,5.748,0,0,1-3.3,1.309q-2.036,0-3.878-2.472l-2.811-4.556Q-53.77-6.428-55.03-6.428q-1.939,0-4.653,5.574a2.6,2.6,0,0,0-1.066,1.7q0,1.212,2.86,1.454Q-59.1,3.363-64.336,3.363q0-1.939,3.441-6.01,2.617-2.86,5.186-5.719a1.61,1.61,0,0,0,.339-1.018,4.978,4.978,0,0,0-1.551-3.054,39.41,39.41,0,0,0-4.9-3.684q-3.054-2.133-3.054-3.829a3.261,3.261,0,0,1,.048-.533,6.334,6.334,0,0,1,1.793-.242,14.087,14.087,0,0,1,3.247.533,13.947,13.947,0,0,0,2.957.533,3.542,3.542,0,0,0,2.375-.824,3.433,3.433,0,0,0,2.811,1.745A15.089,15.089,0,0,0-48.2-19.757a3.979,3.979,0,0,1,3.49-.048h1.987a3.734,3.734,0,0,1-2.133,2.4q-1.842.994-3.635,1.915a5.7,5.7,0,0,0-2.666,3.054,6.225,6.225,0,0,0-.1,1.115,8.756,8.756,0,0,0,2.036,5.186,34.945,34.945,0,0,0,3.974,4.314A15.368,15.368,0,0,1-42.234,1.763ZM-19.6-20.1a2.107,2.107,0,0,1-.751,1.5q-.751.727-1.43,1.357a5.852,5.852,0,0,1-1.212.145A3.377,3.377,0,0,1-25.9-18.739q-.872-1.551-1.793-3.1a3.784,3.784,0,0,0-3.2-1.648A10.691,10.691,0,0,0-36.708-13.5a16,16,0,0,0,.63,4.362q2.763,5.816,7.173,6.059a4.148,4.148,0,0,0,1.406.242A9.769,9.769,0,0,0-23.718-3.98a9.764,9.764,0,0,1,3.49-1.139,13.346,13.346,0,0,0-3.2,1.987A17.287,17.287,0,0,1-26.578-.9a10.614,10.614,0,0,1-4.9,1.066,20.84,20.84,0,0,1-3.781-.388q-4.653-2.908-4.653-9.209,0-1.212.242-4.023.194-2.666.145-4.071a13.605,13.605,0,0,0-.582-3.878q3.151-3.587,9.694-3.587a31.982,31.982,0,0,1,7.27.921,4.216,4.216,0,0,1,1.793,1.987A4.322,4.322,0,0,0-19.6-20.1Zm12.99-9.015A69.6,69.6,0,0,1-7.772-18.618,69.6,69.6,0,0,0-8.935-8.124,27.742,27.742,0,0,0-7.675.309L-13.54,1.473l1.987-20.115q-2.036-1.5-2.036-4.9,0-.679.073-1.987t.073-1.987a5.675,5.675,0,0,0-1.163-3.878,6.492,6.492,0,0,0-3.781-1.793,16.159,16.159,0,0,1,3.635-1.624,16.208,16.208,0,0,1,3.878-.364,5.147,5.147,0,0,0,3.2-1.406A25.415,25.415,0,0,1-6.609-29.112ZM19.032-2.55A7.476,7.476,0,0,1,13.506-.418q-.776,0-3.1-.194a17.821,17.821,0,0,0-3.1-.1A8.88,8.88,0,0,0,4.151.115,7.173,7.173,0,0,1-.841-2.89,9.868,9.868,0,0,1-1.907-7.979q0,3.587.194-4.847a18.271,18.271,0,0,0-.436-4.75,8.243,8.243,0,0,0-2.472-4.071L-5.979-25.04a3.025,3.025,0,0,0,2.617,1.406,14.842,14.842,0,0,0,2.617-.436,4.81,4.81,0,0,1,2.375-.145,2.706,2.706,0,0,1,1.7,1.987,22.593,22.593,0,0,0-.921,6.64q0,2.181.388,5.962.485,4.12.533,5.768A3.627,3.627,0,0,0,6.43-2.5a12.349,12.349,0,0,0,2.52-.339l2.327-.485a11.5,11.5,0,0,0,1.939-6.931A22.452,22.452,0,0,0,10.5-20.872a2.7,2.7,0,0,1-.872-1.793,4.155,4.155,0,0,0-.485-1.648,2.12,2.12,0,0,0,1.357.388,19.537,19.537,0,0,0,3.49-.727,5.644,5.644,0,0,1,3.247-.242q1.357.582,1.212,3.247a28.587,28.587,0,0,0-1.745,9.936Q16.705-5.992,19.032-2.55ZM37.3-3.52Q36.19-2.5,35.123-1.532A4.155,4.155,0,0,1,32.6-.515,4.037,4.037,0,0,1,31.537-.66a6.565,6.565,0,0,0,2.181-4.992,4.207,4.207,0,0,0-.824-2.569,43.446,43.446,0,0,0-4.992-2.86,23.341,23.341,0,0,1-4.944-3.2,6.647,6.647,0,0,1-2.23-4.944,9.257,9.257,0,0,1,.1-1.309,3.355,3.355,0,0,1,1.5-2.714q.388-.242,2.957-1.406A6.129,6.129,0,0,0,28-26.591a13.765,13.765,0,0,0,7.319,2.181,6.513,6.513,0,0,0,1.163-.1v6.059a4.475,4.475,0,0,1-.63.048q-1.5,0-3.587-1.89a8.162,8.162,0,0,0-3.538-2.133,4.346,4.346,0,0,0-2.23,4.168q0,.533.048,1.115a20.567,20.567,0,0,0,4.508,2.811,26.879,26.879,0,0,1,4.9,2.908,5.563,5.563,0,0,1,2.278,4.362A8.348,8.348,0,0,1,37.3-3.52ZM29.356-1.436l-7.173-.533V-6.137a34.354,34.354,0,0,1,2.86,2.763,5.407,5.407,0,0,0,3.684,1.987A4.475,4.475,0,0,0,29.356-1.436ZM48.016-28.869q-2.084-.824-4.12-1.648-2.375-1.163-2.375-2.811a4.213,4.213,0,0,1,.921-2.327,3.17,3.17,0,0,1,2.084-.679,23.52,23.52,0,0,1,3.49.679ZM50.2-22.811a12.646,12.646,0,0,0-2.084,7.464,48.656,48.656,0,0,0,.751,7.052,41.971,41.971,0,0,1,.7,6.665A3.023,3.023,0,0,1,46.708.164a14.573,14.573,0,0,1-2.036-.242,10.864,10.864,0,0,0-2.278-.194,4.314,4.314,0,0,0-2.133.727q4.508-1.89,4.508-7.755,0-1.406-.291-4.314t-.291-4.265a13.717,13.717,0,0,1,.242-2.763l-4.992-2.084q1.793-1.066,3.635-2.133a9.4,9.4,0,0,1,4.217-1.357A3.537,3.537,0,0,1,50.2-22.811Zm23.411-.048q1.551,1.212,1.551,2.181,0,.921-2.3,2.52t-2.448,2.908q0,3.2-2.569,7.8Q65.078-2.356,64.69.115L62.557.5q-3.441-9.549-4.071-11.051a32.586,32.586,0,0,0-6.253-9.791,2.763,2.763,0,0,1,2.908-2.617,14.857,14.857,0,0,1,3.029.509,14.856,14.856,0,0,0,3.029.509,3.127,3.127,0,0,0,1.5-.339,12.789,12.789,0,0,0-1.163,5.332,15.582,15.582,0,0,0,3.878,9.985,2.313,2.313,0,0,0,2.327-1.745q.1-.339.291-3.49A4.193,4.193,0,0,1,69.149-15.2a23.937,23.937,0,0,1,.048-3.393q.048-2.036-1.309-2.472.291-1.26,1.89-1.26.291,0,.921.048t.969.048A2.641,2.641,0,0,0,73.608-22.859Zm24.671,14.1q-.727,1.5-1.406,3.005a13.845,13.845,0,0,1-2.52,3.587A5.746,5.746,0,0,1,90.33-.418a7.23,7.23,0,0,1-2.617.485,9.59,9.59,0,0,1-5.962-2.278A12.665,12.665,0,0,1,77.777-7.4a10.9,10.9,0,0,1-.727-4.12,29.829,29.829,0,0,1,.679-5.429,36.984,36.984,0,0,0,.824-4.944A10.742,10.742,0,0,1,87.664-26.4a13.71,13.71,0,0,1,6.083,1.406,11.877,11.877,0,0,1,4.532,3.684q.048.969.048,1.648,0,4.023-2.908,4.75-.291-.048-2.908-.921a9.421,9.421,0,0,0-3.005-.582,6.46,6.46,0,0,0-1.357.145l2.23-1.163a5.636,5.636,0,0,0,1.987-1.745,3.4,3.4,0,0,0,.194-1.066q0-2.375-3.344-2.375a7.081,7.081,0,0,0-3.3.727,5.555,5.555,0,0,0-1.939,1.115q-.872.824-1.745,1.6a1.83,1.83,0,0,0-.1.582,1.866,1.866,0,0,0,.509,1.188q.509.606.994,1.139-2.714,1.018-2.714,2.86a7.1,7.1,0,0,0,1.5,3.49,26.825,26.825,0,0,1,2.036,3.3A4.627,4.627,0,0,0,88.391-4.2l4.8.291Z" transform="translate(854.411 209.08)" fill="#f98106"/>
    <g id="Group_10923" data-name="Group 10923" transform="translate(770 388.838)">
      <path id="Path_13976" data-name="Path 13976" d="M-9.848-13.548a8.36,8.36,0,0,0-3.123,6.3q-.2,3.6-.394,7.231a7.945,7.945,0,0,1-4.3,5.881q-3.573.2-3.855.2-5.093,0-6.387-3.208a36.828,36.828,0,0,1-1.013-6.668q-.253-3.545-.506-7.119-.169-1.66-1.154-1.66a2.154,2.154,0,0,0-1.266.506,2.774,2.774,0,0,1,2.785-1.857,14.067,14.067,0,0,1,2.307.3,14.067,14.067,0,0,0,2.307.3,3.572,3.572,0,0,0,1.238-.2,1.387,1.387,0,0,1,.281.732q0,.478-1.322,1.1t-1.435,1.407q.732,1.632.309,5.571a22.637,22.637,0,0,0-.113,6.134,5.859,5.859,0,0,0,4.164,4.333,6.38,6.38,0,0,0,.844.056q3.123,0,5.543-3.658a9.04,9.04,0,0,0,.478-2.982A27.6,27.6,0,0,0-15.39-6.57a22.616,22.616,0,0,1-.76-5.515l-1.519-1.154a22.217,22.217,0,0,0,2.785-.366,16.682,16.682,0,0,1,2.785-.338A6.163,6.163,0,0,1-9.848-13.548ZM5.6-4.206a5.5,5.5,0,0,1-3.4.844q-3.292,0-2.729-.028A5.382,5.382,0,0,0-2.926-2.8,3.586,3.586,0,0,0-4.445-.549a10.132,10.132,0,0,1,1.1,4.333A4.669,4.669,0,0,1-3.77,5.838a4.373,4.373,0,0,0-1.857-.366,7,7,0,0,0-3.6,1.069Q-9.06,5.135-6.7,3.419a11.036,11.036,0,0,0,.2-2.11,23.328,23.328,0,0,0-.549-4.263A23.149,23.149,0,0,1-7.6-7.1a9.457,9.457,0,0,1,.478-3.011l-2.673-2.954a13.177,13.177,0,0,1,4.5-.732q1.125,0,3.039.169,2.392.2,3.264.253l4.164,2.138A5.7,5.7,0,0,1,6.556-7.5,6.252,6.252,0,0,1,5.6-4.206ZM2.166-7.864A2.952,2.952,0,0,0,.394-10.481a8.3,8.3,0,0,0-3.236-.76,2.112,2.112,0,0,1,.253,1.1A12.462,12.462,0,0,1-2.912-7.92,12.462,12.462,0,0,0-3.236-5.7q0,1.97,2.195,1.97a7.518,7.518,0,0,0,.872-.056,5.018,5.018,0,0,1,1.322-1.8A3.115,3.115,0,0,0,2.223-7.47,1.428,1.428,0,0,0,2.166-7.864ZM34.185-13.8a5.85,5.85,0,0,1,.76,3.151,2.852,2.852,0,0,1-.957,2.56V-7.7q-.647.141-.985-.619-.281-.619-.535-1.238L29.29-11.831A5.682,5.682,0,0,0,27.742-9.1a12.321,12.321,0,0,0-.394,3.179v3.011a19.611,19.611,0,0,1-.281,2.49,19.6,19.6,0,0,0-.281,2.771,3.735,3.735,0,0,0,2.082,3.77,5.3,5.3,0,0,0-3.32-.211A5.4,5.4,0,0,1,22.2,5.7a2.9,2.9,0,0,0,2.082-2.954,14.144,14.144,0,0,0-.141-1.6A14.175,14.175,0,0,1,24-.492a3.664,3.664,0,0,1,.2-1.266,8.385,8.385,0,0,1-1.238-4.7q0-.45.042-1.351t.042-1.322a8.054,8.054,0,0,0-.394-2.7,2.311,2.311,0,0,0-1.125.366,2.668,2.668,0,0,1-1.1.394q-.675,0-1.294-.929a2.781,2.781,0,0,0-1.66,2.589A4.021,4.021,0,0,0,17.866-7.7Q15.9-8.061,15.9-9.609A8.033,8.033,0,0,1,16.4-11.8a4.306,4.306,0,0,0,.366-1.885,40.474,40.474,0,0,0,6.865.7,32.754,32.754,0,0,0,5.205-.563A22.768,22.768,0,0,1,34.185-13.8ZM55.6-.183a37.83,37.83,0,0,1-3.742,3.855,7.457,7.457,0,0,1-4.727,1.773A9.272,9.272,0,0,1,45.552,5.3a4.294,4.294,0,0,1-.844.084,5.672,5.672,0,0,1-2.926-.872A12.961,12.961,0,0,1,39.39,2.6q-.985-1.013-1.97-2A7.357,7.357,0,0,1,36.239-3,9.766,9.766,0,0,1,36.633-5.3a25.631,25.631,0,0,0,.619-2.954,13.092,13.092,0,0,0,2.617-2.307,31.32,31.32,0,0,1,2.589-2.589A4.578,4.578,0,0,1,45.3-14.42a3.194,3.194,0,0,1,1.435.366,3.2,3.2,0,0,1,1.322-.253,8.364,8.364,0,0,1,5.177,2.11q3.517,1.125,3.517,3.8a15.2,15.2,0,0,1-.633,3.32,15.32,15.32,0,0,0-.633,3.686A6.452,6.452,0,0,0,55.6-.183ZM51.742-8.539a12.036,12.036,0,0,1-1.829-1.688A20.6,20.6,0,0,0,48.113-12,3.4,3.4,0,0,0,46-12.816a3.879,3.879,0,0,0-1.97.619,5.636,5.636,0,0,0-2.785,5.149,6.479,6.479,0,0,0-1.491,2.223A9.038,9.038,0,0,0,38.8-.971,4.91,4.91,0,0,0,42.26,3.841a5.086,5.086,0,0,0,2.926.9,7.125,7.125,0,0,0,5.374-2.7A5.961,5.961,0,0,0,52.108-2.1a21.985,21.985,0,0,0-.225-2.518,22.215,22.215,0,0,1-.225-2.659A8.966,8.966,0,0,1,51.742-8.539Z" transform="translate(31.85 45.582)"/>
      <path id="Path_13975" data-name="Path 13975" d="M-.522.078A37.83,37.83,0,0,1-4.264,3.932,7.457,7.457,0,0,1-8.991,5.7a9.272,9.272,0,0,1-1.576-.141,4.294,4.294,0,0,1-.844.084,5.672,5.672,0,0,1-2.926-.872,12.961,12.961,0,0,1-2.392-1.913q-.985-1.013-1.97-2a7.357,7.357,0,0,1-1.182-3.6,9.766,9.766,0,0,1,.394-2.307A25.631,25.631,0,0,0-18.867-8,13.092,13.092,0,0,0-16.25-10.3a31.319,31.319,0,0,1,2.589-2.589A4.578,4.578,0,0,1-10.82-14.16a3.194,3.194,0,0,1,1.435.366,3.2,3.2,0,0,1,1.322-.253,8.364,8.364,0,0,1,5.177,2.11Q.631-10.811.631-8.138A15.2,15.2,0,0,1,0-4.818,15.32,15.32,0,0,0-.635-1.132,6.452,6.452,0,0,0-.522.078ZM-4.377-8.279A12.036,12.036,0,0,1-6.206-9.967a20.6,20.6,0,0,0-1.8-1.773,3.4,3.4,0,0,0-2.11-.816,3.879,3.879,0,0,0-1.97.619,5.636,5.636,0,0,0-2.785,5.149,6.479,6.479,0,0,0-1.491,2.223A9.038,9.038,0,0,0-17.32-.71,4.91,4.91,0,0,0-13.859,4.1a5.086,5.086,0,0,0,2.926.9A7.125,7.125,0,0,0-5.559,2.3,5.961,5.961,0,0,0-4.011-1.836a21.983,21.983,0,0,0-.225-2.518,22.215,22.215,0,0,1-.225-2.659A8.965,8.965,0,0,1-4.377-8.279Zm23.719-3.6q0,.675-.028,1.322a1.445,1.445,0,0,1-.788,1.1,4.04,4.04,0,0,1-1.688-1.463,3.118,3.118,0,0,0-2-1.294,5.6,5.6,0,0,1-1.154.113q-.506,0-2.392-.253a4.467,4.467,0,0,0-2.054.056,2.626,2.626,0,0,0-1.547,1.632,6.2,6.2,0,0,1,.464,2.378,7.048,7.048,0,0,0,.408,2.349A2.383,2.383,0,0,0,10.7-4.734a2.371,2.371,0,0,0,1.013.253,3.2,3.2,0,0,0,1.97-1.1,3.558,3.558,0,0,1,2-1.154V-8.251q.732.056.928,1.435a3.736,3.736,0,0,0,.647,2.082A3.92,3.92,0,0,0,16.838-2.9a1.886,1.886,0,0,1-.844,1.66Q14.952-3.58,11.351-3.58a16.206,16.206,0,0,0-3.179.366,10.212,10.212,0,0,0-.985,4.474,5.956,5.956,0,0,0,1.463,4.3q-.422.844-2.026.816a23.68,23.68,0,0,0-2.589-.028,15.091,15.091,0,0,0,.225-2.645,37.835,37.835,0,0,0-.647-5.74,38.07,38.07,0,0,1-.647-5.881,16.414,16.414,0,0,1,.225-2.757,2.33,2.33,0,0,1-1.744-2.476,4.628,4.628,0,0,1,.056-.7,48.663,48.663,0,0,0,8.3-1.21A3.967,3.967,0,0,0,12-14.582q-1.379,0,3.292-.2a5.7,5.7,0,0,1,2.87.422A2.5,2.5,0,0,1,19.342-11.881Zm17.81,0q0,.675-.028,1.322a1.445,1.445,0,0,1-.788,1.1,4.04,4.04,0,0,1-1.688-1.463,3.118,3.118,0,0,0-2-1.294,5.6,5.6,0,0,1-1.154.113q-.506,0-2.392-.253a4.467,4.467,0,0,0-2.054.056A2.626,2.626,0,0,0,25.5-10.671a6.2,6.2,0,0,1,.464,2.378,7.049,7.049,0,0,0,.408,2.349,2.383,2.383,0,0,0,2.138,1.21,2.371,2.371,0,0,0,1.013.253,3.2,3.2,0,0,0,1.97-1.1,3.558,3.558,0,0,1,2-1.154V-8.251q.732.056.928,1.435a3.736,3.736,0,0,0,.647,2.082A3.92,3.92,0,0,0,34.648-2.9a1.886,1.886,0,0,1-.844,1.66Q32.763-3.58,29.161-3.58a16.206,16.206,0,0,0-3.179.366A10.212,10.212,0,0,0,25,1.259a5.956,5.956,0,0,0,1.463,4.3q-.422.844-2.026.816a23.68,23.68,0,0,0-2.589-.028,15.091,15.091,0,0,0,.225-2.645,37.835,37.835,0,0,0-.647-5.74,38.07,38.07,0,0,1-.647-5.881A16.414,16.414,0,0,1,21-10.671a2.33,2.33,0,0,1-1.744-2.476,4.627,4.627,0,0,1,.056-.7,48.663,48.663,0,0,0,8.3-1.21,3.967,3.967,0,0,0,2.195.478q-1.379,0,3.292-.2a5.7,5.7,0,0,1,2.87.422A2.5,2.5,0,0,1,37.152-11.881Z" transform="translate(313.737 46.222)"/>
      <g id="Rectangle_3260" data-name="Rectangle 3260" transform="translate(105 0.162)" fill="#f2f2f2" stroke="#f98126" stroke-width="3">
        <rect width="172.773" height="83.408" rx="10" stroke="none"/>
        <rect x="1.5" y="1.5" width="169.773" height="80.408" rx="8.5" fill="none"/>
      </g>
      <path id="Path_13974" data-name="Path 13974" d="M-20.608-27.112-45.365,18.055h15.989l24.61-45.683v-12.01H-48.607v12.526ZM.1-10.681C.1,0,3.486,9.066,11.222,14.74a23.266,23.266,0,0,0,13.926,4.2c8.179,0,14.957-3.61,19.01-9.21s6.189-12.821,6.189-20.7a34.59,34.59,0,0,0-6.189-20.484C40.106-37.059,33.4-40.6,25.369-40.6,8.57-40.6.1-25.86.1-10.681Zm14.736-.074A26.334,26.334,0,0,1,16.9-21.291c1.474-3.537,4.421-5.895,8.326-5.895a8.983,8.983,0,0,1,8.4,5.895,26.334,26.334,0,0,1,2.063,10.537c0,6.484-2.431,16.284-10.463,16.284C17.117,5.529,14.833-4.271,14.833-10.755Zm53.64-1.985a7.624,7.624,0,0,0-5.614-2.346A7.718,7.718,0,0,0,57.2-12.74a7.625,7.625,0,0,0-2.346,5.614A7.718,7.718,0,0,0,57.2-1.469a7.68,7.68,0,0,0,5.656,2.3,7.587,7.587,0,0,0,5.614-2.3,7.718,7.718,0,0,0,2.346-5.656A7.625,7.625,0,0,0,68.473-12.74Zm12.653-2.011L59.633,18.055h6.662L87.788-14.751ZM62.859-4.7c-3.059.168-3.059-5.028,0-4.86a2.336,2.336,0,0,1,2.346,2.43A2.362,2.362,0,0,1,62.859-4.7ZM76.6,10.346A7.718,7.718,0,0,0,78.947,16a7.68,7.68,0,0,0,5.656,2.3A7.587,7.587,0,0,0,90.218,16a7.718,7.718,0,0,0,2.346-5.656A7.718,7.718,0,0,0,90.218,4.69,7.624,7.624,0,0,0,84.6,2.344a7.812,7.812,0,0,0-5.7,2.346A7.68,7.68,0,0,0,76.6,10.346Zm8-2.472a2.4,2.4,0,0,1,2.346,2.472,2.362,2.362,0,0,1-2.346,2.43C81.545,12.944,81.545,7.748,84.6,7.874Z" transform="translate(169.607 52.758)" fill="#f98126"/>
    </g>
    <g id="Group_10921" data-name="Group 10921" transform="translate(691 218.657)">
      <rect id="Rectangle_3255" data-name="Rectangle 3255" width="538" height="104" rx="52" transform="translate(0 0.343)"/>
    </g>
    <path id="Path_13977" data-name="Path 13977" d="M-160.214-50.112h-38.538V5.052H-160v-12.4h-25.011v-9.511h22.545V-28.765h-22.545v-9.018h24.8Zm21.629,45.019h21.277l3.8,10.145H-98.78l-21.206-55.164h-15.641L-156.833,5.052h14.584Zm17.331-11.766H-134.5l6.552-17.613Zm41.5,2.536h4.509L-64.187,5.052H-49.11L-61.369-16.436c6.552-2.325,10.991-7.468,10.991-15.922,0-5.848-1.9-10.216-5.636-13.245s-8.736-4.509-15.006-4.509H-93.637V5.052h13.879Zm0-23.813h7.609c5.425,0,7.82,2.536,7.82,6.27,0,3.664-2.748,5.707-7.75,5.707h-7.679Zm38.4-11.977V5.052H-4.3V-7.629H-27.481V-50.112ZM9.154,5.052H23.1V-16.224L42.83-50.112H27.472l-11.2,19.8L5.209-50.112H-10.5L9.154-16.224Zm97.718-15.57c0-6.763-4.227-11.836-11.2-12.963v-.211c5.425-2.254,8.807-6.411,8.807-11.836a13.02,13.02,0,0,0-3.664-9.441c-3.382-3.452-8.032-5.143-13.95-5.143H62.98V5.052H87.216a23.8,23.8,0,0,0,13.95-3.945Q106.872-2.8,106.872-10.518Zm-16.2-22.756c0,3.1-2.254,5-6.2,5H76.436v-9.934h7.891C88.554-38.205,90.668-36.585,90.668-33.274ZM86.652-17.281c3.664,0,6.341,1.761,6.341,5.143s-2.607,5.213-6.27,5.213H76.436V-17.281Zm42.413-32.831h-13.95V5.052h13.95Zm25.222,35.79H158.8L169.857,5.052h15.077L172.675-16.436c6.552-2.325,10.991-7.468,10.991-15.922,0-5.848-1.9-10.216-5.636-13.245s-8.736-4.509-15.006-4.509H140.407V5.052h13.879Zm0-23.813H161.9c5.425,0,7.82,2.536,7.82,6.27,0,3.664-2.748,5.707-7.75,5.707h-7.679Zm38.4,43.187H211c11.554,0,20.995-4.086,26.561-12.541a27.12,27.12,0,0,0,4.227-15.218q0-13.21-8.666-20.29c-5.777-4.72-13.175-7.116-22.193-7.116H192.683ZM206.563-37.36h4.509a17.676,17.676,0,0,1,11.766,3.875c3.17,2.607,4.72,6.2,4.72,10.85,0,4.72-1.55,8.313-4.65,10.92S215.862-7.84,211-7.84h-4.439Z" transform="translate(939.168 290.856)" fill="#fff"/>
    <g id="Rectangle_3259" data-name="Rectangle 3259" transform="translate(756 317)" stroke="#f5f5f5" stroke-width="3" fill="url(#linear-gradient-5)">
      <rect width="409" height="62" rx="31" stroke="none"/>
      <rect x="-1.5" y="-1.5" width="412" height="65" rx="32.5" fill="none"/>
    </g>
    <path id="Path_13980" data-name="Path 13980" d="M2.43-23.321V1.587H19.163V-4.139H8.7V-23.321Zm26.054,0h-6.3V1.587h6.3ZM39.841-13.11v-4.517H50.911v-5.694H33.606V1.587h6.235V-7.606H49.862v-5.5ZM72.225-23.321h-17.4V1.587h17.5v-5.6H61.028V-8.306h10.18v-5.376H61.028v-4.072h11.2ZM81.642,1.587h6.267V-17.627h7.03v-5.694H74.58v5.694h7.062Zm22.746-24.909h-6.3V1.587h6.3Zm27.326,9.957V1.587h6.14V-23.321h-7.826L123.665-7.638l-6.617-15.683h-7.539V1.587h6.012V-13.173h.064l6.14,14.761h3.849l6.076-14.952Zm28.694-9.957h-17.4V1.587h17.5v-5.6H149.21V-8.306h10.18v-5.376H149.21v-4.072h11.2Zm11.8,24.909h8.271c5.217,0,9.48-1.845,11.993-5.663a12.246,12.246,0,0,0,1.909-6.871q0-5.965-3.913-9.162a15.331,15.331,0,0,0-10.021-3.213H172.21Zm6.267-19.151h2.036a7.981,7.981,0,0,1,5.313,1.75,5.969,5.969,0,0,1,2.131,4.9,6.062,6.062,0,0,1-2.1,4.931,8.04,8.04,0,0,1-5.376,1.75h-2ZM215.6-23.321H198.2V1.587h17.5v-5.6H204.4V-8.306h10.18v-5.376H204.4v-4.072h11.2Zm9.766,20.328h9.607l1.718,4.581h6.649l-9.575-24.909H226.7L217.129,1.587h6.585Zm7.826-5.313h-5.981l2.958-7.953Zm12.47-15.015V1.587H262.4V-4.139H251.931V-23.321Zm23.541,12.947c0-5.631,2.1-9.862,6.331-12.661l-2.481-3.245c-5.758,3.022-8.971,8.621-8.971,15.874v.573c0,7.253,3.213,12.852,8.971,15.874L275.536,2.8c-4.231-2.768-6.331-7-6.331-12.629Zm9.385-12.947V1.587h16.733V-4.139H284.857V-23.321ZM299.9,1.587h6.267V-17.627h7.03v-5.694h-20.36v5.694H299.9Zm16.447,0h8.271c5.217,0,9.48-1.845,11.993-5.663a12.246,12.246,0,0,0,1.909-6.871q0-5.965-3.913-9.162a15.331,15.331,0,0,0-10.021-3.213H316.35Zm6.267-19.151h2.036a7.981,7.981,0,0,1,5.313,1.75,5.969,5.969,0,0,1,2.131,4.9A6.062,6.062,0,0,1,330-5.984a8.04,8.04,0,0,1-5.376,1.75h-2Zm23.954,7.73c0,5.631-2.1,9.83-6.331,12.629l2.449,3.245c5.758-3.022,9-8.621,9-15.874v-.573c0-7.253-3.245-12.852-9-15.874l-2.449,3.245c4.231,2.831,6.331,7.03,6.331,12.661Z" transform="translate(783.583 358.279)" fill="#fff"/>
  </g>
</svg>
