<svg xmlns="http://www.w3.org/2000/svg" xmlns:xlink="http://www.w3.org/1999/xlink" width="470" height="311.1130065917969" viewBox="0 0 470 311.113">
  <defs>
    <linearGradient id="linear-gradient" x1="0.5" y1="1" x2="0.5" y2="-0.351" gradientUnits="objectBoundingBox">
      <stop offset="0" stop-color="#a51fae"></stop>
      <stop offset="1" stop-color="#ff4081"></stop>
    </linearGradient>
    <linearGradient id="linear-gradient-2" x1="-2.006" y1="-0.322" x2="-3.094" y2="-0.322" gradientUnits="objectBoundingBox">
      <stop offset="0" stop-color="#e9a402"></stop>
      <stop offset="1" stop-color="#fde803"></stop>
    </linearGradient>
    <linearGradient id="linear-gradient-3" y1="0.5" x2="1" y2="0.5" gradientUnits="objectBoundingBox">
      <stop offset="0" stop-color="#37474f"></stop>
      <stop offset="1" stop-color="#263238"></stop>
    </linearGradient>
    <linearGradient id="linear-gradient-4" x1="1" y1="0.5" x2="0" y2="0.5" xlink:href="#linear-gradient-3"></linearGradient>
    <linearGradient id="linear-gradient-5" x1="-2.942" y1="0.215" x2="-1.856" y2="1.301" gradientUnits="objectBoundingBox">
      <stop offset="0" stop-color="#ff4081"></stop>
      <stop offset="1" stop-color="#a51fae"></stop>
    </linearGradient>
  </defs>
  <g id="Group_10922" data-name="Group 10922" transform="translate(-725 -116.887)">
    <rect id="Rectangle_3259" data-name="Rectangle 3259" width="300" height="52" rx="26" transform="translate(810 286)" fill="url(#linear-gradient)" class="svg-elem-1"></rect>
    <g id="Group_10920" data-name="Group 10920" transform="translate(1035.856 116.887)">
      <line id="Line_164" data-name="Line 164" x1="13.875" y2="13.875" transform="translate(51.457 64.983)" fill="none" stroke="#263238" stroke-linecap="round" stroke-linejoin="round" stroke-width="4" class="svg-elem-2"></line>
      <line id="Line_165" data-name="Line 165" x1="13.875" y2="13.875" transform="translate(42.931 64.983)" fill="none" stroke="#263238" stroke-linecap="round" stroke-linejoin="round" stroke-width="4" class="svg-elem-3"></line>
      <g id="Group_10910" data-name="Group 10910" transform="translate(0 0)">
        <path id="Path_13944" data-name="Path 13944" d="M514.683,60.308l-8.575-5.474,5.107,8.8Z" transform="translate(-502.103 -49.05)" fill="#263238" class="svg-elem-4"></path>
        <path id="Path_13945" data-name="Path 13945" d="M518.16,60.377l-9.93,2.212,9.838,2.592Z" transform="translate(-508.23 -47.67)" fill="#263238" class="svg-elem-5"></path>
        <path id="Path_13946" data-name="Path 13946" d="M516.637,105.331c-17.215,17.215-43.518,18.824-58.747,3.594-9.522-9.522-12.462-23.372-9.12-36.625,2.986-11.844,17.826-17.01,25.741-9.1Z" transform="translate(-430.787 -47.91)" fill="url(#linear-gradient-2)" class="svg-elem-6"></path>
        <ellipse id="Ellipse_332" data-name="Ellipse 332" cx="17.945" cy="17.945" rx="17.945" ry="17.945" transform="translate(13.147 44.538) rotate(-106.338)" fill="url(#linear-gradient-3)" class="svg-elem-7"></ellipse>
        <g id="Group_10909" data-name="Group 10909" transform="translate(18.4 10.414)">
          <path id="Path_13947" data-name="Path 13947" d="M495.444,60.868a3.972,3.972,0,1,0,5.262-1.967A3.973,3.973,0,0,0,495.444,60.868Z" transform="translate(-495.086 -58.542)" fill="#fff" class="svg-elem-8"></path>
          <path id="Path_13948" data-name="Path 13948" d="M497.361,60.345a1.8,1.8,0,1,0,2.379-.889A1.8,1.8,0,0,0,497.361,60.345Z" transform="translate(-495.485 -58.355)" fill="#263238" class="svg-elem-9"></path>
        </g>
        <path id="Path_13949" data-name="Path 13949" d="M447.378,84.827l31.456,31.455L433.608,93.6Z" transform="translate(-375.705 -41.584)" fill="url(#linear-gradient-4)" class="svg-elem-10"></path>
        <path id="Path_13950" data-name="Path 13950" d="M501.027,97.682a27.7,27.7,0,0,1-39.169-39.169Z" transform="translate(-423.049 -48.134)" fill="url(#linear-gradient-5)" class="svg-elem-11"></path>
      </g>
    </g>
    <g id="Group_10921" data-name="Group 10921" transform="translate(725 194.437)">
      <rect id="Rectangle_3255" data-name="Rectangle 3255" width="470" height="88" rx="44" transform="translate(0 -0.436)" class="svg-elem-12"></rect>
    </g>
    <path id="Path_13977" data-name="Path 13977" d="M-164.244-50.112h-34.508v49.4h34.7v-11.1h-22.4v-8.517h20.188V-31H-186.45v-8.075h22.206ZM-144.877-9.8h19.052l3.407,9.084h13.185l-18.989-49.4h-14.005l-18.989,49.4h13.059Zm15.519-10.535h-11.86l5.867-15.771ZM-92.2-18.064h4.038l9.9,17.349h13.5L-75.734-19.957c5.867-2.082,9.841-6.687,9.841-14.257,0-5.236-1.7-9.147-5.047-11.86s-7.823-4.037-13.437-4.037h-20.251v49.4H-92.2Zm0-21.323h6.813c4.858,0,7,2.271,7,5.615,0,3.28-2.46,5.11-6.939,5.11H-92.2Zm34.382-10.725v49.4h33.183V-12.071H-45.39V-50.112Zm45.233,49.4H-.094V-19.768L17.57-50.112H3.817L-6.214-32.385l-9.9-17.727H-30.186l17.6,30.344Zm87.5-13.942c0-6.056-3.785-10.6-10.031-11.608v-.189c4.858-2.019,7.886-5.741,7.886-10.6a11.659,11.659,0,0,0-3.28-8.454C66.461-48.6,62.3-50.112,57-50.112H35.612v49.4h21.7A21.307,21.307,0,0,0,69.8-4.249Q74.915-7.75,74.915-14.658ZM60.405-35.034c0,2.776-2.019,4.479-5.552,4.479H47.662v-8.9h7.066C58.513-39.45,60.405-38,60.405-35.034Zm-3.6,14.321c3.28,0,5.678,1.577,5.678,4.605s-2.334,4.668-5.615,4.668H47.662v-9.274Zm37.978-29.4H82.3v49.4H94.787Zm22.585,32.048h4.037l9.9,17.349h13.5L133.837-19.957c5.867-2.082,9.841-6.687,9.841-14.257,0-5.236-1.7-9.147-5.047-11.86s-7.823-4.037-13.437-4.037H104.944v49.4h12.428Zm0-21.323h6.813c4.858,0,7,2.271,7,5.615,0,3.28-2.46,5.11-6.939,5.11h-6.876ZM151.754-.716h16.4c10.346,0,18.8-3.659,23.783-11.229a24.284,24.284,0,0,0,3.785-13.627q0-11.829-7.76-18.169c-5.173-4.227-11.8-6.372-19.872-6.372H151.754Zm12.428-37.978h4.038a15.828,15.828,0,0,1,10.535,3.47c2.839,2.334,4.227,5.552,4.227,9.715,0,4.227-1.388,7.444-4.164,9.778s-6.309,3.47-10.662,3.47h-3.974Z" transform="translate(961.752 263.112)" fill="#fff" class="svg-elem-13"></path>
    <path id="Path_13978" data-name="Path 13978" d="M-120.451-22.707V-.727h14.766V-5.78h-9.236V-22.707Zm22.991,0h-5.558V-.727h5.558ZM-87.439-13.7v-3.986h9.769v-5.025H-92.941V-.727h5.5V-8.839H-78.6V-13.7Zm28.577-9.011H-74.217V-.727h15.44V-5.667h-9.966v-3.79h8.983V-14.2h-8.983v-3.593h9.881Zm13.98,21.98h5.53V-17.682h6.2v-5.025H-51.114v5.025h6.232Zm20.071-21.98h-5.558V-.727h5.558ZM-.7-13.92V-.727H4.722v-21.98H-2.184L-7.8-8.868l-5.839-13.839h-6.653V-.727h5.306V-13.752h.056L-9.511-.727h3.4L-.752-13.92Zm25.321-8.787H9.269V-.727h15.44V-5.667H14.743v-3.79h8.983V-14.2H14.743v-3.593h9.881ZM35.039-.727h7.3c4.6,0,8.365-1.628,10.583-5a10.806,10.806,0,0,0,1.684-6.064q0-5.263-3.453-8.085a13.529,13.529,0,0,0-8.843-2.835H35.039Zm5.53-16.9h1.8a7.043,7.043,0,0,1,4.688,1.544,5.267,5.267,0,0,1,1.881,4.323,5.349,5.349,0,0,1-1.853,4.351,7.1,7.1,0,0,1-4.744,1.544H40.569Zm32.76-5.081H57.974V-.727h15.44V-5.667H63.448v-3.79h8.983V-14.2H63.448v-3.593H73.33ZM81.948-4.769h8.478L91.941-.727h5.867l-8.45-21.98H83.127L74.677-.727h5.811Zm6.906-4.688H83.576l2.611-7.018Zm11-13.25V-.727h14.766V-5.78h-9.236V-22.707Z" transform="translate(962.451 323.707)" fill="#fff" class="svg-elem-14"></path>
    <path id="Path_13972" data-name="Path 13972" d="M-70.2-34.062l-.731,6.171-5.165-2.331a15.074,15.074,0,0,0-5.942-1.554,8.015,8.015,0,0,0-4.388,1.28,3.507,3.507,0,0,0-1.28,2.7,25.373,25.373,0,0,0,.594,3.2,5.981,5.981,0,0,1-.046,3.382,2.969,2.969,0,0,0,2.605,1.874,16.26,16.26,0,0,0,2.788-.64,5,5,0,0,1,3.062-.046q1.828-1.646,5.256-4.8a5.669,5.669,0,0,1,.183,1.371,27.45,27.45,0,0,1-.731,3.52,15.367,15.367,0,0,0-.183,5.576q-1.965-2.971-7.908-2.971a38.643,38.643,0,0,0-5.074.411q-2.011,1.737-2.011,5.394,0,.914.777,6.445,1.1.914,2.194,1.874a4.9,4.9,0,0,0,2.743,1.143,120.02,120.02,0,0,0-13.393.046Q-93-4.168-93-10.111q0-.96-.594-6.811a10.333,10.333,0,0,1-.64-3.84q0,1.28.229-4.114a8.925,8.925,0,0,0-.5-3.748,6.053,6.053,0,0,0-2.88-3.063,2,2,0,0,1,1.051-1.874,9.2,9.2,0,0,1,2.354-.594,9.2,9.2,0,0,0,2.354-.594,54.986,54.986,0,0,0,10.239.64Q-71.978-34.153-70.2-34.062Zm0,25.871a1.767,1.767,0,0,1,.731,1.28,4.974,4.974,0,0,1-1.051,1.92,2.135,2.135,0,0,0-.411,2.285,50.719,50.719,0,0,1-9.325.686,9.337,9.337,0,0,0,3.474-1.006q1.691-.777,3.337-1.554ZM-45.375-.42A5.42,5.42,0,0,1-48.484.814q-1.92,0-3.657-2.331l-2.651-4.3q-1.463-2.331-2.651-2.331-1.828,0-4.388,5.257a2.454,2.454,0,0,0-1.006,1.6q0,1.143,2.7,1.371-1.143,1.006-6.079,1.006,0-1.828,3.245-5.668,2.468-2.7,4.891-5.394a1.519,1.519,0,0,0,.32-.96,4.7,4.7,0,0,0-1.463-2.88,37.166,37.166,0,0,0-4.617-3.474q-2.88-2.011-2.88-3.611a3.075,3.075,0,0,1,.046-.5,5.973,5.973,0,0,1,1.691-.229,13.285,13.285,0,0,1,3.062.5,13.153,13.153,0,0,0,2.788.5,3.34,3.34,0,0,0,2.24-.777,3.237,3.237,0,0,0,2.651,1.646A14.229,14.229,0,0,0-51-20.715a3.752,3.752,0,0,1,3.291-.046h1.874A3.521,3.521,0,0,1-47.844-18.5q-1.737.937-3.428,1.806a5.375,5.375,0,0,0-2.514,2.88,5.871,5.871,0,0,0-.091,1.051,8.257,8.257,0,0,0,1.92,4.891A32.954,32.954,0,0,0-48.209-3.8,14.493,14.493,0,0,1-45.375-.42ZM-24.03-21.035a1.987,1.987,0,0,1-.708,1.417q-.708.686-1.348,1.28a5.519,5.519,0,0,1-1.143.137,3.185,3.185,0,0,1-2.743-1.554q-.823-1.463-1.691-2.925a3.569,3.569,0,0,0-3.017-1.554,10.082,10.082,0,0,0-5.485,9.416A15.087,15.087,0,0,0-39.57-10.7q2.605,5.485,6.765,5.714a3.912,3.912,0,0,0,1.326.229,9.212,9.212,0,0,0,3.565-1.074,9.208,9.208,0,0,1,3.291-1.074,12.585,12.585,0,0,0-3.017,1.874,16.3,16.3,0,0,1-2.971,2.1,10.01,10.01,0,0,1-4.617,1.006,19.653,19.653,0,0,1-3.565-.366q-4.388-2.743-4.388-8.685,0-1.143.229-3.794.183-2.514.137-3.84a12.83,12.83,0,0,0-.549-3.657q2.971-3.382,9.142-3.382a30.16,30.16,0,0,1,6.856.868,3.976,3.976,0,0,1,1.691,1.874A4.076,4.076,0,0,0-24.03-21.035Zm12.25-8.5a65.632,65.632,0,0,1-1.1,9.9,65.631,65.631,0,0,0-1.1,9.9,26.162,26.162,0,0,0,1.188,7.953l-5.531,1.1,1.874-18.969q-1.92-1.417-1.92-4.617,0-.64.069-1.874t.069-1.874a5.352,5.352,0,0,0-1.1-3.657,6.122,6.122,0,0,0-3.565-1.691,15.238,15.238,0,0,1,3.428-1.531A15.285,15.285,0,0,1-15.8-35.25a4.854,4.854,0,0,0,3.017-1.326A23.968,23.968,0,0,1-11.78-29.537ZM12.4-4.488A7.05,7.05,0,0,1,7.19-2.477q-.731,0-2.925-.183a16.806,16.806,0,0,0-2.925-.091,8.375,8.375,0,0,0-2.971.777A6.764,6.764,0,0,1-6.34-4.808a9.306,9.306,0,0,1-1.006-4.8q0,3.382.183-4.571a17.231,17.231,0,0,0-.411-4.479A7.774,7.774,0,0,0-9.906-22.5l-1.28-3.2a2.852,2.852,0,0,0,2.468,1.326,14,14,0,0,0,2.468-.411,4.536,4.536,0,0,1,2.24-.137,2.552,2.552,0,0,1,1.6,1.874,21.306,21.306,0,0,0-.868,6.262q0,2.057.366,5.622.457,3.885.5,5.439A3.421,3.421,0,0,0,.516-4.443a11.645,11.645,0,0,0,2.377-.32L5.087-5.22a10.849,10.849,0,0,0,1.828-6.536,21.173,21.173,0,0,0-2.56-10.01,2.548,2.548,0,0,1-.823-1.691,3.919,3.919,0,0,0-.457-1.554,2,2,0,0,0,1.28.366,18.424,18.424,0,0,0,3.291-.686,5.322,5.322,0,0,1,3.062-.229q1.28.549,1.143,3.062a26.959,26.959,0,0,0-1.646,9.37A15.185,15.185,0,0,0,12.4-4.488ZM29.632-5.4q-1.051.96-2.057,1.874a3.919,3.919,0,0,1-2.377.96,3.807,3.807,0,0,1-1.006-.137A6.191,6.191,0,0,0,26.25-7.414a3.968,3.968,0,0,0-.777-2.423,40.972,40.972,0,0,0-4.708-2.7A22.011,22.011,0,0,1,16.1-15.55,6.268,6.268,0,0,1,14-20.212a8.73,8.73,0,0,1,.091-1.234,3.164,3.164,0,0,1,1.417-2.56q.366-.229,2.788-1.326a5.78,5.78,0,0,0,2.56-1.828,12.981,12.981,0,0,0,6.9,2.057,6.142,6.142,0,0,0,1.1-.091v5.714a4.22,4.22,0,0,1-.594.046,5.543,5.543,0,0,1-3.382-1.783,7.7,7.7,0,0,0-3.337-2.011,4.1,4.1,0,0,0-2.1,3.931q0,.5.046,1.051A19.4,19.4,0,0,0,23.736-15.6a25.348,25.348,0,0,1,4.617,2.743A5.246,5.246,0,0,1,30.5-8.739,7.873,7.873,0,0,1,29.632-5.4Zm-7.5,1.965-6.765-.5V-7.871a32.4,32.4,0,0,1,2.7,2.605,5.1,5.1,0,0,0,3.474,1.874A4.22,4.22,0,0,0,22.136-3.437Zm17.6-25.871q-1.965-.777-3.885-1.554-2.24-1.1-2.24-2.651a3.973,3.973,0,0,1,.868-2.194,2.989,2.989,0,0,1,1.965-.64,22.18,22.18,0,0,1,3.291.64Zm2.057,5.714a11.926,11.926,0,0,0-1.965,7.039A45.885,45.885,0,0,0,40.534-9.9,39.58,39.58,0,0,1,41.2-3.62a2.85,2.85,0,0,1-2.7,1.691,13.742,13.742,0,0,1-1.92-.229,10.245,10.245,0,0,0-2.148-.183,4.068,4.068,0,0,0-2.011.686q4.251-1.783,4.251-7.313,0-1.326-.274-4.068t-.274-4.022a12.936,12.936,0,0,1,.229-2.605l-4.708-1.965q1.691-1.006,3.428-2.011a8.865,8.865,0,0,1,3.977-1.28A3.336,3.336,0,0,1,41.791-23.595Zm22.077-.046q1.463,1.143,1.463,2.057,0,.868-2.171,2.377t-2.308,2.743q0,3.017-2.423,7.359a25.734,25.734,0,0,0-2.971,7.131l-2.011.366q-3.245-9-3.84-10.422a30.73,30.73,0,0,0-5.9-9.233,2.606,2.606,0,0,1,2.743-2.468,14.011,14.011,0,0,1,2.857.48,14.01,14.01,0,0,0,2.857.48,2.949,2.949,0,0,0,1.417-.32,12.06,12.06,0,0,0-1.1,5.028,14.694,14.694,0,0,0,3.657,9.416,2.182,2.182,0,0,0,2.194-1.646q.091-.32.274-3.291a3.954,3.954,0,0,1,1.051-2.834,22.574,22.574,0,0,1,.046-3.2q.046-1.92-1.234-2.331.274-1.188,1.783-1.188.274,0,.868.046t.914.046A2.49,2.49,0,0,0,63.868-23.64Zm23.266,13.3q-.686,1.417-1.326,2.834a13.056,13.056,0,0,1-2.377,3.382,5.419,5.419,0,0,1-3.794,1.646,6.818,6.818,0,0,1-2.468.457,9.044,9.044,0,0,1-5.622-2.148A11.943,11.943,0,0,1,67.8-9.059a10.278,10.278,0,0,1-.686-3.885,28.13,28.13,0,0,1,.64-5.119,34.874,34.874,0,0,0,.777-4.662,10.13,10.13,0,0,1,8.593-4.251,12.929,12.929,0,0,1,5.736,1.326,11.2,11.2,0,0,1,4.274,3.474q.046.914.046,1.554,0,3.794-2.743,4.479-.274-.046-2.743-.868a8.884,8.884,0,0,0-2.834-.549,6.092,6.092,0,0,0-1.28.137l2.1-1.1a5.315,5.315,0,0,0,1.874-1.646,3.2,3.2,0,0,0,.183-1.006q0-2.24-3.154-2.24a6.677,6.677,0,0,0-3.108.686,5.238,5.238,0,0,0-1.828,1.051Q72.827-20.9,72-20.167a1.726,1.726,0,0,0-.091.549,1.76,1.76,0,0,0,.48,1.12q.48.571.937,1.074-2.56.96-2.56,2.7a6.7,6.7,0,0,0,1.417,3.291,25.3,25.3,0,0,1,1.92,3.108,4.363,4.363,0,0,0,3.7,2.285l4.525.274Z" transform="translate(860.392 187.051)" fill="#f98106" class="svg-elem-15"></path>
    <g id="Group_10923" data-name="Group 10923" transform="translate(18.879)">
      <path id="Path_13976" data-name="Path 13976" d="M-10.058-13.556a8.28,8.28,0,0,0-3.093,6.242q-.2,3.567-.39,7.162A7.869,7.869,0,0,1-17.8,5.673q-3.539.2-3.818.2-5.044,0-6.326-3.177a36.476,36.476,0,0,1-1-6.6q-.251-3.511-.5-7.051-.167-1.644-1.143-1.644a2.134,2.134,0,0,0-1.254.5,2.748,2.748,0,0,1,2.759-1.839,13.933,13.933,0,0,1,2.285.293,13.933,13.933,0,0,0,2.285.293,3.538,3.538,0,0,0,1.226-.2,1.374,1.374,0,0,1,.279.725q0,.474-1.31,1.087t-1.421,1.393q.725,1.616.307,5.518a22.421,22.421,0,0,0-.111,6.075,5.8,5.8,0,0,0,4.124,4.292,6.319,6.319,0,0,0,.836.056q3.093,0,5.49-3.623a8.953,8.953,0,0,0,.474-2.954,27.334,27.334,0,0,0-.92-5.657,22.4,22.4,0,0,1-.752-5.462l-1.5-1.143a22.006,22.006,0,0,0,2.759-.362,16.523,16.523,0,0,1,2.759-.334A6.1,6.1,0,0,1-10.058-13.556ZM5.241-4.3a5.45,5.45,0,0,1-3.372.836q-3.26,0-2.7-.028A5.33,5.33,0,0,0-3.2-2.911a3.551,3.551,0,0,0-1.5,2.229A10.035,10.035,0,0,1-3.62,3.61a4.624,4.624,0,0,1-.418,2.034,4.332,4.332,0,0,0-1.839-.362A6.935,6.935,0,0,0-9.445,6.341q.167-1.393,2.508-3.093a10.93,10.93,0,0,0,.2-2.09,23.1,23.1,0,0,0-.543-4.222,22.928,22.928,0,0,1-.543-4.11,9.367,9.367,0,0,1,.474-2.982L-10-13.082a13.051,13.051,0,0,1,4.459-.725q1.115,0,3.01.167,2.369.2,3.233.251l4.124,2.118A5.649,5.649,0,0,1,6.189-7.565,6.192,6.192,0,0,1,5.241-4.3Zm-3.4-3.623A2.923,2.923,0,0,0,.086-10.519a8.221,8.221,0,0,0-3.2-.752,2.092,2.092,0,0,1,.251,1.087,12.343,12.343,0,0,1-.32,2.2,12.343,12.343,0,0,0-.32,2.2q0,1.951,2.174,1.951a7.446,7.446,0,0,0,.864-.056A4.97,4.97,0,0,1,.838-5.67,3.085,3.085,0,0,0,1.9-7.537,1.414,1.414,0,0,0,1.842-7.927Zm31.713-5.88a5.794,5.794,0,0,1,.752,3.121A2.825,2.825,0,0,1,33.36-8.15v.39q-.641.139-.975-.613-.279-.613-.529-1.226l-3.149-2.257a5.627,5.627,0,0,0-1.533,2.7A12.2,12.2,0,0,0,26.783-6v2.982A19.423,19.423,0,0,1,26.5-.556a19.412,19.412,0,0,0-.279,2.745,3.7,3.7,0,0,0,2.062,3.734A5.248,5.248,0,0,0,25,5.714a5.349,5.349,0,0,1-3.316-.209,2.871,2.871,0,0,0,2.062-2.926A14.008,14.008,0,0,0,23.606.991a14.039,14.039,0,0,1-.139-1.616,3.629,3.629,0,0,1,.2-1.254,8.305,8.305,0,0,1-1.226-4.654q0-.446.042-1.338t.042-1.31a7.977,7.977,0,0,0-.39-2.675,2.289,2.289,0,0,0-1.115.362,2.643,2.643,0,0,1-1.087.39q-.669,0-1.282-.92A2.755,2.755,0,0,0,17-9.46a3.983,3.983,0,0,0,.39,1.7q-1.951-.362-1.951-1.895a7.956,7.956,0,0,1,.5-2.174A4.265,4.265,0,0,0,16.3-13.7a40.088,40.088,0,0,0,6.8.7,32.441,32.441,0,0,0,5.155-.557A22.551,22.551,0,0,1,33.555-13.807ZM54.762-.319A37.468,37.468,0,0,1,51.055,3.5a7.386,7.386,0,0,1-4.682,1.756,9.184,9.184,0,0,1-1.561-.139,4.253,4.253,0,0,1-.836.084,5.618,5.618,0,0,1-2.9-.864A12.837,12.837,0,0,1,38.71,2.44q-.975-1-1.951-1.979a7.286,7.286,0,0,1-1.17-3.567,9.673,9.673,0,0,1,.39-2.285,25.385,25.385,0,0,0,.613-2.926A12.967,12.967,0,0,0,39.184-10.6a31.02,31.02,0,0,1,2.564-2.564,4.534,4.534,0,0,1,2.815-1.254,3.163,3.163,0,0,1,1.421.362,3.168,3.168,0,0,1,1.31-.251,8.284,8.284,0,0,1,5.128,2.09Q55.9-11.1,55.9-8.456a15.058,15.058,0,0,1-.627,3.288,15.174,15.174,0,0,0-.627,3.651A6.391,6.391,0,0,0,54.762-.319ZM50.944-8.6a11.921,11.921,0,0,1-1.811-1.672,20.4,20.4,0,0,0-1.784-1.756,3.372,3.372,0,0,0-2.09-.808,3.842,3.842,0,0,0-1.951.613,5.582,5.582,0,0,0-2.759,5.1,6.416,6.416,0,0,0-1.477,2.2A8.951,8.951,0,0,0,38.125-1.1a4.863,4.863,0,0,0,3.428,4.765,5.038,5.038,0,0,0,2.9.892,7.057,7.057,0,0,0,5.323-2.675,5.9,5.9,0,0,0,1.533-4.1,21.773,21.773,0,0,0-.223-2.494,22,22,0,0,1-.223-2.633A8.879,8.879,0,0,1,50.944-8.6Z" transform="translate(818.971 397.42)" fill="#f98106" class="svg-elem-16"></path>
      <path id="Path_13975" data-name="Path 13975" d="M-.707-.067A37.468,37.468,0,0,1-4.414,3.751,7.386,7.386,0,0,1-9.1,5.506a9.184,9.184,0,0,1-1.561-.139,4.253,4.253,0,0,1-.836.084,5.618,5.618,0,0,1-2.9-.864,12.837,12.837,0,0,1-2.369-1.9q-.975-1-1.951-1.979a7.286,7.286,0,0,1-1.17-3.567,9.672,9.672,0,0,1,.39-2.285,25.386,25.386,0,0,0,.613-2.926,12.967,12.967,0,0,0,2.592-2.285,31.02,31.02,0,0,1,2.564-2.564,4.534,4.534,0,0,1,2.815-1.254,3.163,3.163,0,0,1,1.421.362,3.168,3.168,0,0,1,1.31-.251,8.284,8.284,0,0,1,5.128,2.09Q.435-10.852.435-8.2A15.058,15.058,0,0,1-.192-4.916,15.174,15.174,0,0,0-.819-1.266,6.39,6.39,0,0,0-.707-.067ZM-4.525-8.344a11.921,11.921,0,0,1-1.811-1.672A20.4,20.4,0,0,0-8.12-11.772a3.372,3.372,0,0,0-2.09-.808,3.842,3.842,0,0,0-1.951.613,5.582,5.582,0,0,0-2.759,5.1,6.417,6.417,0,0,0-1.477,2.2,8.951,8.951,0,0,0-.947,3.818,4.863,4.863,0,0,0,3.428,4.765,5.038,5.038,0,0,0,2.9.892A7.057,7.057,0,0,0-5.7,2.134a5.9,5.9,0,0,0,1.533-4.1,21.773,21.773,0,0,0-.223-2.494A22,22,0,0,1-4.609-7.09,8.879,8.879,0,0,1-4.525-8.344Zm23.492-3.567q0,.669-.028,1.31a1.431,1.431,0,0,1-.78,1.087,4,4,0,0,1-1.672-1.449,3.088,3.088,0,0,0-1.979-1.282,5.544,5.544,0,0,1-1.143.111q-.5,0-2.369-.251a4.424,4.424,0,0,0-2.034.056A2.6,2.6,0,0,0,7.43-10.713a6.144,6.144,0,0,1,.46,2.355,6.981,6.981,0,0,0,.4,2.327,2.36,2.36,0,0,0,2.118,1.2,2.348,2.348,0,0,0,1,.251,3.167,3.167,0,0,0,1.951-1.087,3.524,3.524,0,0,1,1.979-1.143v-1.5q.725.056.92,1.421A3.7,3.7,0,0,0,16.9-4.833a3.882,3.882,0,0,0-.418,1.811,1.868,1.868,0,0,1-.836,1.644Q14.62-3.69,11.053-3.69A16.051,16.051,0,0,0,7.9-3.328,10.115,10.115,0,0,0,6.928,1.1,5.9,5.9,0,0,0,8.377,5.367q-.418.836-2.006.808a23.454,23.454,0,0,0-2.564-.028,14.947,14.947,0,0,0,.223-2.62,37.473,37.473,0,0,0-.641-5.685,37.705,37.705,0,0,1-.641-5.824,16.257,16.257,0,0,1,.223-2.731,2.307,2.307,0,0,1-1.728-2.452,4.583,4.583,0,0,1,.056-.7,48.2,48.2,0,0,0,8.221-1.2,3.929,3.929,0,0,0,2.174.474q-1.365,0,3.26-.2a5.646,5.646,0,0,1,2.842.418A2.475,2.475,0,0,1,18.967-11.911Zm17.64,0q0,.669-.028,1.31a1.431,1.431,0,0,1-.78,1.087,4,4,0,0,1-1.672-1.449,3.088,3.088,0,0,0-1.979-1.282,5.544,5.544,0,0,1-1.143.111q-.5,0-2.369-.251a4.424,4.424,0,0,0-2.034.056,2.6,2.6,0,0,0-1.533,1.616,6.144,6.144,0,0,1,.46,2.355,6.981,6.981,0,0,0,.4,2.327,2.36,2.36,0,0,0,2.118,1.2,2.348,2.348,0,0,0,1,.251,3.167,3.167,0,0,0,1.951-1.087,3.524,3.524,0,0,1,1.979-1.143v-1.5q.725.056.92,1.421a3.7,3.7,0,0,0,.641,2.062,3.882,3.882,0,0,0-.418,1.811,1.868,1.868,0,0,1-.836,1.644Q32.26-3.69,28.693-3.69a16.051,16.051,0,0,0-3.149.362A10.115,10.115,0,0,0,24.568,1.1a5.9,5.9,0,0,0,1.449,4.264q-.418.836-2.006.808a23.454,23.454,0,0,0-2.564-.028,14.947,14.947,0,0,0,.223-2.62,37.472,37.472,0,0,0-.641-5.685,37.705,37.705,0,0,1-.641-5.824,16.257,16.257,0,0,1,.223-2.731,2.307,2.307,0,0,1-1.728-2.452,4.583,4.583,0,0,1,.056-.7,48.2,48.2,0,0,0,8.221-1.2,3.929,3.929,0,0,0,2.174.474q-1.365,0,3.26-.2a5.646,5.646,0,0,1,2.842.418A2.475,2.475,0,0,1,36.607-11.911Z" transform="translate(1058.141 397.06)" fill="#f98106" class="svg-elem-17"></path>
      <g id="Rectangle_3260" data-name="Rectangle 3260" transform="translate(884 358)" fill="#f2f2f2" stroke="#000" stroke-width="2">
        <rect width="145" height="70" rx="5" stroke="none" class="svg-elem-18"></rect>
        <rect x="1" y="1" width="143" height="68" rx="4" fill="none" class="svg-elem-19"></rect>
      </g>
      <path id="Path_13974" data-name="Path 13974" d="M-24.024-28.757-45.761,10.9h14.038l21.607-40.11V-39.755H-48.607v11ZM-5.845-14.331c0,9.38,2.976,17.338,9.769,22.319A20.427,20.427,0,0,0,16.15,11.676,20.187,20.187,0,0,0,32.841,3.589a30.835,30.835,0,0,0,5.434-18.179,30.37,30.37,0,0,0-5.434-17.985,19.941,19.941,0,0,0-16.5-8.022C1.594-40.6-5.845-27.657-5.845-14.331ZM7.093-14.4A23.121,23.121,0,0,1,8.9-23.646a7.8,7.8,0,0,1,7.31-5.175,7.887,7.887,0,0,1,7.375,5.175A23.121,23.121,0,0,1,25.4-14.4C25.4-8.7,23.266-.1,16.215-.1,9.1-.1,7.093-8.7,7.093-14.4Zm47.1-1.743A6.694,6.694,0,0,0,49.26-18.2a6.776,6.776,0,0,0-4.966,2.06,6.694,6.694,0,0,0-2.06,4.929,6.776,6.776,0,0,0,2.06,4.966A6.743,6.743,0,0,0,49.26-4.219a6.661,6.661,0,0,0,4.929-2.023,6.776,6.776,0,0,0,2.06-4.966A6.694,6.694,0,0,0,54.189-16.138ZM65.3-17.9,46.427,10.9h5.849L71.147-17.9ZM49.26-9.075c-2.685.147-2.685-4.414,0-4.267a2.051,2.051,0,0,1,2.06,2.134A2.074,2.074,0,0,1,49.26-9.075ZM61.325,4.131A6.777,6.777,0,0,0,63.386,9.1a6.743,6.743,0,0,0,4.966,2.023A6.661,6.661,0,0,0,73.281,9.1a6.776,6.776,0,0,0,2.06-4.966,6.776,6.776,0,0,0-2.06-4.966A6.694,6.694,0,0,0,68.352-2.9a6.859,6.859,0,0,0-5,2.06A6.743,6.743,0,0,0,61.325,4.131Zm7.026-2.17a2.105,2.105,0,0,1,2.06,2.17,2.074,2.074,0,0,1-2.06,2.134C65.666,6.412,65.666,1.85,68.352,1.961Z" transform="translate(943.176 407.596)" class="svg-elem-20"></path>
    </g>
  </g>
</svg>
