<svg xmlns="http://www.w3.org/2000/svg" xmlns:xlink="http://www.w3.org/1999/xlink" width="591" height="162" viewBox="0 0 591 162">
  <defs>
    <linearGradient id="linear-gradient" x1="0.978" y1="-1.096" x2="0.059" y2="1.424" gradientUnits="objectBoundingBox">
      <stop offset="0" stop-color="#2ae498"/>
      <stop offset="1" stop-color="#3e62f5"/>
    </linearGradient>
  </defs>
  <g id="Group_10926" data-name="Group 10926" transform="translate(-665 -199)">
    <rect id="Rectangle_3255" data-name="Rectangle 3255" width="591" height="100" rx="50" transform="translate(665 199)" fill="#f98106"/>
    <g id="Rectangle_3259" data-name="Rectangle 3259" transform="translate(746 287)" stroke="#f5f5f5" stroke-width="4" fill="url(#linear-gradient)">
      <rect width="430" height="70" rx="35" stroke="none"/>
      <rect x="-2" y="-2" width="434" height="74" rx="37" fill="none"/>
    </g>
    <path id="Path_13981" data-name="Path 13981" d="M-239.4-39.15V0h25.75V-7.55H-231.4V-16h15.8v-7.6h-15.8v-7.95h17.65v-7.6ZM-201.6,0l5.15-7.85,5.1,7.85h8.75l-9.65-13.6,9.4-13.1h-8.6l-4.95,7.55-4.8-7.55h-8.75l9.3,13.25L-210.25,0Zm34.55.6c5.95,0,10.8-2.85,12.85-8.3l-6.9-2.85A5.97,5.97,0,0,1-167-6.6c-3.8,0-6.4-2.8-6.4-6.8,0-4.15,2.8-6.75,6.4-6.75a5.913,5.913,0,0,1,5.75,3.95l6.85-2.85c-1.75-5.25-6.65-8.25-12.6-8.25a14.152,14.152,0,0,0-10.2,4.05,13.257,13.257,0,0,0-4.2,9.95,13.343,13.343,0,0,0,4.05,9.95A14.1,14.1,0,0,0-167.05.6Zm25.85-41.35h-7.85V0h7.85Zm6.95,14.05V-9.95a11.6,11.6,0,0,0,2.5,7.5,9.074,9.074,0,0,0,7.3,3A8.546,8.546,0,0,0-117-3.3h.05V0h7.7V-26.7h-7.8v14.9c0,2.95-1.65,5.1-4.8,5.1s-4.6-1.95-4.6-5.1V-26.7Zm52.3,18.65c0-4.65-3.55-7.3-10.3-8.7-2.35-.5-3.5-1.3-3.5-2.45,0-1.05,1.2-1.95,2.8-1.95A5.181,5.181,0,0,1-88.1-18.6l5.65-3.35c-1.75-3.25-5.35-5.4-10.3-5.4a11.4,11.4,0,0,0-7.25,2.4,7.346,7.346,0,0,0-3,6.05c0,4.35,3.15,7.25,9.5,8.65,3.4.75,4.25,1.55,4.25,2.6S-90.55-5.7-92.5-5.7c-2.9,0-4.9-1.1-6-3.25l-5.75,3.4C-102.1-1.45-98.2.6-92.6.6-86,.6-81.95-2.9-81.95-8.05Zm9.35-32.8A4.877,4.877,0,0,0-77.4-36a4.834,4.834,0,0,0,4.8,4.8A4.824,4.824,0,0,0-67.7-36,4.8,4.8,0,0,0-72.6-40.85ZM-68.6,0V-26.7h-7.85V0Zm4.3-26.7L-53.5,0h7.95L-34.6-26.7h-8.25l-6.6,17.8-6.6-17.8ZM-5.7-11.2c.05-.6.1-1.55.1-2.8a13.118,13.118,0,0,0-3.7-9.65,13,13,0,0,0-9.6-3.7,13.783,13.783,0,0,0-10,4.1,13.415,13.415,0,0,0-4.15,9.85,13.278,13.278,0,0,0,4.2,10.1A14.884,14.884,0,0,0-18.4.6c5.45,0,9.25-2,11.5-6.05l-5.65-3.7a7.149,7.149,0,0,1-5.95,3.2c-3.35,0-6.15-2-6.6-5.25Zm-19.2-5.15a5.445,5.445,0,0,1,1.8-3.1,5.426,5.426,0,0,1,4-1.55c3.55,0,5.5,2.3,5.7,4.65Zm35.95-3.2a19.279,19.279,0,0,0,5.9,14.3A19.618,19.618,0,0,0,31.3.6,19.58,19.58,0,0,0,45.7-5.3a19.59,19.59,0,0,0,6-14.45,19.058,19.058,0,0,0-5.9-14.2,19.576,19.576,0,0,0-14.3-5.8,19.773,19.773,0,0,0-14.45,5.9A19.338,19.338,0,0,0,11.05-19.55Zm11.8-8.75a11.521,11.521,0,0,1,8.55-3.6,11.521,11.521,0,0,1,8.55,3.6,11.959,11.959,0,0,1,3.5,8.7,12.155,12.155,0,0,1-3.5,8.75,11.521,11.521,0,0,1-8.55,3.6,11.521,11.521,0,0,1-8.55-3.6,12.155,12.155,0,0,1-3.5-8.75A11.959,11.959,0,0,1,22.85-28.3ZM91.6-34.2a8.26,8.26,0,0,1,2.4.3v-6.4a12.391,12.391,0,0,0-3.65-.55c-7.55,0-11.25,4.55-11.25,11.5v2.65H67.7v-2.8c0-3.05,1.75-4.7,4.75-4.7a8.26,8.26,0,0,1,2.4.3v-6.4a12.391,12.391,0,0,0-3.65-.55c-7.55,0-11.25,4.55-11.25,11.5v2.65h-4.8v6.65h4.8V0h7.8V-20.05H79.1V0h7.8V-20.05h6.95V-26.7h-7v-2.8C86.85-32.55,88.6-34.2,91.6-34.2Zm31.85,23c.05-.6.1-1.55.1-2.8a13.118,13.118,0,0,0-3.7-9.65,13,13,0,0,0-9.6-3.7,13.783,13.783,0,0,0-10,4.1A13.415,13.415,0,0,0,96.1-13.4a13.278,13.278,0,0,0,4.2,10.1A14.884,14.884,0,0,0,110.75.6c5.45,0,9.25-2,11.5-6.05l-5.65-3.7a7.149,7.149,0,0,1-5.95,3.2c-3.35,0-6.15-2-6.6-5.25Zm-19.2-5.15a5.445,5.445,0,0,1,1.8-3.1,5.426,5.426,0,0,1,4-1.55c3.55,0,5.5,2.3,5.7,4.65ZM146-26.8a4.485,4.485,0,0,0-1.55-.2,8.245,8.245,0,0,0-7.55,4.4h-.05v-4.1H129.1V0h7.8V-11.3c0-4.8,2.2-7.95,7.25-7.95a11.088,11.088,0,0,1,1.85.15Zm24.7,3.65v-8.3h17.7v-7.7H162.6V0h8.1V-15.45h15.85v-7.7Zm20.9,9.85a13.1,13.1,0,0,0,4.2,9.95A14.464,14.464,0,0,0,206.15.6a14.674,14.674,0,0,0,10.35-4,13.262,13.262,0,0,0,4.25-10.05,12.965,12.965,0,0,0-4.2-9.85,14.469,14.469,0,0,0-10.3-4,14.62,14.62,0,0,0-10.4,4.05A13.048,13.048,0,0,0,191.6-13.3Zm8-.1a6.634,6.634,0,0,1,1.9-4.85,6.191,6.191,0,0,1,4.65-1.95,6.3,6.3,0,0,1,4.7,1.95,6.634,6.634,0,0,1,1.9,4.85,6.493,6.493,0,0,1-6.55,6.85,6.449,6.449,0,0,1-4.7-1.9A6.87,6.87,0,0,1,199.6-13.4Zm43.6-13.4a4.485,4.485,0,0,0-1.55-.2,8.245,8.245,0,0,0-7.55,4.4h-.05v-4.1H226.3V0h7.8V-11.3c0-4.8,2.2-7.95,7.25-7.95a11.088,11.088,0,0,1,1.85.15Z" transform="translate(958.4 261)" fill="#f5f5f5"/>
    <path id="Path_13982" data-name="Path 13982" d="M-138.977-15.327c0-4.8-1.521-8.5-4.6-11.193s-7.293-4.017-12.636-4.017h-9.36V0h9.243c5.343,0,9.555-1.4,12.675-4.212A14.234,14.234,0,0,0-138.977-15.327Zm-6.474,0a8.626,8.626,0,0,1-2.925,6.9,11.645,11.645,0,0,1-7.761,2.457h-3.12v-18.6h3.2a11.6,11.6,0,0,1,7.644,2.457A8.2,8.2,0,0,1-145.451-15.327Zm14.04-16.536a3.8,3.8,0,0,0-3.744,3.783,3.77,3.77,0,0,0,3.744,3.744,3.762,3.762,0,0,0,3.822-3.744A3.747,3.747,0,0,0-131.41-31.863ZM-128.29,0V-20.826h-6.123V0Zm18.8-20.9a3.5,3.5,0,0,0-1.209-.156,6.431,6.431,0,0,0-5.889,3.432h-.039v-3.2h-6.045V0h6.084V-8.814c0-3.744,1.716-6.2,5.655-6.2a8.649,8.649,0,0,1,1.443.117ZM-86.521-8.736c.039-.468.078-1.209.078-2.184a10.232,10.232,0,0,0-2.886-7.527,10.141,10.141,0,0,0-7.488-2.886,10.751,10.751,0,0,0-7.8,3.2,10.463,10.463,0,0,0-3.237,7.683,10.357,10.357,0,0,0,3.276,7.878A11.609,11.609,0,0,0-96.428.468c4.251,0,7.215-1.56,8.97-4.719l-4.407-2.886a5.576,5.576,0,0,1-4.641,2.5,4.887,4.887,0,0,1-5.148-4.095ZM-101.5-12.753a4.247,4.247,0,0,1,1.4-2.418,4.233,4.233,0,0,1,3.12-1.209,4.115,4.115,0,0,1,4.446,3.627ZM-72.17.468c4.641,0,8.424-2.223,10.023-6.474l-5.382-2.223a4.657,4.657,0,0,1-4.6,3.081c-2.964,0-4.992-2.184-4.992-5.3a4.909,4.909,0,0,1,4.992-5.265,4.612,4.612,0,0,1,4.485,3.081l5.343-2.223c-1.365-4.1-5.187-6.435-9.828-6.435a11.038,11.038,0,0,0-7.956,3.159,10.341,10.341,0,0,0-3.276,7.761A10.407,10.407,0,0,0-80.2-2.613,11,11,0,0,0-72.17.468Zm26.91-5.616a5.343,5.343,0,0,1-1.4.156c-2.379,0-3.627-.936-3.627-3.315v-7.254h5.148v-5.265h-5.148v-6.513H-56.3v6.513h-3.822v5.265h3.744v8c0,4.875,2.847,7.839,8.268,7.839a9.662,9.662,0,0,0,2.847-.39Zm3.12-5.226a10.221,10.221,0,0,0,3.276,7.761A11.282,11.282,0,0,0-30.79.468a11.445,11.445,0,0,0,8.073-3.12A10.344,10.344,0,0,0-19.4-10.491a10.113,10.113,0,0,0-3.276-7.683,11.286,11.286,0,0,0-8.034-3.12,11.4,11.4,0,0,0-8.112,3.159A10.177,10.177,0,0,0-42.139-10.374Zm6.24-.078a5.175,5.175,0,0,1,1.482-3.783,4.829,4.829,0,0,1,3.627-1.521,4.914,4.914,0,0,1,3.666,1.521,5.175,5.175,0,0,1,1.482,3.783,5.065,5.065,0,0,1-5.109,5.343,5.03,5.03,0,0,1-3.666-1.482A5.359,5.359,0,0,1-35.9-10.452ZM-1.891-20.9A3.5,3.5,0,0,0-3.1-21.06,6.431,6.431,0,0,0-8.99-17.628h-.039v-3.2h-6.045V0H-8.99V-8.814c0-3.744,1.716-6.2,5.655-6.2a8.649,8.649,0,0,1,1.443.117ZM4.5-31.863A3.8,3.8,0,0,0,.76-28.08,3.77,3.77,0,0,0,4.5-24.336,3.762,3.762,0,0,0,8.326-28.08,3.747,3.747,0,0,0,4.5-31.863ZM7.624,0V-20.826H1.5V0ZM28.918-6.279c0-3.627-2.769-5.694-8.034-6.786-1.833-.39-2.73-1.014-2.73-1.911,0-.819.936-1.521,2.184-1.521a4.041,4.041,0,0,1,3.783,1.989l4.407-2.613c-1.365-2.535-4.173-4.212-8.034-4.212a8.9,8.9,0,0,0-5.655,1.872,5.73,5.73,0,0,0-2.34,4.719c0,3.393,2.457,5.655,7.41,6.747,2.652.585,3.315,1.209,3.315,2.028S22.21-4.446,20.689-4.446a4.794,4.794,0,0,1-4.68-2.535L11.524-4.329c1.677,3.2,4.719,4.8,9.087,4.8C25.759.468,28.918-2.262,28.918-6.279Zm16.77,1.131a5.343,5.343,0,0,1-1.4.156c-2.379,0-3.627-.936-3.627-3.315v-7.254h5.148v-5.265H40.657v-6.513H34.651v6.513H30.829v5.265h3.744v8c0,4.875,2.847,7.839,8.268,7.839a9.662,9.662,0,0,0,2.847-.39ZM78.878-30.537V-12.09c0,3.939-2.184,6.435-6.045,6.435-3.471,0-5.928-2.262-5.928-6.591l.039-18.291H60.587V-12.09C60.587-4.407,64.643.429,72.794.429c8.112,0,12.324-4.758,12.324-12.753V-30.537ZM106.646-6.279c0-3.627-2.769-5.694-8.034-6.786-1.833-.39-2.73-1.014-2.73-1.911,0-.819.936-1.521,2.184-1.521a4.041,4.041,0,0,1,3.783,1.989l4.407-2.613c-1.365-2.535-4.173-4.212-8.034-4.212a8.9,8.9,0,0,0-5.655,1.872,5.73,5.73,0,0,0-2.34,4.719c0,3.393,2.457,5.655,7.41,6.747,2.652.585,3.315,1.209,3.315,2.028s-1.014,1.521-2.535,1.521a4.794,4.794,0,0,1-4.68-2.535L89.252-4.329c1.677,3.2,4.719,4.8,9.087,4.8C103.487.468,106.646-2.262,106.646-6.279Zm24.336-2.457c.039-.468.078-1.209.078-2.184a10.232,10.232,0,0,0-2.886-7.527,10.141,10.141,0,0,0-7.488-2.886,10.751,10.751,0,0,0-7.8,3.2,10.463,10.463,0,0,0-3.237,7.683,10.357,10.357,0,0,0,3.276,7.878A11.609,11.609,0,0,0,121.076.468c4.251,0,7.215-1.56,8.97-4.719l-4.407-2.886A5.576,5.576,0,0,1,121-4.641a4.887,4.887,0,0,1-5.148-4.095Zm-14.976-4.017a4.247,4.247,0,0,1,1.4-2.418,4.233,4.233,0,0,1,3.12-1.209,4.115,4.115,0,0,1,4.446,3.627ZM148.571-20.9a3.5,3.5,0,0,0-1.209-.156,6.431,6.431,0,0,0-5.889,3.432h-.039v-3.2h-6.045V0h6.084V-8.814c0-3.744,1.716-6.2,5.655-6.2a8.649,8.649,0,0,1,1.443.117ZM167.642-6.279c0-3.627-2.769-5.694-8.034-6.786-1.833-.39-2.73-1.014-2.73-1.911,0-.819.936-1.521,2.184-1.521a4.041,4.041,0,0,1,3.783,1.989l4.407-2.613c-1.365-2.535-4.173-4.212-8.034-4.212a8.9,8.9,0,0,0-5.655,1.872,5.73,5.73,0,0,0-2.34,4.719c0,3.393,2.457,5.655,7.41,6.747,2.652.585,3.315,1.209,3.315,2.028s-1.014,1.521-2.535,1.521a4.794,4.794,0,0,1-4.68-2.535l-4.485,2.652c1.677,3.2,4.719,4.8,9.087,4.8C164.483.468,167.642-2.262,167.642-6.279Z" transform="translate(959.574 336.863)" fill="#f5f5f5"/>
  </g>
</svg>
