<svg xmlns="http://www.w3.org/2000/svg" width="24" height="21.999" viewBox="0 0 24 21.999">
  <g id="Group_3539" data-name="Group 3539" transform="translate(-964 -1294.835)">
    <g id="Group_2628" data-name="Group 2628" transform="translate(964 1294.835)" opacity="0.4">
      <path id="Path_2493" data-name="Path 2493" d="M148,152.093a2.752,2.752,0,0,0-2.75-2.75h-14.5a2.751,2.751,0,0,0-2.75,2.75v3.251h20Zm0,0" transform="translate(-128 -149.344)" fill="#0090fd"/>
      <path id="Path_2496" data-name="Path 2496" d="M136,195.33h-5a3,3,0,0,1-3-3v-10a1,1,0,1,1,2,0v10a1,1,0,0,0,1,1h5a1,1,0,1,1,0,2Zm0,0" transform="translate(-128 -178.33)" fill="#0090fd"/>
      <path id="Path_2497" data-name="Path 2497" d="M321,185.329a1,1,0,0,1-1-1v-2a1,1,0,1,1,2,0v2A1,1,0,0,1,321,185.329Zm0,0" transform="translate(-302 -178.33)" fill="#0090fd"/>
    </g>
    <path id="Subtraction_4" data-name="Subtraction 4" d="M6.706,13.412a6.706,6.706,0,1,1,6.706-6.706A6.713,6.713,0,0,1,6.706,13.412Zm-2-3.875h0A3.343,3.343,0,0,0,9.644,8.444a.634.634,0,0,0-.255-.861.636.636,0,0,0-.861.257,2.051,2.051,0,0,1-2.9.776l.3-.3A.477.477,0,0,0,5.594,7.5H4.005a.477.477,0,0,0-.476.476V9.563a.475.475,0,0,0,.294.44.463.463,0,0,0,.182.037.477.477,0,0,0,.338-.14l.363-.363Zm2-4.738a2.078,2.078,0,0,1,1.077.313l-.3.3a.477.477,0,0,0,.337.814H9.406a.477.477,0,0,0,.476-.477V4.165a.481.481,0,0,0-.3-.44.477.477,0,0,0-.519.1L8.7,4.192a3.339,3.339,0,0,0-4.94,1.1.635.635,0,1,0,1.119.6A2.068,2.068,0,0,1,6.705,4.8Z" transform="translate(974.589 1303.422)" fill="#0090fd"/>
  </g>
</svg>
