<svg xmlns="http://www.w3.org/2000/svg" width="24" height="22.763" viewBox="0 0 24 22.763">
  <g id="Group_3984" data-name="Group 3984" transform="translate(-352.042 -337.833)">
    <path id="Path_4085" data-name="Path 4085" d="M27.647,11.833h-.493v4.685a4.2,4.2,0,0,1-4.191,4.191H11.376v2.219a2.714,2.714,0,0,0,2.712,2.712H15.32v2.219a.739.739,0,0,0,1.284.5L19.1,25.64h8.551a2.714,2.714,0,0,0,2.712-2.712V14.545A2.715,2.715,0,0,0,27.647,11.833Z" transform="translate(345.683 331.998)" fill="#ff346b" opacity="0.4"/>
    <path id="Path_4086" data-name="Path 4086" d="M24.56,7.833h-14.3a2.222,2.222,0,0,0-2.219,2.219v8.383a2.222,2.222,0,0,0,2.219,2.219h14.3a2.222,2.222,0,0,0,2.219-2.219V10.052A2.224,2.224,0,0,0,24.56,7.833Zm.247,4.379-6.647,3.225a1.673,1.673,0,0,1-1.5,0l-6.647-3.225V10.576L17.3,14.107a.212.212,0,0,0,.217,0l7.289-3.531v1.636Z" transform="translate(344 330)" fill="#ff346b"/>
  </g>
</svg>
