<svg xmlns="http://www.w3.org/2000/svg" width="21.818" height="24" viewBox="0 0 21.818 24"><g transform="translate(-636.36 -516)"><g transform="translate(636.36 528.92)" opacity="0.5"><path d="M661.625,540.062q-2,2.21-3.947,4.477c-.342.4-.58.357-.9-.013-1.393-1.618-1.411-1.249-.046-2.8.645-.736,1.3-1.459,2.008-2.248-.888-.992-1.706-1.944-2.559-2.849a5.735,5.735,0,0,0,1.654.1,7.167,7.167,0,0,0,1.569-.309c.726.844,1.452,1.687,2.195,2.51C661.969,539.343,662.016,539.63,661.625,540.062Z" transform="translate(-642.035 -534.278)" fill="#ff8f1e"/><path d="M639.584,538.772c.933,1.038,1.786,2.023,2.678,2.961a.689.689,0,0,1-.007,1.126c-1.446,1.561-.985,1.6-2.4.036-1.085-1.2-2.135-2.449-3.227-3.644a.67.67,0,0,1,0-1.076q1.991-2.218,3.945-4.477c.334-.387.59-.4.9-.005a8.331,8.331,0,0,0,.774.87c.437.413.4.775.007,1.2C641.384,536.725,640.529,537.708,639.584,538.772Z" transform="translate(-636.36 -533.403)" fill="#ff8f1e"/><path d="M651.506,535.122q-1.259,4.193-2.522,8.387c-.328,1.09-.328,1.09-1.321,1.088-.129,0-.257,0-.385,0-.639-.016-.793-.249-.585-.96.5-1.7,1.01-3.393,1.519-5.088.474-1.582.97-3.156,1.42-4.747a7.608,7.608,0,0,0,1.728,1.245C651.408,535.073,651.457,535.1,651.506,535.122Z" transform="translate(-639.36 -533.518)" fill="#ff8f1e"/></g><path d="M655.9,518a6.924,6.924,0,0,1,6.468,4.975,6.269,6.269,0,0,1-2.282,6.687,7.058,7.058,0,0,1-3.7,1.475,6.216,6.216,0,0,1-3.476-.839,6.459,6.459,0,0,1-3.186-3.713,6.539,6.539,0,0,1,4.934-8.433C655.067,518.079,655.484,518.05,655.9,518Zm1.906,3.976-1.924,1.935-1.854-1.882-.767.761,1.914,1.894-1.874,1.863.728.755,1.905-1.908,1.85,1.888.818-.766-1.962-1.9,1.907-1.9Z" transform="translate(-4.432 -2)" fill="#ff8f1e"/></g></svg>