<svg xmlns="http://www.w3.org/2000/svg" width="34" height="34" viewBox="0 0 34 34">
  <g id="Group_3537" data-name="Group 3537" transform="translate(-673.5 -999.5)">
    <path id="Path_3495" data-name="Path 3495" d="M20.75,12.667H10.833A2.833,2.833,0,0,0,8,15.5V33.917a2.833,2.833,0,0,0,2.833,2.833H20.75a2.833,2.833,0,0,0,2.833-2.833V15.5A2.833,2.833,0,0,0,20.75,12.667ZM11.54,15.5h8.5a.708.708,0,0,1,.71.708V31.082H10.833V16.207A.707.707,0,0,1,11.54,15.5Z" transform="translate(665.5 996.75)" fill="#fff"/>
    <path id="Path_3496" data-name="Path 3496" d="M37.75,8H12.25A4.263,4.263,0,0,0,8,12.25v3.6a5.644,5.644,0,0,1,2.833-.765H39.168V34.915a1.421,1.421,0,0,1-1.417,1.417H26.415v2.833H37.75A4.263,4.263,0,0,0,42,34.915V12.25A4.263,4.263,0,0,0,37.75,8Z" transform="translate(665.5 991.5)" fill="#fff" opacity="0.4"/>
    <path id="Path_3497" data-name="Path 3497" d="M23.967,15.058a1.419,1.419,0,0,0-2,.025l-2.044,2.1-.771-.771a1.064,1.064,0,0,0-1.815.752V20.7A1.063,1.063,0,0,0,18.4,21.762h3.542a1.062,1.062,0,0,0,.75-1.815l-.767-.767,2.07-2.121a1.414,1.414,0,0,0-.023-2Z" transform="translate(676 998.988)" fill="#fff"/>
  </g>
</svg>
