<svg xmlns="http://www.w3.org/2000/svg" xmlns:xlink="http://www.w3.org/1999/xlink" width="17.55" height="26" viewBox="0 0 17.55 26">
  <defs>
    <linearGradient id="linear-gradient" x1="0.294" y1="0.123" x2="1.042" y2="1.152" gradientUnits="objectBoundingBox">
      <stop offset="0" stop-color="#19f299"/>
      <stop offset="1" stop-color="#1442ff"/>
    </linearGradient>
  </defs>
  <g id="Group_10897" data-name="Group 10897" transform="translate(-1 -5)">
    <path id="Path_13937" data-name="Path 13937" d="M17.187,5h0a1.368,1.368,0,0,0-1.363,1.363v6.4a8.782,8.782,0,1,0,0,12.724v.54a1.368,1.368,0,0,0,1.363,1.363h0a1.368,1.368,0,0,0,1.363-1.363V6.363A1.368,1.368,0,0,0,17.187,5Z" transform="translate(0 0)" fill="url(#linear-gradient)"/>
    <g id="Group_10896" data-name="Group 10896" transform="translate(3.741 13.05)">
      <g id="Group_10894" data-name="Group 10894" transform="translate(0 1.768)" opacity="0.12">
        <path id="Path_13938" data-name="Path 13938" d="M35.381,91.125v.454a8.238,8.238,0,0,1-1.412,4.052,20.185,20.185,0,0,1-1.829,2.517,32.858,32.858,0,0,1-2.8,2.934,32.069,32.069,0,0,1-2.787-2.91c-.43-.5-.81-.995-1.154-1.486-.037-.049-.074-.1-.1-.135a14.8,14.8,0,0,1-1.08-1.756l-.037-.074A7,7,0,0,1,23.3,91.6v-.454a6.349,6.349,0,0,1,1.915-4.555A5.948,5.948,0,0,1,29.341,84.9a5.851,5.851,0,0,1,4.125,1.694c.11.111.221.233.331.356a1,1,0,0,1,.111.123c.025.025.049.061.074.086A6.46,6.46,0,0,1,35.381,91.125Z" transform="translate(-23.3 -84.9)"/>
      </g>
      <g id="Group_10895" data-name="Group 10895">
        <path id="Path_13939" data-name="Path 13939" d="M35.381,76.725v.454a8.238,8.238,0,0,1-1.412,4.052,20.185,20.185,0,0,1-1.829,2.517,32.856,32.856,0,0,1-2.8,2.934,32.067,32.067,0,0,1-2.787-2.91c-.43-.5-.81-.994-1.154-1.486-.037-.049-.074-.1-.1-.135a14.8,14.8,0,0,1-1.08-1.756l-.037-.074A7,7,0,0,1,23.3,77.2v-.454a6.349,6.349,0,0,1,1.915-4.555A5.948,5.948,0,0,1,29.341,70.5a5.851,5.851,0,0,1,4.125,1.694c.11.11.221.233.331.356a1,1,0,0,1,.111.123c.025.025.049.061.074.086A6.46,6.46,0,0,1,35.381,76.725Z" transform="translate(-23.3 -70.5)" fill="#fff"/>
      </g>
    </g>
    <path id="Path_13940" data-name="Path 13940" d="M35.82,91.8a3.458,3.458,0,0,0-3.462,3.462,3.5,3.5,0,0,0,.442,1.707l-2.1,2.112a14.2,14.2,0,0,0,1.08,1.756l2.468-2.468a3.378,3.378,0,0,0,1.572.381,3.475,3.475,0,0,0,0-6.949Z" transform="translate(-26.051 -76.138)" fill="#3e62f5"/>
    <path id="Path_13941" data-name="Path 13941" d="M56.216,99a2.275,2.275,0,0,0-1.044.9.32.32,0,0,0,.2.479.045.045,0,0,1,.037.012.313.313,0,0,0,.331-.16,1.608,1.608,0,0,1,.737-.626,1.58,1.58,0,0,1,1.031-.074.291.291,0,0,0,.332-.11c.012-.012.012-.025.025-.037a.31.31,0,0,0-.172-.479A2.187,2.187,0,0,0,56.216,99Z" transform="translate(-47.478 -82.294)" fill="#fff"/>
  </g>
</svg>
