<svg xmlns="http://www.w3.org/2000/svg" width="22" height="24.001" viewBox="0 0 22 24.001">
  <g id="Group_3983" data-name="Group 3983" transform="translate(-1330.148 -269.75)">
    <path id="Path_4081" data-name="Path 4081" d="M194.756,128A2.757,2.757,0,0,0,192,130.756v13.533a2.756,2.756,0,0,0,2.756,2.756h11.529a2.756,2.756,0,0,0,2.756-2.756V131.007A3.007,3.007,0,0,0,206.034,128Zm9.524,14.536h-7.518a.752.752,0,1,1,0-1.5h7.518a.752.752,0,1,1,0,1.5Zm0-3.007h-7.518a.752.752,0,1,1,0-1.5h7.518a.752.752,0,1,1,0,1.5Zm0-3.007h-7.518a.752.752,0,1,1,0-1.5h7.518a.752.752,0,1,1,0,1.5Zm0,0" transform="translate(1143.107 141.75)" fill="#834eff"/>
    <path id="Path_4082" data-name="Path 4082" d="M146.44,172.668a4.258,4.258,0,0,1-4.26-4.249v-13.5c0-.085.021-.165.026-.25h-.778a2.755,2.755,0,0,0-2.756,2.749v16a2.755,2.755,0,0,0,2.756,2.749h12.029a2.755,2.755,0,0,0,2.756-2.749v-.75Zm0,0" transform="translate(1191.477 117.585)" fill="#834eff" opacity="0.4"/>
  </g>
</svg>
