<svg xmlns="http://www.w3.org/2000/svg" width="50" height="46.083" viewBox="0 0 50 46.083">
  <g id="Group_5334" data-name="Group 5334" transform="translate(-748.961 -181.138)">
    <path id="Path_6354" data-name="Path 6354" d="M798.872,195.978a8.96,8.96,0,0,0-6.953-7.6,8.082,8.082,0,0,0-4.026.079c.2.558.394,1.087.585,1.611a7.2,7.2,0,0,1,8.634,7.1,7.168,7.168,0,0,1-9.448,6.691c-.756,1.617-1.468,3.182-2.22,4.727a.547.547,0,0,0,.078.725c1.092,1.157,2.169,2.329,3.272,3.477a.986.986,0,0,1,.351.747c-.017,2.082-.008,4.164-.01,6.245,0,.057,0,.115-.007.175h1.811c0-2.2-.008-4.393.008-6.588a.792.792,0,0,1,.244-.483c.516-.519,1.076-.994,1.58-1.524a21.226,21.226,0,0,0,5.742-10.239c.193-.9.3-1.821.448-2.732v-2.148A1.583,1.583,0,0,1,798.872,195.978Z" fill="#ff346b"/>
    <path id="Path_6355" data-name="Path 6355" d="M760.242,203.826a7.13,7.13,0,0,1-9.4-5.3,6.835,6.835,0,0,1,1.27-5.679,7.106,7.106,0,0,1,7.333-2.736c.2-.575.392-1.1.586-1.651-.166-.047-.288-.088-.414-.113a8.937,8.937,0,0,0-10.447,6.989,14.58,14.58,0,0,0,.449,6.61,22.246,22.246,0,0,0,6.929,10.749,1.192,1.192,0,0,1,.461.989c-.025,2.018-.01,4.035-.01,6.052v.226h1.8c0-2.182-.009-4.363.011-6.543a.977.977,0,0,1,.287-.564c1.1-1.195,2.223-2.371,3.319-3.568a.624.624,0,0,0,.126-.534C761.8,207.114,761.024,205.489,760.242,203.826Z" fill="#ff346b"/>
    <path id="Path_6356" data-name="Path 6356" d="M787.13,192.53a13.384,13.384,0,0,0-26.608,1.4,26.875,26.875,0,0,0,3.071,13.154,35.936,35.936,0,0,0,8.839,10.93,1.46,1.46,0,0,1,.589,1.271c-.033,2.537-.014,5.075-.014,7.613v.328h1.777V227.2c0-2.8-.008-5.6.011-8.394a.9.9,0,0,1,.306-.551c.816-.769,1.688-1.483,2.476-2.279,4.789-4.832,8.272-10.382,9.351-17.228A19.609,19.609,0,0,0,787.13,192.53Zm-13.244,12.6a10.707,10.707,0,1,1,10.726-10.709A10.734,10.734,0,0,1,773.886,205.132Z" fill="#ff346b"/>
    <path id="Path_6357" data-name="Path 6357" d="M774.966,193.562l-1.416-.327q-1.074-.234-1.074-1.043a1.1,1.1,0,0,1,.413-.855,1.658,1.658,0,0,1,1.128-.358,1.636,1.636,0,0,1,1.268.451,1.956,1.956,0,0,1,.506,1l1.913-.545a3.409,3.409,0,0,0-.871-1.657,3.316,3.316,0,0,0-1.914-.957v-1.711h-1.587v1.665a3.64,3.64,0,0,0-2.108,1.058,2.858,2.858,0,0,0-.833,2.069,2.636,2.636,0,0,0,.724,1.875,3.771,3.771,0,0,0,2,1.05l1.432.311q1.167.249,1.167,1.1a1,1,0,0,1-.428.848,1.926,1.926,0,0,1-1.175.319,2,2,0,0,1-2.178-1.883l-1.93.467a3.6,3.6,0,0,0,.973,2.054,3.73,3.73,0,0,0,2.357,1.136v1.665h1.587v-1.681a3.5,3.5,0,0,0,2.124-1.073,2.865,2.865,0,0,0,.77-1.976,2.751,2.751,0,0,0-.715-1.891A3.884,3.884,0,0,0,774.966,193.562Z" fill="#ff346b"/>
    <path id="Path_6358" data-name="Path 6358" d="M792.45,198.333a.963.963,0,0,1-.587.159,1,1,0,0,1-1.089-.941l-.965.233a1.809,1.809,0,0,0,.486,1.027,1.865,1.865,0,0,0,1.179.568v.832h.793v-.84a1.738,1.738,0,0,0,1.062-.537,1.431,1.431,0,0,0,.386-.988,1.375,1.375,0,0,0-.358-.945,1.945,1.945,0,0,0-1.066-.556l-.708-.164q-.537-.115-.537-.521a.551.551,0,0,1,.206-.428.835.835,0,0,1,.564-.179.819.819,0,0,1,.634.226.97.97,0,0,1,.253.5l.957-.272a1.7,1.7,0,0,0-.436-.829,1.649,1.649,0,0,0-.957-.478v-.856h-.793v.832a1.829,1.829,0,0,0-1.054.529,1.429,1.429,0,0,0-.416,1.035,1.317,1.317,0,0,0,.361.937,1.888,1.888,0,0,0,1,.526l.716.155q.583.124.583.553A.5.5,0,0,1,792.45,198.333Z" fill="#ff346b"/>
    <path id="Path_6359" data-name="Path 6359" d="M756.468,200.211v-.84a1.738,1.738,0,0,0,1.061-.537,1.431,1.431,0,0,0,.386-.988,1.375,1.375,0,0,0-.358-.945,1.945,1.945,0,0,0-1.066-.556l-.708-.164q-.537-.115-.537-.521a.551.551,0,0,1,.206-.428.835.835,0,0,1,.564-.179.819.819,0,0,1,.634.226.97.97,0,0,1,.253.5l.957-.272a1.7,1.7,0,0,0-.436-.829,1.649,1.649,0,0,0-.956-.478v-.856h-.794v.832a1.829,1.829,0,0,0-1.054.529,1.428,1.428,0,0,0-.416,1.035,1.317,1.317,0,0,0,.361.937,1.892,1.892,0,0,0,1,.526l.716.155q.583.124.583.553a.5.5,0,0,1-.214.424.963.963,0,0,1-.587.159,1,1,0,0,1-1.089-.941l-.965.233a1.809,1.809,0,0,0,.486,1.027,1.865,1.865,0,0,0,1.179.568v.832Z" fill="#ff346b"/>
  </g>
</svg>
