<svg xmlns="http://www.w3.org/2000/svg" width="34" height="34" viewBox="0 0 34 34">
  <g id="Group_5099" data-name="Group 5099" transform="translate(-934 -3434)">
    <path id="Path_6191" data-name="Path 6191" d="M28.187,8H11.9A3.893,3.893,0,0,0,8,11.9V33.852a3.894,3.894,0,0,0,3.9,3.9H22.35l.312-1.742a3.946,3.946,0,0,1,1.077-2.082l8.345-8.33V11.9A3.9,3.9,0,0,0,28.187,8Zm-14.52,5.667h5.667a1.416,1.416,0,1,1,0,2.833H13.665a1.416,1.416,0,1,1,0-2.833ZM20.75,27.832H13.667a1.416,1.416,0,1,1,0-2.833H20.75a1.416,1.416,0,1,1,0,2.833Zm5.667-5.665H13.667a1.417,1.417,0,1,1,0-2.835h12.75a1.417,1.417,0,0,1,0,2.835Z" transform="translate(926 3426)" fill="#fff"/>
    <path id="Path_6192" data-name="Path 6192" d="M16.915,33.244A1.061,1.061,0,0,1,15.867,32l.752-4.258a1.065,1.065,0,0,1,.3-.567L27.434,16.654a2.162,2.162,0,0,1,3.255-.251l1.753,1.753a2.482,2.482,0,0,1,0,3.506L21.924,32.182a1.05,1.05,0,0,1-.567.3l-4.256.752A1.355,1.355,0,0,1,16.915,33.244Zm4.256-1.813h.015Z" transform="translate(934.833 3434.755)" fill="#fff" opacity="0.4"/>
  </g>
</svg>
