<svg xmlns="http://www.w3.org/2000/svg" width="40.001" height="40.001" viewBox="0 0 40.001 40.001">
  <path id="Union_30" data-name="Union 30" d="M11677.155,5950.514l-3.333-3.333a1.666,1.666,0,0,1,2.356-2.357l3.333,3.333a1.666,1.666,0,0,1-2.356,2.357Zm-18.822-1.182V5946a1.667,1.667,0,1,1,3.333,0v3.333a1.667,1.667,0,1,1-3.333,0Zm-17.846,1.182a1.666,1.666,0,0,1,0-2.357l3.333-3.333a1.666,1.666,0,0,1,2.356,2.357l-3.333,3.333a1.67,1.67,0,0,1-2.356,0Zm25.74-9.512a4.568,4.568,0,0,1-4.1-2.536l-.264-.531a2.083,2.083,0,0,0-3.726,0l-.261.528a4.558,4.558,0,0,1-4.1,2.536h-5.021a4.587,4.587,0,0,1-4.582-4.584V5936h-2.92a1.25,1.25,0,0,1-1.248-1.251v-7.5a1.25,1.25,0,0,1,1.248-1.251h2.92v-.417a4.586,4.586,0,0,1,4.582-4.582h22.5a4.587,4.587,0,0,1,4.584,4.582V5926h2.917a1.249,1.249,0,0,1,1.249,1.251v7.5a1.249,1.249,0,0,1-1.249,1.251h-2.917v.417a4.587,4.587,0,0,1-4.584,4.584Zm-2.894-12.083v2.5a2.919,2.919,0,0,0,2.917,2.917h2.5a2.921,2.921,0,0,0,2.917-2.917v-2.5a2.921,2.921,0,0,0-2.917-2.919h-2.5A2.921,2.921,0,0,0,11663.334,5928.918Zm-15,0v2.5a2.919,2.919,0,0,0,2.917,2.917h2.5a2.921,2.921,0,0,0,2.917-2.917v-2.5a2.921,2.921,0,0,0-2.917-2.919h-2.5A2.919,2.919,0,0,0,11648.334,5928.918Zm25.488-11.74a1.67,1.67,0,0,1,0-2.359l3.333-3.33a1.666,1.666,0,0,1,2.356,2.357l-3.333,3.333a1.662,1.662,0,0,1-2.356,0Zm-15.489-1.178v-3.333a1.668,1.668,0,0,1,3.336,0V5916a1.668,1.668,0,0,1-3.336,0Zm-14.51,1.178-3.336-3.333a1.666,1.666,0,0,1,2.356-2.357l3.333,3.33a1.666,1.666,0,1,1-2.354,2.359Z" transform="translate(-11639.999 -5910.999)" fill="#ff8f1e"/>
</svg>
