<svg xmlns="http://www.w3.org/2000/svg" width="50" height="29.886" viewBox="0 0 50 29.886">
  <g id="Group_5328" data-name="Group 5328" transform="translate(-746.488 -186.07)">
    <path id="Path_6332" data-name="Path 6332" d="M788.755,187.909a14.952,14.952,0,0,0-17.2,2.028,2.41,2.41,0,0,1-1.447.532c-3.209.042-6.418.008-9.627.014-1.139,0-1.846.612-1.848,1.545s.7,1.563,1.829,1.572c1.426.011,2.852-.014,4.278,0,1.133.011,1.825.627,1.819,1.578s-.7,1.543-1.838,1.552c-1.394.01-2.788,0-4.182,0-1.3.006-2.007.576-1.991,1.591.016.983.7,1.526,1.951,1.529,2.042.005,4.084,0,6.127,0,1.293,0,2.04.576,2.049,1.554.01,1-.72,1.574-2.013,1.575-3.469,0-6.937,0-10.406.005-1.2,0-1.925.628-1.906,1.6.018.938.712,1.515,1.869,1.521,1.718.011,3.436,0,5.154,0,1.815,0,3.63-.011,5.446,0,1.121.01,1.843.64,1.847,1.564s-.7,1.545-1.833,1.556c-1.231.011-2.464-.018-3.7.01a1.56,1.56,0,0,0-1.721,1.668c.05.917.688,1.453,1.819,1.459,2.593.015,5.187-.024,7.779.031a2.954,2.954,0,0,1,1.57.535,14.937,14.937,0,0,0,23.7-9.346A14.95,14.95,0,0,0,788.755,187.909Zm-7.129,25.119a12.017,12.017,0,1,1,11.958-12.046A12.009,12.009,0,0,1,781.626,213.028Z" fill="#ff346b"/>
    <path id="Path_6333" data-name="Path 6333" d="M755.281,193.6a1.554,1.554,0,0,0,1.74-1.539,1.528,1.528,0,0,0-1.7-1.572q-3.543-.027-7.087,0a1.553,1.553,0,0,0-1.745,1.535c-.011.951.679,1.567,1.8,1.58,1.165.012,2.33,0,3.494,0S754.116,193.614,755.281,193.6Z" fill="#ff346b"/>
    <path id="Path_6334" data-name="Path 6334" d="M758.242,209.312a28.694,28.694,0,0,0-4.269,0,1.369,1.369,0,0,0-1.269,1.573,1.42,1.42,0,0,0,1.4,1.466c.643.059,1.295.012,1.944.01.68,0,1.364.04,2.041-.011a1.418,1.418,0,0,0,1.412-1.453A1.367,1.367,0,0,0,758.242,209.312Z" fill="#ff346b"/>
    <path id="Path_6335" data-name="Path 6335" d="M754.723,199.836a1.539,1.539,0,0,0,1.451-1.538,1.565,1.565,0,0,0-1.446-1.55,9.523,9.523,0,0,0-.971-.005v-.009c-.324,0-.648-.015-.971,0a1.579,1.579,0,0,0-1.6,1.6,1.555,1.555,0,0,0,1.59,1.5A17.719,17.719,0,0,0,754.723,199.836Z" fill="#ff346b"/>
    <path id="Path_6336" data-name="Path 6336" d="M783.545,196.28c.363.437.72.88,1.094,1.308.166.19.355.48.556.5.665.063,1.339.024,2.086.024a3.938,3.938,0,0,0-3.652-3.934l.068-1.365-1.852-.217c.19,1.293-.506,1.627-1.527,1.92a3.425,3.425,0,0,0-.371,6.473c.283.151.713.453.7.658-.081,1.147-.279,2.285-.439,3.439-1.257-.262-1.281-1.264-1.5-2.144l-2.575.154a14.33,14.33,0,0,0,.632,2.312c.593,1.279,1.856,1.7,3.117,2.012l-.11,1.247,1.919.223c-.208-1.241.427-1.546,1.393-1.66a4.334,4.334,0,0,0,1.516-.613c2.269-1.273,2.671-4.982-.092-6.228-.552-.249-1.079-.556-1.645-.851l.431-3.1ZM781.1,198.5l-.26.1c-.155-.382-.467-.784-.423-1.143.045-.377.43-.714.666-1.069l.267.143Zm2.689,5.4c-.115.884-.773,1.144-1.673,1.295.139-1.043.26-1.951.389-2.916C783.354,202.561,783.9,203.006,783.789,203.9Z" fill="#ff346b"/>
  </g>
</svg>
