<svg xmlns="http://www.w3.org/2000/svg" width="13.091" height="16" viewBox="0 0 13.091 16">
  <g id="Icon_feather-file-text" data-name="Icon feather-file-text" transform="translate(-4.5 -1.5)">
    <path id="Union_1" data-name="Union 1" d="M2.182,16A2.184,2.184,0,0,1,0,13.818V2.182A2.184,2.184,0,0,1,2.182,0H8a.727.727,0,0,1,.514.213l4.364,4.364a.729.729,0,0,1,.213.514v8.727A2.184,2.184,0,0,1,10.909,16ZM1.454,2.182V13.818a.728.728,0,0,0,.727.727h8.727a.728.728,0,0,0,.727-.727V5.392L7.7,1.454H2.182A.728.728,0,0,0,1.454,2.182ZM3.636,12.363a.727.727,0,0,1,0-1.454H9.455a.727.727,0,0,1,0,1.454Zm0-2.909A.727.727,0,0,1,3.636,8H9.455a.727.727,0,0,1,0,1.455Zm0-2.909a.727.727,0,0,1,0-1.454H5.091a.727.727,0,0,1,0,1.454Z" transform="translate(4.5 1.5)" fill="#2c90f4"/>
    <path id="Path_2" data-name="Path 2" d="M24.591,7.318H20.227a.727.727,0,0,1-.727-.727V2.227a.727.727,0,1,1,1.455,0V5.864h3.636a.727.727,0,0,1,0,1.455Z" transform="translate(-7.727)" fill="#2c90f4"/>
  </g>
</svg>
