<svg xmlns="http://www.w3.org/2000/svg" width="24" height="24" viewBox="0 0 24 24"><g transform="translate(-733.987 -222.992)"><path d="M932.01,222.993h4.837a1.012,1.012,0,0,1,1.137,1.132q0,4.868,0,9.737a1.007,1.007,0,0,1-1.117,1.121q-4.884,0-9.768,0a1,1,0,0,1-1.105-1.1q0-4.884,0-9.768a1.007,1.007,0,0,1,1.117-1.121Q929.561,222.991,932.01,222.993Zm-4,2.013v7.955h7.956v-7.955Z" transform="translate(-179.998 0)" fill="#4353ff"/><path d="M743.98,260.015q0,1.919,0,3.838a1.008,1.008,0,0,1-1.112,1.125q-3.885,0-7.77,0a1,1,0,0,1-1.11-1.1q0-3.9,0-7.8a1,1,0,0,1,1.081-1.094q3.916,0,7.832,0a1,1,0,0,1,1.078,1.1Q743.983,258.049,743.98,260.015ZM736,262.955h5.967V257H736Z" transform="translate(0 -29.995)" fill="#4353ff" opacity="0.3"/><path d="M925.99,451.954q0-1.919,0-3.838a1.01,1.01,0,0,1,1.112-1.126q3.885,0,7.77,0a1.009,1.009,0,0,1,1.111,1.127q0,3.869,0,7.739a1.009,1.009,0,0,1-1.111,1.126q-3.885,0-7.77,0a1.01,1.01,0,0,1-1.11-1.127Q925.988,453.9,925.99,451.954ZM928,454.966h5.96v-5.955H928Z" transform="translate(-179.994 -209.99)" fill="#4353ff" opacity="0.3"/><path d="M769.964,454.978q-1.435,0-2.87,0a1,1,0,0,1-1.107-1.1q0-2.9,0-5.8a1,1,0,0,1,1.083-1.092q2.917,0,5.834,0a.994.994,0,0,1,1.075,1.067q0,2.933,0,5.865a.991.991,0,0,1-1.051,1.06C771.94,454.981,770.952,454.978,769.964,454.978Zm2-2.012v-3.958H768v3.958Z" transform="translate(-30 -209.984)" fill="#4353ff"/></g></svg>