<svg xmlns="http://www.w3.org/2000/svg" width="30" height="29.528" viewBox="0 0 30 29.528">
  <g id="Group_3685" data-name="Group 3685" transform="translate(-911.999 -613)">
    <g id="Group_3538" data-name="Group 3538" transform="translate(911.999 627.082)" opacity="0.4">
      <path id="Path_3512" data-name="Path 3512" d="M8.631,16A.644.644,0,0,0,8,16.647v11.9a.323.323,0,0,0,.322.322h3.053A.645.645,0,0,0,12,28.4l2.849-10.035a1.286,1.286,0,0,0-.8-1.56A15.063,15.063,0,0,0,8.631,16Z" transform="translate(-8 -16)" fill="#929bb1"/>
      <path id="Path_3513" data-name="Path 3513" d="M33.363,21.948c-2.573,0-7.72,3.258-10.3,3.258S17.6,23.235,17.6,23.235a40.122,40.122,0,0,0,5.468.643c2,0,2.573-.683,2.573-1.608,0-2.252-3.825-2.6-5.759-2.9-1.9-1.058-2.886-1.893-6.032-2.16a3.408,3.408,0,0,1-.1.548l-2.584,9.11c2.928,1.332,7.969,3.441,10.616,3.441,3.86,0,14.155-5.148,14.155-6.433s-1.287-1.934-2.575-1.934Z" transform="translate(-5.938 -14.869)" fill="#929bb1"/>
    </g>
    <path id="Path_3607" data-name="Path 3607" d="M20.6,16.23l-.545,3.334a1.068,1.068,0,0,0,1.571,1.107l2.787-1.541L27.2,20.669a1.065,1.065,0,0,0,.517.133,1.078,1.078,0,0,0,.616-.195,1.064,1.064,0,0,0,.438-1.045l-.545-3.334,2.3-2.353a1.067,1.067,0,0,0-.6-1.8l-3.129-.479-1.409-3a1.113,1.113,0,0,0-1.934,0l-1.409,3-3.129.479a1.067,1.067,0,0,0-.6,1.8Z" transform="translate(909.885 604.97)" fill="#929bb1"/>
  </g>
</svg>
