<svg xmlns="http://www.w3.org/2000/svg" width="34" height="33.19" viewBox="0 0 34 33.19">
  <g id="Group_3529" data-name="Group 3529" transform="translate(-1046.757 -1550)">
    <path id="Path_3509" data-name="Path 3509" d="M25.344,16a9.344,9.344,0,1,0,9.344,9.344A9.354,9.354,0,0,0,25.344,16Zm-.29,7.793.614-.007a3.278,3.278,0,0,1,3.179,3.364,3.381,3.381,0,0,1-1.946,3.1V30.4a1.548,1.548,0,0,1-3.093.112H23.4a1.558,1.558,0,1,1,0-3.116h2.271a.61.61,0,0,0,.065-.25.32.32,0,0,0-.1-.257l-.614.007a3.278,3.278,0,0,1-3.179-3.364,3.381,3.381,0,0,1,1.946-3.1v-.152a1.548,1.548,0,0,1,3.093-.112h.411a1.558,1.558,0,1,1,0,3.116H25.022a.61.61,0,0,0-.065.25A.305.305,0,0,0,25.054,23.793Z" transform="translate(1046.068 1534)" fill="#fff"/>
    <g id="Group_3538" data-name="Group 3538" transform="translate(1046.757 1566.329)" opacity="0.4">
      <path id="Path_3512" data-name="Path 3512" d="M8.689,16a.7.7,0,0,0-.689.7V29.7a.352.352,0,0,0,.352.352h3.333a.7.7,0,0,0,.676-.51l3.11-10.954a1.4,1.4,0,0,0-.87-1.7A16.444,16.444,0,0,0,8.689,16Z" transform="translate(-8 -16)" fill="#fff"/>
      <path id="Path_3513" data-name="Path 3513" d="M35.4,22.381c-2.809,0-8.428,3.557-11.238,3.557s-5.969-2.151-5.969-2.151a43.8,43.8,0,0,0,5.969.7c2.187,0,2.809-.746,2.809-1.755,0-2.459-4.176-2.84-6.287-3.16-2.073-1.155-3.15-2.067-6.584-2.358a3.72,3.72,0,0,1-.107.6l-2.821,9.945c3.2,1.454,8.7,3.757,11.588,3.757,4.214,0,15.452-5.619,15.452-7.022S36.8,22.381,35.4,22.381Z" transform="translate(-4.487 -14.654)" fill="#fff"/>
    </g>
  </g>
</svg>
