<svg xmlns="http://www.w3.org/2000/svg" width="24.004" height="22.273" viewBox="0 0 24.004 22.273">
  <g id="Group_10898" data-name="Group 10898" transform="translate(-0.5 -0.332)">
    <g id="Group_10863" data-name="Group 10863" transform="translate(0.5 0.332)">
      <path id="Path_13930" data-name="Path 13930" d="M23.57,5.942a1.57,1.57,0,0,0-1.709.277L19.98,7.968V6.283c0-.09,0-.178-.006-.268A5.945,5.945,0,0,0,14.029.332H6.442A5.947,5.947,0,0,0,.5,6.283v7.578a5.946,5.946,0,0,0,4.521,5.777v1.846a1.12,1.12,0,0,0,1.622,1l5.282-2.647,1.643-.027h.461c.137,0,.273,0,.407-.014a5.794,5.794,0,0,0,.728-.094,5.95,5.95,0,0,0,4.809-5.574c0-.09.006-.178.006-.268V12.88l1.89,1.75a1.609,1.609,0,0,0,1.073.416,1.557,1.557,0,0,0,.637-.139,1.478,1.478,0,0,0,.924-1.368V7.31A1.478,1.478,0,0,0,23.57,5.942ZM10.8,16.835,8.3,18.087a.425.425,0,0,1-.616-.381V16.342a6.632,6.632,0,0,1-4.061-6.115h0A6.632,6.632,0,0,1,10.255,3.6h0A6.631,6.631,0,0,1,10.8,16.835Z" transform="translate(-0.5 -0.332)"/>
      <g id="Group_10862" data-name="Group 10862" transform="translate(5.516 8.941)">
        <circle id="Ellipse_287" data-name="Ellipse 287" cx="0.951" cy="0.951" r="0.951" transform="translate(6.282 0.193)"/>
        <circle id="Ellipse_288" data-name="Ellipse 288" cx="0.951" cy="0.951" r="0.951" transform="translate(3.238 0.193)"/>
        <circle id="Ellipse_289" data-name="Ellipse 289" cx="0.951" cy="0.951" r="0.951" transform="translate(0 0.437) rotate(-13.282)"/>
      </g>
    </g>
  </g>
</svg>
