<svg xmlns="http://www.w3.org/2000/svg" width="30" height="30" viewBox="0 0 30 30">
  <g id="Group_3687" data-name="Group 3687" transform="translate(-891.539 -759.539)">
    <path id="Union_14" data-name="Union 14" d="M3.45,26.236A3.442,3.442,0,0,1,0,22.8V7.183A3.441,3.441,0,0,1,3.45,3.748h.314V5.309a3.441,3.441,0,0,0,3.45,3.435h6.9a3.442,3.442,0,0,0,3.45-3.435V3.748h.314a3.442,3.442,0,0,1,3.45,3.435v3.448a10.865,10.865,0,0,0-4.781,1.237H4.705a.937.937,0,1,0,0,1.874h9.274a10.9,10.9,0,0,0-1.745,2.187H4.705a.937.937,0,1,0,0,1.874h6.626a11.469,11.469,0,0,0-.551,2.187H4.705a.937.937,0,1,0,0,1.874h5.973a10.888,10.888,0,0,0,1.041,4.373ZM7.217,7.5a2.2,2.2,0,0,1-2.2-2.186V3.435A.946.946,0,0,1,5.961,2.5h1.38a3.463,3.463,0,0,1,6.652,0h1.379a.946.946,0,0,1,.941.937V5.309a2.2,2.2,0,0,1-2.2,2.186Z" transform="translate(891.539 759.539)" fill="#929bb1" opacity="0.4"/>
    <path id="Path_3613" data-name="Path 3613" d="M23.47,15a8.47,8.47,0,1,0,8.47,8.47A8.48,8.48,0,0,0,23.47,15Zm1.255,11.92a1.255,1.255,0,1,1-2.511,0V22.529a1.255,1.255,0,0,1,2.511,0ZM23.47,20.647a1.255,1.255,0,1,1,1.255-1.255A1.256,1.256,0,0,1,23.47,20.647Z" transform="translate(889.599 757.598)" fill="#929bb1"/>
  </g>
</svg>
