<svg xmlns="http://www.w3.org/2000/svg" width="34" height="34" viewBox="0 0 34 34">
  <g id="Group_3533" data-name="Group 3533" transform="translate(-1385.844 -1054.844)">
    <path id="Path_3530" data-name="Path 3530" d="M39.52,13.333H10.48A2.486,2.486,0,0,0,8,15.8V33.415a2.486,2.486,0,0,0,2.48,2.467H39.522A2.485,2.485,0,0,0,42,33.415V15.8A2.486,2.486,0,0,0,39.52,13.333ZM21.1,29.541H13.313a1.057,1.057,0,1,1,0-2.114H21.1a1.057,1.057,0,1,1,0,2.114Zm0-4.228H13.313a1.057,1.057,0,1,1,0-2.114H21.1a1.057,1.057,0,1,1,0,2.114Zm0-4.228H13.313a1.057,1.057,0,1,1,0-2.114H21.1a1.057,1.057,0,1,1,0,2.114Zm16.645,8.1a2.476,2.476,0,0,1-2.48,2.467H27.478A2.476,2.476,0,0,1,25,29.188v-9.16a2.476,2.476,0,0,1,2.48-2.467h7.792a2.476,2.476,0,0,1,2.478,2.467Z" transform="translate(1377.844 1052.961)" fill="#fff"/>
    <g id="Group_3532" data-name="Group 3532" transform="translate(1386 1054.844)" opacity="0.4">
      <path id="Path_3531" data-name="Path 3531" d="M33.415,8H15.8a2.47,2.47,0,0,0-2.467,2.467v3.524A2.47,2.47,0,0,0,15.8,16.458H33.415a2.472,2.472,0,0,0,2.467-2.469V10.467A2.468,2.468,0,0,0,33.415,8Z" transform="translate(-2.039 -8)" fill="#fff"/>
      <circle id="Ellipse_289" data-name="Ellipse 289" cx="4.5" cy="4.5" r="4.5" transform="translate(0 0.156)" fill="#fff"/>
    </g>
  </g>
</svg>
