<svg xmlns="http://www.w3.org/2000/svg" width="24" height="23.58" viewBox="0 0 24 23.58">
  <g id="Legal_Pages" data-name="Legal Pages" transform="translate(0.028 -0.1)">
    <g id="Group_10906" data-name="Group 10906" transform="translate(-0.028 9.558)">
      <path id="Path_13942" data-name="Path 13942" d="M11.912,38.331v-.876a.684.684,0,0,0-.465-.712c-1.286-.52-2.573-1.067-3.831-1.587l-1.368-.575-.109-.055L6.055,34.5H5.782l-1.423.6C3.1,35.622,1.786,36.169.5,36.717a.744.744,0,0,0-.52.794v2.518A9.345,9.345,0,0,0,.773,43.8a9.848,9.848,0,0,0,2.271,3.12,9.38,9.38,0,0,0,2.737,1.7H6.11a9.287,9.287,0,0,0,3.147-2.08,8.993,8.993,0,0,0,2.518-4.926,11.445,11.445,0,0,0,.137-1.669Zm-1.341,1.587a10.629,10.629,0,0,1-.109,1.314A7.5,7.5,0,0,1,8.874,44.9a7.908,7.908,0,0,1-2.9,2.3H5.918a7.8,7.8,0,0,1-4.434-5.583,7.553,7.553,0,0,1-.164-1.56V37.839a.027.027,0,0,0,.027-.027l1.97-.821,2.545-1.067h.109c.794.328,1.615.657,2.408.985.684.3,1.4.575,2.107.876a.027.027,0,0,1,.027.027V39.4h.027A3.489,3.489,0,0,1,10.571,39.919Z" transform="translate(0.028 -34.5)" fill="#05b94d"/>
      <path id="Path_13943" data-name="Path 13943" d="M13.809,64.539H12.66v-.109h.985c-.027-.109-.027-.192-.055-.274,0-.055-.027-.109-.027-.164a.263.263,0,0,0-.246-.192H11.675a.224.224,0,0,0-.246.219c-.027.164-.055.3-.082.465a.059.059,0,0,1-.055.055c-.192,0-.192.027-.192.192v.055c0,.082.027.109.109.109h2.627c.055,0,.109-.055.082-.109v-.164C13.919,64.566,13.864,64.512,13.809,64.539Z" transform="translate(-8.055 -55.781)" fill="#05b94d"/>
      <path id="Path_13944" data-name="Path 13944" d="M19.374,53.363l-.876-.821c-.027,0-.027-.027-.055-.027a2.223,2.223,0,0,1,.794-.52L18.142,50.9A3.667,3.667,0,0,1,16.5,52.542l1.095,1.095.246-.411a3.679,3.679,0,0,1,.3-.383.059.059,0,0,0,.055.055c.712.766,1.423,1.505,2.135,2.271l.027.027h0a.207.207,0,0,0,.109.055.142.142,0,0,0,.109-.055l.219-.219.027-.027a.166.166,0,0,0-.027-.219C20.3,54.239,19.839,53.8,19.374,53.363Z" transform="translate(-11.977 -46.412)" fill="#05b94d"/>
      <path id="Path_13945" data-name="Path 13945" d="M16.05,58.3h0c.027.027.055.055.082.055s.055-.027.082-.055l.082-.082h0a.122.122,0,0,0,0-.137l-.027-.027-1.122-1.122c-.082-.082-.109-.082-.219,0-.137.109-.137.164,0,.274C15.311,57.566,15.667,57.949,16.05,58.3Z" transform="translate(-10.76 -50.752)" fill="#05b94d"/>
    </g>
    <path id="Path_13946" data-name="Path 13946" d="M23.668,50.687l-1.149-1.149-.027-.027a.078.078,0,0,1,0-.137h0l.082-.082a.078.078,0,0,1,.137,0l.027.027,1.2,1.2c.027.027.027.055.055.082,0,.027-.027.055-.027.082l-.055.055c-.055.055-.082.055-.109.055s-.082-.082-.137-.109Z" transform="translate(-16.314 -35.672)" fill="#05b94d"/>
    <g id="Group_10907" data-name="Group 10907" transform="translate(6.209 0.1)">
      <path id="Path_13947" data-name="Path 13947" d="M40.361,6.187a2.666,2.666,0,0,0-.9-2.057c-.547-.494-1.013-.9-1.45-1.316-.684-.631-1.341-1.206-2.189-2A2.9,2.9,0,0,0,34.368.1H24.789c-.109.055-.246.082-.356.137a3.025,3.025,0,0,0-.739.329,2.294,2.294,0,0,0-.821.877A2.459,2.459,0,0,0,22.6,2.6V8.573c.027.027.082.027.109.055l1.259.521V2.65a1.141,1.141,0,0,1,1.286-1.234h8.566v3.1a1.5,1.5,0,0,0,.465,1.206,1.774,1.774,0,0,0,1.259.439H39.02V20.2a1.125,1.125,0,0,1-1.259,1.206H26.9c-.246.3-.493.6-.766.877-.164.165-.3.3-.465.439H38.172l.356-.082a2.449,2.449,0,0,0,1.834-2.221V6.187ZM35.435,4.844c-.192,0-.274-.082-.274-.274V2.047l3.093,2.8Z" transform="translate(-22.6 -0.1)" fill="#0a4bff"/>
      <path id="Path_13948" data-name="Path 13948" d="M45.819,57.5a6.646,6.646,0,0,1-.109.821,3.875,3.875,0,0,1-.109.547h2.518a1.169,1.169,0,0,0,.794-.274.557.557,0,0,0,.164-.411c0-.411-.383-.684-.958-.684Z" transform="translate(-39.305 -41.759)" fill="#0a4bff"/>
      <path id="Path_13949" data-name="Path 13949" d="M53.716,45.468h0a.662.662,0,0,0,.684-.411.646.646,0,0,0-.027-.629.747.747,0,0,0-.657-.328H46.6v.657h0v.712h7.116Z" transform="translate(-40.032 -32.034)" fill="#0a4bff"/>
      <path id="Path_13950" data-name="Path 13950" d="M44.34,30.795H34.405a.677.677,0,0,0-.164,1.341h0c.082,0,.137.027.219.027h9.88A.628.628,0,0,0,45,31.725a.651.651,0,0,0-.055-.629A.692.692,0,0,0,44.34,30.795Z" transform="translate(-30.656 -22.376)" fill="#0a4bff"/>
    </g>
  </g>
</svg>
