<svg xmlns="http://www.w3.org/2000/svg" width="30" height="27.498" viewBox="0 0 30 27.498">
  <g id="Group_3728" data-name="Group 3728" transform="translate(-1195.25 -771.355)">
    <g id="Group_3727" data-name="Group 3727" transform="translate(1200.318 771.355)" opacity="0.4">
      <path id="Path_3632" data-name="Path 3632" d="M35.6,12.095a3.427,3.427,0,0,0-3.428-3.428H14.095a3.427,3.427,0,0,0-3.428,3.428v.312H35.6Z" transform="translate(-10.667 -8.667)" fill="#fff"/>
      <path id="Path_3633" data-name="Path 3633" d="M10.667,11.333v2.493H27.184a5.927,5.927,0,0,1,5.922,5.922v3.927a3.428,3.428,0,0,0,2.493-3.3V11.335H10.667Z" transform="translate(-10.667 -6.348)" fill="#fff"/>
    </g>
    <path id="Path_3634" data-name="Path 3634" d="M29.5,14H11.428A3.431,3.431,0,0,0,8,17.428v10.6a3.431,3.431,0,0,0,3.428,3.428H29.5a3.431,3.431,0,0,0,3.428-3.428v-10.6A3.431,3.431,0,0,0,29.5,14ZM11.428,19.3A2.5,2.5,0,0,1,13.92,16.8h1.87A2.5,2.5,0,0,1,18.283,19.3v1.87A2.5,2.5,0,0,1,15.79,23.66H13.92a2.5,2.5,0,0,1-2.493-2.493Zm16.83,9.35H12.675a1.246,1.246,0,1,1,0-2.493H28.257a1.246,1.246,0,1,1,0,2.493Z" transform="translate(1187.25 767.402)" fill="#fff"/>
  </g>
</svg>
