<svg xmlns="http://www.w3.org/2000/svg" width="23.996" height="23.779" viewBox="0 0 23.996 23.779">
  <g id="Group_10918" data-name="Group 10918" transform="translate(-21003.551 6293.6)">
    <path id="Path_13965" data-name="Path 13965" d="M-376.8,83.271c-2.051-.008-4.234-.015-7.075-.015h-9.327a4.664,4.664,0,0,1-.805-.062A3.668,3.668,0,0,1-397,79.571V70.7a3.565,3.565,0,0,1,1.238-2.794l8.267-7.431a3.855,3.855,0,0,1,1.625-.867c.116-.031.24-.054.364-.085l.116-.023h.712a.579.579,0,0,0,.124.031,3.994,3.994,0,0,1,2.191,1.068c2.291,2.067,4.621,4.157,6.874,6.185l1.316,1.184a3.289,3.289,0,0,1,.952,1.432c.062.186.108.387.155.588.023.085.039.163.062.248v9.583l-.008.023a1.674,1.674,0,0,0-.039.209,3.707,3.707,0,0,1-3.731,3.228Zm-8.22-22.13a2.306,2.306,0,0,0-1.509.565c-.472.426-.944.844-1.417,1.269l-.116.108-.921.828c-.464.418-.937.836-1.4,1.262-1.471,1.316-2.988,2.678-4.474,4.025a1.594,1.594,0,0,0-.449.735,3.272,3.272,0,0,0-.116.913c-.008,2.508-.008,5.039,0,7.485v1.238a2.133,2.133,0,0,0,2.291,2.26h16.286a2.092,2.092,0,0,0,2.167-2.1c.008-3.088.008-6.138,0-8.987a2.322,2.322,0,0,0-.8-1.749c-1.06-.96-2.152-1.935-3.2-2.879l-.054-.054c-1.587-1.424-3.22-2.895-4.822-4.35A2.159,2.159,0,0,0-385.025,61.141Z" transform="translate(21400.551 -6353.1)" fill="#39b54a"/>
    <path id="Path_13966" data-name="Path 13966" d="M-350.4,115.159h-8.081a.891.891,0,0,1-1.014-1v-1.269c0-2.446,0-4.969.008-7.454a2.65,2.65,0,0,1,.039-.457.608.608,0,0,1,.194-.341c1.44-1.3,2.872-2.585,4.459-4.01l.9-.805.433-.387,1.029-.929c.472-.426.944-.851,1.417-1.269a1.027,1.027,0,0,1,.658-.24.873.873,0,0,1,.588.224c1.595,1.455,3.228,2.918,4.8,4.335l.023.015c1,.89,2.152,1.935,3.259,2.934a1.055,1.055,0,0,1,.387.828c.008,2.849.008,5.906,0,8.987a.828.828,0,0,1-.9.844h-3.553Z" transform="translate(21365.951 -6387.697)" fill="#39b54a" opacity="0.3"/>
    <g id="Group_10914" data-name="Group 10914" transform="translate(21013.143 -6275.302)">
      <circle id="Ellipse_489" data-name="Ellipse 489" cx="0.457" cy="0.457" r="0.457" transform="translate(0 0)" fill="#fff" opacity="0.4"/>
      <circle id="Ellipse_490" data-name="Ellipse 490" cx="0.457" cy="0.457" r="0.457" transform="translate(1.951 0)" fill="#fff"/>
      <circle id="Ellipse_491" data-name="Ellipse 491" cx="0.457" cy="0.457" r="0.457" transform="translate(3.901 0)" fill="#fff" opacity="0.4"/>
    </g>
    <g id="Group_10915" data-name="Group 10915" transform="translate(21008.088 -6281.719)">
      <path id="Path_13967" data-name="Path 13967" d="M-334.982,219.87a.416.416,0,0,1-.418-.418v-3.034a.416.416,0,0,1,.418-.418h3.034a.416.416,0,0,1,.418.418v3.034a.416.416,0,0,1-.418.418Z" transform="translate(335.632 -215.768)" fill="#ffa008"/>
      <path id="Path_13968" data-name="Path 13968" d="M-334.715,213.464a.188.188,0,0,1,.186.186v3.034a.188.188,0,0,1-.186.186h-3.034a.188.188,0,0,1-.186-.186V213.65a.188.188,0,0,1,.186-.186h3.034m0-.464h-3.034a.654.654,0,0,0-.65.65v3.034a.654.654,0,0,0,.65.65h3.034a.654.654,0,0,0,.65-.65V213.65a.654.654,0,0,0-.65-.65Z" transform="translate(338.4 -213)" fill="#fff"/>
    </g>
    <g id="Group_10916" data-name="Group 10916" transform="translate(21018.676 -6281.719)">
      <path id="Path_13969" data-name="Path 13969" d="M-198.182,219.87a.416.416,0,0,1-.418-.418v-3.034a.416.416,0,0,1,.418-.418h3.034a.416.416,0,0,1,.418.418v3.034a.416.416,0,0,1-.418.418Z" transform="translate(198.832 -215.768)" fill="#39b54a"/>
      <path id="Path_13970" data-name="Path 13970" d="M-197.915,213.464a.188.188,0,0,1,.186.186v3.034a.188.188,0,0,1-.186.186h-3.034a.188.188,0,0,1-.186-.186V213.65a.188.188,0,0,1,.186-.186h3.034m0-.464h-3.034a.654.654,0,0,0-.65.65v3.034a.654.654,0,0,0,.65.65h3.034a.654.654,0,0,0,.65-.65V213.65a.654.654,0,0,0-.65-.65Z" transform="translate(201.6 -213)" fill="#fff"/>
    </g>
    <g id="Group_10917" data-name="Group 10917" transform="translate(21013.383 -6281.719)">
      <path id="Path_13971" data-name="Path 13971" d="M-266.582,219.87a.416.416,0,0,1-.418-.418v-3.034a.416.416,0,0,1,.418-.418h3.034a.416.416,0,0,1,.418.418v3.034a.416.416,0,0,1-.418.418Z" transform="translate(267.232 -215.768)" fill="red"/>
      <path id="Path_13972" data-name="Path 13972" d="M-266.316,213.464a.188.188,0,0,1,.186.186v3.034a.188.188,0,0,1-.186.186h-3.034a.188.188,0,0,1-.186-.186V213.65a.188.188,0,0,1,.186-.186h3.034m0-.464h-3.034a.654.654,0,0,0-.65.65v3.034a.654.654,0,0,0,.65.65h3.034a.654.654,0,0,0,.65-.65V213.65a.654.654,0,0,0-.65-.65Z" transform="translate(270 -213)" fill="#fff"/>
    </g>
  </g>
</svg>
