<svg xmlns="http://www.w3.org/2000/svg" width="18" height="18" viewBox="0 0 18 18">
  <path id="Icon_awesome-pinterest" data-name="Icon awesome-pinterest" d="M18,9.281a9,9,0,0,1-11.664,8.6A10.117,10.117,0,0,0,7.454,15.52c.109-.421.559-2.141.559-2.141a2.41,2.41,0,0,0,2.061,1.034c2.715,0,4.671-2.5,4.671-5.6A5.282,5.282,0,0,0,9.2,3.616c-3.883,0-5.948,2.606-5.948,5.447a4.039,4.039,0,0,0,1.825,3.487c.171.08.261.044.3-.12.029-.123.181-.737.25-1.02a.269.269,0,0,0-.062-.258A3.544,3.544,0,0,1,4.9,9.1a3.9,3.9,0,0,1,4.065-3.9,3.553,3.553,0,0,1,3.76,3.662c0,2.435-1.23,4.123-2.831,4.123a1.305,1.305,0,0,1-1.332-1.626,18.085,18.085,0,0,0,.744-3,1.13,1.13,0,0,0-1.14-1.267c-.9,0-1.629.933-1.629,2.185A3.243,3.243,0,0,0,6.8,10.609s-.889,3.767-1.052,4.471a8.712,8.712,0,0,0-.033,2.584A9,9,0,1,1,18,9.281Z" transform="translate(0 -0.281)" fill="#bd081c"/>
</svg>
