<svg xmlns="http://www.w3.org/2000/svg" width="24" height="21.616" viewBox="0 0 24 21.616">
  <g id="Group_10920" data-name="Group 10920" transform="translate(-99 -154.7)">
    <g id="Group_10919" data-name="Group 10919" transform="translate(99 154.7)">
      <path id="Path_13973" data-name="Path 13973" d="M126.452,170.8h-9.878a.543.543,0,0,0-.574.505v5.651a.543.543,0,0,0,.574.505h9.878a.543.543,0,0,0,.574-.505v-5.651A.543.543,0,0,0,126.452,170.8Z" transform="translate(-112.095 -167.102)" fill="#965fff"/>
      <path id="Path_13974" data-name="Path 13974" d="M123.7,205.8h-7.121a.574.574,0,1,0,0,1.149H123.7a.574.574,0,1,0,0-1.149Z" transform="translate(-112.095 -194.062)" fill="#965fff"/>
      <path id="Path_13975" data-name="Path 13975" d="M120.939,214.8h-4.365a.574.574,0,1,0,0,1.149h4.365a.574.574,0,1,0,0-1.149Z" transform="translate(-112.095 -200.994)" fill="#965fff"/>
      <path id="Path_13976" data-name="Path 13976" d="M121.489,170.022c-.551.528-1.1,1.057-1.539,1.493a3.669,3.669,0,1,1-3.629-4.158h.046c.413-.391.942-.919,1.47-1.424v-8.614a2.668,2.668,0,0,0-2.711-2.619H101.711A2.668,2.668,0,0,0,99,157.319v13.622a2.668,2.668,0,0,0,2.711,2.619h9.969a5.284,5.284,0,0,0,9.924-2.527A4.865,4.865,0,0,0,121.489,170.022Zm-10.452,1.011a4.024,4.024,0,0,0,.092.919h-9.418a1.072,1.072,0,0,1-1.1-1.011V157.319a1.057,1.057,0,0,1,1.1-1.011h13.415a1.072,1.072,0,0,1,1.1,1.011v8.43A5.3,5.3,0,0,0,111.037,171.033Z" transform="translate(-99 -154.7)" fill="#965fff"/>
    </g>
    <path id="Path_13977" data-name="Path 13977" d="M171.962,204.016a.242.242,0,0,1-.23-.345c.161-.459.322-.919.482-1.355,0-.023.023-.046.023-.069a1.609,1.609,0,0,1,.528-.827c.9-.827,3.606-3.515,4.479-4.365a.287.287,0,0,1,.391-.046,4.223,4.223,0,0,1,1.309,1.24.241.241,0,0,1-.046.368c-.988.942-3.79,3.721-4.778,4.64a.37.37,0,0,1-.161.092c-.62.207-1.24.413-1.884.62A.148.148,0,0,1,171.962,204.016Zm1.93-1.516h-.046c-.138.023-.276.023-.413.046-.184.023-.276-.069-.276-.23a1.516,1.516,0,0,0-.023-.322h-.23c-.046,0-.069.023-.069.046l-.276.827c-.023.046,0,.069.023.092a2.073,2.073,0,0,0,.23.207.138.138,0,0,0,.092.023c.322-.092.62-.184.942-.276a.049.049,0,0,0,.046-.046Z" transform="translate(-56.009 -32.547)" fill="#f7931e"/>
  </g>
</svg>
