<svg xmlns="http://www.w3.org/2000/svg" width="24.004" height="16" viewBox="0 0 24.004 16">
  <g id="Group_10925" data-name="Group 10925" transform="translate(-828 -490)">
    <path id="Rectangle_1815" data-name="Rectangle 1815" d="M0,0H22a0,0,0,0,1,0,0V11a2,2,0,0,1-2,2H2a2,2,0,0,1-2-2V0A0,0,0,0,1,0,0Z" transform="translate(829 493)" fill="#a011f8"/>
    <g id="Group_10923" data-name="Group 10923">
      <rect id="Rectangle_1812" data-name="Rectangle 1812" width="5" height="6" rx="1" transform="translate(832 497)" fill="#fff"/>
      <rect id="Rectangle_1813" data-name="Rectangle 1813" width="5" height="6" rx="1" transform="translate(838 497)" fill="#fff"/>
      <rect id="Rectangle_1814" data-name="Rectangle 1814" width="5" height="6" rx="1" transform="translate(844 497)" fill="#fff"/>
      <path id="Path_26659" data-name="Path 26659" d="M31.332-1243.888a.426.426,0,0,1-.092.033l-.028.006a.526.526,0,0,1-.063.009l-.085.007a2.723,2.723,0,0,1-.282,0l-.052-.005a1.383,1.383,0,0,1-.173-.027l-.018,0-.028.012a.335.335,0,0,1-.048.017.1.1,0,0,0-.039.019.165.165,0,0,1-.035.02.772.772,0,0,0-.07.034l-.125.063a1.09,1.09,0,0,0-.192.115,1.25,1.25,0,0,0-.234.189.25.25,0,0,0-.044.058c0,.01-.024.075-.045.144-.048.167-.126.433-.137.473l-.016.055c0,.013-.017.062-.028.109a.531.531,0,0,1-.038.118.163.163,0,0,0-.019.055.076.076,0,0,1-.011.034c-.007.011-.007.013,0,.019a.013.013,0,0,0,.009.007.283.283,0,0,1,.041.014l.05.019.042.016a2.822,2.822,0,0,0,.4.134l.054.012a.02.02,0,0,0,.021,0c.01-.006.011-.008.011-.02s0-.02.02-.048a.168.168,0,0,1,.024-.035.042.042,0,0,1,0,.021.128.128,0,0,0,0,.024,1.213,1.213,0,0,1-.015.16.108.108,0,0,0-.008.03l-.015.085c-.016.09-.016.09-.021.122,0,.016-.006.039-.007.051s-.005.037-.007.057l-.015.12c-.01.082-.015.14-.024.285,0,.04-.007.092-.009.115s-.006.057-.007.075,0,.045-.007.06-.006.042-.009.06-.006.045-.009.06c-.005.032-.007.048-.009.072s-.007.2-.009.312c0,.063,0,.116,0,.117a.266.266,0,0,0,.048.089c.024.035.031.042.043.048s-.016.006.337.014c.174,0,.38,0,.5-.006l.192-.013c.083-.006.15-.012.276-.029l.247-.03a2.649,2.649,0,0,0,.337-.063c.021-.007.026-.012.02-.022a.158.158,0,0,1-.016-.048.025.025,0,0,0-.007-.015.106.106,0,0,1-.02-.051l-.009-.035a.349.349,0,0,1-.009-.045.774.774,0,0,0-.014-.084s0-.024-.009-.048c-.006-.04-.013-.077-.024-.146,0-.016-.006-.037-.007-.048-.012-.079-.015-.088-.037-.12l-.01-.015v-.072a.418.418,0,0,0-.005-.094.516.516,0,0,1-.008-.058c0-.02-.005-.048-.007-.063a1.1,1.1,0,0,1-.013-.112.908.908,0,0,1,0-.171l.006-.106c0-.034.005-.084.007-.115,0-.056.01-.282.01-.388,0-.054,0-.057.006-.057a.008.008,0,0,1,.007.005.229.229,0,0,0,.013.029.181.181,0,0,1,.012.034.207.207,0,0,0,.021.063l.007.011h.115l.037-.017.06-.018a.834.834,0,0,0,.082-.035l.13-.061c.038-.017.071-.033.072-.035l.028-.017.039-.022.024-.015a.031.031,0,0,0,.02-.036.1.1,0,0,0-.005-.024.084.084,0,0,1-.008-.031.037.037,0,0,0-.009-.021.125.125,0,0,1-.019-.052.051.051,0,0,0,0-.015.234.234,0,0,1-.009-.029c0-.011-.007-.027-.011-.037s-.011-.036-.028-.1c0-.015-.009-.032-.011-.039s-.006-.021-.009-.031a.214.214,0,0,0-.007-.024s-.006-.02-.01-.037a.344.344,0,0,0-.011-.037s-.013-.04-.025-.088a.32.32,0,0,0-.01-.033.317.317,0,0,1-.01-.034.312.312,0,0,0-.009-.033.3.3,0,0,1-.01-.031c-.019-.073-.027-.1-.029-.1a.232.232,0,0,1-.013-.06c0-.016,0-.031-.005-.033a.274.274,0,0,0-.024-.053.751.751,0,0,0-.069-.1.281.281,0,0,0-.054-.046l-.019-.012c-.009-.006-.043-.024-.074-.04l-.082-.042-.072-.04-.112-.063-.021-.012c-.016-.008-.031-.016-.056-.031a.114.114,0,0,0-.024-.011.007.007,0,0,1-.006,0,.8.8,0,0,0-.076-.043.151.151,0,0,1-.031-.024c-.013-.014-.021-.019-.029-.02a.116.116,0,0,1-.037-.021.2.2,0,0,0-.028-.019Z" transform="translate(803.583 1742.082)" fill="#eb09ae"/>
      <path id="Path_26660" data-name="Path 26660" d="M31.332-1243.888a.426.426,0,0,1-.092.033l-.028.006a.526.526,0,0,1-.063.009l-.085.007a2.723,2.723,0,0,1-.282,0l-.052-.005a1.383,1.383,0,0,1-.173-.027l-.018,0-.028.012a.335.335,0,0,1-.048.017.1.1,0,0,0-.039.019.165.165,0,0,1-.035.02.772.772,0,0,0-.07.034l-.125.063a1.09,1.09,0,0,0-.192.115,1.25,1.25,0,0,0-.234.189.25.25,0,0,0-.044.058c0,.01-.024.075-.045.144-.048.167-.126.433-.137.473l-.016.055c0,.013-.017.062-.028.109a.531.531,0,0,1-.038.118.163.163,0,0,0-.019.055.076.076,0,0,1-.011.034c-.007.011-.007.013,0,.019a.013.013,0,0,0,.009.007.283.283,0,0,1,.041.014l.05.019.042.016a2.822,2.822,0,0,0,.4.134l.054.012a.02.02,0,0,0,.021,0c.01-.006.011-.008.011-.02s0-.02.02-.048a.168.168,0,0,1,.024-.035.042.042,0,0,1,0,.021.128.128,0,0,0,0,.024,1.213,1.213,0,0,1-.015.16.108.108,0,0,0-.008.03l-.015.085c-.016.09-.016.09-.021.122,0,.016-.006.039-.007.051s-.005.037-.007.057l-.015.12c-.01.082-.015.14-.024.285,0,.04-.007.092-.009.115s-.006.057-.007.075,0,.045-.007.06-.006.042-.009.06-.006.045-.009.06c-.005.032-.007.048-.009.072s-.007.2-.009.312c0,.063,0,.116,0,.117a.266.266,0,0,0,.048.089c.024.035.031.042.043.048s-.016.006.337.014c.174,0,.38,0,.5-.006l.192-.013c.083-.006.15-.012.276-.029l.247-.03a2.649,2.649,0,0,0,.337-.063c.021-.007.026-.012.02-.022a.158.158,0,0,1-.016-.048.025.025,0,0,0-.007-.015.106.106,0,0,1-.02-.051l-.009-.035a.349.349,0,0,1-.009-.045.774.774,0,0,0-.014-.084s0-.024-.009-.048c-.006-.04-.013-.077-.024-.146,0-.016-.006-.037-.007-.048-.012-.079-.015-.088-.037-.12l-.01-.015v-.072a.418.418,0,0,0-.005-.094.516.516,0,0,1-.008-.058c0-.02-.005-.048-.007-.063a1.1,1.1,0,0,1-.013-.112.908.908,0,0,1,0-.171l.006-.106c0-.034.005-.084.007-.115,0-.056.01-.282.01-.388,0-.054,0-.057.006-.057a.008.008,0,0,1,.007.005.229.229,0,0,0,.013.029.181.181,0,0,1,.012.034.207.207,0,0,0,.021.063l.007.011h.115l.037-.017.06-.018a.834.834,0,0,0,.082-.035l.13-.061c.038-.017.071-.033.072-.035l.028-.017.039-.022.024-.015a.031.031,0,0,0,.02-.036.1.1,0,0,0-.005-.024.084.084,0,0,1-.008-.031.037.037,0,0,0-.009-.021.125.125,0,0,1-.019-.052.051.051,0,0,0,0-.015.234.234,0,0,1-.009-.029c0-.011-.007-.027-.011-.037s-.011-.036-.028-.1c0-.015-.009-.032-.011-.039s-.006-.021-.009-.031a.214.214,0,0,0-.007-.024s-.006-.02-.01-.037a.344.344,0,0,0-.011-.037s-.013-.04-.025-.088a.32.32,0,0,0-.01-.033.317.317,0,0,1-.01-.034.312.312,0,0,0-.009-.033.3.3,0,0,1-.01-.031c-.019-.073-.027-.1-.029-.1a.232.232,0,0,1-.013-.06c0-.016,0-.031-.005-.033a.274.274,0,0,0-.024-.053.751.751,0,0,0-.069-.1.281.281,0,0,0-.054-.046l-.019-.012c-.009-.006-.043-.024-.074-.04l-.082-.042-.072-.04-.112-.063-.021-.012c-.016-.008-.031-.016-.056-.031a.114.114,0,0,0-.024-.011.007.007,0,0,1-.006,0,.8.8,0,0,0-.076-.043.151.151,0,0,1-.031-.024c-.013-.014-.021-.019-.029-.02a.116.116,0,0,1-.037-.021.2.2,0,0,0-.028-.019Z" transform="translate(809.578 1742.082)" fill="#f17508"/>
      <path id="Path_26661" data-name="Path 26661" d="M31.332-1243.888a.426.426,0,0,1-.092.033l-.028.006a.526.526,0,0,1-.063.009l-.085.007a2.723,2.723,0,0,1-.282,0l-.052-.005a1.383,1.383,0,0,1-.173-.027l-.018,0-.028.012a.335.335,0,0,1-.048.017.1.1,0,0,0-.039.019.165.165,0,0,1-.035.02.772.772,0,0,0-.07.034l-.125.063a1.09,1.09,0,0,0-.192.115,1.25,1.25,0,0,0-.234.189.25.25,0,0,0-.044.058c0,.01-.024.075-.045.144-.048.167-.126.433-.137.473l-.016.055c0,.013-.017.062-.028.109a.531.531,0,0,1-.038.118.163.163,0,0,0-.019.055.076.076,0,0,1-.011.034c-.007.011-.007.013,0,.019a.013.013,0,0,0,.009.007.283.283,0,0,1,.041.014l.05.019.042.016a2.822,2.822,0,0,0,.4.134l.054.012a.02.02,0,0,0,.021,0c.01-.006.011-.008.011-.02s0-.02.02-.048a.168.168,0,0,1,.024-.035.042.042,0,0,1,0,.021.128.128,0,0,0,0,.024,1.213,1.213,0,0,1-.015.16.108.108,0,0,0-.008.03l-.015.085c-.016.09-.016.09-.021.122,0,.016-.006.039-.007.051s-.005.037-.007.057l-.015.12c-.01.082-.015.14-.024.285,0,.04-.007.092-.009.115s-.006.057-.007.075,0,.045-.007.06-.006.042-.009.06-.006.045-.009.06c-.005.032-.007.048-.009.072s-.007.2-.009.312c0,.063,0,.116,0,.117a.266.266,0,0,0,.048.089c.024.035.031.042.043.048s-.016.006.337.014c.174,0,.38,0,.5-.006l.192-.013c.083-.006.15-.012.276-.029l.247-.03a2.649,2.649,0,0,0,.337-.063c.021-.007.026-.012.02-.022a.158.158,0,0,1-.016-.048.025.025,0,0,0-.007-.015.106.106,0,0,1-.02-.051l-.009-.035a.349.349,0,0,1-.009-.045.774.774,0,0,0-.014-.084s0-.024-.009-.048c-.006-.04-.013-.077-.024-.146,0-.016-.006-.037-.007-.048-.012-.079-.015-.088-.037-.12l-.01-.015v-.072a.418.418,0,0,0-.005-.094.516.516,0,0,1-.008-.058c0-.02-.005-.048-.007-.063a1.1,1.1,0,0,1-.013-.112.908.908,0,0,1,0-.171l.006-.106c0-.034.005-.084.007-.115,0-.056.01-.282.01-.388,0-.054,0-.057.006-.057a.008.008,0,0,1,.007.005.229.229,0,0,0,.013.029.181.181,0,0,1,.012.034.207.207,0,0,0,.021.063l.007.011h.115l.037-.017.06-.018a.834.834,0,0,0,.082-.035l.13-.061c.038-.017.071-.033.072-.035l.028-.017.039-.022.024-.015a.031.031,0,0,0,.02-.036.1.1,0,0,0-.005-.024.084.084,0,0,1-.008-.031.037.037,0,0,0-.009-.021.125.125,0,0,1-.019-.052.051.051,0,0,0,0-.015.234.234,0,0,1-.009-.029c0-.011-.007-.027-.011-.037s-.011-.036-.028-.1c0-.015-.009-.032-.011-.039s-.006-.021-.009-.031a.214.214,0,0,0-.007-.024s-.006-.02-.01-.037a.344.344,0,0,0-.011-.037s-.013-.04-.025-.088a.32.32,0,0,0-.01-.033.317.317,0,0,1-.01-.034.312.312,0,0,0-.009-.033.3.3,0,0,1-.01-.031c-.019-.073-.027-.1-.029-.1a.232.232,0,0,1-.013-.06c0-.016,0-.031-.005-.033a.274.274,0,0,0-.024-.053.751.751,0,0,0-.069-.1.281.281,0,0,0-.054-.046l-.019-.012c-.009-.006-.043-.024-.074-.04l-.082-.042-.072-.04-.112-.063-.021-.012c-.016-.008-.031-.016-.056-.031a.114.114,0,0,0-.024-.011.007.007,0,0,1-.006,0,.8.8,0,0,0-.076-.043.151.151,0,0,1-.031-.024c-.013-.014-.021-.019-.029-.02a.116.116,0,0,1-.037-.021.2.2,0,0,0-.028-.019Z" transform="translate(815.578 1742.082)" fill="#347df6"/>
    </g>
    <g id="Group_10924" data-name="Group 10924">
      <g id="Group_16265" data-name="Group 16265" transform="translate(828 490.658)">
        <path id="Path_26625" data-name="Path 26625" d="M83.621,206.715l-.006,1.1a4.167,4.167,0,0,0,2.667,0h0V206.63Z" transform="translate(-83.615 -204.504)" fill="#d87c12"/>
        <path id="Path_26626" data-name="Path 26626" d="M193.338,206.63v1.184l-.031.011a4.066,4.066,0,0,1-2.6,0l-.031-.011V206.63" transform="translate(-185.337 -204.504)" fill="#d87c12"/>
        <path id="Path_26627" data-name="Path 26627" d="M300.394,206.63v1.183h0a4.167,4.167,0,0,1-2.667,0h0V206.63" transform="translate(-287.058 -204.504)" fill="#d87c12"/>
        <path id="Path_26628" data-name="Path 26628" d="M407.451,206.63v1.183h0a4.167,4.167,0,0,1-2.667,0h0V206.63" transform="translate(-388.781 -204.504)" fill="#d87c12"/>
        <path id="Path_26629" data-name="Path 26629" d="M514.507,206.708v1.1h0a4.167,4.167,0,0,1-2.667,0h0v-1.183" transform="translate(-490.503 -204.503)" fill="#d87c12"/>
        <path id="Path_26630" data-name="Path 26630" d="M139.81,206.63v1.183h0a4.167,4.167,0,0,1-2.667,0h0V206.63" transform="translate(-134.476 -204.504)" fill="#e9e4f2"/>
        <path id="Path_26631" data-name="Path 26631" d="M246.87,206.63v1.185h0a3.954,3.954,0,0,1-2.54.042l-.126-.042V206.63" transform="translate(-236.201 -204.504)" fill="#e9e4f2"/>
        <path id="Path_26632" data-name="Path 26632" d="M353.923,206.63v1.183h0a4.167,4.167,0,0,1-2.667,0h0V206.63" transform="translate(-337.92 -204.504)" fill="#e9e4f2"/>
        <path id="Path_26633" data-name="Path 26633" d="M460.979,206.63v1.183h0a4.167,4.167,0,0,1-2.667,0h0V206.63" transform="translate(-439.642 -204.504)" fill="#e9e4f2"/>
        <path id="Path_26634" data-name="Path 26634" d="M83.615,153.513l1.92-2.213h2.241l-1.493,2.212" transform="translate(-83.615 -151.3)" fill="#f80"/>
        <path id="Path_26635" data-name="Path 26635" d="M483.369,153.517l-1.493-2.212h2.241l1.92,2.212" transform="translate(-462.032 -151.304)" fill="#f80"/>
        <path id="Path_26636" data-name="Path 26636" d="M137.143,153.517l1.493-2.212h2.241l-1.066,2.212" transform="translate(-134.476 -151.304)" fill="#f2f0f7"/>
        <path id="Path_26637" data-name="Path 26637" d="M190.671,153.517l1.066-2.212h2.241l-.64,2.212" transform="translate(-185.337 -151.304)" fill="#f80"/>
        <path id="Path_26638" data-name="Path 26638" d="M244.2,153.517l.64-2.212h2.241l-.213,2.212" transform="translate(-236.199 -151.304)" fill="#f2f0f7"/>
        <path id="Path_26639" data-name="Path 26639" d="M297.727,153.517l.213-2.212h2.241l.213,2.212" transform="translate(-287.059 -151.304)" fill="#f80"/>
        <path id="Path_26640" data-name="Path 26640" d="M347.188,153.513l-.213-2.213h2.241l.64,2.212" transform="translate(-333.853 -151.3)" fill="#f2f0f7"/>
        <path id="Path_26641" data-name="Path 26641" d="M392.582,153.513l-.64-2.213h2.241l1.066,2.212" transform="translate(-376.579 -151.3)" fill="#f80"/>
        <path id="Path_26642" data-name="Path 26642" d="M437.975,153.513l-1.066-2.213h2.241l1.493,2.212" transform="translate(-419.305 -151.3)" fill="#f2f0f7"/>
      </g>
      <rect id="Rectangle_11655" data-name="Rectangle 11655" width="20.165" height="0.742" transform="translate(829.92 490)" fill="#d87c12"/>
    </g>
  </g>
</svg>
