<svg xmlns="http://www.w3.org/2000/svg" width="52" height="36" viewBox="0 0 52 36">
  <g id="Group_2932" data-name="Group 2932" transform="translate(52 36) rotate(180)" opacity="0.1">
    <path id="Path_1953" data-name="Path 1953" d="M315.781,119.466c-1.206.425-2.424.788-3.586,1.273-7.651,3.2-12.791,8.5-14.6,16.38-1.124,4.9-.641,9.628,2.887,13.681a12,12,0,0,0,8.494,4.539c4.084.245,7.337-1.227,9.471-4.607a6.955,6.955,0,0,0-.5-8.162,7.874,7.874,0,0,0-8.367-2.458c-.681.182-1.343.429-2.026.606-1.75.454-3.01-.175-3.451-1.879a11.206,11.206,0,0,1,.722-7.086,12.924,12.924,0,0,1,4.751-5.647c1.563-1.117,3.2-2.152,4.842-3.157C316.108,121.922,316.31,121.53,315.781,119.466Z" transform="translate(-267.539 -119.365)" fill="#834eff"/>
    <path id="Path_1954" data-name="Path 1954" d="M171.064,119.769a1.82,1.82,0,0,0-.467,0c-7.951,2.591-14.085,7.121-17.188,14.806a17.559,17.559,0,0,0-.945,10.616c1.14,5.083,5.611,9.516,10.573,10.322a9.843,9.843,0,0,0,9.352-2.959,7.282,7.282,0,0,0-4.094-12.207,14.9,14.9,0,0,0-4.179.3c-.594.069-1.157.352-1.749.469a2.3,2.3,0,0,1-3.047-1.782,10.734,10.734,0,0,1,.737-7.352,14.759,14.759,0,0,1,5.209-6.045,52.427,52.427,0,0,1,4.839-2.979c.754-.413,1.084-.843.972-1.655A11.454,11.454,0,0,1,171.064,119.769Z" transform="translate(-152.038 -119.756)" fill="#834eff"/>
  </g>
</svg>
