<svg xmlns="http://www.w3.org/2000/svg" width="30.333" height="21" viewBox="0 0 30.333 21"><g opacity="0.6"><path d="M307.98,119.466c-.7.248-1.414.46-2.092.743-4.463,1.866-7.461,4.958-8.515,9.555a8.557,8.557,0,0,0,1.684,7.98,7,7,0,0,0,4.955,2.648,5.694,5.694,0,0,0,5.525-2.687,4.057,4.057,0,0,0-.289-4.761,4.593,4.593,0,0,0-4.88-1.434c-.4.106-.784.25-1.182.353a1.466,1.466,0,0,1-2.013-1.1,6.537,6.537,0,0,1,.421-4.134,7.539,7.539,0,0,1,2.771-3.294c.912-.652,1.864-1.256,2.825-1.841C308.17,120.9,308.288,120.67,307.98,119.466Z" transform="translate(-279.839 -119.407)" fill="#4353ff"/><path d="M163.137,119.763a1.062,1.062,0,0,0-.272,0c-4.638,1.512-8.216,4.154-10.026,8.637a10.242,10.242,0,0,0-.551,6.193,8.034,8.034,0,0,0,6.167,6.021,5.742,5.742,0,0,0,5.456-1.726,4.248,4.248,0,0,0-2.388-7.12,8.691,8.691,0,0,0-2.438.178c-.346.04-.675.205-1.02.274a1.34,1.34,0,0,1-1.778-1.039,6.262,6.262,0,0,1,.43-4.288,8.61,8.61,0,0,1,3.038-3.526,30.58,30.58,0,0,1,2.823-1.738c.44-.241.632-.492.567-.966A6.68,6.68,0,0,1,163.137,119.763Z" transform="translate(-152.038 -119.756)" fill="#4353ff"/></g></svg>