<svg xmlns="http://www.w3.org/2000/svg" width="24" height="24" viewBox="0 0 24 24">
  <g id="Group_3986" data-name="Group 3986" transform="translate(-636 -209)">
    <path id="Path_4090" data-name="Path 4090" d="M29,11H28V9a1,1,0,0,0-1-1H26a1,1,0,0,0-1,1v2H15V9a1,1,0,0,0-1-1H13a1,1,0,0,0-1,1v2H11a3,3,0,0,0-3,3V29a3,3,0,0,0,3,3H29a3,3,0,0,0,3-3V14A3,3,0,0,0,29,11Zm0,19H11a1,1,0,0,1-1-1V17.041H30V29A1,1,0,0,1,29,30Z" transform="translate(628 201)" fill="#4353ff"/>
    <g id="Group_3985" data-name="Group 3985" transform="translate(643 221.999)" opacity="0.4">
      <path id="Path_4091" data-name="Path 4091" d="M13.417,23.583a.749.749,0,0,1-.489-1.319l3.5-3a.751.751,0,0,1,.9-.054l.989.658,2.816-2.816A.75.75,0,0,1,22.2,18.114l-3.25,3.25a.751.751,0,0,1-.947.095l-1.028-.686L13.9,23.4a.744.744,0,0,1-.486.178Z" transform="translate(-12.666 -16.582)" fill="#4353ff"/>
      <path id="Path_4092" data-name="Path 4092" d="M19.917,20.667a.756.756,0,0,1-.531-.219l-2.5-2.5a.75.75,0,0,1,.53-1.281h2.5a.75.75,0,0,1,.75.75v2.5a.752.752,0,0,1-.464.693A.717.717,0,0,1,19.917,20.667Z" transform="translate(-10.667 -16.666)" fill="#4353ff"/>
    </g>
  </g>
</svg>
