<svg xmlns="http://www.w3.org/2000/svg" width="45.593" height="50" viewBox="0 0 45.593 50">
  <g id="Group_5331" data-name="Group 5331" transform="translate(-1110.327 -187.304)">
    <path id="Path_6343" data-name="Path 6343" d="M1126.148,224.126a16.147,16.147,0,0,1,5.184-12.307,15.9,15.9,0,0,1,8.052-4.22,35.154,35.154,0,0,1,3.681-.368c.189-.017.38,0,.618,0v-.565q0-8.616,0-17.232c0-1.494-.637-2.127-2.143-2.127h-29.094c-1.467,0-2.1.639-2.1,2.116q0,22.8-.015,45.594a2.165,2.165,0,0,0,1.322,2.29h21.191a2.351,2.351,0,0,0-.252-.274A16.251,16.251,0,0,1,1126.148,224.126Zm-6.569-27.377a2.492,2.492,0,0,1,.857-.147q6-.015,12.007-.005a1.768,1.768,0,0,1,1.875,1.317,1.675,1.675,0,0,1-.831,1.948,2.462,2.462,0,0,1-1.027.23c-2.017.021-4.035.01-6.052.01v0c-2.066,0-4.133.011-6.2-.005a1.734,1.734,0,0,1-.63-3.345Zm-.979,10.308a1.658,1.658,0,0,1,1.363-1.116,2.414,2.414,0,0,1,.388-.036q6.075,0,12.15,0a1.758,1.758,0,0,1,1.785,1.175,1.721,1.721,0,0,1-1.643,2.3c-1.822.028-3.643.009-5.465.01-.244,0-.488,0-.732,0v0c-2.066,0-4.132.018-6.2-.006A1.717,1.717,0,0,1,1118.6,207.057Zm4.948,11.6c-1.166.06-2.34.059-3.506,0a1.676,1.676,0,0,1-1.553-1.749,1.723,1.723,0,0,1,1.677-1.691c.552-.024,1.1,0,1.658,0h0c.536,0,1.073-.021,1.608.005a1.709,1.709,0,0,1,1.646,1.669A1.668,1.668,0,0,1,1123.548,218.661Z" fill="#00b141"/>
    <path id="Path_6344" data-name="Path 6344" d="M1142.743,210.735a13.142,13.142,0,1,0,13.177,13.13A13.169,13.169,0,0,0,1142.743,210.735Zm-3.9,7.508a1.736,1.736,0,1,1-1.708,1.759A1.748,1.748,0,0,1,1138.845,218.243Zm7.849,11.267a1.739,1.739,0,1,1-.008-3.477,1.739,1.739,0,0,1,.008,3.477Zm1.156-8.257q-3.814,3.879-7.685,7.7a1.749,1.749,0,1,1-2.4-2.536q3.768-3.787,7.556-7.556a2.312,2.312,0,0,1,.3-.256,1.741,1.741,0,0,1,2.779,1.386l.121.068A5.1,5.1,0,0,1,1147.85,221.253Z" fill="#00b141"/>
  </g>
</svg>
