<svg xmlns="http://www.w3.org/2000/svg" width="17.053" height="18" viewBox="0 0 17.053 18">
  <path id="shopping-cart" d="M8.158,18.158a1.421,1.421,0,1,0,1.421,1.421A1.421,1.421,0,0,0,8.158,18.158Zm9.947-2.842H6.737a.947.947,0,0,1,0-1.895h8.044a2.855,2.855,0,0,0,2.733-2.061l1.5-5.257a.947.947,0,0,0-.911-1.208H6.49A2.848,2.848,0,0,0,3.82,3H2.947a.947.947,0,1,0,0,1.895H3.82a.952.952,0,0,1,.911.687l.147.516v0l1.554,5.44a2.842,2.842,0,0,0,.3,5.668H18.105a.947.947,0,1,0,0-1.895ZM16.849,6.789l-1.157,4.049a.952.952,0,0,1-.911.687H8.4l-.242-.845L7.046,6.789ZM15.737,18.158a1.421,1.421,0,1,0,1.421,1.421A1.421,1.421,0,0,0,15.737,18.158Z" transform="translate(-2 -3)" fill="#fff"/>
</svg>
