<svg xmlns="http://www.w3.org/2000/svg" width="50" height="49.964" viewBox="0 0 50 49.964">
  <path id="Path_6337" data-name="Path 6337" d="M799.036,217.861a15.716,15.716,0,0,0-31.072,4.258c.051.641.132,1.281.2,1.962h-.538q-6.464,0-12.927,0a3.417,3.417,0,0,1-3.719-3.725V192.086a3.4,3.4,0,0,1,3.681-3.7q9.155,0,18.309,0h.54a1.75,1.75,0,0,1,.043.25c0,2.1.014,4.192-.005,6.288a1.117,1.117,0,0,1-1.245,1.2c-1.727.008-3.454.005-5.181,0a1.188,1.188,0,0,1-1.356-1.355c0-1.24,0-2.481,0-3.722,0-.645-.286-.972-.824-.96-.516.011-.781.327-.782.951q0,1.861,0,3.722a2.8,2.8,0,0,0,3,2.978q2.465.006,4.929,0a2.814,2.814,0,0,0,3.088-3.087c0-1.878,0-3.756,0-5.634v-.568a.65.65,0,0,1,.15-.058c3.286,0,6.573-.031,9.858.012a3.194,3.194,0,0,1,3.035,2.5,6.8,6.8,0,0,1,.124,1.545c.01,3.437,0,6.874.008,10.312,0,.644.3,1,.81,1a.793.793,0,0,0,.8-.9c.005-3.722.053-7.445-.02-11.166a4.913,4.913,0,0,0-5.1-4.915q-15.165-.007-30.33,0a5.624,5.624,0,0,0-1.294.144,4.993,4.993,0,0,0-3.837,5.064q0,14.16,0,28.319a5.041,5.041,0,0,0,5.37,5.386q6.69,0,13.379-.006c.343,0,.525.069.651.433a15.716,15.716,0,0,0,30.263-8.256ZM783.647,228.7a7.636,7.636,0,1,1,7.678-7.663A7.666,7.666,0,0,1,783.647,228.7Z" transform="translate(-749.372 -186.77)" fill="#ff8f1e"/>
</svg>
