<svg xmlns="http://www.w3.org/2000/svg" width="34.963" height="46" viewBox="0 0 34.963 46">
  <g id="Group_5271" data-name="Group 5271" transform="translate(-142.247 -216.935)">
    <path id="Path_6122" data-name="Path 6122" d="M157.527,217.04c.764.174.376.086.759.166a13.431,13.431,0,0,1,8.646,5.623c3.192,4.627,6.349,9.278,9.544,13.9a3.723,3.723,0,1,1-6.112,4.242c-1.093-1.534-2.168-3.082-3.248-4.626-.147-.21-.267-.448-.593-.342s-.335.378-.334.656q0,2.583,0,5.166,0,8.557,0,17.115a4,4,0,0,1-.891,2.7,3.683,3.683,0,0,1-3.985,1.1,3.574,3.574,0,0,1-2.454-3.174c-.054-1.84-.026-3.683-.032-5.524,0-.851,0-1.7,0-2.612a3.724,3.724,0,0,1-5.315-1.959,3.755,3.755,0,0,1-5.759-3.5c-.151-.047-.253.068-.371.118a3.657,3.657,0,0,1-5.077-3.04c-.031-.342-.048-.687-.048-1.03,0-3.564.006-7.128-.009-10.691a15.093,15.093,0,0,1,.97-5.931,13.33,13.33,0,0,1,7.409-7.46,12.174,12.174,0,0,1,3.682-.908,4.772,4.772,0,0,1,.909-.1A18.332,18.332,0,0,1,157.527,217.04Zm-13.4,15.278c0,.075-.014.149-.014.224q0,5.032-.005,10.063a1.838,1.838,0,1,0,3.674.053c.019-.868,0-1.737.007-2.605a.91.91,0,0,1,.912-1c.542,0,.888.38.913,1,0,.12,0,.24,0,.359q0,2.853,0,5.705a2.44,2.44,0,0,0,.184,1.052,1.857,1.857,0,0,0,2,1.033,1.8,1.8,0,0,0,1.475-1.739c.02-2.051.008-4.1.015-6.154a2.315,2.315,0,0,1,.07-.62.837.837,0,0,1,.824-.639.886.886,0,0,1,.89.617,2.109,2.109,0,0,1,.073.666c0,2.621-.01,5.241,0,7.862a1.814,1.814,0,0,0,2.226,1.825,1.884,1.884,0,0,0,1.445-2q.006-3.841,0-7.682a3.916,3.916,0,0,1,.018-.493.9.9,0,0,1,1.788-.026,3.732,3.732,0,0,1,.021.538q0,9.277,0,18.554a3.889,3.889,0,0,0,.062.758A1.78,1.78,0,0,0,162.4,261.1a1.827,1.827,0,0,0,1.839-1.227,2.768,2.768,0,0,0,.1-.932q0-11.051,0-22.1a4.679,4.679,0,0,1,.05-.76,2.275,2.275,0,0,1,1.716-1.868,2.218,2.218,0,0,1,2.4.917c1.1,1.55,2.186,3.108,3.281,4.661a4.559,4.559,0,0,0,.417.528,1.771,1.771,0,0,0,2.1.349,1.841,1.841,0,0,0,.64-2.9q-4.739-6.921-9.482-13.838a10.765,10.765,0,0,0-2-2.231,11.627,11.627,0,0,0-9.471-2.749,11.264,11.264,0,0,0-8.6,6.139A13.332,13.332,0,0,0,144.128,232.319Z" transform="translate(0 0)" fill="#030302"/>
    <path id="Path_6123" data-name="Path 6123" d="M188.962,284.319a1.771,1.771,0,0,1-2.1-.349,4.564,4.564,0,0,1-.417-.528c-1.095-1.553-2.183-3.111-3.281-4.661a2.218,2.218,0,0,0-2.4-.917,2.275,2.275,0,0,0-1.716,1.868,4.676,4.676,0,0,0-.05.76q0,11.051,0,22.1a2.768,2.768,0,0,1-.1.932,1.827,1.827,0,0,1-1.839,1.227,1.781,1.781,0,0,1-1.677-1.431,3.887,3.887,0,0,1-.062-.758q0-9.277,0-18.554a3.74,3.74,0,0,0-.021-.538.9.9,0,0,0-1.788.026,3.91,3.91,0,0,0-.018.493q0,3.841,0,7.682a1.885,1.885,0,0,1-1.445,2,1.814,1.814,0,0,1-2.226-1.825c-.014-2.621-.006-5.241,0-7.862a2.109,2.109,0,0,0-.073-.666.886.886,0,0,0-.89-.617.837.837,0,0,0-.824.639,2.315,2.315,0,0,0-.07.62c-.007,2.051.005,4.1-.015,6.154a1.8,1.8,0,0,1-1.475,1.739,1.857,1.857,0,0,1-2-1.033,2.441,2.441,0,0,1-.184-1.052q0-2.853,0-5.705c0-.12,0-.24,0-.359-.025-.624-.371-1-.913-1a.91.91,0,0,0-.912,1c-.011.868.012,1.737-.007,2.605a1.838,1.838,0,1,1-3.674-.053q-.006-5.032.005-10.063c0-.075.009-.149.014-.224.3-.1.131-.359.174-.541a11.774,11.774,0,0,1,8-8.8,11.323,11.323,0,0,1,4.672-.427,11.873,11.873,0,0,1,3.64,1.018,10.809,10.809,0,0,1,4.395,3.427c1.719,2.38,3.337,4.834,5,7.254q2.039,2.968,4.08,5.934C188.854,283.981,189,284.114,188.962,284.319Z" transform="translate(-14.665 -43.657)" fill="#fdcb00"/>
    <path id="Path_6124" data-name="Path 6124" d="M188.83,255.386c.039-.205-.108-.338-.205-.48q-2.035-2.97-4.08-5.934c-1.663-2.421-3.28-4.875-5-7.254a10.81,10.81,0,0,0-4.395-3.427,11.873,11.873,0,0,0-3.64-1.018,11.322,11.322,0,0,0-4.672.427,11.774,11.774,0,0,0-8,8.8c-.044.182.123.44-.174.541a13.332,13.332,0,0,1,1.259-7.237,11.264,11.264,0,0,1,8.6-6.139,11.627,11.627,0,0,1,9.471,2.749,10.766,10.766,0,0,1,2,2.231q4.735,6.923,9.482,13.838A1.841,1.841,0,0,1,188.83,255.386Z" transform="translate(-14.532 -14.723)" fill="#deb200"/>
  </g>
</svg>
