<svg xmlns="http://www.w3.org/2000/svg" width="33.999" height="31.165" viewBox="0 0 33.999 31.165">
  <g id="Group_3539" data-name="Group 3539" transform="translate(-964 -1294.835)">
    <g id="Group_2628" data-name="Group 2628" transform="translate(964 1292)" opacity="0.4">
      <path id="Path_2493" data-name="Path 2493" d="M156.333,153.239a3.9,3.9,0,0,0-3.9-3.9H131.895a3.9,3.9,0,0,0-3.9,3.9v4.6h28.333Zm0,0" transform="translate(-128 -146.509)" fill="#fff"/>
      <path id="Path_2496" data-name="Path 2496" d="M139.333,201.163H132.25a4.254,4.254,0,0,1-4.25-4.25V182.745a1.416,1.416,0,1,1,2.833,0v14.167a1.419,1.419,0,0,0,1.417,1.417h7.083a1.416,1.416,0,1,1,0,2.833Zm0,0" transform="translate(-128 -174.245)" fill="#fff"/>
      <path id="Path_2497" data-name="Path 2497" d="M321.417,187A1.417,1.417,0,0,1,320,185.578v-2.833a1.417,1.417,0,0,1,2.835,0v2.833A1.42,1.42,0,0,1,321.417,187Zm0,0" transform="translate(-294.5 -174.245)" fill="#fff"/>
    </g>
    <path id="Subtraction_4" data-name="Subtraction 4" d="M4749.5,7459a9.5,9.5,0,1,1,9.5-9.5A9.511,9.511,0,0,1,4749.5,7459Zm-2.834-5.49h0a4.736,4.736,0,0,0,7-1.55.9.9,0,0,0-.361-1.219.91.91,0,0,0-.429-.108.9.9,0,0,0-.792.472,2.9,2.9,0,0,1-4.109,1.1l.427-.427a.676.676,0,0,0-.475-1.153h-2.25a.676.676,0,0,0-.674.676v2.25a.672.672,0,0,0,.416.621.655.655,0,0,0,.258.053.681.681,0,0,0,.479-.2l.512-.514Zm2.833-6.711a2.934,2.934,0,0,1,1.525.444l-.427.428a.674.674,0,0,0,.478,1.151h2.25a.675.675,0,0,0,.674-.674V7445.9a.677.677,0,0,0-.677-.675.672.672,0,0,0-.476.2l-.515.517a4.73,4.73,0,0,0-7,1.562.9.9,0,0,0,1.583.85A2.931,2.931,0,0,1,4749.5,7446.8Z" transform="translate(-3761 -6133)" fill="#fff"/>
  </g>
</svg>
