<svg xmlns="http://www.w3.org/2000/svg" width="24" height="23.417" viewBox="0 0 24 23.417">
  <g id="Table_Rate_Shipping" data-name="Table Rate Shipping" transform="translate(-32.1 -226.3)">
    <path id="Path_13978" data-name="Path 13978" d="M269.084,375.794a2.344,2.344,0,0,0-2.25-1.694H261.8v9.129h1.084a3.491,3.491,0,0,1,6.1,0h1.063v-4.109Zm-6.146,3.285v-3.834h3.889a1.212,1.212,0,0,1,1.152.864l.857,2.963h-5.9Z" transform="translate(-213.945 -137.662)" fill="#f24452"/>
    <path id="Path_13979" data-name="Path 13979" d="M288.735,496.7a2.435,2.435,0,1,0,2.435,2.435A2.435,2.435,0,0,0,288.735,496.7Zm.007,3.409a.981.981,0,1,1,.981-.981A.981.981,0,0,1,288.742,500.109Z" transform="translate(-236.764 -251.853)" fill="#1b2d3d"/>
    <path id="Path_13980" data-name="Path 13980" d="M80.535,496.7a2.435,2.435,0,1,0,2.435,2.435A2.436,2.436,0,0,0,80.535,496.7Zm0,3.409a.981.981,0,1,1,.981-.981A.981.981,0,0,1,80.535,500.109Z" transform="translate(-42.845 -251.853)" fill="#1b2d3d"/>
    <circle id="Ellipse_492" data-name="Ellipse 492" cx="4.863" cy="4.863" r="4.863" transform="translate(35.091 226.3)" fill="#00d87b"/>
    <path id="Path_13981" data-name="Path 13981" d="M46.326,307.3h-.432a5.98,5.98,0,0,1-11.88,0h-.391a1.519,1.519,0,0,0-1.523,1.523v12.188h2.545a3.491,3.491,0,0,1,6.1,0h7.106V308.83A1.53,1.53,0,0,0,46.326,307.3Z" transform="translate(0 -75.444)" fill="#ff8c3e"/>
    <g id="Group_10921" data-name="Group 10921" transform="translate(37.808 228.529)">
      <path id="Path_13982" data-name="Path 13982" d="M119.535,265.589a.3.3,0,0,0-.213-.089.285.285,0,0,0-.213.089l-1.859,1.859h0l-1.838,1.838a.311.311,0,0,0,0,.432.3.3,0,0,0,.213.089.285.285,0,0,0,.213-.089l3.7-3.7A.311.311,0,0,0,119.535,265.589Z" transform="translate(-115.325 -265.04)" fill="#fff"/>
      <path id="Path_13983" data-name="Path 13983" d="M117.512,260.625a.912.912,0,0,0,.645-1.557h0a.914.914,0,0,0-.645-.268.9.9,0,0,0-.645.268.914.914,0,0,0-.267.645.913.913,0,0,0,.912.912ZM117.3,259.5a.314.314,0,0,1,.213-.089.3.3,0,0,1,.213.089h0a.313.313,0,0,1,.089.213.3.3,0,0,1-.089.213.305.305,0,0,1-.521-.213A.34.34,0,0,1,117.3,259.5Z" transform="translate(-116.513 -258.8)" fill="#fff"/>
      <path id="Path_13984" data-name="Path 13984" d="M150.757,309.368h0a.914.914,0,0,0-.645-.268.9.9,0,0,0-.645.268.914.914,0,0,0-.268.645.9.9,0,0,0,.268.645.914.914,0,0,0,.645.268.9.9,0,0,0,.645-.268.914.914,0,0,0,.268-.645A.9.9,0,0,0,150.757,309.368Zm-.432.857a.305.305,0,0,1-.521-.213.3.3,0,0,1,.089-.213.314.314,0,0,1,.213-.089.3.3,0,0,1,.213.089h0a.314.314,0,0,1,.089.213A.248.248,0,0,1,150.325,310.225Z" transform="translate(-146.877 -305.65)" fill="#fff"/>
    </g>
  </g>
</svg>
