<svg xmlns="http://www.w3.org/2000/svg" width="44.687" height="50" viewBox="0 0 44.687 50">
  <g id="Group_5332" data-name="Group 5332" transform="translate(-751.646 -186.51)">
    <path id="Path_6345" data-name="Path 6345" d="M763.372,192.666v.6a1.994,1.994,0,0,1,2.929-.065c0-1.687-.034-3.246.013-4.8a1.753,1.753,0,0,0-1.111-1.893h-.684a1.721,1.721,0,0,0-1.156,1.867C763.4,189.806,763.372,191.236,763.372,192.666Z" fill="#ff8f1e"/>
    <path id="Path_6346" data-name="Path 6346" d="M775.121,198.324q-4.2-2.435-8.384-4.887c-.119-.069-.248-.121-.436-.212v.591c0,1.5,0,2.994,0,4.492a1.465,1.465,0,1,1-2.925.034c-.023-1.513-.006-3.027-.006-4.54v-.578c-.156.075-.243.11-.324.157-2.935,1.712-5.883,3.4-8.8,5.148a5.1,5.1,0,0,0-2.586,4.59q-.033,13.963,0,27.927a5.345,5.345,0,0,0,5.533,5.459q7.665.01,15.331,0a5.9,5.9,0,0,0,1.352-.149,5.341,5.341,0,0,0,4.14-5.486q0-13.743.006-27.488A5.452,5.452,0,0,0,775.121,198.324Zm-5.975,27.014a5.668,5.668,0,0,1-2.529,1.591c-.313.093-.476.212-.427.562a4.1,4.1,0,0,1,0,.683,1.456,1.456,0,0,1-1.421,1.5,1.488,1.488,0,0,1-1.5-1.477c-.015-.32,0-.642,0-1a7.592,7.592,0,0,1-3.7-1.362,1.456,1.456,0,0,1-.607-1.786,1.415,1.415,0,0,1,1.56-.9,4.412,4.412,0,0,1,.927.4l1.817.822c0-2.313.005-4.409-.013-6.5,0-.128-.166-.293-.3-.373-.4-.244-.826-.45-1.237-.679a4.655,4.655,0,0,1-1.91-6.161,4.858,4.858,0,0,1,3.074-2.795.465.465,0,0,0,.392-.545,3.643,3.643,0,0,1,.082-1.013,1.432,1.432,0,0,1,1.523-1.034,1.451,1.451,0,0,1,1.307,1.354c.019.3,0,.613,0,.934a5.4,5.4,0,0,1,2.815,1.331,2.227,2.227,0,0,1,.579.976,1.361,1.361,0,0,1-.717,1.518,1.534,1.534,0,0,1-1.687-.2c-.272-.217-.566-.4-.938-.669-.023.263-.045.4-.045.532,0,1.4.01,2.8-.01,4.2a.508.508,0,0,0,.414.587,6.4,6.4,0,0,1,2.751,1.6A5.765,5.765,0,0,1,769.146,225.338Z" fill="#ff8f1e"/>
    <path id="Path_6347" data-name="Path 6347" d="M795.556,219.513q-6.959-12.114-13.971-24.2a5.152,5.152,0,0,0-4.578-2.687c-1.838-.044-3.677-.033-5.515-.045a2.752,2.752,0,0,0-.3.041c.218.137.351.227.489.307,1.586.925,3.169,1.856,4.762,2.771a8.428,8.428,0,0,1,4.511,7.857c-.023,8.575-.009,17.15-.006,25.726a11.179,11.179,0,0,1-.786,5.351c.18-.068.228-.079.27-.1,4.392-2.535,8.8-5.048,13.169-7.618A5.286,5.286,0,0,0,795.556,219.513Z" fill="#ff8f1e"/>
    <path id="Path_6348" data-name="Path 6348" d="M766.221,218.869V223.9a3.1,3.1,0,0,0,1.649-3.022A2.224,2.224,0,0,0,766.221,218.869Z" fill="#ff8f1e"/>
    <path id="Path_6349" data-name="Path 6349" d="M763.266,214.288V210.9C761.963,211.933,761.967,213.572,763.266,214.288Z" fill="#ff8f1e"/>
  </g>
</svg>
