<svg xmlns="http://www.w3.org/2000/svg" width="24" height="23.447" viewBox="0 0 24 23.447"><g transform="translate(-513 -82)"><g transform="translate(513 82)" opacity="0.3"><path d="M514.63,378.586a1,1,0,0,1-.669-.255,2.87,2.87,0,0,1-.961-2.145v-1.571a1.006,1.006,0,1,1,2.011,0v1.571a.861.861,0,0,0,.289.644l0,0h0a1.006,1.006,0,0,1-.675,1.752Z" transform="translate(-513 -359.012)" fill="#ff346b"/><path d="M514.006,253.666A1.007,1.007,0,0,1,513,252.661v-3.145a1.006,1.006,0,1,1,2.011,0v3.145A1.007,1.007,0,0,1,514.006,253.666Z" transform="translate(-513 -240.175)" fill="#ff346b"/><path d="M514.006,128.556A1.007,1.007,0,0,1,513,127.551v-3.146a1.006,1.006,0,1,1,2.011,0v3.146A1.006,1.006,0,0,1,514.006,128.556Z" transform="translate(-513 -121.318)" fill="#ff346b"/><path d="M804.314,84.482a1,1,0,0,1-.668-.254.856.856,0,0,0-.572-.217h-1.788a1.006,1.006,0,0,1,0-2.011h1.791a2.859,2.859,0,0,1,1.906.725,1.006,1.006,0,0,1-.668,1.757Z" transform="translate(-785.899 -82)" fill="#ff346b"/><path d="M679.331,84.011h-3.145a1.006,1.006,0,1,1,0-2.011h3.145a1.006,1.006,0,0,1,0,2.011Z" transform="translate(-667.061 -82)" fill="#ff346b"/><path d="M554.221,84.011h-3.145a1.006,1.006,0,0,1,0-2.011h3.147a1.005,1.005,0,0,1,1.006.979v.026A1.007,1.007,0,0,1,554.221,84.011Z" transform="translate(-548.206 -82)" fill="#ff346b"/></g><path d="M665.473,235.109l-4.085-4.085L657.3,235.11l1.973,1.973-6.029,0c0-1.961,0-3.986,0-6l1.97,1.97,4.094-4.094-4.079-4.079-1.992,1.992q0-3.055,0-6.067l6.038,0-1.993,1.993,4.092,4.092,4.082-4.082-1.974-1.975,6.032,0v6l-1.972-1.972-4.094,4.094,4.079,4.079,1.989-1.989v6.055h-6.04Z" transform="translate(-132.517 -131.659)" fill="#ff346b"/></g></svg>