<svg xmlns="http://www.w3.org/2000/svg" width="34" height="31.165" viewBox="0 0 34 31.165">
  <g id="Group_3536" data-name="Group 3536" transform="translate(-446 -1036)">
    <g id="Group_3534" data-name="Group 3534">
      <path id="Path_3499" data-name="Path 3499" d="M262.462,160H248.687a9.823,9.823,0,0,1,0,8.533h13.775a4.267,4.267,0,0,0,0-8.533Zm0,0" transform="translate(213.271 878.844)" fill="#fff"/>
      <path id="Path_3500" data-name="Path 3500" d="M142.22,145.782a7.11,7.11,0,1,1-7.11-7.11A7.11,7.11,0,0,1,142.22,145.782Zm0,0" transform="translate(318 897.328)" fill="#fff"/>
    </g>
    <g id="Group_3535" data-name="Group 3535" opacity="0.4">
      <path id="Path_3501" data-name="Path 3501" d="M145.066,292.267a9.868,9.868,0,0,1,.975-4.267H132.266a4.267,4.267,0,1,0,0,8.533h13.775A9.868,9.868,0,0,1,145.066,292.267Zm0,0" transform="translate(318 767.789)" fill="#fff"/>
      <path id="Path_3502" data-name="Path 3502" d="M291.564,273.782a7.11,7.11,0,1,1-7.11-7.11A7.11,7.11,0,0,1,291.564,273.782Zm0,0" transform="translate(188.436 786.272)" fill="#fff"/>
    </g>
  </g>
</svg>
