<svg xmlns="http://www.w3.org/2000/svg" width="40" height="40.002" viewBox="0 0 40 40.002">
  <path id="Union_26" data-name="Union 26" d="M11664.581,5951a1.249,1.249,0,0,1-1.244-1.251v-.834a4.593,4.593,0,0,1,4.579-4.585h7.5a4.593,4.593,0,0,1,4.579,4.585v.834a1.244,1.244,0,0,1-1.243,1.251Zm-23.333,0a1.255,1.255,0,0,1-1.25-1.251v-.834a4.6,4.6,0,0,1,4.586-4.585h7.5a4.592,4.592,0,0,1,4.585,4.585v.834a1.248,1.248,0,0,1-1.25,1.251Zm17.014-3.4a1.25,1.25,0,0,1,.255-2.486,14.755,14.755,0,0,0,3.065-.014,1.253,1.253,0,0,1,1.376,1.112,1.239,1.239,0,0,1-1.1,1.373,17.269,17.269,0,0,1-1.857.1A17,17,0,0,1,11658.262,5947.6Zm9.236-9.1a4.169,4.169,0,1,1,4.168,4.162A4.167,4.167,0,0,1,11667.5,5938.5Zm-23.332,0a4.166,4.166,0,1,1,4.165,4.162A4.167,4.167,0,0,1,11644.166,5938.5Zm30-7.48a14.227,14.227,0,0,0-8.2-12.855,1.246,1.246,0,0,1-.61-1.66,1.259,1.259,0,0,1,1.661-.608,16.743,16.743,0,0,1,9.646,15.124,1.25,1.25,0,0,1-2.5,0Zm-30.835,0a16.74,16.74,0,0,1,9.648-15.124,1.25,1.25,0,0,1,1.052,2.269,14.22,14.22,0,0,0-8.207,12.855,1.247,1.247,0,1,1-2.493,0Zm9.582-3.349a1.256,1.256,0,0,1-1.25-1.259v-.826a4.585,4.585,0,0,1,4.585-4.584h7.5a4.588,4.588,0,0,1,4.585,4.584v.826a1.254,1.254,0,0,1-1.25,1.259Zm2.918-12.506a4.169,4.169,0,1,1,4.167,4.169A4.167,4.167,0,0,1,11655.834,5915.167Z" transform="translate(-11639.998 -5910.999)" fill="#ff346b"/>
</svg>
