<svg xmlns="http://www.w3.org/2000/svg" width="30" height="29.801" viewBox="0 0 30 29.801">
  <g id="Group_3689" data-name="Group 3689" transform="translate(-926.508 -722.724)">
    <path id="Union_15" data-name="Union 15" d="M.9,25.377a.894.894,0,0,1-.9-.885V19.77a5.669,5.669,0,0,1,5.715-5.607H16.542a5.741,5.741,0,0,1,4.754,2.5,3.277,3.277,0,0,0-1.971,1.62,3.345,3.345,0,0,0-4.094.249L12.218,21.2a3.175,3.175,0,0,0-.539,4.182ZM4.812,5.9a6.016,6.016,0,0,1,12.029,0,6.016,6.016,0,0,1-12.029,0Z" transform="translate(926.508 722.724)" fill="#929bb1" opacity="0.4"/>
    <g id="Group_3688" data-name="Group 3688" transform="translate(939.479 742.044)">
      <path id="Path_3616" data-name="Path 3616" d="M19.428,29.121a.983.983,0,0,1-.737-1.179l1.965-8.514a.983.983,0,0,1,1.916.444l-1.965,8.514A.982.982,0,0,1,19.428,29.121Z" transform="translate(-12.117 -18.666)" fill="#929bb1"/>
      <path id="Path_3617" data-name="Path 3617" d="M22.316,27.191a.982.982,0,0,1-.658-1.711l2.464-2.216-2.464-2.216a.982.982,0,1,1,1.314-1.46l3.275,2.947a.972.972,0,0,1,.326.727.985.985,0,0,1-.324.731l-3.275,2.947A.98.98,0,0,1,22.316,27.191Z" transform="translate(-9.544 -18.021)" fill="#929bb1"/>
      <path id="Path_3618" data-name="Path 3618" d="M19.591,27.192a.984.984,0,0,1-.658-.252l-3.275-2.947a.986.986,0,0,1,0-1.462l3.275-2.947a.982.982,0,0,1,1.314,1.46L17.783,23.26l2.464,2.216a.982.982,0,0,1,.073,1.387A.968.968,0,0,1,19.591,27.192Z" transform="translate(-15.333 -18.022)" fill="#929bb1"/>
    </g>
  </g>
</svg>
