<svg xmlns="http://www.w3.org/2000/svg" width="50.002" height="48.79" viewBox="0 0 50.002 48.79">
  <g id="Group_5327" data-name="Group 5327" transform="translate(-438.873 -920.809)">
    <path id="Path_6319" data-name="Path 6319" d="M30.831,0H3.155A3.137,3.137,0,0,0,0,3.132v10.44A3.149,3.149,0,0,0,3.169,16.7H16.277L22.268,20l-1.362-3.3h9.925A3.149,3.149,0,0,0,34,13.571V3.132A3.149,3.149,0,0,0,30.831,0ZM2.572,2.418a1.123,1.123,0,0,0-.876.426,1.216,1.216,0,0,0-.222.92A58.914,58.914,0,0,0,3.767,14.19c.278.659.6.975.973.948.584-.041,1.279-.838,2.1-2.39q.646-1.319,2-3.956a13.547,13.547,0,0,0,3.072,5.852,1.4,1.4,0,0,0,1.1.508.9.9,0,0,0,.737-.495,1.613,1.613,0,0,0,.167-.907A25.286,25.286,0,0,1,14.3,8.516a16.478,16.478,0,0,1,1.348-4.959,1.181,1.181,0,0,0,.139-.659,1.073,1.073,0,0,0-.431-.783,1.217,1.217,0,0,0-.876-.275,1.068,1.068,0,0,0-.917.6Q12.274,4.773,11.732,10a25.42,25.42,0,0,1-1.321-4.7c-.153-.81-.528-1.2-1.14-1.154a1.317,1.317,0,0,0-1.043.824L5.185,10.7q-.751-2.988-1.4-7.294A1.012,1.012,0,0,0,2.572,2.418Zm26.786.989A3.2,3.2,0,0,1,31.581,5a5.148,5.148,0,0,1,.667,2.706,7.3,7.3,0,0,1-1.084,3.887,3.6,3.6,0,0,1-4.017,1.978,3.2,3.2,0,0,1-2.224-1.593,5.269,5.269,0,0,1-.667-2.72A7.214,7.214,0,0,1,25.34,5.385a3.753,3.753,0,0,1,3.267-2.06A3.69,3.69,0,0,1,29.357,3.407Zm-.584,7.431A3.62,3.62,0,0,0,29.83,8.8a5.87,5.87,0,0,0,.1-1.016,3.45,3.45,0,0,0-.25-1.25c-.208-.536-.487-.824-.82-.893-.5-.1-.987.179-1.446.852a4.416,4.416,0,0,0-.737,1.635,4.719,4.719,0,0,0-.1,1,3.45,3.45,0,0,0,.25,1.25c.209.536.487.824.82.893A1.345,1.345,0,0,0,28.774,10.838ZM22.866,5a3.228,3.228,0,0,0-2.224-1.593,3.691,3.691,0,0,0-.751-.082,3.753,3.753,0,0,0-3.266,2.06,7.214,7.214,0,0,0-1.084,3.874,5.269,5.269,0,0,0,.667,2.72,3.2,3.2,0,0,0,2.224,1.593,3.6,3.6,0,0,0,4.017-1.978,7.3,7.3,0,0,0,1.084-3.887A5.149,5.149,0,0,0,22.866,5ZM21.115,8.8a3.62,3.62,0,0,1-1.056,2.033,1.345,1.345,0,0,1-1.126.44c-.334-.069-.612-.357-.82-.893a3.45,3.45,0,0,1-.25-1.25,4.719,4.719,0,0,1,.1-1A4.415,4.415,0,0,1,18.7,6.5c.459-.673.945-.948,1.446-.852.334.069.612.357.82.893a3.45,3.45,0,0,1,.25,1.25A4.761,4.761,0,0,1,21.115,8.8Z" transform="translate(444.873 920.809)" fill="#7e43c7" fill-rule="evenodd"/>
    <g id="Group_5326" data-name="Group 5326" transform="translate(23.712 775.38)">
      <path id="Path_6320" data-name="Path 6320" d="M456.857,226.521h-.015v.016h.015Z" transform="translate(-34.619 -49.911)" fill="#00b141"/>
      <path id="Path_6321" data-name="Path 6321" d="M456.857,261.153h-.015v.016h.015Z" transform="translate(-34.619 -78.675)" fill="#00b141"/>
      <path id="Path_6322" data-name="Path 6322" d="M499.812,182.305a5.625,5.625,0,0,0-3.663-5.478c-1.082-.447-2.174-.873-3.248-1.34a1.111,1.111,0,0,1-.521-.509c-.983-2.144-1.961-4.291-2.9-6.455a3.2,3.2,0,0,0-3.244-2.094c-6.8.021-13.59.009-20.385.009-2.477,0-4.954-.005-7.431,0a1.454,1.454,0,0,0-1.539,1.531c-.008.923,0,1.847.006,2.77.465,0,.931-.01,1.4,0a1.459,1.459,0,0,1,1.527,1.432,1.489,1.489,0,0,1-1.48,1.495c-.481.023-.963.018-1.445.026q0,1.46,0,2.92c1.653,0,3.307-.008,4.96,0a1.462,1.462,0,0,1,1.581,1.433,1.491,1.491,0,0,1-1.582,1.5c-1.653.016-3.307.016-4.96.023q0,1.46,0,2.92c.465,0,.931-.01,1.4,0a1.458,1.458,0,0,1,1.527,1.432,1.488,1.488,0,0,1-1.48,1.495c-.481.023-.963.018-1.445.025,0,.892-.007,1.785-.007,2.677a1.532,1.532,0,0,0,2.016,1.685c.034-.1.073-.208.1-.315a5.991,5.991,0,0,1,11.518-.025c.1.352.271.4.582.4q6.966-.011,13.932,0c.384,0,.556-.09.675-.482a5.978,5.978,0,0,1,11.4-.141c.16.493.357.711.863.616a.829.829,0,0,1,.146,0,1.5,1.5,0,0,0,1.7-1.72Q499.814,185.214,499.812,182.305Zm-10.185-5.371q-3.542,0-7.085,0c-1.221,0-1.77-.542-1.771-1.748q0-2.81,0-5.619v-.516c.185-.015.325-.036.465-.037,1.661,0,3.322,0,4.984-.007a.476.476,0,0,1,.522.314c1.1,2.463,2.222,4.92,3.335,7.379a1.706,1.706,0,0,1,.061.234Z" transform="translate(-34.651)" fill="#00b141"/>
      <path id="Path_6323" data-name="Path 6323" d="M456.857,191.9h0v-.016h-.015v.016Z" transform="translate(-34.619 -21.145)" fill="#00b141"/>
      <path id="Path_6324" data-name="Path 6324" d="M488.314,294.061a3.082,3.082,0,1,0,3.093,3.055A3.086,3.086,0,0,0,488.314,294.061Z" transform="translate(-58.223 -106.008)" fill="#00b141"/>
      <path id="Path_6325" data-name="Path 6325" d="M645.769,294.064a3.082,3.082,0,0,0,.033,6.165,3.082,3.082,0,0,0-.033-6.165Z" transform="translate(-189.004 -106.01)" fill="#00b141"/>
      <path id="Path_6326" data-name="Path 6326" d="M416.474,191.887a1.338,1.338,0,0,0-1.284,1.008c-.134.978.187,1.614.949,1.831a2.73,2.73,0,0,0,.722.084c1.787.009,3.574.009,5.361.012V191.9C420.307,191.895,418.39,191.879,416.474,191.887Z" transform="translate(0 -21.143)" fill="#00b141"/>
      <path id="Path_6327" data-name="Path 6327" d="M456.841,209.216v.012h.014v-.012Z" transform="translate(-34.618 -35.538)" fill="#00b141"/>
      <path id="Path_6328" data-name="Path 6328" d="M456.841,243.85v.012h.014v-.012Z" transform="translate(-34.618 -64.304)" fill="#00b141"/>
      <path id="Path_6329" data-name="Path 6329" d="M434.85,226.493a1.471,1.471,0,0,0-1.63,1.43,1.5,1.5,0,0,0,1.627,1.5c.792.009,1.583.007,2.375.01v-2.92C436.431,226.506,435.641,226.493,434.85,226.493Z" transform="translate(-14.999 -49.888)" fill="#00b141"/>
      <path id="Path_6330" data-name="Path 6330" d="M434.85,261.126a1.471,1.471,0,0,0-1.63,1.43,1.5,1.5,0,0,0,1.627,1.5c.792.009,1.583.007,2.375.01v-2.92C436.431,261.139,435.641,261.126,434.85,261.126Z" transform="translate(-14.999 -78.653)" fill="#00b141"/>
      <path id="Path_6331" data-name="Path 6331" d="M456.841,278.483v.012h.014v-.012Z" transform="translate(-34.618 -93.069)" fill="#00b141"/>
    </g>
  </g>
</svg>
