<svg xmlns="http://www.w3.org/2000/svg" xmlns:xlink="http://www.w3.org/1999/xlink" width="222.266" height="171.989" viewBox="0 0 222.266 171.989">
  <defs>
    <linearGradient id="linear-gradient" x1="8.668" y1="3.012" x2="8.091" y2="3.598" gradientUnits="objectBoundingBox">
      <stop offset="0" stop-color="#ff4e95"/>
      <stop offset="1" stop-color="#fa8b0c"/>
    </linearGradient>
    <linearGradient id="linear-gradient-2" x1="0.6" y1="0.907" x2="0.382" y2="0.043" gradientUnits="objectBoundingBox">
      <stop offset="0" stop-color="#010101" stop-opacity="0"/>
      <stop offset="0.95" stop-color="#010101"/>
    </linearGradient>
    <linearGradient id="linear-gradient-3" x1="-0.048" y1="0.477" x2="1.781" y2="0.524" gradientUnits="objectBoundingBox">
      <stop offset="0" stop-color="#fff" stop-opacity="0"/>
      <stop offset="0.95" stop-color="#fff"/>
    </linearGradient>
    <linearGradient id="linear-gradient-4" x1="0.499" y1="-0.457" x2="0.5" y2="1.156" xlink:href="#linear-gradient-3"/>
    <linearGradient id="linear-gradient-5" x1="0.573" y1="-1.088" x2="0.359" y2="3.723" xlink:href="#linear-gradient-2"/>
    <linearGradient id="linear-gradient-6" x1="1.314" y1="35.844" x2="0.34" y2="35.509" gradientUnits="objectBoundingBox">
      <stop offset="0" stop-color="#ff3e37"/>
      <stop offset="1" stop-color="#ffc756"/>
    </linearGradient>
    <linearGradient id="linear-gradient-7" x1="21.199" y1="-0.588" x2="21.14" y2="1.146" xlink:href="#linear-gradient-3"/>
    <linearGradient id="linear-gradient-8" x1="49.823" y1="0.858" x2="47.842" y2="-0.056" xlink:href="#linear-gradient-2"/>
    <linearGradient id="linear-gradient-9" x1="0.001" y1="0.499" x2="1" y2="0.499" gradientUnits="objectBoundingBox">
      <stop offset="0" stop-color="#e5c6d6"/>
      <stop offset="0.42" stop-color="#ead4d0"/>
      <stop offset="1" stop-color="#f0e9cb"/>
    </linearGradient>
    <linearGradient id="linear-gradient-10" x1="0.556" y1="1.238" x2="0.447" y2="-0.186" xlink:href="#linear-gradient-3"/>
    <linearGradient id="linear-gradient-11" x1="0" y1="0.503" x2="1.001" y2="0.503" xlink:href="#linear-gradient-9"/>
    <linearGradient id="linear-gradient-12" x1="0.492" y1="-1.661" x2="0.502" y2="0.776" gradientUnits="objectBoundingBox">
      <stop offset="0" stop-color="#010101" stop-opacity="0"/>
      <stop offset="0.89" stop-color="#010101"/>
    </linearGradient>
    <linearGradient id="linear-gradient-13" x1="0.496" y1="-1.689" x2="0.502" y2="0.767" xlink:href="#linear-gradient-12"/>
    <linearGradient id="linear-gradient-14" x1="0.224" y1="0.39" x2="3.327" y2="1.452" xlink:href="#linear-gradient-2"/>
  </defs>
  <g id="javascript_1_" data-name="javascript (1)" transform="translate(-35.238 -9.409)">
    <path id="Path_5072" data-name="Path 5072" d="M104.875,185.53s-3.378,7.429-4.062,14.131,3.22,16.3,3.22,16.3l2.449-11.147Z" transform="translate(-62.006 -86.324)" fill="#ff346b"/>
    <path id="Path_5074" data-name="Path 5074" d="M405.81,172.272q.481-2.5.962-5c.18-.935.339-1.881.547-2.919,1.558.273,3.078.508,4.581.809a.782.782,0,0,0,1.033-.514c.678-1.323,1.438-2.608,2.236-3.86a.754.754,0,0,0-.066-1.093c-1.011-1.159-1.99-2.351-3.034-3.6l6.533-5.467c1.006,1.2,2.012,2.362,2.968,3.559a.831.831,0,0,0,1.192.273,33.067,33.067,0,0,1,4.04-1.481c.629-.18.782-.432.765-1.028-.033-1.492,0-2.985,0-4.532h8.523c0,1.531.033,3.04,0,4.548,0,.612.159.836.771,1.017a34.311,34.311,0,0,1,4.034,1.487.826.826,0,0,0,1.186-.3c.946-1.181,1.941-2.329,2.963-3.542l6.527,5.467-3.346,4.007c.907,1.64,1.755,3.28,2.657,4.822a.946.946,0,0,0,.787.23c1.52-.235,3.034-.519,4.658-.8.5,2.81.984,5.549,1.481,8.386-1.585.279-3.127.547-4.663.842-.251.055-.629.29-.662.492-.306,1.771-.547,3.559-.825,5.467l4.5,2.608-4.264,7.38-4.521-2.6c-1.465,1.17-2.886,2.285-4.269,3.439a.825.825,0,0,0-.137.722c.514,1.509,1.093,3,1.64,4.565l-8,2.914c-.5-1.356-1.028-2.679-1.454-4.04a1.158,1.158,0,0,0-1.46-.957,30.044,30.044,0,0,1-4.149,0,.7.7,0,0,0-.847.547c-.5,1.46-1.05,2.9-1.64,4.444l-8.02-2.941,1.788-4.958-4.516-3.827-4.57,2.629-4.264-7.38c1.4-.815,2.733-1.6,4.084-2.345a.749.749,0,0,0,.421-1.011,41.057,41.057,0,0,1-.743-4.155c-.087-.678-.246-1.011-1.006-1.093-1.476-.175-2.941-.492-4.412-.749ZM431.9,162.1A10.885,10.885,0,1,0,442.678,173.1,10.927,10.927,0,0,0,431.9,162.1Z" transform="translate(-200.306 -69.048)" fill="#ffb105"/>
    <path id="Path_5075" data-name="Path 5075" d="M405.81,172.272q.481-2.5.962-5c.18-.935.339-1.881.547-2.919,1.558.273,3.078.508,4.581.809a.782.782,0,0,0,1.033-.514c.678-1.323,1.438-2.608,2.236-3.86a.754.754,0,0,0-.066-1.093c-1.011-1.159-1.99-2.351-3.034-3.6l6.533-5.467c1.006,1.2,2.012,2.362,2.968,3.559a.831.831,0,0,0,1.192.273,33.067,33.067,0,0,1,4.04-1.481c.629-.18.782-.432.765-1.028-.033-1.492,0-2.985,0-4.532h8.523c0,1.531.033,3.04,0,4.548,0,.612.159.836.771,1.017a34.311,34.311,0,0,1,4.034,1.487.826.826,0,0,0,1.186-.3c.946-1.181,1.941-2.329,2.963-3.542l6.527,5.467-3.346,4.007c.907,1.64,1.755,3.28,2.657,4.822a.946.946,0,0,0,.787.23c1.52-.235,3.034-.519,4.658-.8.5,2.81.984,5.549,1.481,8.386-1.585.279-3.127.547-4.663.842-.251.055-.629.29-.662.492-.306,1.771-.547,3.559-.825,5.467l4.5,2.608-4.264,7.38-4.521-2.6c-1.465,1.17-2.886,2.285-4.269,3.439a.825.825,0,0,0-.137.722c.514,1.509,1.093,3,1.64,4.565l-8,2.914c-.5-1.356-1.028-2.679-1.454-4.04a1.158,1.158,0,0,0-1.46-.957,30.044,30.044,0,0,1-4.149,0,.7.7,0,0,0-.847.547c-.5,1.46-1.05,2.9-1.64,4.444l-8.02-2.941,1.788-4.958-4.516-3.827-4.57,2.629-4.264-7.38c1.4-.815,2.733-1.6,4.084-2.345a.749.749,0,0,0,.421-1.011,41.057,41.057,0,0,1-.743-4.155c-.087-.678-.246-1.011-1.006-1.093-1.476-.175-2.941-.492-4.412-.749ZM431.9,162.1A10.885,10.885,0,1,0,442.678,173.1,10.927,10.927,0,0,0,431.9,162.1Z" transform="translate(-200.306 -69.048)" fill="url(#linear-gradient)"/>
    <rect id="Rectangle_1586" data-name="Rectangle 1586" width="164.909" height="106.574" rx="16.02" transform="translate(60.614 43.593)" fill="#ffb105"/>
    <rect id="Rectangle_1587" data-name="Rectangle 1587" width="155.61" height="100.561" rx="15.12" transform="translate(64.567 47.715)" fill="#fff"/>
    <path id="Path_5076" data-name="Path 5076" d="M140.771,219.471l4.095-1.64s5.893-3.51,6.309-4.767a11.34,11.34,0,0,0,.519-2.252l1.416-1.159a3.28,3.28,0,0,0,.224-2c-.257-1-12.573,8.277-12.573,8.277Z" transform="translate(-80.151 -96.321)" opacity="0.26" fill="url(#linear-gradient-2)"/>
    <path id="Path_5077" data-name="Path 5077" d="M161.92,206.38a1.777,1.777,0,0,1-1.164-.394c-.836-.683-.875-2.077-.9-2.826a1.164,1.164,0,0,1,.35-.875,3.8,3.8,0,0,1,2.373-.656v.913a2.733,2.733,0,0,0-1.7.388.246.246,0,0,0-.087.2c0,.6.049,1.727.547,2.148a1.093,1.093,0,0,0,.9.153l.153.9A2.893,2.893,0,0,1,161.92,206.38Z" transform="translate(-88.809 -93.622)" fill="#ffb105"/>
    <path id="Path_5078" data-name="Path 5078" d="M161.92,206.35a1.771,1.771,0,0,1-1.164-.388c-.836-.683-.875-2.077-.9-2.826a1.186,1.186,0,0,1,.35-.88,3.836,3.836,0,0,1,2.373-.656v.918a2.733,2.733,0,0,0-1.7.388.246.246,0,0,0-.087.2c0,.6.049,1.727.547,2.148a1.093,1.093,0,0,0,.9.153l.153.9A2.859,2.859,0,0,1,161.92,206.35Z" transform="translate(-88.809 -93.609)" fill="url(#linear-gradient-3)"/>
    <g id="Group_4749" data-name="Group 4749" transform="translate(86.854 57.336)" opacity="0.52">
      <rect id="Rectangle_1588" data-name="Rectangle 1588" width="36.944" height="2.711" fill="#ffb105"/>
      <rect id="Rectangle_1589" data-name="Rectangle 1589" width="22.55" height="2.547" transform="translate(0 5.243)" fill="#ffb105"/>
      <rect id="Rectangle_1590" data-name="Rectangle 1590" width="70.958" height="2.558" transform="translate(31.647 5.243)" fill="#ffb105"/>
      <rect id="Rectangle_1591" data-name="Rectangle 1591" width="31.007" height="2.684" transform="translate(11.726 10.496)" fill="#ffb105"/>
      <rect id="Rectangle_1592" data-name="Rectangle 1592" width="36.944" height="2.711" transform="translate(21.681 15.739)" fill="#ffb105"/>
      <rect id="Rectangle_1593" data-name="Rectangle 1593" width="30.964" height="3.007" transform="translate(61.036 15.739)" fill="#ffb105"/>
      <rect id="Rectangle_1594" data-name="Rectangle 1594" width="28.531" height="2.547" transform="translate(21.626 20.981)" fill="#ffb105"/>
      <rect id="Rectangle_1595" data-name="Rectangle 1595" width="58.866" height="2.821" transform="translate(52.891 20.981)" fill="#ffb105"/>
      <rect id="Rectangle_1596" data-name="Rectangle 1596" width="36.944" height="2.711" transform="translate(0 28.077)" fill="#ffb105"/>
      <rect id="Rectangle_1597" data-name="Rectangle 1597" width="22.55" height="2.547" transform="translate(0 33.32)" fill="#ffb105"/>
      <rect id="Rectangle_1598" data-name="Rectangle 1598" width="70.958" height="2.558" transform="translate(31.647 33.32)" fill="#ffb105"/>
      <rect id="Rectangle_1599" data-name="Rectangle 1599" width="31.007" height="2.684" transform="translate(11.726 38.562)" fill="#ffb105"/>
      <rect id="Rectangle_1600" data-name="Rectangle 1600" width="36.944" height="2.711" transform="translate(21.681 43.821)" fill="#ffb105"/>
      <rect id="Rectangle_1601" data-name="Rectangle 1601" width="30.964" height="3.007" transform="translate(61.036 43.821)" fill="#ffb105"/>
      <rect id="Rectangle_1602" data-name="Rectangle 1602" width="28.531" height="2.547" transform="translate(21.626 49.064)" fill="#ffb105"/>
      <rect id="Rectangle_1603" data-name="Rectangle 1603" width="58.866" height="2.821" transform="translate(52.891 49.064)" fill="#ffb105"/>
      <rect id="Rectangle_1604" data-name="Rectangle 1604" width="36.944" height="2.711" transform="translate(0 56.154)" fill="#ffb105"/>
      <rect id="Rectangle_1605" data-name="Rectangle 1605" width="22.55" height="2.547" transform="translate(0 61.397)" fill="#ffb105"/>
      <rect id="Rectangle_1606" data-name="Rectangle 1606" width="70.958" height="2.558" transform="translate(31.647 61.397)" fill="#ffb105"/>
      <rect id="Rectangle_1607" data-name="Rectangle 1607" width="31.007" height="2.684" transform="translate(11.726 66.639)" fill="#ffb105"/>
      <rect id="Rectangle_1608" data-name="Rectangle 1608" width="36.944" height="2.711" transform="translate(21.681 71.882)" fill="#ffb105"/>
      <rect id="Rectangle_1609" data-name="Rectangle 1609" width="30.964" height="3.007" transform="translate(61.036 71.882)" fill="#ffb105"/>
      <rect id="Rectangle_1610" data-name="Rectangle 1610" width="28.531" height="2.547" transform="translate(21.626 77.141)" fill="#ffb105"/>
      <rect id="Rectangle_1611" data-name="Rectangle 1611" width="58.866" height="2.821" transform="translate(52.891 77.141)" fill="#ffb105"/>
    </g>
    <path id="Path_5079" data-name="Path 5079" d="M103.6,275.19,72.94,298.27H287.575L257.6,274.84Z" transform="translate(-37.702 -125.827)" fill="#ffb105"/>
    <path id="Path_5080" data-name="Path 5080" d="M103.6,275.19,72.94,298.27H287.575L257.6,274.84Z" transform="translate(-37.702 -125.827)" fill="url(#linear-gradient-4)"/>
    <path id="Path_5081" data-name="Path 5081" d="M112.995,306.24l19.615,1.881c.476.044,1.028.142,1.246.547a.989.989,0,0,1-.459,1.225,2.842,2.842,0,0,1-1.4.3l-20.675.842a6.014,6.014,0,0,1-2.925-.366,2.082,2.082,0,0,1-1.208-2.433c.421-1.093,1.826-1.307,2.99-1.361" transform="translate(-64.889 -141.045)" opacity="0.26" fill="url(#linear-gradient-5)"/>
    <path id="Path_5082" data-name="Path 5082" d="M81.725,326.141,72.94,317.7H287.575l-7.927,8.955Z" transform="translate(-37.702 -145.256)" fill="#ffb105"/>
    <path id="Path_5083" data-name="Path 5083" d="M81.725,326.141,72.94,317.7H287.575l-7.927,8.955Z" transform="translate(-37.702 -145.256)" fill="url(#linear-gradient-6)"/>
    <path id="Path_5084" data-name="Path 5084" d="M108.86,288.956l173.64-.23-9.3-7.577H119.542Z" transform="translate(-53.986 -128.687)" fill="#ffb105" opacity="0.58"/>
    <g id="Group_4750" data-name="Group 4750" transform="translate(96.099 13.635)" opacity="0.24">
      <path id="Path_5085" data-name="Path 5085" d="M305.136,36.025V67.814A7.047,7.047,0,0,1,298.1,74.86H264.6l-9.884,9.884-7.725-9.884H212.71a7.036,7.036,0,0,1-7.03-7.047V36.025A7.047,7.047,0,0,1,212.71,29H298.1A7.058,7.058,0,0,1,305.136,36.025Z" transform="translate(-205.68 -29)" fill="#ffb105"/>
    </g>
    <rect id="Rectangle_1612" data-name="Rectangle 1612" width="99.462" height="45.866" rx="12.88" transform="translate(96.093 9.409)" fill="#fff"/>
    <path id="Path_5086" data-name="Path 5086" d="M225.13,304.937l9.135-7.233,33.413-.175,9.649,7.238Z" transform="translate(-106.694 -136.113)" fill="#ffb105" opacity="0.58"/>
    <path id="Path_5087" data-name="Path 5087" d="M257,99.91l9.277,11.852,11.338-11.338Z" transform="translate(-121.142 -46.526)" fill="#fff"/>
    <g id="Group_4751" data-name="Group 4751">
      <path id="Path_5088" data-name="Path 5088" d="M217.3,58.337l8.118-4.177v1.208L218.579,58.8v.033l6.839,3.444v1.208l-8.118-4.2Z" transform="translate(-114.849 -26.771)" fill="#ff346b"/>
      <path id="Path_5089" data-name="Path 5089" d="M232.83,63.836a2.455,2.455,0,0,0,1.673-.645c.421-.492.579-1.153.579-3.182V52.9h1.542v7.653c0,1.64-.262,2.733-1.017,3.477a3.9,3.9,0,0,1-2.624.962ZM236.8,50.552a.9.9,0,0,1-.962.946.918.918,0,0,1-.946-.946.946.946,0,0,1,.979-.962.913.913,0,0,1,.929.962Z" transform="translate(-121.889 -24.698)" fill="#ff346b"/>
      <path id="Path_5090" data-name="Path 5090" d="M248.506,63.994l-.12-1.093h-.055a3.149,3.149,0,0,1-2.586,1.257,2.411,2.411,0,0,1-2.586-2.433c0-2.045,1.815-3.165,5.084-3.149v-.148a1.742,1.742,0,0,0-1.919-1.957,4.171,4.171,0,0,0-2.187.629l-.35-1.017a5.237,5.237,0,0,1,2.777-.754c2.591,0,3.22,1.771,3.22,3.466v3.16a12.1,12.1,0,0,0,.137,2.034Zm-.224-4.319c-1.678-.038-3.586.262-3.586,1.9a1.361,1.361,0,0,0,1.454,1.471,2.11,2.11,0,0,0,2.045-1.416,1.726,1.726,0,0,0,.087-.492Z" transform="translate(-126.572 -27.301)" fill="#ff346b"/>
      <path id="Path_5091" data-name="Path 5091" d="M259.265,55.7l1.64,4.756a21.561,21.561,0,0,1,.678,2.187h.055c.191-.7.437-1.4.716-2.187l1.64-4.756H265.6l-3.324,8.462h-1.465L257.62,55.7Z" transform="translate(-133.127 -27.469)" fill="#ff346b"/>
      <path id="Path_5092" data-name="Path 5092" d="M278.936,63.994l-.12-1.093h-.055a3.149,3.149,0,0,1-2.586,1.257,2.411,2.411,0,0,1-2.586-2.433c0-2.045,1.815-3.165,5.084-3.149v-.148a1.742,1.742,0,0,0-1.919-1.957,4.2,4.2,0,0,0-2.187.629l-.35-1.017A5.27,5.27,0,0,1,277,55.33c2.586,0,3.214,1.771,3.214,3.466v3.16a12.068,12.068,0,0,0,.142,2.034Zm-.224-4.319c-1.678-.038-3.586.262-3.586,1.9a1.361,1.361,0,0,0,1.454,1.471,2.11,2.11,0,0,0,2.045-1.416,1.724,1.724,0,0,0,.109-.47Z" transform="translate(-140.366 -27.301)" fill="#ff346b"/>
      <path id="Path_5093" data-name="Path 5093" d="M289.523,62.425a4.045,4.045,0,0,0,2.028.612c1.121,0,1.64-.547,1.64-1.263s-.432-1.132-1.569-1.553c-1.525-.547-2.241-1.383-2.241-2.394,0-1.367,1.093-2.487,2.919-2.487a4.188,4.188,0,0,1,2.083.547l-.388,1.093a3.28,3.28,0,0,0-1.727-.487c-.908,0-1.416.547-1.416,1.153s.508,1.011,1.607,1.432c1.471.547,2.219,1.3,2.219,2.553,0,1.487-1.153,2.537-3.16,2.537a4.805,4.805,0,0,1-2.378-.579Z" transform="translate(-147.416 -27.305)" fill="#ff346b"/>
      <path id="Path_5094" data-name="Path 5094" d="M308.418,63.7a5.713,5.713,0,0,1-2.433.492,4.022,4.022,0,0,1-4.215-4.319,4.31,4.31,0,0,1,4.548-4.494,5.1,5.1,0,0,1,2.132.437L308.1,57a3.6,3.6,0,0,0-1.782-.4,3.19,3.19,0,0,0-.055,6.363,4.373,4.373,0,0,0,1.891-.421Z" transform="translate(-153.142 -27.323)" fill="#ff346b"/>
      <path id="Path_5095" data-name="Path 5095" d="M317.171,58.159c0-1,0-1.853-.071-2.64h1.345l.055,1.64h.066A2.548,2.548,0,0,1,320.91,55.3a1.771,1.771,0,0,1,.437.055v1.476a2.135,2.135,0,0,0-2.613,1.919,4.711,4.711,0,0,0-.066.722v4.51h-1.52Z" transform="translate(-160.091 -27.287)" fill="#ff346b"/>
      <path id="Path_5096" data-name="Path 5096" d="M329.422,50.552a.951.951,0,0,1-1.9,0,.935.935,0,0,1,.962-.962.913.913,0,0,1,.94.962Zm-1.711,10.841V52.93h1.536v8.462Z" transform="translate(-164.814 -24.698)" fill="#ff346b"/>
      <path id="Path_5097" data-name="Path 5097" d="M335.251,58.323c0-1.093-.038-1.957-.071-2.733h1.378l.071,1.449h.033a3.346,3.346,0,0,1,3.012-1.64c2.045,0,3.581,1.733,3.581,4.3,0,3.045-1.853,4.548-3.827,4.548a2.979,2.979,0,0,1-2.608-1.328h-.033v4.6h-1.52Zm1.52,2.258a3.7,3.7,0,0,0,.066.629,2.378,2.378,0,0,0,2.312,1.8c1.64,0,2.569-1.328,2.569-3.28,0-1.695-.891-3.143-2.52-3.143a2.455,2.455,0,0,0-2.323,1.9,2.4,2.4,0,0,0-.1.629Z" transform="translate(-168.287 -27.33)" fill="#ff346b"/>
      <path id="Path_5098" data-name="Path 5098" d="M354.579,51.25v2.433h2.187v1.17h-2.187v4.565c0,1.044.3,1.64,1.154,1.64a3.345,3.345,0,0,0,.891-.1l.071,1.153a3.707,3.707,0,0,1-1.367.213,2.121,2.121,0,0,1-1.64-.651,3.115,3.115,0,0,1-.6-2.187v-4.63H351.78v-1.17h1.312V51.66Z" transform="translate(-175.813 -25.451)" fill="#ff346b"/>
      <path id="Path_5099" data-name="Path 5099" d="M371.983,59.3l-8.113,4.16V62.273l6.888-3.428v-.033l-6.888-3.428V54.16l8.113,4.16Z" transform="translate(-181.293 -26.771)" fill="#ff346b"/>
    </g>
    <path id="Path_5100" data-name="Path 5100" d="M148.6,163.654l-11.7-3.154-6,13.94,1.984,3.865,8.036-.459Z" transform="translate(-63.973 -73.993)" fill="url(#linear-gradient-7)"/>
    <path id="Path_5101" data-name="Path 5101" d="M122.539,230.854l-2.367,39.579-4.313.634L113.891,241l-1.771,30-4.275.137s-1.984-30.28-1.547-32.5,0-9.293,0-9.293Z" transform="translate(-64.5 -106.184)" fill="#834eff"/>
    <path id="Path_5102" data-name="Path 5102" d="M122.672,205.072c2.088-1.268,4.116-6.642,3.214-7.943-1.093-1.574-2.7-12.431-4.127-13.667a7.55,7.55,0,0,0-5.111-2.072c-2.219.082-4.669-.957-6.735-.115a11.108,11.108,0,0,0-3.089,2.187c-1.481,1.328-2.64,23.726-.973,26.158,2.127,3.111,6.511,3.214,10.217,3a8.294,8.294,0,0,0,3.734-.809C122.622,210.173,122.972,208.368,122.672,205.072Z" transform="translate(-63.954 -84.245)" fill="#ff3091"/>
    <path id="Path_5103" data-name="Path 5103" d="M144.95,207.261a1.52,1.52,0,0,1,.995-.137,1.29,1.29,0,0,1,.487.355,7.325,7.325,0,0,1,1.58,2.465,2,2,0,0,1,.131,1.383A2.351,2.351,0,0,1,147,212.422c-3.28,1.9-7.271,4.614-11.065,4.248-.268,0-.175-.82-.372-.995a1.372,1.372,0,0,1-.328-.913,16.522,16.522,0,0,1-.109-3.635,5.543,5.543,0,0,1,1.443-3.28,2.017,2.017,0,0,1,1.257-.661c.738-.044.683.547,1.093.776a3.827,3.827,0,0,0,1.963.306,12.305,12.305,0,0,0,4.067-1.006Z" transform="translate(-77.573 -96.1)" fill="#ff3091"/>
    <path id="Path_5104" data-name="Path 5104" d="M126.085,202.58s1.235,9.791,4.537,12.3c0,0,1.137,6.063-4.089,7.107a9.107,9.107,0,0,1-3.963.394s5.084,1.536,4.127-8.654S126.085,202.58,126.085,202.58Z" transform="translate(-71.905 -94.053)" opacity="0.26" fill="url(#linear-gradient-8)"/>
    <path id="Path_5105" data-name="Path 5105" d="M131.17,306.691a.683.683,0,0,1,.246.5.6.6,0,0,1-.2.361,2.422,2.422,0,0,1-1.345.547,11.857,11.857,0,0,1-4.762-.262,2.007,2.007,0,0,1-1.033-.547,2.187,2.187,0,0,1-.372-1.41l-.044-1.722a.858.858,0,0,1,.044-.394c.131-.317.547-.394.875-.421a21.529,21.529,0,0,1,2.449-.044,1.441,1.441,0,0,1,.891.142c.23.186.312.547.465.733C129.175,305.15,130.323,305.762,131.17,306.691Z" transform="translate(-72.399 -139.703)" fill="#000ea5"/>
    <path id="Path_5106" data-name="Path 5106" d="M116.421,306.812a.678.678,0,0,1,.235.487.547.547,0,0,1-.191.344,2.307,2.307,0,0,1-1.3.514,11.338,11.338,0,0,1-4.6-.257,1.9,1.9,0,0,1-1-.514,2.132,2.132,0,0,1-.361-1.367l-.044-1.64a.9.9,0,0,1,.044-.383c.126-.306.514-.377.842-.4a22.8,22.8,0,0,1,2.367-.044,1.52,1.52,0,0,1,.864.137c.169.142.3.547.448.711C114.491,305.325,115.6,305.921,116.421,306.812Z" transform="translate(-65.827 -139.819)" fill="#000ea5"/>
    <path id="Path_5107" data-name="Path 5107" d="M116.334,172.779a1.323,1.323,0,0,0,.437.869,1.344,1.344,0,0,0,.618.175,17.41,17.41,0,0,0,2.5.1.3.3,0,0,0,.18-.044.29.29,0,0,0,.077-.131c.306-.9-.268-2.028.29-2.8.361-.5,1.055-.634,1.476-1.093a2.775,2.775,0,0,0,.454-2.061l-.169-3.351a1.886,1.886,0,0,0-.169-.82,1.8,1.8,0,0,0-1-.678,6.9,6.9,0,0,0-3.28-.6,2.023,2.023,0,0,0-.738.219,2.607,2.607,0,0,0-.612.547,5,5,0,0,0-1.05,1.667,5.4,5.4,0,0,0-.038,2.312,13.023,13.023,0,0,0,.547,2.837A20.372,20.372,0,0,1,116.334,172.779Z" transform="translate(-68.566 -75.809)" fill="url(#linear-gradient-9)"/>
    <path id="Path_5108" data-name="Path 5108" d="M122.186,156.663a2.545,2.545,0,0,0-3.242-1.706,10.9,10.9,0,0,0-1,.59c-.634.361-1.361.514-2.023.825a5.789,5.789,0,0,0-3,4.067,9.993,9.993,0,0,0,.437,5.155,3.28,3.28,0,0,0,.722,1.367,3.75,3.75,0,0,0,2.187.82,1.279,1.279,0,0,0,1.7-1.454,1.241,1.241,0,0,0-.049-.651,1.258,1.258,0,0,0-.361-.4,2.083,2.083,0,0,1-.787-1.022c-.1-.426.159-.968.6-.984s.771.547.907,1.05a.842.842,0,0,0,.213-.869,6.938,6.938,0,0,1-.235-.924c-.093-1.372,1.64-1.64,2.471-2.274A3.421,3.421,0,0,0,122.186,156.663Z" transform="translate(-67.46 -72.392)" fill="#000ea5"/>
    <rect id="Rectangle_1613" data-name="Rectangle 1613" width="5.926" height="6.697" rx="2.16" transform="translate(73.537 107.084)" fill="#ffb105"/>
    <rect id="Rectangle_1614" data-name="Rectangle 1614" width="5.926" height="6.697" rx="2.16" transform="translate(73.537 107.084)" fill="url(#linear-gradient-10)"/>
    <path id="Path_5109" data-name="Path 5109" d="M156.717,204.382a.886.886,0,0,1,.672-.372,2.034,2.034,0,0,1,.355.1,1.951,1.951,0,0,0,.825-.1.755.755,0,0,1,.776.175.842.842,0,0,1,.126.459l.153,1.738a2.187,2.187,0,0,1,0,.377,1.824,1.824,0,0,1-.115.344,2.771,2.771,0,0,1-.3.579,1.886,1.886,0,0,1-1.05.645,5.893,5.893,0,0,1-1.241.115h-.651a1.012,1.012,0,0,1-.312-.033.913.913,0,0,1-.432-.492,3.28,3.28,0,0,1-.268-.623c-.1-.344-.1-.711-.164-1.061-.044-.246-.077-.4.142-.547A10.828,10.828,0,0,0,156.717,204.382Z" transform="translate(-86.635 -94.685)" fill="url(#linear-gradient-11)"/>
    <path id="Path_5110" data-name="Path 5110" d="M170.253,200.606c0,.077-.071.131-.219.186a9.178,9.178,0,0,1-4.576,0c-.148-.055-.219-.109-.219-.186,0-.251,1.093-.476,2.509-.476S170.253,200.36,170.253,200.606Z" transform="translate(-91.249 -92.943)" opacity="0.26" fill="url(#linear-gradient-12)"/>
    <path id="Path_5111" data-name="Path 5111" d="M170.206,201.123a9.178,9.178,0,0,1-4.576,0,9.709,9.709,0,0,1,4.576,0Z" transform="translate(-91.426 -93.269)" opacity="0.26" fill="url(#linear-gradient-13)"/>
    <path id="Path_5112" data-name="Path 5112" d="M159.579,176.313a9.717,9.717,0,0,1-.612-9.955,19.728,19.728,0,0,0,1.727-2.9c.519-1.454.208-3.061.361-4.6a3.384,3.384,0,0,1,.634-1.815,2.734,2.734,0,0,1,1.421-.875,3.835,3.835,0,0,1,4.592,3.827c-.175,2.072-2.077,3.8-1.908,5.871.213,2.537,3.439,4.27,3.089,6.79-.251,1.782-2.28,3.067-2.143,4.86.071.9.678,1.87.169,2.613-.689,1.006-3.991,1.033-4.86.355C161.066,179.724,160.268,177.385,159.579,176.313Z" transform="translate(-87.906 -72.963)" opacity="0.26" fill="url(#linear-gradient-14)"/>
  </g>
</svg>
