<svg xmlns="http://www.w3.org/2000/svg" xmlns:xlink="http://www.w3.org/1999/xlink" width="237.041" height="171.835" viewBox="0 0 237.041 171.835">
  <defs>
    <linearGradient id="linear-gradient" y1="0.504" x2="1" y2="0.504" gradientUnits="objectBoundingBox">
      <stop offset="0" stop-opacity="0"/>
      <stop offset="0.99"/>
    </linearGradient>
    <linearGradient id="linear-gradient-2" x1="0" y1="0.504" x2="1" y2="0.504" xlink:href="#linear-gradient"/>
    <linearGradient id="linear-gradient-3" x1="0.651" y1="1.711" x2="0.409" y2="0.297" gradientUnits="objectBoundingBox">
      <stop offset="0.02" stop-color="#fff" stop-opacity="0"/>
      <stop offset="0.58" stop-color="#fff" stop-opacity="0.388"/>
      <stop offset="0.68" stop-color="#fff" stop-opacity="0.678"/>
      <stop offset="1" stop-color="#fff"/>
    </linearGradient>
    <linearGradient id="linear-gradient-4" x1="1.253" y1="1.009" x2="0.629" y2="0.499" xlink:href="#linear-gradient-3"/>
    <linearGradient id="linear-gradient-5" x1="0.824" y1="0.485" x2="0.309" y2="0.514" gradientUnits="objectBoundingBox">
      <stop offset="0" stop-color="#e5c5d5"/>
      <stop offset="0.42" stop-color="#ead4d1"/>
      <stop offset="1" stop-color="#f0e9cb"/>
    </linearGradient>
    <linearGradient id="linear-gradient-6" x1="0.003" y1="0.499" x2="0.998" y2="0.499" xlink:href="#linear-gradient-3"/>
    <linearGradient id="linear-gradient-7" x1="1.064" y1="0.995" x2="0.471" y2="0.512" xlink:href="#linear-gradient-5"/>
    <linearGradient id="linear-gradient-8" x1="-0.215" y1="0.5" x2="0.785" y2="0.5" xlink:href="#linear-gradient-3"/>
  </defs>
  <g id="artificial_intelligence_2_" data-name="artificial_intelligence (2)" transform="translate(-0.02)">
    <path id="Path_5030" data-name="Path 5030" d="M170.787,65.54l-1.536,4.546h-9.239A11.878,11.878,0,0,0,148.135,81.97v49.973l-20.72,60.729c.786,2.773-16,8.325-44.488,8.02-41.514-.433-42.775-8.02-42.775-8.02L4,66.509Z" transform="translate(-3.98 -65.54)" fill="#79a3ff" opacity="0.18"/>
    <path id="Path_5031" data-name="Path 5031" d="M133.8,195.895,161.785,66.77H46.86L69.445,196.309s-11.768,7.167,29.746,7.606C127.67,204.213,134.593,198.668,133.8,195.895Z" transform="translate(-20.72 -66.02)" fill="#79a3ff" opacity="0.18"/>
    <path id="Path_5032" data-name="Path 5032" d="M170.834,307.447c-2.109-.146-4.613-.652-5.393-2.6-.567-1.414.061-3.047-.177-4.534-.494-3.193-4.333-4.528-7.526-5.229l-13.59-2.962a6.834,6.834,0,0,1-3.858-1.761,17.579,17.579,0,0,1-1.444-2.694c-2.127-3.687-7.392-3.73-11.67-3.358a506.163,506.163,0,0,1-72.259,1.1c-7.24-.408-14.852-.908-21.4,2.176a3.717,3.717,0,0,0-1.956,1.633c-.524,1.164.165,2.493.89,3.547,6.131,8.885,16.485,14.248,27.107,16.625s21.647,2.1,32.537,1.828l41.544-1.115c1.645-.049,3.492,0,4.65,1.14s1.158,3.151,1.92,4.674c1.06,2.127,3.516,3.163,5.82,3.852,8.891,2.657,18.338,2.761,27.631,2.846,23.243.213,46.517.421,69.718-1.091,3.449-.225,7.795-1.262,8.313-4.638.317-2.078-1.219-4.089-3.09-5.058a15.587,15.587,0,0,0-6.216-1.255l-38.351-2.407c-4.875-.3-9.8-1.353-14.59-1.463C183.242,306.533,177.135,307.885,170.834,307.447Z" transform="translate(-14.673 -150.928)" fill="#79a3ff" opacity="0.18"/>
    <path id="Path_5033" data-name="Path 5033" d="M326.64,330a1.018,1.018,0,0,1-.067.609,1.03,1.03,0,0,1-.774.36,56.825,56.825,0,0,1-12.749.323,18.284,18.284,0,0,1,6.972-2.87,1.261,1.261,0,0,0,1.426-1.274,9.031,9.031,0,0,1,.481-1.877.7.7,0,0,1,.244-.366.756.756,0,0,1,.4-.055l2.206.116c.878.055.914,0,1.134.871A29.531,29.531,0,0,1,326.64,330Z" transform="translate(-124.687 -166.816)" fill="#3e3e54"/>
    <path id="Path_5034" data-name="Path 5034" d="M351.8,330a.975.975,0,0,1-.073.609,1.03,1.03,0,0,1-.774.36,56.767,56.767,0,0,1-12.743.323,18.283,18.283,0,0,1,6.972-2.87,1.718,1.718,0,0,0,1.249-.609,1.829,1.829,0,0,0,.177-.658,8.665,8.665,0,0,1,.481-1.877.665.665,0,0,1,.244-.366.725.725,0,0,1,.4-.055l2.206.116c.884.055.914,0,1.14.871A30.474,30.474,0,0,1,351.8,330Z" transform="translate(-134.514 -166.819)" fill="#3e3e54"/>
    <path id="Path_5035" data-name="Path 5035" d="M326.64,330a1.018,1.018,0,0,1-.067.609,1.03,1.03,0,0,1-.774.36,56.825,56.825,0,0,1-12.749.323,18.284,18.284,0,0,1,6.972-2.87,1.261,1.261,0,0,0,1.426-1.274,9.031,9.031,0,0,1,.481-1.877.7.7,0,0,1,.244-.366.756.756,0,0,1,.4-.055l2.206.116c.878.055.914,0,1.134.871A29.531,29.531,0,0,1,326.64,330Z" transform="translate(-124.687 -166.816)" fill="url(#linear-gradient)"/>
    <path id="Path_5036" data-name="Path 5036" d="M351.8,330a.975.975,0,0,1-.073.609,1.03,1.03,0,0,1-.774.36,56.767,56.767,0,0,1-12.743.323,18.283,18.283,0,0,1,6.972-2.87,1.718,1.718,0,0,0,1.249-.609,1.829,1.829,0,0,0,.177-.658,8.665,8.665,0,0,1,.481-1.877.665.665,0,0,1,.244-.366.725.725,0,0,1,.4-.055l2.206.116c.884.055.914,0,1.14.871A30.474,30.474,0,0,1,351.8,330Z" transform="translate(-134.514 -166.819)" fill="url(#linear-gradient-2)"/>
    <path id="Path_5037" data-name="Path 5037" d="M311.46,203.415l5.156,70.736,10.324-.116-.89-50.582,6.917,50.3,8.709.079-.329-75.569S331.748,180.476,311.46,203.415Z" transform="translate(-124.066 -114.811)" fill="#000ea8"/>
    <path id="Path_5038" data-name="Path 5038" d="M327.585,84.853V136.77A11.884,11.884,0,0,1,315.7,148.648H252.388A11.878,11.878,0,0,1,240.51,136.77V84.853A11.878,11.878,0,0,1,252.388,73H315.7a11.89,11.89,0,0,1,11.884,11.853Z" transform="translate(-96.355 -68.454)" fill="#79a3ff" opacity="0.18"/>
    <path id="Path_5039" data-name="Path 5039" d="M267.66,112.934c.9,6.241,2.956,12.256,5,18.222,1.627,4.729,3.4,9.69,7.179,12.969,1.859,1.621,4.266,2.956,4.936,5.332a8.891,8.891,0,0,1-.311,4.382l12.67-.286a2.249,2.249,0,0,0,1.152-.225,2.072,2.072,0,0,0,.768-1.17c.981-2.8.92-5.832,1.073-8.794.366-7.313,2.261-14.846,7.216-20.209a7.313,7.313,0,0,0,1.639-2.194,6.278,6.278,0,0,0,.232-2.59q-.573-12.048-.256-24.109a3.656,3.656,0,0,0-.146-1.408,3.529,3.529,0,0,0-.658-.957L304.5,87.63a2.9,2.9,0,0,0-.75-.695c-.835-.488-1.9-.091-2.779.311-1.615.737-3.352,1.591-4.12,3.187a7.655,7.655,0,0,0-.542,3.108l-.274,8.057c-.091,2.572-.055,5.454,1.767,7.264.811.792,1.92,1.322,2.438,2.328a4.522,4.522,0,0,1,.262,2.547,20.432,20.432,0,0,1-1.018,4.473,40.439,40.439,0,0,1-1.889,4.351L290.282,137.8c-.177.353-.457.774-.847.7a.914.914,0,0,1-.53-.451c-4.973-7.313-7.685-16.095-13.31-22.933-.878-1.066-2.1-2.535-3.48-2.98C270.585,111.623,269.208,112.483,267.66,112.934Z" transform="translate(-106.959 -73.808)" fill="#79a3ff" opacity="0.18"/>
    <path id="Path_5040" data-name="Path 5040" d="M276.895,137.526c-1.316-3.614-3.212-8.367-4.528-11.981-.335-.914-.67-1.828-1.066-2.718,4.455-.609,8.684-1.432,13.17-1.731a1,1,0,0,1,1.268.884l6.344,19.428-3.6,11.725Z" transform="translate(-108.381 -87.224)" fill="#fff"/>
    <path id="Path_5041" data-name="Path 5041" d="M323.513,206.638a41.077,41.077,0,0,0,15.205-2.614,4.12,4.12,0,0,0,1.609-.963,4.412,4.412,0,0,0,.664-3.309c-1.188-17.582-3.565-35.1-3.62-52.721a42.764,42.764,0,0,0-.683-9.714,12.707,12.707,0,0,0-5.144-8c-2.992-1.9-6.777-1.932-10.311-1.67-3.285.25-6.7.756-9.416,2.614-6.216,4.266-3.541,15.522-3.821,21.939a262.173,262.173,0,0,1-3.108,28.612c-.829,5.339-1.737,10.665-2.627,15.991-.463,2.761-.609,6.216,1.749,7.691a7.161,7.161,0,0,0,2.9.8c4.1.53,8.2,1.042,12.329,1.261,1.03.055,2.06.091,3.09.1,1.268,0,1.219-.225,1.767-1.353q1.377-2.944,2.749-5.893.311,3.657.427,7.392" transform="translate(-120.366 -89.751)" fill="#79a3ff"/>
    <path id="Path_5042" data-name="Path 5042" d="M323.541,206.447a41.2,41.2,0,0,0,15.236-2.621,4.1,4.1,0,0,0,1.6-.963,4.408,4.408,0,0,0,.67-3.309c-1.188-17.582-3.565-35.1-3.62-52.721a42.686,42.686,0,0,0-.683-9.708,12.732,12.732,0,0,0-5.144-8c-2.992-1.9-6.777-1.938-10.318-1.67-3.285.25-6.7.756-9.409,2.608-6.216,4.235-3.541,15.522-3.821,21.939a262.2,262.2,0,0,1-3.114,28.612c-.823,5.339-1.731,10.665-2.627,16-.457,2.761-.609,6.21,1.755,7.685a7.063,7.063,0,0,0,2.895.8c4.1.53,8.2,1.042,12.335,1.262,1.03.055,2.06.091,3.09.1,1.268,0,1.219-.219,1.767-1.347q1.371-2.956,2.749-5.9.311,3.693.421,7.392" transform="translate(-120.388 -89.675)" fill="url(#linear-gradient-3)"/>
    <path id="Path_5043" data-name="Path 5043" d="M305.063,156.546c-.676,1.9-1.353,3.791-2.212,5.607a5.436,5.436,0,0,1-1.883,2.438,3.931,3.931,0,0,1-1.828.512c-2.34.128-4.54-1.1-6.4-2.523a28.034,28.034,0,0,1-7.2-8.178,2.682,2.682,0,0,1-.427-1.073,2.95,2.95,0,0,1,.737-1.9l2.657-3.815a29.331,29.331,0,0,0,5.954,5.765.841.841,0,0,0,.7.225c.256-.079.372-.372.451-.609l3.218-10.5c1.018-3.3,2.285-6.923,5.32-8.569a2.8,2.8,0,0,1,1.219-.384,2.858,2.858,0,0,1,1.993,1.024c2.633,2.694,2.511,6.265,1.682,9.629a129.582,129.582,0,0,1-3.979,12.353Z" transform="translate(-113.775 -92.099)" fill="#79a3ff"/>
    <path id="Path_5044" data-name="Path 5044" d="M305.013,156.316c-.676,1.9-1.353,3.791-2.212,5.607a5.436,5.436,0,0,1-1.883,2.438,4.016,4.016,0,0,1-1.859.518c-2.334.122-4.534-1.109-6.393-2.529a27.966,27.966,0,0,1-7.2-8.178,2.8,2.8,0,0,1-.433-1.066,2.956,2.956,0,0,1,.743-1.908l2.657-3.809a29,29,0,0,0,5.954,5.759.817.817,0,0,0,.695.225c.262-.079.378-.372.457-.609l3.218-10.5c1.012-3.3,2.279-6.929,5.32-8.568a2.651,2.651,0,0,1,1.219-.384,2.828,2.828,0,0,1,1.993,1.018c2.633,2.694,2.511,6.265,1.676,9.629a129,129,0,0,1-3.949,12.359Z" transform="translate(-113.743 -92.009)" fill="url(#linear-gradient-4)"/>
    <path id="Path_5045" data-name="Path 5045" d="M326.947,111.51a2.553,2.553,0,0,0-.238-1.152,3.281,3.281,0,0,0-1.889-1.255,6.513,6.513,0,0,1-3.535-2.706,7.674,7.674,0,0,1-.341-4.875,19.277,19.277,0,0,1,1.42-5.3,7.794,7.794,0,0,1,3.717-3.906,8.4,8.4,0,0,1,6.564.3,5.856,5.856,0,0,1,2.109,1.353c1.219,1.322,1.322,3.291,1.262,5.083a48.523,48.523,0,0,1-2.724,14.51,2.133,2.133,0,0,1-.506.92,1.914,1.914,0,0,1-.92.408c-1.14.268-3.248.573-4.327-.061C326.374,114.149,326.984,112.735,326.947,111.51Z" transform="translate(-127.682 -75.785)" fill="url(#linear-gradient-5)"/>
    <path id="Path_5046" data-name="Path 5046" d="M324.643,88.6a8.149,8.149,0,0,0,3.657,4.711,7.734,7.734,0,0,1,2.078,1.585c.92,1.182.823,2.84.683,4.333.421.189.865-.2,1.17-.555s.78-.725,1.182-.494a.878.878,0,0,1,.335.421,2.816,2.816,0,0,1-1.292,3.565,2.249,2.249,0,0,0-.658.372,1.219,1.219,0,0,0,0,1.426c.268.439.67.78.939,1.219.695,1.1.609,2.791,1.755,3.352a1.974,1.974,0,0,0,2.176-.542,5.783,5.783,0,0,0,1.121-2.09q2.169-5.93,4.138-11.92a5.771,5.771,0,0,0,.427-2.383,2.937,2.937,0,0,0-1.286-2.084,1.457,1.457,0,0,1-.518-.439,1.536,1.536,0,0,1-.03-.939,3.272,3.272,0,0,0-1-2.578,7.313,7.313,0,0,0-2.407-1.53,18.984,18.984,0,0,0-8.812-1.457C325.594,82.778,324.07,86.179,324.643,88.6Z" transform="translate(-129.169 -72.174)" fill="#000487"/>
    <path id="Path_5047" data-name="Path 5047" d="M318.13,164.88a209.239,209.239,0,0,1-3.37,49.363" transform="translate(-125.355 -104.34)" fill="#fff"/>
    <path id="Path_5048" data-name="Path 5048" d="M312.216,217.089a11.939,11.939,0,0,1-.25,4.363,6.094,6.094,0,0,1-2.438,3.535,2.22,2.22,0,0,1-2.438.189,2.645,2.645,0,0,1-.8-1.56,12.726,12.726,0,0,1-.4-3.553c.055-.908.414-3.309,1.511-3.553a4.01,4.01,0,0,1,.865.165c.433.055.871.091,1.3.14Z" transform="translate(-121.891 -124.505)" fill="url(#linear-gradient-6)"/>
    <path id="Path_5049" data-name="Path 5049" d="M284.109,157a10.9,10.9,0,0,1-3.657-8.928c.835-.116,1.548.567,2.084,1.219s1.158,1.444,1.688,2.2a.75.75,0,0,0,.353.335c.2.067.445-.037.609.067a.609.609,0,0,1,.219.268,11.881,11.881,0,0,1,.768,1.706" transform="translate(-111.945 -97.77)" fill="url(#linear-gradient-7)"/>
    <path id="Path_5050" data-name="Path 5050" d="M171.681,121.051a7.468,7.468,0,0,1-3.535,2.87q-19.435,9.952-39.613,18.38c-7.13,2.986-14.565,5.869-22.3,5.735-1.786-.03-3.717-.293-4.979-1.56a5.876,5.876,0,0,1-1.359-4.552,11.134,11.134,0,0,1,3.711-7.563l-.335-.737c-1.274-2.876-2.34-5.972-1.792-9.05.609-3.34,3.852-6.411,7.136-5.576a6.253,6.253,0,0,1,7.313-9.9c-.817-2.005-1.652-4.108-1.481-6.265.213-2.761,4.229-6.423,6.192-8.337a11.067,11.067,0,0,1,9.586-2.937,8.649,8.649,0,0,1,1.347.372c1.828-2.34,5.137-3,8.1-2.724a17.865,17.865,0,0,1,15.479,14.364c4.693-.725,9.458,3.705,9.074,8.447a7.569,7.569,0,0,1,7.74,5.655,4.961,4.961,0,0,1-.286,3.382Z" transform="translate(-41.427 -74.759)" fill="#79a3ff"/>
    <path id="Path_5051" data-name="Path 5051" d="M178.672,111.589a9.239,9.239,0,0,0-4.266-3.583,13.98,13.98,0,0,0-4.558-.908,12.408,12.408,0,0,0-4.5.421,5.948,5.948,0,0,0-3.48,2.742" transform="translate(-65.64 -81.752)" fill="none" stroke="#fff" stroke-linecap="round" stroke-miterlimit="10" stroke-width="1.94"/>
    <path id="Path_5052" data-name="Path 5052" d="M127.48,128.154a7.508,7.508,0,0,1,1.524-3.51,4.967,4.967,0,0,1,1-1.219c1.17-.939,2.858-.7,4.333-.414a13.237,13.237,0,0,1,.091-3.437,4.4,4.4,0,0,1,1.773-2.846c1.341-.859,3.078-.609,4.65-.36" transform="translate(-52.208 -85.3)" fill="none" stroke="#fff" stroke-linecap="round" stroke-miterlimit="10" stroke-width="1.94"/>
    <path id="Path_5053" data-name="Path 5053" d="M189.8,137.321c-.737-1.31-2.578-1.53-4.034-1.127a7.587,7.587,0,0,0-5.43,6.783" transform="translate(-72.854 -93.065)" fill="none" stroke="#fff" stroke-linecap="round" stroke-miterlimit="10" stroke-width="1.94"/>
    <path id="Path_5054" data-name="Path 5054" d="M116.619,166.922A22.914,22.914,0,0,1,116.8,161a4.223,4.223,0,0,1,.951-2.371,3.657,3.657,0,0,1,1.944-.914,8.483,8.483,0,0,1,8.69,3.894,4.38,4.38,0,0,1,3.1-4.875,6.554,6.554,0,0,1,5.924,1.457" transform="translate(-47.923 -101.074)" fill="none" stroke="#fff" stroke-linecap="round" stroke-miterlimit="10" stroke-width="1.94"/>
    <path id="Path_5055" data-name="Path 5055" d="M161.91,137a2.152,2.152,0,0,1,.414,2.09c-.469,2.438-1.767,4.973-4.071,5.954a8.118,8.118,0,0,1-3.583.481c-2.218-.122-4.6-.78-5.905-2.572l-2.115,2.072" transform="translate(-59.696 -93.451)" fill="none" stroke="#fff" stroke-linecap="round" stroke-miterlimit="10" stroke-width="1.94"/>
    <path id="Path_5056" data-name="Path 5056" d="M162.929,126.637a4.7,4.7,0,0,1,4.016-4.76,7.483,7.483,0,0,1,2.517.244,5.189,5.189,0,0,1,3.3,1.865" transform="translate(-66.053 -87.536)" fill="none" stroke="#fff" stroke-linecap="round" stroke-miterlimit="10" stroke-width="1.94"/>
    <path id="Path_5057" data-name="Path 5057" d="M115.591,86.943l-.9,1.414a11.043,11.043,0,0,0-9.586,2.937c-1.968,1.914-5.978,5.576-6.2,8.337a13.994,13.994,0,0,0,1.481,6.259,6.253,6.253,0,0,0-7.313,9.909c-3.285-.835-6.539,2.237-7.136,5.576-.548,3.047.518,6.173,1.792,9.044l-6.484,10.129c-4.455,2.23-10.281,2.578-14.084-.609a9.349,9.349,0,0,1-2.066-2.468,11.018,11.018,0,0,1,.293-10.781,17.444,17.444,0,0,1,9.141-7.167,8.465,8.465,0,0,1,4.516-11.811,15.162,15.162,0,0,1-.987-5.82,10.842,10.842,0,0,1,4.912-8.087,14.437,14.437,0,0,1,9.379-2.121,1.554,1.554,0,0,0,1.938-1.134,11.616,11.616,0,0,1,5.6-5.052,23.311,23.311,0,0,1,4.065-1.164,13.822,13.822,0,0,1,3.766-.475,11.579,11.579,0,0,1,3.657.981,34.065,34.065,0,0,1,4.217,2.1Z" transform="translate(-27.345 -72.695)" fill="#79a3ff"/>
    <path id="Path_5058" data-name="Path 5058" d="M143.4,110.143A10.817,10.817,0,0,1,149.277,99.6" transform="translate(-58.41 -78.843)" fill="none" stroke="#fff" stroke-linecap="round" stroke-miterlimit="10" stroke-width="1.94"/>
    <path id="Path_5059" data-name="Path 5059" d="M149.638,135.366a5.558,5.558,0,0,0-6.2,6.643" transform="translate(-58.394 -92.792)" fill="none" stroke="#fff" stroke-linecap="round" stroke-miterlimit="10" stroke-width="1.94"/>
    <path id="Path_5060" data-name="Path 5060" d="M126.3,149.318a8.642,8.642,0,0,0-10.086,2.5" transform="translate(-47.806 -97.992)" fill="none" stroke="#fff" stroke-linecap="round" stroke-miterlimit="10" stroke-width="1.94"/>
    <path id="Path_5061" data-name="Path 5061" d="M93.971,124.784A2.529,2.529,0,0,1,93,122.609a6.192,6.192,0,0,1,.67-2.389,22.262,22.262,0,0,1,1.517-2.773,6.618,6.618,0,0,1,1.627-1.883c1.481-1.06,3.474-.957,5.29-.8" transform="translate(-38.737 -84.727)" fill="none" stroke="#fff" stroke-linecap="round" stroke-miterlimit="10" stroke-width="1.94"/>
    <path id="Path_5062" data-name="Path 5062" d="M116.237,100.857a3.766,3.766,0,0,0-3.218,1.524,6.649,6.649,0,0,0-1.219,3.455" transform="translate(-46.084 -79.332)" fill="none" stroke="#fff" stroke-linecap="round" stroke-miterlimit="10" stroke-width="1.94"/>
    <path id="Path_5063" data-name="Path 5063" d="M80.486,158.585c-.366.165-.664-.347-.725-.743a8.605,8.605,0,0,1,5.357-9.141" transform="translate(-33.54 -98.02)" fill="none" stroke="#fff" stroke-linecap="round" stroke-miterlimit="10" stroke-width="1.94"/>
    <ellipse id="Ellipse_388" data-name="Ellipse 388" cx="49.814" cy="13.791" rx="49.814" ry="13.791" transform="translate(27.145 121.714)" fill="#79a3ff"/>
    <ellipse id="Ellipse_389" data-name="Ellipse 389" cx="43.629" cy="8.093" rx="43.629" ry="8.093" transform="translate(35.696 121.781)" fill="url(#linear-gradient-8)"/>
    <path id="Path_5064" data-name="Path 5064" d="M117.743,193V171.366H99.29V148.11" transform="translate(-38.772 -57.848)" fill="none" stroke="#fff" stroke-miterlimit="10" stroke-width="1.45"/>
    <circle id="Ellipse_390" data-name="Ellipse 390" cx="2.657" cy="2.657" r="2.657" transform="translate(58.135 84.948)" fill="none" stroke="#fff" stroke-miterlimit="10" stroke-width="1.45"/>
    <circle id="Ellipse_391" data-name="Ellipse 391" cx="2.657" cy="2.657" r="2.657" transform="translate(38.871 100.061)" fill="none" stroke="#fff" stroke-miterlimit="10" stroke-width="1.45"/>
    <circle id="Ellipse_392" data-name="Ellipse 392" cx="2.657" cy="2.657" r="2.657" transform="translate(66.941 86.94)" fill="none" stroke="#fff" stroke-miterlimit="10" stroke-width="1.45"/>
    <circle id="Ellipse_393" data-name="Ellipse 393" cx="2.657" cy="2.657" r="2.657" transform="translate(74.748 75.818)" fill="none" stroke="#fff" stroke-miterlimit="10" stroke-width="1.45"/>
    <circle id="Ellipse_394" data-name="Ellipse 394" cx="2.657" cy="2.657" r="2.657" transform="translate(96.169 78.305)" fill="none" stroke="#fff" stroke-miterlimit="10" stroke-width="1.45"/>
    <circle id="Ellipse_395" data-name="Ellipse 395" cx="2.657" cy="2.657" r="2.657" transform="translate(113.72 85.667)" fill="none" stroke="#fff" stroke-miterlimit="10" stroke-width="1.45"/>
    <circle id="Ellipse_396" data-name="Ellipse 396" cx="2.657" cy="2.657" r="2.657" transform="translate(103.147 117.942)" fill="none" stroke="#fff" stroke-miterlimit="10" stroke-width="1.45"/>
    <path id="Path_5065" data-name="Path 5065" d="M99.29,159.041h9.135V150.57" transform="translate(-38.772 -58.809)" fill="none" stroke="#fff" stroke-miterlimit="10" stroke-width="1.45"/>
    <path id="Path_5066" data-name="Path 5066" d="M129.083,169h10.793V152.723H127.09V133.13" transform="translate(-49.63 -51.997)" fill="none" stroke="#fff" stroke-miterlimit="10" stroke-width="1.45"/>
    <path id="Path_5067" data-name="Path 5067" d="M156.811,137.21v23.749H148.34" transform="translate(-57.93 -53.591)" fill="none" stroke="#fff" stroke-miterlimit="10" stroke-width="1.45"/>
    <path id="Path_5068" data-name="Path 5068" d="M106.582,189.9H78.518V169.64H72.04" transform="translate(-28.129 -66.257)" fill="none" stroke="#fff" stroke-miterlimit="10" stroke-width="1.45"/>
    <path id="Path_5069" data-name="Path 5069" d="M162.42,162.74h6.868v18.935" transform="translate(-63.43 -63.562)" fill="none" stroke="#fff" stroke-miterlimit="10" stroke-width="1.45"/>
    <path id="Path_5070" data-name="Path 5070" d="M173.69,165.588h4.735V145.66h3.736" transform="translate(-67.831 -56.891)" fill="none" stroke="#fff" stroke-miterlimit="10" stroke-width="1.45"/>
    <rect id="Rectangle_1584" data-name="Rectangle 1584" width="22.92" height="14.699" rx="4.47" transform="translate(153.193 12.121)" fill="#79a3ff" opacity="0.18"/>
    <rect id="Rectangle_1585" data-name="Rectangle 1585" width="22.92" height="14.699" rx="4.47" transform="translate(154.143 12.853)" fill="#79a3ff" opacity="0.18"/>
  </g>
</svg>
