<svg xmlns="http://www.w3.org/2000/svg" width="233.128" height="172.037" viewBox="0 0 233.128 172.037">
  <g id="Group_4832" data-name="Group 4832" transform="translate(-150.513 -139.815)">
    <g id="Group_4807" data-name="Group 4807" transform="translate(150.513 139.815)">
      <path id="Path_5386" data-name="Path 5386" d="M381.941,242.686c-1.037-15.875,6.628-27.135-4.057-39.174-6.617-7.455-32.119-16.908-38.736-24.364a37.39,37.39,0,0,0-7.308-6.874c-7.741-5.026-17.874-3.857-27.169-3.414a85.307,85.307,0,0,1-20.52-1.179c-17.083-3.361-31.7-13.748-47.784-20.291a110.185,110.185,0,0,0-22.985-6.546c-7.27-1.239-14.918-1.72-21.889.64s-13.12,8.1-14.017,15.229c-.5,3.986.628,7.979.9,11.986s-.6,8.534-3.962,10.857c-2.723,1.879-6.365,1.834-9.438,3.1-7.8,3.222-9.377,13.337-8.358,21.526s3.35,17.024-.659,24.292c-1.111,2.015-2.666,3.785-3.653,5.86a21.571,21.571,0,0,0-1.657,8.006c-.944,15.262,2.968,41.694,9.423,50.242,12.065,15.976,27.348,17.791,27.348,17.791s147.094-.192,170.617-.192c12.972-5.473,2.593-21.565,5.466-26.19,3.045-4.9,2.926-11,6.276-15.713,2.231-3.142,5.887-4.842,8.193-7.9C381.614,255.559,382.319,248.473,381.941,242.686Z" transform="translate(-150.513 -139.815)" fill="#f7d2ff"/>
      <path id="Path_5387" data-name="Path 5387" d="M885.259,821.29c-.89-3.092-4.356-5.4-8.5-5.4a10.837,10.837,0,0,0-2.2.224c-2.045-3.491-6.483-5.91-11.63-5.91a15.845,15.845,0,0,0-3.821.462c-2.771-3.662-7.8-6.111-13.555-6.111-6.842,0-12.669,3.466-14.877,8.318a13,13,0,0,0-5.279-1.093c-6,0-10.859,3.881-10.859,8.668a7.034,7.034,0,0,0,.052.841Z" transform="translate(-747.772 -737.719)" fill="#fff" opacity="0.5"/>
      <path id="Path_5388" data-name="Path 5388" d="M1640.35,547.059a2.354,2.354,0,0,1,2.344-1.489,2.994,2.994,0,0,1,.607.062,3.683,3.683,0,0,1,3.207-1.63,4.369,4.369,0,0,1,1.054.127,4.674,4.674,0,0,1,3.738-1.685,4.428,4.428,0,0,1,4.1,2.294,3.584,3.584,0,0,1,1.456-.3c1.654,0,2.995,1.07,2.995,2.39a1.946,1.946,0,0,1-.014.232Z" transform="translate(-1490.553 -501.961)" fill="#fff" opacity="0.5"/>
      <path id="Path_5389" data-name="Path 5389" d="M494.8,240.087a3.376,3.376,0,0,1,3.361-2.135,4.283,4.283,0,0,1,.871.089,5.281,5.281,0,0,1,4.6-2.337,6.268,6.268,0,0,1,1.511.183,6.7,6.7,0,0,1,5.36-2.416,6.349,6.349,0,0,1,5.883,3.289,5.141,5.141,0,0,1,2.087-.432c2.371,0,4.294,1.534,4.294,3.427a2.8,2.8,0,0,1-.02.332Z" transform="translate(-460.182 -224.053)" fill="#fff" opacity="0.5"/>
      <path id="Path_5390" data-name="Path 5390" d="M209.02,659.017a13.735,13.735,0,0,1,7.741-2.286,12.747,12.747,0,0,1,10.194,4.6,11.913,11.913,0,0,1,2.873-.347c3.87,0,7.208,1.819,8.746,4.444a8.139,8.139,0,0,1,1.656-.169c3.116,0,5.723,1.735,6.392,4.06H208.8c-.008-.062-.016-.124-.023-.186A32.875,32.875,0,0,1,209.02,659.017Z" transform="translate(-202.672 -604.757)" fill="#fff" opacity="0.5"/>
      <path id="Path_5391" data-name="Path 5391" d="M2022.567,660.524h-41.989c.659-2.291,3.228-4,6.3-4a8.038,8.038,0,0,1,1.631.166c1.516-2.587,4.8-4.379,8.617-4.379a11.739,11.739,0,0,1,2.831.342,10.958,10.958,0,0,1,4.1-3.234C2011.3,653.234,2018.625,657.058,2022.567,660.524Z" transform="translate(-1796.573 -598.181)" fill="#fff" opacity="0.5"/>
      <path id="Path_5392" data-name="Path 5392" d="M228.717,312.708a12.55,12.55,0,0,1,6.6-6.6c3.073-1.269,6.715-1.224,9.438-3.1a8.864,8.864,0,0,0,3.331-4.752c12.756-.01,25.546.433,37.909-1.9a7.337,7.337,0,0,0,2.888-.99c1.7-1.218,1.35-3.566-.176-4.925s-3.839-1.949-6.066-2.362c-11.251-2.091-22.877-1.143-34.475-.526a27.9,27.9,0,0,1-.35-7.386,14.62,14.62,0,0,1,.5-2.36c11.387.327,22.793-.955,34.187-.709a7.223,7.223,0,0,1,3.719.763,8.98,8.98,0,0,1,1.941,2.323c1.892,2.379,5.648,3.244,9.073,3.926l37.186,7.4c3.371.671,6.911,1.416,9.4,3.354,4.316,3.366,3.3,9.975-1.915,12.4-3.056,1.425-6.794,1.434-10.332,1.4l-16.49-.142c-3.76-.032-7.641-.047-11.114,1.1-3.233,1.071-5.868,3.077-9.087,4.173-3.521,1.2-7.469,1.227-11.3,1.236l-42.355.1c-3.259.008-6.621,0-9.623-1.012A12.322,12.322,0,0,1,228.717,312.708Z" transform="translate(-220.854 -263.258)" fill="#fff" opacity="0.2"/>
    </g>
    <path id="Rectangle_1644" data-name="Rectangle 1644" d="M1.667,0H207.338A1.667,1.667,0,0,1,209,1.667v0a1.667,1.667,0,0,1-1.667,1.667H1.667A1.667,1.667,0,0,1,0,1.668v0A1.667,1.667,0,0,1,1.667,0Z" transform="translate(162.593 308.518)" fill="#eea4ff"/>
    <g id="Group_4831" data-name="Group 4831" transform="translate(172.311 155.706)">
      <g id="Group_4819" data-name="Group 4819" transform="translate(115.048 45.67)">
        <path id="Path_5393" data-name="Path 5393" d="M1990.636,868.947c12.916-3.111,23.141-20.436,23.837-21.485s.642-2.071.4-2.174-.757.357-.757.357.073-1.352-.261-1.551c-.47-.281-1.235.4-1.235.4s-.126-1.286-.686-1.339-.862,1.063-.862,1.063a1.338,1.338,0,0,0-.888-.367c-.92.285-.357,2.091-.357,2.091l-.636-.012c-.956.026.164,2.011.164,2.011s-.953,2.622-8.069,8.355-12.815,6.075-12.815,6.075Z" transform="translate(-1940.517 -833.996)" fill="#ffc0bb"/>
        <path id="Path_5394" data-name="Path 5394" d="M1934.525,1013.915s-6.1,1.773-7.895,1.846c-2.583.105-.824,8.307,2.215,8.47,1.178.063,8.232-1.312,8.232-1.312A48.6,48.6,0,0,0,1934.525,1013.915Z" transform="translate(-1883.772 -987.589)" fill="#e03268"/>
        <path id="Path_5395" data-name="Path 5395" d="M1534.039,848.064c-12.65-4.059-21.571-22.09-22.181-23.191-.5-.893-.3-1.767-.052-1.851a.816.816,0,0,1,.544.066s.041-.846.466-1.112a1.243,1.243,0,0,1,1.11.074s.188-.806.75-.818.814.658.814.658a1.338,1.338,0,0,1,.913-.3c.9.353.2,2.112.2,2.112l.635.036c.951.1-.312,1.994-.312,1.994s.756,2.685,7.429,8.929,12.331,7.006,12.331,7.006Z" transform="translate(-1511.55 -814.28)" fill="#ffc0bb"/>
        <path id="Path_5396" data-name="Path 5396" d="M1706.558,1002.08s5.949,2.219,7.736,2.425c2.568.3.207,8.345-2.836,8.283-1.179-.024-8.113-1.917-8.113-1.917A48.577,48.577,0,0,1,1706.558,1002.08Z" transform="translate(-1684.062 -976.944)" fill="#e03268"/>
        <g id="Group_4808" data-name="Group 4808" transform="translate(22.749)">
          <path id="Path_5397" data-name="Path 5397" d="M1848.743,963.863l-.08,5.795-6.124,1.109.2-8.178Z" transform="translate(-1832.008 -941.424)" fill="#ffc0bb"/>
          <path id="Path_5398" data-name="Path 5398" d="M1843.632,966.354l.094-3.765,6,1.923-.033,1.745A9.956,9.956,0,0,1,1843.632,966.354Z" transform="translate(-1832.991 -941.424)" fill="#fc8d84" opacity="0.6"/>
          <path id="Path_5399" data-name="Path 5399" d="M1759.512,754.313a18.666,18.666,0,0,0-9.878-2.161c-7.957.8-8.938,8.641-11.831,8.767,0,0,.661.734,2.879.441,0,0-1.314,2.138-1.085,3.5a12.91,12.91,0,0,1,2.346-2.335s-1.683,7.135,3.421,9.486c3.032,1.4,9.347-9.364,9.347-9.364Z" transform="translate(-1737.803 -752.085)" fill="#07085b"/>
          <path id="Path_5400" data-name="Path 5400" d="M1919.233,909.014s.351,4.4,3.056,5.029a4.6,4.6,0,0,1-.626-2.928s2.034,2.837,4.285,1.065c0,0-3.828-2.035-2.682-4.886s-4.307.643-4.307.643Z" transform="translate(-1900.744 -890.681)" fill="#07085b"/>
          <path id="Path_5401" data-name="Path 5401" d="M1774.046,870.821a1.694,1.694,0,1,1-2.2-1.466A1.891,1.891,0,0,1,1774.046,870.821Z" transform="translate(-1767.459 -857.508)" fill="#f99893"/>
          <path id="Path_5402" data-name="Path 5402" d="M1790.744,802.222a8.571,8.571,0,0,1-.547-1.491,16.291,16.291,0,0,1-.56-4.113c0-.271-.025-.541-.051-.811a8.829,8.829,0,1,1,17.593-.141,1.91,1.91,0,0,1,1.724,0,2.659,2.659,0,0,1-2.488,4.555,1.686,1.686,0,0,1-.374-.28,8.281,8.281,0,0,1-8.806,6.907,7.923,7.923,0,0,1-5.181-2.651,3.859,3.859,0,0,1-.275-.3A7.624,7.624,0,0,1,1790.744,802.222Z" transform="translate(-1784.345 -782.73)" fill="#ffc0bb"/>
          <path id="Path_5403" data-name="Path 5403" d="M1885.675,875.9a.771.771,0,1,0,.841-.693A.769.769,0,0,0,1885.675,875.9Z" transform="translate(-1870.804 -862.825)" fill="#333"/>
          <path id="Path_5404" data-name="Path 5404" d="M1819.734,873.93a.771.771,0,1,0,.841-.693A.77.77,0,0,0,1819.734,873.93Z" transform="translate(-1811.493 -861.053)" fill="#333"/>
          <path id="Path_5405" data-name="Path 5405" d="M1877.952,858.642a7.226,7.226,0,0,1,1.129-.258,3.8,3.8,0,0,1,1.079,0,3.53,3.53,0,0,1,1.028.307l.129.054c.043.019.081.046.123.067l.252.135c.169.094.325.21.513.3a3.407,3.407,0,0,0-.336-.513,2.794,2.794,0,0,0-.457-.424,2.51,2.51,0,0,0-1.175-.483,2.627,2.627,0,0,0-1.263.129A2.434,2.434,0,0,0,1877.952,858.642Z" transform="translate(-1863.861 -847.174)" fill="#07085b"/>
          <path id="Path_5406" data-name="Path 5406" d="M1808.707,855.69a2.429,2.429,0,0,0-.958-.77,2.624,2.624,0,0,0-1.246-.24,2.511,2.511,0,0,0-1.214.377,2.8,2.8,0,0,0-.493.382,3.4,3.4,0,0,0-.381.481c.2-.077.361-.179.538-.257l.263-.112c.044-.017.084-.041.129-.056l.133-.042a3.529,3.529,0,0,1,1.052-.215,3.81,3.81,0,0,1,1.074.1A7.214,7.214,0,0,1,1808.707,855.69Z" transform="translate(-1797.719 -844.36)" fill="#07085b"/>
          <path id="Path_5407" data-name="Path 5407" d="M1843.582,929.005a2.678,2.678,0,0,0,5.179-.506Z" transform="translate(-1832.946 -910.761)" fill="#fff"/>
          <path id="Path_5408" data-name="Path 5408" d="M1851.691,884.777a7.68,7.68,0,0,0-.466.941,7.164,7.164,0,0,0-.341.994,2.675,2.675,0,0,0-.082.532.97.97,0,0,0,.01.146c0,.025.012.052.019.078a.347.347,0,0,0,.043.083c.011.014.023.028.035.04l.029.023c.02.014.038.03.058.043.04.025.08.051.122.071a2.636,2.636,0,0,0,.509.2,3.6,3.6,0,0,0,.529.113,5.988,5.988,0,0,1-.948-.456c-.036-.022-.068-.048-.1-.073l-.046-.039-.022-.019a.034.034,0,0,0-.006-.011.385.385,0,0,1-.023-.2,2.715,2.715,0,0,1,.087-.489c.081-.33.187-.658.288-.988S1851.6,885.113,1851.691,884.777Z" transform="translate(-1839.441 -871.435)" fill="#f99893"/>
          <path id="Path_5409" data-name="Path 5409" d="M1851.588,770.4a1.939,1.939,0,0,1,2.3.508c.451-1.076,2.095-5.733-1.617-8.949l2.5-1.071a4.741,4.741,0,0,0-2.854-.386,6.288,6.288,0,0,0,.357-2.437s-1.07,1.456-1.694,1.709l-11.652.134s.8,4.994,4.013,6.837c0,0-1.308-3.031-.951-4.785a7.29,7.29,0,0,0,5.291,5.825l2.586,5.172.608-.282A3.211,3.211,0,0,1,1851.588,770.4Z" transform="translate(-1828.753 -757.462)" fill="#07085b"/>
        </g>
        <path id="Path_5410" data-name="Path 5410" d="M1729.479,1225.789s-3.511,31.312-2.941,42.224l6.2.739,6.458-36.226.817.032,4.16,36.436h5.63s.929-36.373-2.107-46.621S1729.479,1225.789,1729.479,1225.789Z" transform="translate(-1704.865 -1171.66)" fill="#feb546"/>
        <path id="Path_5411" data-name="Path 5411" d="M1769.171,1031.9c-1.871-1.843-2.066-8.056-2.215-8.47a21.15,21.15,0,0,0-3.062-.563l-.343-.012h0c-4.043,1.292-5.993-.361-5.993-.361-1.5-.253-5.808.006-7.518,10.574-2.087,12.9-2.182,17.174-2.182,17.174s12.051,5.788,20.4,1.233C1768.259,1051.471,1769.888,1047.362,1769.171,1031.9Z" transform="translate(-1724.098 -995.255)" fill="#ff5b7e"/>
        <path id="Path_5412" data-name="Path 5412" d="M1737.5,1722.939l-.129,4.535-3.01,2.183a13.386,13.386,0,0,1-1.395-2.183c.028-.265.279-5.727.279-5.727Z" transform="translate(-1710.704 -1624.252)" fill="#ffc0bb"/>
        <path id="Path_5413" data-name="Path 5413" d="M1912.92,1722.939l.129,4.535,3.01,2.183a13.4,13.4,0,0,0,1.395-2.183c-.028-.265-.279-5.727-.279-5.727Z" transform="translate(-1872.564 -1624.252)" fill="#ffc0bb"/>
        <path id="Path_5414" data-name="Path 5414" d="M1721.953,1706.324l6.524.778a.313.313,0,0,1,.27.369l-.441,2.3a.313.313,0,0,1-.35.251l-6.11-.844a.312.312,0,0,1-.27-.313l.028-2.234A.312.312,0,0,1,1721.953,1706.324Z" transform="translate(-1700.459 -1610.378)" fill="#f4a640"/>
        <path id="Path_5415" data-name="Path 5415" d="M1903.119,1708.054l-6.524.778a.313.313,0,0,0-.27.369l.442,2.3a.312.312,0,0,0,.349.25l6.111-.844a.313.313,0,0,0,.27-.313l-.028-2.233A.312.312,0,0,0,1903.119,1708.054Z" transform="translate(-1857.632 -1611.933)" fill="#f4a640"/>
        <g id="Group_4813" data-name="Group 4813" transform="translate(15.732 101.495)">
          <path id="Path_5416" data-name="Path 5416" d="M1668.38,1806.509l11.536.021a.359.359,0,0,0,.36-.359v-.515a.36.36,0,0,0-.359-.36l-11.536-.021a.359.359,0,0,0-.36.359v.515A.36.36,0,0,0,1668.38,1806.509Z" transform="translate(-1668.021 -1800.876)" fill="#294a5c"/>
          <path id="Path_5417" data-name="Path 5417" d="M1679.746,1762.2l.4,3.431c.049.423-.188.807-.5.806l-10.8-.02a.787.787,0,0,1-.7-.506,1.5,1.5,0,0,1,.3-1.529c.959-1.351,4.082-1.685,5.654-2.82a.185.185,0,0,1,.11-.036l4.969.009C1679.463,1761.532,1679.7,1761.813,1679.746,1762.2Z" transform="translate(-1668.044 -1761.522)" fill="#ff5b7e"/>
          <g id="Group_4809" data-name="Group 4809" transform="translate(4.589 0.3)">
            <path id="Path_5418" data-name="Path 5418" d="M1715.939,1766.2h0a.232.232,0,0,0,.062-.28,2.086,2.086,0,0,0-2.221-1.383c-.078.013-.131.117-.118.224v0c.013.1.083.171.158.158a1.8,1.8,0,0,1,1.941,1.2C1715.8,1766.2,1715.875,1766.237,1715.939,1766.2Z" transform="translate(-1713.661 -1764.504)" fill="#294a5c"/>
          </g>
          <g id="Group_4811" data-name="Group 4811" transform="translate(3.467 0.739)">
            <g id="Group_4810" data-name="Group 4810">
              <path id="Path_5419" data-name="Path 5419" d="M1704.777,1770.567h0a.231.231,0,0,0,.062-.279,2.085,2.085,0,0,0-2.221-1.383c-.078.013-.131.117-.118.223v0c.013.1.083.171.158.158a1.8,1.8,0,0,1,1.941,1.2C1704.636,1770.574,1704.712,1770.607,1704.777,1770.567Z" transform="translate(-1702.498 -1768.874)" fill="#294a5c"/>
            </g>
          </g>
          <g id="Group_4812" data-name="Group 4812" transform="translate(2.423 1.149)">
            <path id="Path_5420" data-name="Path 5420" d="M1694.394,1774.644h0a.232.232,0,0,0,.062-.28,2.085,2.085,0,0,0-2.221-1.383c-.078.013-.131.117-.118.223v0c.013.1.083.171.158.158a1.8,1.8,0,0,1,1.941,1.2C1694.254,1774.651,1694.329,1774.684,1694.394,1774.644Z" transform="translate(-1692.116 -1772.951)" fill="#294a5c"/>
          </g>
        </g>
        <g id="Group_4818" data-name="Group 4818" transform="translate(33.714 101.495)">
          <path id="Path_5421" data-name="Path 5421" d="M1847.224,1806.509l11.536.021a.359.359,0,0,0,.36-.359v-.515a.36.36,0,0,0-.359-.36l-11.536-.021a.359.359,0,0,0-.36.359v.515A.359.359,0,0,0,1847.224,1806.509Z" transform="translate(-1846.865 -1800.876)" fill="#294a5c"/>
          <path id="Path_5422" data-name="Path 5422" d="M1858.589,1762.2l.4,3.431c.049.423-.188.807-.5.806l-10.8-.02a.788.788,0,0,1-.7-.506,1.5,1.5,0,0,1,.305-1.529c.96-1.351,4.081-1.685,5.654-2.82a.185.185,0,0,1,.109-.036l4.969.009C1858.306,1761.532,1858.545,1761.813,1858.589,1762.2Z" transform="translate(-1846.887 -1761.522)" fill="#ff5b7e"/>
          <g id="Group_4814" data-name="Group 4814" transform="translate(4.589 0.3)">
            <path id="Path_5423" data-name="Path 5423" d="M1894.782,1766.2h0a.231.231,0,0,0,.062-.28,2.086,2.086,0,0,0-2.221-1.383c-.078.013-.131.117-.118.224v0c.013.1.083.171.158.158a1.8,1.8,0,0,1,1.941,1.2C1894.642,1766.2,1894.717,1766.237,1894.782,1766.2Z" transform="translate(-1892.504 -1764.504)" fill="#294a5c"/>
          </g>
          <g id="Group_4816" data-name="Group 4816" transform="translate(3.466 0.739)">
            <g id="Group_4815" data-name="Group 4815">
              <path id="Path_5424" data-name="Path 5424" d="M1883.62,1770.567h0a.231.231,0,0,0,.062-.279,2.086,2.086,0,0,0-2.221-1.383c-.078.013-.131.117-.118.223v0c.013.1.083.171.158.158a1.8,1.8,0,0,1,1.942,1.2C1883.479,1770.574,1883.555,1770.607,1883.62,1770.567Z" transform="translate(-1881.341 -1768.874)" fill="#294a5c"/>
            </g>
          </g>
          <g id="Group_4817" data-name="Group 4817" transform="translate(2.422 1.149)">
            <path id="Path_5425" data-name="Path 5425" d="M1873.237,1774.644h0a.232.232,0,0,0,.062-.28,2.085,2.085,0,0,0-2.221-1.383c-.078.013-.131.117-.118.223v0c.013.1.083.171.158.158a1.8,1.8,0,0,1,1.941,1.2C1873.1,1774.651,1873.172,1774.684,1873.237,1774.644Z" transform="translate(-1870.958 -1772.951)" fill="#294a5c"/>
          </g>
        </g>
      </g>
      <g id="Group_4820" data-name="Group 4820" transform="translate(73.815 33.387)">
        <path id="Path_5426" data-name="Path 5426" d="M1101.459,662.245l13.813-.965-13.813-.965Z" transform="translate(-1101.459 -657.26)" fill="#eaf5f9"/>
        <path id="Path_5427" data-name="Path 5427" d="M1212.737,657.584a1.378,1.378,0,1,0,1.378-1.378A1.378,1.378,0,0,0,1212.737,657.584Z" transform="translate(-1201.549 -653.563)" fill="#02ccc0"/>
        <path id="Rectangle_1645" data-name="Rectangle 1645" d="M3.911,0h0a0,0,0,0,1,0,0V7.823a0,0,0,0,1,0,0h0A3.912,3.912,0,0,1,0,3.911v0A3.911,3.911,0,0,1,3.911,0Z" transform="translate(5.466 7.823) rotate(180)" fill="#294a5c"/>
      </g>
      <g id="Group_4821" data-name="Group 4821" transform="translate(18.678 33.387)">
        <path id="Path_5428" data-name="Path 5428" d="M568.2,662.245l-13.813-.965,13.813-.965Z" transform="translate(-554.259 -657.26)" fill="#294a5c"/>
        <path id="Path_5429" data-name="Path 5429" d="M555.838,657.584a1.378,1.378,0,1,1-1.378-1.378A1.378,1.378,0,0,1,555.838,657.584Z" transform="translate(-553.082 -653.563)" fill="#02ccc0"/>
        <path id="Rectangle_1646" data-name="Rectangle 1646" d="M3.912,0h0a0,0,0,0,1,0,0V7.823a0,0,0,0,1,0,0h0A3.912,3.912,0,0,1,0,3.912v0A3.912,3.912,0,0,1,3.912,0Z" transform="translate(8.478)" fill="#294a5c"/>
      </g>
      <g id="Group_4822" data-name="Group 4822" transform="translate(73.815 33.387)">
        <path id="Path_5430" data-name="Path 5430" d="M1101.459,662.245l13.813-.965-13.813-.965Z" transform="translate(-1101.459 -657.26)" fill="#294a5c"/>
        <path id="Path_5431" data-name="Path 5431" d="M1212.737,657.584a1.378,1.378,0,1,0,1.378-1.378A1.378,1.378,0,0,0,1212.737,657.584Z" transform="translate(-1201.549 -653.563)" fill="#02ccc0"/>
        <path id="Rectangle_1647" data-name="Rectangle 1647" d="M3.911,0h0a0,0,0,0,1,0,0V7.823a0,0,0,0,1,0,0h0A3.912,3.912,0,0,1,0,3.911v0A3.911,3.911,0,0,1,3.911,0Z" transform="translate(5.466 7.823) rotate(180)" fill="#294a5c"/>
      </g>
      <g id="Group_4824" data-name="Group 4824" transform="translate(82.626 50.086)">
        <g id="Group_4823" data-name="Group 4823" transform="translate(0 9.638)">
          <path id="Path_5432" data-name="Path 5432" d="M1189.094,906.706l1.7-3.882a25.391,25.391,0,0,0,30.131-7.586l2.646-3.37,3.331,2.616-2.646,3.369A29.627,29.627,0,0,1,1189.094,906.706Z" transform="translate(-1189.094 -891.869)" fill="#294a5c"/>
        </g>
        <path id="Path_5433" data-name="Path 5433" d="M1514.783,807.123a3.979,3.979,0,0,0,.489-3.109l2.113-3.244a.879.879,0,0,0-1.472-.959l-1.509,2.317a6.24,6.24,0,0,0-3.755-2.436l1.513-2.323a.878.878,0,0,0-.257-1.215h0a.879.879,0,0,0-1.216.257l-2.123,3.261a3.973,3.973,0,0,0-2.617,1.7,4.082,4.082,0,0,0-.346,3.608,1.309,1.309,0,0,0-.868.575h0a1.314,1.314,0,0,0,.384,1.819l4.493,2.926a1.314,1.314,0,0,0,1.819-.384h0a1.311,1.311,0,0,0,.178-1.014A4.085,4.085,0,0,0,1514.783,807.123Z" transform="translate(-1472.807 -796.011)" fill="#02ccc0"/>
      </g>
      <g id="Group_4826" data-name="Group 4826" transform="translate(0 68.991)">
        <g id="Group_4825" data-name="Group 4825" transform="translate(2.873)">
          <path id="Path_5434" data-name="Path 5434" d="M420.905,984.033l.7,4.178a25.391,25.391,0,0,0-21.11,22.8l-.379,4.268-4.219-.375.379-4.268A29.627,29.627,0,0,1,420.905,984.033Z" transform="translate(-395.895 -984.033)" fill="#294a5c"/>
        </g>
        <path id="Path_5435" data-name="Path 5435" d="M367.316,1274.176a3.978,3.978,0,0,0,1.286,2.872v3.871a.879.879,0,1,0,1.757,0v-2.764a6.238,6.238,0,0,0,4.476-.008v2.772a.879.879,0,0,0,.879.879h0a.879.879,0,0,0,.878-.879v-3.891a3.973,3.973,0,0,0,1.266-2.852,4.082,4.082,0,0,0-1.68-3.212,1.309,1.309,0,0,0,.414-.956h0a1.314,1.314,0,0,0-1.314-1.314h-5.362a1.314,1.314,0,0,0-1.314,1.314h0a1.31,1.31,0,0,0,.4.947A4.085,4.085,0,0,0,367.316,1274.176Z" transform="translate(-367.316 -1240.073)" fill="#02ccc0"/>
      </g>
      <rect id="Rectangle_1648" data-name="Rectangle 1648" width="5.838" height="32.668" transform="translate(60.35 118.689)" fill="#294a5c"/>
      <path id="Path_5436" data-name="Path 5436" d="M917.776,1728.193a9.037,9.037,0,0,0-8.331,5.533,2.536,2.536,0,0,0,2.352,3.5h11.957a2.536,2.536,0,0,0,2.352-3.5A9.037,9.037,0,0,0,917.776,1728.193Z" transform="translate(-854.758 -1584.38)" fill="#02ccc0"/>
      <path id="Path_5437" data-name="Path 5437" d="M959.664,1563.29a4.645,4.645,0,1,1-4.645-4.645A4.645,4.645,0,0,1,959.664,1563.29Z" transform="translate(-891.75 -1431.879)" fill="#02ccc0"/>
      <rect id="Rectangle_1649" data-name="Rectangle 1649" width="5.838" height="32.668" transform="translate(38.786 118.689)" fill="#294a5c"/>
      <path id="Path_5438" data-name="Path 5438" d="M807.2,826.434a1.109,1.109,0,1,1,0-2.219,1.11,1.11,0,0,0-1.11-1.11H786.013a2.481,2.481,0,0,1-1.11,3.329,1.11,1.11,0,0,1,0,2.219h0a1.11,1.11,0,0,0,1.11,1.11h20.076a1.11,1.11,0,0,0,1.11-1.11h0a1.11,1.11,0,1,1,0-2.219Z" transform="translate(-742.917 -770.294)" fill="#294a5c"/>
      <path id="Path_5439" data-name="Path 5439" d="M765.918,327.475l1.8-25.758,1.8,25.758Z" transform="translate(-725.84 -301.329)" fill="#294a5c"/>
      <path id="Path_5440" data-name="Path 5440" d="M991.548,327.475l1.8-25.758,1.8,25.758Z" transform="translate(-928.784 -301.329)" fill="#294a5c"/>
      <path id="Rectangle_1650" data-name="Rectangle 1650" d="M9.468,0h13.77A9.468,9.468,0,0,1,32.7,9.468v0a0,0,0,0,1,0,0H0a0,0,0,0,1,0,0v0A9.468,9.468,0,0,1,9.468,0Z" transform="translate(36.791 19.112)" fill="#294a5c"/>
      <path id="Rectangle_1651" data-name="Rectangle 1651" d="M8.226,0h0a0,0,0,0,1,0,0V16.451a0,0,0,0,1,0,0h0A8.226,8.226,0,0,1,0,8.226v0A8.226,8.226,0,0,1,8.226,0Z" transform="translate(19.978 64.147)" fill="#294a5c"/>
      <path id="Rectangle_1652" data-name="Rectangle 1652" d="M8.226,0h0a0,0,0,0,1,0,0V16.451a0,0,0,0,1,0,0h0A8.226,8.226,0,0,1,0,8.226v0A8.226,8.226,0,0,1,8.226,0Z" transform="translate(86.439 80.598) rotate(180)" fill="#294a5c"/>
      <path id="Rectangle_1653" data-name="Rectangle 1653" d="M15.642,0H28.678A15.642,15.642,0,0,1,44.32,15.642v0A15.642,15.642,0,0,1,28.677,31.285H15.642A15.642,15.642,0,0,1,0,15.643v0A15.642,15.642,0,0,1,15.642,0Z" transform="translate(31.049 22.223)" fill="#02ccc0"/>
      <path id="Path_5441" data-name="Path 5441" d="M719.846,603.341a4.141,4.141,0,1,1-4.141-4.141A4.141,4.141,0,0,1,719.846,603.341Z" transform="translate(-676.951 -568.902)" fill="#eaf5f9"/>
      <path id="Path_5442" data-name="Path 5442" d="M1007.391,603.341a4.141,4.141,0,1,1-4.141-4.141A4.141,4.141,0,0,1,1007.391,603.341Z" transform="translate(-935.585 -568.902)" fill="#eaf5f9"/>
      <g id="Group_4829" data-name="Group 4829" transform="translate(44.437 36.746)">
        <g id="Group_4828" data-name="Group 4828">
          <g id="Group_4827" data-name="Group 4827">
            <path id="Path_5443" data-name="Path 5443" d="M818.051,671.462c-4.464,0-6.713-2.2-7.814-4.037a9.24,9.24,0,0,1-.883-1.987,1.623,1.623,0,0,1,1.475-2.1h0a1.63,1.63,0,0,1,1.627,1.149,5.928,5.928,0,0,0,.621,1.368c.982,1.569,2.655,2.365,4.972,2.365s3.99-.8,4.972-2.365a5.927,5.927,0,0,0,.622-1.368,1.629,1.629,0,0,1,1.627-1.149h0a1.623,1.623,0,0,1,1.475,2.1,9.247,9.247,0,0,1-.884,1.987C824.763,669.267,822.514,671.462,818.051,671.462Z" transform="translate(-809.279 -663.333)" fill="#eaf5f9"/>
          </g>
        </g>
      </g>
      <g id="Group_4830" data-name="Group 4830" transform="translate(45.977 38.786)">
        <path id="Path_5444" data-name="Path 5444" d="M831.824,688.465a8.062,8.062,0,0,1-5.145-1.589,6.948,6.948,0,0,1-2.055-2.725.383.383,0,0,1,.216-.51h0a.381.381,0,0,1,.484.2c.795,1.833,2.564,3.856,6.5,3.856s5.706-2.023,6.5-3.856a.381.381,0,0,1,.484-.2h0a.383.383,0,0,1,.216.51,6.947,6.947,0,0,1-2.055,2.725A8.061,8.061,0,0,1,831.824,688.465Z" transform="translate(-824.592 -683.617)" fill="#294a5c"/>
      </g>
      <path id="Path_5445" data-name="Path 5445" d="M729.162,613.83a2.969,2.969,0,1,1-2.969-2.969A2.969,2.969,0,0,1,729.162,613.83Z" transform="translate(-687.44 -579.391)" fill="#294a5c"/>
      <path id="Path_5446" data-name="Path 5446" d="M1016.708,613.83a2.969,2.969,0,1,1-2.969-2.969A2.969,2.969,0,0,1,1016.708,613.83Z" transform="translate(-946.074 -579.391)" fill="#294a5c"/>
      <path id="Path_5447" data-name="Path 5447" d="M1036.724,616.8a1.262,1.262,0,1,1-1.958-.05A1.4,1.4,0,0,1,1036.724,616.8Z" transform="translate(-967.43 -584.347)" fill="#e3eef4"/>
      <path id="Path_5448" data-name="Path 5448" d="M750.366,616.8a1.262,1.262,0,1,1-1.957-.05A1.4,1.4,0,0,1,750.366,616.8Z" transform="translate(-709.865 -584.347)" fill="#e3eef4"/>
      <path id="Path_5449" data-name="Path 5449" d="M715.232,749.316H681.34a5.214,5.214,0,0,1-5.214-5.214v3.426a5.214,5.214,0,0,0,5.214,5.214h33.892a5.214,5.214,0,0,0,5.214-5.214V744.1A5.214,5.214,0,0,1,715.232,749.316Z" transform="translate(-645.077 -699.235)" fill="#06bfad"/>
      <path id="Rectangle_1654" data-name="Rectangle 1654" d="M25,0h0a25,25,0,0,1,25,25V36.318a25,25,0,0,1-25,25h0a25,25,0,0,1-25-25V25A25,25,0,0,1,25,0Z" transform="translate(28.204 58.462)" fill="#02ccc0"/>
      <path id="Path_5450" data-name="Path 5450" d="M691.949,1398.128H653.707a5.883,5.883,0,0,1-5.883-5.884v3.866a5.883,5.883,0,0,0,5.883,5.883h38.242a5.883,5.883,0,0,0,5.883-5.883v-3.866A5.883,5.883,0,0,1,691.949,1398.128Z" transform="translate(-619.62 -1282.209)" fill="#06bfad"/>
      <rect id="Rectangle_1655" data-name="Rectangle 1655" width="21.913" height="33.754" rx="10.956" transform="translate(32.224 67.317)" fill="#294a5c" opacity="0.3"/>
      <path id="Rectangle_1656" data-name="Rectangle 1656" d="M9.408,0h0a9.408,9.408,0,0,1,9.408,9.408V24.346a9.408,9.408,0,0,1-9.408,9.408h0A9.408,9.408,0,0,1,0,24.346V9.408A9.408,9.408,0,0,1,9.408,0Z" transform="translate(56.611 67.317)" fill="#294a5c" opacity="0.3"/>
      <path id="Rectangle_1657" data-name="Rectangle 1657" d="M.929,0h0a.929.929,0,0,1,.929.929V24.185a.929.929,0,0,1-.929.929h0A.929.929,0,0,1,0,24.185V.929A.929.929,0,0,1,.929,0Z" transform="translate(49.879 71.637)" fill="#294a5c"/>
      <path id="Path_5451" data-name="Path 5451" d="M953.622,997.366a7.974,7.974,0,0,0-7.859,8.084H961.48A7.974,7.974,0,0,0,953.622,997.366Z" transform="translate(-887.603 -927.034)" fill="#294a5c"/>
      <path id="Path_5452" data-name="Path 5452" d="M970.178,1008.658a5.9,5.9,0,0,0-6.008,5.78h12.016A5.9,5.9,0,0,0,970.178,1008.658Z" transform="translate(-904.159 -937.191)" fill="#eaf5f9"/>
      <path id="Path_5453" data-name="Path 5453" d="M954.117,1139.283a1.277,1.277,0,1,1-1.277-1.277A1.277,1.277,0,0,1,954.117,1139.283Z" transform="translate(-892.819 -1053.533)" fill="#294a5c"/>
      <path id="Path_5454" data-name="Path 5454" d="M1078.331,1139.283a1.277,1.277,0,1,1-1.277-1.277A1.277,1.277,0,0,1,1078.331,1139.283Z" transform="translate(-1004.543 -1053.533)" fill="#294a5c"/>
      <path id="Path_5455" data-name="Path 5455" d="M954.117,1259.135a1.277,1.277,0,1,1-1.277-1.277A1.277,1.277,0,0,1,954.117,1259.135Z" transform="translate(-892.819 -1161.335)" fill="#294a5c"/>
      <path id="Path_5456" data-name="Path 5456" d="M1078.331,1259.135a1.277,1.277,0,1,1-1.277-1.277A1.277,1.277,0,0,1,1078.331,1259.135Z" transform="translate(-1004.543 -1161.335)" fill="#294a5c"/>
      <path id="Rectangle_1658" data-name="Rectangle 1658" d="M1.126,0H41.762a1.126,1.126,0,0,1,1.126,1.126v0a1.126,1.126,0,0,1-1.126,1.126H1.126A1.126,1.126,0,0,1,0,1.126v0A1.126,1.126,0,0,1,1.126,0Z" transform="translate(32.539 105.611)" fill="#294a5c"/>
      <path id="Rectangle_1659" data-name="Rectangle 1659" d="M1.126,0H41.762a1.126,1.126,0,0,1,1.126,1.126v0a1.126,1.126,0,0,1-1.126,1.126H1.126A1.126,1.126,0,0,1,0,1.126v0A1.126,1.126,0,0,1,1.126,0Z" transform="translate(32.539 110.035)" fill="#294a5c"/>
      <path id="Path_5457" data-name="Path 5457" d="M1020.373,1020.982l2.313-4.238-1.274,4.351Z" transform="translate(-954.711 -944.464)" fill="#294a5c" opacity="0.3"/>
      <path id="Path_5458" data-name="Path 5458" d="M1014.692,1055.123c0-.023,0-.047,0-.071a1.161,1.161,0,1,0-2.323,0c0,.024,0,.047,0,.071Z" transform="translate(-947.515 -977.876)" fill="#02ccc0"/>
      <path id="Path_5459" data-name="Path 5459" d="M703.307,1728.193a9.037,9.037,0,0,0-8.331,5.533,2.536,2.536,0,0,0,2.352,3.5h11.957a2.536,2.536,0,0,0,2.352-3.5A9.037,9.037,0,0,0,703.307,1728.193Z" transform="translate(-661.853 -1584.38)" fill="#02ccc0"/>
      <path id="Path_5460" data-name="Path 5460" d="M745.193,1563.29a4.645,4.645,0,1,1-4.645-4.645A4.645,4.645,0,0,1,745.193,1563.29Z" transform="translate(-698.844 -1431.879)" fill="#02ccc0"/>
      <path id="Path_5461" data-name="Path 5461" d="M766.556,300.037a2.172,2.172,0,1,1-2.172-2.172A2.172,2.172,0,0,1,766.556,300.037Z" transform="translate(-722.507 -297.865)" fill="#02ccc0"/>
      <path id="Path_5462" data-name="Path 5462" d="M992.184,300.037a2.172,2.172,0,1,1-2.172-2.172A2.172,2.172,0,0,1,992.184,300.037Z" transform="translate(-925.449 -297.865)" fill="#02ccc0"/>
      <path id="Path_5463" data-name="Path 5463" d="M1514.491,827.846c.318.711.1,1.789-.382,1.539a3.315,3.315,0,0,1-.942-1.085c.334,1.359,0,1.97-.578,1.611a7.29,7.29,0,0,1-.948-.693c.524,1.109.608,1.717.346,1.907s-.86-.1-1.121-.833c-.107-.931,1.347-1.861,1.991-2.111S1514.336,827.5,1514.491,827.846Z" transform="translate(-1395.883 -774.442)" fill="#ffc0bb"/>
    </g>
  </g>
</svg>
